<svg width="320" height="205" viewBox="0 0 320 205" fill="none" xmlns="http://www.w3.org/2000/svg">
<g clip-path="url(#clip0_14163_285028)">
<circle opacity="0.05" cx="240" cy="717" r="625" fill="url(#paint0_linear_14163_285028)"/>
<path opacity="0.08" d="M261.302 215C323.543 215 373.999 164.631 373.999 102.5C373.999 40.3678 323.543 -10 261.302 -10C202.252 -10 153.81 35.3366 148.999 93.043H297.957V111.956H148.999C153.81 169.663 202.252 215 261.302 215Z" fill="white"/>
<path opacity="0.1" d="M261.302 215C323.543 215 373.999 164.631 373.999 102.5C373.999 40.3678 323.543 -10 261.302 -10C202.252 -10 153.81 35.3366 148.999 93.043H297.957V111.956H148.999C153.81 169.663 202.252 215 261.302 215Z" fill="url(#paint1_linear_14163_285028)"/>
<path opacity="0.15" d="M261.302 -9C322.992 -9 372.999 40.9218 372.999 102.5C372.999 164.077 322.992 214 261.302 214C203.145 214 155.373 169.631 150.093 112.956H298.957V92.043H150.093C155.373 35.3689 203.145 -8.99978 261.302 -9Z" stroke="url(#paint2_linear_14163_285028)" stroke-width="2"/>
</g>
<defs>
<linearGradient id="paint0_linear_14163_285028" x1="41" y1="129" x2="114" y2="177" gradientUnits="userSpaceOnUse">
<stop stop-color="white"/>
<stop offset="1" stop-color="white" stop-opacity="0"/>
</linearGradient>
<linearGradient id="paint1_linear_14163_285028" x1="313.166" y1="102.5" x2="148.999" y2="102.5" gradientUnits="userSpaceOnUse">
<stop stop-color="white"/>
<stop offset="1" stop-color="white" stop-opacity="0"/>
</linearGradient>
<linearGradient id="paint2_linear_14163_285028" x1="311.622" y1="102.5" x2="148.999" y2="102.5" gradientUnits="userSpaceOnUse">
<stop stop-color="white"/>
<stop offset="1" stop-color="white" stop-opacity="0"/>
</linearGradient>
<clipPath id="clip0_14163_285028">
<rect width="320" height="205" rx="20" fill="white"/>
</clipPath>
</defs>
</svg>
