<svg width="320" height="205" viewBox="0 0 320 205" fill="none" xmlns="http://www.w3.org/2000/svg">
<g clip-path="url(#clip0_13519_79890)">
<path opacity="0.15" d="M320.638 86.0631C325.069 60.5229 305.922 46.2847 279.512 36.4643L288.97 1.94842L268.005 -3.81651L258.798 29.7898C253.287 28.2745 247.624 26.8338 241.996 25.406L251.269 -8.42163L230.317 -14.1863L220.854 20.3174C216.289 19.1617 211.809 18.02 207.462 16.8272L207.489 16.7194L178.577 8.75526L172.434 31.1955C172.434 31.1955 187.996 35.1585 187.661 35.3735C196.151 37.712 197.561 43.4127 197.197 47.8971L186.424 87.2182C187.01 87.3826 187.767 87.6173 188.6 87.9742C187.902 87.7831 187.155 87.5727 186.385 87.3678L171.286 142.451C170.179 145.026 167.438 148.864 161.503 147.243C161.706 147.555 146.265 143.046 146.265 143.046L135.225 166.991L162.506 174.495C167.581 175.898 172.553 177.358 177.448 178.739L167.892 213.65L188.832 219.414L198.296 184.874C204.013 186.575 209.565 188.152 214.998 189.641L205.569 224.019L226.533 229.784L236.088 194.939C271.887 202.608 298.993 200.496 311.145 168.17C320.937 142.142 311.666 126.776 292.979 116.457C306.833 113.598 317.426 104.76 320.638 86.0631ZM270.856 152.637C263.719 178.728 219.961 163.499 205.749 159.604L218.428 113.354C232.639 117.267 278.313 125.428 270.856 152.637ZM278.987 84.7001C272.476 108.433 236.064 95.4369 224.229 92.1823L235.725 50.2342C247.559 53.4889 285.767 59.9441 278.987 84.7001Z" fill="url(#paint0_linear_13519_79890)"/>
<path opacity="0.12" d="M320.638 86.0631C325.07 60.5229 305.922 46.2847 279.513 36.4643L288.97 1.94842L268.005 -3.81652L258.798 29.7898C253.287 28.2745 247.624 26.8338 241.996 25.406L251.269 -8.42163L230.317 -14.1863L220.854 20.3174C216.29 19.1617 211.809 18.02 207.462 16.8272L207.489 16.7194L178.578 8.75525L172.435 31.1955C172.435 31.1955 187.996 35.1585 187.661 35.3735C196.151 37.712 197.561 43.4127 197.197 47.8971L186.425 87.2182C187.01 87.3826 187.767 87.6173 188.6 87.9742C187.902 87.7831 187.155 87.5727 186.385 87.3678L171.286 142.451C170.179 145.026 167.438 148.864 161.503 147.243C161.706 147.555 146.265 143.046 146.265 143.046L135.225 166.991L162.506 174.495C167.581 175.898 172.553 177.358 177.448 178.739L167.892 213.65L188.832 219.414L198.296 184.874C204.013 186.575 209.565 188.152 214.998 189.641L205.569 224.019L226.533 229.784L236.088 194.939C271.887 202.608 298.993 200.496 311.145 168.17C320.937 142.142 311.666 126.776 292.979 116.457C306.833 113.598 317.426 104.76 320.638 86.0631ZM270.856 152.637C263.719 178.728 219.961 163.499 205.75 159.604L218.429 113.354C232.639 117.267 278.313 125.428 270.856 152.637ZM278.987 84.7001C272.477 108.433 236.064 95.4369 224.229 92.1823L235.725 50.2342C247.559 53.4889 285.767 59.9441 278.987 84.7001Z" fill="url(#paint1_linear_13519_79890)"/>
<path opacity="0.32" d="M279.513 36.4643C305.922 46.2846 325.07 60.5229 320.639 86.063C317.427 104.76 306.833 113.598 292.979 116.457C311.666 126.776 320.936 142.142 311.145 168.17C298.993 200.496 271.887 202.608 236.088 194.939L226.533 229.784L205.569 224.02L214.998 189.641C209.564 188.152 204.013 186.575 198.296 184.874L188.832 219.415L167.891 213.65L177.449 178.738C172.553 177.358 167.581 175.898 162.506 174.496L135.224 166.992L146.264 143.046C146.264 143.046 161.691 147.55 161.503 147.243C167.438 148.865 170.179 145.026 171.286 142.45L186.385 87.3674C187.155 87.5723 187.901 87.7831 188.6 87.9743C187.767 87.6174 187.009 87.3828 186.424 87.2184L197.196 47.8972C197.561 43.4128 196.151 37.7126 187.661 35.374C187.995 35.1597 172.525 31.2184 172.435 31.1954L178.578 8.75511L207.489 16.7197L207.462 16.8273C211.809 18.0201 216.289 19.1616 220.854 20.3173L230.316 -14.1862L251.268 -8.42146L241.996 25.4055C247.624 26.8333 253.287 28.2747 258.798 29.7901L268.005 -3.81632L288.97 1.94874L279.513 36.4643ZM268.991 -2.08647L259.784 31.5207L258.425 31.1467C252.929 29.6356 247.279 28.199 241.65 26.7709L240.26 26.4177L249.539 -7.43766L231.302 -12.4556L221.846 22.0209L220.508 21.6819C215.944 20.5263 211.451 19.3815 207.089 18.1846L205.767 17.822L205.794 17.7122L179.564 10.4863L174.17 30.1861C174.478 30.2651 174.828 30.3557 175.212 30.4547C176.667 30.83 178.605 31.3336 180.533 31.8434C182.459 32.3527 184.384 32.8701 185.809 33.2756C186.518 33.4774 187.12 33.657 187.541 33.795C187.744 33.8613 187.943 33.9308 188.098 33.9972C188.132 34.0118 188.204 34.0424 188.289 34.0886C192.665 35.3464 195.398 37.5111 196.956 40.1054C198.526 42.719 198.797 45.5903 198.6 48.0107L198.59 48.142L198.554 48.2691L188.14 86.2865C188.46 86.4001 188.801 86.5292 189.155 86.6808L188.229 89.3314C187.945 89.2539 187.66 89.1758 187.371 89.0959L172.643 142.823L172.618 142.917L172.579 143.007C171.971 144.421 170.873 146.292 169.004 147.58C167.119 148.88 164.594 149.48 161.369 148.659C161.269 148.653 161.187 148.644 161.149 148.638C160.992 148.613 160.794 148.571 160.588 148.523C160.162 148.424 159.557 148.269 158.845 148.079C157.415 147.697 155.495 147.16 153.576 146.616C151.656 146.071 149.729 145.516 148.283 145.098C147.81 144.961 147.389 144.839 147.035 144.736L137.197 166.073L162.879 173.138L162.881 173.139C167.955 174.541 172.961 176.011 177.831 177.384L179.175 177.763L169.621 212.664L187.847 217.682L197.318 183.115L198.697 183.525C204.403 185.223 209.945 186.797 215.371 188.284L216.729 188.656L207.298 223.035L225.548 228.053L235.082 193.285L236.382 193.563C254.234 197.388 269.677 198.711 282.101 195.199C294.397 191.723 303.891 183.464 309.827 167.675C314.639 154.882 314.694 144.915 311.438 136.955C308.175 128.976 301.484 122.762 292.298 117.69L288.964 115.848L292.694 115.078C299.406 113.693 305.245 110.88 309.792 106.217C314.337 101.555 317.683 94.9506 319.251 85.8254L319.251 85.8219C321.387 73.5096 317.861 64.0077 310.617 56.3355C303.305 48.5913 292.158 42.6687 279.022 37.784L277.814 37.3352L287.24 2.93191L268.991 -2.08647ZM253.38 122.992C259.6 126.001 265.287 129.816 268.938 134.732C272.638 139.714 274.198 145.769 272.214 153.009L272.027 153.655C270.027 160.255 265.721 164.326 260.204 166.584C254.583 168.884 247.747 169.293 240.849 168.769C227.065 167.723 212.379 162.88 205.377 160.961L204.02 160.589L217.443 111.622L218.802 111.996C225.766 113.914 240.964 116.988 253.38 122.992ZM270.855 152.638C278.313 125.428 232.64 117.267 218.429 113.354L205.749 159.604C219.849 163.469 263.037 178.491 270.682 153.241L270.855 152.638ZM264.968 58.1458C270.161 60.754 274.911 64.1178 277.916 68.5371C280.868 72.8789 282.071 78.1489 280.504 84.458L280.344 85.0723L280.175 85.6604C278.365 91.6646 274.664 95.4525 269.935 97.6193C265.121 99.8246 259.325 100.317 253.519 99.9663C241.932 99.2655 229.658 95.1356 223.856 93.5399L222.5 93.167L234.74 48.5033L236.098 48.8767C241.859 50.4612 254.619 52.9476 264.968 58.1458ZM278.987 84.7003C285.767 59.9444 247.56 53.4886 235.725 50.2339L224.229 92.1819C236.063 95.4366 272.476 108.433 278.987 84.7003Z" fill="url(#paint2_linear_13519_79890)"/>
<path opacity="0.1" d="M865 726C865 1071.18 585.178 1351 240 1351C-105.178 1351 -385 1071.18 -385 726C-385 380.822 -105.178 101 240 101C585.178 101 865 380.822 865 726Z" fill="url(#paint3_linear_13519_79890)"/>
</g>
<defs>
<linearGradient id="paint0_linear_13519_79890" x1="152.689" y1="-4.012e-07" x2="152.689" y2="200.893" gradientUnits="userSpaceOnUse">
<stop stop-color="white" stop-opacity="0.25"/>
<stop offset="0.5" stop-color="white"/>
</linearGradient>
<linearGradient id="paint1_linear_13519_79890" x1="285.646" y1="154.84" x2="154.45" y2="44.7542" gradientUnits="userSpaceOnUse">
<stop stop-color="white"/>
<stop offset="1" stop-color="white" stop-opacity="0"/>
</linearGradient>
<linearGradient id="paint2_linear_13519_79890" x1="259.605" y1="134.046" x2="101.5" y2="47" gradientUnits="userSpaceOnUse">
<stop stop-color="white"/>
<stop offset="1" stop-color="white" stop-opacity="0"/>
</linearGradient>
<linearGradient id="paint3_linear_13519_79890" x1="45.5" y1="120" x2="63.5" y2="184.5" gradientUnits="userSpaceOnUse">
<stop stop-color="white"/>
<stop offset="1" stop-color="white" stop-opacity="0"/>
</linearGradient>
<clipPath id="clip0_13519_79890">
<rect width="320" height="205" rx="20" fill="white"/>
</clipPath>
</defs>
</svg>
