<svg width="320" height="205" viewBox="0 0 320 205" fill="none" xmlns="http://www.w3.org/2000/svg">
<g clip-path="url(#clip0_13932_225284)">
<path opacity="0.12" d="M299.955 23.0261C286.078 -0.857737 260.695 0.634846 232.41 10.7079L216.488 -23.9453L195.426 -14.2916L210.929 19.448C205.393 21.986 199.783 24.6891 194.211 27.3782L178.61 -6.5868L157.558 3.05892L173.467 37.7061C168.95 39.889 164.51 42.0259 160.145 44.0297L160.093 43.9235L131.037 57.2254L141.393 79.7512C141.393 79.7512 156.811 72.327 156.684 72.7323C165.217 68.8255 170.273 72.5133 173.047 76.4234L191.187 115.9C191.777 115.634 192.556 115.306 193.481 115.027C192.779 115.35 192.026 115.689 191.257 116.049L216.661 171.356C217.522 174.217 217.913 179.227 211.957 181.969C212.337 182.084 196.644 188.981 196.644 188.981L204.033 216.089L231.443 203.528C236.547 201.197 241.606 198.983 246.547 196.757L262.659 231.801L283.701 222.163L267.768 187.486C273.6 184.958 279.212 182.443 284.667 179.937L300.517 214.458L321.579 204.805L305.512 169.816C339.988 151.555 360.668 131.264 348.445 96.5527C338.61 68.5991 320.517 62.4058 298.195 66.7827C307.546 54.9596 310.14 40.4887 299.955 23.0261ZM304.918 111.47C316.963 137.656 270.812 155.198 256.543 161.752L235.214 115.313C249.494 108.774 292.368 84.1509 304.918 111.47ZM265.021 50.4433C275.962 74.2754 237.337 88.6084 225.447 94.0577L206.098 51.9413C217.988 46.492 253.599 25.5904 265.021 50.4433Z" fill="url(#paint0_linear_13932_225284)"/>
<path opacity="0.1" d="M299.955 23.0261C286.078 -0.857737 260.695 0.634846 232.41 10.7079L216.488 -23.9453L195.426 -14.2916L210.929 19.448C205.393 21.986 199.783 24.6891 194.211 27.3782L178.61 -6.5868L157.558 3.05892L173.467 37.7061C168.95 39.889 164.51 42.0259 160.145 44.0297L160.093 43.9235L131.037 57.2254L141.393 79.7512C141.393 79.7512 156.811 72.327 156.684 72.7323C165.217 68.8255 170.273 72.5133 173.047 76.4234L191.187 115.9C191.777 115.634 192.556 115.306 193.481 115.027C192.779 115.35 192.026 115.689 191.257 116.049L216.661 171.356C217.522 174.217 217.913 179.227 211.957 181.969C212.337 182.084 196.644 188.981 196.644 188.981L204.033 216.089L231.443 203.528C236.547 201.197 241.606 198.983 246.547 196.757L262.659 231.801L283.701 222.163L267.768 187.486C273.6 184.958 279.212 182.443 284.667 179.937L300.517 214.458L321.579 204.805L305.512 169.816C339.988 151.555 360.668 131.264 348.445 96.5527C338.61 68.5991 320.517 62.4058 298.195 66.7827C307.546 54.9596 310.14 40.4887 299.955 23.0261ZM304.918 111.47C316.963 137.656 270.812 155.198 256.543 161.752L235.214 115.313C249.494 108.774 292.368 84.1509 304.918 111.47ZM265.021 50.4433C275.962 74.2754 237.337 88.6084 225.447 94.0577L206.098 51.9413C217.988 46.492 253.599 25.5904 265.021 50.4433Z" fill="url(#paint1_linear_13932_225284)"/>
<path opacity="0.18" d="M232.41 10.708C260.695 0.634949 286.078 -0.857508 299.955 23.0264C310.14 40.4888 307.546 54.9601 298.195 66.7832C320.517 62.4064 338.61 68.5993 348.445 96.5527C360.668 131.264 339.988 151.556 305.512 169.816L321.579 204.805L300.518 214.459L284.667 179.937C279.211 182.443 273.599 184.959 267.768 187.486L283.701 222.163L262.659 231.801L246.548 196.757C241.606 198.983 236.547 201.197 231.443 203.528L204.033 216.089L196.645 188.98C196.701 188.956 212.336 182.084 211.957 181.969C217.913 179.227 217.522 174.217 216.661 171.356L191.257 116.05C192.026 115.689 192.779 115.35 193.48 115.027C192.556 115.306 191.777 115.634 191.187 115.9L173.047 76.4238C170.273 72.5137 165.217 68.8258 156.685 72.7324C156.811 72.3282 141.48 79.7093 141.394 79.751L131.037 57.2256L160.093 43.9238L160.145 44.0293C164.51 42.0255 168.949 39.8889 173.467 37.7061L157.558 3.05859L178.609 -6.58691L194.211 27.3779C199.783 24.6888 205.393 21.9862 210.93 19.4482L195.427 -14.292L216.488 -23.9453L232.41 10.708ZM197.416 -13.5537L212.919 20.1855L211.555 20.8115C206.033 23.3424 200.437 26.0396 194.863 28.7295L193.486 29.3936L177.872 -4.59961L159.547 3.79688L175.444 38.417L174.12 39.0566C169.603 41.2392 165.151 43.3818 160.771 45.3926L159.442 46.0029L159.389 45.8945L133.027 57.9629L142.118 77.7393C142.424 77.5929 142.772 77.4264 143.153 77.2441C144.598 76.5537 146.525 75.6369 148.448 74.7324C150.369 73.829 152.294 72.934 153.735 72.2891C154.452 71.9682 155.067 71.7012 155.505 71.5254C155.715 71.4409 155.926 71.3609 156.099 71.3086C156.136 71.2972 156.215 71.2744 156.315 71.2539C160.75 69.2827 164.464 69.1779 167.514 70.2285C170.393 71.2206 172.496 73.1792 173.981 75.1592L174.271 75.5557L174.352 75.6699L174.41 75.7969L191.948 113.965C192.288 113.838 192.654 113.709 193.047 113.591L194.107 116.39C193.823 116.52 193.537 116.652 193.246 116.785L218.067 170.824L218.098 170.924C218.571 172.495 218.955 174.775 218.312 177.106C217.661 179.462 216.01 181.685 212.807 183.225C212.726 183.284 212.658 183.33 212.624 183.351C212.48 183.438 212.289 183.539 212.088 183.641C211.672 183.852 211.072 184.139 210.36 184.472C208.931 185.14 206.996 186.017 205.057 186.887C203.116 187.757 201.164 188.625 199.697 189.273C199.218 189.486 198.789 189.674 198.431 189.832L205.016 213.988L230.818 202.164L230.82 202.163C235.923 199.832 241.016 197.604 245.932 195.39L247.288 194.778L263.396 229.813L281.71 221.425L265.765 186.72L267.171 186.109C272.992 183.587 278.594 181.075 284.041 178.573L285.404 177.947L301.255 212.47L319.589 204.066L303.558 169.154L304.81 168.49C322.002 159.384 335.514 149.887 343.25 138.51C350.786 127.426 352.934 114.419 347.305 97.8428L347.03 97.0508C342.196 83.3115 335.415 75.139 327.305 70.8711C319.175 66.5933 309.456 66.1034 298.483 68.2549L294.501 69.0352L297.019 65.8525C301.549 60.1244 304.388 53.8276 304.905 46.9072C305.423 39.9886 303.63 32.3051 298.659 23.7822L298.658 23.7793C291.968 12.2652 282.581 6.92415 271.412 5.62305C260.139 4.30975 246.983 7.11081 232.914 12.1211L231.62 12.5811L215.75 -21.958L197.416 -13.5537ZM270.347 99.2402C277.485 97.4353 284.741 96.6549 291.088 98.167C297.521 99.6996 302.942 103.574 306.281 110.844C309.505 117.851 308.828 124.347 305.775 130.15C302.763 135.878 297.462 140.894 291.473 145.191C279.504 153.779 264.2 159.886 257.17 163.115L255.807 163.741L233.224 114.575L234.589 113.949C241.587 110.745 256.098 102.843 270.347 99.2402ZM304.918 111.47C292.368 84.1511 249.495 108.774 235.214 115.313L256.543 161.752C270.7 155.248 316.244 137.93 305.189 112.082L304.918 111.47ZM235.389 38.3691C241.414 36.9415 247.595 36.4335 253.075 37.9824C258.459 39.5044 263.051 42.9828 266.094 49.2061L266.384 49.8174C269.31 56.1899 268.933 62.0188 266.48 67.1885C264.062 72.2858 259.668 76.6598 254.688 80.3496C244.75 87.7143 231.902 92.7491 226.072 95.4209L224.709 96.0459L204.108 51.2031L205.473 50.5781C211.261 47.9252 223.38 41.2146 235.389 38.3691ZM265.021 50.4434C253.599 25.5905 217.988 46.492 206.098 51.9414L225.447 94.0576C237.338 88.6081 275.962 74.2752 265.021 50.4434Z" fill="url(#paint2_linear_13932_225284)"/>
<circle opacity="0.08" cx="240" cy="717" r="625" fill="url(#paint3_linear_13932_225284)"/>
</g>
<defs>
<linearGradient id="paint0_linear_13932_225284" x1="241.511" y1="-23.9453" x2="241.511" y2="231.801" gradientUnits="userSpaceOnUse">
<stop stop-color="white" stop-opacity="0"/>
<stop offset="0.6" stop-color="white"/>
</linearGradient>
<linearGradient id="paint1_linear_13932_225284" x1="318.5" y1="103.138" x2="136" y2="103.138" gradientUnits="userSpaceOnUse">
<stop stop-color="white"/>
<stop offset="1" stop-color="white" stop-opacity="0"/>
</linearGradient>
<linearGradient id="paint2_linear_13932_225284" x1="286.5" y1="103.928" x2="44" y2="75" gradientUnits="userSpaceOnUse">
<stop stop-color="white"/>
<stop offset="1" stop-color="white" stop-opacity="0"/>
</linearGradient>
<linearGradient id="paint3_linear_13932_225284" x1="45.5" y1="111" x2="63.5" y2="175.5" gradientUnits="userSpaceOnUse">
<stop stop-color="white"/>
<stop offset="1" stop-color="white" stop-opacity="0"/>
</linearGradient>
<clipPath id="clip0_13932_225284">
<rect width="320" height="205" rx="20" fill="white"/>
</clipPath>
</defs>
</svg>
