<svg width="320" height="205" viewBox="0 0 320 205" fill="none" xmlns="http://www.w3.org/2000/svg">
<g clip-path="url(#clip0_14163_285036)">
<circle opacity="0.05" cx="240" cy="717" r="625" fill="url(#paint0_linear_14163_285036)"/>
<g opacity="0.08">
<path d="M286.963 83.316H230.919C220.902 83.316 211.295 87.2956 204.213 94.3784C197.13 101.461 193.15 111.067 193.15 121.083C193.15 131.1 197.13 140.707 204.213 147.789C211.295 154.872 220.902 158.852 230.919 158.852H248.75L286.945 192H230.919C214.474 191.996 198.54 186.279 185.845 175.826C173.149 165.372 164.481 150.833 161.322 134.694C158.162 118.555 160.708 101.82 168.525 87.3507C176.341 72.882 188.941 61.578 204.171 55.3734L160.02 17H210.627L286.963 83.316Z" fill="url(#paint1_linear_14163_285036)"/>
<path d="M315.647 17C332.092 17.0037 348.025 22.7214 360.72 33.1744C373.415 43.6277 382.085 58.1672 385.245 74.306C388.404 90.4448 385.858 107.18 378.042 121.649C370.225 136.118 357.625 147.422 342.395 153.627L386.582 191.982H335.975L259.602 125.684H315.647C325.664 125.684 335.269 121.704 342.352 114.622C349.435 107.539 353.414 97.9333 353.414 87.9169C353.414 77.9003 349.435 68.2935 342.352 61.2107C335.269 54.1282 325.664 50.1484 315.647 50.1484H297.816L259.602 17H315.647Z" fill="url(#paint2_linear_14163_285036)"/>
</g>
<g opacity="0.12">
<path d="M286.963 83.316H230.919C220.902 83.316 211.295 87.2956 204.213 94.3784C197.13 101.461 193.15 111.067 193.15 121.083C193.15 131.1 197.13 140.707 204.213 147.789C211.295 154.872 220.902 158.852 230.919 158.852H248.75L286.945 192H230.919C214.474 191.996 198.54 186.279 185.845 175.826C173.149 165.372 164.481 150.833 161.322 134.694C158.162 118.555 160.708 101.82 168.525 87.3507C176.341 72.882 188.941 61.578 204.171 55.3734L160.02 17H210.627L286.963 83.316Z" fill="url(#paint3_linear_14163_285036)"/>
<path d="M315.647 17C332.092 17.0037 348.025 22.7214 360.72 33.1744C373.415 43.6277 382.085 58.1672 385.245 74.306C388.404 90.4448 385.858 107.18 378.042 121.649C370.225 136.118 357.625 147.422 342.395 153.627L386.582 191.982H335.975L259.602 125.684H315.647C325.664 125.684 335.269 121.704 342.352 114.622C349.435 107.539 353.414 97.9333 353.414 87.9169C353.414 77.9003 349.435 68.2935 342.352 61.2107C335.269 54.1282 325.664 50.1484 315.647 50.1484H297.816L259.602 17H315.647Z" fill="url(#paint4_linear_14163_285036)"/>
</g>
<path opacity="0.3" d="M210.346 17.75L284.957 82.5664H230.919C220.704 82.5664 210.906 86.6245 203.683 93.8477C196.46 101.071 192.401 110.868 192.4 121.083C192.4 131.298 196.459 141.096 203.683 148.319C210.906 155.543 220.703 159.602 230.919 159.602H248.471L284.938 191.25H230.919L230.156 191.246C214.156 191.069 198.686 185.428 186.321 175.247C173.76 164.904 165.184 150.518 162.058 134.55C158.932 118.582 161.451 102.023 169.185 87.707C176.918 73.3914 189.386 62.2073 204.454 56.0684L205.584 55.6074L204.663 54.8076L162.026 17.75H210.346ZM315.647 17.75C331.918 17.7537 347.682 23.4106 360.243 33.7529C372.804 44.0957 381.383 58.4821 384.509 74.4502C387.635 90.4183 385.115 106.977 377.382 121.293C369.648 135.609 357.181 146.793 342.112 152.932L340.981 153.393L341.903 154.193L384.574 191.232H336.255L261.609 126.434H315.647C325.863 126.433 335.66 122.376 342.883 115.152C350.106 107.929 354.164 98.1323 354.164 87.917C354.164 77.7017 350.106 67.9041 342.883 60.6807C335.66 53.4576 325.863 49.3986 315.647 49.3984H298.096L261.61 17.75H315.647Z" stroke="url(#paint5_linear_14163_285036)" stroke-width="1.5"/>
</g>
<defs>
<linearGradient id="paint0_linear_14163_285036" x1="37.5" y1="125.5" x2="74.5" y2="205" gradientUnits="userSpaceOnUse">
<stop stop-color="white"/>
<stop offset="1" stop-color="white" stop-opacity="0"/>
</linearGradient>
<linearGradient id="paint1_linear_14163_285036" x1="273.291" y1="17" x2="273.291" y2="192" gradientUnits="userSpaceOnUse">
<stop stop-color="white" stop-opacity="0"/>
<stop offset="1" stop-color="white"/>
</linearGradient>
<linearGradient id="paint2_linear_14163_285036" x1="273.291" y1="17" x2="273.291" y2="192" gradientUnits="userSpaceOnUse">
<stop stop-color="white" stop-opacity="0"/>
<stop offset="1" stop-color="white"/>
</linearGradient>
<linearGradient id="paint3_linear_14163_285036" x1="138.5" y1="27.5" x2="303.5" y2="185" gradientUnits="userSpaceOnUse">
<stop stop-color="white" stop-opacity="0"/>
<stop offset="1" stop-color="white"/>
</linearGradient>
<linearGradient id="paint4_linear_14163_285036" x1="138.5" y1="27.5" x2="303.5" y2="185" gradientUnits="userSpaceOnUse">
<stop stop-color="white" stop-opacity="0"/>
<stop offset="1" stop-color="white"/>
</linearGradient>
<linearGradient id="paint5_linear_14163_285036" x1="72.5" y1="-3.5" x2="316.5" y2="192" gradientUnits="userSpaceOnUse">
<stop offset="0.220007" stop-color="white" stop-opacity="0"/>
<stop offset="0.929673" stop-color="white"/>
</linearGradient>
<clipPath id="clip0_14163_285036">
<rect width="320" height="205" rx="20" fill="white"/>
</clipPath>
</defs>
</svg>
