<svg width="320" height="205" viewBox="0 0 320 205" fill="none" xmlns="http://www.w3.org/2000/svg">
<g clip-path="url(#clip0_12569_91827)">
<circle opacity="0.05" cx="240" cy="717" r="625" fill="url(#paint0_linear_12569_91827)"/>
<path opacity="0.08" fill-rule="evenodd" clip-rule="evenodd" d="M231.984 -2.38966C246.262 -2.38974 340.815 -5.35272 340.815 104.29C340.815 215.749 241.952 207.464 241.952 207.464H171.64V113.989H146.854V91.0914H171.639V-2.38966H231.984ZM211.244 36.3991V91.0883H254.886V113.987H211.244V168.672H240.343C247.822 168.672 301.724 169.515 301.641 105.046C301.557 40.5766 249.361 36.3993 238.984 36.3991H211.244Z" fill="url(#paint1_linear_12569_91827)"/>
<path opacity="0.08" fill-rule="evenodd" clip-rule="evenodd" d="M231.984 -2.38966C246.262 -2.38974 340.815 -5.35272 340.815 104.29C340.815 215.749 241.952 207.464 241.952 207.464H171.64V113.989H146.854V91.0914H171.639V-2.38966H231.984ZM211.244 36.3991V91.0883H254.886V113.987H211.244V168.672H240.343C247.822 168.672 301.724 169.515 301.641 105.046C301.557 40.5766 249.361 36.3993 238.984 36.3991H211.244Z" fill="url(#paint2_linear_12569_91827)"/>
<path opacity="0.35" d="M231.984 -1.75977C239.134 -1.75983 266.197 -2.49173 291.468 10.3955C304.091 16.8329 316.26 26.6663 325.277 41.6904C334.296 56.7158 340.184 76.9715 340.185 104.29C340.185 132.06 334.028 152.321 324.833 167.101C315.638 181.879 303.38 191.219 291.111 197.106C278.838 202.997 266.555 205.431 257.334 206.391C252.726 206.87 248.886 206.98 246.202 206.972C244.86 206.967 243.807 206.933 243.092 206.9C242.734 206.884 242.46 206.867 242.277 206.855C242.186 206.849 242.117 206.844 242.071 206.841L242.008 206.836H242.006C242.005 206.836 242.005 206.836 241.952 207.464L242.005 206.836L241.979 206.834H172.271V113.358H147.484V91.7217H172.269V-1.75977H231.984ZM210.613 91.7188H254.256V113.357H210.613V169.302H240.343C244.086 169.302 259.576 169.519 274.129 161.588C281.417 157.616 288.472 151.6 293.696 142.499C298.919 133.399 302.291 121.251 302.271 105.045C302.228 72.6063 289.058 55.239 274.51 46.0146C260.009 36.8205 244.228 35.7696 238.984 35.7695H210.613V91.7188Z" stroke="url(#paint3_linear_12569_91827)" stroke-width="1.26"/>
</g>
<defs>
<linearGradient id="paint0_linear_12569_91827" x1="45.5" y1="111" x2="86.5" y2="208.5" gradientUnits="userSpaceOnUse">
<stop stop-color="white"/>
<stop offset="1" stop-color="white" stop-opacity="0"/>
</linearGradient>
<linearGradient id="paint1_linear_12569_91827" x1="243.835" y1="207.603" x2="243.835" y2="-2.39746" gradientUnits="userSpaceOnUse">
<stop offset="0.5" stop-color="white"/>
<stop offset="1" stop-color="white" stop-opacity="0"/>
</linearGradient>
<linearGradient id="paint2_linear_12569_91827" x1="309.394" y1="102.936" x2="142.501" y2="102.936" gradientUnits="userSpaceOnUse">
<stop stop-color="white"/>
<stop offset="1" stop-color="white" stop-opacity="0"/>
</linearGradient>
<linearGradient id="paint3_linear_12569_91827" x1="310.234" y1="102.936" x2="136.501" y2="79.5" gradientUnits="userSpaceOnUse">
<stop stop-color="white"/>
<stop offset="1" stop-color="white" stop-opacity="0"/>
</linearGradient>
<clipPath id="clip0_12569_91827">
<rect width="320" height="205" rx="20" fill="white"/>
</clipPath>
</defs>
</svg>
