<svg width="320" height="205" viewBox="0 0 320 205" fill="none" xmlns="http://www.w3.org/2000/svg">
    <g opacity="0.2">
        <path d="M242.001 165.286V228L318.651 119.922L242.001 165.286Z" fill="white"
            fill-opacity="0.75" />
        <path d="M165.352 120.064L242.001 227.999V165.286L165.352 120.064Z" fill="white"
            fill-opacity="0.5" />
        <path d="M318.651 105.275L242.001 -22.0005V150.497L318.651 105.275Z" fill="white"
            fill-opacity="0.75" />
        <path d="M242.001 -22.0005L165.352 105.275L242.001 150.497V-22.0005Z" fill="white"
            fill-opacity="0.5" />
    </g>
    <g opacity="0.3">
        <mask id="path-5-outside-1_10809_45063" maskUnits="userSpaceOnUse" x="163.35" y="-25"
            width="158" height="255" fill="black">
            <rect fill="white" x="163.35" y="-25" width="158" height="255" />
            <path
                d="M241.999 165.285V227.999L165.35 120.063L241.999 165.285ZM242 227.999V165.286L318.649 119.922L242 227.999ZM241.999 150.497L165.35 105.275L241.999 -22V150.497ZM318.649 105.275L242 150.497V-22L318.649 105.275Z" />
        </mask>
        <path
            d="M241.999 165.285H243.999C243.999 164.577 243.625 163.922 243.015 163.563L241.999 165.285ZM241.999 227.999L240.368 229.157C240.872 229.867 241.777 230.169 242.607 229.904C243.436 229.64 243.999 228.869 243.999 227.999H241.999ZM165.35 120.063L166.366 118.341C165.553 117.861 164.516 118.015 163.877 118.71C163.238 119.405 163.172 120.452 163.719 121.221L165.35 120.063ZM242 227.999H240C240 228.87 240.563 229.64 241.393 229.905C242.222 230.169 243.128 229.866 243.631 229.156L242 227.999ZM242 165.286L240.981 163.565C240.373 163.925 240 164.579 240 165.286H242ZM318.649 119.922L320.281 121.079C320.827 120.309 320.76 119.262 320.121 118.567C319.481 117.873 318.443 117.72 317.631 118.201L318.649 119.922ZM241.999 150.497L240.983 152.22C241.601 152.584 242.367 152.59 242.991 152.234C243.614 151.878 243.999 151.215 243.999 150.497H241.999ZM165.35 105.275L163.636 104.244C163.361 104.701 163.28 105.249 163.411 105.766C163.542 106.283 163.874 106.727 164.333 106.998L165.35 105.275ZM241.999 -22H243.999C243.999 -22.8984 243.4 -23.6865 242.534 -23.927C241.669 -24.1675 240.749 -23.8014 240.286 -23.0318L241.999 -22ZM318.649 105.275L319.666 106.998C320.125 106.727 320.457 106.283 320.588 105.766C320.719 105.249 320.638 104.701 320.363 104.244L318.649 105.275ZM242 150.497H240C240 151.215 240.385 151.878 241.008 152.234C241.632 152.59 242.398 152.584 243.016 152.22L242 150.497ZM242 -22L243.713 -23.0318C243.25 -23.8014 242.33 -24.1675 241.465 -23.927C240.599 -23.6865 240 -22.8984 240 -22H242ZM241.999 165.285H239.999V227.999H241.999H243.999V165.285H241.999ZM241.999 227.999L243.63 226.841L166.98 118.905L165.35 120.063L163.719 121.221L240.368 229.157L241.999 227.999ZM165.35 120.063L164.333 121.786L240.983 167.008L241.999 165.285L243.015 163.563L166.366 118.341L165.35 120.063ZM242 227.999H244V165.286H242H240V227.999H242ZM242 165.286L243.019 167.007L319.668 121.643L318.649 119.922L317.631 118.201L240.981 163.565L242 165.286ZM318.649 119.922L317.018 118.765L240.369 226.842L242 227.999L243.631 229.156L320.281 121.079L318.649 119.922ZM241.999 150.497L243.015 148.775L166.366 103.553L165.35 105.275L164.333 106.998L240.983 152.22L241.999 150.497ZM165.35 105.275L167.063 106.307L243.712 -20.9682L241.999 -22L240.286 -23.0318L163.636 104.244L165.35 105.275ZM241.999 -22H239.999V150.497H241.999H243.999V-22H241.999ZM318.649 105.275L317.633 103.553L240.984 148.775L242 150.497L243.016 152.22L319.666 106.998L318.649 105.275ZM242 150.497H244V-22H242H240V150.497H242ZM242 -22L240.287 -20.9682L316.936 106.307L318.649 105.275L320.363 104.244L243.713 -23.0318L242 -22Z"
            fill="url(#paint0_linear_10809_45063)" mask="url(#path-5-outside-1_10809_45063)" />
    </g>
    <circle opacity="0.08" cx="240" cy="717" r="625" fill="url(#paint1_linear_10809_45063)" />
    <defs>
        <linearGradient id="paint0_linear_10809_45063" x1="165.35" y1="103" x2="300" y2="103"
            gradientUnits="userSpaceOnUse">
            <stop stop-color="white" stop-opacity="0" />
            <stop offset="1" stop-color="white" />
        </linearGradient>
        <linearGradient id="paint1_linear_10809_45063" x1="52" y1="120" x2="87.5" y2="186"
            gradientUnits="userSpaceOnUse">
            <stop stop-color="white" />
            <stop offset="1" stop-color="white" stop-opacity="0" />
        </linearGradient>
    </defs>
</svg>
