<svg width="328" height="205" viewBox="0 0 328 205" fill="none" xmlns="http://www.w3.org/2000/svg">
<g clip-path="url(#clip0_13932_225257)">
<path opacity="0.15" d="M159.361 108.466L295.091 -8.49267C301.005 -12.2802 306.642 -8.49267 303.032 -1.99499L259.714 83.1974H336.964C336.964 83.1974 349.238 83.1974 336.964 93.3049L203.401 210.985C194.016 218.927 187.518 214.595 194.016 202.322L235.889 119.296H159.361C159.361 119.296 147.088 119.296 159.361 108.466Z" fill="url(#paint0_linear_13932_225257)"/>
<path opacity="0.12" d="M159.361 108.466L295.091 -8.49267C301.005 -12.2802 306.642 -8.49267 303.032 -1.99499L259.714 83.1974H336.964C336.964 83.1974 349.238 83.1974 336.964 93.3049L203.401 210.985C194.016 218.927 187.518 214.595 194.016 202.322L235.889 119.296H159.361C159.361 119.296 147.088 119.296 159.361 108.466Z" fill="url(#paint1_linear_13932_225257)"/>
<path opacity="0.32" d="M295.091 -8.49258C301.005 -12.2801 306.642 -8.49312 303.032 -1.99551L259.714 83.1969H336.965C337.041 83.197 349.199 83.2287 336.965 93.3043L203.401 210.985L202.963 211.348C193.815 218.789 187.62 214.402 194.016 202.321L235.89 119.296H159.361L158.857 119.274C156.715 119.129 148.908 117.983 158.804 108.965L159.361 108.465L295.091 -8.49258ZM301.728 -7.90567C300.718 -8.67056 298.586 -8.91704 295.98 -7.28165L160.353 109.589L160.354 109.59C157.333 112.255 156.029 114.086 155.587 115.256C155.377 115.812 155.39 116.142 155.431 116.32C155.469 116.489 155.56 116.649 155.751 116.817C156.196 117.21 157.002 117.491 157.895 117.649C158.31 117.722 158.687 117.759 158.959 117.778C159.094 117.787 159.201 117.791 159.271 117.794C159.306 117.795 159.332 117.795 159.348 117.796H238.326L195.354 202.997L195.349 203.009L195.341 203.023C193.772 205.987 193.052 208.356 192.916 210.087C192.779 211.834 193.238 212.693 193.702 213.073C194.169 213.454 195.079 213.711 196.651 213.264C198.204 212.823 200.177 211.744 202.417 209.852L335.973 92.1793L335.991 92.1627L336.011 92.1471C339.036 89.6556 340.323 87.9574 340.752 86.898C340.952 86.4029 340.929 86.1358 340.9 86.0182C340.873 85.9052 340.803 85.775 340.613 85.6187C340.166 85.2508 339.35 84.9834 338.446 84.8346C338.028 84.7657 337.648 84.7309 337.373 84.7135C337.236 84.7048 337.128 84.7009 337.057 84.6988C337.021 84.6978 336.995 84.6971 336.979 84.6969H257.269L301.695 -2.6752L301.721 -2.72403C303.319 -5.60141 302.604 -7.24137 301.728 -7.90567Z" fill="url(#paint2_linear_13932_225257)"/>
<path opacity="0.1" d="M865 726C865 1071.18 585.178 1351 240 1351C-105.178 1351 -385 1071.18 -385 726C-385 380.822 -105.178 101 240 101C585.178 101 865 380.822 865 726Z" fill="url(#paint3_linear_13932_225257)"/>
</g>
<defs>
<linearGradient id="paint0_linear_13932_225257" x1="248.163" y1="-10" x2="248.163" y2="215" gradientUnits="userSpaceOnUse">
<stop stop-color="white" stop-opacity="0"/>
<stop offset="0.75" stop-color="white"/>
</linearGradient>
<linearGradient id="paint1_linear_13932_225257" x1="248.163" y1="-10" x2="289.821" y2="197.876" gradientUnits="userSpaceOnUse">
<stop stop-color="white" stop-opacity="0"/>
<stop offset="0.74034" stop-color="white"/>
</linearGradient>
<linearGradient id="paint2_linear_13932_225257" x1="153.906" y1="-30.9663" x2="269.166" y2="137.713" gradientUnits="userSpaceOnUse">
<stop stop-color="white" stop-opacity="0"/>
<stop offset="1" stop-color="white"/>
</linearGradient>
<linearGradient id="paint3_linear_13932_225257" x1="45.5" y1="120" x2="63.5" y2="184.5" gradientUnits="userSpaceOnUse">
<stop stop-color="white"/>
<stop offset="1" stop-color="white" stop-opacity="0"/>
</linearGradient>
<clipPath id="clip0_13932_225257">
<rect width="328" height="205" rx="20" fill="white"/>
</clipPath>
</defs>
</svg>
