<svg width="320" height="205" viewBox="0 0 320 205" fill="none" xmlns="http://www.w3.org/2000/svg">
<g clip-path="url(#clip0_13932_225204)">
<path opacity="0.1" d="M244.554 170.326L258.387 118.476L291.138 106.566L299.284 76.0941L299.006 75.3382L266.767 87.0618L289.995 0H224.12L193.743 113.618L168.38 122.84L160 154.255L185.343 145.04L167.44 212H342.761L354 170.326H244.554Z" fill="url(#paint0_linear_13932_225204)"/>
<path opacity="0.1" d="M244.554 170.326L258.387 118.476L291.138 106.566L299.284 76.0941L299.006 75.3382L266.767 87.0618L289.995 0H224.12L193.743 113.618L168.38 122.84L160 154.255L185.343 145.04L167.44 212H342.761L354 170.326H244.554Z" fill="url(#paint1_linear_13932_225204)"/>
<path opacity="0.12" d="M289.995 0L266.768 87.0615L299.006 75.3379L299.284 76.0938L291.138 106.566L258.387 118.477L244.554 170.326H354L342.761 212H167.44L185.343 145.04L160 154.255L168.381 122.841L193.743 113.617L224.12 0H289.995ZM194.99 114.76L169.628 123.981L162.19 151.862L187.536 142.646L169.394 210.5H341.611L352.042 171.826H242.601L257.139 117.334L289.89 105.423L297.345 77.5381L264.576 89.4551L288.043 1.5H225.271L194.99 114.76Z" fill="url(#paint2_linear_13932_225204)"/>
<circle opacity="0.05" cx="240" cy="717" r="625" fill="url(#paint3_linear_13932_225204)"/>
</g>
<defs>
<linearGradient id="paint0_linear_13932_225204" x1="257" y1="0" x2="257" y2="212" gradientUnits="userSpaceOnUse">
<stop stop-color="white" stop-opacity="0"/>
<stop offset="0.5" stop-color="white"/>
</linearGradient>
<linearGradient id="paint1_linear_13932_225204" x1="318" y1="106" x2="160" y2="106" gradientUnits="userSpaceOnUse">
<stop stop-color="white"/>
<stop offset="1" stop-color="white" stop-opacity="0"/>
</linearGradient>
<linearGradient id="paint2_linear_13932_225204" x1="288.5" y1="106" x2="186.5" y2="51.5" gradientUnits="userSpaceOnUse">
<stop stop-color="white"/>
<stop offset="1" stop-color="white" stop-opacity="0"/>
</linearGradient>
<linearGradient id="paint3_linear_13932_225204" x1="45.5" y1="111" x2="63.5" y2="175.5" gradientUnits="userSpaceOnUse">
<stop stop-color="white"/>
<stop offset="1" stop-color="white" stop-opacity="0"/>
</linearGradient>
<clipPath id="clip0_13932_225204">
<rect width="320" height="205" rx="20" fill="white"/>
</clipPath>
</defs>
</svg>
