<svg width="328" height="205" viewBox="0 0 328 205" fill="none" xmlns="http://www.w3.org/2000/svg">
<g clip-path="url(#clip0_13922_244310)">
<g opacity="0.12">
<path d="M388.214 123.312C388.185 123.46 388.154 123.608 388.124 123.756C388.161 123.572 388.199 123.388 388.234 123.204L388.214 123.312Z" fill="url(#paint0_linear_13922_244310)"/>
<path fill-rule="evenodd" clip-rule="evenodd" d="M285 -22C354.036 -21.9999 410 33.9644 410 103C410 172.035 354.035 228 285 228C215.965 228 160 172.035 160 103C160 33.9645 215.965 -21.9998 285 -22ZM285 -2.17969C272.323 -2.17963 260.17 0.0625896 248.916 4.17285C248.847 4.19808 248.778 4.22365 248.709 4.24902C247.967 4.52178 247.229 4.8029 246.495 5.0918C246.461 5.10539 246.426 5.11918 246.392 5.13281C244.848 5.7421 243.323 6.38626 241.816 7.06543C240.986 7.43983 240.161 7.82457 239.343 8.21973C238.23 8.75696 237.127 9.31282 236.036 9.8877C235.238 10.3082 234.447 10.7394 233.661 11.1797C231.874 12.1812 230.118 13.2331 228.397 14.334C227.249 15.069 226.115 15.8257 224.997 16.6035C224.378 17.0341 223.764 17.4715 223.155 17.915C217.66 21.9166 212.566 26.437 207.947 31.4053C207.143 32.2708 206.353 33.1507 205.578 34.043C204.435 35.3579 203.324 36.7012 202.247 38.0723C201.757 38.6957 201.274 39.3243 200.798 39.959C200.231 40.7151 199.674 41.4793 199.127 42.251C197.953 43.9072 196.826 45.5991 195.748 47.3242C195.723 47.3645 195.698 47.405 195.673 47.4453C185.626 63.5665 179.82 82.6054 179.82 103L179.829 104.359C179.913 111.007 180.615 117.506 181.878 123.802C181.89 123.863 181.903 123.924 181.915 123.985C182.071 124.754 182.235 125.52 182.407 126.283C182.422 126.348 182.436 126.413 182.451 126.479C182.719 127.653 183.007 128.82 183.313 129.979C183.871 132.085 184.492 134.166 185.175 136.218H216.629V47.7236L284.995 116.09L353.361 47.7236V136.218H384.817C385.634 133.765 386.361 131.271 386.998 128.742C378.083 164.176 351.192 192.465 316.585 203.348C341.1 195.636 361.746 179.188 374.869 157.655H330.553V101.973L284.996 147.528L239.443 101.973V157.655H195.123C208.247 179.188 228.893 195.636 253.407 203.348C245.025 200.711 237.094 197.055 229.763 192.522C245.457 202.227 263.892 207.921 283.641 208.171L285 208.18C342.635 208.18 389.443 161.822 390.171 104.359L390.18 103C390.18 71.2421 376.104 42.7727 353.852 23.4873C371.746 38.998 384.351 60.4494 388.601 84.7734C380.416 37.9296 341.226 1.73457 292.966 -1.88281C290.782 -2.04635 288.579 -2.14279 286.359 -2.1709L285 -2.17969ZM208.039 174.692C208.128 174.788 208.218 174.882 208.308 174.977C208.187 174.848 208.066 174.721 207.946 174.592L208.039 174.692Z" fill="url(#paint1_linear_13922_244310)"/>
</g>
<g opacity="0.16">
<path d="M388.214 123.312C388.185 123.46 388.154 123.608 388.124 123.756C388.161 123.572 388.199 123.388 388.234 123.204L388.214 123.312Z" fill="url(#paint2_linear_13922_244310)"/>
<path fill-rule="evenodd" clip-rule="evenodd" d="M285 -22C354.036 -21.9999 410 33.9644 410 103C410 172.035 354.035 228 285 228C215.965 228 160 172.035 160 103C160 33.9645 215.965 -21.9998 285 -22ZM285 -2.17969C272.323 -2.17963 260.17 0.0625896 248.916 4.17285C248.847 4.19808 248.778 4.22365 248.709 4.24902C247.967 4.52178 247.229 4.8029 246.495 5.0918C246.461 5.10539 246.426 5.11918 246.392 5.13281C244.848 5.7421 243.323 6.38626 241.816 7.06543C240.986 7.43983 240.161 7.82457 239.343 8.21973C238.23 8.75696 237.127 9.31282 236.036 9.8877C235.238 10.3082 234.447 10.7394 233.661 11.1797C231.874 12.1812 230.118 13.2331 228.397 14.334C227.249 15.069 226.115 15.8257 224.997 16.6035C224.378 17.0341 223.764 17.4715 223.155 17.915C217.66 21.9166 212.566 26.437 207.947 31.4053C207.143 32.2708 206.353 33.1507 205.578 34.043C204.435 35.3579 203.324 36.7012 202.247 38.0723C201.757 38.6957 201.274 39.3243 200.798 39.959C200.231 40.7151 199.674 41.4793 199.127 42.251C197.953 43.9072 196.826 45.5991 195.748 47.3242C195.723 47.3645 195.698 47.405 195.673 47.4453C185.626 63.5665 179.82 82.6054 179.82 103L179.829 104.359C179.913 111.007 180.615 117.506 181.878 123.802C181.89 123.863 181.903 123.924 181.915 123.985C182.071 124.754 182.235 125.52 182.407 126.283C182.422 126.348 182.436 126.413 182.451 126.479C182.719 127.653 183.007 128.82 183.313 129.979C183.871 132.085 184.492 134.166 185.175 136.218H216.629V47.7236L284.995 116.09L353.361 47.7236V136.218H384.817C385.634 133.765 386.361 131.271 386.998 128.742C378.083 164.176 351.192 192.465 316.585 203.348C341.1 195.636 361.746 179.188 374.869 157.655H330.553V101.973L284.996 147.528L239.443 101.973V157.655H195.123C208.247 179.188 228.893 195.636 253.407 203.348C245.025 200.711 237.094 197.055 229.763 192.522C245.457 202.227 263.892 207.921 283.641 208.171L285 208.18C342.635 208.18 389.443 161.822 390.171 104.359L390.18 103C390.18 71.2421 376.104 42.7727 353.852 23.4873C371.746 38.998 384.351 60.4494 388.601 84.7734C380.416 37.9296 341.226 1.73457 292.966 -1.88281C290.782 -2.04635 288.579 -2.14279 286.359 -2.1709L285 -2.17969ZM208.039 174.692C208.128 174.788 208.218 174.882 208.308 174.977C208.187 174.848 208.066 174.721 207.946 174.592L208.039 174.692Z" fill="url(#paint3_linear_13922_244310)"/>
</g>
<path opacity="0.3" d="M408.5 103C408.5 35.3259 354.068 -19.6353 286.597 -20.4902L285 -20.5C216.793 -20.4998 161.5 34.793 161.5 103C161.5 171.207 216.793 226.5 285 226.5V228C215.965 228 160 172.035 160 103C160 33.9645 215.965 -21.9998 285 -22C354.036 -21.9999 410 33.9644 410 103C410 172.035 354.035 228 285 228V226.5C352.674 226.5 407.635 172.068 408.49 104.597L408.5 103ZM285.01 -3.67969L286.369 -3.6709H286.378C288.628 -3.6424 290.863 -3.54478 293.078 -3.37891C316.614 -1.61473 338.021 7.78885 354.829 22.3574L354.834 22.3535C355.148 22.6256 355.46 22.9001 355.771 23.1758C355.872 23.2656 355.972 23.3561 356.073 23.4463C356.32 23.6667 356.565 23.8886 356.81 24.1113C356.891 24.1852 356.972 24.2589 357.053 24.333C357.262 24.5248 357.47 24.7177 357.678 24.9111C357.809 25.0337 357.941 25.1561 358.072 25.2793C358.254 25.4506 358.435 25.6233 358.616 25.7959C358.81 25.9809 359.004 26.1661 359.196 26.3525C359.405 26.5546 359.613 26.7572 359.82 26.9609C359.953 27.0912 360.084 27.2225 360.216 27.3535C360.399 27.5355 360.581 27.7181 360.763 27.9014C360.891 28.0307 361.019 28.1601 361.146 28.29C361.299 28.4452 361.45 28.6008 361.602 28.7568C361.774 28.9345 361.946 29.1121 362.117 29.291C362.166 29.3419 362.214 29.3933 362.263 29.4443C362.607 29.8057 362.948 30.17 363.287 30.5361C363.435 30.6955 363.583 30.8544 363.729 31.0146C363.891 31.1912 364.051 31.3693 364.211 31.5469C364.33 31.6785 364.448 31.8102 364.566 31.9424C364.71 32.1035 364.854 32.2648 364.997 32.4268C365.135 32.5833 365.273 32.7402 365.41 32.8975C365.549 33.0571 365.689 33.2165 365.827 33.377C365.954 33.5238 366.079 33.6717 366.205 33.8193C366.795 34.5106 367.375 35.2096 367.947 35.916C368.02 36.0061 368.093 36.0962 368.166 36.1865C368.342 36.4058 368.518 36.626 368.692 36.8467C368.746 36.9141 368.799 36.9813 368.853 37.0488C369.049 37.2988 369.246 37.5491 369.44 37.8008C369.51 37.891 369.579 37.9818 369.648 38.0723C383.464 56.0562 391.68 78.5683 391.68 103V103.01L391.671 104.369V104.378C391.432 123.216 386.309 140.878 377.512 156.155H377.54L376.877 157.242C358.306 188.63 324.112 209.68 285 209.68H284.99L283.631 209.671H283.622C270.045 209.499 257.079 206.786 245.175 201.992C245.152 201.983 245.129 201.974 245.105 201.965C244.688 201.796 244.272 201.624 243.857 201.45C243.846 201.445 243.835 201.441 243.823 201.437C243.693 201.382 243.562 201.328 243.432 201.272C243.05 201.111 242.671 200.946 242.292 200.78C242.174 200.729 242.055 200.677 241.938 200.625C241.555 200.456 241.173 200.285 240.793 200.111C240.641 200.042 240.489 199.973 240.338 199.903C239.979 199.738 239.621 199.57 239.264 199.4C239.113 199.329 238.963 199.257 238.813 199.185C238.484 199.026 238.156 198.867 237.829 198.705C237.59 198.587 237.351 198.467 237.113 198.348C236.855 198.218 236.598 198.088 236.341 197.956C236.11 197.838 235.881 197.718 235.651 197.598C235.371 197.451 235.091 197.304 234.812 197.155C234.576 197.029 234.34 196.901 234.104 196.772C233.866 196.643 233.626 196.514 233.389 196.382C233.076 196.209 232.766 196.033 232.455 195.856C232.261 195.747 232.067 195.638 231.874 195.527C231.524 195.326 231.176 195.121 230.829 194.916C230.693 194.835 230.555 194.756 230.419 194.675C229.935 194.386 229.453 194.094 228.974 193.798L228.976 193.794C220.954 188.833 213.64 182.84 207.217 175.999L207.214 176.003C207.155 175.941 207.02 175.799 206.941 175.715L206.937 175.709L206.848 175.613L206.844 175.608L206.847 175.604C201.96 170.347 197.597 164.597 193.842 158.436L192.452 156.155H237.943V98.3516L284.996 145.406L332.053 98.3516V156.155H374.024C377.496 150.353 380.417 144.183 382.714 137.718H351.861V51.3447L284.995 118.211L218.129 51.3447V137.718H184.093L183.752 136.691C183.232 135.13 182.748 133.552 182.3 131.96L181.863 130.363C181.552 129.188 181.26 128.004 180.988 126.812L180.944 126.614C180.769 125.841 180.603 125.063 180.445 124.283C180.433 124.223 180.42 124.16 180.407 124.097C179.126 117.711 178.414 111.119 178.329 104.378V104.369L178.32 103.01V103C178.32 82.3168 184.208 63.0036 194.399 46.6514C194.411 46.6321 194.457 46.5603 194.477 46.5293C195.57 44.7798 196.713 43.0637 197.903 41.3838C198.458 40.6014 199.022 39.8257 199.598 39.0586C200.081 38.4143 200.571 37.7769 201.067 37.1455C202.16 35.7548 203.288 34.392 204.446 33.0586C205.232 32.1546 206.032 31.2622 206.849 30.3838L207.732 29.4443C212.18 24.7741 217.047 20.5069 222.272 16.7021C222.89 16.2527 223.513 15.8091 224.141 15.3721C225.274 14.5832 226.424 13.8157 227.589 13.0703C229.334 11.9536 231.115 10.8868 232.928 9.87109C233.724 9.42502 234.527 8.98751 235.337 8.56055C236.444 7.97737 237.562 7.41382 238.69 6.86914C239.521 6.46827 240.358 6.07795 241.2 5.69824C242.729 5.0092 244.276 4.35518 245.841 3.7373C245.86 3.72972 245.917 3.70752 245.945 3.69629C246.69 3.40337 247.438 3.11761 248.191 2.84082L248.401 2.76367L249.475 2.37891C260.589 -1.54525 272.547 -3.67964 285 -3.67969H285.01ZM244.323 200.02C244.231 199.981 244.139 199.942 244.047 199.903C243.897 199.84 243.749 199.775 243.6 199.711C243.841 199.814 244.081 199.918 244.323 200.02ZM241.167 198.632C241.829 198.936 242.494 199.233 243.163 199.523C242.922 199.419 242.681 199.315 242.441 199.209C242.13 199.071 241.819 198.93 241.509 198.789C241.395 198.737 241.281 198.684 241.167 198.632ZM327.65 199.165C327.508 199.228 327.365 199.287 327.223 199.35C327.408 199.268 327.594 199.189 327.779 199.106L327.65 199.165ZM208.039 174.692C208.128 174.788 208.218 174.882 208.308 174.977C208.187 174.848 208.066 174.721 207.946 174.592L208.039 174.692ZM384.817 136.218H384.813C384.908 135.934 385.004 135.65 385.096 135.365C385.004 135.65 384.912 135.934 384.817 136.218ZM385.118 135.3C385.111 135.322 385.103 135.343 385.096 135.365C385.103 135.342 385.112 135.319 385.119 135.296L385.118 135.3ZM388.214 123.312C388.185 123.46 388.154 123.608 388.124 123.756C388.161 123.572 388.199 123.388 388.234 123.204L388.214 123.312ZM353.852 23.4873C354.268 23.848 354.68 24.2129 355.091 24.5801C355.301 24.7683 355.511 24.9576 355.72 25.1475C355.849 25.2648 355.978 25.382 356.106 25.5C356.272 25.6524 356.438 25.8056 356.603 25.959C357.487 26.7818 358.358 27.6201 359.214 28.4727C359.367 28.6247 359.519 28.7767 359.671 28.9297C359.813 29.0725 359.954 29.2157 360.095 29.3594C360.292 29.5601 360.487 29.7616 360.683 29.9639C360.767 30.0512 360.852 30.138 360.936 30.2256C361.775 31.1017 362.6 31.9927 363.409 32.8975C363.578 33.0856 363.745 33.2745 363.912 33.4639C364.54 34.1759 365.158 34.897 365.767 35.626C365.264 35.0244 364.756 34.428 364.24 33.8379C364.131 33.713 364.022 33.5883 363.912 33.4639C363.745 33.2745 363.578 33.0856 363.409 32.8975C363.341 32.8214 363.272 32.7458 363.204 32.6699C362.647 32.051 362.083 31.4385 361.512 30.833C361.32 30.63 361.129 30.4271 360.936 30.2256C360.852 30.138 360.767 30.0512 360.683 29.9639C360.487 29.7616 360.292 29.5601 360.095 29.3594C359.954 29.2157 359.813 29.0725 359.671 28.9297C359.519 28.7767 359.367 28.6247 359.214 28.4727C359.08 28.3396 358.947 28.2065 358.812 28.0742C358.242 27.5117 357.665 26.9557 357.081 26.4062C356.922 26.2566 356.762 26.1077 356.603 25.959C356.438 25.8056 356.272 25.6524 356.106 25.5C355.978 25.382 355.849 25.2648 355.72 25.1475C355.511 24.9576 355.301 24.7683 355.091 24.5801C354.999 24.4975 354.906 24.4152 354.813 24.333C354.494 24.0495 354.174 23.767 353.852 23.4873ZM384.813 136.218C378.764 154.406 367.884 170.386 353.692 182.638C361.982 175.481 369.142 167.053 374.869 157.655H330.553V101.973L284.996 147.528L239.443 101.973V157.655H195.123C205.344 174.423 220.126 188.107 237.743 196.984C237.28 196.751 236.819 196.515 236.36 196.275C236.567 196.383 236.774 196.492 236.981 196.599C237.316 196.771 237.652 196.941 237.989 197.109C238.131 197.18 238.272 197.251 238.414 197.321C238.762 197.493 239.111 197.663 239.461 197.831C239.625 197.91 239.79 197.989 239.955 198.067C240.263 198.214 240.572 198.359 240.882 198.502C241.09 198.598 241.299 198.694 241.509 198.789C241.819 198.93 242.13 199.071 242.441 199.209C242.628 199.292 242.816 199.372 243.003 199.454C243.35 199.605 243.698 199.756 244.047 199.903C244.153 199.948 244.26 199.993 244.366 200.038C244.41 200.056 244.454 200.074 244.497 200.092C244.865 200.245 245.233 200.398 245.603 200.548C245.71 200.591 245.817 200.633 245.925 200.676C246.337 200.841 246.75 201.005 247.165 201.165C247.231 201.19 247.297 201.215 247.363 201.24C247.45 201.273 247.536 201.306 247.623 201.339C247.593 201.327 247.563 201.315 247.532 201.304C247.785 201.4 248.038 201.494 248.292 201.589C248.133 201.53 247.974 201.472 247.815 201.412C248.867 201.81 249.927 202.191 250.994 202.556C251.058 202.577 251.121 202.6 251.185 202.621C261.39 206.085 272.298 208.027 283.641 208.171L285 208.18C342.635 208.18 389.443 161.822 390.171 104.359L390.18 103C390.18 78.8818 382.06 56.6616 368.407 38.9189C368.359 38.8558 368.31 38.7925 368.262 38.7295C374.304 46.5471 379.269 55.2397 382.937 64.584C368.515 27.8513 334.024 1.19468 292.966 -1.88281C290.782 -2.04635 288.579 -2.14279 286.359 -2.1709L285 -2.17969C272.323 -2.17963 260.17 0.0625896 248.916 4.17285C248.847 4.19808 248.778 4.22365 248.709 4.24902C247.967 4.52178 247.229 4.8029 246.495 5.0918C246.461 5.10539 246.426 5.11918 246.392 5.13281C244.848 5.7421 243.323 6.38626 241.816 7.06543C240.986 7.43983 240.161 7.82457 239.343 8.21973C238.23 8.75696 237.127 9.31282 236.036 9.8877C235.238 10.3082 234.447 10.7394 233.661 11.1797C231.874 12.1812 230.118 13.2331 228.397 14.334C227.249 15.069 226.115 15.8257 224.997 16.6035C224.378 17.0341 223.764 17.4715 223.155 17.915C217.66 21.9166 212.566 26.437 207.947 31.4053C207.143 32.2708 206.353 33.1507 205.578 34.043C204.435 35.3579 203.324 36.7012 202.247 38.0723C201.757 38.6957 201.274 39.3243 200.798 39.959C200.231 40.7151 199.674 41.4793 199.127 42.251C197.953 43.9072 196.826 45.5991 195.748 47.3242C195.723 47.3645 195.698 47.405 195.673 47.4453C185.626 63.5665 179.82 82.6054 179.82 103L179.829 104.359C179.913 111.007 180.615 117.506 181.878 123.802C181.89 123.863 181.903 123.924 181.915 123.985C182.071 124.754 182.235 125.52 182.407 126.283C182.422 126.348 182.436 126.413 182.451 126.479C182.719 127.653 183.007 128.82 183.313 129.979C183.871 132.085 184.492 134.166 185.175 136.218H216.629V47.7236L284.995 116.09L353.361 47.7236V136.218H384.813Z" fill="url(#paint4_linear_13922_244310)"/>
<path opacity="0.08" d="M865 717C865 1062.18 585.178 1342 240 1342C-105.178 1342 -385 1062.18 -385 717C-385 371.822 -105.178 92 240 92C585.178 92 865 371.822 865 717Z" fill="url(#paint5_linear_13922_244310)"/>
</g>
<defs>
<linearGradient id="paint0_linear_13922_244310" x1="285" y1="7" x2="285" y2="228" gradientUnits="userSpaceOnUse">
<stop stop-color="white" stop-opacity="0.2"/>
<stop offset="0.853557" stop-color="white"/>
</linearGradient>
<linearGradient id="paint1_linear_13922_244310" x1="285" y1="7" x2="285" y2="228" gradientUnits="userSpaceOnUse">
<stop stop-color="white" stop-opacity="0.2"/>
<stop offset="0.853557" stop-color="white"/>
</linearGradient>
<linearGradient id="paint2_linear_13922_244310" x1="160" y1="36" x2="316" y2="140" gradientUnits="userSpaceOnUse">
<stop stop-color="white" stop-opacity="0"/>
<stop offset="1" stop-color="white"/>
</linearGradient>
<linearGradient id="paint3_linear_13922_244310" x1="160" y1="36" x2="316" y2="140" gradientUnits="userSpaceOnUse">
<stop stop-color="white" stop-opacity="0"/>
<stop offset="1" stop-color="white"/>
</linearGradient>
<linearGradient id="paint4_linear_13922_244310" x1="301.5" y1="103" x2="146.5" y2="30.5" gradientUnits="userSpaceOnUse">
<stop stop-color="white"/>
<stop offset="1" stop-color="white" stop-opacity="0"/>
</linearGradient>
<linearGradient id="paint5_linear_13922_244310" x1="42.5" y1="130" x2="92" y2="223" gradientUnits="userSpaceOnUse">
<stop stop-color="white"/>
<stop offset="1" stop-color="white" stop-opacity="0"/>
</linearGradient>
<clipPath id="clip0_13922_244310">
<rect width="328" height="205" rx="20" fill="white"/>
</clipPath>
</defs>
</svg>
