<svg width="320" height="205" viewBox="0 0 320 205" fill="none" xmlns="http://www.w3.org/2000/svg">
<g clip-path="url(#clip0_14163_285020)">
<circle opacity="0.08" cx="240" cy="717" r="625" fill="url(#paint0_linear_14163_285020)"/>
<path opacity="0.08" fill-rule="evenodd" clip-rule="evenodd" d="M255.118 84.755L316.929 -10H333.68L268.304 90.8714H322.768V103.668H268.03L284.298 129.262H322.774V142.059H292.434L338.799 215H321.288L274.461 142.059H234.909L187.366 215H170L217.031 142.059H186.611L186.616 129.262H225.283L241.785 103.668H186.616V90.8714H241.232L176.737 -10H194.588L255.118 84.755ZM243.249 129.262H266.246L254.835 111.487L243.249 129.262Z" fill="url(#paint1_linear_14163_285020)"/>
<path opacity="0.08" fill-rule="evenodd" clip-rule="evenodd" d="M255.118 84.755L316.929 -10H333.68L268.304 90.8714H322.768V103.668H268.03L284.298 129.262H322.774V142.059H292.434L338.799 215H321.288L274.461 142.059H234.909L187.366 215H170L217.031 142.059H186.611L186.616 129.262H225.283L241.785 103.668H186.616V90.8714H241.232L176.737 -10H194.588L255.118 84.755ZM243.249 129.262H266.246L254.835 111.487L243.249 129.262Z" fill="url(#paint2_linear_14163_285020)"/>
<path opacity="0.2" d="M194.178 -9.25L254.485 85.1592L255.111 86.1377L255.746 85.165L317.335 -9.25H332.3L267.675 90.4639L266.924 91.6211H322.018V102.918H266.664L267.396 104.07L283.666 129.664L283.887 130.012H322.023V141.309H291.068L291.801 142.461L337.434 214.25H321.697L275.093 141.653L274.871 141.309H234.502L234.28 141.649L186.959 214.25H171.375L217.661 142.466L218.406 141.309H187.36L187.366 130.012H225.691L225.913 129.669L242.415 104.074L243.161 102.918H187.366V91.6211H242.602L241.863 90.4678L178.106 -9.25H194.178ZM254.206 111.077L242.621 128.853L241.865 130.012H267.619L266.877 128.856L255.466 111.082L254.84 110.105L254.206 111.077Z" stroke="url(#paint3_linear_14163_285020)" stroke-width="1.5"/>
</g>
<defs>
<linearGradient id="paint0_linear_14163_285020" x1="37.5" y1="125.5" x2="114.5" y2="185.5" gradientUnits="userSpaceOnUse">
<stop stop-color="white"/>
<stop offset="1" stop-color="white" stop-opacity="0"/>
</linearGradient>
<linearGradient id="paint1_linear_14163_285020" x1="254.399" y1="-10" x2="254" y2="203.5" gradientUnits="userSpaceOnUse">
<stop stop-color="white" stop-opacity="0"/>
<stop offset="1" stop-color="white"/>
</linearGradient>
<linearGradient id="paint2_linear_14163_285020" x1="180.5" y1="5" x2="265" y2="170.5" gradientUnits="userSpaceOnUse">
<stop stop-color="white" stop-opacity="0"/>
<stop offset="0.717378" stop-color="white"/>
</linearGradient>
<linearGradient id="paint3_linear_14163_285020" x1="182.5" y1="8" x2="293" y2="175.5" gradientUnits="userSpaceOnUse">
<stop stop-color="white" stop-opacity="0"/>
<stop offset="0.857265" stop-color="white"/>
</linearGradient>
<clipPath id="clip0_14163_285020">
<rect width="320" height="205" rx="20" fill="white"/>
</clipPath>
</defs>
</svg>
