<svg width="320" height="205" viewBox="0 0 320 205" fill="none" xmlns="http://www.w3.org/2000/svg">
<g clip-path="url(#clip0_14163_285044)">
<circle opacity="0.08" cx="240" cy="717" r="625" fill="url(#paint0_linear_14163_285044)"/>
<path opacity="0.12" d="M300.159 6L240.818 40.0809V146.449L208.076 165.429L175.134 146.434V108.458L208.076 89.6475L229.258 101.931V71.2062L207.891 59.0763L148.565 93.5417V161.719L208.091 196L267.418 161.719V55.3664L300.359 36.371L333.286 55.3664V93.1728L300.359 112.337L278.993 99.9455V130.517L300.159 142.724L360.07 108.643V40.0809L300.159 6Z" fill="url(#paint1_linear_14163_285044)"/>
<path opacity="0.12" d="M300.159 6L240.818 40.0809V146.449L208.076 165.429L175.134 146.434V108.458L208.076 89.6475L229.258 101.931V71.2062L207.891 59.0763L148.565 93.5417V161.719L208.091 196L267.418 161.719V55.3664L300.359 36.371L333.286 55.3664V93.1728L300.359 112.337L278.993 99.9455V130.517L300.159 142.724L360.07 108.643V40.0809L300.159 6Z" fill="url(#paint2_linear_14163_285044)"/>
<path opacity="0.2" d="M333.998 54.9551L333.642 54.749L300.715 35.7539L300.358 35.5488L300.003 35.7539L267.062 54.749L266.705 54.9551V161.308L208.09 195.177L149.278 161.307V93.9521L207.895 59.8975L228.545 71.6201V100.693L208.434 89.0312L208.079 88.8252L207.723 89.0283L174.781 107.84L174.422 108.045V146.846L174.778 147.051L207.72 166.046L208.077 166.252L208.434 166.045L241.175 147.065L241.53 146.859V40.4922L300.16 6.82031L359.357 40.4951V108.228L300.161 141.902L279.706 130.104V101.182L300.001 112.954L300.359 113.161L300.717 112.953L333.645 93.7891L333.998 93.582V54.9551Z" stroke="url(#paint3_linear_14163_285044)" stroke-width="1.425"/>
</g>
<defs>
<linearGradient id="paint0_linear_14163_285044" x1="37.5" y1="125.5" x2="114.5" y2="185.5" gradientUnits="userSpaceOnUse">
<stop stop-color="white"/>
<stop offset="1" stop-color="white" stop-opacity="0"/>
</linearGradient>
<linearGradient id="paint1_linear_14163_285044" x1="254.318" y1="6" x2="254.318" y2="196" gradientUnits="userSpaceOnUse">
<stop stop-color="white" stop-opacity="0"/>
<stop offset="1" stop-color="white"/>
</linearGradient>
<linearGradient id="paint2_linear_14163_285044" x1="181.34" y1="29.75" x2="265.415" y2="145.65" gradientUnits="userSpaceOnUse">
<stop stop-color="white" stop-opacity="0"/>
<stop offset="1" stop-color="white"/>
</linearGradient>
<linearGradient id="paint3_linear_14163_285044" x1="172.315" y1="55.875" x2="261.615" y2="140.9" gradientUnits="userSpaceOnUse">
<stop stop-color="white" stop-opacity="0"/>
<stop offset="1" stop-color="white"/>
</linearGradient>
<clipPath id="clip0_14163_285044">
<rect width="320" height="205" rx="20" fill="white"/>
</clipPath>
</defs>
</svg>
