<svg width="328" height="205" viewBox="0 0 328 205" fill="none" xmlns="http://www.w3.org/2000/svg">
<g clip-path="url(#clip0_13932_225266)">
<path opacity="0.05" d="M426.028 172.341L383.574 217.861C382.656 218.85 381.544 219.639 380.307 220.179C379.071 220.719 377.736 220.999 376.387 221H175.138C174.178 221 173.239 220.719 172.436 220.193C171.633 219.667 171.001 218.919 170.617 218.039C170.233 217.159 170.114 216.187 170.274 215.24C170.435 214.294 170.868 213.415 171.52 212.71L213.926 167.19C214.844 166.201 215.956 165.412 217.193 164.872C218.43 164.332 219.764 164.053 221.114 164.051H422.363C423.33 164.031 424.284 164.298 425.101 164.819C425.918 165.339 426.565 166.089 426.955 166.975C427.348 167.862 427.468 168.844 427.303 169.799C427.137 170.753 426.694 171.638 426.028 172.341ZM383.574 80.6526C382.653 79.6684 381.54 78.8826 380.304 78.3428C379.068 77.8033 377.735 77.5213 376.387 77.5144H175.138C174.178 77.5148 173.239 77.7952 172.436 78.3213C171.633 78.8472 171.001 79.5959 170.617 80.4756C170.233 81.3553 170.114 82.3278 170.274 83.2742C170.435 84.2205 170.868 85.0998 171.52 85.8039L213.926 131.349C214.848 132.333 215.961 133.119 217.196 133.658C218.432 134.198 219.765 134.48 221.114 134.487H422.363C423.321 134.482 424.255 134.198 425.055 133.67C425.856 133.143 426.483 132.394 426.864 131.515C427.245 130.636 427.363 129.665 427.2 128.721C427.039 127.777 426.608 126.9 425.956 126.198L383.574 80.6526ZM175.138 47.9497H376.387C377.736 47.9485 379.071 47.6689 380.307 47.1288C381.544 46.5891 382.656 45.7999 383.574 44.8111L426.028 -0.7094C426.694 -1.41253 427.137 -2.29709 427.303 -3.2518C427.468 -4.20651 427.348 -5.18873 426.955 -6.07485C426.565 -6.96096 425.918 -7.71139 425.101 -8.2317C424.284 -8.75201 423.33 -9.01896 422.363 -8.99895H221.114C219.764 -8.99753 218.43 -8.71812 217.193 -8.17813C215.956 -7.63815 214.844 -6.84918 213.926 -5.86042L171.52 39.6601C170.868 40.3642 170.435 41.2435 170.274 42.1899C170.114 43.1362 170.233 44.1087 170.617 44.9884C171.001 45.8682 171.633 46.6169 172.436 47.1427C173.239 47.6689 174.178 47.9492 175.138 47.9497Z" fill="white"/>
<path opacity="0.08" d="M426.028 172.341L383.574 217.861C382.656 218.85 381.544 219.639 380.307 220.179C379.071 220.719 377.736 220.999 376.387 221H175.138C174.178 221 173.239 220.719 172.436 220.193C171.633 219.667 171.001 218.919 170.617 218.039C170.233 217.159 170.114 216.187 170.274 215.24C170.435 214.294 170.868 213.415 171.52 212.71L213.926 167.19C214.844 166.201 215.956 165.412 217.193 164.872C218.43 164.332 219.764 164.053 221.114 164.051H422.363C423.33 164.031 424.284 164.298 425.101 164.819C425.918 165.339 426.565 166.089 426.955 166.975C427.348 167.862 427.468 168.844 427.303 169.799C427.137 170.753 426.694 171.638 426.028 172.341ZM383.574 80.6526C382.653 79.6684 381.54 78.8826 380.304 78.3428C379.068 77.8033 377.735 77.5213 376.387 77.5144H175.138C174.178 77.5148 173.239 77.7952 172.436 78.3213C171.633 78.8472 171.001 79.5959 170.617 80.4756C170.233 81.3553 170.114 82.3278 170.274 83.2742C170.435 84.2205 170.868 85.0998 171.52 85.8039L213.926 131.349C214.848 132.333 215.961 133.119 217.196 133.658C218.432 134.198 219.765 134.48 221.114 134.487H422.363C423.321 134.482 424.255 134.198 425.055 133.67C425.856 133.143 426.483 132.394 426.864 131.515C427.245 130.636 427.363 129.665 427.2 128.721C427.039 127.777 426.608 126.9 425.956 126.198L383.574 80.6526ZM175.138 47.9497H376.387C377.736 47.9485 379.071 47.6689 380.307 47.1288C381.544 46.5891 382.656 45.7999 383.574 44.8111L426.028 -0.7094C426.694 -1.41253 427.137 -2.29709 427.303 -3.2518C427.468 -4.20651 427.348 -5.18873 426.955 -6.07485C426.565 -6.96096 425.918 -7.71139 425.101 -8.2317C424.284 -8.75201 423.33 -9.01896 422.363 -8.99895H221.114C219.764 -8.99753 218.43 -8.71812 217.193 -8.17813C215.956 -7.63815 214.844 -6.84918 213.926 -5.86042L171.52 39.6601C170.868 40.3642 170.435 41.2435 170.274 42.1899C170.114 43.1362 170.233 44.1087 170.617 44.9884C171.001 45.8682 171.633 46.6169 172.436 47.1427C173.239 47.6689 174.178 47.9492 175.138 47.9497Z" fill="url(#paint0_linear_13932_225266)"/>
<path opacity="0.2" d="M422.362 164.051C423.33 164.031 424.284 164.298 425.101 164.818C425.918 165.339 426.565 166.09 426.955 166.976C427.348 167.862 427.468 168.844 427.303 169.799L427.228 170.153C427.023 170.972 426.611 171.726 426.028 172.341L383.574 217.861C382.656 218.85 381.544 219.64 380.308 220.18C379.071 220.72 377.736 220.999 376.387 221H175.138L174.779 220.986C173.946 220.925 173.139 220.654 172.437 220.193C171.734 219.733 171.162 219.102 170.773 218.362L170.617 218.039C170.281 217.269 170.148 216.428 170.228 215.596L170.274 215.24C170.415 214.412 170.764 213.635 171.286 212.982L171.52 212.711L213.926 167.189C214.729 166.324 215.681 165.612 216.735 165.086L217.193 164.872C218.43 164.332 219.764 164.052 221.113 164.051H422.362ZM220.688 165.563C219.691 165.615 218.71 165.847 217.793 166.247C216.746 166.705 215.804 167.373 215.025 168.211L215.024 168.212L172.617 213.733C172.165 214.223 171.864 214.834 171.753 215.491C171.642 216.15 171.725 216.826 171.992 217.438C172.226 217.974 172.592 218.441 173.054 218.794L173.258 218.938L173.472 219.067C173.98 219.35 174.554 219.5 175.139 219.5H376.386C377.529 219.499 378.659 219.262 379.707 218.805L380.096 218.623C380.988 218.177 381.795 217.574 382.476 216.841L382.478 216.839L424.932 171.317L424.94 171.31C425.402 170.822 425.71 170.207 425.825 169.543C425.94 168.879 425.856 168.197 425.584 167.583L425.583 167.58C425.313 166.967 424.864 166.446 424.295 166.084C423.728 165.723 423.066 165.537 422.394 165.551H221.115L220.688 165.563ZM376.387 77.5147C377.735 77.5216 379.068 77.8034 380.304 78.3428C381.539 78.8825 382.653 79.6683 383.574 80.6524L425.956 126.197C426.608 126.9 427.04 127.777 427.2 128.721C427.363 129.665 427.245 130.636 426.864 131.515C426.483 132.393 425.856 133.142 425.056 133.67L424.749 133.856C424.021 134.264 423.201 134.482 422.362 134.486H221.113C219.765 134.479 218.432 134.198 217.196 133.658C216.115 133.186 215.128 132.525 214.28 131.708L213.926 131.349L171.52 85.8037C170.949 85.1878 170.547 84.4376 170.348 83.626L170.274 83.2745C170.134 82.4464 170.208 81.598 170.485 80.8096L170.617 80.4756C170.953 79.7057 171.479 79.036 172.144 78.5284L172.437 78.3213C173.239 77.7953 174.178 77.5152 175.138 77.5147H376.387ZM174.889 79.0235C174.308 79.0661 173.747 79.2559 173.258 79.5762C172.699 79.9421 172.26 80.4631 171.992 81.0752C171.725 81.6876 171.641 82.3648 171.753 83.0235C171.864 83.6813 172.165 84.2926 172.618 84.7823L215.022 130.323L215.322 130.629C216.041 131.322 216.879 131.882 217.796 132.283C218.842 132.74 219.972 132.979 221.113 132.986H422.362C423.026 132.981 423.674 132.785 424.23 132.418C424.786 132.051 425.223 131.53 425.488 130.918C425.754 130.306 425.835 129.631 425.722 128.976L425.721 128.973C425.609 128.315 425.309 127.706 424.857 127.218V127.217L382.477 81.6748V81.6739C381.695 80.8405 380.752 80.1754 379.704 79.7178C378.786 79.3171 377.805 79.0834 376.808 79.0274L376.379 79.0147H175.139L174.889 79.0235ZM422.362 -8.99895C423.33 -9.01896 424.284 -8.75161 425.101 -8.23138C425.918 -7.71115 426.565 -6.96107 426.955 -6.07513C427.348 -5.18905 427.468 -4.20655 427.303 -3.25189C427.138 -2.29717 426.694 -1.41204 426.028 -0.708918L383.574 44.8116C382.656 45.8002 381.544 46.5892 380.308 47.129C379.071 47.669 377.736 47.9481 376.387 47.9493H175.138L174.779 47.9366C174.065 47.8842 173.37 47.6764 172.743 47.3282L172.437 47.1426C171.734 46.6824 171.162 46.0516 170.773 45.3116L170.617 44.9883C170.233 44.1086 170.114 43.1358 170.274 42.1895C170.415 41.3616 170.764 40.5855 171.286 39.9327L171.52 39.6602L213.926 -5.86028C214.729 -6.72543 215.682 -7.43752 216.735 -7.9638L217.193 -8.17767C218.43 -8.71759 219.764 -8.99749 221.113 -8.99895H422.362ZM220.688 -7.48724C219.691 -7.43489 218.71 -7.20399 217.793 -6.80364C216.745 -6.34619 215.804 -5.67751 215.025 -4.83978L215.024 -4.83782L172.619 40.6788L172.62 40.6797C172.166 41.1698 171.865 41.7817 171.753 42.4405C171.641 43.0992 171.725 43.7763 171.992 44.3887C172.26 45.0009 172.699 45.5218 173.258 45.8877C173.817 46.2539 174.471 46.4489 175.139 46.4493H376.386C377.529 46.4482 378.659 46.2115 379.707 45.754C380.755 45.2968 381.697 44.6281 382.476 43.7901L382.478 43.7881L424.932 -1.73236L424.94 -1.74114C425.402 -2.22931 425.71 -2.8439 425.825 -3.50775C425.94 -4.17184 425.856 -4.85327 425.584 -5.46673L425.583 -5.46966C425.313 -6.08247 424.864 -6.60447 424.295 -6.96673C423.728 -7.32778 423.066 -7.51284 422.394 -7.49895H221.115L220.688 -7.48724Z" fill="url(#paint1_linear_13932_225266)"/>
<circle opacity="0.05" cx="240" cy="717" r="625" fill="url(#paint2_linear_13932_225266)"/>
</g>
<defs>
<linearGradient id="paint0_linear_13932_225266" x1="352.161" y1="106" x2="170.205" y2="106" gradientUnits="userSpaceOnUse">
<stop stop-color="white"/>
<stop offset="1" stop-color="white" stop-opacity="0"/>
</linearGradient>
<linearGradient id="paint1_linear_13932_225266" x1="319.5" y1="106" x2="170.205" y2="106" gradientUnits="userSpaceOnUse">
<stop stop-color="white"/>
<stop offset="1" stop-color="white" stop-opacity="0"/>
</linearGradient>
<linearGradient id="paint2_linear_13932_225266" x1="45.5" y1="125" x2="145.5" y2="181.5" gradientUnits="userSpaceOnUse">
<stop stop-color="white"/>
<stop offset="1" stop-color="white" stop-opacity="0"/>
</linearGradient>
<clipPath id="clip0_13932_225266">
<rect width="328" height="205" rx="20" fill="white"/>
</clipPath>
</defs>
</svg>
