<svg width="328" height="205" viewBox="0 0 328 205" fill="none" xmlns="http://www.w3.org/2000/svg">
<g clip-path="url(#clip0_13932_225275)">
<path d="M349.188 57.8804C338.828 48.272 324.498 33.5992 312.826 23.1929L312.135 22.7073C310.986 21.7804 309.691 21.0535 308.303 20.5567C280.16 15.2842 149.183 -9.30924 146.627 -8.99705C145.911 -8.89632 145.227 -8.63555 144.624 -8.23393L143.968 -7.71362C143.16 -6.88944 142.547 -5.89376 142.173 -4.79987L142 -4.34893V-1.88612V-1.50455C156.745 39.7389 214.965 174.847 226.429 206.551C227.12 208.702 228.432 212.795 230.883 213.003H231.436C232.748 213.003 238.342 205.58 238.342 205.58C238.342 205.58 338.345 83.7573 348.462 70.7842C349.772 69.1862 350.928 67.4673 351.915 65.6504C352.167 64.2289 352.049 62.7661 351.571 61.4044C351.092 60.0427 350.271 58.8287 349.188 57.8804ZM263.999 72.0676L306.68 36.5129L331.715 59.6842L263.999 72.0676ZM247.424 69.7436L173.941 9.24857L292.833 31.2751L247.424 69.7436ZM254.054 85.5957L329.263 73.4204L243.28 177.483L254.054 85.5957ZM163.962 15.2842L241.277 81.1904L230.089 177.552L163.962 15.2842Z" fill="url(#paint0_linear_13932_225275)" fill-opacity="0.1"/>
<path d="M349.188 57.8804C338.828 48.272 324.498 33.5992 312.826 23.1929L312.135 22.7073C310.986 21.7804 309.691 21.0535 308.303 20.5567C280.16 15.2842 149.183 -9.30924 146.627 -8.99705C145.911 -8.89632 145.227 -8.63555 144.624 -8.23393L143.968 -7.71362C143.16 -6.88944 142.547 -5.89376 142.173 -4.79987L142 -4.34893V-1.88612V-1.50455C156.745 39.7389 214.965 174.847 226.429 206.551C227.12 208.702 228.432 212.795 230.883 213.003H231.436C232.748 213.003 238.342 205.58 238.342 205.58C238.342 205.58 338.345 83.7573 348.462 70.7842C349.772 69.1862 350.928 67.4673 351.915 65.6504C352.167 64.2289 352.049 62.7661 351.571 61.4044C351.092 60.0427 350.271 58.8287 349.188 57.8804ZM263.999 72.0676L306.68 36.5129L331.715 59.6842L263.999 72.0676ZM247.424 69.7436L173.941 9.24857L292.833 31.2751L247.424 69.7436ZM254.054 85.5957L329.263 73.4204L243.28 177.483L254.054 85.5957ZM163.962 15.2842L241.277 81.1904L230.089 177.552L163.962 15.2842Z" fill="url(#paint1_linear_13932_225275)" fill-opacity="0.1"/>
<path opacity="0.3" d="M146.627 -8.99705C149.182 -9.30924 280.16 15.2842 308.303 20.5567C309.691 21.0534 310.987 21.7802 312.136 22.707L312.826 23.1934C324.498 33.5996 338.828 48.2725 349.188 57.8809C350.271 58.829 351.092 60.0428 351.57 61.4043C352.048 62.766 352.167 64.2289 351.915 65.6504C350.928 67.4672 349.772 69.1862 348.462 70.7842C338.343 83.7584 238.342 205.58 238.342 205.58C238.297 205.639 232.742 213.003 231.436 213.003H230.884L230.657 212.973C228.35 212.542 227.098 208.634 226.429 206.551C214.964 174.846 156.745 39.7384 142 -1.50487V-4.34862L142.173 -4.79979C142.5 -5.75696 143.011 -6.63879 143.675 -7.39647L143.969 -7.71385L144.624 -8.23436C145.226 -8.63593 145.911 -8.8963 146.627 -8.99705ZM146.744 -7.49705C146.301 -7.42201 145.878 -7.2579 145.499 -7.01366L144.983 -6.60448C144.36 -5.95203 143.885 -5.17112 143.592 -4.31444L143.583 -4.28905L143.5 -4.07323V-1.76659C150.912 18.9119 169.06 62.7769 186.83 105.524C204.092 147.051 221.001 187.534 227.267 204.476L227.84 206.041L227.849 206.066L227.857 206.093C228.21 207.189 228.67 208.614 229.312 209.786C229.989 211.025 230.578 211.449 230.976 211.503H231.18C231.194 211.493 231.209 211.484 231.226 211.472C231.419 211.331 231.685 211.099 232.018 210.772C232.676 210.126 233.462 209.241 234.233 208.325C234.999 207.415 235.728 206.502 236.267 205.814C236.535 205.471 236.755 205.186 236.908 204.986C236.985 204.887 237.045 204.809 237.085 204.756C237.105 204.73 237.12 204.71 237.13 204.696C237.135 204.69 237.138 204.685 237.141 204.682C237.142 204.68 237.143 204.678 237.144 204.678L237.145 204.677L237.163 204.652L237.183 204.628L238.342 205.58C237.225 204.663 237.184 204.629 237.184 204.627C237.184 204.626 237.186 204.624 237.188 204.622C237.191 204.618 237.195 204.613 237.201 204.605L237.47 204.278C237.659 204.047 237.941 203.705 238.309 203.257C239.043 202.361 240.122 201.046 241.499 199.368C244.253 196.012 248.199 191.202 252.966 185.391C262.499 173.767 275.315 158.135 288.447 142.097C314.722 110.007 342.235 76.3295 347.279 69.8613L347.291 69.8477L347.302 69.833C348.497 68.3746 349.556 66.8096 350.471 65.1592C350.627 64.0641 350.522 62.9466 350.155 61.9014C349.763 60.7834 349.089 59.7873 348.2 59.0098L348.167 58.9805C342.97 54.1601 336.778 48.07 330.452 41.9102C324.139 35.7625 317.685 29.538 311.894 24.3711L311.272 23.9346L311.232 23.9063L311.193 23.875C310.202 23.0757 309.089 22.4457 307.896 22.0069C293.711 19.3491 254.064 11.9075 217.597 5.16017C199.307 1.77612 181.819 -1.433 168.745 -3.77635C162.207 -4.94816 156.777 -5.90216 152.904 -6.55369C150.967 -6.87959 149.427 -7.12889 148.335 -7.291C147.788 -7.37224 147.364 -7.43 147.063 -7.46483C146.918 -7.48165 146.814 -7.49198 146.744 -7.49705ZM241.198 182.357L252.696 84.2959L332.959 71.3027L241.198 182.357ZM242.859 80.5684L231.579 177.726L228.7 178.118L162.573 15.8506L164.935 14.1426L242.859 80.5684ZM230.089 177.553L241.277 81.1904L163.962 15.2842L230.089 177.553ZM254.054 85.5957L243.28 177.483L329.263 73.4209L254.054 85.5957ZM334.935 60.6201L258.65 74.5703L306.731 34.5176L334.935 60.6201ZM263.999 72.0674L331.715 59.6846L306.68 36.5127L263.999 72.0674ZM296.214 30.376L247.438 71.6983L168.505 6.71584L296.214 30.376ZM247.424 69.7432L292.832 31.2754L173.941 9.24904L247.424 69.7432Z" fill="url(#paint2_linear_13932_225275)"/>
<circle opacity="0.1" cx="240" cy="717" r="625" fill="url(#paint3_linear_13932_225275)"/>
</g>
<defs>
<linearGradient id="paint0_linear_13932_225275" x1="247.022" y1="-9" x2="247.022" y2="213.003" gradientUnits="userSpaceOnUse">
<stop stop-color="white" stop-opacity="0.2"/>
<stop offset="0.75" stop-color="white"/>
</linearGradient>
<linearGradient id="paint1_linear_13932_225275" x1="321.5" y1="102.001" x2="142" y2="102.001" gradientUnits="userSpaceOnUse">
<stop stop-color="white"/>
<stop offset="1" stop-color="white" stop-opacity="0"/>
</linearGradient>
<linearGradient id="paint2_linear_13932_225275" x1="308.5" y1="102.001" x2="132.5" y2="71.5" gradientUnits="userSpaceOnUse">
<stop stop-color="white"/>
<stop offset="1" stop-color="white" stop-opacity="0.2"/>
</linearGradient>
<linearGradient id="paint3_linear_13932_225275" x1="50.5" y1="123.5" x2="149.5" y2="173" gradientUnits="userSpaceOnUse">
<stop stop-color="white"/>
<stop offset="1" stop-color="white" stop-opacity="0"/>
</linearGradient>
<clipPath id="clip0_13932_225275">
<rect width="328" height="205" rx="20" fill="white"/>
</clipPath>
</defs>
</svg>
