<svg width="320" height="205" viewBox="0 0 320 205" fill="none" xmlns="http://www.w3.org/2000/svg">
<g clip-path="url(#clip0_12569_91909)">
<g opacity="0.1">
<path d="M388.214 82.6885C388.185 82.5401 388.154 82.3923 388.124 82.2441C388.161 82.428 388.199 82.6117 388.234 82.7959L388.214 82.6885Z" fill="white"/>
<path fill-rule="evenodd" clip-rule="evenodd" d="M285 228C354.036 228 410 172.036 410 103C410 33.9645 354.035 -21.9999 285 -22C215.965 -21.9998 160 33.9646 160 103C160 172.035 215.965 228 285 228ZM285 208.18C272.323 208.18 260.17 205.937 248.916 201.827C248.847 201.802 248.778 201.776 248.709 201.751C247.967 201.478 247.229 201.197 246.495 200.908C246.461 200.895 246.426 200.881 246.392 200.867C244.848 200.258 243.323 199.614 241.816 198.935C240.986 198.56 240.161 198.175 239.343 197.78C238.23 197.243 237.127 196.687 236.036 196.112C235.238 195.692 234.447 195.261 233.661 194.82C231.874 193.819 230.118 192.767 228.397 191.666C227.249 190.931 226.115 190.174 224.997 189.396C224.378 188.966 223.764 188.528 223.155 188.085C217.66 184.083 212.566 179.563 207.947 174.595C207.143 173.729 206.353 172.849 205.578 171.957C204.435 170.642 203.324 169.299 202.247 167.928C201.757 167.304 201.274 166.676 200.798 166.041C200.231 165.285 199.674 164.521 199.127 163.749C197.953 162.093 196.826 160.401 195.748 158.676C195.723 158.635 195.698 158.595 195.673 158.555C185.626 142.434 179.82 123.395 179.82 103L179.829 101.641C179.913 94.993 180.615 88.494 181.878 82.1982C181.89 82.137 181.903 82.0758 181.915 82.0146C182.071 81.2456 182.235 80.4796 182.407 79.7168C182.422 79.6517 182.436 79.5865 182.451 79.5215C182.719 78.3469 183.007 77.1798 183.313 76.0205C183.871 73.9147 184.492 71.8344 185.175 69.7822H216.629V158.276L284.995 89.9102L353.361 158.276V69.7822H384.817C385.634 72.2354 386.361 74.7286 386.998 77.2578C378.083 41.8239 351.192 13.5352 316.585 2.65234C341.1 10.364 361.746 26.812 374.869 48.3447H330.553V104.027L284.996 58.4717L239.443 104.027V48.3447H195.123C208.247 26.8124 228.893 10.3642 253.407 2.65234C245.025 5.28853 237.094 8.94467 229.763 13.4775C245.457 3.7733 263.892 -1.92072 283.641 -2.1709L285 -2.17969C342.635 -2.17961 389.443 44.1782 390.171 101.641L390.18 103C390.18 134.758 376.104 163.227 353.852 182.513C371.746 167.002 384.351 145.551 388.601 121.227C380.416 168.07 341.226 204.265 292.966 207.883C290.782 208.046 288.579 208.143 286.359 208.171L285 208.18ZM208.039 31.3076C208.128 31.2123 208.218 31.1185 208.308 31.0234C208.187 31.1517 208.066 31.2793 207.946 31.4082L208.039 31.3076Z" fill="white"/>
</g>
<g opacity="0.16">
<path d="M388.214 82.6885C388.185 82.5401 388.154 82.3923 388.124 82.2441C388.161 82.428 388.199 82.6117 388.234 82.7959L388.214 82.6885Z" fill="url(#paint0_linear_12569_91909)"/>
<path fill-rule="evenodd" clip-rule="evenodd" d="M285 228C354.036 228 410 172.036 410 103C410 33.9645 354.035 -21.9999 285 -22C215.965 -21.9998 160 33.9646 160 103C160 172.035 215.965 228 285 228ZM285 208.18C272.323 208.18 260.17 205.937 248.916 201.827C248.847 201.802 248.778 201.776 248.709 201.751C247.967 201.478 247.229 201.197 246.495 200.908C246.461 200.895 246.426 200.881 246.392 200.867C244.848 200.258 243.323 199.614 241.816 198.935C240.986 198.56 240.161 198.175 239.343 197.78C238.23 197.243 237.127 196.687 236.036 196.112C235.238 195.692 234.447 195.261 233.661 194.82C231.874 193.819 230.118 192.767 228.397 191.666C227.249 190.931 226.115 190.174 224.997 189.396C224.378 188.966 223.764 188.528 223.155 188.085C217.66 184.083 212.566 179.563 207.947 174.595C207.143 173.729 206.353 172.849 205.578 171.957C204.435 170.642 203.324 169.299 202.247 167.928C201.757 167.304 201.274 166.676 200.798 166.041C200.231 165.285 199.674 164.521 199.127 163.749C197.953 162.093 196.826 160.401 195.748 158.676C195.723 158.635 195.698 158.595 195.673 158.555C185.626 142.434 179.82 123.395 179.82 103L179.829 101.641C179.913 94.993 180.615 88.494 181.878 82.1982C181.89 82.137 181.903 82.0758 181.915 82.0146C182.071 81.2456 182.235 80.4796 182.407 79.7168C182.422 79.6517 182.436 79.5865 182.451 79.5215C182.719 78.3469 183.007 77.1798 183.313 76.0205C183.871 73.9147 184.492 71.8344 185.175 69.7822H216.629V158.276L284.995 89.9102L353.361 158.276V69.7822H384.817C385.634 72.2354 386.361 74.7286 386.998 77.2578C378.083 41.8239 351.192 13.5352 316.585 2.65234C341.1 10.364 361.746 26.812 374.869 48.3447H330.553V104.027L284.996 58.4717L239.443 104.027V48.3447H195.123C208.247 26.8124 228.893 10.3642 253.407 2.65234C245.025 5.28853 237.094 8.94467 229.763 13.4775C245.457 3.7733 263.892 -1.92072 283.641 -2.1709L285 -2.17969C342.635 -2.17961 389.443 44.1782 390.171 101.641L390.18 103C390.18 134.758 376.104 163.227 353.852 182.513C371.746 167.002 384.351 145.551 388.601 121.227C380.416 168.07 341.226 204.265 292.966 207.883C290.782 208.046 288.579 208.143 286.359 208.171L285 208.18ZM208.039 31.3076C208.128 31.2123 208.218 31.1185 208.308 31.0234C208.187 31.1517 208.066 31.2793 207.946 31.4082L208.039 31.3076Z" fill="url(#paint1_linear_12569_91909)"/>
</g>
<g opacity="0.3">
<mask id="path-4-inside-1_12569_91909" fill="white">
<path d="M388.214 82.6885C388.185 82.5401 388.154 82.3923 388.124 82.2441C388.161 82.428 388.199 82.6117 388.234 82.7959L388.214 82.6885Z"/>
<path fill-rule="evenodd" clip-rule="evenodd" d="M285 228C354.036 228 410 172.036 410 103C410 33.9645 354.035 -21.9999 285 -22C215.965 -21.9998 160 33.9646 160 103C160 172.035 215.965 228 285 228ZM285 208.18C272.323 208.18 260.17 205.937 248.916 201.827C248.847 201.802 248.778 201.776 248.709 201.751C247.967 201.478 247.229 201.197 246.495 200.908C246.461 200.895 246.426 200.881 246.392 200.867C244.848 200.258 243.323 199.614 241.816 198.935C240.986 198.56 240.161 198.175 239.343 197.78C238.23 197.243 237.127 196.687 236.036 196.112C235.238 195.692 234.447 195.261 233.661 194.82C231.874 193.819 230.118 192.767 228.397 191.666C227.249 190.931 226.115 190.174 224.997 189.396C224.378 188.966 223.764 188.528 223.155 188.085C217.66 184.083 212.566 179.563 207.947 174.595C207.143 173.729 206.353 172.849 205.578 171.957C204.435 170.642 203.324 169.299 202.247 167.928C201.757 167.304 201.274 166.676 200.798 166.041C200.231 165.285 199.674 164.521 199.127 163.749C197.953 162.093 196.826 160.401 195.748 158.676C195.723 158.635 195.698 158.595 195.673 158.555C185.626 142.434 179.82 123.395 179.82 103L179.829 101.641C179.913 94.993 180.615 88.494 181.878 82.1982C181.89 82.137 181.903 82.0758 181.915 82.0146C182.071 81.2456 182.235 80.4796 182.407 79.7168C182.422 79.6517 182.436 79.5865 182.451 79.5215C182.719 78.3469 183.007 77.1798 183.313 76.0205C183.871 73.9147 184.492 71.8344 185.175 69.7822H216.629V158.276L284.995 89.9102L353.361 158.276V69.7822H384.817C385.634 72.2354 386.361 74.7286 386.998 77.2578C378.083 41.8239 351.192 13.5352 316.585 2.65234C341.1 10.364 361.746 26.812 374.869 48.3447H330.553V104.027L284.996 58.4717L239.443 104.027V48.3447H195.123C208.247 26.8124 228.893 10.3642 253.407 2.65234C245.025 5.28853 237.094 8.94467 229.763 13.4775C245.457 3.7733 263.892 -1.92072 283.641 -2.1709L285 -2.17969C342.635 -2.17961 389.443 44.1782 390.171 101.641L390.18 103C390.18 134.758 376.104 163.227 353.852 182.513C371.746 167.002 384.351 145.551 388.601 121.227C380.416 168.07 341.226 204.265 292.966 207.883C290.782 208.046 288.579 208.143 286.359 208.171L285 208.18ZM208.039 31.3076C208.128 31.2123 208.218 31.1185 208.308 31.0234C208.187 31.1517 208.066 31.2793 207.946 31.4082L208.039 31.3076Z"/>
</mask>
<path d="M284.996 -2.17773L284.996 -2.92773H284.996V-2.17773ZM218.645 21.3906L219.118 21.9723L219.118 21.9723L218.645 21.3906ZM201.923 38.4893L201.331 38.0288L201.923 38.4893ZM202.249 38.0713L202.839 38.5347L202.839 38.5347L202.249 38.0713ZM284.996 -2.17773L284.996 -1.42773C284.41 -1.42773 283.823 -1.42094 283.235 -1.41124L283.223 -2.16113L283.21 -2.91103C283.802 -2.92082 284.398 -2.92773 284.996 -2.92773L284.996 -2.17773ZM284.996 -2.17773V-2.92773C285.593 -2.92773 286.189 -2.92079 286.78 -2.91103L286.768 -2.16113L286.755 -1.41124C286.168 -1.42093 285.582 -1.42773 284.996 -1.42773V-2.17773ZM254.834 2.21484L254.619 1.49626C255.488 1.23656 256.361 0.988388 257.238 0.750702L257.435 1.47461L257.631 2.19852C256.765 2.43297 255.905 2.67761 255.049 2.93343L254.834 2.21484ZM315.197 2.22656L314.982 2.94508C314.114 2.68512 313.24 2.43639 312.362 2.19853L312.558 1.47461L312.754 0.750687C313.644 0.991913 314.531 1.24425 315.412 1.50804L315.197 2.22656ZM227.327 15.0303L226.915 14.4034C227.683 13.8989 228.458 13.4048 229.239 12.9203L229.635 13.5576L230.03 14.1949C229.259 14.673 228.496 15.1601 227.739 15.6571L227.327 15.0303ZM225.429 16.3076L225.854 16.9254C225.168 17.3976 224.488 17.8768 223.815 18.3643L223.375 17.7568L222.935 17.1494C223.619 16.6544 224.308 16.1683 225.003 15.6898L225.429 16.3076ZM222.573 18.3438L222.128 17.7405C222.331 17.5903 222.535 17.4412 222.738 17.293L223.18 17.8994L223.621 18.5058C223.419 18.6526 223.219 18.7995 223.019 18.947L222.573 18.3438ZM220.396 19.9961L219.935 19.4046C220.585 18.8986 221.24 18.4005 221.9 17.9096L222.348 18.5117L222.795 19.1138C222.143 19.5979 221.497 20.0891 220.858 20.5876L220.396 19.9961ZM219.567 20.6494L219.1 20.0625C219.267 19.9298 219.438 19.7932 219.61 19.6583L220.073 20.248L220.537 20.8378C220.37 20.9689 220.204 21.101 220.034 21.2363L219.567 20.6494ZM218.645 21.3906L219.118 21.9723C218.657 22.3479 218.198 22.7279 217.743 23.1116L217.26 22.5381L216.776 21.9646C217.238 21.5758 217.703 21.1904 218.171 20.809L218.645 21.3906ZM215.699 23.8799L215.205 23.3159C215.416 23.1306 215.629 22.945 215.843 22.7602L216.333 23.3281L216.823 23.896C216.613 24.0772 216.403 24.2599 216.194 24.4439L215.699 23.8799ZM214.963 24.5303L214.463 23.9709C214.664 23.7915 214.866 23.614 215.065 23.4388L215.561 24.002L216.056 24.5651C215.856 24.7412 215.658 24.9148 215.462 25.0896L214.963 24.5303ZM213.795 25.5898L213.287 25.038C213.583 24.7659 213.88 24.4959 214.178 24.2276L214.68 24.7852L215.181 25.3427C214.887 25.6077 214.594 25.8739 214.303 26.1417L213.795 25.5898ZM212.879 26.4434L212.365 25.8976C212.543 25.7296 212.723 25.5593 212.905 25.3901L213.416 25.9395L213.927 26.4888C213.749 26.6539 213.572 26.8204 213.393 26.9892L212.879 26.4434ZM212.172 27.1152L211.652 26.5742C211.829 26.4047 212.006 26.2354 212.185 26.0667L212.7 26.6113L213.216 27.1559C213.041 27.3219 212.866 27.4887 212.691 27.6563L212.172 27.1152ZM211.409 27.8545L210.884 27.3187C211.008 27.1978 211.132 27.0777 211.254 26.9587L211.776 27.4971L212.299 28.0354C212.176 28.1543 212.055 28.2722 211.934 28.3903L211.409 27.8545ZM210.191 29.0674L209.658 28.5402C209.905 28.2901 210.153 28.0417 210.402 27.7947L210.931 28.3271L211.459 28.8596C211.213 29.1037 210.968 29.3486 210.725 29.5946L210.191 29.0674ZM209.536 29.7363L208.998 29.2139C209.099 29.1096 209.204 29.0011 209.309 28.8942L209.845 29.4189L210.381 29.9437C210.279 30.0476 210.179 30.1514 210.074 30.2588L209.536 29.7363ZM208.759 30.5459L208.215 30.0292C208.315 29.9237 208.42 29.8132 208.524 29.7046L209.065 30.2236L209.607 30.7426C209.506 30.8482 209.406 30.9531 209.302 31.0626L208.759 30.5459ZM206.188 33.3477L205.627 32.8508C205.729 32.7356 205.831 32.6209 205.933 32.5066L206.492 33.0059L207.052 33.5052C206.951 33.6183 206.85 33.7313 206.75 33.8445L206.188 33.3477ZM205.444 34.1982L204.877 33.7074C204.974 33.5951 205.072 33.4825 205.17 33.3701L205.735 33.8633L206.3 34.3565C206.204 34.4669 206.108 34.5777 206.011 34.6891L205.444 34.1982ZM204.295 35.5498L203.72 35.0685C203.963 34.7776 204.208 34.4882 204.454 34.2001L205.024 34.6875L205.594 35.1749C205.351 35.4591 205.11 35.7445 204.87 36.0311L204.295 35.5498ZM203.752 36.2031L203.173 35.7265C203.262 35.6185 203.352 35.5092 203.442 35.4L204.02 35.8789L204.597 36.3578C204.508 36.4643 204.42 36.5714 204.331 36.6797L203.752 36.2031ZM203.004 37.1221L202.42 36.652C202.515 36.5329 202.613 36.4118 202.711 36.291L203.293 36.7637L203.875 37.2363C203.78 37.3539 203.685 37.472 203.588 37.5922L203.004 37.1221ZM201.923 38.4893L202.515 38.9497C202.349 39.1633 202.183 39.378 202.018 39.5935L201.423 39.1377L200.827 38.6819C200.994 38.4639 201.162 38.2461 201.331 38.0288L201.923 38.4893ZM200.732 40.0498L200.132 39.6005C200.2 39.5096 200.27 39.4154 200.34 39.3222L200.939 39.7734L201.538 40.2247C201.47 40.3153 201.403 40.4057 201.333 40.4991L200.732 40.0498ZM200.035 40.9912L199.43 40.5486C199.481 40.4782 199.538 40.4015 199.586 40.3362L200.19 40.7803L200.795 41.2244C200.739 41.2998 200.692 41.3633 200.641 41.4338L200.035 40.9912ZM198.564 43.0557L197.949 42.6277C197.989 42.5701 198.047 42.4854 198.092 42.4202L198.707 42.8496L199.322 43.279C199.272 43.3508 199.236 43.404 199.18 43.4836L198.564 43.0557ZM197.199 45.0684L196.574 44.6547C196.628 44.5728 196.688 44.4825 196.739 44.4069L197.363 44.8223L197.988 45.2376C197.929 45.3262 197.879 45.3994 197.825 45.482L197.199 45.0684ZM195.674 47.4463L195.037 47.0496C195.14 46.8843 195.246 46.7146 195.352 46.546L195.986 46.9463L196.621 47.3465C196.517 47.5104 196.415 47.6746 196.31 47.843L195.674 47.4463ZM195.179 48.248L194.539 47.8571C194.588 47.7759 194.641 47.6889 194.693 47.6043L195.332 47.9971L195.971 48.3898C195.92 48.4723 195.871 48.5529 195.819 48.639L195.179 48.248ZM192.65 52.6191L191.992 52.2594C192.061 52.1332 192.131 52.0073 192.2 51.8817L192.856 52.2441L193.513 52.6066C193.445 52.7307 193.376 52.8548 193.308 52.9789L192.65 52.6191ZM190.944 55.873L190.274 55.5365C190.295 55.4956 190.317 55.4521 190.336 55.4136L191.006 55.751L191.676 56.0883C191.654 56.1313 191.635 56.169 191.615 56.2095L190.944 55.873ZM189.293 59.3174L188.611 59.0056C188.642 58.9381 188.676 58.8618 188.709 58.7902L189.391 59.1035L190.072 59.4169C190.039 59.4877 190.009 59.5541 189.975 59.6292L189.293 59.3174ZM188.798 60.4189L188.112 60.115C188.138 60.056 188.173 59.9777 188.202 59.9124L188.887 60.2178L189.572 60.5231C189.541 60.5917 189.517 60.6478 189.484 60.7229L188.798 60.4189ZM188.32 61.5127L187.631 61.2166C187.651 61.1701 187.673 61.119 187.694 61.0701L188.383 61.3672L189.071 61.6643C189.051 61.7123 189.031 61.7583 189.009 61.8088L188.32 61.5127ZM186.875 65.0518L186.176 64.7811C186.198 64.7225 186.225 64.6555 186.245 64.6021L186.944 64.874L187.643 65.146C187.618 65.211 187.598 65.2624 187.574 65.3224L186.875 65.0518ZM185.162 69.8184L184.45 69.5819C184.469 69.5264 184.49 69.4607 184.51 69.4009L185.222 69.6387L185.933 69.8764C185.913 69.9363 185.895 69.9905 185.874 70.0548L185.162 69.8184ZM184.354 72.3613L183.636 72.1432C183.663 72.0533 183.695 71.9475 183.724 71.851L184.441 72.0713L185.158 72.2915C185.129 72.3881 185.103 72.476 185.071 72.5795L184.354 72.3613ZM184.02 73.4844L183.3 73.2743C183.313 73.2287 183.336 73.1482 183.352 73.0943L184.071 73.3057L184.791 73.517C184.772 73.5821 184.761 73.6209 184.74 73.6945L184.02 73.4844ZM388.601 121.227L387.862 121.097C388.064 119.942 388.247 118.78 388.411 117.612L389.153 117.716L389.896 117.82C389.73 119.005 389.544 120.184 389.339 121.356L388.601 121.227ZM352.049 184.04L351.57 183.462C352.157 182.977 352.737 182.485 353.313 181.987L353.804 182.554L354.295 183.121C353.711 183.626 353.122 184.125 352.527 184.618L352.049 184.04ZM351.967 184.107L352.445 184.686C352.174 184.909 351.902 185.132 351.628 185.354L351.156 184.771L350.684 184.189C350.953 183.971 351.221 183.751 351.489 183.529L351.967 184.107ZM350.981 184.913L351.452 185.497C351.196 185.704 350.938 185.909 350.68 186.114L350.215 185.525L349.749 184.937C350.004 184.736 350.258 184.533 350.511 184.329L350.981 184.913ZM349.934 185.746L350.397 186.336C350.173 186.512 349.947 186.69 349.718 186.866L349.26 186.272L348.801 185.679C349.024 185.507 349.246 185.333 349.47 185.156L349.934 185.746ZM349.062 186.424L349.519 187.018C349.267 187.212 349.014 187.406 348.758 187.599L348.307 187L347.855 186.401C348.105 186.213 348.354 186.022 348.604 185.829L349.062 186.424ZM346.331 188.456L345.893 187.847C346.489 187.419 347.079 186.983 347.667 186.542L348.117 187.142L348.568 187.741C347.973 188.188 347.374 188.63 346.769 189.065L346.331 188.456ZM339.342 193.071L338.954 192.429C341.295 191.014 343.577 189.508 345.793 187.918L346.23 188.527L346.668 189.137C344.419 190.749 342.105 192.277 339.73 193.713L339.342 193.071ZM339.261 193.121L339.648 193.763C339.375 193.928 339.1 194.09 338.83 194.25L338.448 193.604L338.067 192.959C338.339 192.798 338.607 192.64 338.873 192.479L339.261 193.121ZM338.191 193.757L338.571 194.404C338.377 194.517 338.182 194.63 337.992 194.74L337.616 194.091L337.24 193.442C337.434 193.329 337.623 193.221 337.812 193.11L338.191 193.757ZM337.086 194.397L337.458 195.049C337.299 195.139 337.134 195.231 336.982 195.317L336.613 194.664L336.245 194.011C336.408 193.919 336.559 193.835 336.714 193.746L337.086 194.397ZM336.023 194.996L336.388 195.652C336.234 195.737 336.078 195.822 335.928 195.904L335.567 195.247L335.206 194.59C335.361 194.505 335.51 194.424 335.659 194.341L336.023 194.996ZM334.888 195.618L335.244 196.278C335.08 196.367 334.914 196.455 334.754 196.54L334.401 195.878L334.049 195.216C334.213 195.128 334.372 195.044 334.531 194.958L334.888 195.618ZM333.904 196.143L334.254 196.806C334.046 196.916 333.838 197.023 333.632 197.13L333.287 196.464L332.942 195.798C333.149 195.691 333.352 195.585 333.555 195.479L333.904 196.143ZM332.701 196.765L333.042 197.433C332.892 197.509 332.741 197.585 332.591 197.661L332.254 196.991L331.917 196.321C332.065 196.247 332.213 196.172 332.361 196.096L332.701 196.765ZM331.655 197.291L331.988 197.963C331.798 198.057 331.608 198.151 331.418 198.243L331.089 197.569L330.76 196.895C330.948 196.803 331.136 196.712 331.322 196.619L331.655 197.291ZM330.503 197.854L330.828 198.53C330.664 198.608 330.5 198.686 330.337 198.764L330.016 198.086L329.694 197.408C329.856 197.331 330.018 197.255 330.178 197.178L330.503 197.854ZM329.371 198.39L329.688 199.069C329.519 199.148 329.349 199.226 329.184 199.302L328.871 198.62L328.558 197.939C328.726 197.861 328.89 197.786 329.054 197.71L329.371 198.39ZM328.266 198.896L328.574 199.58C328.385 199.665 328.196 199.75 328.009 199.833L327.704 199.147L327.399 198.462C327.587 198.379 327.772 198.296 327.957 198.213L328.266 198.896ZM327.192 199.374L327.494 200.061C327.275 200.157 327.056 200.252 326.837 200.346L326.54 199.657L326.244 198.968C326.46 198.875 326.676 198.781 326.891 198.687L327.192 199.374ZM325.995 199.89L326.288 200.58C326.101 200.66 325.913 200.739 325.724 200.817L325.436 200.125L325.147 199.433C325.332 199.356 325.517 199.278 325.703 199.199L325.995 199.89ZM324.845 200.369L325.129 201.063C324.952 201.136 324.769 201.211 324.587 201.284L324.307 200.589L324.026 199.893C324.203 199.822 324.379 199.749 324.56 199.675L324.845 200.369ZM323.497 200.91L323.772 201.608C323.694 201.639 323.575 201.686 323.486 201.721L323.214 201.022L322.941 200.324C323.042 200.285 323.111 200.256 323.222 200.212L323.497 200.91ZM322.298 201.374L322.564 202.075C322.484 202.106 322.383 202.145 322.295 202.178L322.031 201.476L321.767 200.774C321.858 200.74 321.934 200.71 322.032 200.673L322.298 201.374ZM321.213 201.778L321.471 202.482C321.334 202.533 321.191 202.586 321.049 202.637L320.794 201.932L320.539 201.226C320.677 201.177 320.813 201.126 320.955 201.074L321.213 201.778ZM320.011 202.211L320.26 202.918C320.158 202.954 320.014 203.007 319.898 203.047L319.651 202.339L319.404 201.631C319.529 201.587 319.624 201.552 319.761 201.504L320.011 202.211ZM309.869 205.223L310.046 205.952C310.002 205.962 309.929 205.979 309.893 205.988L309.718 205.259L309.542 204.53C309.608 204.514 309.635 204.508 309.692 204.494L309.869 205.223ZM308.648 205.511L308.816 206.242C308.731 206.261 308.642 206.281 308.561 206.3L308.395 205.568L308.228 204.837C308.316 204.817 308.397 204.799 308.48 204.78L308.648 205.511ZM307.337 205.803L307.495 206.536C307.491 206.537 307.486 206.538 307.475 206.54C307.466 206.543 307.451 206.546 307.434 206.55L307.276 205.816L307.118 205.083C307.122 205.082 307.127 205.081 307.138 205.079C307.147 205.077 307.162 205.073 307.178 205.07L307.337 205.803ZM304.784 206.322L304.924 207.059C304.905 207.063 304.886 207.066 304.876 207.068C304.864 207.07 304.86 207.07 304.858 207.071L304.718 206.334L304.578 205.597C304.597 205.593 304.616 205.59 304.625 205.589C304.638 205.587 304.641 205.586 304.644 205.585L304.784 206.322ZM303.554 206.549L303.685 207.287C303.64 207.295 303.543 207.312 303.509 207.318L303.379 206.579L303.249 205.84C303.331 205.826 303.351 205.823 303.422 205.81L303.554 206.549ZM302.26 206.771L302.382 207.51C302.362 207.514 302.247 207.532 302.24 207.533L302.119 206.793L301.998 206.053C302.085 206.039 302.064 206.043 302.138 206.031L302.26 206.771ZM300.924 206.982L301.036 207.724C301.026 207.725 301.017 207.727 301.011 207.728C301.004 207.728 300.998 207.729 300.996 207.729C300.992 207.73 300.992 207.73 300.992 207.73C300.992 207.73 300.995 207.729 300.999 207.729L300.887 206.987L300.774 206.246C300.785 206.244 300.793 206.243 300.8 206.242C300.806 206.241 300.812 206.241 300.815 206.24C300.818 206.24 300.819 206.24 300.818 206.24C300.818 206.24 300.815 206.24 300.811 206.241L300.924 206.982ZM299.74 207.155L299.844 207.898C299.744 207.912 299.637 207.926 299.542 207.939L299.44 207.196L299.338 206.453C299.443 206.439 299.537 206.426 299.636 206.413L299.74 207.155ZM298.513 207.319L298.608 208.063C298.492 208.078 298.372 208.094 298.253 208.108L298.16 207.364L298.067 206.62C298.183 206.606 298.299 206.591 298.417 206.575L298.513 207.319ZM297.019 207.501L297.103 208.246C297.092 208.247 297.081 208.249 297.075 208.249C297.068 208.25 297.067 208.25 297.066 208.25L296.981 207.505L296.897 206.76C296.908 206.758 296.919 206.757 296.925 206.757C296.931 206.756 296.933 206.756 296.934 206.756L297.019 207.501ZM293.107 207.872L293.164 208.62C293.152 208.621 293.085 208.626 293.064 208.628L293.008 207.88L292.952 207.132C292.997 207.129 292.997 207.128 293.05 207.124L293.107 207.872ZM312.465 1.44922L312.269 2.17332C311.847 2.05925 311.424 1.94722 311.001 1.83882L311.188 1.1123L311.374 0.385788C311.805 0.496216 312.233 0.609955 312.66 0.725113L312.465 1.44922ZM316.519 2.63184L316.294 3.34744C315.869 3.2142 315.445 3.08308 315.02 2.95575L315.235 2.2373L315.451 1.51886C315.884 1.64862 316.314 1.78175 316.743 1.91623L316.519 2.63184ZM226.579 15.5264L226.162 14.9031C226.397 14.7458 226.633 14.5894 226.869 14.4339L227.281 15.0605L227.693 15.6872C227.46 15.8404 227.228 15.9946 226.996 16.1497L226.579 15.5264ZM225.694 16.125L225.271 15.506C225.492 15.355 225.713 15.2053 225.934 15.0565L226.353 15.6787L226.771 16.3009C226.553 16.4482 226.335 16.5957 226.118 16.744L225.694 16.125ZM216.562 23.1318L216.074 22.5625C216.256 22.4064 216.442 22.2466 216.629 22.0885L217.113 22.6611L217.598 23.2337C217.416 23.3876 217.235 23.5428 217.051 23.7011L216.562 23.1318ZM218.645 21.3906L218.171 20.809C218.378 20.6402 218.586 20.4724 218.795 20.3054L219.264 20.8906L219.733 21.4758C219.527 21.6407 219.322 21.8061 219.118 21.9723L218.645 21.3906ZM202.249 38.0713L201.659 37.6079C201.784 37.4493 201.909 37.2917 202.033 37.1358L202.62 37.6025L203.207 38.0692C203.083 38.2253 202.96 38.3798 202.839 38.5347L202.249 38.0713ZM202.249 38.0713L202.839 38.5347C202.731 38.6719 202.624 38.8099 202.515 38.9497L201.923 38.4893L201.331 38.0288C201.439 37.8896 201.549 37.7486 201.659 37.6079L202.249 38.0713ZM387.417 78.9834L386.687 79.154C386.646 78.9805 386.605 78.807 386.564 78.6333L387.293 78.459L388.022 78.2846C388.064 78.4603 388.106 78.6363 388.147 78.8128L387.417 78.9834ZM388.037 81.8154L387.302 81.9657C387.251 81.7161 387.199 81.4667 387.146 81.2172L387.88 81.0615L388.614 80.9058C388.667 81.1584 388.72 81.4115 388.772 81.6651L388.037 81.8154ZM285 228V229.5H285L285 228ZM410 103H411.5H410ZM285 -22L285 -23.5H285V-22ZM160 103H158.5H160ZM285 208.18L285.01 209.68H285L285 208.18ZM248.916 201.827L248.401 203.236L248.401 203.236L248.916 201.827ZM248.709 201.751L249.227 200.343L249.227 200.343L248.709 201.751ZM246.495 200.908L245.946 202.304L245.946 202.304L246.495 200.908ZM246.392 200.867L246.942 199.472L246.943 199.472L246.392 200.867ZM241.816 198.935L241.2 200.302L241.2 200.302L241.816 198.935ZM239.343 197.78L239.995 196.429L239.995 196.429L239.343 197.78ZM236.036 196.112L235.337 197.439L235.337 197.439L236.036 196.112ZM233.661 194.82L234.394 193.512L234.394 193.512L233.661 194.82ZM228.397 191.666L227.589 192.93L227.589 192.93L228.397 191.666ZM224.997 189.396L225.854 188.165L225.854 188.165L224.997 189.396ZM223.155 188.085L222.272 189.298L222.272 189.298L223.155 188.085ZM207.947 174.595L206.849 175.616L206.849 175.616L207.947 174.595ZM205.578 171.957L206.71 170.973L206.71 170.973L205.578 171.957ZM202.247 167.928L201.068 168.854L201.068 168.854L202.247 167.928ZM200.798 166.041L201.998 165.141L201.998 165.141L200.798 166.041ZM199.127 163.749L197.903 164.616L197.903 164.616L199.127 163.749ZM195.748 158.676L197.02 157.881L197.02 157.881L195.748 158.676ZM195.673 158.555L194.4 159.348L194.4 159.348L195.673 158.555ZM179.82 103H178.32L178.32 102.99L179.82 103ZM179.829 101.641L178.329 101.631L178.329 101.622L179.829 101.641ZM181.878 82.1982L180.407 81.9032L180.407 81.9032L181.878 82.1982ZM181.915 82.0146L183.385 82.3123L183.385 82.3124L181.915 82.0146ZM182.407 79.7168L180.944 79.3862L180.944 79.386L182.407 79.7168ZM182.451 79.5215L183.914 79.8549L183.914 79.8551L182.451 79.5215ZM183.313 76.0205L181.863 75.6368L181.863 75.6366L183.313 76.0205ZM185.175 69.7822L183.752 69.3085L184.093 68.2822H185.175V69.7822ZM216.629 69.7822V68.2822H218.129V69.7822H216.629ZM216.629 158.276L217.69 159.337L215.129 161.898V158.276H216.629ZM284.995 89.9102L283.934 88.8495L284.995 87.7888L286.056 88.8495L284.995 89.9102ZM353.361 158.276H354.861V161.898L352.301 159.337L353.361 158.276ZM353.361 69.7822H351.861V68.2822H353.361V69.7822ZM384.817 69.7822V68.2822H385.899L386.241 69.3085L384.817 69.7822ZM386.998 77.2578L388.453 76.8918L385.543 77.6239L386.998 77.2578ZM316.585 2.65234L316.135 4.08322L317.035 1.22142L316.585 2.65234ZM374.869 48.3447L376.15 47.5641L377.54 49.8447H374.869V48.3447ZM330.553 48.3447H329.053V46.8447H330.553V48.3447ZM330.553 104.027H332.053V107.649L329.492 105.088L330.553 104.027ZM284.996 58.4717L283.935 57.4111L284.996 56.3503L286.057 57.411L284.996 58.4717ZM239.443 104.027L240.504 105.088L237.943 107.649V104.027H239.443ZM239.443 48.3447V46.8447H240.943V48.3447H239.443ZM195.123 48.3447V49.8447H192.452L193.842 47.564L195.123 48.3447ZM253.407 2.65234L252.957 1.22144L253.857 4.08321L253.407 2.65234ZM229.763 13.4775L230.552 14.7534L228.974 12.2017L229.763 13.4775ZM283.641 -2.1709L283.622 -3.67081L283.631 -3.67087L283.641 -2.1709ZM285 -2.17969L284.99 -3.67969H285V-2.17969ZM390.171 101.641L391.671 101.622L391.671 101.631L390.171 101.641ZM390.18 103L391.68 102.99V103H390.18ZM353.852 182.513L354.834 183.646L352.869 181.379L353.852 182.513ZM388.601 121.227L387.123 120.968L390.078 121.485L388.601 121.227ZM292.966 207.883L293.078 209.379L293.078 209.379L292.966 207.883ZM286.359 208.171L286.378 209.671L286.369 209.671L286.359 208.171ZM208.039 31.3076L206.936 30.2906L206.942 30.285L208.039 31.3076ZM208.308 31.0234L207.214 29.9967L209.401 32.0502L208.308 31.0234ZM207.946 31.4082L209.045 32.4295L206.844 30.3912L207.946 31.4082ZM388.214 82.6885L389.686 82.4004L389.687 82.4072L388.214 82.6885ZM388.124 82.2441L386.653 82.5386L389.595 81.9495L388.124 82.2441ZM388.234 82.7959L389.708 82.5146L386.762 83.0826L388.234 82.7959ZM285 228V226.5C353.207 226.5 408.5 171.207 408.5 103H410H411.5C411.5 172.864 354.864 229.5 285 229.5V228ZM410 103H408.5C408.5 34.7929 353.207 -20.4999 285 -20.5V-22V-23.5C354.864 -23.4999 411.5 33.1361 411.5 103H410ZM285 -22L285 -20.5C216.793 -20.4998 161.5 34.793 161.5 103H160H158.5C158.5 33.1362 215.136 -23.4998 285 -23.5L285 -22ZM160 103H161.5C161.5 171.207 216.793 226.5 285 226.5L285 228L285 229.5C215.136 229.5 158.5 172.864 158.5 103H160ZM285 208.18L285 209.68C272.145 209.68 259.818 207.406 248.401 203.236L248.916 201.827L249.431 200.418C260.522 204.469 272.501 206.68 285 206.68L285 208.18ZM248.916 201.827L248.401 203.236C248.331 203.21 248.255 203.182 248.191 203.159L248.709 201.751L249.227 200.343C249.301 200.371 249.363 200.393 249.431 200.418L248.916 201.827ZM248.709 201.751L248.191 203.159C247.438 202.882 246.69 202.597 245.946 202.304L246.495 200.908L247.044 199.512C247.768 199.797 248.496 200.074 249.227 200.343L248.709 201.751ZM246.495 200.908L245.946 202.304C245.917 202.293 245.86 202.27 245.841 202.262L246.392 200.867L246.943 199.472C246.993 199.492 247.004 199.496 247.045 199.512L246.495 200.908ZM246.392 200.867L245.841 202.262C244.276 201.644 242.728 200.991 241.2 200.302L241.816 198.935L242.433 197.567C243.917 198.236 245.421 198.871 246.942 199.472L246.392 200.867ZM241.816 198.935L241.2 200.302C240.358 199.922 239.521 199.532 238.691 199.131L239.343 197.78L239.995 196.429C240.802 196.819 241.614 197.198 242.433 197.567L241.816 198.935ZM239.343 197.78L238.691 199.131C237.562 198.586 236.444 198.023 235.337 197.439L236.036 196.112L236.735 194.785C237.81 195.352 238.897 195.9 239.995 196.429L239.343 197.78ZM236.036 196.112L235.337 197.439C234.527 197.012 233.724 196.575 232.928 196.129L233.661 194.82L234.394 193.512C235.17 193.946 235.95 194.371 236.735 194.785L236.036 196.112ZM233.661 194.82L232.928 196.129C231.115 195.113 229.335 194.046 227.589 192.93L228.397 191.666L229.206 190.402C230.902 191.488 232.632 192.524 234.394 193.512L233.661 194.82ZM228.397 191.666L227.589 192.93C226.424 192.184 225.274 191.417 224.14 190.628L224.997 189.396L225.854 188.165C226.956 188.932 228.073 189.678 229.206 190.402L228.397 191.666ZM224.997 189.396L224.14 190.628C223.512 190.191 222.89 189.747 222.272 189.298L223.155 188.085L224.038 186.872C224.639 187.31 225.244 187.741 225.854 188.165L224.997 189.396ZM223.155 188.085L222.272 189.298C216.699 185.239 211.533 180.655 206.849 175.616L207.947 174.595L209.046 173.573C213.599 178.471 218.621 182.928 224.038 186.872L223.155 188.085ZM207.947 174.595L206.849 175.616C206.032 174.737 205.232 173.845 204.446 172.941L205.578 171.957L206.71 170.973C207.475 171.854 208.253 172.721 209.046 173.573L207.947 174.595ZM205.578 171.957L204.446 172.941C203.287 171.608 202.16 170.245 201.068 168.854L202.247 167.928L203.427 167.001C204.488 168.352 205.584 169.677 206.71 170.973L205.578 171.957ZM202.247 167.928L201.068 168.854C200.571 168.223 200.081 167.585 199.598 166.941L200.798 166.041L201.998 165.141C202.467 165.766 202.943 166.386 203.427 167.001L202.247 167.928ZM200.798 166.041L199.598 166.941C199.023 166.174 198.458 165.399 197.903 164.616L199.127 163.749L200.351 162.882C200.89 163.643 201.439 164.396 201.998 165.141L200.798 166.041ZM199.127 163.749L197.903 164.616C196.713 162.936 195.57 161.22 194.476 159.471L195.748 158.676L197.02 157.881C198.083 159.581 199.194 161.249 200.351 162.882L199.127 163.749ZM195.748 158.676L194.476 159.471C194.457 159.44 194.412 159.367 194.4 159.348L195.673 158.555L196.946 157.761C196.984 157.823 196.989 157.831 197.02 157.881L195.748 158.676ZM195.673 158.555L194.4 159.348C184.208 142.996 178.32 123.683 178.32 103H179.82H181.32C181.32 123.106 187.043 141.871 196.946 157.761L195.673 158.555ZM179.82 103L178.32 102.99L178.329 101.631L179.829 101.641L181.329 101.65L181.32 103.01L179.82 103ZM179.829 101.641L178.329 101.622C178.415 94.8807 179.126 88.2893 180.407 81.9032L181.878 82.1982L183.349 82.4933C182.104 88.6988 181.412 95.1053 181.329 101.66L179.829 101.641ZM181.878 82.1982L180.407 81.9032C180.42 81.8402 180.433 81.7767 180.445 81.7169L181.915 82.0146L183.385 82.3124C183.373 82.375 183.361 82.4338 183.349 82.4933L181.878 82.1982ZM181.915 82.0146L180.445 81.717C180.603 80.9369 180.769 80.16 180.944 79.3862L182.407 79.7168L183.87 80.0474C183.7 80.7993 183.539 81.5543 183.385 82.3123L181.915 82.0146ZM182.407 79.7168L180.944 79.386C180.956 79.3351 180.974 79.2505 180.989 79.1879L182.451 79.5215L183.914 79.8551C183.898 79.9226 183.888 79.9684 183.87 80.0476L182.407 79.7168ZM182.451 79.5215L180.989 79.188C181.26 77.9964 181.552 76.8125 181.863 75.6368L183.313 76.0205L184.764 76.4042C184.461 77.5471 184.178 78.6974 183.914 79.8549L182.451 79.5215ZM183.313 76.0205L181.863 75.6366C182.429 73.5008 183.059 71.3905 183.752 69.3085L185.175 69.7822L186.598 70.256C185.925 72.2783 185.313 74.3286 184.764 76.4044L183.313 76.0205ZM185.175 69.7822V68.2822H216.629V69.7822V71.2822H185.175V69.7822ZM216.629 69.7822H218.129V158.276H216.629H215.129V69.7822H216.629ZM216.629 158.276L215.568 157.216L283.934 88.8495L284.995 89.9102L286.056 90.9708L217.69 159.337L216.629 158.276ZM284.995 89.9102L286.056 88.8495L354.422 157.216L353.361 158.276L352.301 159.337L283.934 90.9708L284.995 89.9102ZM353.361 158.276H351.861V69.7822H353.361H354.861V158.276H353.361ZM353.361 69.7822V68.2822H384.817V69.7822V71.2822H353.361V69.7822ZM384.817 69.7822L386.241 69.3085C387.069 71.7973 387.807 74.3264 388.453 76.8917L386.998 77.2578L385.543 77.6239C384.916 75.1308 384.199 72.6734 383.394 70.256L384.817 69.7822ZM386.998 77.2578L385.543 77.6238C376.756 42.6979 350.248 14.8106 316.135 4.08327L316.585 2.65234L317.035 1.22142C352.137 12.2598 379.41 40.9498 388.453 76.8918L386.998 77.2578ZM316.585 2.65234L317.035 1.22147C341.903 9.0439 362.841 25.7264 376.15 47.5641L374.869 48.3447L373.588 49.1253C360.651 27.8977 340.298 11.684 316.135 4.08322L316.585 2.65234ZM374.869 48.3447V49.8447H330.553V48.3447V46.8447H374.869V48.3447ZM330.553 48.3447H332.053V104.027H330.553H329.053V48.3447H330.553ZM330.553 104.027L329.492 105.088L283.935 59.5323L284.996 58.4717L286.057 57.411L331.613 102.967L330.553 104.027ZM284.996 58.4717L286.057 59.5323L240.504 105.088L239.443 104.027L238.383 102.967L283.935 57.4111L284.996 58.4717ZM239.443 104.027H237.943V48.3447H239.443H240.943V104.027H239.443ZM239.443 48.3447V49.8447H195.123V48.3447V46.8447H239.443V48.3447ZM195.123 48.3447L193.842 47.564C207.152 25.7268 228.091 9.04419 252.957 1.22148L253.407 2.65234L253.857 4.08321C229.696 11.6843 209.342 27.8981 196.404 49.1254L195.123 48.3447ZM253.407 2.65234L253.857 4.08325C245.595 6.68155 237.778 10.2852 230.552 14.7534L229.763 13.4775L228.974 12.2017C236.41 7.6041 244.454 3.89549 252.957 1.22144L253.407 2.65234ZM229.763 13.4775L228.974 12.2017C244.893 2.35846 263.593 -3.41704 283.622 -3.67078L283.641 -2.1709L283.66 -0.671021C264.191 -0.424377 246.021 5.18814 230.552 14.7533L229.763 13.4775ZM283.641 -2.1709L283.631 -3.67087L284.99 -3.67966L285 -2.17969L285.01 -0.679718L283.65 -0.670929L283.641 -2.1709ZM285 -2.17969V-3.67969C343.457 -3.67961 390.932 43.3393 391.671 101.622L390.171 101.641L388.671 101.66C387.953 45.0171 341.813 -0.679611 285 -0.679688V-2.17969ZM390.171 101.641L391.671 101.631L391.68 102.99L390.18 103L388.68 103.01L388.671 101.65L390.171 101.641ZM390.18 103H391.68C391.68 135.211 377.401 164.088 354.834 183.646L353.852 182.513L352.869 181.379C374.807 162.367 388.68 134.305 388.68 103H390.18ZM353.852 182.513L352.869 181.379C370.511 166.088 382.935 144.942 387.123 120.968L388.601 121.227L390.078 121.485C385.768 146.159 372.982 167.916 354.834 183.646L353.852 182.513ZM388.601 121.227L390.078 121.485C381.776 168.998 342.03 205.709 293.078 209.379L292.966 207.883L292.854 206.387C340.423 202.821 379.055 167.142 387.123 120.968L388.601 121.227ZM292.966 207.883L293.078 209.379C290.863 209.544 288.628 209.642 286.378 209.671L286.359 208.171L286.34 206.671C288.529 206.643 290.701 206.548 292.854 206.387L292.966 207.883ZM286.359 208.171L286.369 209.671L285.01 209.68L285 208.18L284.99 206.68L286.35 206.671L286.359 208.171ZM208.039 31.3076L206.942 30.285C207.021 30.2003 207.156 30.0588 207.214 29.9967L208.308 31.0234L209.401 32.0502C209.281 32.1781 209.235 32.2243 209.136 32.3303L208.039 31.3076ZM208.308 31.0234L209.401 32.0502C209.273 32.1866 209.162 32.3037 209.045 32.4295L207.946 31.4082L206.848 30.3869C206.97 30.2549 207.101 30.1168 207.214 29.9967L208.308 31.0234ZM207.946 31.4082L206.844 30.3912L206.936 30.2906L208.039 31.3076L209.142 32.3246L209.049 32.4252L207.946 31.4082ZM388.214 82.6885L386.742 82.9765C386.712 82.8252 386.688 82.7139 386.653 82.5386L388.124 82.2441L389.595 81.9497C389.619 82.0707 389.658 82.2551 389.686 82.4004L388.214 82.6885ZM388.124 82.2441L389.595 81.9495C389.63 82.1242 389.67 82.3201 389.707 82.5092L388.234 82.7959L386.762 83.0826C386.727 82.9034 386.692 82.7317 386.653 82.5387L388.124 82.2441ZM388.234 82.7959L386.761 83.0772L386.74 82.9698L388.214 82.6885L389.687 82.4072L389.708 82.5146L388.234 82.7959Z" fill="url(#paint2_linear_12569_91909)" mask="url(#path-4-inside-1_12569_91909)"/>
</g>
<circle opacity="0.08" cx="240" cy="717" r="625" fill="url(#paint3_linear_12569_91909)"/>
</g>
<defs>
<linearGradient id="paint0_linear_12569_91909" x1="160" y1="103" x2="319" y2="103" gradientUnits="userSpaceOnUse">
<stop stop-color="white" stop-opacity="0"/>
<stop offset="1" stop-color="white"/>
</linearGradient>
<linearGradient id="paint1_linear_12569_91909" x1="160" y1="103" x2="319" y2="103" gradientUnits="userSpaceOnUse">
<stop stop-color="white" stop-opacity="0"/>
<stop offset="1" stop-color="white"/>
</linearGradient>
<linearGradient id="paint2_linear_12569_91909" x1="301.5" y1="103" x2="160" y2="103" gradientUnits="userSpaceOnUse">
<stop stop-color="white"/>
<stop offset="1" stop-color="white" stop-opacity="0"/>
</linearGradient>
<linearGradient id="paint3_linear_12569_91909" x1="37.5" y1="125.5" x2="63.5" y2="175.5" gradientUnits="userSpaceOnUse">
<stop stop-color="white"/>
<stop offset="1" stop-color="white" stop-opacity="0"/>
</linearGradient>
<clipPath id="clip0_12569_91909">
<rect width="320" height="205" rx="20" fill="white"/>
</clipPath>
</defs>
</svg>
