<svg width="24" height="24" viewBox="0 0 24 24" fill="none" xmlns="http://www.w3.org/2000/svg">
    <g clip-path="url(#clip0_13199_56773)">
        <g clip-path="url(#clip1_13199_56773)">
            <path d="M17.6176 10.3466C17.8829 8.5734 16.5328 7.6202 14.6868 6.98431L15.2856 4.58234L13.8235 4.21796L13.2405 6.55663C12.8562 6.46085 12.4614 6.37049 12.0691 6.28096L12.6563 3.92688L11.195 3.5625L10.5958 5.96364C10.2776 5.89118 9.9653 5.81955 9.66214 5.74418L9.66381 5.73668L7.64745 5.23322L7.25851 6.79483C7.25851 6.79483 8.34331 7.04344 8.3204 7.05885C8.91257 7.20668 9.01959 7.59854 9.00168 7.9092L8.31957 10.6456C8.36038 10.656 8.41327 10.671 8.47157 10.6943C8.42284 10.6822 8.37079 10.6689 8.31707 10.656L7.36095 14.4892C7.28849 14.6691 7.10484 14.939 6.69091 14.8365C6.70549 14.8578 5.62818 14.5712 5.62818 14.5712L4.90234 16.2449L6.80501 16.7192C7.15898 16.8079 7.50587 16.9008 7.84734 16.9882L7.24226 19.4177L8.70269 19.782L9.30193 17.3784C9.70087 17.4867 10.0881 17.5866 10.4671 17.6807L9.86994 20.0731L11.332 20.4375L11.9371 18.0126C14.4303 18.4844 16.305 18.2941 17.0942 16.0392C17.7301 14.2235 17.0625 13.1762 15.7508 12.4933C16.7061 12.273 17.4256 11.6446 17.6176 10.3466ZM14.277 15.031C13.8252 16.8466 10.7682 15.8651 9.77708 15.619L10.58 12.4004C11.5711 12.6478 14.7493 13.1375 14.277 15.031ZM14.7293 10.3203C14.317 11.9719 11.7726 11.1328 10.9472 10.9271L11.6752 8.00789C12.5005 8.21361 15.1586 8.59756 14.7293 10.3203Z" fill="#D7E2F7"/>
        </g>
    </g>
    <defs>
        <clipPath id="clip0_13199_56773">
            <rect width="24" height="24" fill="white"/>
        </clipPath>
        <clipPath id="clip1_13199_56773">
            <rect width="18" height="18" fill="white" transform="translate(3 3)"/>
        </clipPath>
    </defs>
</svg>
