<svg width="22" height="22" viewBox="0 0 22 22" fill="none" xmlns="http://www.w3.org/2000/svg">
    <g clip-path="url(#clip0_13199_24560)">
        <path d="M11.118 17.24C9.55405 17.24 8.19121 16.7215 7.02955 15.6845C5.86788 14.6475 5.20205 13.3527 5.03205 11.8H6.42605C6.58471 12.9787 7.10888 13.9533 7.99855 14.724C8.88821 15.4947 9.92805 15.88 11.118 15.88C12.444 15.88 13.5689 15.4182 14.4925 14.4945C15.4162 13.5708 15.878 12.446 15.878 11.12C15.878 9.794 15.4162 8.66917 14.4925 7.7455C13.5689 6.82183 12.444 6.36 11.118 6.36C10.336 6.36 9.60505 6.54133 8.92505 6.904C8.24505 7.26667 7.67271 7.76533 7.20805 8.4H9.07805V9.76H4.99805V5.68H6.35805V7.278C6.93605 6.55267 7.64155 5.99167 8.47455 5.595C9.30755 5.19833 10.1887 5 11.118 5C11.968 5 12.7642 5.1615 13.5065 5.4845C14.2489 5.8075 14.8949 6.24383 15.4445 6.7935C15.9942 7.34317 16.4305 7.98917 16.7535 8.7315C17.0765 9.47383 17.238 10.27 17.238 11.12C17.238 11.97 17.0765 12.7662 16.7535 13.5085C16.4305 14.2508 15.9942 14.8968 15.4445 15.4465C14.8949 15.9962 14.2489 16.4325 13.5065 16.7555C12.7642 17.0785 11.968 17.24 11.118 17.24ZM13.022 13.976L10.438 11.392V7.72H11.798V10.848L13.974 13.024L13.022 13.976Z" fill="#D7E2F7"/>
    </g>
    <defs>
        <clipPath id="clip0_13199_24560">
            <rect width="21.76" height="21.76" fill="white"/>
        </clipPath>
    </defs>
</svg>
