<svg width="24" height="24" viewBox="0 0 24 24" fill="none" xmlns="http://www.w3.org/2000/svg">
    <g clip-path="url(#clip0_13199_56845)">
        <path fill-rule="evenodd" clip-rule="evenodd" d="M12 21C16.9706 21 21 16.9706 21 12C21 7.02944 16.9706 3 12 3C7.02944 3 3 7.02944 3 12C3 16.9706 7.02944 21 12 21ZM4.89988 7.88736C4.16271 9.14185 3.79412 10.5127 3.79412 12C3.79412 13.4808 4.15947 14.8517 4.89017 16.1126C5.62735 17.3672 6.62317 18.3629 7.87766 19.1001C9.1386 19.8373 10.5127 20.2059 12 20.2059C13.4808 20.2059 14.8485 19.8406 16.103 19.1098C17.3639 18.3727 18.3629 17.3769 19.1001 16.1224C19.8373 14.8614 20.2059 13.4873 20.2059 12C20.2059 10.5192 19.8373 9.15155 19.1001 7.89706C18.3694 6.63611 17.3736 5.63705 16.1126 4.89988C14.8582 4.16271 13.4873 3.79412 12 3.79412C10.5192 3.79412 9.1483 4.16271 7.88736 4.89988C6.63288 5.63058 5.63705 6.62641 4.89988 7.88736ZM10.904 10.8846C10.6065 11.182 10.4577 11.5538 10.4577 12C10.4577 12.4397 10.6065 12.8083 10.904 13.1058C11.2079 13.4032 11.5732 13.552 12 13.552C12.4333 13.552 12.7986 13.4032 13.0961 13.1058C13.4 12.8019 13.552 12.4333 13.552 12C13.552 11.5667 13.4032 11.1982 13.1058 10.8943C12.8083 10.5839 12.4397 10.4286 12 10.4286C11.5667 10.4286 11.2014 10.5806 10.904 10.8846ZM5.78254 15.5889C5.1359 14.4767 4.81258 13.2803 4.81258 12C4.81258 10.7326 5.1262 9.54925 5.75344 8.44995C6.38715 7.34418 7.26012 6.46151 8.37235 5.80194C9.48455 5.14236 10.6938 4.81258 12 4.81258C13.2933 4.81258 14.496 5.13913 15.6083 5.79224C16.727 6.44535 17.6031 7.32478 18.2368 8.43055C18.877 9.52985 19.1971 10.7197 19.1971 12C19.1971 13.2933 18.8706 14.4928 18.2175 15.5986C17.5708 16.7043 16.6946 17.5805 15.5889 18.2272C14.4831 18.8674 13.2868 19.1874 12 19.1874C10.7261 19.1874 9.53305 18.8641 8.42085 18.2175C7.30862 17.5708 6.42918 16.6946 5.78254 15.5889Z" fill="#D7E2F7"/>
    </g>
    <defs>
        <clipPath id="clip0_13199_56845">
            <rect width="24" height="24" fill="white"/>
        </clipPath>
    </defs>
</svg>
