<svg width="22" height="22" viewBox="0 0 22 22" fill="none" xmlns="http://www.w3.org/2000/svg">
    <g clip-path="url(#clip0_13199_15694)">
        <g clip-path="url(#clip1_13199_15694)">
            <path d="M16.5962 8.31289L19.4395 11.1561L16.6008 13.9948L13.7606 16.835L12.5212 15.5955L11.2833 14.3576L10.0438 15.5955L8.80592 16.835L5.96268 13.9917L3.11945 11.1485L5.95811 8.30984L8.7983 5.46966L10.0362 6.70757L11.2756 7.947L12.5151 6.70757L13.753 5.46966L16.5962 8.31289ZM9.85784 11.6668C10.1429 11.9519 10.3762 12.1928 10.3762 12.2004C10.3762 12.208 10.2374 12.3544 10.0682 12.5236L9.75874 12.8331L8.91721 11.9916L8.07415 11.1485L9.35779 9.86485L10.643 8.57968L9.72063 7.65734L8.7983 6.73501L6.59079 8.94251L4.38481 11.1485L6.59536 13.3591L8.80592 15.5696L11.0119 13.3636L13.2194 11.1561L12.6965 10.6332L12.1751 10.1118L12.4922 9.79472L12.8078 9.47915L13.6463 10.3176L14.4848 11.1561L13.1996 12.4413L11.9159 13.7249L12.8383 14.6473L13.7606 15.5696L15.9681 13.3621L18.1741 11.1561L15.9635 8.94556L13.753 6.73501L11.547 8.94099L9.3395 11.1485L9.85784 11.6668Z" fill="#D7E2F7"/>
        </g>
    </g>
    <defs>
        <clipPath id="clip0_13199_15694">
            <rect width="21.76" height="21.76" fill="white"/>
        </clipPath>
        <clipPath id="clip1_13199_15694">
            <rect width="16.32" height="16.32" fill="white" transform="matrix(-1 0 0 1 19.2793 2.95996)"/>
        </clipPath>
    </defs>
</svg>
