<svg width="24" height="24" viewBox="0 0 24 24" fill="none" xmlns="http://www.w3.org/2000/svg">
    <g clip-path="url(#clip0_13199_56893)">
        <g clip-path="url(#clip1_13199_56893)">
            <path d="M18.9446 9.90144C18.0891 9.20998 16.9991 8.94043 15.9385 9.1631C15.5869 9.23342 15.2295 9.36819 14.872 9.57329L12.6511 10.8566V7.60438C12.6511 7.42858 12.5808 7.26451 12.4577 7.14145C12.3347 7.01839 12.1648 6.94222 11.989 6.94222C11.8132 6.94222 11.6432 7.01253 11.5202 7.13559C11.3971 7.25865 11.3268 7.42858 11.3268 7.60438V10.8625L8.5082 9.23342C8.36171 9.14552 8.19177 9.12208 8.02183 9.1631C7.8519 9.20998 7.69954 9.32132 7.61751 9.46781C7.42999 9.77838 7.53547 10.1827 7.8519 10.3702L10.6763 11.9993L8.42616 13.2943C7.71712 13.6986 6.8733 13.6869 6.17012 13.2767C5.46694 12.8665 5.04503 12.134 5.04503 11.3195V9.29788C5.04503 8.48922 5.47866 7.73916 6.17598 7.32897L10.858 4.62171C11.5612 4.22324 12.4343 4.21738 13.1258 4.62171L17.3683 7.07699C17.5207 7.16489 17.7023 7.18833 17.8722 7.14145C18.0422 7.09457 18.1887 6.98909 18.2766 6.83088C18.4582 6.51445 18.3528 6.11012 18.0363 5.92846L13.7879 3.47904C12.6804 2.84032 11.3034 2.84032 10.2017 3.47904L5.51382 6.18629C4.4063 6.82502 3.7207 8.01457 3.7207 9.29202V11.3195C3.7207 12.4095 4.20121 13.4291 5.04503 14.1088C5.90057 14.8003 7.00222 15.064 8.05699 14.8296C8.08043 14.8237 8.61954 14.6831 8.88909 14.5483L8.97113 14.5014C9.01801 14.478 9.06489 14.4545 9.10591 14.4311L11.3268 13.1478V16.3942C11.3268 16.7575 11.6256 17.0505 11.989 17.0505C12.1648 17.0505 12.3288 16.9801 12.4519 16.8571C12.5749 16.734 12.6453 16.5641 12.6453 16.3942V13.1478L15.458 14.771C15.5576 14.8296 15.6631 14.8589 15.7744 14.8589H15.792C16.0323 14.8589 16.2491 14.73 16.3604 14.5307C16.4483 14.3842 16.4717 14.2026 16.4249 14.0385C16.378 13.8686 16.2666 13.7221 16.1143 13.6342L13.3016 12.011L15.5342 10.7277C16.2432 10.3175 17.0929 10.3175 17.8019 10.7277C18.511 11.1379 18.9387 11.8704 18.9387 12.6907V14.7124C18.9387 15.5269 18.5051 16.277 17.8078 16.6813L13.1199 19.3885C12.4226 19.787 11.5553 19.787 10.8463 19.3885L6.60961 16.9391C6.45725 16.8512 6.28146 16.8278 6.10566 16.8747C5.93573 16.9215 5.79509 17.027 5.70719 17.1794C5.6193 17.3317 5.59586 17.5075 5.64273 17.6775C5.68961 17.8474 5.79509 17.988 5.94745 18.0759L10.19 20.5254C10.7408 20.8418 11.3619 21 11.9831 21C12.6042 21 13.2254 20.8418 13.7821 20.5254L18.4641 17.824C19.5716 17.1852 20.2631 16.0015 20.2631 14.7241V12.6966C20.2631 11.6125 19.7884 10.5988 18.9505 9.91316L18.9446 9.90144Z" fill="#D7E2F7"/>
        </g>
    </g>
    <defs>
        <clipPath id="clip0_13199_56893">
            <rect width="24" height="24" fill="white"/>
        </clipPath>
        <clipPath id="clip1_13199_56893">
            <rect width="18" height="18" fill="white" transform="translate(3 3)"/>
        </clipPath>
    </defs>
</svg>
