<svg width="22" height="22" viewBox="0 0 22 22" fill="none" xmlns="http://www.w3.org/2000/svg">
    <g clip-path="url(#clip0_13199_61330)">
        <g clip-path="url(#clip1_13199_61330)">
            <path d="M4.59072 17.9986C5.82288 19.1084 14.089 14.1879 15.313 12.1153C15.9005 11.1197 15.2069 9.65911 14.0726 8.49223C15.3619 7.63543 16.4962 10.3037 17.5733 9.74071C18.0629 9.47959 18.3811 8.67174 18.1445 8.17399C17.7202 7.2927 16.3085 7.2927 15.3538 7.18662C16.031 7.02342 17.6549 6.32983 17.6875 5.35063C17.7202 4.59991 16.7654 3.74311 16.0147 3.83287C15.0274 3.94711 14.6683 5.36695 14.3338 6.28087C14.293 5.70151 14.1706 4.42855 13.5341 3.87367C12.6854 3.13111 11.6654 3.83287 11.641 4.73047C11.6083 5.81575 13.9421 6.41959 13.2077 7.72518C11.9674 6.77047 10.5067 6.24822 9.56832 6.79495C9.16848 7.0479 8.71152 7.5375 8.23824 8.17399C8.96448 8.94102 9.96816 9.8631 10.7597 10.3935C10.9229 10.5077 10.9718 10.7362 10.8494 10.8994C10.7352 11.0708 10.5067 11.1116 10.3435 10.9973C9.53568 10.4506 8.54832 9.54486 7.81392 8.78598C7.44672 9.33271 7.07136 9.95286 6.72048 10.6057C7.41408 11.3074 8.29536 12.0989 8.99712 12.5722C9.16032 12.6865 9.20112 12.9149 9.08688 13.0781C8.97264 13.2495 8.74416 13.2903 8.5728 13.1761C7.8792 12.7028 7.05504 11.9684 6.36144 11.2829C4.91712 14.1308 3.85632 17.3458 4.59072 17.9986Z" fill="#D7E2F7"/>
        </g>
    </g>
    <defs>
        <clipPath id="clip0_13199_61330">
            <rect width="21.76" height="21.76" fill="white"/>
        </clipPath>
        <clipPath id="clip1_13199_61330">
            <rect width="16.32" height="16.32" fill="white" transform="translate(2.95898 2.95996)"/>
        </clipPath>
    </defs>
</svg>
