<svg width="28" height="28" viewBox="0 0 28 28" fill="none" xmlns="http://www.w3.org/2000/svg">
<path d="M10.5479 15.0262C11.1418 15.0263 11.7109 15.2625 12.1309 15.6825C12.5508 16.1024 12.787 16.6716 12.7871 17.2655V21.7459C12.787 22.3398 12.5508 22.909 12.1309 23.3289C11.7109 23.7489 11.1417 23.9851 10.5479 23.9852H6.06836C5.47433 23.9852 4.90442 23.749 4.48438 23.3289C4.06446 22.909 3.82825 22.3398 3.82812 21.7459V17.2655C3.82823 16.6716 4.06447 16.1024 4.48438 15.6825C4.90442 15.2624 5.47433 15.0262 6.06836 15.0262H10.5479ZM21.749 15.0262C22.3431 15.0262 22.913 15.2624 23.333 15.6825C23.7529 16.1024 23.9892 16.6716 23.9893 17.2655V21.7459C23.9891 22.3398 23.7529 22.909 23.333 23.3289C22.913 23.749 22.3431 23.9852 21.749 23.9852H17.2695C16.6756 23.9851 16.1055 23.7489 15.6855 23.3289C15.2658 22.909 15.0304 22.3396 15.0303 21.7459V17.2655C15.0304 16.6718 15.2658 16.1024 15.6855 15.6825C16.1055 15.2625 16.6756 15.0263 17.2695 15.0262H21.749ZM10.5479 3.827C11.1417 3.82709 11.7109 4.06334 12.1309 4.48325C12.5509 4.90329 12.7871 5.4732 12.7871 6.06723V10.5467C12.787 11.1406 12.5508 11.7098 12.1309 12.1297C11.7109 12.5497 11.1418 12.7859 10.5479 12.786H6.06836C5.47433 12.786 4.90442 12.5498 4.48438 12.1297C4.06447 11.7098 3.82821 11.1406 3.82812 10.5467V6.06723C3.82813 5.4732 4.06433 4.90329 4.48438 4.48325C4.90442 4.06321 5.47433 3.827 6.06836 3.827H10.5479ZM19.5088 3.827C19.7828 3.82715 20.0471 3.92812 20.252 4.1102C20.4569 4.29247 20.588 4.54384 20.6201 4.81625L20.6279 4.94711V7.18637H22.8682C23.1535 7.18672 23.4282 7.29616 23.6357 7.49203C23.8433 7.68798 23.9676 7.95612 23.9844 8.24106C24.0011 8.52595 23.9087 8.80637 23.7256 9.02524C23.5424 9.24413 23.2825 9.38508 22.999 9.41879L22.8682 9.42661H20.6279V11.6668C20.6275 11.9521 20.5181 12.227 20.3223 12.4344C20.1264 12.6416 19.8589 12.7663 19.5742 12.7831C19.2893 12.7998 19.008 12.7075 18.7891 12.5243C18.5703 12.3411 18.4303 12.081 18.3965 11.7977L18.3887 11.6668V9.42661H16.1484C15.8631 9.42624 15.5884 9.31685 15.3809 9.12094C15.1734 8.92501 15.049 8.6568 15.0322 8.37192C15.0156 8.0871 15.1079 7.80653 15.291 7.58774C15.4742 7.36889 15.7342 7.22789 16.0176 7.19418L16.1484 7.18637H18.3887V4.94711C18.3887 4.6501 18.5068 4.36514 18.7168 4.15512C18.9268 3.9452 19.2119 3.827 19.5088 3.827Z" fill="#8C9FBB"/>
<path d="M10.5479 15.0262C11.1418 15.0263 11.7109 15.2625 12.1309 15.6825C12.5508 16.1024 12.787 16.6716 12.7871 17.2655V21.7459C12.787 22.3398 12.5508 22.909 12.1309 23.3289C11.7109 23.7489 11.1417 23.9851 10.5479 23.9852H6.06836C5.47433 23.9852 4.90442 23.749 4.48438 23.3289C4.06446 22.909 3.82825 22.3398 3.82812 21.7459V17.2655C3.82823 16.6716 4.06447 16.1024 4.48438 15.6825C4.90442 15.2624 5.47433 15.0262 6.06836 15.0262H10.5479ZM21.749 15.0262C22.3431 15.0262 22.913 15.2624 23.333 15.6825C23.7529 16.1024 23.9892 16.6716 23.9893 17.2655V21.7459C23.9891 22.3398 23.7529 22.909 23.333 23.3289C22.913 23.749 22.3431 23.9852 21.749 23.9852H17.2695C16.6756 23.9851 16.1055 23.7489 15.6855 23.3289C15.2658 22.909 15.0304 22.3396 15.0303 21.7459V17.2655C15.0304 16.6718 15.2658 16.1024 15.6855 15.6825C16.1055 15.2625 16.6756 15.0263 17.2695 15.0262H21.749ZM10.5479 3.827C11.1417 3.82709 11.7109 4.06334 12.1309 4.48325C12.5509 4.90329 12.7871 5.4732 12.7871 6.06723V10.5467C12.787 11.1406 12.5508 11.7098 12.1309 12.1297C11.7109 12.5497 11.1418 12.7859 10.5479 12.786H6.06836C5.47433 12.786 4.90442 12.5498 4.48438 12.1297C4.06447 11.7098 3.82821 11.1406 3.82812 10.5467V6.06723C3.82813 5.4732 4.06433 4.90329 4.48438 4.48325C4.90442 4.06321 5.47433 3.827 6.06836 3.827H10.5479ZM19.5088 3.827C19.7828 3.82715 20.0471 3.92812 20.252 4.1102C20.4569 4.29247 20.588 4.54384 20.6201 4.81625L20.6279 4.94711V7.18637H22.8682C23.1535 7.18672 23.4282 7.29616 23.6357 7.49203C23.8433 7.68798 23.9676 7.95612 23.9844 8.24106C24.0011 8.52595 23.9087 8.80637 23.7256 9.02524C23.5424 9.24413 23.2825 9.38508 22.999 9.41879L22.8682 9.42661H20.6279V11.6668C20.6275 11.9521 20.5181 12.227 20.3223 12.4344C20.1264 12.6416 19.8589 12.7663 19.5742 12.7831C19.2893 12.7998 19.008 12.7075 18.7891 12.5243C18.5703 12.3411 18.4303 12.081 18.3965 11.7977L18.3887 11.6668V9.42661H16.1484C15.8631 9.42624 15.5884 9.31685 15.3809 9.12094C15.1734 8.92501 15.049 8.6568 15.0322 8.37192C15.0156 8.0871 15.1079 7.80653 15.291 7.58774C15.4742 7.36889 15.7342 7.22789 16.0176 7.19418L16.1484 7.18637H18.3887V4.94711C18.3887 4.6501 18.5068 4.36514 18.7168 4.15512C18.9268 3.9452 19.2119 3.827 19.5088 3.827Z" fill="url(#paint0_linear_10793_51293)"/>
<path d="M10.5479 15.0262C11.1418 15.0263 11.7109 15.2625 12.1309 15.6825C12.5508 16.1024 12.787 16.6716 12.7871 17.2655V21.7459C12.787 22.3398 12.5508 22.909 12.1309 23.3289C11.7109 23.7489 11.1417 23.9851 10.5479 23.9852H6.06836C5.47433 23.9852 4.90442 23.749 4.48438 23.3289C4.06446 22.909 3.82825 22.3398 3.82812 21.7459V17.2655C3.82823 16.6716 4.06447 16.1024 4.48438 15.6825C4.90442 15.2624 5.47433 15.0262 6.06836 15.0262H10.5479ZM21.749 15.0262C22.3431 15.0262 22.913 15.2624 23.333 15.6825C23.7529 16.1024 23.9892 16.6716 23.9893 17.2655V21.7459C23.9891 22.3398 23.7529 22.909 23.333 23.3289C22.913 23.749 22.3431 23.9852 21.749 23.9852H17.2695C16.6756 23.9851 16.1055 23.7489 15.6855 23.3289C15.2658 22.909 15.0304 22.3396 15.0303 21.7459V17.2655C15.0304 16.6718 15.2658 16.1024 15.6855 15.6825C16.1055 15.2625 16.6756 15.0263 17.2695 15.0262H21.749ZM10.5479 3.827C11.1417 3.82709 11.7109 4.06334 12.1309 4.48325C12.5509 4.90329 12.7871 5.4732 12.7871 6.06723V10.5467C12.787 11.1406 12.5508 11.7098 12.1309 12.1297C11.7109 12.5497 11.1418 12.7859 10.5479 12.786H6.06836C5.47433 12.786 4.90442 12.5498 4.48438 12.1297C4.06447 11.7098 3.82821 11.1406 3.82812 10.5467V6.06723C3.82813 5.4732 4.06433 4.90329 4.48438 4.48325C4.90442 4.06321 5.47433 3.827 6.06836 3.827H10.5479ZM19.5088 3.827C19.7828 3.82715 20.0471 3.92812 20.252 4.1102C20.4569 4.29247 20.588 4.54384 20.6201 4.81625L20.6279 4.94711V7.18637H22.8682C23.1535 7.18672 23.4282 7.29616 23.6357 7.49203C23.8433 7.68798 23.9676 7.95612 23.9844 8.24106C24.0011 8.52595 23.9087 8.80637 23.7256 9.02524C23.5424 9.24413 23.2825 9.38508 22.999 9.41879L22.8682 9.42661H20.6279V11.6668C20.6275 11.9521 20.5181 12.227 20.3223 12.4344C20.1264 12.6416 19.8589 12.7663 19.5742 12.7831C19.2893 12.7998 19.008 12.7075 18.7891 12.5243C18.5703 12.3411 18.4303 12.081 18.3965 11.7977L18.3887 11.6668V9.42661H16.1484C15.8631 9.42624 15.5884 9.31685 15.3809 9.12094C15.1734 8.92501 15.049 8.6568 15.0322 8.37192C15.0156 8.0871 15.1079 7.80653 15.291 7.58774C15.4742 7.36889 15.7342 7.22789 16.0176 7.19418L16.1484 7.18637H18.3887V4.94711C18.3887 4.6501 18.5068 4.36514 18.7168 4.15512C18.9268 3.9452 19.2119 3.827 19.5088 3.827Z" fill="url(#paint1_linear_10793_51293)"/>
<path d="M10.5479 15.0262C11.1418 15.0263 11.7109 15.2625 12.1309 15.6825C12.5508 16.1024 12.787 16.6716 12.7871 17.2655V21.7459C12.787 22.3398 12.5508 22.909 12.1309 23.3289C11.7109 23.7489 11.1417 23.9851 10.5479 23.9852H6.06836C5.47433 23.9852 4.90442 23.749 4.48438 23.3289C4.06446 22.909 3.82825 22.3398 3.82812 21.7459V17.2655C3.82823 16.6716 4.06447 16.1024 4.48438 15.6825C4.90442 15.2624 5.47433 15.0262 6.06836 15.0262H10.5479ZM21.749 15.0262C22.3431 15.0262 22.913 15.2624 23.333 15.6825C23.7529 16.1024 23.9892 16.6716 23.9893 17.2655V21.7459C23.9891 22.3398 23.7529 22.909 23.333 23.3289C22.913 23.749 22.3431 23.9852 21.749 23.9852H17.2695C16.6756 23.9851 16.1055 23.7489 15.6855 23.3289C15.2658 22.909 15.0304 22.3396 15.0303 21.7459V17.2655C15.0304 16.6718 15.2658 16.1024 15.6855 15.6825C16.1055 15.2625 16.6756 15.0263 17.2695 15.0262H21.749ZM10.5479 3.827C11.1417 3.82709 11.7109 4.06334 12.1309 4.48325C12.5509 4.90329 12.7871 5.4732 12.7871 6.06723V10.5467C12.787 11.1406 12.5508 11.7098 12.1309 12.1297C11.7109 12.5497 11.1418 12.7859 10.5479 12.786H6.06836C5.47433 12.786 4.90442 12.5498 4.48438 12.1297C4.06447 11.7098 3.82821 11.1406 3.82812 10.5467V6.06723C3.82813 5.4732 4.06433 4.90329 4.48438 4.48325C4.90442 4.06321 5.47433 3.827 6.06836 3.827H10.5479ZM19.5088 3.827C19.7828 3.82715 20.0471 3.92812 20.252 4.1102C20.4569 4.29247 20.588 4.54384 20.6201 4.81625L20.6279 4.94711V7.18637H22.8682C23.1535 7.18672 23.4282 7.29616 23.6357 7.49203C23.8433 7.68798 23.9676 7.95612 23.9844 8.24106C24.0011 8.52595 23.9087 8.80637 23.7256 9.02524C23.5424 9.24413 23.2825 9.38508 22.999 9.41879L22.8682 9.42661H20.6279V11.6668C20.6275 11.9521 20.5181 12.227 20.3223 12.4344C20.1264 12.6416 19.8589 12.7663 19.5742 12.7831C19.2893 12.7998 19.008 12.7075 18.7891 12.5243C18.5703 12.3411 18.4303 12.081 18.3965 11.7977L18.3887 11.6668V9.42661H16.1484C15.8631 9.42624 15.5884 9.31685 15.3809 9.12094C15.1734 8.92501 15.049 8.6568 15.0322 8.37192C15.0156 8.0871 15.1079 7.80653 15.291 7.58774C15.4742 7.36889 15.7342 7.22789 16.0176 7.19418L16.1484 7.18637H18.3887V4.94711C18.3887 4.6501 18.5068 4.36514 18.7168 4.15512C18.9268 3.9452 19.2119 3.827 19.5088 3.827Z" fill="url(#paint2_linear_10793_51293)"/>
<path d="M10.5479 15.0262C11.1418 15.0263 11.7109 15.2625 12.1309 15.6825C12.5508 16.1024 12.787 16.6716 12.7871 17.2655V21.7459C12.787 22.3398 12.5508 22.909 12.1309 23.3289C11.7109 23.7489 11.1417 23.9851 10.5479 23.9852H6.06836C5.47433 23.9852 4.90442 23.749 4.48438 23.3289C4.06446 22.909 3.82825 22.3398 3.82812 21.7459V17.2655C3.82823 16.6716 4.06447 16.1024 4.48438 15.6825C4.90442 15.2624 5.47433 15.0262 6.06836 15.0262H10.5479ZM21.749 15.0262C22.3431 15.0262 22.913 15.2624 23.333 15.6825C23.7529 16.1024 23.9892 16.6716 23.9893 17.2655V21.7459C23.9891 22.3398 23.7529 22.909 23.333 23.3289C22.913 23.749 22.3431 23.9852 21.749 23.9852H17.2695C16.6756 23.9851 16.1055 23.7489 15.6855 23.3289C15.2658 22.909 15.0304 22.3396 15.0303 21.7459V17.2655C15.0304 16.6718 15.2658 16.1024 15.6855 15.6825C16.1055 15.2625 16.6756 15.0263 17.2695 15.0262H21.749ZM10.5479 3.827C11.1417 3.82709 11.7109 4.06334 12.1309 4.48325C12.5509 4.90329 12.7871 5.4732 12.7871 6.06723V10.5467C12.787 11.1406 12.5508 11.7098 12.1309 12.1297C11.7109 12.5497 11.1418 12.7859 10.5479 12.786H6.06836C5.47433 12.786 4.90442 12.5498 4.48438 12.1297C4.06447 11.7098 3.82821 11.1406 3.82812 10.5467V6.06723C3.82813 5.4732 4.06433 4.90329 4.48438 4.48325C4.90442 4.06321 5.47433 3.827 6.06836 3.827H10.5479ZM19.5088 3.827C19.7828 3.82715 20.0471 3.92812 20.252 4.1102C20.4569 4.29247 20.588 4.54384 20.6201 4.81625L20.6279 4.94711V7.18637H22.8682C23.1535 7.18672 23.4282 7.29616 23.6357 7.49203C23.8433 7.68798 23.9676 7.95612 23.9844 8.24106C24.0011 8.52595 23.9087 8.80637 23.7256 9.02524C23.5424 9.24413 23.2825 9.38508 22.999 9.41879L22.8682 9.42661H20.6279V11.6668C20.6275 11.9521 20.5181 12.227 20.3223 12.4344C20.1264 12.6416 19.8589 12.7663 19.5742 12.7831C19.2893 12.7998 19.008 12.7075 18.7891 12.5243C18.5703 12.3411 18.4303 12.081 18.3965 11.7977L18.3887 11.6668V9.42661H16.1484C15.8631 9.42624 15.5884 9.31685 15.3809 9.12094C15.1734 8.92501 15.049 8.6568 15.0322 8.37192C15.0156 8.0871 15.1079 7.80653 15.291 7.58774C15.4742 7.36889 15.7342 7.22789 16.0176 7.19418L16.1484 7.18637H18.3887V4.94711C18.3887 4.6501 18.5068 4.36514 18.7168 4.15512C18.9268 3.9452 19.2119 3.827 19.5088 3.827Z" fill="#91B0FF"/>
<defs>
<linearGradient id="paint0_linear_10793_51293" x1="13.9087" y1="3.827" x2="13.9087" y2="23.9852" gradientUnits="userSpaceOnUse">
<stop stop-color="#D7E2F7"/>
<stop offset="1" stop-color="#8C9FBB"/>
</linearGradient>
<linearGradient id="paint1_linear_10793_51293" x1="13.9087" y1="3.827" x2="13.9087" y2="23.9852" gradientUnits="userSpaceOnUse">
<stop stop-color="#D7E2F7"/>
<stop offset="1" stop-color="#8C9FBB"/>
</linearGradient>
<linearGradient id="paint2_linear_10793_51293" x1="13.9087" y1="3.827" x2="13.9087" y2="23.9852" gradientUnits="userSpaceOnUse">
<stop stop-color="#D7E2F7"/>
<stop offset="1" stop-color="#8C9FBB"/>
</linearGradient>
</defs>
</svg>
