<svg width="28" height="28" viewBox="0 0 28 28" fill="none" xmlns="http://www.w3.org/2000/svg">
<path d="M4.00312 2.70719C3.6544 2.71264 3.32209 2.85623 3.07912 3.10643C2.83616 3.35664 2.70238 3.69303 2.70715 4.04176V22.4738C2.70715 23.9129 3.90117 25.1069 5.34023 25.1069H23.7717C23.9462 25.1094 24.1194 25.0771 24.2813 25.0121C24.4432 24.947 24.5905 24.8504 24.7148 24.7279C24.839 24.6054 24.9377 24.4595 25.005 24.2985C25.0724 24.1375 25.107 23.9648 25.107 23.7903C25.107 23.6159 25.0724 23.4431 25.005 23.2822C24.9377 23.1212 24.839 22.9752 24.7148 22.8527C24.5905 22.7302 24.4432 22.6336 24.2813 22.5686C24.1194 22.5035 23.9462 22.4713 23.7717 22.4738H5.34023V4.04176C5.34264 3.86562 5.30968 3.69078 5.24331 3.52761C5.17693 3.36443 5.07849 3.21623 4.95381 3.09179C4.82913 2.96735 4.68075 2.86919 4.51745 2.80312C4.35415 2.73706 4.17925 2.70444 4.00312 2.70719ZM23.746 6.66205C23.404 6.67224 23.0794 6.81519 22.8409 7.06062L18.5056 11.396L15.4868 8.37719C15.2399 8.13038 14.9051 7.99173 14.556 7.99173C14.2069 7.99173 13.8721 8.13038 13.6252 8.37719L7.04247 14.96C6.91612 15.0814 6.81524 15.2267 6.74575 15.3875C6.67625 15.5483 6.63954 15.7213 6.63776 15.8965C6.63598 16.0716 6.66916 16.2454 6.73537 16.4075C6.80158 16.5697 6.89948 16.717 7.02333 16.8409C7.14719 16.9648 7.29452 17.0627 7.45669 17.1289C7.61885 17.1951 7.7926 17.2283 7.96775 17.2265C8.14291 17.2247 8.31595 17.188 8.47673 17.1185C8.63752 17.049 8.78282 16.9481 8.90414 16.8218L14.556 11.1698L17.5748 14.1886C17.8217 14.4354 18.1565 14.5741 18.5056 14.5741C18.8547 14.5741 19.1895 14.4354 19.4364 14.1886L24.7026 8.92233C24.8928 8.7374 25.0228 8.49931 25.0754 8.23927C25.128 7.97922 25.1008 7.70934 24.9974 7.465C24.894 7.22067 24.7192 7.01327 24.4959 6.86999C24.2726 6.72671 24.0112 6.65423 23.746 6.66205Z" fill="url(#paint0_linear_10793_51300)"/>
<path d="M4.00312 2.70719C3.6544 2.71264 3.32209 2.85623 3.07912 3.10643C2.83616 3.35664 2.70238 3.69303 2.70715 4.04176V22.4738C2.70715 23.9129 3.90117 25.1069 5.34023 25.1069H23.7717C23.9462 25.1094 24.1194 25.0771 24.2813 25.0121C24.4432 24.947 24.5905 24.8504 24.7148 24.7279C24.839 24.6054 24.9377 24.4595 25.005 24.2985C25.0724 24.1375 25.107 23.9648 25.107 23.7903C25.107 23.6159 25.0724 23.4431 25.005 23.2822C24.9377 23.1212 24.839 22.9752 24.7148 22.8527C24.5905 22.7302 24.4432 22.6336 24.2813 22.5686C24.1194 22.5035 23.9462 22.4713 23.7717 22.4738H5.34023V4.04176C5.34264 3.86562 5.30968 3.69078 5.24331 3.52761C5.17693 3.36443 5.07849 3.21623 4.95381 3.09179C4.82913 2.96735 4.68075 2.86919 4.51745 2.80312C4.35415 2.73706 4.17925 2.70444 4.00312 2.70719ZM23.746 6.66205C23.404 6.67224 23.0794 6.81519 22.8409 7.06062L18.5056 11.396L15.4868 8.37719C15.2399 8.13038 14.9051 7.99173 14.556 7.99173C14.2069 7.99173 13.8721 8.13038 13.6252 8.37719L7.04247 14.96C6.91612 15.0814 6.81524 15.2267 6.74575 15.3875C6.67625 15.5483 6.63954 15.7213 6.63776 15.8965C6.63598 16.0716 6.66916 16.2454 6.73537 16.4075C6.80158 16.5697 6.89948 16.717 7.02333 16.8409C7.14719 16.9648 7.29452 17.0627 7.45669 17.1289C7.61885 17.1951 7.7926 17.2283 7.96775 17.2265C8.14291 17.2247 8.31595 17.188 8.47673 17.1185C8.63752 17.049 8.78282 16.9481 8.90414 16.8218L14.556 11.1698L17.5748 14.1886C17.8217 14.4354 18.1565 14.5741 18.5056 14.5741C18.8547 14.5741 19.1895 14.4354 19.4364 14.1886L24.7026 8.92233C24.8928 8.7374 25.0228 8.49931 25.0754 8.23927C25.128 7.97922 25.1008 7.70934 24.9974 7.465C24.894 7.22067 24.7192 7.01327 24.4959 6.86999C24.2726 6.72671 24.0112 6.65423 23.746 6.66205Z" fill="#91B0FF"/>
<defs>
<linearGradient id="paint0_linear_10793_51300" x1="13.907" y1="2.70703" x2="13.907" y2="25.107" gradientUnits="userSpaceOnUse">
<stop stop-color="#D7E2F7"/>
<stop offset="1" stop-color="#8C9FBB"/>
</linearGradient>
</defs>
</svg>
