<svg width="24" height="24" viewBox="0 0 24 24" fill="none" xmlns="http://www.w3.org/2000/svg">
<path d="M4.32649 18.1659C5.37035 17.3914 6.50754 16.7797 7.73807 16.3309C8.96839 15.8822 10.2779 15.6579 11.6667 15.6579C13.0554 15.6579 14.3649 15.8822 15.5953 16.3309C16.8258 16.7797 17.963 17.3914 19.0068 18.1659C19.7703 17.3267 20.3752 16.3553 20.8216 15.2517C21.268 14.1481 21.4912 12.9531 21.4912 11.6667C21.4912 8.94444 20.5344 6.62646 18.6206 4.71272C16.7069 2.79898 14.3889 1.84211 11.6667 1.84211C8.94444 1.84211 6.62646 2.79898 4.71272 4.71272C2.79898 6.62646 1.84211 8.94444 1.84211 11.6667C1.84211 12.9531 2.06531 14.1481 2.51171 15.2517C2.95811 16.3553 3.56304 17.3267 4.32649 18.1659ZM11.6667 12.5877C10.5456 12.5877 9.60023 12.2027 8.83044 11.4327C8.06044 10.6629 7.67544 9.71751 7.67544 8.59649C7.67544 7.47547 8.06044 6.53006 8.83044 5.76026C9.60023 4.99026 10.5456 4.60526 11.6667 4.60526C12.7877 4.60526 13.7331 4.99026 14.5029 5.76026C15.2729 6.53006 15.6579 7.47547 15.6579 8.59649C15.6579 9.71751 15.2729 10.6629 14.5029 11.4327C13.7331 12.2027 12.7877 12.5877 11.6667 12.5877ZM11.6667 23.3333C10.0466 23.3333 8.5269 23.0287 7.10746 22.4193C5.68801 21.81 4.45329 20.9802 3.40329 19.93C2.35309 18.88 1.52332 17.6453 0.913991 16.2259C0.304664 14.8064 0 13.2867 0 11.6667C0 10.0466 0.304664 8.5269 0.913991 7.10746C1.52332 5.68801 2.35309 4.45329 3.40329 3.40329C4.45329 2.35308 5.68801 1.52332 7.10746 0.913992C8.5269 0.304664 10.0466 0 11.6667 0C13.2867 0 14.8064 0.304664 16.2259 0.913992C17.6453 1.52332 18.88 2.35308 19.93 3.40329C20.9802 4.45329 21.81 5.68801 22.4193 7.10746C23.0287 8.5269 23.3333 10.0466 23.3333 11.6667C23.3333 13.2867 23.0287 14.8064 22.4193 16.2259C21.81 17.6453 20.9802 18.88 19.93 19.93C18.88 20.9802 17.6453 21.81 16.2259 22.4193C14.8064 23.0287 13.2867 23.3333 11.6667 23.3333Z" fill="url(#paint0_linear_10793_51291)" fill-opacity="0.75"/>
<path d="M4.32649 18.1659C5.37035 17.3914 6.50754 16.7797 7.73807 16.3309C8.96839 15.8822 10.2779 15.6579 11.6667 15.6579C13.0554 15.6579 14.3649 15.8822 15.5953 16.3309C16.8258 16.7797 17.963 17.3914 19.0068 18.1659C19.7703 17.3267 20.3752 16.3553 20.8216 15.2517C21.268 14.1481 21.4912 12.9531 21.4912 11.6667C21.4912 8.94444 20.5344 6.62646 18.6206 4.71272C16.7069 2.79898 14.3889 1.84211 11.6667 1.84211C8.94444 1.84211 6.62646 2.79898 4.71272 4.71272C2.79898 6.62646 1.84211 8.94444 1.84211 11.6667C1.84211 12.9531 2.06531 14.1481 2.51171 15.2517C2.95811 16.3553 3.56304 17.3267 4.32649 18.1659ZM11.6667 12.5877C10.5456 12.5877 9.60023 12.2027 8.83044 11.4327C8.06044 10.6629 7.67544 9.71751 7.67544 8.59649C7.67544 7.47547 8.06044 6.53006 8.83044 5.76026C9.60023 4.99026 10.5456 4.60526 11.6667 4.60526C12.7877 4.60526 13.7331 4.99026 14.5029 5.76026C15.2729 6.53006 15.6579 7.47547 15.6579 8.59649C15.6579 9.71751 15.2729 10.6629 14.5029 11.4327C13.7331 12.2027 12.7877 12.5877 11.6667 12.5877ZM11.6667 23.3333C10.0466 23.3333 8.5269 23.0287 7.10746 22.4193C5.68801 21.81 4.45329 20.9802 3.40329 19.93C2.35309 18.88 1.52332 17.6453 0.913991 16.2259C0.304664 14.8064 0 13.2867 0 11.6667C0 10.0466 0.304664 8.5269 0.913991 7.10746C1.52332 5.68801 2.35309 4.45329 3.40329 3.40329C4.45329 2.35308 5.68801 1.52332 7.10746 0.913992C8.5269 0.304664 10.0466 0 11.6667 0C13.2867 0 14.8064 0.304664 16.2259 0.913992C17.6453 1.52332 18.88 2.35308 19.93 3.40329C20.9802 4.45329 21.81 5.68801 22.4193 7.10746C23.0287 8.5269 23.3333 10.0466 23.3333 11.6667C23.3333 13.2867 23.0287 14.8064 22.4193 16.2259C21.81 17.6453 20.9802 18.88 19.93 19.93C18.88 20.9802 17.6453 21.81 16.2259 22.4193C14.8064 23.0287 13.2867 23.3333 11.6667 23.3333Z" fill="#91B0FF"/>
<defs>
<linearGradient id="paint0_linear_10793_51291" x1="11.6667" y1="0" x2="11.6667" y2="23.3333" gradientUnits="userSpaceOnUse">
<stop stop-color="#D7E2F7"/>
<stop offset="1" stop-color="#8C9FBB"/>
</linearGradient>
</defs>
</svg>
