<svg width="16" height="16" viewBox="0 0 16 16" fill="none" xmlns="http://www.w3.org/2000/svg">
<path d="M7.91076 14.96C6.12754 14.96 4.5734 14.373 3.24834 13.1989C1.92328 12.0248 1.16049 10.553 0.959961 8.78354H2.22058C2.42852 10.2058 3.06861 11.3849 4.14084 12.3208C5.21294 13.2567 6.46958 13.7247 7.91076 13.7247C9.51664 13.7247 10.8789 13.1654 11.9975 12.0468C13.1161 10.9281 13.6755 9.56589 13.6755 7.96001C13.6755 6.35412 13.1161 4.99187 11.9975 3.87324C10.8789 2.75461 9.51664 2.1953 7.91076 2.1953C7.01119 2.1953 6.16817 2.39514 5.3817 2.79483C4.59509 3.19438 3.91774 3.74415 3.34964 4.44415H5.50358V5.67945H1.32252V1.49839H2.55781V3.44954C3.22611 2.66087 4.02644 2.04878 4.95881 1.61327C5.89105 1.17776 6.87503 0.960007 7.91076 0.960007C8.88211 0.960007 9.79224 1.14372 10.6412 1.51115C11.49 1.87859 12.23 2.37799 12.8614 3.00936C13.4928 3.64073 13.9922 4.38088 14.3596 5.2298C14.727 6.07859 14.9108 6.98865 14.9108 7.96001C14.9108 8.93136 14.727 9.84143 14.3596 10.6902C13.9922 11.5391 13.4928 12.2793 12.8614 12.9107C12.23 13.542 11.49 14.0414 10.6412 14.4089C9.79224 14.7763 8.88211 14.96 7.91076 14.96ZM10.383 11.2764L7.31699 8.21015V3.84236H8.55208V7.70986L11.2508 10.4084L10.383 11.2764Z" fill="#91B0FF"/>
</svg>
