<svg width="25" height="25" viewBox="0 0 25 25" fill="none" xmlns="http://www.w3.org/2000/svg">
<path d="M12.9909 0.355182L23.9088 11.2732C24.6731 12.0374 24.1321 13.3439 23.0512 13.3439H21.8381V20.6226C21.8381 21.5878 21.4546 22.5135 20.7721 23.196C20.0896 23.8785 19.164 24.2619 18.1987 24.2619H16.9856V15.7701C16.9857 14.8419 16.631 13.9486 15.9942 13.2733C15.3574 12.5979 14.4865 12.1913 13.5598 12.1369L13.3463 12.1308H10.9201C9.95489 12.1308 9.02921 12.5143 8.34671 13.1968C7.6642 13.8793 7.28077 14.8049 7.28077 15.7701V24.2619H6.06766C5.10245 24.2619 4.17678 23.8785 3.49427 23.196C2.81177 22.5135 2.42834 21.5878 2.42834 20.6226V13.3439H1.21523C0.135562 13.3439 -0.406697 12.0374 0.357561 11.2732L11.2755 0.355182C11.503 0.127759 11.8115 0 12.1332 0C12.4549 0 12.7634 0.127759 12.9909 0.355182ZM13.3463 14.557C13.6681 14.557 13.9766 14.6848 14.2041 14.9124C14.4316 15.1399 14.5594 15.4484 14.5594 15.7701V24.2619H9.70699V15.7701C9.70703 15.473 9.81612 15.1862 10.0136 14.9642C10.211 14.7422 10.4831 14.6003 10.7782 14.5655L10.9201 14.557H13.3463Z" fill="#D7E2F7"/>
<path d="M12.9909 0.355182L23.9088 11.2732C24.6731 12.0374 24.1321 13.3439 23.0512 13.3439H21.8381V20.6226C21.8381 21.5878 21.4546 22.5135 20.7721 23.196C20.0896 23.8785 19.164 24.2619 18.1987 24.2619H16.9856V15.7701C16.9857 14.8419 16.631 13.9486 15.9942 13.2733C15.3574 12.5979 14.4865 12.1913 13.5598 12.1369L13.3463 12.1308H10.9201C9.95489 12.1308 9.02921 12.5143 8.34671 13.1968C7.6642 13.8793 7.28077 14.8049 7.28077 15.7701V24.2619H6.06766C5.10245 24.2619 4.17678 23.8785 3.49427 23.196C2.81177 22.5135 2.42834 21.5878 2.42834 20.6226V13.3439H1.21523C0.135562 13.3439 -0.406697 12.0374 0.357561 11.2732L11.2755 0.355182C11.503 0.127759 11.8115 0 12.1332 0C12.4549 0 12.7634 0.127759 12.9909 0.355182ZM13.3463 14.557C13.6681 14.557 13.9766 14.6848 14.2041 14.9124C14.4316 15.1399 14.5594 15.4484 14.5594 15.7701V24.2619H9.70699V15.7701C9.70703 15.473 9.81612 15.1862 10.0136 14.9642C10.211 14.7422 10.4831 14.6003 10.7782 14.5655L10.9201 14.557H13.3463Z" fill="url(#paint0_linear_10793_51310)" fill-opacity="0.75"/>
<path d="M12.9909 0.355182L23.9088 11.2732C24.6731 12.0374 24.1321 13.3439 23.0512 13.3439H21.8381V20.6226C21.8381 21.5878 21.4546 22.5135 20.7721 23.196C20.0896 23.8785 19.164 24.2619 18.1987 24.2619H16.9856V15.7701C16.9857 14.8419 16.631 13.9486 15.9942 13.2733C15.3574 12.5979 14.4865 12.1913 13.5598 12.1369L13.3463 12.1308H10.9201C9.95489 12.1308 9.02921 12.5143 8.34671 13.1968C7.6642 13.8793 7.28077 14.8049 7.28077 15.7701V24.2619H6.06766C5.10245 24.2619 4.17678 23.8785 3.49427 23.196C2.81177 22.5135 2.42834 21.5878 2.42834 20.6226V13.3439H1.21523C0.135562 13.3439 -0.406697 12.0374 0.357561 11.2732L11.2755 0.355182C11.503 0.127759 11.8115 0 12.1332 0C12.4549 0 12.7634 0.127759 12.9909 0.355182ZM13.3463 14.557C13.6681 14.557 13.9766 14.6848 14.2041 14.9124C14.4316 15.1399 14.5594 15.4484 14.5594 15.7701V24.2619H9.70699V15.7701C9.70703 15.473 9.81612 15.1862 10.0136 14.9642C10.211 14.7422 10.4831 14.6003 10.7782 14.5655L10.9201 14.557H13.3463Z" fill="url(#paint1_linear_10793_51310)"/>
<path d="M12.9909 0.355182L23.9088 11.2732C24.6731 12.0374 24.1321 13.3439 23.0512 13.3439H21.8381V20.6226C21.8381 21.5878 21.4546 22.5135 20.7721 23.196C20.0896 23.8785 19.164 24.2619 18.1987 24.2619H16.9856V15.7701C16.9857 14.8419 16.631 13.9486 15.9942 13.2733C15.3574 12.5979 14.4865 12.1913 13.5598 12.1369L13.3463 12.1308H10.9201C9.95489 12.1308 9.02921 12.5143 8.34671 13.1968C7.6642 13.8793 7.28077 14.8049 7.28077 15.7701V24.2619H6.06766C5.10245 24.2619 4.17678 23.8785 3.49427 23.196C2.81177 22.5135 2.42834 21.5878 2.42834 20.6226V13.3439H1.21523C0.135562 13.3439 -0.406697 12.0374 0.357561 11.2732L11.2755 0.355182C11.503 0.127759 11.8115 0 12.1332 0C12.4549 0 12.7634 0.127759 12.9909 0.355182ZM13.3463 14.557C13.6681 14.557 13.9766 14.6848 14.2041 14.9124C14.4316 15.1399 14.5594 15.4484 14.5594 15.7701V24.2619H9.70699V15.7701C9.70703 15.473 9.81612 15.1862 10.0136 14.9642C10.211 14.7422 10.4831 14.6003 10.7782 14.5655L10.9201 14.557H13.3463Z" fill="#91B0FF"/>
<defs>
<linearGradient id="paint0_linear_10793_51310" x1="12.1333" y1="0" x2="12.1333" y2="24.2619" gradientUnits="userSpaceOnUse">
<stop stop-color="#D7E2F7"/>
<stop offset="1" stop-color="#8C9FBB"/>
</linearGradient>
<linearGradient id="paint1_linear_10793_51310" x1="12.1333" y1="0" x2="12.1333" y2="24.2619" gradientUnits="userSpaceOnUse">
<stop stop-color="#D7E2F7"/>
<stop offset="1" stop-color="#8C9FBB"/>
</linearGradient>
</defs>
</svg>
