<svg width="28" height="28" viewBox="0 0 28 28" fill="none" xmlns="http://www.w3.org/2000/svg">
<path d="M23.3842 4.095C25.0941 4.095 26.5345 5.53541 26.5345 7.24539V9.31473H26.5355V19.0345H26.5345V21.1048L26.5306 21.2649C26.4443 22.9038 25.0406 24.2552 23.3842 24.2552H4.48474L4.32458 24.2513C2.68574 24.1649 1.33435 22.7611 1.33435 21.1048V7.24539C1.33437 5.58904 2.68575 4.18529 4.32458 4.09891L4.48474 4.095H23.3842ZM4.48474 6.11063C3.88829 6.11082 3.35 6.64892 3.34998 7.24539V21.1048C3.34998 21.7013 3.88828 22.2384 4.48474 22.2386H23.3842C23.9807 22.2386 24.5179 21.7014 24.5179 21.1048V19.0345H18.7963L18.5443 19.0286C16.0462 18.9035 14.0668 16.9242 13.9418 14.4261L13.9359 14.1751C13.9359 11.5595 15.963 9.44988 18.5443 9.32059L18.7963 9.31473H24.5179V7.24539C24.5179 6.64881 23.9807 6.11063 23.3842 6.11063H4.48474ZM18.7963 11.3304C17.2097 11.3304 15.9515 12.5885 15.9515 14.1751C15.9518 15.7614 17.2098 17.0188 18.7963 17.0188H24.5179V11.3304H18.7963ZM18.7963 12.553C19.6907 12.5532 20.4153 13.2787 20.4154 14.1731C20.4154 15.0677 19.6908 15.793 18.7963 15.7932C17.9016 15.7932 17.1761 15.0678 17.1761 14.1731C17.1763 13.2785 17.9016 12.553 18.7963 12.553Z" fill="#91B0FF"/>
<path d="M23.3842 4.095C25.0941 4.095 26.5345 5.53541 26.5345 7.24539V9.31473H26.5355V19.0345H26.5345V21.1048L26.5306 21.2649C26.4443 22.9038 25.0406 24.2552 23.3842 24.2552H4.48474L4.32458 24.2513C2.68574 24.1649 1.33435 22.7611 1.33435 21.1048V7.24539C1.33437 5.58904 2.68575 4.18529 4.32458 4.09891L4.48474 4.095H23.3842ZM4.48474 6.11063C3.88829 6.11082 3.35 6.64892 3.34998 7.24539V21.1048C3.34998 21.7013 3.88828 22.2384 4.48474 22.2386H23.3842C23.9807 22.2386 24.5179 21.7014 24.5179 21.1048V19.0345H18.7963L18.5443 19.0286C16.0462 18.9035 14.0668 16.9242 13.9418 14.4261L13.9359 14.1751C13.9359 11.5595 15.963 9.44988 18.5443 9.32059L18.7963 9.31473H24.5179V7.24539C24.5179 6.64881 23.9807 6.11063 23.3842 6.11063H4.48474ZM18.7963 11.3304C17.2097 11.3304 15.9515 12.5885 15.9515 14.1751C15.9518 15.7614 17.2098 17.0188 18.7963 17.0188H24.5179V11.3304H18.7963ZM18.7963 12.553C19.6907 12.5532 20.4153 13.2787 20.4154 14.1731C20.4154 15.0677 19.6908 15.793 18.7963 15.7932C17.9016 15.7932 17.1761 15.0678 17.1761 14.1731C17.1763 13.2785 17.9016 12.553 18.7963 12.553Z" fill="url(#paint0_linear_10793_51278)"/>
<path d="M23.3842 4.095C25.0941 4.095 26.5345 5.53541 26.5345 7.24539V9.31473H26.5355V19.0345H26.5345V21.1048L26.5306 21.2649C26.4443 22.9038 25.0406 24.2552 23.3842 24.2552H4.48474L4.32458 24.2513C2.68574 24.1649 1.33435 22.7611 1.33435 21.1048V7.24539C1.33437 5.58904 2.68575 4.18529 4.32458 4.09891L4.48474 4.095H23.3842ZM4.48474 6.11063C3.88829 6.11082 3.35 6.64892 3.34998 7.24539V21.1048C3.34998 21.7013 3.88828 22.2384 4.48474 22.2386H23.3842C23.9807 22.2386 24.5179 21.7014 24.5179 21.1048V19.0345H18.7963L18.5443 19.0286C16.0462 18.9035 14.0668 16.9242 13.9418 14.4261L13.9359 14.1751C13.9359 11.5595 15.963 9.44988 18.5443 9.32059L18.7963 9.31473H24.5179V7.24539C24.5179 6.64881 23.9807 6.11063 23.3842 6.11063H4.48474ZM18.7963 11.3304C17.2097 11.3304 15.9515 12.5885 15.9515 14.1751C15.9518 15.7614 17.2098 17.0188 18.7963 17.0188H24.5179V11.3304H18.7963ZM18.7963 12.553C19.6907 12.5532 20.4153 13.2787 20.4154 14.1731C20.4154 15.0677 19.6908 15.793 18.7963 15.7932C17.9016 15.7932 17.1761 15.0678 17.1761 14.1731C17.1763 13.2785 17.9016 12.553 18.7963 12.553Z" fill="#91B0FF"/>
<defs>
<linearGradient id="paint0_linear_10793_51278" x1="13.9349" y1="4.095" x2="13.9349" y2="24.2552" gradientUnits="userSpaceOnUse">
<stop stop-color="#D7E2F7"/>
<stop offset="1" stop-color="#8C9FBB"/>
</linearGradient>
</defs>
</svg>
