<svg enable-background="new 0 0 512 512" viewBox="0 0 512 512" xmlns="http://www.w3.org/2000/svg"><path d="m473.655 88.276h-435.31c-21.178 0-38.345 17.167-38.345 38.345v73.471h512v-73.471c0-21.178-17.167-38.345-38.345-38.345z" fill="#82afff"/><path d="m0 385.379c0 21.177 17.167 38.345 38.345 38.345h435.31c21.177 0 38.345-17.167 38.345-38.345v-73.471h-512z" fill="#82afff"/><path d="m0 200.09h512v111.81h-512z" fill="#f5f5f5"/><path d="m300.138 253.793h-31.784c.593-.45 1.062-.893 1.486-1.311.776-.759 1.393-1.362 3.03-2.035 1.646-.69 2.508-.698 3.599-.715 1.314-.009 2.802-.034 5.233-1.035 2.427-1.009 3.487-2.044 4.423-2.957.776-.759 1.393-1.362 3.034-2.044 1.633-.681 2.492-.69 3.577-.698 1.311-.018 2.797-.034 5.228-1.043l-1.698-4.07c-1.633.681-2.492.69-3.577.698-1.311.018-2.797.034-5.224 1.035-2.426 1.009-3.487 2.044-4.423 2.957-.776.759-1.393 1.362-3.03 2.035-1.646.69-2.508.698-3.599.715-1.314.009-2.802.034-5.233 1.043-2.426 1-3.487 2.044-4.423 2.957-.764.743-1.395 1.338-2.967 2.002l24.98-24.977-3.121-3.121-22.485 22.482c.099-.735.126-1.389.132-1.982.013-1.095.022-1.949.703-3.595s1.284-2.259 2.044-3.034c.922-.94 1.961-2.008 2.969-4.439 1.004-2.431 1.022-3.914 1.035-5.224.013-1.086.022-1.949.698-3.586.681-1.638 1.28-2.25 2.039-3.026.918-.94 1.956-2.001 2.962-4.423l-4.077-1.689c-.681 1.637-1.28 2.25-2.039 3.026-.918.94-1.956 2.001-2.962 4.423-1.004 2.431-1.022 3.914-1.035 5.224-.013 1.086-.022 1.949-.698 3.586-.681 1.646-1.284 2.259-2.044 3.034-.922.94-1.961 2.008-2.969 4.439-1.004 2.431-1.022 3.923-1.038 5.233-.009 1.063-.039 1.922-.676 3.5v-35.317h-4.414v31.783c-.45-.589-.892-1.057-1.306-1.481-.762-.776-1.362-1.397-2.044-3.034-.681-1.646-.694-2.508-.707-3.604-.013-1.311-.03-2.802-1.038-5.233-1.004-2.422-2.044-3.482-2.962-4.423-.759-.776-1.357-1.388-2.039-3.026-.676-1.638-.685-2.5-.698-3.586-.013-1.311-.03-2.793-1.035-5.216l-4.077 1.689c.676 1.638.685 2.492.698 3.577.013 1.311.03 2.793 1.035 5.224 1.004 2.422 2.044 3.482 2.962 4.423.759.776 1.357 1.388 2.039 3.026.681 1.646.694 2.508.707 3.604.013 1.311.03 2.802 1.038 5.233 1.004 2.431 2.044 3.491 2.962 4.431.748.76 1.34 1.395 2.004 2.962l-24.982-24.979-3.121 3.121 24.943 24.94c-1.368-.621-2.028-1.192-2.745-1.888-.943-.922-2.008-1.965-4.448-2.974-2.431-1-3.918-1.026-5.233-1.043-1.095-.009-1.956-.025-3.616-.715-1.66-.681-2.28-1.284-3.069-2.051-.943-.914-2.013-1.956-4.457-2.974-2.44-1.009-3.932-1.026-5.25-1.043-1.099-.018-1.965-.034-3.625-.724l-1.689 4.086c2.44 1.009 3.932 1.026 5.25 1.043 1.099.018 1.965.034 3.625.724 1.664.681 2.284 1.284 3.073 2.051.943.922 2.013 1.956 4.452 2.966 2.44 1.017 3.932 1.035 5.246 1.052 1.095.018 1.956.025 3.608.715 1.651.681 2.268 1.284 3.048 2.044.401.394.849.809 1.391 1.233h-31.874v4.414h35.254c-1.393.53-2.264.597-3.262.612-1.314.009-2.802.034-5.237 1.035-2.435 1.009-3.505 2.051-4.448 2.966-.785.767-1.401 1.37-3.052 2.051-1.66.69-2.526.707-3.625.724-1.319.018-2.81.034-5.25 1.043-2.444 1.017-3.513 2.051-4.457 2.974-.789.767-1.409 1.37-3.069 2.051l1.689 4.086c2.44-1.017 3.509-2.051 4.452-2.974.789-.767 1.409-1.37 3.073-2.051 1.66-.69 2.526-.707 3.625-.724 1.319-.018 2.81-.034 5.255-1.052 2.431-1.009 3.496-2.044 4.439-2.966.78-.759 1.401-1.362 3.057-2.044 1.646-.69 2.513-.698 3.604-.715.558-.003 1.187-.04 1.868-.124l-22.549 22.546 3.121 3.121 24.931-24.927c-.614 1.362-1.181 2.019-1.879 2.738-.918.94-1.956 2.008-2.966 4.439-1.009 2.431-1.031 3.932-1.043 5.241-.018 1.095-.025 1.956-.712 3.612-.685 1.664-1.293 2.284-2.056 3.069-.922.94-1.961 2.017-2.974 4.457s-1.031 3.932-1.047 5.25c-.018 1.095-.03 1.965-.715 3.62l4.077 1.689c1.013-2.44 1.031-3.932 1.047-5.25.018-1.095.03-1.965.715-3.62.685-1.664 1.293-2.284 2.056-3.069.922-.94 1.961-2.017 2.974-4.457 1.009-2.431 1.031-3.932 1.043-5.241.018-1.095.025-1.956.712-3.612.681-1.655 1.284-2.268 2.047-3.052.392-.402.809-.85 1.233-1.395v31.878h4.414v-35.252c.526 1.39.593 2.259.608 3.261.013 1.311.034 2.802 1.043 5.233 1.004 2.44 2.047 3.509 2.966 4.448.762.785 1.366 1.405 2.051 3.06s.698 2.526.715 3.62c.018 1.319.034 2.81 1.047 5.25s2.051 3.518 2.974 4.457c.762.785 1.37 1.405 2.056 3.069l4.077-1.689c-1.013-2.44-2.051-3.518-2.974-4.457-.762-.785-1.371-1.405-2.056-3.069-.685-1.655-.698-2.526-.715-3.62-.018-1.319-.034-2.81-1.047-5.25-1.009-2.44-2.047-3.509-2.966-4.448-.762-.785-1.366-1.405-2.051-3.06-.685-1.646-.694-2.508-.712-3.604-.006-.557-.042-1.187-.126-1.868l22.552 22.55 3.121-3.121-22.482-22.478c.73.097 1.384.126 1.973.134 1.09.009 1.949.018 3.595.698 1.646.69 2.263 1.284 3.043 2.051.94.914 2.004 1.956 4.436 2.966 2.426 1 3.914 1.017 5.224 1.026 1.086.018 1.944.025 3.582.707 1.638.672 2.25 1.276 3.026 2.035.94.914 2.001 1.956 4.427 2.966l1.689-4.086c-1.638-.672-2.25-1.276-3.026-2.035-.94-.914-2.001-1.956-4.427-2.966-2.427-1-3.914-1.017-5.224-1.026-1.086-.018-1.944-.025-3.582-.707-1.646-.681-2.263-1.276-3.043-2.044-.94-.914-2.004-1.956-4.436-2.957-2.431-1.017-3.918-1.035-5.233-1.043-1.07-.018-1.937-.038-3.524-.681h35.349v-4.414z" fill="#f09146"/><circle cx="256" cy="256" fill="#ffe15a" r="22.07"/></svg>