<svg enable-background="new 0 0 512 512" viewBox="0 0 512 512" xmlns="http://www.w3.org/2000/svg"><path d="m473.655 88.275h-435.31c-21.178 0-38.345 17.167-38.345 38.345v258.76c0 21.177 17.167 38.345 38.345 38.345h435.31c21.177 0 38.345-17.167 38.345-38.345v-258.76c0-21.178-17.167-38.345-38.345-38.345z" fill="#41479b"/><path d="m8.828 255.999h15.334l81.77-53.574v53.574h44.138v-53.574l81.769 53.574h15.334c4.875 0 8.828-3.953 8.828-8.828v-7.002l-70.155-45.963h70.154v-44.138h-70.155l70.155-45.963v-7.002c0-4.876-3.953-8.828-8.828-8.828h-15.334l-81.77 53.574v-53.574h-44.138v53.574l-79.086-51.816c-9.234 2.9-16.954 9.203-21.711 17.434l65.023 42.601h-70.156v44.138h70.155l-70.155 45.963v7.002c0 4.875 3.951 8.828 8.828 8.828z" fill="#f5f5f5"/><g fill="#ff4b55"><path d="m256 158.896h-114.759v-70.621h-26.482v70.621h-114.759v26.482h114.759v70.621h26.482v-70.621h114.759z"/><path d="m8.227 102.901 72.662 47.167h16.214l-82.496-53.55c-2.369 1.87-4.51 4.013-6.38 6.383z"/><path d="m166.283 150.068 88.374-57.366c-1.536-2.599-4.246-4.427-7.485-4.427h-1.91l-95.193 61.793z"/><path d="m89.474 194.206-88.205 57.256c1.521 2.662 4.273 4.537 7.559 4.537h1.665l95.196-61.793z"/><path d="m255.86 247.865-82.666-53.658h-16.214l93.874 60.935c2.812-1.305 4.741-4.04 5.006-7.277z"/></g><g fill="#f5f5f5"><path d="m130.671 304.13 6.663 21.997 21.353-8.505c1.822-.726 3.478 1.352 2.366 2.966l-13.044 18.924 19.962 11.391c1.703.972 1.112 3.562-.844 3.699l-22.929 1.601 3.541 22.709c.302 1.938-2.092 3.091-3.418 1.646l-15.548-16.928-15.548 16.928c-1.326 1.444-3.72.291-3.418-1.646l3.541-22.709-22.929-1.601c-1.956-.137-2.548-2.727-.844-3.699l19.962-11.391-13.044-18.924c-1.112-1.614.544-3.692 2.366-2.966l21.353 8.505 6.663-21.997c.571-1.877 3.228-1.877 3.796 0z"/><path d="m393.279 147.729 3.255 10.745 10.43-4.154c.889-.354 1.699.66 1.155 1.449l-6.371 9.245 9.751 5.565c.832.474.543 1.74-.413 1.806l-11.2.782 1.729 11.093c.148.947-1.022 1.51-1.67.804l-7.595-8.269-7.595 8.269c-.648.705-1.817.142-1.67-.804l1.729-11.093-11.2-.782c-.956-.067-1.245-1.332-.413-1.806l9.751-5.565-6.371-9.245c-.544-.789.266-1.803 1.155-1.449l10.431 4.154 3.255-10.745c.281-.918 1.58-.918 1.857 0z"/><path d="m320.702 230.204 3.255 10.745 10.431-4.154c.889-.354 1.699.66 1.155 1.449l-6.371 9.245 9.751 5.565c.832.474.543 1.74-.413 1.806l-11.2.782 1.73 11.093c.148.947-1.022 1.51-1.67.804l-7.595-8.269-7.595 8.269c-.648.705-1.817.142-1.67-.804l1.73-11.093-11.2-.782c-.956-.067-1.245-1.332-.413-1.806l9.751-5.565-6.371-9.245c-.544-.789.266-1.803 1.155-1.449l10.431 4.154 3.255-10.745c.278-.917 1.576-.917 1.854 0z"/><path d="m461.943 194.893 3.255 10.745 10.431-4.154c.889-.354 1.699.66 1.155 1.449l-6.371 9.245 9.751 5.565c.832.474.543 1.74-.413 1.806l-11.2.782 1.73 11.093c.148.947-1.022 1.51-1.67.804l-7.595-8.269-7.595 8.269c-.648.705-1.817.142-1.669-.804l1.73-11.093-11.2-.782c-.956-.067-1.245-1.332-.413-1.806l9.751-5.565-6.371-9.245c-.544-.789.266-1.803 1.155-1.449l10.431 4.154 3.255-10.745c.277-.916 1.575-.916 1.853 0z"/><path d="m393.279 336.135 3.255 10.745 10.43-4.155c.889-.354 1.699.66 1.155 1.449l-6.371 9.245 9.751 5.565c.832.474.543 1.74-.413 1.806l-11.2.782 1.729 11.093c.148.947-1.022 1.51-1.67.804l-7.595-8.269-7.595 8.269c-.648.705-1.817.142-1.67-.804l1.729-11.093-11.2-.782c-.956-.066-1.245-1.332-.413-1.806l9.751-5.565-6.371-9.245c-.544-.789.266-1.803 1.155-1.449l10.431 4.155 3.255-10.745c.281-.916 1.58-.916 1.857 0z"/><path d="m418.461 249.512-2.613 7.836-8.259.064c-1.069.009-1.513 1.373-.652 2.008l6.644 4.907-2.492 7.875c-.322 1.02.839 1.863 1.708 1.241l6.72-4.803 6.72 4.803c.87.621 2.03-.222 1.708-1.241l-2.492-7.875 6.645-4.907c.861-.636.417-1.999-.652-2.008l-8.259-.064-2.613-7.836c-.34-1.014-1.775-1.014-2.113 0z"/></g></svg>