<svg enable-background="new 0 0 512 512" viewBox="0 0 512 512" xmlns="http://www.w3.org/2000/svg"><path d="m473.655 423.724h-435.31c-21.178 0-38.345-17.167-38.345-38.345v-258.758c0-21.177 17.167-38.345 38.345-38.345h435.31c21.177 0 38.345 17.167 38.345 38.345v258.759c0 21.177-17.167 38.344-38.345 38.344z" fill="#ff4b55"/><path d="m353.103 220.69h-61.793v-61.793c0-4.875-3.953-8.828-8.828-8.828h-52.966c-4.875 0-8.828 3.953-8.828 8.828v61.793h-61.793c-4.875 0-8.828 3.953-8.828 8.828v52.966c0 4.875 3.953 8.828 8.828 8.828h61.793v61.793c0 4.875 3.953 8.828 8.828 8.828h52.966c4.875 0 8.828-3.953 8.828-8.828v-61.795h61.793c4.875 0 8.828-3.953 8.828-8.828v-52.966c0-4.874-3.953-8.826-8.828-8.826z" fill="#f5f5f5"/></svg>