<svg enable-background="new 0 0 512 512" viewBox="0 0 512 512" xmlns="http://www.w3.org/2000/svg"><path d="m473.655 88.276h-314.758c4.875 0 8.828 3.953 8.828 8.828v150.069c0 4.875-3.953 8.828-8.828 8.828h353.103v-129.38c0-21.178-17.167-38.345-38.345-38.345z" fill="#f5f5f5"/><path d="m17.655 256h-8.827c-4.875 0-8.828-3.953-8.828-8.828v8.828 8.828 120.552c0 21.177 17.167 38.345 38.345 38.345h435.31c21.177 0 38.345-17.167 38.345-38.345v-129.38h-353.103z" fill="#ff4b55"/><path d="m8.828 256h8.828 141.241c4.875 0 8.828-3.953 8.828-8.828v-150.069c0-4.875-3.953-8.828-8.828-8.828h-120.552c-21.178.001-38.345 17.168-38.345 38.346v120.552c0 4.874 3.953 8.827 8.828 8.827z" fill="#41479b"/><path d="m87.262 134.487 8.416 25.234 26.6.206c3.444.026 4.872 4.422 2.101 6.467l-21.398 15.801 8.023 25.362c1.038 3.284-2.7 5.999-5.502 3.997l-21.64-15.467-21.641 15.468c-2.802 2.003-6.54-.714-5.502-3.997l8.023-25.362-21.398-15.801c-2.771-2.046-1.342-6.441 2.101-6.467l26.6-.206 8.416-25.234c1.09-3.268 5.712-3.268 6.801-.001z" fill="#f5f5f5"/></svg>