<svg enable-background="new 0 0 512 512" viewBox="0 0 512 512" xmlns="http://www.w3.org/2000/svg"><path d="m473.655 88.276h-435.31c-21.178 0-38.345 17.167-38.345 38.345v73.471h512v-73.471c0-21.178-17.167-38.345-38.345-38.345z" fill="#ff4b55"/><path d="m0 385.379c0 21.177 17.167 38.345 38.345 38.345h435.31c21.177 0 38.345-17.167 38.345-38.345v-73.471h-512z" fill="#464655"/><path d="m0 200.09h512v111.81h-512z" fill="#f5f5f5"/><path d="m284.186 238.57c0-4.377-4.289-7.469-8.441-6.084l-7.804 2.601-1.895-11.443c-1.133-6.827-6.983-11.782-13.906-11.782h-7.299l-7.634 9.396h10.109l-2.829 13.972-8.233-2.744c-4.153-1.385-8.441 1.707-8.441 6.084v47.475l11.363-11.363-5.354 16.061h-6.008v9.396h56.373v-9.396h-6.008l-5.354-16.061 11.363 11.363v-47.475zm-32.883 52.172h-7.574l5.208-13.909 2.366 3.021zm9.394 0v-10.888l2.366-3.021 5.208 13.909zm-4.697-17.029s-14.534-9.836-13.946-28.186c0 0 8.956-1.468 13.946-9.396 4.991 7.927 13.947 9.396 13.947 9.396.587 18.351-13.947 28.186-13.947 28.186z" fill="#f0c727"/></svg>