<svg enable-background="new 0 0 512 512" viewBox="0 0 512 512" xmlns="http://www.w3.org/2000/svg"><path d="m0 385.379c0 21.177 17.167 38.345 38.345 38.345h435.31c21.177 0 38.345-17.167 38.345-38.345v-32.276h-512z" fill="#c8414b"/><path d="m473.655 88.276h-435.31c-21.178 0-38.345 17.167-38.345 38.345v32.276h512v-32.276c0-21.178-17.167-38.345-38.345-38.345z" fill="#c8414b"/><path d="m0 158.9h512v194.21h-512z" fill="#ffd250"/><path d="m216.276 256 7.485-33.681c.69-3.102-1.671-6.044-4.849-6.044h-5.272c-3.177 0-5.537 2.943-4.849 6.044z" fill="#c8414b"/><path d="m207.45 238.34h17.655v75.03h-17.655z" fill="#f5f5f5"/><path d="m203.03 229.52h26.483v8.828h-26.483z" fill="#fab446"/><g fill="#c8414b"><path d="m185.38 256h44.14v8.828h-44.14z"/><path d="m229.517 291.31-26.483-8.827v-8.828l26.483 8.828z"/><path d="m83.862 256 7.485-33.681c.69-3.102-1.671-6.044-4.849-6.044h-5.272c-3.177 0-5.537 2.943-4.849 6.044z"/></g><path d="m114.759 229.517c-4.875 0-8.828 3.953-8.828 8.828v57.379c0 10.725 10.01 30.897 44.138 30.897s44.138-20.171 44.138-30.897v-57.379c0-4.875-3.953-8.828-8.828-8.828z" fill="#f5f5f5"/><path d="m150.069 273.655h-44.138v-35.31c0-4.875 3.953-8.828 8.828-8.828h35.31z" fill="#c8414b"/><path d="m150.069 273.655h44.138v22.069c0 12.189-9.88 22.069-22.069 22.069s-22.069-9.88-22.069-22.069z" fill="#c8414b"/><path d="m105.931 273.655h44.138v22.069c0 12.189-9.88 22.069-22.069 22.069s-22.069-9.88-22.069-22.069z" fill="#fab446"/><path d="m141.241 313.28v-39.625h-8.828v43.693c3.284-.666 6.251-2.12 8.828-4.068z" fill="#c8414b"/><path d="m123.586 317.348v-43.693h-8.828v39.625c2.578 1.948 5.545 3.402 8.828 4.068z" fill="#c8414b"/><path d="m114.76 256h26.483v8.828h-26.483z" fill="#ffb441"/><path d="m114.76 238.34h26.483v8.828h-26.483z" fill="#fab446"/><path d="m119.17 243.59h17.655v15.992h-17.655z" fill="#fab446"/><path d="m75.03 238.34h17.655v75.03h-17.655z" fill="#f5f5f5"/><path d="m70.62 308.97h26.483v8.828h-26.483z" fill="#fab446"/><path d="m70.62 229.52h26.483v8.828h-26.483z" fill="#fab446"/><path d="m66.21 317.79h35.31v8.828h-35.31z" fill="#5064aa"/><path d="m207.45 308.97h26.483v8.828h-26.483z" fill="#fab446"/><path d="m198.62 317.79h35.31v8.828h-35.31z" fill="#5064aa"/><path d="m123.59 220.69h52.966v8.828h-52.966z" fill="#fab446"/><path d="m145.66 194.21h8.828v26.483h-8.828z" fill="#ffb441"/><g fill="#f5f5f5"><path d="m141.241 207.448c-7.302 0-13.241-5.94-13.241-13.241 0-7.302 5.94-13.241 13.241-13.241 7.302 0 13.241 5.94 13.241 13.241.001 7.301-5.939 13.241-13.241 13.241zm0-17.655c-2.435 0-4.414 1.978-4.414 4.414 0 2.435 1.978 4.414 4.414 4.414s4.414-1.978 4.414-4.414c0-2.435-1.978-4.414-4.414-4.414z"/><path d="m158.897 207.448c-7.302 0-13.241-5.94-13.241-13.241 0-7.302 5.94-13.241 13.241-13.241 7.302 0 13.241 5.94 13.241 13.241s-5.94 13.241-13.241 13.241zm0-17.655c-2.435 0-4.414 1.978-4.414 4.414 0 2.435 1.978 4.414 4.414 4.414 2.435 0 4.414-1.978 4.414-4.414-.001-2.435-1.979-4.414-4.414-4.414z"/><path d="m176.552 216.276c-7.302 0-13.241-5.94-13.241-13.241 0-7.302 5.94-13.241 13.241-13.241 7.302 0 13.241 5.94 13.241 13.241s-5.94 13.241-13.241 13.241zm0-17.655c-2.435 0-4.414 1.978-4.414 4.414 0 2.435 1.978 4.414 4.414 4.414 2.435 0 4.414-1.978 4.414-4.414s-1.979-4.414-4.414-4.414z"/><path d="m123.586 216.276c-7.302 0-13.241-5.94-13.241-13.241 0-7.302 5.94-13.241 13.241-13.241 7.302 0 13.241 5.94 13.241 13.241.001 7.301-5.939 13.241-13.241 13.241zm0-17.655c-2.435 0-4.414 1.978-4.414 4.414 0 2.435 1.978 4.414 4.414 4.414s4.414-1.979 4.414-4.415c0-2.435-1.978-4.413-4.414-4.413z"/></g><path d="m176.552 291.31v4.414c0 2.434-1.98 4.414-4.414 4.414s-4.414-1.98-4.414-4.414v-4.414zm8.827-8.827h-26.483v13.241c0 7.302 5.94 13.241 13.241 13.241 7.302 0 13.241-5.94 13.241-13.241v-13.241z" fill="#fab446"/><path d="m172.138 264.828c-4.875 0-8.828-3.953-8.828-8.828v-8.828c0-4.875 3.953-8.828 8.828-8.828s8.828 3.953 8.828 8.828v8.828c0 4.875-3.953 8.828-8.828 8.828z" fill="#ffa0d2"/><circle cx="150.07" cy="273.65" fill="#5064aa" r="13.241"/><path d="m145.66 176.55h8.828v26.483h-8.828z" fill="#fab446"/><path d="m123.586 220.69-8.828-8.828 5.171-5.171c7.993-7.993 18.835-12.484 30.14-12.484s22.146 4.491 30.14 12.484l5.171 5.171-8.828 8.828z" fill="#c8414b"/><circle cx="150.07" cy="211.86" fill="#ffd250" r="4.414"/><circle cx="132.41" cy="211.86" fill="#ffd250" r="4.414"/><circle cx="167.72" cy="211.86" fill="#ffd250" r="4.414"/><path d="m70.62 256h44.14v8.828h-44.14z" fill="#c8414b"/><path d="m70.621 291.31 26.482-8.827v-8.828l-26.482 8.828z" fill="#c8414b"/></svg>