<svg enable-background="new 0 0 512 512" viewBox="0 0 512 512" xmlns="http://www.w3.org/2000/svg"><path d="m473.655 88.275h-435.31c-21.178 0-38.345 17.167-38.345 38.345v258.76c0 21.177 17.167 38.345 38.345 38.345h435.31c21.177 0 38.345-17.167 38.345-38.345v-258.76c0-21.178-17.167-38.345-38.345-38.345z" fill="#41479b"/><g fill="#ffe15a"><path d="m259.59 126.684 3.54 10.613 11.187.087c1.449.011 2.049 1.859.884 2.72l-9 6.646 3.374 10.666c.437 1.38-1.135 2.524-2.314 1.681l-9.101-6.506-9.101 6.506c-1.178.842-2.751-.3-2.314-1.681l3.374-10.666-9-6.646c-1.165-.861-.565-2.709.884-2.72l11.187-.087 3.54-10.613c.457-1.374 2.402-1.374 2.86 0z"/><path d="m259.59 354.547 3.54 10.613 11.187.087c1.449.011 2.049 1.859.884 2.72l-9 6.646 3.374 10.666c.437 1.38-1.135 2.524-2.314 1.681l-9.101-6.506-9.101 6.506c-1.178.842-2.751-.3-2.314-1.681l3.374-10.666-9-6.646c-1.165-.861-.565-2.709.884-2.72l11.187-.087 3.54-10.613c.457-1.375 2.402-1.375 2.86 0z"/><path d="m373.521 240.615 3.54 10.613 11.187.087c1.449.011 2.049 1.859.884 2.72l-9 6.646 3.374 10.666c.437 1.38-1.135 2.524-2.314 1.681l-9.101-6.506-9.101 6.506c-1.178.842-2.751-.3-2.314-1.681l3.374-10.666-9-6.646c-1.165-.861-.565-2.709.884-2.72l11.187-.087 3.54-10.613c.457-1.373 2.402-1.373 2.86 0z"/><path d="m145.658 240.615 3.54 10.613 11.187.087c1.449.011 2.049 1.859.884 2.72l-9 6.646 3.374 10.666c.437 1.38-1.135 2.524-2.314 1.681l-9.101-6.506-9.101 6.506c-1.178.842-2.751-.3-2.314-1.681l3.374-10.666-9-6.646c-1.165-.861-.565-2.709.884-2.72l11.187-.087 3.54-10.613c.458-1.373 2.403-1.373 2.86 0z"/><path d="m162.762 181.119 3.54 10.613 11.187.087c1.449.011 2.049 1.859.884 2.72l-9 6.646 3.374 10.666c.437 1.38-1.135 2.524-2.314 1.681l-9.101-6.506-9.101 6.506c-1.178.842-2.751-.3-2.314-1.681l3.374-10.666-9-6.646c-1.165-.861-.565-2.709.884-2.72l11.187-.087 3.54-10.613c.458-1.374 2.401-1.374 2.86 0z"/><path d="m360.096 295.05 3.54 10.613 11.187.087c1.449.011 2.049 1.859.884 2.72l-9 6.646 3.374 10.666c.437 1.382-1.135 2.524-2.314 1.681l-9.101-6.506-9.101 6.506c-1.178.842-2.751-.3-2.314-1.681l3.374-10.666-9-6.646c-1.165-.861-.565-2.709.884-2.72l11.187-.087 3.54-10.613c.458-1.373 2.402-1.373 2.86 0z"/><path d="m318.395 139.417 3.54 10.613 11.187.087c1.449.011 2.049 1.859.884 2.72l-9 6.646 3.374 10.666c.437 1.38-1.135 2.524-2.314 1.681l-9.101-6.506-9.102 6.506c-1.178.842-2.751-.3-2.314-1.681l3.374-10.666-9-6.646c-1.165-.861-.565-2.709.884-2.72l11.187-.087 3.54-10.613c.458-1.373 2.401-1.373 2.861 0z"/><path d="m204.463 336.753 3.54 10.613 11.187.087c1.449.011 2.049 1.859.884 2.72l-9 6.646 3.374 10.666c.437 1.38-1.135 2.524-2.314 1.681l-9.101-6.506-9.101 6.506c-1.178.842-2.751-.3-2.314-1.681l3.374-10.666-9-6.646c-1.165-.861-.565-2.709.884-2.72l11.187-.086 3.54-10.613c.458-1.376 2.403-1.376 2.86-.001z"/><path d="m357.236 181.119-3.54 10.613-11.187.087c-1.449.011-2.049 1.859-.884 2.72l9 6.646-3.374 10.666c-.437 1.38 1.135 2.524 2.314 1.681l9.101-6.506 9.101 6.506c1.178.842 2.751-.3 2.314-1.681l-3.374-10.666 9-6.646c1.165-.861.565-2.709-.884-2.72l-11.187-.087-3.54-10.613c-.458-1.374-2.402-1.374-2.86 0z"/><path d="m159.902 295.05-3.54 10.613-11.187.087c-1.449.011-2.049 1.859-.884 2.72l9 6.646-3.374 10.666c-.437 1.382 1.135 2.524 2.314 1.681l9.101-6.506 9.101 6.506c1.178.842 2.751-.3 2.314-1.681l-3.374-10.666 9-6.646c1.165-.861.565-2.709-.884-2.72l-11.187-.087-3.54-10.613c-.459-1.373-2.402-1.373-2.86 0z"/><path d="m201.603 139.417-3.54 10.613-11.187.087c-1.449.011-2.049 1.859-.884 2.72l9 6.646-3.374 10.666c-.437 1.38 1.135 2.524 2.314 1.681l9.101-6.506 9.101 6.506c1.178.842 2.751-.3 2.314-1.681l-3.374-10.666 9-6.646c1.165-.861.565-2.709-.884-2.72l-11.187-.087-3.54-10.613c-.459-1.373-2.402-1.373-2.86 0z"/><path d="m315.534 336.753-3.54 10.613-11.187.087c-1.449.011-2.049 1.859-.884 2.72l9 6.646-3.374 10.666c-.437 1.38 1.135 2.524 2.314 1.681l9.101-6.506 9.101 6.506c1.178.842 2.751-.3 2.314-1.681l-3.374-10.666 9-6.646c1.165-.861.565-2.709-.884-2.72l-11.187-.086-3.54-10.613c-.459-1.376-2.402-1.376-2.86-.001z"/></g></svg>