<svg enable-background="new 0 0 512 512" viewBox="0 0 512 512" xmlns="http://www.w3.org/2000/svg"><path d="m473.655 88.276h-435.31c-21.178 0-38.345 17.167-38.345 38.345v258.759c0 21.177 17.167 38.345 38.345 38.345h435.31c21.177 0 38.345-17.167 38.345-38.345v-258.759c0-21.178-17.167-38.345-38.345-38.345z" fill="#41479b"/><path d="m511.469 120.282c-3.022-18.159-18.797-32.007-37.814-32.007h-9.977l-163.54 107.147v-107.146h-88.276v107.147l-163.54-107.147h-9.977c-19.017 0-34.792 13.847-37.814 32.007l139.778 91.58h-140.309v88.276h140.309l-139.778 91.578c3.022 18.159 18.797 32.007 37.814 32.007h9.977l163.54-107.147v107.147h88.276v-107.147l163.54 107.147h9.977c19.017 0 34.792-13.847 37.814-32.007l-139.778-91.58h140.309v-88.276h-140.309z" fill="#f5f5f5"/><g fill="#ff4b55"><path d="m282.483 88.276h-52.966v141.241h-229.517v52.966h229.517v141.241h52.966v-141.241h229.517v-52.966h-229.517z"/><path d="m24.793 421.252 186.583-121.114h-32.428l-169.724 110.172c4.153 4.847 9.49 8.645 15.569 10.942z"/><path d="m346.388 300.138h-32.428l180.716 117.305c5.057-3.321 9.277-7.807 12.287-13.075z"/><path d="m4.049 109.475 157.73 102.387h32.428l-178.732-116.02c-4.799 3.572-8.726 8.242-11.426 13.633z"/><path d="m332.566 211.862 170.035-110.375c-4.199-4.831-9.578-8.607-15.699-10.86l-186.764 121.235z"/></g></svg>