<svg enable-background="new 0 0 512 512" viewBox="0 0 512 512" xmlns="http://www.w3.org/2000/svg"><path d="m473.655 88.276h-435.31c-21.178 0-38.345 17.167-38.345 38.345v73.471h512v-73.471c0-21.178-17.167-38.345-38.345-38.345z" fill="#ff4b55"/><path d="m0 385.379c0 21.177 17.167 38.345 38.345 38.345h435.31c21.177 0 38.345-17.167 38.345-38.345v-73.471h-512z" fill="#73af00"/><path d="m0 200.09h512v111.81h-512z" fill="#ffe15a"/><path d="m259.722 213.909 9.213 27.623 29.118.226c3.769.03 5.333 4.84 2.301 7.08l-23.424 17.298 8.783 27.763c1.137 3.594-2.955 6.568-6.023 4.375l-23.69-16.934-23.69 16.932c-3.066 2.193-7.159-.781-6.023-4.375l8.783-27.763-23.424-17.298c-3.032-2.239-1.47-7.05 2.301-7.08l29.118-.226 9.213-27.623c1.193-3.575 6.251-3.575 7.444.002z" fill="#464655"/></svg>