<svg enable-background="new 0 0 512 512" viewBox="0 0 512 512" xmlns="http://www.w3.org/2000/svg"><path d="m38.345 88.273c-21.178 0-38.345 17.167-38.345 38.345v258.759c0 21.177 17.167 38.345 38.345 38.345h132.322v-335.449z" fill="#82afff"/><path d="m170.67 88.277h170.67v335.45h-170.67z" fill="#f5f5f5"/><path d="m473.655 88.273h-132.322v335.448h132.322c21.177 0 38.345-17.167 38.345-38.345v-258.758c0-21.178-17.167-38.345-38.345-38.345z" fill="#82afff"/><path d="m253.773 212.107-5.062 2.531 4.657 1.923z" fill="#ffc855"/><g fill="#73af00"><path d="m256 305.649c-28.135 0-51.023-22.89-51.023-51.023 0-17.478 8.797-33.548 23.531-42.989l1.31 2.046c-14.034 8.993-22.412 24.299-22.412 40.943 0 26.795 21.8 48.594 48.594 48.594v2.43z"/><path d="m226.798 308.833c1.944.396 4.943-.117 8.023-1.551 3.081-1.436 5.402-3.402 6.349-5.145-1.944-.396-4.943.116-8.023 1.551-3.079 1.436-5.401 3.402-6.349 5.145z"/><path d="m241.172 302.137c.396-1.944-.117-4.943-1.551-8.023-1.436-3.081-3.402-5.402-5.145-6.349-.396 1.944.116 4.943 1.551 8.023 1.435 3.079 3.401 5.401 5.145 6.349z"/><path d="m216.633 302.593c1.865.678 4.907.61 8.164-.356 3.258-.968 5.843-2.572 7.036-4.157-1.865-.678-4.907-.61-8.164.356-3.257.967-5.843 2.572-7.036 4.157z"/><path d="m231.834 298.079c.678-1.865.61-4.907-.356-8.164-.968-3.257-2.572-5.843-4.157-7.036-.678 1.865-.61 4.907.356 8.164.967 3.258 2.572 5.843 4.157 7.036z"/><path d="m207.231 294.085c1.713 1.001 4.717 1.482 8.096 1.116s6.21-1.481 7.668-2.826c-1.713-1.001-4.717-1.482-8.096-1.116-3.379.367-6.21 1.481-7.668 2.826z"/><path d="m222.995 292.374c1.001-1.713 1.482-4.717 1.116-8.096s-1.481-6.21-2.826-7.668c-1.001 1.713-1.482 4.717-1.116 8.096.367 3.379 1.481 6.211 2.826 7.668z"/><path d="m199.458 282.336c1.508 1.289 4.38 2.294 7.77 2.531s6.375-.358 8.047-1.423c-1.508-1.289-4.38-2.294-7.77-2.531s-6.374.357-8.047 1.423z"/><path d="m215.276 283.444c1.289-1.508 2.294-4.381 2.531-7.77.237-3.39-.358-6.375-1.423-8.047-1.289 1.508-2.294 4.38-2.531 7.77-.238 3.391.357 6.374 1.423 8.047z"/><path d="m194.908 269.394c1.204 1.577 3.799 3.164 7.064 4.109 3.264.946 6.306.991 8.167.301-1.204-1.577-3.799-3.164-7.064-4.109s-6.307-.991-8.167-.301z"/><path d="m210.138 273.804c1.577-1.204 3.164-3.799 4.109-7.064.946-3.264.991-6.306.301-8.167-1.577 1.204-3.164 3.799-4.109 7.064s-.99 6.307-.301 8.167z"/><path d="m192.982 254.283c.758 1.834 2.858 4.034 5.77 5.788 2.912 1.753 5.839 2.58 7.815 2.391-.758-1.834-2.858-4.034-5.77-5.788-2.912-1.753-5.84-2.579-7.815-2.391z"/><path d="m206.567 262.462c1.834-.758 4.034-2.858 5.788-5.77 1.753-2.912 2.58-5.839 2.391-7.815-1.833.758-4.034 2.858-5.788 5.77-1.752 2.912-2.58 5.84-2.391 7.815z"/><path d="m194.807 240.016c.356 1.952 1.949 4.544 4.428 6.869s5.17 3.746 7.139 3.977c-.356-1.952-1.949-4.544-4.428-6.869s-5.168-3.747-7.139-3.977z"/><path d="m206.375 250.862c1.952-.356 4.544-1.949 6.869-4.428 2.324-2.479 3.746-5.17 3.977-7.139-1.952.356-4.544 1.949-6.869 4.428-2.324 2.478-3.747 5.168-3.977 7.139z"/><path d="m201.975 224.579c-.408 1.941.085 4.943 1.501 8.033s3.368 5.423 5.105 6.382c.408-1.941-.085-4.943-1.501-8.033-1.416-3.091-3.368-5.425-5.105-6.382z"/><path d="m208.58 238.994c1.941.408 4.943-.085 8.033-1.501s5.423-3.368 6.382-5.105c-1.941-.408-4.943.085-8.033 1.501s-5.424 3.368-6.382 5.105z"/><path d="m210.546 213.146c-.915 1.76-1.247 4.785-.714 8.141.533 3.357 1.785 6.13 3.201 7.519.915-1.76 1.247-4.785.714-8.141-.533-3.357-1.786-6.129-3.201-7.519z"/><path d="m213.034 228.806c1.76.915 4.785 1.247 8.141.714 3.357-.533 6.13-1.785 7.519-3.201-1.76-.915-4.785-1.247-8.141-.714-3.357.533-6.13 1.785-7.519 3.201z"/><path d="m218.951 205.189c-1.164 1.607-1.938 4.548-1.906 7.947.033 3.399.864 6.326 2.059 7.908 1.164-1.607 1.938-4.548 1.905-7.947-.032-3.398-.862-6.326-2.058-7.908z"/><path d="m219.105 221.044c1.607 1.164 4.548 1.938 7.947 1.906 3.399-.033 6.325-.864 7.908-2.059-1.607-1.164-4.548-1.938-7.947-1.906-3.398.033-6.324.864-7.908 2.059z"/><path d="m223.183 216.875c1.977.16 4.894-.707 7.78-2.502 2.887-1.794 4.956-4.024 5.688-5.868-1.977-.16-4.894.707-7.78 2.502-2.886 1.794-4.955 4.024-5.688 5.868z"/><path d="m256 305.649v-2.43c26.794 0 48.594-21.799 48.594-48.594 0-16.644-8.378-31.951-22.411-40.943l1.31-2.046c14.734 9.441 23.531 25.512 23.531 42.989-.001 28.134-22.889 51.024-51.024 51.024z"/><path d="m285.202 308.833c-1.944.396-4.943-.117-8.023-1.551-3.081-1.436-5.402-3.402-6.349-5.145 1.944-.396 4.943.116 8.023 1.551s5.401 3.402 6.349 5.145z"/><path d="m270.828 302.137c-.396-1.944.117-4.943 1.551-8.023 1.436-3.081 3.402-5.402 5.145-6.349.396 1.944-.116 4.943-1.551 8.023-1.435 3.079-3.401 5.401-5.145 6.349z"/><path d="m295.367 302.593c-1.865.678-4.907.61-8.164-.356-3.258-.968-5.843-2.572-7.036-4.157 1.865-.678 4.907-.61 8.164.356 3.257.967 5.843 2.572 7.036 4.157z"/><path d="m280.165 298.079c-.677-1.865-.61-4.907.356-8.164.968-3.257 2.572-5.843 4.157-7.036.678 1.865.61 4.907-.356 8.164-.966 3.258-2.571 5.843-4.157 7.036z"/><path d="m304.769 294.085c-1.713 1.001-4.717 1.482-8.096 1.116s-6.21-1.481-7.668-2.826c1.713-1.001 4.717-1.482 8.096-1.116 3.379.367 6.21 1.481 7.668 2.826z"/><path d="m289.005 292.374c-1.001-1.713-1.482-4.717-1.116-8.096s1.481-6.21 2.826-7.668c1.001 1.713 1.482 4.717 1.116 8.096-.367 3.379-1.481 6.211-2.826 7.668z"/><path d="m312.542 282.336c-1.508 1.289-4.381 2.294-7.77 2.531-3.391.237-6.375-.358-8.047-1.423 1.508-1.289 4.38-2.294 7.77-2.531s6.374.357 8.047 1.423z"/><path d="m296.724 283.444c-1.289-1.508-2.294-4.381-2.531-7.77-.237-3.39.358-6.375 1.423-8.047 1.289 1.508 2.294 4.38 2.531 7.77.238 3.391-.357 6.374-1.423 8.047z"/><path d="m317.092 269.394c-1.204 1.577-3.799 3.164-7.064 4.109-3.264.946-6.306.991-8.167.301 1.204-1.577 3.799-3.164 7.064-4.109s6.307-.991 8.167-.301z"/><path d="m301.862 273.804c-1.577-1.204-3.164-3.799-4.109-7.064-.946-3.264-.991-6.306-.301-8.167 1.577 1.204 3.164 3.799 4.109 7.064s.99 6.307.301 8.167z"/><path d="m319.018 254.283c-.758 1.834-2.858 4.034-5.77 5.788-2.912 1.753-5.839 2.58-7.815 2.391.758-1.834 2.858-4.034 5.77-5.788 2.912-1.753 5.84-2.579 7.815-2.391z"/><path d="m305.433 262.462c-1.834-.758-4.034-2.858-5.788-5.77-1.753-2.912-2.58-5.839-2.391-7.815 1.833.758 4.034 2.858 5.788 5.77 1.752 2.912 2.58 5.84 2.391 7.815z"/><path d="m317.193 240.016c-.356 1.952-1.949 4.544-4.428 6.869s-5.17 3.746-7.139 3.977c.356-1.952 1.949-4.544 4.428-6.869s5.168-3.747 7.139-3.977z"/><path d="m305.625 250.862c-1.952-.356-4.544-1.949-6.869-4.428s-3.746-5.17-3.977-7.139c1.952.356 4.544 1.949 6.869 4.428 2.324 2.478 3.747 5.168 3.977 7.139z"/><path d="m310.026 224.579c.408 1.941-.085 4.943-1.501 8.033s-3.368 5.423-5.105 6.382c-.408-1.941.085-4.943 1.501-8.033 1.415-3.091 3.367-5.425 5.105-6.382z"/><path d="m303.42 238.994c-1.941.408-4.943-.085-8.033-1.501s-5.423-3.368-6.382-5.105c1.941-.408 4.943.085 8.033 1.501s5.424 3.368 6.382 5.105z"/><path d="m301.454 213.146c.915 1.76 1.247 4.785.714 8.141-.533 3.357-1.785 6.13-3.201 7.519-.915-1.76-1.247-4.785-.714-8.141s1.786-6.129 3.201-7.519z"/><path d="m298.966 228.806c-1.76.915-4.785 1.247-8.141.714-3.357-.533-6.13-1.785-7.519-3.201 1.76-.915 4.785-1.247 8.141-.714 3.357.533 6.13 1.785 7.519 3.201z"/><path d="m293.049 205.189c1.164 1.607 1.938 4.548 1.905 7.947s-.864 6.326-2.059 7.908c-1.164-1.607-1.938-4.548-1.905-7.947.033-3.398.863-6.326 2.059-7.908z"/><path d="m292.895 221.044c-1.607 1.164-4.548 1.938-7.947 1.906-3.399-.033-6.325-.864-7.908-2.059 1.607-1.164 4.548-1.938 7.947-1.906 3.398.033 6.324.864 7.908 2.059z"/><path d="m288.817 216.875c-1.977.16-4.894-.707-7.78-2.502s-4.956-4.024-5.688-5.868c1.977-.16 4.894.707 7.78 2.502 2.886 1.794 4.955 4.024 5.688 5.868z"/></g><path d="m228.146 294.348-8.844 8.844-4.361-8.723 13.084-13.084 4.361 4.361-1.26 3.779c-.606 1.819-1.626 3.469-2.98 4.823z" fill="#966446"/><path d="m275.997 229.053-47.972 47.972c-1.204 1.204-1.204 3.157 0 4.361l2.18 2.18 8.723-8.723 34.889-39.251 4.361-4.361z" fill="#b9b9b9"/><path d="m239.83 269.58c-.578.578-.904 1.363-.904 2.18v3.084l34.889-39.251z" fill="#966446"/><path d="m278.177 231.233-2.18-2.18-2.181 2.18 2.181 2.182 2.18 2.18 23.987-28.347z" fill="#a0a0a0"/><path d="m286.284 294.348 8.844 8.844 4.361-8.723-13.084-13.084-4.361 4.361 1.26 3.779c.606 1.819 1.626 3.469 2.98 4.823z" fill="#966446"/><path d="m238.433 229.053 47.972 47.972c1.204 1.204 1.204 3.157 0 4.361l-2.18 2.18-8.723-8.723-34.889-39.251-4.361-4.361z" fill="#b9b9b9"/><path d="m274.6 269.58c.578.578.904 1.363.904 2.18v3.084l-34.889-39.251z" fill="#966446"/><path d="m236.253 231.233 2.18-2.18 2.181 2.18-2.181 2.182-2.18 2.18-23.987-28.347z" fill="#a0a0a0"/><path d="m239.315 292.534 2.167 1.976c7.906-8.668 21.741-23.837 43.673-43.529.001.001-18.169 11.216-45.84 41.553z" fill="#b9b9b9"/><path d="m233.184 301.431c-.778-.71-.833-1.916-.124-2.694l4.644-5.092c.71-.778 1.916-.833 2.694-.124.778.71.833 1.916.124 2.694l-4.644 5.092c-.71.779-1.916.834-2.694.124z" fill="#ffe15a"/><path d="m237.556 290.93-1.258.561c-1.119.557-4.063 2.222-4.57 4.595-.242 1.124.099 2.219.972 3.255.083-.214.196-.422.361-.601l.585-.641c-.396-.574-.605-1.138-.486-1.704.318-1.484 2.298-2.809 3.542-3.466l5.564 5.075 1.384-1.517z" fill="#ffc855"/><path d="m275.093 294.933-2.167 1.976c-7.906-8.668-21.741-23.837-43.673-43.529-.001.001 18.169 11.216 45.84 41.553z" fill="#b9b9b9"/><path d="m281.224 303.832c.778-.71.833-1.916.124-2.694l-4.644-5.092c-.71-.778-1.916-.833-2.694-.124-.778.71-.833 1.916-.124 2.694l4.644 5.092c.71.778 1.916.833 2.694.124z" fill="#ffe15a"/><path d="m276.852 293.329 1.258.561c1.119.557 4.063 2.222 4.57 4.595.242 1.124-.099 2.219-.972 3.255-.083-.214-.196-.421-.361-.601l-.585-.641c.396-.574.605-1.138.486-1.704-.318-1.484-2.298-2.809-3.542-3.466l-5.564 5.075-1.384-1.517z" fill="#ffc855"/><path d="m258.161 214.683c.17-.422.268-.879.268-1.362 0-2.013-1.632-3.645-3.645-3.645s-3.645 1.632-3.645 3.645c0 1.199.587 2.254 1.482 2.919-1.318 10.585 9.119 11.394 13.096 12.874 6.035 2.246 13.603 6.787 13.127 19.484-.462 12.342-8.267 24.251-8.267 24.251l6.479-8.808c-2.369 10.02-7.901 22.784-21.057 37.963 0 0 8.995-8.799 16.501-20.146-5.523 12.993-11.642 25.005-11.642 25.005s10.833-14.072 19.59-38.419c10.617-29.517-11.716-47.251-22.287-53.761z" fill="#69b469"/><path d="m239 258.267h9.719v4.86h-9.719z" fill="#f4e08f"/><circle cx="239" cy="263.127" fill="#ecd077" r="4.86"/><circle cx="239" cy="231.547" fill="#ecd077" r="4.86"/><path d="m268.148 236.403c2.684 0 4.86-2.176 4.86-4.86s-2.176-4.86-4.86-4.86h-29.156c2.684 0 4.86 2.176 4.86 4.86s-2.176 4.86-4.86 4.86-4.86-2.176-4.86-4.86c0 8.157 6.826 18.019 9.027 26.727 0 0 .692 2.176.692 4.86s-2.176 4.86-4.86 4.86h29.156c2.684 0 4.86-2.176 4.86-4.86 0-8.157-6.826-18.019-9.027-26.727z" fill="#fcf0a8"/><path d="m243.852 231.545c0 2.684-2.176 4.86-4.86 4.86h29.156c2.684 0 4.86-2.176 4.86-4.86z" fill="#f4e08f"/><path d="m243.852 263.13c0 2.684-2.176 4.86-4.86 4.86h29.156c2.684 0 4.86-2.176 4.86-4.86z" fill="#f4e08f"/></svg>