<?xml version="1.0" encoding="UTF-8" standalone="no"?><svg xmlns="http://www.w3.org/2000/svg" width="675" height="450" version="1.0" viewBox="0 0 540 360"><rect width="540" height="360" y="-.00001526" fill="#FFF" ry="0"/><path fill="#008c00" d="M109.2 179.19c32.607 0 62.92-9.7677 88.212-26.516l27.33 27.33-27.33 27.33c-25.292-16.749-55.605-26.516-88.212-26.516m159.98 159.98c0-32.607-9.7677-62.92-26.516-88.212l27.33-27.33 27.33 27.33c-16.749 25.292-26.516 55.605-26.516 88.212m160-159.98c-32.607-.00002-62.92 9.7676-88.212 26.516l-27.33-27.33 27.33-27.33c25.292 16.749 55.605 26.517 88.212 26.517m-159.99-159.99c0 32.607 9.7677 62.92 26.516 88.212l-27.33 27.33-27.33-27.33c16.749-25.292 26.516-55.605 26.516-88.212"/><path fill="#008c00" fill-rule="evenodd" d="m270.00165288 134.746268 45.25483392 45.25483392-45.25483392 45.25483392-45.25483392-45.25483392z"/><rect width="304" height="59.2" x="166.2" y="-93.24" fill="none" stroke="#000" stroke-width="9.6" ry="29.6" transform="rotate(45)"/><rect width="304" height="59.2" x="-215.64" y="-347.8" fill="none" stroke="#000" stroke-width="9.6" ry="29.6" transform="rotate(135)"/><path fill="none" stroke="#000" stroke-width="5.06898069" d="M1159.2-.36775a81.294 87.797 0 0 1 81.3-87.797" transform="matrix(1.96817 0 0 1.82238 -2010.7958 341.4741)"/><path fill="none" stroke="#000" stroke-width="5.06898069" d="M1240.5 87.43a81.294 87.797 0 0 1-81.3-87.798" transform="matrix(1.96817 0 0 1.82238 -2010.796 19.866208)"/><path fill="none" stroke="#000" stroke-width="5.06898069" d="M1240.5-88.165a81.294 87.797 0 0 1 81.294 87.797" transform="matrix(1.96817 0 0 1.82238 -2332.404 341.47416)"/><path fill="none" stroke="#000" stroke-width="5.06898069" d="M1321.8-.36774a81.294 87.797 0 0 1-81.3 87.798" transform="matrix(1.96817 0 0 1.82238 -2332.404 19.866159)"/></svg>