<svg height="450" viewBox="0 0 540 360" width="675" xmlns="http://www.w3.org/2000/svg"><path d="m0-.000015h540v360h-540z" fill="#fff"/><path d="m109.2 179.19c32.607 0 62.92-9.7677 88.212-26.516l27.33 27.33-27.33 27.33c-25.292-16.749-55.605-26.516-88.212-26.516m159.98 159.98c0-32.607-9.7677-62.92-26.516-88.212l27.33-27.33 27.33 27.33c-16.749 25.292-26.516 55.605-26.516 88.212m160-159.98c-32.607-.00002-62.92 9.7676-88.212 26.516l-27.33-27.33 27.33-27.33c25.292 16.749 55.605 26.517 88.212 26.517m-159.99-159.99c0 32.607 9.7677 62.92 26.516 88.212l-27.33 27.33-27.33-27.33c16.749-25.292 26.516-55.605 26.516-88.212" fill="#008c00"/><path d="m270.00165288 134.746268 45.25483392 45.25483392-45.25483392 45.25483392-45.25483392-45.25483392z" fill="#008c00" fill-rule="evenodd"/><g fill="none" stroke="#000"><rect height="59.2" ry="29.6" stroke-width="9.6" transform="matrix(.70710678 .70710678 -.70710678 .70710678 0 0)" width="304" x="166.2" y="-93.24"/><rect height="59.2" ry="29.6" stroke-width="9.6" transform="matrix(-.70710678 .70710678 -.70710678 -.70710678 0 0)" width="304" x="-215.64" y="-347.8"/><g stroke-width="5.068981"><path d="m1159.2-.36775a81.294 87.797 0 0 1 81.3-87.797" transform="matrix(1.96817 0 0 1.82238 -2010.7958 341.4741)"/><path d="m1240.5 87.43a81.294 87.797 0 0 1 -81.3-87.798" transform="matrix(1.96817 0 0 1.82238 -2010.796 19.866208)"/><path d="m1240.5-88.165a81.294 87.797 0 0 1 81.294 87.797" transform="matrix(1.96817 0 0 1.82238 -2332.404 341.47416)"/><path d="m1321.8-.36774a81.294 87.797 0 0 1 -81.3 87.798" transform="matrix(1.96817 0 0 1.82238 -2332.404 19.866159)"/></g></g></svg>