<svg fill="none" height="800" viewBox="0 -4 28 28" width="800" xmlns="http://www.w3.org/2000/svg" xmlns:xlink="http://www.w3.org/1999/xlink"><clipPath id="a"><rect height="20" rx="2" width="28"/></clipPath><mask id="b" height="20" maskUnits="userSpaceOnUse" width="28" x="0" y="0"><rect fill="#fff" height="19.5" rx="1.75" stroke="#fff" stroke-width=".5" width="27.5" x=".25" y=".25"/></mask><mask id="c" fill="#fff"><path clip-rule="evenodd" d="m12.6535 8.52115c-.4015.36579-.6535.8929-.6535 1.47885 0 1.1046.8954 2 2 2 1.1046 0 2-.8954 2-2 0-.57489-.2426-1.09314-.6309-1.45797" fill="#fff" fill-rule="evenodd"/></mask><g clip-path="url(#a)"><rect fill="#fff" height="19.5" rx="1.75" stroke="#f5f5f5" stroke-width=".5" width="27.5" x=".25" y=".25"/><g mask="url(#b)"><g clip-rule="evenodd" fill-rule="evenodd"><path d="m0 6.66667h28v-6.66667h-28z" fill="#38bb56"/><path d="m0 20h28v-6.6667h-28z" fill="#de1b27"/><path d="m1.66665 5.33334c-.1841 0-.33334.14924-.33334.33334v.66666c0 .1841.14924.33334.33334.33334h.66666c.1841 0 .33334-.14924.33334-.33334v-.66666c0-.1841-.14924-.33334-.33334-.33334zm2.66666 0c-.18409 0-.33333.14924-.33333.33334v.66666c0 .1841.14924.33334.33333.33334h.66667c.18409 0 .33333-.14924.33333-.33334v-.66666c0-.1841-.14924-.33334-.33333-.33334zm2.33334.33334c0-.1841.14924-.33334.33333-.33334h.66667c.18409 0 .33333.14924.33333.33334v.66666c0 .1841-.14924.33334-.33333.33334h-.66667c-.18409 0-.33333-.14924-.33333-.33334zm3-.33334c-.1841 0-.33334.14924-.33334.33334v.66666c0 .1841.14924.33334.33334.33334h.66665c.1841 0 .3333-.14924.3333-.33334v-.66666c0-.1841-.1492-.33334-.3333-.33334zm2.33335.33334c0-.1841.1492-.33334.3333-.33334h.6667c.1841 0 .3333.14924.3333.33334v.66666c0 .1841-.1492.33334-.3333.33334h-.6667c-.1841 0-.3333-.14924-.3333-.33334zm3-.33334c-.1841 0-.3334.14924-.3334.33334v.66666c0 .1841.1493.33334.3334.33334h.6666c.1841 0 .3334-.14924.3334-.33334v-.66666c0-.1841-.1493-.33334-.3334-.33334zm2.3333.33334c0-.1841.1493-.33334.3333-.33334h.6667c.1841 0 .3333.14924.3333.33334v.66666c0 .1841-.1492.33334-.3333.33334h-.6667c-.184 0-.3333-.14924-.3333-.33334zm3-.33334c-.1841 0-.3333.14924-.3333.33334v.66666c0 .1841.1492.33334.3333.33334h.6667c.1841 0 .3333-.14924.3333-.33334v-.66666c0-.1841-.1492-.33334-.3333-.33334zm2.3333.33334c0-.1841.1493-.33334.3334-.33334h.6666c.1841 0 .3334.14924.3334.33334v.66666c0 .1841-.1493.33334-.3334.33334h-.6666c-.1841 0-.3334-.14924-.3334-.33334zm3-.33334c-.184 0-.3333.14924-.3333.33334v.66666c0 .1841.1493.33334.3333.33334h.6667c.1841 0 .3333-.14924.3333-.33334v-.66666c0-.1841-.1492-.33334-.3333-.33334zm-24.33329 8.33336c0-.1841.14924-.3334.33334-.3334h.66666c.1841 0 .33334.1493.33334.3334v.6666c0 .1841-.14924.3334-.33334.3334h-.66666c-.1841 0-.33334-.1493-.33334-.3334zm3-.3334c-.18409 0-.33333.1493-.33333.3334v.6666c0 .1841.14924.3334.33333.3334h.66667c.18409 0 .33333-.1493.33333-.3334v-.6666c0-.1841-.14924-.3334-.33333-.3334zm2.33334.3334c0-.1841.14924-.3334.33333-.3334h.66667c.18409 0 .33333.1493.33333.3334v.6666c0 .1841-.14924.3334-.33333.3334h-.66667c-.18409 0-.33333-.1493-.33333-.3334zm3-.3334c-.1841 0-.33334.1493-.33334.3334v.6666c0 .1841.14924.3334.33334.3334h.66665c.1841 0 .3333-.1493.3333-.3334v-.6666c0-.1841-.1492-.3334-.3333-.3334zm2.33335.3334c0-.1841.1492-.3334.3333-.3334h.6667c.1841 0 .3333.1493.3333.3334v.6666c0 .1841-.1492.3334-.3333.3334h-.6667c-.1841 0-.3333-.1493-.3333-.3334zm3-.3334c-.1841 0-.3334.1493-.3334.3334v.6666c0 .1841.1493.3334.3334.3334h.6666c.1841 0 .3334-.1493.3334-.3334v-.6666c0-.1841-.1493-.3334-.3334-.3334zm2.3333.3334c0-.1841.1493-.3334.3333-.3334h.6667c.1841 0 .3333.1493.3333.3334v.6666c0 .1841-.1492.3334-.3333.3334h-.6667c-.184 0-.3333-.1493-.3333-.3334zm3-.3334c-.1841 0-.3333.1493-.3333.3334v.6666c0 .1841.1492.3334.3333.3334h.6667c.1841 0 .3333-.1493.3333-.3334v-.6666c0-.1841-.1492-.3334-.3333-.3334zm2.3333.3334c0-.1841.1493-.3334.3334-.3334h.6666c.1841 0 .3334.1493.3334.3334v.6666c0 .1841-.1493.3334-.3334.3334h-.6666c-.1841 0-.3334-.1493-.3334-.3334zm3-.3334c-.184 0-.3333.1493-.3333.3334v.6666c0 .1841.1493.3334.3333.3334h.6667c.1841 0 .3333-.1493.3333-.3334v-.6666c0-.1841-.1492-.3334-.3333-.3334z" fill="#fff" fill-opacity=".5"/></g><path d="m12.2045 8.02833c-.5343.4868-.8712 1.19037-.8712 1.97167h1.3334c0-.39061.1671-.74125.4358-.98603zm-.8712 1.97167c0 1.4728 1.1939 2.6667 2.6667 2.6667v-1.3334c-.7364 0-1.3333-.5969-1.3333-1.3333zm2.6667 2.6667c1.4728 0 2.6667-1.1939 2.6667-2.6667h-1.3334c0 .7364-.5969 1.3333-1.3333 1.3333zm2.6667-2.6667c0-.76648-.3243-1.4583-.8412-1.94387l-.9129.9718c.2598.24409.4207.58876.4207.97207z" fill="#d80915" mask="url(#c)"/><rect fill="#d80915" height="2.66667" rx=".666667" width="1.33333" x="13.3333" y="9.33334"/></g></g></svg>