<svg enable-background="new 0 0 512 512" viewBox="0 0 512 512" xmlns="http://www.w3.org/2000/svg"><path d="m473.655 88.275h-435.31c-21.178 0-38.345 17.167-38.345 38.345v258.76c0 21.177 17.167 38.345 38.345 38.345h435.31c21.177 0 38.345-17.167 38.345-38.345v-258.76c0-21.178-17.167-38.345-38.345-38.345z" fill="#41479b"/><path d="m0 150.07h512v211.86h-512z" fill="#f5f5f5"/><path d="m301.869 255.999 22.933-39.721h-45.865l-22.937-39.727-22.936 39.727h-45.865l22.933 39.721-22.933 39.721h45.865l22.936 39.728 22.936-39.727h45.865zm.433-26.729-7.933 13.74-7.933-13.74zm-15.433 26.729-15.433 26.73h-30.873l-15.432-26.73 15.433-26.73h30.873zm-30.869-53.466 7.936 13.746h-15.872zm-46.302 26.737h15.865l-7.933 13.74zm0 53.459 7.933-13.74 7.933 13.74zm46.302 26.737-7.936-13.746h15.872zm38.369-40.476 7.933 13.74h-15.865z" fill="#41479b"/></svg>