<svg enable-background="new 0 0 512 512" viewBox="0 0 512 512" xmlns="http://www.w3.org/2000/svg"><path d="m473.655 88.275h-435.31c-21.178 0-38.345 17.167-38.345 38.345v258.76c0 21.177 17.167 38.345 38.345 38.345h435.31c21.177 0 38.345-17.167 38.345-38.345v-258.76c0-21.178-17.167-38.345-38.345-38.345z" fill="#f5f5f5"/><path d="m305.009 182.531c-40.563-27.042-95.35-15.986-122.374 24.506-13.555 20.211-8.045 47.674 12.235 61.195 20.265 13.521 47.64 8.03 61.161-12.252 13.521-20.281 40.914-25.704 61.178-12.254 20.298 13.521 25.757 40.984 12.217 61.195 27.042-40.559 16.111-95.347-24.417-122.39" fill="#ff4b55"/><path d="m182.634 207.038c-13.555 20.211-8.045 47.674 12.235 61.195 20.265 13.521 47.64 8.03 61.161-12.252 13.521-20.281 40.914-25.704 61.178-12.254 20.298 13.521 25.757 40.984 12.217 61.195-27.006 40.632-81.775 51.549-122.338 24.507-40.526-27.039-51.494-81.827-24.453-122.391" fill="#41479b"/><g fill="#464655"><path d="m349.92 149.189 16.035 24.102c1.347 2.025.802 4.759-1.219 6.112l-4.066 2.723c-2.029 1.358-4.775.812-6.129-1.22l-16.055-24.096c-1.351-2.027-.803-4.766 1.223-6.119l4.086-2.728c2.03-1.355 4.773-.805 6.125 1.226z"/><path d="m374.66 186.35 16.087 24.087c1.358 2.034.804 4.786-1.237 6.134l-4.084 2.699c-2.026 1.34-4.754.789-6.103-1.23l-16.078-24.062c-1.354-2.026-.81-4.767 1.217-6.122l4.075-2.724c2.026-1.355 4.768-.81 6.123 1.218z"/><path d="m367.089 137.731 40.829 61.273c1.352 2.028.803 4.768-1.225 6.12l-4.102 2.734c-2.028 1.352-4.769.804-6.121-1.224l-40.843-61.269c-1.353-2.029-.803-4.771 1.227-6.123l4.115-2.739c2.029-1.347 4.768-.8 6.12 1.228z"/><path d="m384.211 126.291 16.07 24.149c1.354 2.034.798 4.78-1.241 6.127l-4.087 2.7c-2.028 1.34-4.757.789-6.105-1.234l-16.082-24.117c-1.353-2.028-.804-4.769 1.224-6.122l4.099-2.732c2.028-1.352 4.77-.803 6.122 1.229z"/><path d="m408.967 163.531 16.045 24.099c1.35 2.026.803 4.762-1.22 6.115l-4.075 2.724c-2.029 1.356-4.775.809-6.127-1.223l-16.045-24.099c-1.349-2.026-.803-4.762 1.22-6.115l4.075-2.724c2.03-1.357 4.774-.811 6.127 1.223z"/><path d="m132.721 293.982 40.824 61.207c1.352 2.027.806 4.767-1.222 6.12l-4.088 2.73c-2.028 1.354-4.769.807-6.123-1.222l-40.824-61.207c-1.353-2.027-.806-4.767 1.222-6.12l4.089-2.73c2.027-1.354 4.769-.807 6.122 1.222z"/><path d="m115.582 305.43 16.028 24.041c1.351 2.026.806 4.761-1.217 6.116l-4.066 2.722c-2.027 1.357-4.771.812-6.126-1.217l-16.047-24.035c-1.354-2.027-.808-4.768 1.22-6.122l4.086-2.728c2.027-1.353 4.769-.806 6.122 1.223z"/><path d="m140.351 342.604 16.046 24.102c1.35 2.026.803 4.763-1.222 6.115l-4.078 2.727c-2.029 1.356-4.772.809-6.126-1.222l-16.056-24.097c-1.351-2.027-.804-4.766 1.222-6.118l4.088-2.73c2.03-1.357 4.773-.808 6.126 1.223z"/><path d="m98.442 316.875 40.798 61.21c1.351 2.026.804 4.764-1.219 6.118l-4.077 2.726c-2.028 1.356-4.771.809-6.125-1.22l-40.822-61.202c-1.353-2.028-.804-4.769 1.224-6.122l4.102-2.734c2.026-1.352 4.767-.804 6.119 1.224z"/><path d="m121.294 210.441 40.818-61.257c1.353-2.03 4.095-2.578 6.124-1.224l4.087 2.729c2.027 1.353 2.573 4.093 1.222 6.12l-40.834 61.223c-1.35 2.023-4.081 2.573-6.108 1.231l-4.071-2.695c-2.038-1.348-2.592-4.095-1.238-6.127z"/><path d="m104.147 199.008 40.825-61.269c1.353-2.03 4.097-2.578 6.126-1.222l4.077 2.726c2.024 1.353 2.57 4.09 1.22 6.116l-40.814 61.272c-1.353 2.03-4.095 2.579-6.124 1.224l-4.088-2.729c-2.026-1.352-2.573-4.091-1.222-6.118z"/><path d="m86.99 187.624 40.829-61.33c1.353-2.031 4.098-2.58 6.127-1.224l4.077 2.726c2.023 1.353 2.57 4.087 1.222 6.114l-40.804 61.339c-1.351 2.03-4.094 2.581-6.123 1.228l-4.1-2.734c-2.029-1.352-2.577-4.091-1.228-6.119z"/><path d="m338.493 355.188 16.047-24.035c1.355-2.029 4.099-2.574 6.126-1.217l4.066 2.722c2.023 1.354 2.567 4.09 1.216 6.116l-16.028 24.04c-1.353 2.029-4.095 2.577-6.123 1.223l-4.086-2.728c-2.026-1.353-2.572-4.093-1.218-6.121z"/><path d="m363.243 318.141 16.073-24.154c1.351-2.03 4.094-2.58 6.123-1.227l4.096 2.73c2.029 1.353 2.577 4.096 1.223 6.124l-16.107 24.116c-1.351 2.022-4.082 2.571-6.109 1.227l-4.062-2.692c-2.035-1.35-2.589-4.093-1.237-6.124z"/><path d="m355.626 366.698 16.057-24.098c1.352-2.029 4.093-2.578 6.122-1.225l4.104 2.737c2.027 1.352 2.575 4.09 1.225 6.119l-16.047 24.1c-1.351 2.029-4.09 2.579-6.12 1.228l-4.115-2.739c-2.028-1.351-2.578-4.093-1.226-6.122z"/><path d="m380.403 329.463 16.066-24.042c1.354-2.025 4.092-2.571 6.119-1.22l4.102 2.734c2.03 1.353 2.577 4.096 1.221 6.125l-16.066 24.043c-1.353 2.025-4.092 2.571-6.118 1.22l-4.103-2.734c-2.03-1.354-2.577-4.097-1.221-6.126z"/><path d="m372.771 378.081 16.075-24.056c1.35-2.019 4.077-2.569 6.103-1.23l4.086 2.7c2.04 1.348 2.595 4.097 1.239 6.131l-16.063 24.088c-1.352 2.028-4.093 2.575-6.121 1.224l-4.098-2.732c-2.03-1.354-2.577-4.097-1.221-6.125z"/><path d="m397.554 340.969 16.035-24.085c1.353-2.031 4.098-2.58 6.127-1.223l4.072 2.722c2.025 1.354 2.57 4.093 1.218 6.119l-16.049 24.053c-1.349 2.024-4.083 2.573-6.11 1.229l-4.06-2.69c-2.033-1.349-2.586-4.094-1.233-6.125z"/></g></svg>