<svg enable-background="new 0 0 512 512" viewBox="0 0 512 512" xmlns="http://www.w3.org/2000/svg"><path d="m38.345 88.273c-21.178 0-38.345 17.167-38.345 38.345v258.759c0 21.177 17.167 38.345 38.345 38.345h132.322v-335.449z" fill="#73af00"/><path d="m170.67 88.277h170.67v335.45h-170.67z" fill="#f5f5f5"/><path d="m473.655 88.273h-132.322v335.448h132.322c21.177 0 38.345-17.167 38.345-38.345v-258.758c0-21.178-17.167-38.345-38.345-38.345z" fill="#ff4b55"/><path d="m271.225 263.893-15.225 7.613v7.613h7.613z" fill="#ffd250"/><path d="m256 298.151c-2.104 0-3.807-1.703-3.807-3.806v-15.225c0-2.104 1.703-3.807 3.807-3.807s3.806 1.703 3.806 3.807v15.225c0 2.103-1.702 3.806-3.806 3.806z" fill="#00c3a0"/><path d="m256 282.926c-14.951 0-29.388-5.769-40.654-16.244-1.539-1.431-1.628-3.84-.196-5.378 1.442-1.535 3.848-1.617 5.379-.198 9.854 9.163 22.452 14.207 35.473 14.207s25.619-5.044 35.473-14.207c1.535-1.423 3.94-1.345 5.378.198 1.431 1.539 1.342 3.947-.196 5.378-11.269 10.475-25.706 16.244-40.657 16.244z" fill="#00c3a0"/><path d="m256 298.151c-9.758 0-19.21-2.851-27.336-8.248l4.215-6.342c13.739 9.129 32.503 9.129 46.241 0l4.215 6.342c-8.125 5.397-17.577 8.248-27.335 8.248z" fill="#00aadc"/><path d="m249.973 246.764-8.405 13.006-1.428 4.282 21.887-5.075z" fill="#732d37"/><path d="m232.705 268.235c-10.062 0-22.14-8.468-25.344-27.336l7.509-1.271c2.662 15.69 12.316 21.005 18.11 20.991 1.777-.049 3.631-.662 3.777-1.918.171-1.502.212-1.858-3.769-3.204-2.164-.733-4.617-1.561-6.338-3.531-6.963-7.951 2.464-16.366 6.993-20.41.799-.714 1.13-1.32 1.045-1.55-.249-.651-1.743-1.635-3.427-1.635-4.836 0-8.505-2.732-9.571-7.126-1.108-4.55.985-9.345 4.97-11.404l3.495 6.765c-.934.483-1.304 1.858-1.067 2.84.093.394.32 1.312 2.175 1.312 4.661 0 9.096 2.751 10.538 6.535.617 1.613 1.546 5.806-3.085 9.943-5 4.465-7.992 7.825-6.334 9.717.375.427 1.985.974 3.048 1.331 3.427 1.16 9.806 3.316 8.892 11.289-.573 5.014-5.048 8.493-11.129 8.658-.165 0-.329.004-.488.004z" fill="#aad264"/><path d="m263.613 225.83s7.613-15.225-7.613-22.838c0 0 53.289-7.613 45.676 60.903l-.003-.003c-4.996-3.997-12.414-11.302-15.063-17.126l-22.997-13.323z" fill="#874150"/><path d="m256 241.055 38.063 22.838s0 0-15.225 7.613l-22.838-22.838z" fill="#732d37"/><path d="m240.775 218.217c4.204 0 7.613 3.409 7.613 7.613l-.008.009c-4.542 4.542-5.667 11.479-2.795 17.224l1.72 3.441c.717 1.434 1.661 2.744 2.795 3.878l21.126 21.127v-10.521c0-13.107-3.052-26.034-8.913-37.757-3.869-7.737-11.777-12.625-20.427-12.625h-1.111z" fill="#783c46"/><path d="m240.775 210.604-7.613 7.613v7.613s9.056-4.591 12.108-6.054c2.133-1.022 1.745-3.439.521-4.604-.953-.906-5.016-4.568-5.016-4.568z" fill="#ffd250"/><path d="m256 313.376c-35.681 0-64.708-29.027-64.708-64.708h7.613c0 31.485 25.611 57.096 57.096 57.096s57.096-25.611 57.096-57.096h7.613c-.002 35.681-29.029 64.708-64.71 64.708z" fill="#aad264"/><g fill="#ffe15a"><circle cx="199.32" cy="271.257" r="5.166"/><circle cx="210.74" cy="289.497" r="5.166"/><circle cx="229.29" cy="303.287" r="5.166"/><circle cx="313.23" cy="271.257" r="5.166"/><circle cx="301.8" cy="289.497" r="5.166"/><circle cx="283.25" cy="303.287" r="5.166"/></g><path d="m259.806 301.957h-7.613c-4.204 0-7.613-3.409-7.613-7.613s3.409-7.613 7.613-7.613h7.613c4.204 0 7.613 3.409 7.613 7.613.001 4.205-3.408 7.613-7.613 7.613z" fill="#ffb478"/><path d="m286.61 246.764c2.538 7.454 7.929 14.274 15.063 17.126l.003.003c7.613-68.514-45.676-60.901-45.676-60.901 38.063 0 30.61 43.772 30.61 43.772z" fill="#9b4b5a"/></svg>