<svg enable-background="new 0 0 512 512" viewBox="0 0 512 512" xmlns="http://www.w3.org/2000/svg"><path d="m0 385.379c0 21.177 17.167 38.345 38.345 38.345h435.31c21.177 0 38.345-17.167 38.345-38.345v-73.471h-512z" fill="#ff4b55"/><path d="m473.655 88.276h-435.31c-21.178 0-38.345 17.167-38.345 38.345v73.471h512v-73.471c0-21.178-17.167-38.345-38.345-38.345z" fill="#ffe15a"/><path d="m0 200.09h512v111.81h-512z" fill="#73af00"/><path d="m261.032 144.959 26.435 79.263 83.552.648c5.097.04 7.21 6.545 3.11 9.571l-67.214 49.635 25.203 79.663c1.537 4.86-3.996 8.879-8.142 5.916l-67.976-48.587-67.976 48.587c-4.147 2.964-9.679-1.056-8.142-5.916l25.203-79.663-67.214-49.635c-4.1-3.028-1.986-9.533 3.11-9.571l83.552-.648 26.435-79.263c1.612-4.835 8.452-4.835 10.064 0z" fill="#f5f5f5"/></svg>