<svg enable-background="new 0 0 512 512" viewBox="0 0 512 512" xmlns="http://www.w3.org/2000/svg"><path d="m317.793 97.104v15.133h191.407c-5.692-14.047-19.457-23.96-35.545-23.96h-164.69c4.876 0 8.828 3.952 8.828 8.827z" fill="#ff4b55"/><path d="m317.793 112.237v23.96h194.207v-9.577c0-5.089-1-9.941-2.799-14.385h-191.408z" fill="#f5f5f5"/><path d="m317.79 136.201h194.21v23.96h-194.21z" fill="#ff4b55"/><path d="m317.79 160.15h194.21v23.96h-194.21z" fill="#f5f5f5"/><path d="m317.79 184.12h194.21v23.96h-194.21z" fill="#ff4b55"/><path d="m317.79 208.081h194.21v23.96h-194.21z" fill="#f5f5f5"/><path d="m317.79 232.04h194.21v23.96h-194.21z" fill="#ff4b55"/><path d="m317.793 271.133c0 4.875-3.953 8.828-8.828 8.828h203.035v-23.961h-194.207z" fill="#f5f5f5"/><path d="m8.83 279.961h-.002c-4.875 0-8.828-3.953-8.828-8.828v8.828 23.96h512v-23.96h-203.034z" fill="#ff4b55"/><path d="m0 303.921h512v23.96h-512z" fill="#f5f5f5"/><path d="m0 327.88h512v23.96h-512z" fill="#ff4b55"/><path d="m0 351.851h512v23.96h-512z" fill="#f5f5f5"/><path d="m0 385.38c0 5.089 1 9.941 2.799 14.385h506.4c1.8-4.443 2.799-9.295 2.799-14.385v-9.576h-511.998z" fill="#ff4b55"/><path d="m38.345 423.724h435.31c16.088 0 29.854-9.913 35.545-23.96h-506.401c5.692 14.048 19.458 23.96 35.546 23.96z" fill="#f5f5f5"/><path d="m8.828 279.961h.002 300.136c4.875 0 8.828-3.953 8.828-8.828v-15.133-23.96-23.96-23.96-23.96-23.96-23.96-15.136c0-4.875-3.953-8.828-8.828-8.828h-270.621c-21.178.001-38.345 17.168-38.345 38.346v9.577 23.96 23.96 23.96 23.96 23.961 8.828 6.305c0 4.877 3.953 8.828 8.828 8.828z" fill="#41479b"/><g fill="#ffe15a"><path d="m83.862 184.023c0-33.387 27.1-60.47 60.456-60.47 8.393 0 16.373 1.718 23.641 4.814.943.402 1.654-.911.807-1.489-12.025-8.186-26.731-12.671-42.505-11.851-34.679 1.802-63.036 29.736-65.278 64.39-2.607 40.308 29.289 73.699 68.959 73.699 14.336 0 27.662-4.417 38.729-11.906.852-.577.146-1.892-.802-1.491-7.243 3.072-15.192 4.776-23.55 4.776-33.357-.002-60.457-27.084-60.457-60.472"/><path d="m222.061 184.023 25.558-9.889c1.263-.489.833-2.376-.518-2.268l-27.308 2.187 18.766-20.06c.926-.989-.28-2.5-1.45-1.818l-23.718 13.836 8.186-26.176c.404-1.292-1.338-2.131-2.095-1.009l-15.354 22.745-3.939-27.148c-.194-1.341-2.13-1.342-2.326-.001l-2.516 17.178-1.044 7.27-.402 2.702-15.354-22.727c-.758-1.122-2.502-.282-2.095 1.011l8.216 26.154-23.716-13.836c-1.17-.682-2.376.829-1.45 1.818l18.765 20.06-27.315-2.186c-1.351-.108-1.782 1.779-.518 2.268l25.581 9.889-25.582 9.891c-1.265.489-.833 2.376.518 2.268l27.316-2.187-18.766 20.111c-.925.99.284 2.5 1.453 1.816l23.715-13.885-8.216 26.154c-.406 1.292 1.336 2.133 2.095 1.01l15.354-22.726.402 2.766 1.044 7.206 2.517 17.224c.196 1.342 2.132 1.34 2.326-.001l3.939-27.193 15.354 22.745c.758 1.122 2.5.285 2.095-1.009l-8.186-26.175 23.715 13.885c1.169.684 2.377-.825 1.453-1.816l-18.767-20.11 27.309 2.187c1.351.108 1.782-1.779.518-2.268z"/></g></svg>