<svg enable-background="new 0 0 512 512" viewBox="0 0 512 512" xmlns="http://www.w3.org/2000/svg"><path d="m473.655 423.724h-435.31c-21.178 0-38.345-17.167-38.345-38.345v-258.758c0-21.177 17.167-38.345 38.345-38.345h435.31c21.177 0 38.345 17.167 38.345 38.345v258.759c0 21.177-17.167 38.344-38.345 38.344z" fill="#41479b"/><path d="m8.828 256h15.334l81.77-53.574v53.574h44.138v-53.574l81.769 53.574h15.334c4.876 0 8.828-3.953 8.828-8.828v-7.002l-70.155-45.963h70.154v-44.138h-70.155l70.155-45.963v-7.002c0-4.875-3.951-8.828-8.828-8.828h-15.334l-81.77 53.574v-53.574h-44.138v53.574l-79.086-51.816c-9.234 2.9-16.954 9.203-21.711 17.434l65.023 42.601h-70.156v44.138h70.155l-70.155 45.963v7.002c0 4.875 3.953 8.828 8.828 8.828z" fill="#f5f5f5"/><g fill="#ff4b55"><path d="m256 158.897h-114.759v-70.621h-26.482v70.621h-114.759v26.482h114.759v70.621h26.482v-70.621h114.759z"/><path d="m8.227 102.902 72.662 47.167h16.214l-82.496-53.55c-2.369 1.87-4.51 4.013-6.38 6.383z"/><path d="m166.283 150.069 88.374-57.366c-1.536-2.599-4.246-4.427-7.485-4.427h-1.909l-95.194 61.793z"/><path d="m89.474 194.207-88.205 57.256c1.521 2.662 4.274 4.537 7.559 4.537h1.665l95.196-61.793z"/><path d="m255.86 247.865-82.666-53.658h-16.214l93.874 60.935c2.812-1.305 4.741-4.04 5.006-7.277z"/><path d="m395.474 368.113c-.358 0-.719-.113-1.026-.328l-10.448-7.466-10.449 7.466c-.306.215-.668.328-1.026.328-.366 0-.728-.113-1.038-.337-.612-.448-.875-1.241-.647-1.965l3.875-12.242-10.327-7.62c-.612-.457-.866-1.241-.633-1.965.237-.724.905-1.216 1.668-1.224l12.841-.104 4.061-12.181c.242-.715.918-1.207 1.677-1.207s1.436.491 1.677 1.207l4.061 12.181 12.841.104c.763.009 1.431.5 1.668 1.224.233.724-.022 1.508-.633 1.965l-10.327 7.62 3.875 12.242c.228.724-.034 1.517-.647 1.965-.314.224-.68.337-1.043.337z"/></g><path d="m384 331.034 4.461 13.378 14.102.109-11.345 8.377 4.254 13.445-11.472-8.199-11.473 8.201 4.254-13.445-11.345-8.377 14.102-.109zm0-3.531c-1.519 0-2.869.972-3.35 2.414l-3.663 10.984-11.578.09c-1.519.011-2.861.994-3.33 2.44-.47 1.446.038 3.029 1.26 3.932l9.314 6.878-3.492 11.039c-.458 1.449.062 3.029 1.291 3.922.619.449 1.347.674 2.076.674.719 0 1.439-.22 2.053-.659l9.42-6.733 9.42 6.733c.615.438 1.334.659 2.054.659.728 0 1.457-.225 2.076-.674 1.229-.894 1.749-2.473 1.291-3.922l-3.492-11.039 9.314-6.878c1.223-.903 1.73-2.486 1.26-3.932-.47-1.445-1.811-2.429-3.33-2.44l-11.578-.09-3.663-10.984c-.484-1.441-1.834-2.414-3.353-2.414z" fill="#f5f5f5"/><path d="m395.474 225.793c-.362 0-.719-.113-1.026-.328l-10.448-7.473-10.449 7.474c-.306.215-.668.328-1.026.328-.362 0-.728-.113-1.038-.337-.612-.448-.875-1.241-.647-1.965l3.875-12.242-10.327-7.629c-.612-.457-.866-1.25-.633-1.965.237-.724.909-1.216 1.668-1.224l12.841-.095 4.061-12.181c.242-.715.918-1.207 1.677-1.207s1.436.491 1.677 1.207l4.061 12.181 12.841.095c.759.009 1.431.5 1.668 1.224.233.715-.022 1.508-.633 1.965l-10.327 7.629 3.875 12.242c.228.724-.034 1.517-.647 1.965-.314.224-.68.336-1.043.336z" fill="#ff4b55"/><path d="m384 188.713 4.461 13.378 14.102.109-11.345 8.377 4.254 13.446-11.472-8.201-11.473 8.201 4.254-13.446-11.345-8.377 14.102-.109zm0-3.531c-1.519 0-2.869.972-3.35 2.414l-3.663 10.984-11.578.09c-1.519.011-2.861.994-3.33 2.44-.47 1.446.038 3.029 1.26 3.932l9.314 6.878-3.492 11.039c-.458 1.449.062 3.029 1.291 3.922.619.449 1.347.674 2.076.674.719 0 1.439-.22 2.053-.659l9.42-6.733 9.42 6.733c.615.438 1.334.659 2.054.659.728 0 1.457-.225 2.076-.674 1.229-.894 1.749-2.473 1.291-3.922l-3.492-11.039 9.314-6.878c1.223-.903 1.73-2.486 1.26-3.932s-1.811-2.429-3.33-2.44l-11.578-.09-3.663-10.984c-.484-1.442-1.834-2.414-3.353-2.414z" fill="#f5f5f5"/><path d="m457.267 269.931c-.362 0-.719-.113-1.026-.328l-10.447-7.474-10.449 7.474c-.306.215-.668.328-1.026.328-.362 0-.728-.113-1.038-.337-.612-.448-.875-1.241-.647-1.965l3.875-12.242-10.327-7.629c-.612-.457-.866-1.25-.633-1.965.237-.724.909-1.216 1.668-1.224l12.841-.095 4.061-12.181c.242-.715.918-1.207 1.677-1.207s1.436.491 1.677 1.207l4.061 12.181 12.841.095c.759.009 1.431.5 1.668 1.224.233.715-.022 1.508-.633 1.965l-10.327 7.629 3.875 12.242c.228.724-.034 1.517-.647 1.965-.315.224-.681.337-1.044.337z" fill="#ff4b55"/><path d="m445.793 232.851 4.461 13.378 14.102.109-11.345 8.377 4.254 13.446-11.473-8.201-11.473 8.201 4.254-13.445-11.345-8.377 14.102-.109zm0-3.531c-1.519 0-2.869.972-3.35 2.414l-3.663 10.984-11.578.09c-1.519.011-2.861.994-3.33 2.44-.47 1.446.038 3.029 1.26 3.932l9.314 6.878-3.492 11.039c-.458 1.449.062 3.029 1.291 3.922.619.449 1.347.674 2.076.674.719 0 1.439-.22 2.054-.659l9.42-6.733 9.42 6.733c.615.438 1.334.659 2.053.659.728 0 1.457-.225 2.076-.674 1.229-.894 1.749-2.473 1.291-3.922l-3.492-11.039 9.314-6.878c1.223-.903 1.73-2.486 1.26-3.932s-1.811-2.429-3.33-2.44l-11.578-.09-3.663-10.984c-.484-1.442-1.833-2.414-3.353-2.414z" fill="#f5f5f5"/><path d="m333.681 287.586c-.362 0-.719-.113-1.026-.328l-10.447-7.474-10.449 7.474c-.306.215-.668.328-1.026.328-.362 0-.728-.113-1.038-.337-.612-.448-.875-1.241-.647-1.965l3.875-12.242-10.327-7.629c-.612-.457-.866-1.25-.633-1.965.237-.724.909-1.216 1.668-1.224l12.841-.095 4.061-12.181c.242-.715.918-1.207 1.677-1.207s1.436.491 1.677 1.207l4.061 12.181 12.841.095c.759.009 1.431.5 1.668 1.224.233.715-.022 1.508-.633 1.965l-10.327 7.629 3.875 12.242c.228.724-.034 1.517-.647 1.965-.315.225-.681.337-1.044.337z" fill="#ff4b55"/><path d="m322.207 250.506 4.461 13.378 14.102.109-11.345 8.377 4.254 13.446-11.473-8.201-11.473 8.201 4.254-13.446-11.345-8.377 14.102-.109zm0-3.531c-1.519 0-2.869.972-3.35 2.414l-3.663 10.984-11.578.09c-1.519.011-2.861.994-3.33 2.44-.47 1.446.038 3.029 1.26 3.932l9.314 6.878-3.492 11.039c-.458 1.449.062 3.029 1.291 3.922.619.449 1.347.674 2.076.674.719 0 1.439-.22 2.054-.659l9.42-6.733 9.42 6.733c.615.438 1.334.659 2.053.659.728 0 1.457-.225 2.076-.674 1.229-.894 1.749-2.473 1.291-3.922l-3.492-11.039 9.314-6.878c1.223-.903 1.73-2.486 1.26-3.932s-1.811-2.429-3.33-2.44l-11.578-.09-3.663-10.984c-.484-1.442-1.834-2.414-3.353-2.414z" fill="#f5f5f5"/></svg>