<svg enable-background="new 0 0 512 512" viewBox="0 0 512 512" xmlns="http://www.w3.org/2000/svg"><path d="m473.655 423.724h-435.31c-21.178 0-38.345-17.167-38.345-38.346v-258.758c0-21.177 17.167-38.345 38.345-38.345h435.31c21.177 0 38.345 17.167 38.345 38.345v258.76c0 21.177-17.167 38.344-38.345 38.344z" fill="#ff4b55"/><path d="m38.345 88.275c-21.178 0-38.345 17.167-38.345 38.345v258.76c0 21.177 17.167 38.345 38.345 38.345h147.034v-335.45z" fill="#73af00"/><circle cx="185.45" cy="255.999" fill="#ffe15a" r="79.38"/><path d="m211.932 229.516v35.31c0 14.603-11.88 26.483-26.483 26.483s-26.483-11.88-26.483-26.483v-35.31zm8.827-17.655h-70.621c-4.875 0-8.828 3.953-8.828 8.828v44.138c0 24.376 19.762 44.138 44.138 44.138s44.138-19.762 44.138-44.138v-44.138c.001-4.875-3.952-8.828-8.827-8.828z" fill="#ff4b55"/><path d="m211.932 229.516v35.31c0 14.603-11.88 26.483-26.483 26.483s-26.483-11.88-26.483-26.483v-35.31z" fill="#f5f5f5"/><g fill="#ffe15a"><circle cx="150.07" cy="220.689" r="4.414"/><circle cx="220.69" cy="220.689" r="4.414"/><circle cx="150.07" cy="255.999" r="4.414"/><circle cx="220.69" cy="255.999" r="4.414"/><circle cx="185.38" cy="220.689" r="4.414"/><circle cx="211.88" cy="288.549" r="4.414"/><circle cx="159.4" cy="288.549" r="4.414"/></g><g fill="#41479b"><path d="m191.149 253.761v7.602c0 3.144-2.558 5.702-5.702 5.702s-5.702-2.558-5.702-5.702v-7.602z"/><path d="m191.149 235.74v7.602c0 3.144-2.558 5.702-5.702 5.702s-5.702-2.558-5.702-5.702v-7.602z"/><path d="m191.149 271.969v7.602c0 3.144-2.558 5.702-5.702 5.702s-5.702-2.558-5.702-5.702v-7.602z"/><path d="m206.506 253.761v7.602c0 3.144-2.558 5.702-5.702 5.702s-5.702-2.558-5.702-5.702v-7.602z"/><path d="m175.794 253.761v7.602c0 3.144-2.558 5.702-5.702 5.702s-5.702-2.558-5.702-5.702v-7.602z"/></g></svg>