<svg enable-background="new 0 0 512 512" viewBox="0 0 512 512" xmlns="http://www.w3.org/2000/svg"><path d="m0 150.069v211.862l141.241-105.931z" fill="#464655"/><path d="m473.655 88.276h-403.034l158.897 123.586h282.482v-85.241c0-21.178-17.167-38.345-38.345-38.345z" fill="#ff4b55"/><path d="m70.621 423.724h403.034c21.177 0 38.345-17.167 38.345-38.345v-85.241h-282.483z" fill="#41479b"/><path d="m56.889 88.276h-18.544c-21.178 0-38.345 17.167-38.345 38.345v6.692l154.974 122.687-154.974 122.691v6.688c0 21.177 17.167 38.345 38.345 38.345h18.539l167.262-132.414h287.854v-70.62h-287.852z" fill="#73af00"/><path d="m85.333 88.276h-28.444l167.259 132.414h287.852v-17.656h-281.709z" fill="#f5f5f5"/><path d="m0 133.313v22.518l126.53 100.169-126.53 100.173v22.518l154.974-122.691z" fill="#ffe15a"/><path d="m224.147 291.31-167.263 132.414h28.445l144.96-114.758h281.711v-17.656z" fill="#f5f5f5"/></svg>