<svg enable-background="new 0 0 512 512" viewBox="0 0 512 512" xmlns="http://www.w3.org/2000/svg"><path d="m473.7 88.3h-435.4c-21.2 0-38.3 17.2-38.3 38.3v258.8c0 21.2 17.2 38.3 38.3 38.3h435.3c21.2 0 38.3-17.2 38.3-38.3v-258.8c.1-21.2-17.1-38.3-38.2-38.3z" fill="#f5f5f5"/><path d="m0 385.4c0 21.2 17.2 38.3 38.3 38.3h435.3c21.2 0 38.3-17.2 38.3-38.3v-14.6h-511.9z" fill="#ff4b55"/><path d="m473.7 88.3h-435.4c-21.2 0-38.3 17.2-38.3 38.3v14.6h512v-14.6c0-21.2-17.2-38.3-38.3-38.3z" fill="#ff4b55"/><path d="m0 194.2h512v123.6h-512z" fill="#41479b"/></svg>