<svg enable-background="new 0 0 512 512" viewBox="0 0 512 512" xmlns="http://www.w3.org/2000/svg"><path d="m473.655 423.724h-435.31c-21.178 0-38.345-17.167-38.345-38.344v-258.758c0-21.177 17.167-38.345 38.345-38.345h435.31c21.177 0 38.345 17.167 38.345 38.345v258.758c0 21.177-17.167 38.344-38.345 38.344z" fill="#ff4b55"/><path d="m8.828 256h238.345c4.875 0 8.828-3.951 8.828-8.828v-150.068c0-4.875-3.953-8.828-8.828-8.828h-208.828c-21.178.001-38.345 17.168-38.345 38.346v120.552c0 4.875 3.953 8.826 8.828 8.826z" fill="#41479b"/><g fill="#f5f5f5"><path d="m96.403 172.139c0-8.722 3.534-16.618 9.248-22.335l-26.474-7.573c-1.537-.439-2.638 1.469-1.49 2.58l19.811 19.155-26.734 6.684c-1.55.387-1.55 2.591 0 2.979l26.734 6.684-19.811 19.155c-1.149 1.111-.047 3.019 1.49 2.58l26.474-7.573c-5.714-5.718-9.248-13.614-9.248-22.336z"/><path d="m105.665 149.79c5.717-5.714 13.613-9.248 22.335-9.248s16.618 3.534 22.335 9.248l7.573-26.474c.439-1.537-1.469-2.638-2.58-1.49l-19.155 19.81-6.684-26.734c-.387-1.55-2.591-1.55-2.979 0l-6.684 26.734-19.155-19.81c-1.111-1.149-3.02-.047-2.58 1.49z"/><path d="m150.335 194.488c-5.717 5.714-13.613 9.248-22.335 9.248s-16.618-3.534-22.335-9.248l-7.573 26.475c-.439 1.537 1.469 2.638 2.58 1.49l19.155-19.81 6.684 26.734c.387 1.55 2.591 1.55 2.979 0l6.684-26.734 19.155 19.81c1.111 1.149 3.019.047 2.58-1.49z"/><path d="m185.236 170.648-26.734-6.684 19.81-19.155c1.149-1.111.047-3.019-1.49-2.58l-26.474 7.573c5.714 5.718 9.248 13.613 9.248 22.335s-3.534 16.618-9.248 22.335l26.474 7.573c1.537.439 2.638-1.469 1.49-2.58l-19.81-19.155 26.734-6.684c1.551-.385 1.551-2.588 0-2.978z"/><circle cx="128" cy="172.141" r="25.16"/></g></svg>