<svg enable-background="new 0 0 512 512" viewBox="0 0 512 512" xmlns="http://www.w3.org/2000/svg"><path d="m473.655 88.276h-435.31c-21.178 0-38.345 17.167-38.345 38.345v73.471h512v-73.471c0-21.178-17.167-38.345-38.345-38.345z" fill="#ffe15a"/><path d="m0 385.379c0 21.177 17.167 38.345 38.345 38.345h435.31c21.177 0 38.345-17.167 38.345-38.345v-73.471h-512z" fill="#ff4b55"/><path d="m0 200.09h512v111.81h-512z" fill="#41479b"/><g fill="#f5f5f5"><path d="m178.14 277.497 2.212 6.633 6.991.054c.905.007 1.281 1.162.553 1.7l-5.624 4.153 2.109 6.667c.273.863-.71 1.577-1.447 1.05l-5.688-4.066-5.688 4.066c-.736.526-1.719-.188-1.447-1.05l2.109-6.667-5.624-4.153c-.728-.537-.353-1.693.553-1.7l6.993-.054 2.212-6.633c.285-.858 1.5-.858 1.786 0z"/><path d="m191.723 256.383-1.185 6.891 6.136 3.352c.794.434.579 1.63-.317 1.759l-6.92 1.002-1.292 6.872c-.168.889-1.37 1.055-1.771.243l-3.092-6.272-6.935.895c-.898.116-1.427-.978-.778-1.609l5.01-4.878-2.994-6.319c-.387-.818.489-1.659 1.29-1.237l6.187 3.257 5.085-4.8c.659-.623 1.729-.049 1.576.844z"/><path d="m208.913 237.902-3.282 6.174 4.779 5.103c.619.661.041 1.729-.851 1.571l-6.887-1.213-3.377 6.123c-.437.792-1.632.573-1.758-.323l-.974-6.924-6.867-1.32c-.889-.171-1.049-1.375-.235-1.772l6.284-3.066-.867-6.938c-.113-.898.983-1.422 1.612-.771l4.857 5.028 6.33-2.968c.823-.383 1.66.496 1.236 1.296z"/><path d="m229.598 226.436-4.824 5.062 3.228 6.202c.418.803-.427 1.676-1.244 1.284l-6.304-3.025-4.902 4.986c-.634.646-1.726.111-1.606-.786l.928-6.931-6.257-3.122c-.81-.404-.64-1.607.25-1.77l6.878-1.259 1.035-6.915c.134-.895 1.331-1.105 1.761-.308l3.322 6.152 6.897-1.152c.894-.147 1.462.927.838 1.582z"/><path d="m253.374 221.123-6.004 3.584 1.448 6.84c.188.886-.861 1.501-1.542.905l-5.263-4.602-6.059 3.49c-.785.452-1.693-.355-1.336-1.187l2.751-6.429-5.192-4.683c-.672-.606-.185-1.719.716-1.637l6.964.629 2.85-6.385c.369-.826 1.578-.708 1.779.174l1.554 6.817 6.953.737c.897.097 1.159 1.283.381 1.747z"/><path d="m333.859 277.497-2.212 6.633-6.991.054c-.905.007-1.281 1.162-.553 1.7l5.624 4.153-2.109 6.667c-.273.863.71 1.577 1.447 1.05l5.688-4.066 5.688 4.066c.737.526 1.719-.188 1.447-1.05l-2.109-6.667 5.625-4.153c.728-.537.353-1.693-.553-1.7l-6.991-.054-2.212-6.633c-.287-.858-1.502-.858-1.789 0z"/><path d="m320.277 256.383 1.185 6.891-6.136 3.352c-.794.434-.579 1.63.317 1.759l6.92 1.002 1.292 6.872c.168.889 1.371 1.055 1.771.243l3.092-6.272 6.935.895c.898.116 1.427-.978.778-1.609l-5.01-4.878 2.994-6.319c.387-.818-.489-1.659-1.29-1.237l-6.187 3.257-5.085-4.8c-.659-.623-1.729-.049-1.576.844z"/><path d="m303.087 237.902 3.282 6.174-4.779 5.103c-.619.661-.041 1.729.851 1.571l6.887-1.213 3.377 6.123c.437.792 1.632.573 1.758-.323l.974-6.924 6.867-1.32c.889-.171 1.049-1.375.235-1.772l-6.284-3.066.866-6.938c.113-.898-.983-1.422-1.612-.771l-4.857 5.028-6.33-2.968c-.822-.383-1.659.496-1.235 1.296z"/><path d="m282.402 226.436 4.824 5.062-3.228 6.202c-.418.803.427 1.676 1.244 1.284l6.304-3.025 4.903 4.986c.634.646 1.726.111 1.605-.786l-.928-6.931 6.257-3.122c.81-.404.64-1.607-.25-1.77l-6.878-1.259-1.035-6.915c-.134-.895-1.331-1.105-1.761-.308l-3.322 6.152-6.897-1.152c-.894-.147-1.462.927-.838 1.582z"/><path d="m258.626 221.123 6.004 3.584-1.448 6.84c-.188.886.861 1.501 1.542.905l5.263-4.602 6.059 3.49c.785.452 1.693-.355 1.336-1.187l-2.751-6.429 5.192-4.683c.672-.606.185-1.719-.716-1.637l-6.964.629-2.85-6.385c-.369-.826-1.578-.708-1.779.174l-1.554 6.817-6.953.737c-.897.097-1.159 1.283-.381 1.747z"/></g></svg>