<svg xmlns="http://www.w3.org/2000/svg" width="250" height="250" fill="none" viewBox="0 0 250 250"><path fill="url(#a)" d="M250.004 125c0 69.036-55.964 125-125 125s-125-55.964-125-125 55.964-125 125-125 125 55.964 125 125"/><path fill="url(#b)" d="M250.004 125c0 69.036-55.964 125-125 125s-125-55.964-125-125 55.964-125 125-125 125 55.964 125 125"/><path fill="url(#c)" d="M250.004 125c0 69.036-55.964 125-125 125s-125-55.964-125-125 55.964-125 125-125 125 55.964 125 125"/><path fill="url(#d)" d="M250.004 125c0 69.036-55.964 125-125 125s-125-55.964-125-125 55.964-125 125-125 125 55.964 125 125"/><path fill="url(#e)" d="M245.004 125c0-66.274-53.726-120-120-120s-120 53.726-120 120 53.726 120 120 120v5c-69.036 0-125-55.964-125-125s55.964-125 125-125c69.035 0 125 55.964 125 125s-55.965 125-125 125v-5c66.274 0 120-53.726 120-120"/><path fill="url(#f)" d="M245.004 125c0-66.274-53.726-120-120-120s-120 53.726-120 120 53.726 120 120 120v5c-69.036 0-125-55.964-125-125s55.964-125 125-125c69.035 0 125 55.964 125 125s-55.965 125-125 125v-5c66.274 0 120-53.726 120-120"/><path fill="url(#g)" d="M245.004 125c0-66.274-53.726-120-120-120s-120 53.726-120 120 53.726 120 120 120v5c-69.036 0-125-55.964-125-125s55.964-125 125-125c69.035 0 125 55.964 125 125s-55.965 125-125 125v-5c66.274 0 120-53.726 120-120"/><path fill="url(#h)" d="M134.246 115.545h-36.83a24.819 24.819 0 0 0 0 49.638h11.718l25.101 21.783H97.416a46.62 46.62 0 0 1-45.735-37.658 46.615 46.615 0 0 1 28.158-52.125L50.826 71.966H84.08z"/><path fill="url(#i)" d="M153.095 71.966a46.615 46.615 0 0 1 17.577 89.783l29.037 25.205h-33.256l-50.187-43.567h36.829a24.82 24.82 0 0 0 0-49.638h-11.718l-25.111-21.783z"/><path fill="url(#j)" d="M134.249 111.546H97.42a24.82 24.82 0 0 0-17.55 7.268 24.82 24.82 0 0 0 17.55 42.369h11.718l25.1 21.784H97.42a46.614 46.614 0 0 1-17.577-89.783L50.83 67.967h33.256zm18.848-43.58a46.615 46.615 0 0 1 17.577 89.784l29.037 25.205h-33.256l-50.187-43.567h36.829a24.82 24.82 0 0 0 0-49.638h-11.718l-25.111-21.783z"/><path fill="url(#k)" d="M134.249 111.546H97.42a24.82 24.82 0 0 0-17.55 7.268 24.82 24.82 0 0 0 17.55 42.369h11.718l25.1 21.784H97.42a46.614 46.614 0 0 1-17.577-89.783L50.83 67.967h33.256zm18.848-43.58a46.615 46.615 0 0 1 17.577 89.784l29.037 25.205h-33.256l-50.187-43.567h36.829a24.82 24.82 0 0 0 0-49.638h-11.718l-25.111-21.783z"/><path fill="url(#l)" d="M134.25 111.546H97.42v-2H128.9l-45.56-39.58h-27.16L83.611 93.81l-3.013 1.227a44.62 44.62 0 0 0-22.42 20.111 44.62 44.62 0 0 0 10.895 55.647 44.62 44.62 0 0 0 28.347 10.173v2a46.62 46.62 0 0 1-45.735-37.658 46.615 46.615 0 0 1 28.158-52.125L50.83 67.967h33.256zm-63.648 24.818a26.82 26.82 0 0 1 26.818-26.818v2a24.819 24.819 0 0 0 0 49.638h11.718l25.101 21.783H97.42v-2h31.463l-20.492-17.783h-10.97a26.82 26.82 0 0 1-26.82-26.82m82.497-68.397a46.615 46.615 0 0 1 17.577 89.783l29.037 25.205h-33.256l-50.187-43.567h36.829a24.82 24.82 0 0 0 0-49.638v-2a26.82 26.82 0 0 1 26.811 26.153l.008.666a26.82 26.82 0 0 1-26.819 26.819h-31.474l45.58 39.567h27.152l-27.45-23.829 3.014-1.229a44.61 44.61 0 0 0 26.95-49.888 44.614 44.614 0 0 0-42.804-36.031l-.968-.011h-31.472l20.5 17.783h10.972v2h-11.718L116.27 67.967z"/><path fill="url(#m)" d="M134.25 111.546H97.42v-2H128.9l-45.56-39.58h-27.16L83.611 93.81l-3.013 1.227a44.62 44.62 0 0 0-22.42 20.111 44.62 44.62 0 0 0 10.895 55.647 44.62 44.62 0 0 0 28.347 10.173v2a46.62 46.62 0 0 1-45.735-37.658 46.615 46.615 0 0 1 28.158-52.125L50.83 67.967h33.256zm-63.648 24.818a26.82 26.82 0 0 1 26.818-26.818v2a24.819 24.819 0 0 0 0 49.638h11.718l25.101 21.783H97.42v-2h31.463l-20.492-17.783h-10.97a26.82 26.82 0 0 1-26.82-26.82m82.497-68.397a46.615 46.615 0 0 1 17.577 89.783l29.037 25.205h-33.256l-50.187-43.567h36.829a24.82 24.82 0 0 0 0-49.638v-2a26.82 26.82 0 0 1 26.811 26.153l.008.666a26.82 26.82 0 0 1-26.819 26.819h-31.474l45.58 39.567h27.152l-27.45-23.829 3.014-1.229a44.61 44.61 0 0 0 26.95-49.888 44.614 44.614 0 0 0-42.804-36.031l-.968-.011h-31.472l20.5 17.783h10.972v2h-11.718L116.27 67.967z"/><defs><linearGradient id="a" x1="125.004" x2="125.004" y1="0" y2="250" gradientUnits="userSpaceOnUse"><stop stop-color="#033dbc"/><stop offset="1" stop-color="#000d62"/></linearGradient><linearGradient id="b" x1="125.004" x2="125.004" y1="0" y2="250" gradientUnits="userSpaceOnUse"><stop stop-color="#0043d3"/><stop offset="1" stop-color="#00138c"/></linearGradient><linearGradient id="c" x1="125.004" x2="125.004" y1="0" y2="250" gradientUnits="userSpaceOnUse"><stop stop-color="#0043d3"/><stop offset="1" stop-color="#00138c"/></linearGradient><linearGradient id="d" x1="125.004" x2="125.004" y1="0" y2="250" gradientUnits="userSpaceOnUse"><stop offset=".725" stop-color="#000f3c" stop-opacity="0"/><stop offset="1" stop-color="#000f3c" stop-opacity=".5"/></linearGradient><linearGradient id="e" x1="125.004" x2="125.004" y1="0" y2="250" gradientUnits="userSpaceOnUse"><stop stop-color="#0c52e0"/><stop offset="1" stop-color="#002186"/></linearGradient><linearGradient id="f" x1="125.004" x2="125.004" y1="0" y2="250" gradientUnits="userSpaceOnUse"><stop offset=".85" stop-color="#003eff" stop-opacity="0"/><stop offset="1" stop-color="#0027e3"/></linearGradient><linearGradient id="g" x1="125.004" x2="125.004" y1="0" y2="250" gradientUnits="userSpaceOnUse"><stop stop-color="#5a8dff"/><stop offset=".15" stop-color="#2b71ff" stop-opacity="0"/></linearGradient><linearGradient id="h" x1="125.261" x2="125.261" y1="71.966" y2="186.966" gradientUnits="userSpaceOnUse"><stop stop-color="#001e78"/><stop offset="1" stop-color="#001553"/></linearGradient><linearGradient id="i" x1="125.261" x2="125.261" y1="71.966" y2="186.966" gradientUnits="userSpaceOnUse"><stop stop-color="#001e78"/><stop offset="1" stop-color="#001553"/></linearGradient><linearGradient id="j" x1="92.533" x2="92.533" y1="67.967" y2="182.966" gradientUnits="userSpaceOnUse"><stop stop-color="#fff"/><stop offset="1" stop-color="#9abbff"/></linearGradient><linearGradient id="k" x1="92.533" x2="92.533" y1="67.967" y2="182.966" gradientUnits="userSpaceOnUse"><stop stop-color="#e0e9ff"/><stop offset="1" stop-color="#9abbff"/></linearGradient><linearGradient id="l" x1="125.265" x2="125.265" y1="67.967" y2="182.967" gradientUnits="userSpaceOnUse"><stop stop-color="#fff" stop-opacity=".5"/><stop offset="1" stop-color="#fff" stop-opacity=".2"/></linearGradient><linearGradient id="m" x1="125.265" x2="125.265" y1="67.967" y2="182.967" gradientUnits="userSpaceOnUse"><stop stop-color="#fff"/><stop offset="1" stop-color="#fff"/></linearGradient></defs></svg>