<svg width="179" height="37" viewBox="0 0 179 37" fill="none" xmlns="http://www.w3.org/2000/svg">
<path d="M76.2936 20.5227L77.9877 22.2168C77.2983 23.1262 76.3963 23.8522 75.2815 24.3949C74.1815 24.923 72.964 25.187 71.6293 25.187C70.4412 25.187 69.3485 24.9816 68.3511 24.5709C67.3684 24.1603 66.5103 23.5882 65.7769 22.8548C65.0582 22.1215 64.4935 21.2561 64.0828 20.2587C63.6868 19.2466 63.4888 18.1539 63.4888 16.9805C63.4888 15.7924 63.6941 14.6997 64.1048 13.7023C64.5155 12.6902 65.0876 11.8175 65.8209 11.0841C66.569 10.3507 67.4417 9.7787 68.4391 9.36801C69.4365 8.95732 70.5219 8.75197 71.6953 8.75197C73.0301 8.75197 74.2401 9.02332 75.3255 9.56602C76.4109 10.0941 77.2983 10.8128 77.9877 11.7222L76.2936 13.4163C75.7802 12.6682 75.1348 12.0815 74.3575 11.6561C73.5801 11.2161 72.6927 10.9961 71.6953 10.9961C70.6392 10.9961 69.6932 11.2601 68.8571 11.7882C68.0211 12.3015 67.361 13.0056 66.877 13.9003C66.393 14.795 66.151 15.8217 66.151 16.9805C66.151 18.1245 66.393 19.1439 66.877 20.0387C67.361 20.9334 68.0211 21.6448 68.8571 22.1728C69.6932 22.6862 70.6392 22.9428 71.6953 22.9428C72.6927 22.9428 73.5801 22.7228 74.3575 22.2828C75.1348 21.8428 75.7802 21.2561 76.2936 20.5227ZM89.1654 24.835H86.8993V22.6568L86.7893 22.1948V18.0805C86.7893 17.2592 86.5252 16.6211 85.9972 16.1664C85.4692 15.6971 84.7505 15.4624 83.8411 15.4624C83.181 15.4624 82.565 15.5944 81.993 15.8584C81.4356 16.1224 80.9516 16.4891 80.5409 16.9585L79.1328 15.4184C79.7342 14.817 80.4382 14.3476 81.2449 14.0103C82.0516 13.6729 82.9464 13.5043 83.9291 13.5043C84.9705 13.5043 85.8799 13.6876 86.6573 14.0543C87.4493 14.4063 88.0653 14.9197 88.5054 15.5944C88.9454 16.2691 89.1654 17.0758 89.1654 18.0145V24.835ZM83.005 25.187C82.169 25.187 81.4283 25.033 80.7829 24.725C80.1375 24.4169 79.6388 23.9989 79.2868 23.4709C78.9348 22.9428 78.7588 22.3268 78.7588 21.6228C78.7588 20.86 78.9788 20.2147 79.4188 19.6866C79.8588 19.1439 80.4675 18.7333 81.2449 18.4546C82.037 18.1612 82.9464 18.0145 83.9731 18.0145H87.0533V19.7086H84.1931C83.3277 19.7086 82.6237 19.8627 82.081 20.1707C81.5529 20.4787 81.2889 20.9334 81.2889 21.5348C81.2889 22.0775 81.4943 22.5102 81.905 22.8328C82.3157 23.1409 82.851 23.2949 83.5111 23.2949C84.1418 23.2949 84.7211 23.1629 85.2492 22.8988C85.7772 22.6348 86.1952 22.2755 86.5032 21.8208C86.8259 21.3514 87.0093 20.816 87.0533 20.2147L87.8453 20.5887C87.8453 21.4834 87.64 22.2828 87.2293 22.9868C86.8186 23.6762 86.2466 24.2189 85.5132 24.6149C84.7798 24.9963 83.9438 25.187 83.005 25.187ZM93.3326 24.835H90.8685V8.99398H93.3326V24.835ZM102.111 24.835H98.8549L92.7166 19.1366H92.9366L98.4149 13.8563H101.473L95.6427 19.3566V18.9386L102.111 24.835ZM111.222 21.5128L112.63 23.0529C112.058 23.7129 111.347 24.2336 110.496 24.6149C109.645 24.9963 108.699 25.187 107.658 25.187C106.426 25.187 105.333 24.9376 104.38 24.4389C103.441 23.9402 102.7 23.2509 102.158 22.3708C101.63 21.4908 101.366 20.486 101.366 19.3566C101.366 18.2126 101.622 17.2005 102.136 16.3204C102.649 15.4404 103.353 14.751 104.248 14.2523C105.142 13.7536 106.147 13.5043 107.262 13.5043C108.347 13.5043 109.308 13.7536 110.144 14.2523C110.98 14.7363 111.64 15.411 112.124 16.2764C112.608 17.1272 112.85 18.1172 112.85 19.2466V19.3786H110.408V19.1366C110.408 18.4032 110.269 17.7652 109.99 17.2225C109.726 16.6651 109.359 16.2398 108.89 15.9464C108.421 15.6384 107.871 15.4844 107.24 15.4844C106.58 15.4844 105.993 15.6457 105.48 15.9684C104.981 16.2764 104.592 16.7165 104.314 17.2885C104.035 17.8459 103.896 18.5206 103.896 19.3126C103.896 20.1047 104.057 20.794 104.38 21.3807C104.717 21.9675 105.172 22.4221 105.744 22.7448C106.33 23.0529 107.005 23.2069 107.768 23.2069C109.161 23.2069 110.313 22.6422 111.222 21.5128ZM112.85 20.1267H103.082V18.4546H112.498L112.85 19.2686V20.1267ZM134.362 24.835H131.524L127.915 12.2062H128.223L124.593 24.835H121.755L117.135 9.10399H119.841L123.581 22.8548H122.899L126.859 9.10399H129.279L133.24 22.8548H132.624L136.342 9.10399H138.982L134.362 24.835ZM148.664 24.835H146.397V22.6568L146.287 22.1948V18.0805C146.287 17.2592 146.023 16.6211 145.495 16.1664C144.967 15.6971 144.249 15.4624 143.339 15.4624C142.679 15.4624 142.063 15.5944 141.491 15.8584C140.934 16.1224 140.45 16.4891 140.039 16.9585L138.631 15.4184C139.232 14.817 139.936 14.3476 140.743 14.0103C141.55 13.6729 142.445 13.5043 143.427 13.5043C144.469 13.5043 145.378 13.6876 146.155 14.0543C146.948 14.4063 147.564 14.9197 148.004 15.5944C148.444 16.2691 148.664 17.0758 148.664 18.0145V24.835ZM142.503 25.187C141.667 25.187 140.926 25.033 140.281 24.725C139.636 24.4169 139.137 23.9989 138.785 23.4709C138.433 22.9428 138.257 22.3268 138.257 21.6228C138.257 20.86 138.477 20.2147 138.917 19.6866C139.357 19.1439 139.966 18.7333 140.743 18.4546C141.535 18.1612 142.445 18.0145 143.471 18.0145H146.551V19.7086H143.691C142.826 19.7086 142.122 19.8627 141.579 20.1707C141.051 20.4787 140.787 20.9334 140.787 21.5348C140.787 22.0775 140.992 22.5102 141.403 22.8328C141.814 23.1409 142.349 23.2949 143.009 23.2949C143.64 23.2949 144.219 23.1629 144.747 22.8988C145.275 22.6348 145.693 22.2755 146.001 21.8208C146.324 21.3514 146.507 20.816 146.551 20.2147L147.344 20.5887C147.344 21.4834 147.138 22.2828 146.727 22.9868C146.317 23.6762 145.745 24.2189 145.011 24.6149C144.278 24.9963 143.442 25.187 142.503 25.187ZM152.831 24.835H150.367V8.99398H152.831V24.835ZM157.172 24.835H154.708V8.99398H157.172V24.835ZM168.465 21.5128L169.873 23.0529C169.301 23.7129 168.59 24.2336 167.739 24.6149C166.888 24.9963 165.942 25.187 164.901 25.187C163.669 25.187 162.576 24.9376 161.623 24.4389C160.684 23.9402 159.943 23.2509 159.401 22.3708C158.873 21.4908 158.609 20.486 158.609 19.3566C158.609 18.2126 158.865 17.2005 159.379 16.3204C159.892 15.4404 160.596 14.751 161.491 14.2523C162.385 13.7536 163.39 13.5043 164.505 13.5043C165.59 13.5043 166.551 13.7536 167.387 14.2523C168.223 14.7363 168.883 15.411 169.367 16.2764C169.851 17.1272 170.093 18.1172 170.093 19.2466V19.3786H167.651V19.1366C167.651 18.4032 167.512 17.7652 167.233 17.2225C166.969 16.6651 166.602 16.2398 166.133 15.9464C165.664 15.6384 165.114 15.4844 164.483 15.4844C163.823 15.4844 163.236 15.6457 162.723 15.9684C162.224 16.2764 161.835 16.7165 161.557 17.2885C161.278 17.8459 161.139 18.5206 161.139 19.3126C161.139 20.1047 161.3 20.794 161.623 21.3807C161.96 21.9675 162.415 22.4221 162.987 22.7448C163.574 23.0529 164.248 23.2069 165.011 23.2069C166.404 23.2069 167.556 22.6422 168.465 21.5128ZM170.093 20.1267H160.325V18.4546H169.741L170.093 19.2686V20.1267ZM177.989 24.835H175.283C174.359 24.835 173.662 24.6003 173.193 24.1309C172.724 23.6469 172.489 22.9502 172.489 22.0408V10.8421H174.953V21.6668C174.953 22.0481 175.041 22.3341 175.217 22.5248C175.393 22.7008 175.672 22.7888 176.053 22.7888H177.989V24.835ZM177.835 15.8584H170.443V13.8563H177.835V15.8584Z" fill="#D7E2F7"/>
<path d="M55.0117 0.00769167C55.0523 -0.00110449 55.0914 -0.00180576 55.1279 0.00280886C55.3831 0.0350288 55.5224 0.363182 55.3174 0.568239L40.9326 14.9618C40.4874 15.4069 40.2364 16.0127 40.2354 16.6425V35.7372C40.2353 35.8856 40.1461 35.9969 40.0303 36.0448C39.9724 36.0688 39.9078 36.0772 39.8447 36.0663C39.7815 36.0554 39.7195 36.025 39.667 35.9725L29.3965 25.7059C29.2084 25.518 29.1035 25.2635 29.1035 24.9989V7.1825C29.1035 6.28802 29.7273 5.51423 30.6016 5.3241L55.0107 0.00769167H55.0117ZM56.1025 20.2899C56.1025 20.5546 55.9965 20.8081 55.8096 20.995L41.9443 34.8319C41.9218 34.8544 41.8953 34.8673 41.8682 34.8719C41.8413 34.8765 41.8137 34.8733 41.7891 34.8632C41.7394 34.8427 41.7012 34.7946 41.7012 34.7313L41.7031 27.6766L46.3975 23.0292C47.0655 22.4521 47.3423 22.2071 47.7549 22.1835C47.8235 22.1795 47.896 22.1816 47.9746 22.1893C48.0532 22.1971 48.138 22.2109 48.2314 22.2294C48.6039 22.303 48.9558 22.3574 49.2842 22.3759C49.4156 22.3833 49.5432 22.385 49.667 22.3798C50.2241 22.3563 50.7026 22.1941 51.0898 21.7948C51.427 21.447 51.853 20.8961 52.0713 19.495C52.2236 18.511 52.33 17.8887 52.5439 17.3173C52.7579 16.7459 53.0748 16.3556 53.4551 15.9764V15.9755L56.1201 13.2977L56.1025 20.2899ZM55.749 7.92078C55.8852 7.78481 56.1161 7.88195 56.1162 8.0741L56.0967 11.2147L53.1006 14.3309C52.5193 14.8958 51.9466 15.6702 51.6904 16.2762C51.4354 16.8811 51.1497 17.8849 51.0049 18.7479C50.8611 19.61 50.8812 20.1326 50.1377 20.6014C49.3944 21.0697 48.7644 20.4166 47.8613 20.3905L47.8604 20.3915C46.962 20.3657 46.3129 21.018 46.3057 21.0253L41.7021 25.6444V22.5536C41.7021 22.1755 41.8521 21.8117 42.1201 21.5438L55.749 7.92078ZM55.9277 2.16785C56.0288 2.17959 56.1201 2.2615 56.1201 2.38172V5.4989H56.1211L41.7021 19.9501V16.8651C41.7021 16.4872 41.8523 16.1242 42.1201 15.8563L55.752 2.22937C55.8026 2.17876 55.8671 2.16081 55.9277 2.16785Z" fill="#D7E2F7"/>
<path d="M3.67294 24.128C2.95827 24.128 2.40894 23.928 2.02494 23.528C1.64627 23.1227 1.45694 22.5653 1.45694 21.856V17.272H0.616938C0.510271 17.272 0.419604 17.2373 0.344938 17.168C0.270271 17.0987 0.232938 16.9947 0.232938 16.856V16.072L1.55294 15.856L1.96894 13.616C1.9956 13.5093 2.04627 13.4267 2.12094 13.368C2.1956 13.3093 2.2916 13.28 2.40894 13.28H3.43294V15.864H5.62494V17.272H3.43294V21.72C3.43294 21.976 3.49427 22.176 3.61694 22.32C3.74494 22.464 3.91827 22.536 4.13694 22.536C4.2596 22.536 4.36094 22.5227 4.44094 22.496C4.52627 22.464 4.59827 22.432 4.65694 22.4C4.72094 22.368 4.77694 22.3387 4.82494 22.312C4.87294 22.28 4.92094 22.264 4.96894 22.264C5.0276 22.264 5.0756 22.28 5.11294 22.312C5.15027 22.3387 5.19027 22.3813 5.23294 22.44L5.82494 23.4C5.53694 23.64 5.20627 23.8213 4.83294 23.944C4.4596 24.0667 4.07294 24.128 3.67294 24.128ZM10.4596 15.664C11.0676 15.664 11.6196 15.7627 12.1156 15.96C12.6169 16.1573 13.0436 16.4373 13.3956 16.8C13.7529 17.1627 14.0276 17.6053 14.2196 18.128C14.4116 18.6507 14.5076 19.2347 14.5076 19.88C14.5076 20.5307 14.4116 21.1173 14.2196 21.64C14.0276 22.1627 13.7529 22.608 13.3956 22.976C13.0436 23.344 12.6169 23.6267 12.1156 23.824C11.6196 24.0213 11.0676 24.12 10.4596 24.12C9.84623 24.12 9.2889 24.0213 8.78756 23.824C8.28623 23.6267 7.8569 23.344 7.49956 22.976C7.14756 22.608 6.8729 22.1627 6.67556 21.64C6.48356 21.1173 6.38756 20.5307 6.38756 19.88C6.38756 19.2347 6.48356 18.6507 6.67556 18.128C6.8729 17.6053 7.14756 17.1627 7.49956 16.8C7.8569 16.4373 8.28623 16.1573 8.78756 15.96C9.2889 15.7627 9.84623 15.664 10.4596 15.664ZM10.4596 22.6C11.1422 22.6 11.6462 22.3707 11.9716 21.912C12.3022 21.4533 12.4676 20.7813 12.4676 19.896C12.4676 19.0107 12.3022 18.336 11.9716 17.872C11.6462 17.408 11.1422 17.176 10.4596 17.176C9.76623 17.176 9.25156 17.4107 8.91556 17.88C8.5849 18.344 8.41956 19.016 8.41956 19.896C8.41956 20.776 8.5849 21.448 8.91556 21.912C9.25156 22.3707 9.76623 22.6 10.4596 22.6Z" fill="#D7E2F7"/>
</svg>
