<svg width="260" height="298" viewBox="0 0 260 298" fill="none" xmlns="http://www.w3.org/2000/svg">
<path d="M119.655 6.2793C126.055 3.53675 133.272 3.4513 139.723 6.02246L140.345 6.2793L243.044 50.2939C252.699 54.432 258.96 63.9259 258.96 74.4307V128.543C258.96 175.816 236.309 220.201 198.085 247.941L197.18 248.594L145.264 285.677C136.276 292.097 124.25 292.198 115.167 285.979L114.736 285.677L62.8203 248.594C24.0499 220.9 1.04004 176.188 1.04004 128.543V74.4307C1.04004 64.09 7.10644 54.7293 16.5059 50.4922L16.9561 50.2939L119.655 6.2793Z" stroke="#4A98DC" stroke-opacity="0.05" stroke-width="2.08"/>
<path d="M120.451 17.2803C126.358 14.7487 133.02 14.6696 138.975 17.043L139.549 17.2803L234.349 57.9092C243.261 61.7289 249.04 70.492 249.04 80.1885V130.139C249.04 173.775 228.131 214.746 192.848 240.353L192.012 240.955L144.089 275.186C135.792 281.112 124.692 281.205 116.308 275.464L115.911 275.186L67.9883 240.955C32.2001 215.392 10.96 174.119 10.96 130.139V80.1885C10.9601 70.6434 16.56 62.0028 25.2363 58.0918L25.6514 57.9092L120.451 17.2803Z" stroke="#4B98DC" stroke-opacity="0.15" stroke-width="1.92"/>
<path d="M121.294 28.3916C126.68 26.0835 132.754 26.0109 138.183 28.1748L138.706 28.3916L225.605 65.6338C233.731 69.1163 239 77.1066 239 85.9473V131.734C239 171.382 220.152 208.626 188.301 232.11L186.774 233.219L142.846 264.597C135.282 270 125.161 270.084 117.517 264.85L117.154 264.597L73.2256 233.219C40.4513 209.808 21 172.011 21 131.734V85.9473C21 77.2448 26.1053 69.3666 34.0156 65.8008L34.3945 65.6338L121.294 28.3916Z" stroke="#4895DB" stroke-opacity="0.35" stroke-width="2"/>
<path d="M77.8584 226.328L117.794 254.853C125.096 260.069 134.904 260.069 142.206 254.853L182.141 226.328C212.176 204.875 230 170.239 230 133.33V91.7051C230 83.3045 224.994 75.7122 217.272 72.403L138.272 38.5459C132.99 36.2819 127.01 36.2819 121.728 38.5459L42.7277 72.403C35.0063 75.7122 30 83.3045 30 91.7051V133.33C30 170.239 47.8247 204.875 77.8584 226.328Z" fill="black"/>
<path d="M77.8584 226.328L117.794 254.853C125.096 260.069 134.904 260.069 142.206 254.853L182.141 226.328C212.176 204.875 230 170.239 230 133.33V91.7051C230 83.3045 224.994 75.7122 217.272 72.403L138.272 38.5459C132.99 36.2819 127.01 36.2819 121.728 38.5459L42.7277 72.403C35.0063 75.7122 30 83.3045 30 91.7051V133.33C30 170.239 47.8247 204.875 77.8584 226.328Z" fill="url(#paint0_linear_4774_13798)"/>
<path d="M77.8584 226.328L117.794 254.853C125.096 260.069 134.904 260.069 142.206 254.853L182.141 226.328C212.176 204.875 230 170.239 230 133.33V91.7051C230 83.3045 224.994 75.7122 217.272 72.403L138.272 38.5459C132.99 36.2819 127.01 36.2819 121.728 38.5459L42.7277 72.403C35.0063 75.7122 30 83.3045 30 91.7051V133.33C30 170.239 47.8247 204.875 77.8584 226.328Z" fill="url(#paint1_linear_4774_13798)"/>
<path d="M77.8584 226.328L117.794 254.853C125.096 260.069 134.904 260.069 142.206 254.853L182.141 226.328C212.176 204.875 230 170.239 230 133.33V91.7051C230 83.3045 224.994 75.7122 217.272 72.403L138.272 38.5459C132.99 36.2819 127.01 36.2819 121.728 38.5459L42.7277 72.403C35.0063 75.7122 30 83.3045 30 91.7051V133.33C30 170.239 47.8247 204.875 77.8584 226.328Z" fill="url(#paint2_linear_4774_13798)"/>
<path d="M77.8584 226.328L117.794 254.853C125.096 260.069 134.904 260.069 142.206 254.853L182.141 226.328C212.176 204.875 230 170.239 230 133.33V91.7051C230 83.3045 224.994 75.7122 217.272 72.403L138.272 38.5459C132.99 36.2819 127.01 36.2819 121.728 38.5459L42.7277 72.403C35.0063 75.7122 30 83.3045 30 91.7051V133.33C30 170.239 47.8247 204.875 77.8584 226.328Z" fill="url(#paint3_linear_4774_13798)"/>
<path d="M123.479 42.6305C127.513 40.9015 132.063 40.8482 136.13 42.4693L136.521 42.6305L215.521 76.4879C221.609 79.0967 225.556 85.0821 225.556 91.7047V133.33C225.556 168.249 208.955 201.051 180.902 221.735L179.559 222.712L139.623 251.237C134.047 255.22 126.615 255.344 120.923 251.61L120.377 251.237L80.4414 222.712C51.5757 202.093 34.4443 168.803 34.4443 133.33V91.7047C34.4445 85.2892 38.1486 79.4719 43.9141 76.7428L44.4785 76.4879L123.479 42.6305Z" stroke="url(#paint4_linear_4774_13798)" stroke-width="8.88889"/>
<path d="M123.479 42.6305C127.513 40.9015 132.063 40.8482 136.13 42.4693L136.521 42.6305L215.521 76.4879C221.609 79.0967 225.556 85.0821 225.556 91.7047V133.33C225.556 168.249 208.955 201.051 180.902 221.735L179.559 222.712L139.623 251.237C134.047 255.22 126.615 255.344 120.923 251.61L120.377 251.237L80.4414 222.712C51.5757 202.093 34.4443 168.803 34.4443 133.33V91.7047C34.4445 85.2892 38.1486 79.4719 43.9141 76.7428L44.4785 76.4879L123.479 42.6305Z" stroke="url(#paint5_linear_4774_13798)" stroke-width="8.88889"/>
<path d="M123.479 42.6305C127.513 40.9015 132.063 40.8482 136.13 42.4693L136.521 42.6305L215.521 76.4879C221.609 79.0967 225.556 85.0821 225.556 91.7047V133.33C225.556 168.249 208.955 201.051 180.902 221.735L179.559 222.712L139.623 251.237C134.047 255.22 126.615 255.344 120.923 251.61L120.377 251.237L80.4414 222.712C51.5757 202.093 34.4443 168.803 34.4443 133.33V91.7047C34.4445 85.2892 38.1486 79.4719 43.9141 76.7428L44.4785 76.4879L123.479 42.6305Z" stroke="url(#paint6_linear_4774_13798)" stroke-width="8.88889"/>
<path d="M123.479 42.6305C127.513 40.9015 132.063 40.8482 136.13 42.4693L136.521 42.6305L215.521 76.4879C221.609 79.0967 225.556 85.0821 225.556 91.7047V133.33C225.556 168.249 208.955 201.051 180.902 221.735L179.559 222.712L139.623 251.237C134.047 255.22 126.615 255.344 120.923 251.61L120.377 251.237L80.4414 222.712C51.5757 202.093 34.4443 168.803 34.4443 133.33V91.7047C34.4445 85.2892 38.1486 79.4719 43.9141 76.7428L44.4785 76.4879L123.479 42.6305Z" stroke="url(#paint7_linear_4774_13798)" stroke-width="8.88889"/>
<g filter="url(#filter0_ii_4774_13798)">
<path d="M77.8584 226.328L117.794 254.853C125.096 260.069 134.904 260.069 142.206 254.853L182.141 226.328C212.176 204.875 230 170.239 230 133.33V91.7051C230 83.3045 224.994 75.7122 217.272 72.403L138.272 38.5459C132.99 36.2819 127.01 36.2819 121.728 38.5459L42.7277 72.403C35.0063 75.7122 30 83.3045 30 91.7051V133.33C30 170.239 47.8247 204.875 77.8584 226.328Z" fill="black" fill-opacity="0.01"/>
</g>
<rect x="67" y="111" width="126" height="68.5833" rx="8.83333" fill="url(#paint8_linear_4774_13798)" stroke="url(#paint9_linear_4774_13798)" stroke-width="4"/>
<g filter="url(#filter1_d_4774_13798)">
<path d="M85.027 155.008L85.4252 147.997L79.5392 151.857L77.4272 148.187L83.7113 145.037L77.4272 141.886L79.5392 138.216L85.4252 142.076L85.027 135.065H89.2338L88.8529 142.076L94.739 138.216L96.851 141.886L90.5495 145.037L96.851 148.187L94.739 151.857L88.8529 147.997L89.2338 155.008H85.027ZM113.447 155.008L113.845 147.997L107.959 151.857L105.847 148.187L112.131 145.037L105.847 141.886L107.959 138.216L113.845 142.076L113.447 135.065H117.654L117.273 142.076L123.159 138.216L125.271 141.886L118.969 145.037L125.271 148.187L123.159 151.857L117.273 147.997L117.654 155.008H113.447ZM141.866 155.008L142.265 147.997L136.379 151.857L134.267 148.187L140.551 145.037L134.267 141.886L136.379 138.216L142.265 142.076L141.866 135.065H146.073L145.692 142.076L151.578 138.216L153.69 141.886L147.389 145.037L153.69 148.187L151.578 151.857L145.692 147.997L146.073 155.008H141.866ZM170.286 155.008L170.684 147.997L164.798 151.857L162.686 148.187L168.971 145.037L162.686 141.886L164.798 138.216L170.684 142.076L170.286 135.065H174.493L174.112 142.076L179.998 138.216L182.11 141.886L175.809 145.037L182.11 148.187L179.998 151.857L174.112 147.997L174.493 155.008H170.286Z" fill="#2C71CC"/>
</g>
<path d="M164.716 223.418H215.284C220.845 223.418 224.31 217.386 221.508 212.582L196.224 169.239C193.443 164.472 186.556 164.472 183.776 169.239L158.492 212.582C155.69 217.386 159.155 223.418 164.716 223.418Z" fill="#D9D9D9"/>
<path d="M164.716 223.418H215.284C220.845 223.418 224.31 217.386 221.508 212.582L196.224 169.239C193.443 164.472 186.556 164.472 183.776 169.239L158.492 212.582C155.69 217.386 159.155 223.418 164.716 223.418Z" fill="url(#paint10_linear_4774_13798)"/>
<path d="M164.716 223.418H215.284C220.845 223.418 224.31 217.386 221.508 212.582L196.224 169.239C193.443 164.472 186.556 164.472 183.776 169.239L158.492 212.582C155.69 217.386 159.155 223.418 164.716 223.418Z" stroke="#312938" stroke-width="3.25" stroke-linecap="round" stroke-linejoin="round"/>
<path d="M164.716 223.418H215.284C220.845 223.418 224.31 217.386 221.508 212.582L196.224 169.239C193.443 164.472 186.556 164.472 183.776 169.239L158.492 212.582C155.69 217.386 159.155 223.418 164.716 223.418Z" stroke="url(#paint11_linear_4774_13798)" stroke-width="3.25" stroke-linecap="round" stroke-linejoin="round"/>
<path d="M189.925 208.896H189.961M189.925 198.088V187.28" stroke="#312938" stroke-width="7.20545" stroke-linecap="round" stroke-linejoin="round"/>
<defs>
<filter id="filter0_ii_4774_13798" x="30" y="36.8479" width="200" height="221.917" filterUnits="userSpaceOnUse" color-interpolation-filters="sRGB">
<feFlood flood-opacity="0" result="BackgroundImageFix"/>
<feBlend mode="normal" in="SourceGraphic" in2="BackgroundImageFix" result="shape"/>
<feColorMatrix in="SourceAlpha" type="matrix" values="0 0 0 0 0 0 0 0 0 0 0 0 0 0 0 0 0 0 127 0" result="hardAlpha"/>
<feOffset dy="2"/>
<feComposite in2="hardAlpha" operator="arithmetic" k2="-1" k3="1"/>
<feColorMatrix type="matrix" values="0 0 0 0 1 0 0 0 0 1 0 0 0 0 1 0 0 0 0.5 0"/>
<feBlend mode="normal" in2="shape" result="effect1_innerShadow_4774_13798"/>
<feColorMatrix in="SourceAlpha" type="matrix" values="0 0 0 0 0 0 0 0 0 0 0 0 0 0 0 0 0 0 127 0" result="hardAlpha"/>
<feOffset dy="-2"/>
<feComposite in2="hardAlpha" operator="arithmetic" k2="-1" k3="1"/>
<feColorMatrix type="matrix" values="0 0 0 0 0.022328 0 0 0 0 0.298259 0 0 0 0 0.663462 0 0 0 1 0"/>
<feBlend mode="normal" in2="effect1_innerShadow_4774_13798" result="effect2_innerShadow_4774_13798"/>
</filter>
<filter id="filter1_d_4774_13798" x="68.1106" y="125.748" width="123.316" height="38.5765" filterUnits="userSpaceOnUse" color-interpolation-filters="sRGB">
<feFlood flood-opacity="0" result="BackgroundImageFix"/>
<feColorMatrix in="SourceAlpha" type="matrix" values="0 0 0 0 0 0 0 0 0 0 0 0 0 0 0 0 0 0 127 0" result="hardAlpha"/>
<feOffset/>
<feGaussianBlur stdDeviation="4.65833"/>
<feComposite in2="hardAlpha" operator="out"/>
<feColorMatrix type="matrix" values="0 0 0 0 0.172549 0 0 0 0 0.443137 0 0 0 0 0.8 0 0 0 0.3 0"/>
<feBlend mode="normal" in2="BackgroundImageFix" result="effect1_dropShadow_4774_13798"/>
<feBlend mode="normal" in="SourceGraphic" in2="effect1_dropShadow_4774_13798" result="shape"/>
</filter>
<linearGradient id="paint0_linear_4774_13798" x1="130" y1="35.0006" x2="130" y2="263.572" gradientUnits="userSpaceOnUse">
<stop stop-color="#002A52"/>
<stop offset="1" stop-color="#0652DF"/>
</linearGradient>
<linearGradient id="paint1_linear_4774_13798" x1="130" y1="35.0006" x2="130" y2="263.572" gradientUnits="userSpaceOnUse">
<stop stop-color="#19233C"/>
<stop offset="1" stop-color="#144CD8"/>
</linearGradient>
<linearGradient id="paint2_linear_4774_13798" x1="130" y1="35.0006" x2="130" y2="263.572" gradientUnits="userSpaceOnUse">
<stop stop-color="#19233C"/>
<stop offset="1" stop-color="#1647C3"/>
</linearGradient>
<linearGradient id="paint3_linear_4774_13798" x1="130" y1="35.0006" x2="130" y2="263.572" gradientUnits="userSpaceOnUse">
<stop offset="0.144488" stop-color="#FAFAFA"/>
<stop offset="1" stop-color="#72AAFF"/>
</linearGradient>
<linearGradient id="paint4_linear_4774_13798" x1="130" y1="35.0006" x2="130" y2="263.572" gradientUnits="userSpaceOnUse">
<stop stop-color="#C1F2FF"/>
<stop offset="0.42" stop-color="#2077F8"/>
<stop offset="0.700262" stop-color="#000F4D"/>
</linearGradient>
<linearGradient id="paint5_linear_4774_13798" x1="130" y1="35.0006" x2="130" y2="263.572" gradientUnits="userSpaceOnUse">
<stop stop-color="#C1F2FF"/>
<stop offset="0.700262" stop-color="#718CF5"/>
</linearGradient>
<linearGradient id="paint6_linear_4774_13798" x1="130" y1="35.0006" x2="130" y2="263.572" gradientUnits="userSpaceOnUse">
<stop stop-color="#D8E3FF"/>
<stop offset="0.700262" stop-color="#718CF5"/>
</linearGradient>
<linearGradient id="paint7_linear_4774_13798" x1="130" y1="35.0006" x2="130" y2="263.572" gradientUnits="userSpaceOnUse">
<stop stop-color="#68BEEF"/>
<stop offset="0.700262" stop-color="#2C71CC"/>
</linearGradient>
<linearGradient id="paint8_linear_4774_13798" x1="147.5" y1="170" x2="69.5" y2="100" gradientUnits="userSpaceOnUse">
<stop offset="0.0455724" stop-color="white" stop-opacity="0"/>
<stop offset="1" stop-color="white" stop-opacity="0.5"/>
</linearGradient>
<linearGradient id="paint9_linear_4774_13798" x1="65" y1="109" x2="195" y2="185.5" gradientUnits="userSpaceOnUse">
<stop stop-color="#4794DA"/>
<stop offset="0.954879" stop-color="#72AAFF" stop-opacity="0.2"/>
</linearGradient>
<linearGradient id="paint10_linear_4774_13798" x1="190" y1="165.664" x2="190.433" y2="233.264" gradientUnits="userSpaceOnUse">
<stop stop-color="#FFC414"/>
<stop offset="1" stop-color="#FF9500"/>
</linearGradient>
<linearGradient id="paint11_linear_4774_13798" x1="190" y1="165.664" x2="190" y2="223.418" gradientUnits="userSpaceOnUse">
<stop stop-color="#5C486E"/>
<stop offset="1" stop-color="#312938"/>
</linearGradient>
</defs>
</svg>
