<svg width="260" height="298" viewBox="0 0 260 298" fill="none" xmlns="http://www.w3.org/2000/svg">
<path d="M119.655 6.27832C126.055 3.53578 133.272 3.45033 139.723 6.02148L140.345 6.27832L243.044 50.293C252.699 54.431 258.96 63.925 258.96 74.4297V128.542C258.96 175.815 236.309 220.2 198.085 247.94L197.18 248.593L145.264 285.676C136.276 292.096 124.25 292.197 115.167 285.978L114.736 285.676L62.8203 248.593C24.0499 220.899 1.04004 176.187 1.04004 128.542V74.4297C1.04004 64.0891 7.10644 54.7283 16.5059 50.4912L16.9561 50.293L119.655 6.27832Z" stroke="#708BF4" stroke-opacity="0.05" stroke-width="2.08"/>
<path d="M120.451 17.2793C126.358 14.7477 133.02 14.6687 138.975 17.042L139.549 17.2793L234.349 57.9082C243.261 61.7279 249.04 70.491 249.04 80.1875V130.138C249.04 173.775 228.131 214.745 192.848 240.352L192.012 240.954L144.089 275.185C135.792 281.111 124.692 281.204 116.308 275.463L115.911 275.185L67.9883 240.954C32.2001 215.391 10.96 174.118 10.96 130.138V80.1875C10.9601 70.6424 16.56 62.0019 25.2363 58.0908L25.6514 57.9082L120.451 17.2793Z" stroke="#708BF4" stroke-opacity="0.15" stroke-width="1.92"/>
<path d="M121.294 28.3906C126.68 26.0825 132.754 26.0099 138.183 28.1738L138.706 28.3906L225.605 65.6328C233.731 69.1153 239 77.1057 239 85.9463V131.733C239 171.381 220.152 208.625 188.301 232.109L186.774 233.218L142.846 264.596C135.282 269.999 125.161 270.083 117.517 264.849L117.154 264.596L73.2256 233.218C40.4513 209.807 21 172.01 21 131.733V85.9463C21 77.2438 26.1053 69.3657 34.0156 65.7998L34.3945 65.6328L121.294 28.3906Z" stroke="#708BF4" stroke-opacity="0.5" stroke-width="2"/>
<path d="M77.8584 226.327L117.794 254.852C125.096 260.068 134.904 260.068 142.206 254.852L182.141 226.327C212.176 204.874 230 170.238 230 133.329V91.7041C230 83.3035 224.994 75.7112 217.272 72.4021L138.272 38.5449C132.99 36.281 127.01 36.281 121.728 38.5449L42.7277 72.4021C35.0063 75.7112 30 83.3035 30 91.7041V133.329C30 170.238 47.8247 204.874 77.8584 226.327Z" fill="black"/>
<path d="M77.8584 226.327L117.794 254.852C125.096 260.068 134.904 260.068 142.206 254.852L182.141 226.327C212.176 204.874 230 170.238 230 133.329V91.7041C230 83.3035 224.994 75.7112 217.272 72.4021L138.272 38.5449C132.99 36.281 127.01 36.281 121.728 38.5449L42.7277 72.4021C35.0063 75.7112 30 83.3035 30 91.7041V133.329C30 170.238 47.8247 204.874 77.8584 226.327Z" fill="url(#paint0_linear_4774_13703)"/>
<path d="M123.479 42.6295C127.513 40.9005 132.063 40.8473 136.13 42.4684L136.521 42.6295L215.521 76.4869C221.609 79.0957 225.556 85.0812 225.556 91.7037V133.329C225.556 168.248 208.955 201.05 180.902 221.734L179.559 222.711L139.623 251.236C134.047 255.219 126.615 255.343 120.923 251.609L120.377 251.236L80.4414 222.711C51.5757 202.092 34.4443 168.802 34.4443 133.329V91.7037C34.4445 85.2882 38.1486 79.4709 43.9141 76.7418L44.4785 76.4869L123.479 42.6295Z" stroke="url(#paint1_linear_4774_13703)" stroke-width="8.88889"/>
<path d="M123.479 42.6295C127.513 40.9005 132.063 40.8473 136.13 42.4684L136.521 42.6295L215.521 76.4869C221.609 79.0957 225.556 85.0812 225.556 91.7037V133.329C225.556 168.248 208.955 201.05 180.902 221.734L179.559 222.711L139.623 251.236C134.047 255.219 126.615 255.343 120.923 251.609L120.377 251.236L80.4414 222.711C51.5757 202.092 34.4443 168.802 34.4443 133.329V91.7037C34.4445 85.2882 38.1486 79.4709 43.9141 76.7418L44.4785 76.4869L123.479 42.6295Z" stroke="url(#paint2_linear_4774_13703)" stroke-width="8.88889"/>
<path d="M123.479 42.6295C127.513 40.9005 132.063 40.8473 136.13 42.4684L136.521 42.6295L215.521 76.4869C221.609 79.0957 225.556 85.0812 225.556 91.7037V133.329C225.556 168.248 208.955 201.05 180.902 221.734L179.559 222.711L139.623 251.236C134.047 255.219 126.615 255.343 120.923 251.609L120.377 251.236L80.4414 222.711C51.5757 202.092 34.4443 168.802 34.4443 133.329V91.7037C34.4445 85.2882 38.1486 79.4709 43.9141 76.7418L44.4785 76.4869L123.479 42.6295Z" stroke="url(#paint3_linear_4774_13703)" stroke-width="8.88889"/>
<g filter="url(#filter0_ii_4774_13703)">
<path d="M77.8584 226.327L117.794 254.852C125.096 260.068 134.904 260.068 142.206 254.852L182.141 226.327C212.176 204.874 230 170.238 230 133.329V91.7041C230 83.3035 224.994 75.7112 217.272 72.4021L138.272 38.5449C132.99 36.281 127.01 36.281 121.728 38.5449L42.7277 72.4021C35.0063 75.7112 30 83.3035 30 91.7041V133.329C30 170.238 47.8247 204.874 77.8584 226.327Z" fill="black" fill-opacity="0.01"/>
</g>
<rect x="66.5" y="110.5" width="127" height="69.5833" rx="9.33333" fill="url(#paint4_linear_4774_13703)" fill-opacity="0.15" stroke="url(#paint5_linear_4774_13703)" stroke-width="3"/>
<g filter="url(#filter1_d_4774_13703)">
<path d="M85.027 155.008L85.4252 147.997L79.5392 151.857L77.4272 148.187L83.7113 145.037L77.4272 141.886L79.5392 138.216L85.4252 142.076L85.027 135.065H89.2338L88.8529 142.076L94.739 138.216L96.851 141.886L90.5495 145.037L96.851 148.187L94.739 151.857L88.8529 147.997L89.2338 155.008H85.027ZM113.447 155.008L113.845 147.997L107.959 151.857L105.847 148.187L112.131 145.037L105.847 141.886L107.959 138.216L113.845 142.076L113.447 135.065H117.654L117.273 142.076L123.159 138.216L125.271 141.886L118.969 145.037L125.271 148.187L123.159 151.857L117.273 147.997L117.654 155.008H113.447ZM141.866 155.008L142.265 147.997L136.379 151.857L134.267 148.187L140.551 145.037L134.267 141.886L136.379 138.216L142.265 142.076L141.866 135.065H146.073L145.692 142.076L151.578 138.216L153.69 141.886L147.389 145.037L153.69 148.187L151.578 151.857L145.692 147.997L146.073 155.008H141.866ZM170.286 155.008L170.684 147.997L164.798 151.857L162.686 148.187L168.971 145.037L162.686 141.886L164.798 138.216L170.684 142.076L170.286 135.065H174.493L174.112 142.076L179.998 138.216L182.11 141.886L175.809 145.037L182.11 148.187L179.998 151.857L174.112 147.997L174.493 155.008H170.286Z" fill="#EFEFF8"/>
</g>
<path d="M164.716 223.419H215.284C220.845 223.419 224.31 217.386 221.508 212.583L196.224 169.239C193.443 164.473 186.556 164.473 183.776 169.239L158.492 212.583C155.69 217.386 159.155 223.419 164.716 223.419Z" fill="#D9D9D9"/>
<path d="M164.716 223.419H215.284C220.845 223.419 224.31 217.386 221.508 212.583L196.224 169.239C193.443 164.473 186.556 164.473 183.776 169.239L158.492 212.583C155.69 217.386 159.155 223.419 164.716 223.419Z" fill="url(#paint6_linear_4774_13703)"/>
<path d="M164.716 223.419H215.284C220.845 223.419 224.31 217.386 221.508 212.583L196.224 169.239C193.443 164.473 186.556 164.473 183.776 169.239L158.492 212.583C155.69 217.386 159.155 223.419 164.716 223.419Z" stroke="#312938" stroke-width="3.25" stroke-linecap="round" stroke-linejoin="round"/>
<path d="M164.716 223.419H215.284C220.845 223.419 224.31 217.386 221.508 212.583L196.224 169.239C193.443 164.473 186.556 164.473 183.776 169.239L158.492 212.583C155.69 217.386 159.155 223.419 164.716 223.419Z" stroke="url(#paint7_linear_4774_13703)" stroke-width="3.25" stroke-linecap="round" stroke-linejoin="round"/>
<path d="M164.716 223.419H215.284C220.845 223.419 224.31 217.386 221.508 212.583L196.224 169.239C193.443 164.473 186.556 164.473 183.776 169.239L158.492 212.583C155.69 217.386 159.155 223.419 164.716 223.419Z" stroke="url(#paint8_linear_4774_13703)" stroke-width="3.25" stroke-linecap="round" stroke-linejoin="round"/>
<path d="M189.925 208.897H189.961M189.925 198.089V187.281" stroke="#312938" stroke-width="7.20545" stroke-linecap="round" stroke-linejoin="round"/>
<defs>
<filter id="filter0_ii_4774_13703" x="30" y="36.8469" width="200" height="221.917" filterUnits="userSpaceOnUse" color-interpolation-filters="sRGB">
<feFlood flood-opacity="0" result="BackgroundImageFix"/>
<feBlend mode="normal" in="SourceGraphic" in2="BackgroundImageFix" result="shape"/>
<feColorMatrix in="SourceAlpha" type="matrix" values="0 0 0 0 0 0 0 0 0 0 0 0 0 0 0 0 0 0 127 0" result="hardAlpha"/>
<feOffset dy="2"/>
<feComposite in2="hardAlpha" operator="arithmetic" k2="-1" k3="1"/>
<feColorMatrix type="matrix" values="0 0 0 0 1 0 0 0 0 1 0 0 0 0 1 0 0 0 0.5 0"/>
<feBlend mode="plus-lighter" in2="shape" result="effect1_innerShadow_4774_13703"/>
<feColorMatrix in="SourceAlpha" type="matrix" values="0 0 0 0 0 0 0 0 0 0 0 0 0 0 0 0 0 0 127 0" result="hardAlpha"/>
<feOffset dy="-2"/>
<feComposite in2="hardAlpha" operator="arithmetic" k2="-1" k3="1"/>
<feColorMatrix type="matrix" values="0 0 0 0 0 0 0 0 0 0 0 0 0 0 0 0 0 0 0.5 0"/>
<feBlend mode="normal" in2="effect1_innerShadow_4774_13703" result="effect2_innerShadow_4774_13703"/>
</filter>
<filter id="filter1_d_4774_13703" x="68.1106" y="125.748" width="123.316" height="38.5765" filterUnits="userSpaceOnUse" color-interpolation-filters="sRGB">
<feFlood flood-opacity="0" result="BackgroundImageFix"/>
<feColorMatrix in="SourceAlpha" type="matrix" values="0 0 0 0 0 0 0 0 0 0 0 0 0 0 0 0 0 0 127 0" result="hardAlpha"/>
<feOffset/>
<feGaussianBlur stdDeviation="4.65833"/>
<feComposite in2="hardAlpha" operator="out"/>
<feColorMatrix type="matrix" values="0 0 0 0 0.937255 0 0 0 0 0.937255 0 0 0 0 0.972549 0 0 0 0.3 0"/>
<feBlend mode="normal" in2="BackgroundImageFix" result="effect1_dropShadow_4774_13703"/>
<feBlend mode="normal" in="SourceGraphic" in2="effect1_dropShadow_4774_13703" result="shape"/>
</filter>
<linearGradient id="paint0_linear_4774_13703" x1="130" y1="34.9996" x2="130" y2="263.571" gradientUnits="userSpaceOnUse">
<stop stop-color="#19233C"/>
<stop offset="1" stop-color="#1647C3"/>
</linearGradient>
<linearGradient id="paint1_linear_4774_13703" x1="130" y1="34.9996" x2="130" y2="263.571" gradientUnits="userSpaceOnUse">
<stop stop-color="#C1F2FF"/>
<stop offset="0.42" stop-color="#2077F8"/>
<stop offset="0.700262" stop-color="#000F4D"/>
</linearGradient>
<linearGradient id="paint2_linear_4774_13703" x1="130" y1="34.9996" x2="130" y2="263.571" gradientUnits="userSpaceOnUse">
<stop stop-color="#C1F2FF"/>
<stop offset="0.700262" stop-color="#718CF5"/>
</linearGradient>
<linearGradient id="paint3_linear_4774_13703" x1="130" y1="34.9996" x2="130" y2="263.571" gradientUnits="userSpaceOnUse">
<stop stop-color="#D8E3FF"/>
<stop offset="0.700262" stop-color="#718CF5"/>
</linearGradient>
<linearGradient id="paint4_linear_4774_13703" x1="130" y1="109" x2="130" y2="181.583" gradientUnits="userSpaceOnUse">
<stop stop-color="#5590FF"/>
<stop offset="1" stop-color="#5590FF" stop-opacity="0.5"/>
</linearGradient>
<linearGradient id="paint5_linear_4774_13703" x1="190.695" y1="181.583" x2="69.3054" y2="109" gradientUnits="userSpaceOnUse">
<stop stop-color="#EFEFF8" stop-opacity="0"/>
<stop offset="1" stop-color="#EFEFF8"/>
</linearGradient>
<linearGradient id="paint6_linear_4774_13703" x1="190" y1="165.664" x2="190.433" y2="233.264" gradientUnits="userSpaceOnUse">
<stop stop-color="#FFC414"/>
<stop offset="1" stop-color="#FF9500"/>
</linearGradient>
<linearGradient id="paint7_linear_4774_13703" x1="190" y1="165.664" x2="190" y2="223.419" gradientUnits="userSpaceOnUse">
<stop stop-color="#5C486E"/>
<stop offset="1" stop-color="#312938"/>
</linearGradient>
<linearGradient id="paint8_linear_4774_13703" x1="190" y1="165.664" x2="190" y2="223.419" gradientUnits="userSpaceOnUse">
<stop stop-color="white"/>
<stop offset="1" stop-color="#EBD4FF"/>
</linearGradient>
</defs>
</svg>
