<svg xmlns="http://www.w3.org/2000/svg" xmlns:xlink="http://www.w3.org/1999/xlink" version="1.1" width="256" height="256" viewBox="0 0 256 256" xml:space="preserve">

<defs>
</defs>
    <g style="stroke: none; stroke-width: 0; stroke-dasharray: none; stroke-linecap: butt; stroke-linejoin: miter; stroke-miterlimit: 10; fill: none; fill-rule: nonzero; opacity: 1;" transform="translate(1.4065934065934016 1.4065934065934016) scale(2.81 2.81)" >
	<path d="M 24.144 34.985 c -0.77 0.912 -2.003 1.631 -3.236 1.528 c -0.154 -1.233 0.449 -2.542 1.156 -3.351 c 0.77 -0.937 2.119 -1.605 3.21 -1.656 C 25.402 32.789 24.902 34.047 24.144 34.985 M 25.261 36.757 c -1.785 -0.103 -3.313 1.014 -4.16 1.014 c -0.86 0 -2.157 -0.963 -3.57 -0.937 c -1.836 0.026 -3.544 1.066 -4.481 2.722 c -1.926 3.313 -0.501 8.218 1.361 10.914 c 0.912 1.335 2.003 2.799 3.441 2.748 c 1.361 -0.051 1.9 -0.886 3.544 -0.886 c 1.656 0 2.131 0.886 3.57 0.86 c 1.489 -0.026 2.427 -1.335 3.338 -2.671 c 1.04 -1.515 1.464 -2.992 1.489 -3.069 c -0.026 -0.026 -2.876 -1.117 -2.902 -4.404 c -0.026 -2.748 2.247 -4.057 2.35 -4.134 C 27.958 37.014 25.954 36.808 25.261 36.757 M 35.572 33.033 v 20.018 h 3.107 v -6.844 h 4.301 c 3.929 0 6.69 -2.696 6.69 -6.6 s -2.709 -6.574 -6.587 -6.574 H 35.572 L 35.572 33.033 z M 38.679 35.652 h 3.582 c 2.696 0 4.237 1.438 4.237 3.968 c 0 2.529 -1.541 3.98 -4.25 3.98 h -3.57 V 35.652 z M 55.345 53.205 c 1.952 0 3.762 -0.989 4.584 -2.555 h 0.064 v 2.401 h 2.876 v -9.964 c 0 -2.889 -2.311 -4.751 -5.868 -4.751 c -3.3 0 -5.739 1.887 -5.829 4.481 h 2.799 c 0.231 -1.233 1.374 -2.042 2.94 -2.042 c 1.9 0 2.966 0.886 2.966 2.517 v 1.104 L 56 44.628 c -3.608 0.218 -5.56 1.695 -5.56 4.263 C 50.44 51.484 52.456 53.205 55.345 53.205 z M 56.18 50.829 c -1.656 0 -2.709 -0.796 -2.709 -2.016 c 0 -1.258 1.014 -1.99 2.953 -2.106 l 3.454 -0.218 v 1.13 C 59.878 49.494 58.286 50.829 56.18 50.829 z M 66.709 58.495 c 3.03 0 4.455 -1.156 5.701 -4.661 l 5.457 -15.305 h -3.159 l -3.659 11.826 h -0.064 l -3.659 -11.826 h -3.249 l 5.264 14.573 l -0.282 0.886 c -0.475 1.502 -1.245 2.08 -2.619 2.08 c -0.244 0 -0.719 -0.026 -0.912 -0.051 v 2.401 C 65.707 58.469 66.478 58.495 66.709 58.495 z" style="stroke: none; stroke-width: 1; stroke-dasharray: none; stroke-linecap: butt; stroke-linejoin: miter; stroke-miterlimit: 10; fill: white; fill-rule: nonzero; opacity: 1;" transform=" matrix(1 0 0 1 0 0) " stroke-linecap="round" />
        <path d="M 45 90 C 20.187 90 0 69.813 0 45 C 0 20.187 20.187 0 45 0 c 24.813 0 45 20.187 45 45 C 90 69.813 69.813 90 45 90 z M 45 3 C 21.841 3 3 21.841 3 45 c 0 23.159 18.841 42 42 42 c 23.159 0 42 -18.841 42 -42 C 87 21.841 68.159 3 45 3 z" style="stroke: none; stroke-width: 1; stroke-dasharray: none; stroke-linecap: butt; stroke-linejoin: miter; stroke-miterlimit: 10; fill: white; fill-rule: nonzero; opacity: 1;" transform=" matrix(1 0 0 1 0 0) " stroke-linecap="round" />
</g>
</svg>