<svg width="45" height="45" viewBox="0 0 45 45" fill="none" xmlns="http://www.w3.org/2000/svg">
<rect x="1" y="1" width="43" height="43" rx="6.03125" fill="white"/>
<rect x="1" y="1" width="43" height="43" rx="6.03125" stroke="black" stroke-width="2"/>
<g clip-path="url(#clip0_10599_14372)">
<g clip-path="url(#clip1_10599_14372)">
<mask id="mask0_10599_14372" style="mask-type:luminance" maskUnits="userSpaceOnUse" x="8" y="6" width="29" height="33">
<path d="M36.6426 6.52493H8.0957V38.0249H36.6426V6.52493Z" fill="white"/>
</mask>
<g mask="url(#mask0_10599_14372)">
<path d="M24.7616 24.6685L23.1998 28.85C23.1538 28.966 23.1538 29.0948 23.1998 29.2108L25.8819 36.4077L28.9857 34.6552L25.2625 24.6685C25.1768 24.4366 24.8473 24.4366 24.7616 24.6685Z" fill="black"/>
<path d="M27.8845 17.6328C27.7989 17.4009 27.4694 17.4009 27.3838 17.6328L25.822 21.8144C25.7758 21.9304 25.7758 22.0593 25.822 22.1752L30.2173 33.9596L33.3211 32.207L27.8845 17.6328Z" fill="black"/>
<path d="M22.3691 8.47717C22.4482 8.47717 22.5207 8.4965 22.5932 8.53516L34.4284 15.2166C34.5668 15.2939 34.6525 15.4357 34.6525 15.5903V28.9531C34.6525 29.1078 34.5668 29.2495 34.4284 29.3268L22.5932 36.0147C22.5273 36.0533 22.4482 36.0727 22.3691 36.0727C22.2901 36.0727 22.2175 36.0533 22.1451 36.0147L10.3165 29.3333C10.1781 29.2559 10.0924 29.1142 10.0924 28.9596V15.5903C10.0924 15.4357 10.1781 15.2939 10.3165 15.2166L22.1517 8.53516C22.2175 8.4965 22.2967 8.47717 22.3691 8.47717ZM22.3691 6.52493C21.9474 6.52493 21.5256 6.63446 21.15 6.84708L9.31481 13.5285C8.56358 13.9538 8.0957 14.7398 8.0957 15.5903V28.9531C8.0957 29.8036 8.56358 30.5961 9.31481 31.0214L21.15 37.7027C21.5256 37.9154 21.9474 38.0249 22.3691 38.0249C22.7908 38.0249 23.2127 37.9154 23.5883 37.7027L35.4234 31.0214C36.1813 30.5961 36.6426 29.81 36.6426 28.9531V15.5903C36.6426 14.7398 36.1747 13.9473 35.4234 13.5221L23.5949 6.84708C23.2127 6.63446 22.7908 6.52493 22.3691 6.52493Z" fill="black"/>
<path d="M14.5483 33.9725L15.6357 31.0603L17.8235 32.8386L15.7806 34.6683L14.5483 33.9725Z" fill="black"/>
<path d="M21.374 14.6368H18.3757C18.1517 14.6368 17.9473 14.7721 17.8748 14.9783L11.4432 32.2199L14.547 33.9723L21.631 14.9848C21.6903 14.8172 21.5651 14.6368 21.374 14.6368Z" fill="black"/>
<path d="M26.6255 14.6368H23.6272C23.4032 14.6368 23.1988 14.7721 23.1264 14.9783L15.7788 34.6682L18.8826 36.4208L26.876 14.9912C26.9418 14.8172 26.8101 14.6368 26.6255 14.6368Z" fill="black"/>
</g>
</g>
</g>
<defs>
<clipPath id="clip0_10599_14372">
<rect width="31.5" height="31.5" fill="white" transform="translate(6.52502 6.52499)"/>
</clipPath>
<clipPath id="clip1_10599_14372">
<rect width="28.5469" height="31.5" fill="white" transform="translate(8.1001 6.52496)"/>
</clipPath>
</defs>
</svg>
