<svg width="32" height="32" viewBox="0 0 32 32" fill="none" xmlns="http://www.w3.org/2000/svg">
<path fill-rule="evenodd" clip-rule="evenodd" d="M16.0956 0C16.524 6.76387e-06 16.9526 0.111199 17.3409 0.327187L29.3571 7.10812C30.1203 7.54011 30.5955 8.34516 30.5956 9.20906V22.7841C30.5956 23.6545 30.127 24.4533 29.3571 24.8853L17.334 31.6725C16.9524 31.8885 16.524 32 16.0956 32C15.6672 32 15.2387 31.8885 14.8571 31.6725L2.83402 24.8853C2.07086 24.4533 1.59558 23.6481 1.59558 22.7841V9.20906C1.59562 8.34513 2.07089 7.54666 2.83402 7.11469L14.8571 0.327187C15.2387 0.111222 15.6672 0 16.0956 0ZM16.0956 1.98312C16.022 1.98312 15.9415 2.00291 15.8746 2.04219L3.85152 8.82969C3.71102 8.90822 3.62406 9.05205 3.62402 9.20906V22.7906C3.62402 22.9476 3.71095 23.0917 3.85152 23.1703L5.70027 24.2144L11.53 8.5875C11.6036 8.37808 11.8111 8.24063 12.0387 8.24062H15.0846C15.2787 8.24064 15.4058 8.42389 15.3456 8.59406L8.85339 25.9953L8.85496 25.9962L9.25527 24.9247L10.4159 25.8681L16.8646 8.5875C16.9382 8.37805 17.1461 8.24062 17.3737 8.24062H20.4196C20.607 8.24072 20.7409 8.42397 20.674 8.60062L13.2575 28.4831L15.8681 29.9578C15.9416 29.997 16.0153 30.0169 16.0956 30.0169C16.1759 30.0169 16.2562 29.997 16.3231 29.9578L18.9596 28.4675L16.9393 23.0459C16.8925 22.9281 16.8925 22.7972 16.9393 22.6794L18.5259 18.4316C18.6129 18.196 18.9475 18.196 19.0346 18.4316L22.1121 26.6862L23.3631 25.9794L19.6031 15.8987C19.5562 15.781 19.5562 15.65 19.6031 15.5322L21.1896 11.2841C21.2766 11.0485 21.6113 11.0486 21.6984 11.2841L26.5156 24.1978L28.3462 23.1637C28.4868 23.0852 28.5737 22.9412 28.5737 22.7841V9.20906C28.5737 9.05203 28.4868 8.90821 28.3462 8.82969L16.3231 2.04219C16.2495 2.00291 16.1759 1.98313 16.0956 1.98312Z" fill="white"/>
</svg>
