<svg width="45" height="45" viewBox="0 0 45 45" fill="none" xmlns="http://www.w3.org/2000/svg">
<g clip-path="url(#clip0_7309_8741)">
<rect width="45" height="45" rx="7.03125" fill="#0AC18E"/>
<path d="M29.5184 14.9448C28.3877 12.3808 25.7894 11.8325 22.6085 12.3636L21.5863 8.40042L19.1764 9.02288L20.1815 12.9747C19.5476 13.1346 18.8966 13.2716 18.2513 13.4544L17.2462 9.52542L14.8363 10.1479L15.8585 14.1111C15.3389 14.2596 10.993 15.3731 10.993 15.3731L11.6555 17.9544C11.6555 17.9544 13.4258 17.4575 13.4087 17.4975C14.3909 17.2405 14.8534 17.7316 15.0705 18.1942L17.8801 29.0559C17.9144 29.37 17.8573 29.9068 17.1834 30.0895C17.2234 30.1124 15.4302 30.5406 15.4302 30.5406L15.6929 33.5502C15.6929 33.5502 19.9988 32.448 20.5641 32.3052L21.5977 36.3141L24.0076 35.6917L22.974 31.6542C23.6364 31.5 24.2817 31.3401 24.9099 31.1745L25.9378 35.1891L28.3477 34.5667L27.3141 30.5635C31.026 29.6612 33.6472 27.3198 33.1104 23.7393C32.7678 21.5806 30.4093 19.8103 28.4505 19.6104C29.6555 18.5426 30.2665 16.9835 29.5184 14.9448ZM28.3592 24.396C28.8389 27.9423 23.9106 28.3763 22.283 28.8046L20.8668 23.4994C22.5 23.0711 27.5482 21.2722 28.3592 24.396ZM25.3896 17.172C25.8979 20.3243 21.6834 20.6898 20.3243 21.0381L19.0337 16.224C20.3985 15.8871 24.356 14.2538 25.3896 17.172Z" fill="white"/>
</g>
<rect x="1" y="1" width="43" height="43" rx="6.03125" stroke="black" stroke-width="2"/>
<defs>
<clipPath id="clip0_7309_8741">
<rect width="45" height="45" rx="7.03125" fill="white"/>
</clipPath>
</defs>
</svg>
