<svg width="163" height="178" viewBox="0 0 163 178" fill="none" xmlns="http://www.w3.org/2000/svg">
    <path d="M47.5763 28.5814C46.1363 28.5814 44.9689 27.414 44.9689 25.974V22.2461C44.9689 20.8061 46.1363 19.6387 47.5763 19.6387C49.0163 19.6387 50.1837 20.8061 50.1837 22.2461V25.974C50.1837 27.414 49.0163 28.5814 47.5763 28.5814Z" fill="#14C846"/>
    <path d="M81.252 28.5814C79.812 28.5814 78.6445 27.414 78.6445 25.974V22.2461C78.6445 20.8061 79.812 19.6387 81.252 19.6387C82.6919 19.6387 83.8594 20.8061 83.8594 22.2461V25.974C83.8594 27.414 82.6919 28.5814 81.252 28.5814Z" fill="#14C846"/>
    <path d="M114.928 28.5814C113.488 28.5814 112.32 27.414 112.32 25.974V22.2461C112.32 20.8061 113.488 19.6387 114.928 19.6387C116.368 19.6387 117.535 20.8061 117.535 22.2461V25.974C117.535 27.414 116.368 28.5814 114.928 28.5814Z" fill="#14C846"/>
    <path d="M119.675 5.23777C118.208 2.28443 115.374 -2.62586 112.117 1.72088C109.646 5.02118 107.251 11.045 111.084 14.2782C113.143 16.0161 116.707 16.0196 118.771 14.2782C121.501 11.9753 121.084 8.07603 119.675 5.23777Z" fill="#FC914A"/>
    <path d="M85.9992 5.23777C84.5328 2.28443 81.698 -2.62586 78.4419 1.72088C75.9701 5.02118 73.5754 11.045 77.408 14.2782C79.4678 16.0161 83.0317 16.0196 85.0957 14.2782C87.8255 11.9753 87.4086 8.07603 85.9992 5.23777Z" fill="#FC914A"/>
    <path d="M147.295 113.917H15.2089V60.2027C15.2089 54.4747 19.8525 49.8311 25.5805 49.8311H136.923C142.651 49.8311 147.295 54.4747 147.295 60.2027V113.917Z" fill="#A06047"/>
    <path d="M120.67 56.9909H109.185C108.196 56.9909 107.395 56.1892 107.395 55.2005V27.7645C107.395 26.7758 108.196 25.9741 109.185 25.9741H120.67C121.659 25.9741 122.461 26.7758 122.461 27.7645V55.2008C122.461 56.1896 121.659 56.9909 120.67 56.9909Z" fill="#14C846"/>
    <path d="M86.9945 56.9909H75.5094C74.5206 56.9909 73.7189 56.1892 73.7189 55.2005V27.7645C73.7189 26.7758 74.5206 25.9741 75.5094 25.9741H86.9945C87.9832 25.9741 88.7849 26.7758 88.7849 27.7645V55.2008C88.7846 56.1896 87.9832 56.9909 86.9945 56.9909Z" fill="#14C846"/>
    <path d="M52.3235 5.23777C50.8571 2.28443 48.0223 -2.62586 44.7662 1.72088C42.2943 5.02118 39.8997 11.045 43.7322 14.2782C45.7921 16.0161 49.3559 16.0196 51.4199 14.2782C54.1497 11.9753 53.7326 8.07603 52.3235 5.23777Z" fill="#FC914A"/>
    <path d="M51.4183 14.2785C49.8107 15.6354 47.2898 15.9327 45.2776 15.1737C45.8432 14.9589 46.3696 14.6616 46.8243 14.2785C49.5527 11.9764 49.1373 8.07705 47.7265 5.2374C47.1 3.96985 46.2191 2.34421 45.1591 1.24145C48.249 -2.23546 50.9131 2.40158 52.3239 5.2374C53.7316 8.07705 54.1505 11.9764 51.4183 14.2785Z" fill="#EA7636"/>
    <path d="M85.0943 14.2785C83.4867 15.6354 80.9659 15.9327 78.9536 15.1737C79.5193 14.9589 80.0456 14.6616 80.5004 14.2785C83.2288 11.9764 82.8133 8.07705 81.4025 5.2374C80.776 3.96985 79.8951 2.34421 78.8351 1.24145C81.925 -2.23546 84.5891 2.40158 85.9999 5.2374C87.4076 8.07705 87.8265 11.9764 85.0943 14.2785Z" fill="#EA7636"/>
    <path d="M118.77 14.2785C117.163 15.6354 114.642 15.9327 112.63 15.1737C113.195 14.9589 113.722 14.6616 114.176 14.2785C116.905 11.9764 116.489 8.07705 115.078 5.2374C114.452 3.96985 113.571 2.34421 112.511 1.24145C115.601 -2.23546 118.265 2.40158 119.676 5.2374C121.083 8.07705 121.502 11.9764 118.77 14.2785Z" fill="#EA7636"/>
    <path d="M53.3189 56.9909H41.8338C40.845 56.9909 40.0433 56.1892 40.0433 55.2005V27.7645C40.0433 26.7758 40.845 25.9741 41.8338 25.9741H53.3189C54.3076 25.9741 55.1093 26.7758 55.1093 27.7645V55.2008C55.109 56.1896 54.3076 56.9909 53.3189 56.9909Z" fill="#14C846"/>
    <path d="M55.11 27.7659V55.2005C55.11 56.1888 54.3079 56.9909 53.3196 56.9909H48.8331V25.9758H53.3196C54.3079 25.9758 55.11 26.7744 55.11 27.7659Z" fill="#0EA939"/>
    <path d="M88.7846 27.7659V55.2005C88.7846 56.1888 87.9826 56.9909 86.9942 56.9909H82.5077V25.9758H86.9942C87.9826 25.9758 88.7846 26.7744 88.7846 27.7659Z" fill="#0EA939"/>
    <path d="M122.461 27.7659V55.2005C122.461 56.1888 121.659 56.9909 120.67 56.9909H116.184V25.9758H120.67C121.659 25.9758 122.461 26.7744 122.461 27.7659Z" fill="#0EA939"/>
    <path d="M147.295 60.2028V113.916H134.809V60.2028C134.809 54.4738 130.169 49.8298 124.44 49.8298H136.922C142.651 49.8298 147.295 54.4738 147.295 60.2028Z" fill="#824730"/>
    <path d="M147.296 60.2028V65.6885C144.844 67.6973 142.502 69.7953 137.607 69.7953C136.569 69.7953 135.645 69.7022 134.811 69.5304V60.2028C134.811 54.4738 130.17 49.8298 124.441 49.8298H136.923C142.652 49.8298 147.296 54.4738 147.296 60.2028Z" fill="#F7D443"/>
    <path d="M162.503 178H0.000671387V124.286C0.000671387 118.558 4.64431 113.915 10.3723 113.915H152.131C157.859 113.915 162.503 118.558 162.503 124.286L162.503 178Z" fill="#A06047"/>
    <path d="M162.503 124.286V177.999H147.296V124.286C147.296 118.557 142.652 113.916 136.923 113.916H152.13C157.859 113.916 162.503 118.557 162.503 124.286Z" fill="#824730"/>
    <path d="M162.503 124.286V129.771C159.488 131.78 156.602 133.882 150.583 133.882C149.37 133.882 148.281 133.796 147.296 133.642V124.286C147.296 118.557 142.652 113.917 136.923 113.917H152.13C157.859 113.916 162.503 118.557 162.503 124.286Z" fill="#F7D443"/>
    <path d="M147.293 83.5281H15.2078V96.4157H147.293V83.5281Z" fill="white"/>
    <path d="M147.294 83.5281H134.808V96.4157H147.294V83.5281Z" fill="#C7ABA1"/>
    <path d="M162.502 147.615H0.000671387V160.502H162.502V147.615Z" fill="white"/>
    <path d="M162.504 147.615H147.296V160.502H162.504V147.615Z" fill="#C7ABA1"/>
    <path d="M147.295 60.2028V65.6868C144.844 67.6973 142.501 69.7971 137.606 69.7971C128.214 69.7971 128.214 62.0638 118.822 62.0638C109.43 62.0638 109.43 69.7971 100.034 69.7971C90.6422 69.7971 90.6422 62.0638 81.2502 62.0638C71.8583 62.0638 71.8583 69.7971 62.4664 69.7971C53.0745 69.7971 53.0745 62.0638 43.6826 62.0638C34.2907 62.0638 34.2907 69.7971 24.8988 69.7971C20.0076 69.7971 17.6644 67.6976 15.2131 65.6868V60.2028C15.2131 54.4738 19.8574 49.8298 25.5861 49.8298H136.922C142.651 49.8298 147.295 54.4738 147.295 60.2028Z" fill="#2194FF"/>
    <path d="M147.296 61.03V65.6883C144.844 67.697 142.502 69.7951 137.607 69.7951C136.569 69.7951 135.645 69.7019 134.811 69.5302V60.2026C134.811 54.4736 130.17 49.8296 124.441 49.8296H136.096C143.689 49.8299 147.296 54.6637 147.296 61.03Z" fill="#1585EC"/>
    <path d="M162.504 125.114V129.77C159.488 131.781 156.604 133.881 150.584 133.881C139.026 133.881 139.026 126.148 127.469 126.148C115.916 126.148 115.916 133.881 104.359 133.881C92.8053 133.881 92.8053 126.148 81.2481 126.148C69.6949 126.148 69.6949 133.881 58.1377 133.881C46.5845 133.881 46.5845 126.148 35.0273 126.148C23.4741 126.148 23.4741 133.881 11.9169 133.881C5.89659 133.881 3.01591 131.781 0 129.77V124.287C0 118.558 4.64433 113.914 10.373 113.914H151.305C157.49 113.914 162.504 118.928 162.504 125.114Z" fill="#2194FF"/>
    <path d="M162.503 125.113V129.771C159.488 131.78 156.602 133.882 150.583 133.882C149.37 133.882 148.281 133.796 147.296 133.642V124.286C147.296 118.557 142.652 113.916 136.923 113.916H151.593C158.474 113.916 162.503 118.048 162.503 125.113Z" fill="#1585EC"/>
</svg>
