<svg width="45" height="45" viewBox="0 0 45 45" fill="none" xmlns="http://www.w3.org/2000/svg">
<rect x="1" y="1" width="43" height="43" rx="6.03125" fill="#F7931A"/>
<rect x="1" y="1" width="43" height="43" rx="6.03125" stroke="black" stroke-width="2"/>
<path d="M32.4206 18.7945C32.8685 15.8005 30.589 14.1911 27.472 13.1174L28.4831 9.0618L26.0145 8.44656L25.0301 12.3953C24.3811 12.2336 23.7145 12.081 23.0522 11.9298L24.0436 7.95508L21.5763 7.33984L20.5645 11.3941C20.0274 11.2717 19.5 11.1508 18.9881 11.0235L18.9909 11.0109L15.5864 10.1608L14.9297 12.7975C14.9297 12.7975 16.7613 13.2173 16.7227 13.2433C17.7225 13.4929 17.9032 14.1545 17.873 14.6791L16.7213 19.2993C16.7902 19.3169 16.8795 19.3422 16.9779 19.3816C16.8956 19.3612 16.8077 19.3387 16.717 19.3169L15.1027 25.7891C14.9803 26.0929 14.6702 26.5485 13.9713 26.3755C13.9959 26.4114 12.177 25.9277 12.177 25.9277L10.9514 28.7535L14.164 29.5544C14.7617 29.7041 15.3474 29.8609 15.9239 30.0086L14.9023 34.1106L17.3681 34.7259L18.3799 30.6674C19.0535 30.8502 19.7074 31.019 20.3473 31.1779L19.339 35.2173L21.8077 35.8326L22.8293 31.7383C27.0389 32.5349 30.2044 32.2136 31.5368 28.4062C32.6105 25.3405 31.4834 23.5722 29.2685 22.4191C30.8815 22.0471 32.0965 20.9861 32.4206 18.7945ZM26.7802 26.7039C26.0173 29.7695 20.8556 28.1123 19.1822 27.6967L20.5378 22.2623C22.2113 22.6799 27.5775 23.5068 26.7802 26.7039ZM27.5438 18.7502C26.8477 21.5388 22.5516 20.122 21.158 19.7746L22.387 14.8457C23.7806 15.193 28.2687 15.8413 27.5438 18.7502Z" fill="white"/>
</svg>
