<svg width="28" height="37" viewBox="0 0 28 37" fill="none" xmlns="http://www.w3.org/2000/svg">
<path d="M26.0117 0.00835344C26.0523 -0.000438375 26.0914 -0.00211226 26.1279 0.00249407C26.3832 0.0346771 26.5225 0.363833 26.3174 0.5689L11.9326 14.9625C11.4874 15.4075 11.2364 16.0124 11.2354 16.6421V35.7369C11.2354 35.8853 11.146 35.9965 11.0303 36.0445C10.9723 36.0685 10.9079 36.0769 10.8447 36.066C10.7815 36.055 10.7195 36.0247 10.667 35.9722L0.396484 25.7056C0.20853 25.5177 0.10361 25.2641 0.103516 24.9996V7.18218C0.103551 6.28774 0.727312 5.51391 1.60156 5.32378L26.0107 0.00835344H26.0117ZM27.1025 20.2906C27.1024 20.5551 26.9964 20.8079 26.8096 20.9947L12.9443 34.8316C12.9218 34.8541 12.8953 34.867 12.8682 34.8716C12.8413 34.8762 12.8137 34.873 12.7891 34.8628C12.7394 34.8423 12.7012 34.7942 12.7012 34.731L12.7031 27.6763L17.3975 23.0289C18.0656 22.4518 18.3422 22.2068 18.7549 22.1832C18.8235 22.1792 18.896 22.1822 18.9746 22.19C19.0532 22.1978 19.138 22.2106 19.2314 22.2291C19.6039 22.3026 19.9558 22.357 20.2842 22.3755C20.4156 22.3829 20.5432 22.3847 20.667 22.3794C21.2241 22.356 21.7026 22.1937 22.0898 21.7945C22.427 21.4466 22.853 20.8957 23.0713 19.4947C23.2236 18.5107 23.33 17.8883 23.5439 17.3169C23.7579 16.7456 24.0748 16.3552 24.4551 15.9761V15.9752L27.1201 13.2974L27.1025 20.2906ZM26.9834 7.87359C27.0584 7.90479 27.1162 7.97749 27.1162 8.07378L27.0967 11.2144L24.1006 14.3306C23.5194 14.8954 22.9476 15.67 22.6914 16.2759C22.4364 16.8808 22.1497 17.8845 22.0049 18.7476C21.8611 19.6097 21.8812 20.1323 21.1377 20.6011C20.9985 20.6888 20.8632 20.7369 20.7295 20.7574C20.6402 20.7711 20.5516 20.7729 20.4629 20.7652C20.0187 20.7267 19.5718 20.4629 19.0273 20.4019C18.973 20.3958 18.9177 20.3918 18.8613 20.3902L18.8604 20.3912C17.9582 20.3653 17.3076 21.023 17.3057 21.025L12.7021 25.6441V22.5533C12.7021 22.1752 12.8521 21.8114 13.1201 21.5435L26.749 7.92046C26.7832 7.88634 26.8233 7.86688 26.8643 7.85992C26.9048 7.85303 26.9462 7.85813 26.9834 7.87359ZM26.9277 2.16753C27.0287 2.17924 27.12 2.26134 27.1201 2.3814V5.49956H27.1211L12.7021 19.9498V16.8648C12.7022 16.4869 12.8522 16.1238 13.1201 15.856L26.752 2.22906C26.8026 2.17847 26.8672 2.16051 26.9277 2.16753Z" fill="#D7E2F7"/>
</svg>
