<svg width="28" height="37" viewBox="0 0 28 37" fill="none" xmlns="http://www.w3.org/2000/svg">
<path d="M26.0117 0.00769167C26.0523 -0.00110449 26.0914 -0.00180576 26.1279 0.00280886C26.3831 0.0350288 26.5224 0.363182 26.3174 0.568239L11.9326 14.9618C11.4874 15.4069 11.2364 16.0127 11.2354 16.6425V35.7372C11.2353 35.8856 11.1461 35.9969 11.0303 36.0448C10.9724 36.0688 10.9078 36.0772 10.8447 36.0663C10.7815 36.0554 10.7195 36.025 10.667 35.9725L0.396484 25.7059C0.208445 25.518 0.103516 25.2635 0.103516 24.9989V7.1825C0.103516 6.28802 0.727287 5.51423 1.60156 5.3241L26.0107 0.00769167H26.0117ZM27.1025 20.2899C27.1025 20.5545 26.9964 20.8071 26.8096 20.994L12.9443 34.8319C12.9218 34.8543 12.8952 34.8674 12.8682 34.8719C12.8413 34.8765 12.8138 34.8724 12.7891 34.8622C12.7396 34.8417 12.7013 34.7944 12.7012 34.7313L12.7031 27.6757L17.3975 23.0282C18.0655 22.4511 18.3423 22.2071 18.7549 22.1835C18.8235 22.1795 18.896 22.1815 18.9746 22.1893C19.0532 22.1971 19.138 22.2109 19.2314 22.2294C19.6039 22.303 19.9558 22.3574 20.2842 22.3759C20.4155 22.3833 20.5432 22.385 20.667 22.3798C21.224 22.3563 21.7026 22.1939 22.0898 21.7948C22.427 21.447 22.853 20.896 23.0713 19.495C23.2236 18.5109 23.33 17.8887 23.5439 17.3173C23.7579 16.7458 24.0747 16.3556 24.4551 15.9764V15.9755L27.1201 13.2977L27.1025 20.2899ZM26.9834 7.8739C27.0584 7.90515 27.1162 7.97782 27.1162 8.0741L27.0967 11.2137L24.1006 14.3309C23.5192 14.8958 22.9476 15.6702 22.6914 16.2762C22.4364 16.8812 22.1497 17.8848 22.0049 18.7479C21.8611 19.61 21.8812 20.1316 21.1377 20.6005C20.9984 20.6882 20.8633 20.7372 20.7295 20.7577C20.6402 20.7714 20.5516 20.7722 20.4629 20.7645C20.0188 20.7261 19.5717 20.4632 19.0273 20.4022C18.973 20.3961 18.9177 20.3912 18.8613 20.3895L18.8604 20.3915C17.9569 20.3655 17.3057 21.0253 17.3057 21.0253L12.7021 25.6444V22.5526C12.7022 22.1746 12.8523 21.8117 13.1201 21.5438L26.749 7.92078C26.7832 7.88666 26.8233 7.8672 26.8643 7.86023C26.9049 7.85331 26.9462 7.85839 26.9834 7.8739ZM26.9277 2.16785C27.0288 2.17959 27.1201 2.2615 27.1201 2.38172V5.4989H27.1211L12.7021 19.9501V16.8651C12.7021 16.4872 12.8523 16.1242 13.1201 15.8563L26.752 2.22937C26.8026 2.17876 26.8671 2.16081 26.9277 2.16785Z" fill="#1C1B1C"/>
</svg>
