<svg width="126" height="97" viewBox="0 0 126 97" fill="none" xmlns="http://www.w3.org/2000/svg">
    <path d="M7.56 0.640015C3.41578 0.640015 0 4.0558 0 8.20001V88.84C0 92.9842 3.41578 96.4 7.56 96.4H25.2V91.36H30.24V96.4H95.76V91.36H100.8V96.4H118.44C122.584 96.4 126 92.9842 126 88.84V18.28C126 14.1358 122.584 10.72 118.44 10.72H65.52V8.20001C65.52 4.0558 62.1042 0.640015 57.96 0.640015H7.56ZM7.56 5.68001H57.96C59.3775 5.68001 60.48 6.78251 60.48 8.20001V15.76H118.44C119.857 15.76 120.96 16.8625 120.96 18.28V88.84C120.96 90.2575 119.857 91.36 118.44 91.36H105.84V86.32H90.72V91.36H35.28V86.32H20.16V91.36H7.56C6.1425 91.36 5.04 90.2575 5.04 88.84V8.20001C5.04 6.78251 6.1425 5.68001 7.56 5.68001ZM33.9412 28.36C25.4756 28.5175 24.4519 34.9553 26.3025 42.3775C25.9777 42.5842 25.4559 43.3225 25.5938 44.5038C25.8497 46.6989 26.6962 47.2108 27.2475 47.26C27.4542 49.3075 28.7536 51.7586 29.4525 52.1425C29.4525 53.5994 29.5116 54.7117 29.3738 56.3163C27.7003 60.992 15.6417 59.6631 15.12 68.68H52.92C52.3983 59.6631 40.4184 60.992 38.745 56.3163C38.6072 54.7117 38.6662 53.5994 38.6662 52.1425C39.3652 51.7586 40.5759 49.3075 40.7925 47.26C41.3438 47.2108 42.1903 46.6989 42.4463 44.5038C42.5841 43.3225 42.0623 42.663 41.7375 42.4563C42.6234 39.6705 44.4445 30.9883 38.2725 30.0925C37.6327 28.931 36.0577 28.36 33.9412 28.36ZM65.52 38.44V43.48H110.88V38.44H65.52ZM65.52 51.04V56.08H110.88V51.04H65.52ZM65.52 63.64V68.68H110.88V63.64H65.52Z" fill="white"/>
</svg>
