<svg width="16" height="16" viewBox="0 0 16 16" fill="none" xmlns="http://www.w3.org/2000/svg">
<g clip-path="url(#clip0_7507_19175)">
<g clip-path="url(#clip1_7507_19175)">
<path d="M4.79224 9.67615C5.02755 9.67632 5.22899 9.84574 5.26978 10.0775L6.21411 15.4584C6.26622 15.7552 6.03791 16.0267 5.73657 16.0267H4.41431C4.19483 16.0267 4.00235 15.8796 3.94556 15.6674L2.51001 10.2865C2.42791 9.97823 2.65981 9.67615 2.97876 9.67615H4.79224ZM9.69067 9.67615C9.99206 9.6763 10.2203 9.94859 10.1682 10.2455L9.22388 15.6254C9.18312 15.8576 8.98087 16.0267 8.74536 16.0267H7.29614C7.06077 16.0266 6.85935 15.8572 6.8186 15.6254L5.87427 10.2455C5.82186 9.94851 6.05031 9.67616 6.35181 9.67615H9.69067ZM13.0647 9.67615C13.3832 9.67626 13.6155 9.97862 13.5334 10.2865L12.0979 15.6664C12.0413 15.8786 11.8491 16.0267 11.6292 16.0267H10.3069C10.0054 16.0267 9.77628 15.7544 9.82837 15.4574L10.7737 10.0775C10.8145 9.84531 11.0158 9.67617 11.2512 9.67615H13.0647Z" fill="url(#paint0_linear_7507_19175)"/>
<path d="M14.1953 6.39246H1.84672C1.48938 6.39246 1.19971 6.68213 1.19971 7.03947V8.31732C1.19971 8.67466 1.48938 8.96433 1.84672 8.96433H14.1953C14.5526 8.96433 14.8423 8.67466 14.8423 8.31732V7.03947C14.8423 6.68213 14.5526 6.39246 14.1953 6.39246Z" fill="url(#paint1_linear_7507_19175)"/>
<path d="M3.45658 5.81028H12.5853C12.9428 5.81028 13.2323 5.52074 13.2323 5.16327V3.64279C13.2323 3.493 13.1802 3.35131 13.09 3.2384H3.45658C3.09911 3.2384 2.80957 3.52794 2.80957 3.88542V5.16327C2.80957 5.52074 3.09911 5.81028 3.45658 5.81028Z" fill="url(#paint2_linear_7507_19175)"/>
<path d="M12.8689 3.06103L6.64759 0.0268555L5.80388 1.75697C5.6473 2.07821 5.78059 2.46545 6.10183 2.62203L7.36577 3.23831H13.0902C13.0317 3.16487 12.9566 3.10373 12.8693 3.06103H12.8689Z" fill="url(#paint3_linear_7507_19175)"/>
<path d="M12.8689 3.06103L6.64759 0.0268555L5.80388 1.75697C5.6473 2.07821 5.78059 2.46545 6.10183 2.62203L7.36577 3.23831H13.0902C13.0317 3.16487 12.9566 3.10373 12.8693 3.06103H12.8689Z" fill="url(#paint4_linear_7507_19175)"/>
<path d="M12.8689 3.06103L6.64759 0.0268555L5.80388 1.75697C5.6473 2.07821 5.78059 2.46545 6.10183 2.62203L7.36577 3.23831H13.0902C13.0317 3.16487 12.9566 3.10373 12.8693 3.06103H12.8689Z" fill="url(#paint5_linear_7507_19175)"/>
</g>
</g>
<defs>
<linearGradient id="paint0_linear_7507_19175" x1="8.02049" y1="5.63377" x2="8.02049" y2="16.0331" gradientUnits="userSpaceOnUse">
<stop offset="0.127385" stop-color="#F9F9F9"/>
<stop offset="0.616334" stop-color="#EBEBF0"/>
<stop offset="0.961538" stop-color="#B5AEBB"/>
</linearGradient>
<linearGradient id="paint1_linear_7507_19175" x1="8.29618" y1="6.3273" x2="8.29154" y2="8.96477" gradientUnits="userSpaceOnUse">
<stop stop-color="#61C5FF"/>
<stop offset="1" stop-color="#2A92FA"/>
</linearGradient>
<linearGradient id="paint2_linear_7507_19175" x1="7.5466" y1="2.9268" x2="8.01993" y2="5.8068" gradientUnits="userSpaceOnUse">
<stop offset="0.0168777" stop-color="#FFC414"/>
<stop offset="1" stop-color="#FF9B54"/>
</linearGradient>
<linearGradient id="paint3_linear_7507_19175" x1="4.98661" y1="-0.399811" x2="4.06528" y2="2.7137" gradientUnits="userSpaceOnUse">
<stop stop-color="#FF7D38"/>
<stop offset="0.612828" stop-color="#FE6412"/>
<stop offset="1" stop-color="#F25400"/>
</linearGradient>
<linearGradient id="paint4_linear_7507_19175" x1="14.4635" y1="0.0280069" x2="13.1164" y2="5.329" gradientUnits="userSpaceOnUse">
<stop stop-color="#FF7B34"/>
<stop offset="0.578219" stop-color="#FF630F"/>
<stop offset="1" stop-color="#FF3B0F"/>
</linearGradient>
<linearGradient id="paint5_linear_7507_19175" x1="7.36005" y1="-0.673145" x2="8.75339" y2="4.53352" gradientUnits="userSpaceOnUse">
<stop stop-color="#FF7B34"/>
<stop offset="0.512747" stop-color="#FF630F"/>
<stop offset="1" stop-color="#FF3B0F"/>
</linearGradient>
<clipPath id="clip0_7507_19175">
<rect width="16" height="16" fill="white"/>
</clipPath>
<clipPath id="clip1_7507_19175">
<rect width="13.6426" height="16" fill="white" transform="translate(1.19971 0.0267334)"/>
</clipPath>
</defs>
</svg>
