<svg width="45" height="45" viewBox="0 0 45 45" fill="none" xmlns="http://www.w3.org/2000/svg">
<g clip-path="url(#clip0_7309_8745)">
<rect width="45" height="45" rx="7.03125" fill="#2972FF"/>
<path d="M24.5684 19.6093H18.1377C16.9884 19.6093 15.8859 20.0662 15.0732 20.8789C14.2606 21.6916 13.8037 22.7941 13.8037 23.9433C13.8038 25.0924 14.2607 26.1942 15.0732 27.0068C15.8859 27.8195 16.9884 28.2763 18.1377 28.2763H20.1836L24.5664 32.08H18.1377C16.2509 32.0796 14.4225 31.4238 12.9658 30.2246C11.5092 29.0252 10.5139 27.3566 10.1514 25.5049C9.78883 23.653 10.0816 21.7324 10.9785 20.0722C11.8754 18.4121 13.3209 17.1152 15.0684 16.4033L10.002 12H15.8086L24.5684 19.6093ZM27.8604 12C29.7471 12.0004 31.5756 12.6562 33.0322 13.8554C34.4889 15.0548 35.4841 16.7234 35.8467 18.5752C36.2092 20.4269 35.9173 22.3476 35.0205 24.0078C34.1236 25.668 32.6772 26.9648 30.9297 27.6767L36 32.0781H30.1934L21.4297 24.4707H27.8604C29.0097 24.4707 30.1121 24.0138 30.9248 23.2011C31.7375 22.3884 32.1943 21.286 32.1943 20.1367C32.1942 18.9875 31.7374 17.8858 30.9248 17.0732C30.1121 16.2605 29.0097 15.8037 27.8604 15.8037H25.8145L21.4297 12H27.8604Z" fill="white"/>
</g>
<rect x="1" y="1" width="43" height="43" rx="6.03125" stroke="black" stroke-width="2"/>
<defs>
<clipPath id="clip0_7309_8745">
<rect width="45" height="45" rx="7.03125" fill="white"/>
</clipPath>
</defs>
</svg>
