<svg width="45" height="45" viewBox="0 0 45 45" fill="none" xmlns="http://www.w3.org/2000/svg">
<g clip-path="url(#clip0_7309_8745)">
<rect width="45" height="45" rx="7.03125" fill="#2972FF"/>
<path d="M24.1683 19.6093H17.7377C16.5883 19.6093 15.4859 20.0662 14.6732 20.8789C13.8606 21.6916 13.4037 22.7941 13.4037 23.9433C13.4038 25.0924 13.8607 26.1942 14.6732 27.0068C15.4859 27.8195 16.5883 28.2763 17.7377 28.2763H19.7836L24.1664 32.08H17.7377C15.8509 32.0796 14.0224 31.4238 12.5658 30.2246C11.1092 29.0252 10.1139 27.3566 9.75134 25.5049C9.38881 23.653 9.68162 21.7324 10.5785 20.0722C11.4754 18.4121 12.9209 17.1152 14.6683 16.4033L9.60193 12H15.4086L24.1683 19.6093ZM27.4613 12C29.3481 12.0005 31.1766 12.6561 32.6332 13.8554C34.0898 15.0548 35.0841 16.7235 35.4467 18.5752C35.8092 20.427 35.5173 22.3476 34.6205 24.0078C33.7236 25.668 32.2772 26.9648 30.5297 27.6767L35.6 32.0781H29.7933L21.0297 24.4707H27.4613C28.6105 24.4706 29.7122 24.0137 30.5248 23.2011C31.3375 22.3884 31.7943 21.286 31.7943 20.1367C31.7942 18.9875 31.3374 17.8858 30.5248 17.0732C29.7122 16.2606 28.6105 15.8038 27.4613 15.8037H25.4144L21.0297 12H27.4613Z" fill="white"/>
</g>
<rect x="1" y="1" width="43" height="43" rx="6.03125" stroke="black" stroke-width="2"/>
<defs>
<clipPath id="clip0_7309_8745">
<rect width="45" height="45" rx="7.03125" fill="white"/>
</clipPath>
</defs>
</svg>
