<svg width="62" height="62" viewBox="0 0 62 62" fill="none" xmlns="http://www.w3.org/2000/svg">
<g clip-path="url(#clip0_6826_46842)">
<g clip-path="url(#clip1_6826_46842)">
<path d="M55.5857 49.1874C55.1365 47.8668 53.6253 46.7096 50.7254 47.4176L41.6175 49.6367C41.1954 49.2555 40.6509 48.9696 40.0246 48.779L28.2755 45.321C25.9883 44.6539 23.8508 44.5858 21.5364 45.1167L19.0178 45.6885V45.1576C19.0178 44.0004 18.0784 43.0474 16.9075 43.0474H9.85533C8.6845 43.0474 7.74512 43.9868 7.74512 45.1576V58.6766C7.74512 59.8338 8.69812 60.7868 9.85533 60.7868H16.9075C18.0648 60.7868 19.0178 59.8474 19.0178 58.6766V58.2409L28.4525 60.9774C29.7322 61.345 30.9983 61.5356 32.2372 61.5356C34.0071 61.5356 35.7225 61.168 37.4787 60.4056L53.2305 53.5848C55.1092 52.768 56.1439 50.8347 55.5994 49.1874H55.5857ZM27.5948 47.5945L39.3439 51.0526C39.7251 51.1615 40.0246 51.3385 40.1608 51.5291L40.2016 51.5971C40.3105 51.7741 40.2969 51.9375 40.2697 52.0464C40.1608 52.4957 39.6026 52.8769 38.636 52.6591L26.7779 50.086C26.4784 50.0179 26.1516 50.086 25.893 50.2493C25.6343 50.4127 25.4437 50.685 25.3756 50.9845C25.3076 51.2976 25.3756 51.6108 25.539 51.8694C25.716 52.1417 25.9747 52.3187 26.2878 52.3868L38.1595 54.9599C38.5134 55.0279 38.8538 55.0688 39.1805 55.0688C41.1001 55.0688 42.271 53.8435 42.5841 52.6182C42.6522 52.3595 42.6794 52.0873 42.6658 51.8014L51.2972 49.7048C52.3728 49.4461 53.2305 49.5414 53.3666 49.9362C53.4891 50.3038 53.1488 51.0526 52.3047 51.4202L36.553 58.2409C34.1024 59.3028 31.679 59.4526 29.1196 58.7038L19.0314 55.7767V48.1119L22.081 47.4176C24.0142 46.9683 25.716 47.0227 27.622 47.5809L27.5948 47.5945ZM16.6489 45.4163V58.4315H10.1004V45.4163H16.6489Z" fill="url(#paint0_linear_6826_46842)"/>
<path d="M37.2875 20.148C36.212 20.148 35.3134 20.4067 34.5783 20.9241C34.1426 21.2372 33.7478 21.6728 33.3938 22.231C33.0399 22.8164 32.822 23.361 32.754 23.892H39.3024L39.0438 25.1717H32.6042C32.6042 25.3079 32.6042 25.4304 32.6042 25.5529C32.6042 26.043 32.6042 26.3426 32.6042 26.4379H38.7851L38.5128 27.7176H32.8084C33.0807 29.1879 33.7206 30.2226 34.7416 30.8353C35.4768 31.2709 36.2801 31.5024 37.1378 31.5024C38.3358 31.5024 39.2616 31.1892 39.9423 30.563V32.5371C39.1391 32.9046 38.2541 33.0952 37.2875 33.0952C34.4013 33.0952 32.4408 31.8972 31.4198 29.4875C31.2155 28.9973 31.0386 28.4119 30.8888 27.7176H29.4185L29.6907 26.4379H30.6982C30.6846 26.1656 30.671 25.8797 30.671 25.5665C30.671 25.444 30.671 25.3079 30.671 25.1717H29.4185L29.6907 23.892H30.8071C31.2019 21.809 32.2366 20.3114 33.9112 19.3993C34.9459 18.8411 36.0758 18.5552 37.3147 18.5552C38.5536 18.5552 39.5066 18.8138 40.3235 19.3312L39.9423 21.1147C39.1663 20.4748 38.2814 20.148 37.2875 20.148Z" fill="url(#paint1_linear_6826_46842)"/>
<path d="M31.7741 9.17495C34.6876 9.84205 37.6963 9.84205 40.6234 9.17495M39.0169 9.96458L41.9167 1.87769H30.4671L33.3942 9.96458C27.4584 13.0142 21.0188 19.3584 21.0188 26.7918C21.0188 35.1646 27.8123 40.7057 36.1851 40.7057C44.5579 40.7057 51.3514 35.1782 51.3514 26.7918C51.3514 19.3584 45.1569 13.1367 39.0033 9.96458H39.0169Z" stroke="url(#paint2_linear_6826_46842)" stroke-width="2.2" stroke-miterlimit="10" stroke-linecap="round"/>
</g>
</g>
<defs>
<linearGradient id="paint0_linear_6826_46842" x1="16.0535" y1="43.0474" x2="23.144" y2="68.3443" gradientUnits="userSpaceOnUse">
<stop stop-color="#90A2E7"/>
<stop offset="0.336538" stop-color="#5E6DAA"/>
<stop offset="0.745192" stop-color="#3E4561"/>
<stop offset="1" stop-color="#181C2B"/>
</linearGradient>
<linearGradient id="paint1_linear_6826_46842" x1="31.3061" y1="18.5552" x2="42.0301" y2="29.608" gradientUnits="userSpaceOnUse">
<stop stop-color="#90A2E7"/>
<stop offset="0.336538" stop-color="#5E6DAA"/>
<stop offset="0.745192" stop-color="#3E4561"/>
<stop offset="1" stop-color="#181C2B"/>
</linearGradient>
<linearGradient id="paint2_linear_6826_46842" x1="26.2692" y1="1.87768" x2="54.8478" y2="32.5581" gradientUnits="userSpaceOnUse">
<stop stop-color="#90A2E7"/>
<stop offset="0.336538" stop-color="#5E6DAA"/>
<stop offset="0.745192" stop-color="#3E4561"/>
<stop offset="1" stop-color="#181C2B"/>
</linearGradient>
<clipPath id="clip0_6826_46842">
<rect width="61" height="61" fill="white" transform="translate(0.711426 0.250977)"/>
</clipPath>
<clipPath id="clip1_6826_46842">
<rect width="48.8846" height="62" fill="white" transform="translate(7.14868 -0.194824)"/>
</clipPath>
</defs>
</svg>
