<svg width="63" height="63" viewBox="0 0 63 63" fill="none" xmlns="http://www.w3.org/2000/svg">
<path d="M41.3577 31.231C40.9277 30.801 40.9277 30.1074 41.3577 29.6775C42.8974 28.1378 45.3941 28.1378 46.9337 29.6775C47.3637 30.1074 47.3637 30.801 46.9337 31.231C46.7257 31.439 46.4344 31.55 46.157 31.55C45.8796 31.55 45.6021 31.439 45.3802 31.231C44.7005 30.5513 43.5909 30.5513 42.8974 31.231C42.4674 31.661 41.7738 31.661 41.3438 31.231H41.3577Z" fill="url(#paint0_linear_6826_46775)"/>
<path d="M59.3758 29.3584H56.1717C55.0065 26.612 53.1756 24.1708 50.8314 22.2566V14.6277C50.8314 14.0174 50.3459 13.5319 49.7356 13.5319H48.5289C45.5328 13.5319 43.0222 15.5848 42.3286 18.3867C41.3022 18.2063 40.2619 18.1231 39.2216 18.1231H37.4045C37.5294 17.4157 37.5987 16.7083 37.5987 15.987C37.5987 9.38454 32.2169 4.00269 25.6144 4.00269C19.0119 4.00269 13.6301 9.37067 13.6301 15.987C13.6301 17.6792 13.9907 19.3437 14.6842 20.8695C11.5078 22.8392 9.03884 25.6965 7.56854 29.0255C5.62663 28.6926 4.12859 27.0004 4.12859 24.9614C4.12859 24.3511 3.64311 23.8656 3.0328 23.8656C2.42249 23.8656 1.93701 24.3511 1.93701 24.9614C1.93701 27.9436 4.00375 30.4403 6.79178 31.1061C6.26469 32.84 5.9734 34.6571 5.9734 36.5296C5.9734 40.136 7.01371 43.6314 8.99723 46.6275C10.8004 49.3601 13.2555 51.5516 16.1545 52.9942V58.4038C16.1545 59.0141 16.64 59.4996 17.2503 59.4996H25.8641C26.4744 59.4996 26.9599 59.0141 26.9599 58.4038V54.9222H35.4765V58.4038C35.4765 59.0141 35.962 59.4996 36.5723 59.4996H45.186C45.7963 59.4996 46.2818 59.0141 46.2818 58.4038V53.5213C51.5527 51.3436 55.4781 46.8911 56.9762 41.4121H59.3897C60 41.4121 60.4855 40.9266 60.4855 40.3163V30.4681C60.4855 29.8578 60 29.3723 59.3897 29.3723L59.3758 29.3584ZM25.6144 6.19426C31.0101 6.19426 35.4071 10.5913 35.4071 15.987C35.4071 16.9857 35.2546 17.9705 34.9771 18.8999C34.5333 20.3008 33.7704 21.6047 32.7578 22.6866C32.6885 22.6866 32.6052 22.6866 32.5359 22.6727C32.2446 22.645 31.9533 22.6172 31.6482 22.6034C31.4678 22.5895 31.3014 22.5756 31.1211 22.5618C30.8159 22.5479 30.5246 22.534 30.2195 22.5201C30.0253 22.5201 29.845 22.5063 29.6646 22.5063C29.3734 22.5063 29.0682 22.5063 28.7769 22.5063C28.5689 22.5063 28.3747 22.5063 28.1666 22.5063C27.8337 22.5063 27.4869 22.534 27.1402 22.5479C26.9876 22.5479 26.835 22.5479 26.6824 22.5618C26.6686 22.5618 26.6408 22.5618 26.627 22.5618C26.0305 22.6034 25.4479 22.6588 24.8654 22.7143C24.8238 22.7143 24.7683 22.7143 24.7128 22.7282C24.1718 22.7976 23.6309 22.8669 23.1038 22.9501C23.0344 22.9501 22.9512 22.9779 22.8819 22.9917C22.3686 23.075 21.8832 23.1721 21.3977 23.283C21.3283 23.2969 21.259 23.3108 21.1896 23.3246C20.6764 23.4356 20.1771 23.5604 19.7054 23.6992C19.6916 23.6992 19.6638 23.6992 19.6361 23.713C18.5958 22.9085 17.7081 21.8821 17.07 20.7447C16.2516 19.2883 15.8216 17.6376 15.8216 15.9731C15.8216 10.5774 20.2187 6.18039 25.6144 6.18039V6.19426ZM58.28 39.2067H56.1023C55.5891 39.2067 55.1452 39.5673 55.0343 40.0666C53.8275 45.4624 49.9992 49.8317 44.7976 51.7319C44.3676 51.8984 44.0764 52.3007 44.0764 52.7584V57.2941H37.6542V53.8126C37.6542 53.2023 37.1687 52.7168 36.5584 52.7168H25.8502C25.2399 52.7168 24.7544 53.2023 24.7544 53.8126V57.2941H18.3322V52.2868C18.3322 51.8568 18.0826 51.4684 17.6803 51.2881C14.8784 50.0258 12.5065 48.0007 10.8004 45.4069C9.05271 42.7714 8.13724 39.6921 8.13724 36.5157C8.13724 30.9119 11.0224 25.7382 15.7384 22.7837C16.1823 23.4217 16.6816 24.0182 17.2365 24.5591C16.6539 24.8088 16.1129 25.0724 15.6552 25.3498C15.1281 25.6549 14.9617 26.3346 15.2668 26.8478C15.4749 27.1946 15.8355 27.3888 16.21 27.3888C16.4042 27.3888 16.5984 27.3472 16.7648 27.2362C17.5555 26.7646 18.5542 26.3485 19.7054 25.9878C19.7054 25.9878 19.7193 25.9878 19.7332 25.9878C21.2451 25.5162 22.9651 25.1695 24.8099 24.9475C24.8792 24.9475 24.9486 24.9337 25.0041 24.9198C25.2121 24.892 25.4341 24.8782 25.6421 24.8504C25.7392 24.8504 25.8363 24.8366 25.9334 24.8227C26.0999 24.8088 26.2663 24.7949 26.4466 24.7811C26.5715 24.7811 26.6824 24.7672 26.8073 24.7533C26.9044 24.7533 27.0015 24.7533 27.0986 24.7395C27.4869 24.7117 27.8892 24.6979 28.2776 24.684C28.4302 24.684 28.5827 24.684 28.7353 24.684C29.0959 24.684 29.4705 24.684 29.8172 24.684C29.9421 24.684 30.053 24.684 30.1779 24.684C30.594 24.6979 30.9962 24.7117 31.3985 24.7395C31.4678 24.7395 31.5233 24.7395 31.5927 24.7533C32.0643 24.7949 32.5359 24.8366 32.9936 24.892H33.0075C34.1726 25.0446 35.2407 25.2666 36.1562 25.5578C36.7387 25.7382 37.349 25.4191 37.5294 24.8366C37.7097 24.254 37.3907 23.6437 36.8081 23.4634C36.3226 23.3108 35.7817 23.1721 35.2268 23.0611C35.851 22.215 36.3781 21.2718 36.7665 20.3008H39.1939C40.47 20.3008 41.7322 20.4534 42.9528 20.7447C43.2719 20.814 43.6048 20.7447 43.8683 20.5505C44.1318 20.3563 44.2844 20.0511 44.2983 19.7321C44.3954 17.4851 46.2402 15.7096 48.4873 15.7096H48.5982V22.7837C48.5982 23.1305 48.7508 23.4495 49.0282 23.6575C51.4556 25.5162 53.3004 27.9991 54.3685 30.8287C54.5349 31.2587 54.9372 31.5361 55.3949 31.5361H58.2384V39.1928L58.28 39.2067Z" fill="url(#paint1_linear_6826_46775)"/>
<path d="M26.5299 11.479C25.7254 11.479 25.0596 11.6732 24.5186 12.0616C24.1996 12.2974 23.8944 12.6164 23.6447 13.0325C23.3812 13.4625 23.2147 13.8787 23.1731 14.267H28.0556L27.8615 15.2241H23.0622C23.0622 15.3212 23.0622 15.4183 23.0622 15.5154C23.0622 15.8761 23.0622 16.098 23.0622 16.1673H27.6673L27.4731 17.1244H23.2147C23.4089 18.2202 23.8944 18.997 24.6573 19.4547C25.2121 19.7876 25.7947 19.9541 26.4328 19.9541C27.3205 19.9541 28.014 19.7182 28.5272 19.2466V20.7169C27.9308 20.9944 27.2789 21.1331 26.5576 21.1331C24.4076 21.1331 22.9512 20.2315 22.1883 18.4421C22.0357 18.0815 21.9109 17.6376 21.7999 17.1244H20.7041L20.8983 16.1673H21.6474C21.6335 15.9731 21.6196 15.7512 21.6196 15.5154C21.6196 15.4183 21.6196 15.3212 21.6196 15.2241H20.6764L20.8706 14.267H21.7028C21.9941 12.7135 22.7709 11.59 24.0193 10.9242C24.7821 10.5081 25.6283 10.3 26.5576 10.3C27.4869 10.3 28.1944 10.4942 28.7908 10.8826L28.4995 12.2142C27.9169 11.7287 27.2511 11.4929 26.516 11.4929L26.5299 11.479Z" fill="url(#paint2_linear_6826_46775)"/>
<defs>
<linearGradient id="paint0_linear_6826_46775" x1="12.0715" y1="4.00268" x2="50.351" y2="59.4996" gradientUnits="userSpaceOnUse">
<stop stop-color="#90A2E7"/>
<stop offset="0.336538" stop-color="#5E6DAA"/>
<stop offset="0.745192" stop-color="#3E4561"/>
<stop offset="1" stop-color="#181C2B"/>
</linearGradient>
<linearGradient id="paint1_linear_6826_46775" x1="12.0715" y1="4.00268" x2="50.351" y2="59.4996" gradientUnits="userSpaceOnUse">
<stop stop-color="#90A2E7"/>
<stop offset="0.336538" stop-color="#5E6DAA"/>
<stop offset="0.745192" stop-color="#3E4561"/>
<stop offset="1" stop-color="#181C2B"/>
</linearGradient>
<linearGradient id="paint2_linear_6826_46775" x1="12.0715" y1="4.00268" x2="50.351" y2="59.4996" gradientUnits="userSpaceOnUse">
<stop stop-color="#90A2E7"/>
<stop offset="0.336538" stop-color="#5E6DAA"/>
<stop offset="0.745192" stop-color="#3E4561"/>
<stop offset="1" stop-color="#181C2B"/>
</linearGradient>
</defs>
</svg>
