<?xml version="1.0" ?>
<!-- Uploaded to: SVG Repo, www.svgrepo.com, Generator: SVG Repo Mixer Tools -->
<svg fill="#000000" width="800px" height="800px" viewBox="0 0 64 64" xmlns="http://www.w3.org/2000/svg">
<g id="Outline">
<g data-name="Outline" id="Outline-2">
<path d="M39,36.852a6.8,6.8,0,0,0-6.793-6.793h-.319A3.716,3.716,0,1,1,35.6,26.344a1,1,0,0,0,2,0,5.725,5.725,0,0,0-4.561-5.6V18.09a1,1,0,0,0-2,0V20.7a5.712,5.712,0,0,0,.846,11.361h.319a4.793,4.793,0,1,1-4.793,4.793,1,1,0,0,0-2,0A6.8,6.8,0,0,0,31.451,43.6v2.947a1,1,0,0,0,2,0v-3c0-.008,0-.014,0-.021A6.8,6.8,0,0,0,39,36.852Z"/>
<path d="M32,2A30,30,0,1,0,62,32,30.034,30.034,0,0,0,32,2Zm0,58A28,28,0,1,1,60,32,28.032,28.032,0,0,1,32,60Z"/>
<path d="M49.655,16.793a3.172,3.172,0,1,0-3.172,3.172,3.137,3.137,0,0,0,1.263-.266A19.994,19.994,0,0,1,22.692,49.707a1,1,0,0,0-.933,1.769,21.986,21.986,0,0,0,27.47-33.124A3.141,3.141,0,0,0,49.655,16.793Zm-4.344,0a1.172,1.172,0,1,1,1.172,1.172A1.172,1.172,0,0,1,45.311,16.793Z"/>
<path d="M16.793,44.035a3.164,3.164,0,0,0-.692.081A19.779,19.779,0,0,1,12,32,20.023,20.023,0,0,1,32,12a19.811,19.811,0,0,1,8.463,1.874,1,1,0,0,0,.848-1.812A21.989,21.989,0,0,0,14.39,45.16a3.141,3.141,0,0,0-.769,2.047,3.172,3.172,0,1,0,3.172-3.172Zm0,4.344a1.172,1.172,0,1,1,1.172-1.172A1.172,1.172,0,0,1,16.793,48.379Z"/>
</g>
</g>
</svg>