<svg width="35" height="35" viewBox="0 0 35 35" fill="none" xmlns="http://www.w3.org/2000/svg">
<path d="M35 17.5C35 27.165 27.165 35 17.5 35C7.83502 35 0 27.165 0 17.5C0 7.83502 7.83502 0 17.5 0C27.165 0 35 7.83502 35 17.5Z" fill="#627EEA"/>
<path d="M35 17.5C35 27.165 27.165 35 17.5 35C7.83502 35 0 27.165 0 17.5C0 7.83502 7.83502 0 17.5 0C27.165 0 35 7.83502 35 17.5Z" fill="#5970FF"/>
<path d="M24.8298 19.0622C24.8475 19.0814 24.8495 19.1111 24.8347 19.1325L17.5408 29.4176C17.5337 29.4276 17.5237 29.4346 17.5125 29.4381H17.4773C17.4661 29.4346 17.4561 29.4276 17.449 29.4176L10.1541 19.1461C10.1393 19.1247 10.1413 19.095 10.1589 19.0758C10.1767 19.0567 10.2057 19.053 10.2283 19.0661L17.4929 23.3522L24.7605 19.0524C24.7829 19.0394 24.8121 19.0432 24.8298 19.0622ZM17.5115 5.54166C17.5185 5.54391 17.5233 5.54957 17.5291 5.55435C17.5324 5.55736 17.5363 5.55942 17.5388 5.56314C17.5397 5.56439 17.5419 5.56473 17.5427 5.56607L24.8367 17.6774C24.8443 17.69 24.847 17.7061 24.8435 17.7204C24.8399 17.7345 24.8297 17.747 24.8171 17.7545L17.5232 22.0583C17.5145 22.0634 17.5047 22.0652 17.4949 22.0651C17.4847 22.0653 17.4745 22.0635 17.4656 22.0583L10.1716 17.7545C10.1591 17.747 10.1499 17.7345 10.1462 17.7204C10.1427 17.7061 10.1445 17.69 10.1521 17.6774L17.446 5.56607C17.4532 5.55431 17.4645 5.54581 17.4773 5.54166C17.4783 5.54133 17.4792 5.54096 17.4802 5.54068H17.5095L17.5115 5.54166Z" fill="white"/>
</svg>
