<svg width="45" height="45" viewBox="0 0 45 45" fill="none" xmlns="http://www.w3.org/2000/svg">
<rect x="1" y="1" width="43" height="43" rx="6.03125" fill="white"/>
<rect x="1" y="1" width="43" height="43" rx="6.03125" stroke="black" stroke-width="2"/>
<path d="M31.3428 24.9591C31.3712 24.9424 31.4083 24.9476 31.4307 24.9718C31.4527 24.996 31.4544 25.0329 31.4355 25.0597L22.2822 37.9649C22.2736 37.9785 22.2619 37.9901 22.2461 37.9952C22.2387 37.9975 22.2312 37.9944 22.2236 37.9942C22.2165 37.9943 22.2092 37.9974 22.2021 37.9952C22.187 37.9903 22.1747 37.9804 22.166 37.9679L13.0127 25.0763C12.994 25.0496 12.9957 25.0135 13.0176 24.9893C13.0397 24.9653 13.0762 24.9594 13.1045 24.9757L22.2246 30.3556L31.3428 24.9591ZM22.249 8.00302C22.2518 8.00411 22.2533 8.00745 22.2559 8.00888C22.266 8.01432 22.2749 8.02004 22.2812 8.02939L22.2832 8.03134L31.4385 23.2335C31.448 23.2493 31.4506 23.2683 31.4463 23.2862C31.4418 23.3041 31.4299 23.3206 31.4141 23.3302L22.2588 28.7315C22.2371 28.7438 22.21 28.7442 22.1885 28.7315L13.0342 23.3302C13.0183 23.3206 13.0065 23.3042 13.002 23.2862C12.9976 23.2683 13.0003 23.2493 13.0098 23.2335L22.165 8.03134L22.168 8.02548C22.1739 8.01772 22.1827 8.01367 22.1914 8.00888C22.1946 8.00706 22.1968 8.00334 22.2002 8.00204C22.2018 8.00145 22.2034 8.00056 22.2051 8.00009C22.2112 7.99844 22.2175 8.00103 22.2236 8.00107C22.2301 8.00093 22.2367 7.99833 22.2432 8.00009L22.249 8.00302Z" fill="black"/>
</svg>
