<svg width="35" height="35" viewBox="0 0 35 35" fill="none" xmlns="http://www.w3.org/2000/svg">
<mask id="mask0_7328_15778" style="mask-type:alpha" maskUnits="userSpaceOnUse" x="0" y="0" width="35" height="35">
<circle cx="17.5" cy="17.5" r="17.5" fill="#5970FF"/>
</mask>
<g mask="url(#mask0_7328_15778)">
<circle cx="17.5" cy="17.5" r="17.5" fill="#5970FF"/>
<circle cx="17.5" cy="17.5" r="17.5" fill="#5970FF"/>
<path d="M24.2809 16.0123C24.298 16.0309 24.2994 16.0591 24.2848 16.0797L17.2662 25.9762C17.2594 25.9859 17.2503 25.9939 17.2389 25.9977C17.2169 26.0045 17.1928 25.9957 17.1793 25.9771L10.1598 16.0934C10.1451 16.0727 10.1476 16.0446 10.1647 16.026C10.1818 16.0074 10.2093 16.0034 10.2311 16.0162L17.2223 20.1402L24.2145 16.0025C24.2361 15.9898 24.2637 15.9939 24.2809 16.0123ZM17.2389 3.00156C17.2431 3.00298 17.2459 3.00695 17.2496 3.00937C17.256 3.01338 17.262 3.01695 17.2662 3.02304L17.2682 3.02499L24.2877 14.6803C24.2949 14.6924 24.2971 14.7076 24.2936 14.7213C24.29 14.7347 24.281 14.7464 24.2692 14.7535L17.2496 18.8951C17.2415 18.8998 17.2324 18.9019 17.2233 18.9019H17.2223C17.2132 18.9018 17.2041 18.8998 17.1959 18.8951L10.1764 14.7535C10.1644 14.7464 10.1556 14.7347 10.152 14.7213C10.1485 14.7075 10.1506 14.6925 10.1578 14.6803L17.1774 3.02499V3.02402C17.1781 3.02279 17.1785 3.02127 17.1793 3.02011L17.2028 3.00253L17.2047 3.00156C17.2057 3.00121 17.2066 3.00087 17.2076 3.00058H17.2369L17.2389 3.00156Z" fill="white"/>
<circle cx="17" cy="38" r="14.375" fill="#D9D9D9"/>
<circle cx="17" cy="38" r="14.375" fill="#7158FF"/>
<circle cx="17" cy="38" r="14.375" stroke="#5E47DF" stroke-width="1.25"/>
<circle cx="17" cy="38" r="14.375" stroke="#4B32D5" stroke-width="1.25"/>
<path d="M19.0577 26.6161L17.0376 27.7763V31.3972L15.9231 32.0433L14.8017 31.3967V30.104L15.9231 29.4636L16.6441 29.8818V28.8358L15.9168 28.4229L13.8972 29.5962V31.917L15.9236 33.084L17.9432 31.917V28.2966L19.0645 27.65L20.1854 28.2966V29.5836L19.0645 30.236L18.3372 29.8142V30.8549L19.0577 31.2704L21.0972 30.1102V27.7763L19.0577 26.6161Z" fill="white"/>
</g>
</svg>
