<svg width="32" height="32" viewBox="0 0 32 32" fill="none" xmlns="http://www.w3.org/2000/svg">
<g clip-path="url(#clip0_7307_15349)">
<path d="M25.5701 18.0928C25.6003 18.0752 25.6391 18.0808 25.6628 18.1064C25.6866 18.1323 25.6888 18.1715 25.6687 18.2002L15.9031 31.9688C15.8939 31.9831 15.8819 31.9955 15.865 32.001C15.8572 32.0035 15.8494 32.0002 15.8416 32C15.8337 32.0002 15.8259 32.0034 15.8181 32.001C15.801 31.9955 15.7882 31.9833 15.7791 31.9688L6.0144 18.2188C5.99402 18.19 5.99643 18.1509 6.02026 18.125C6.04412 18.0994 6.08283 18.0935 6.11304 18.1113L15.8406 23.8506L25.5701 18.0928ZM15.8494 -0.000976562C15.8536 -0.000601342 15.8579 -0.00113598 15.8621 0C15.8864 0.00683757 15.9051 0.0256194 15.9128 0.0488281L25.6716 16.252C25.6819 16.269 25.6852 16.2903 25.6804 16.3096C25.6755 16.3286 25.6631 16.3454 25.6462 16.3555L15.8806 22.1162L15.8796 22.1182C15.8679 22.1249 15.8547 22.128 15.8416 22.1279C15.8284 22.128 15.8152 22.1248 15.8035 22.1182L15.8015 22.1162L6.03687 16.3555C6.01982 16.3454 6.00764 16.3287 6.00269 16.3096C5.99782 16.2903 6.00121 16.269 6.01147 16.252L15.7781 0.0341797C15.7859 0.0210644 15.7969 0.0102116 15.8113 0.00390625C15.8126 0.00330361 15.8138 0.00248093 15.8152 0.00195312C15.8171 0.00124194 15.819 0.0005553 15.821 0C15.8249 -0.00102724 15.8289 -0.000592428 15.8328 -0.000976562C15.8357 -0.00139178 15.8386 -0.000916282 15.8416 -0.000976562C15.8442 -0.000913143 15.8468 -0.001323 15.8494 -0.000976562Z" fill="white"/>
</g>
<defs>
<clipPath id="clip0_7307_15349">
<rect width="32" height="32" fill="white"/>
</clipPath>
</defs>
</svg>
