<svg width="35" height="35" viewBox="0 0 35 35" fill="none" xmlns="http://www.w3.org/2000/svg">
<mask id="mask0_8219_1262" style="mask-type:alpha" maskUnits="userSpaceOnUse" x="0" y="0" width="35" height="35">
<circle cx="17.5" cy="17.5" r="17.5" fill="#5970FF"/>
</mask>
<g mask="url(#mask0_8219_1262)">
<circle cx="17.5" cy="17.5" r="17.5" fill="#5970FF"/>
<circle cx="17.5" cy="17.5" r="17.5" fill="#5970FF"/>
<path d="M24.4569 16.0129C24.4737 16.0315 24.4753 16.0598 24.4608 16.0803L17.4423 25.9777C17.4288 25.9965 17.4038 26.004 17.3817 25.9973C17.3703 25.9936 17.3609 25.9862 17.3544 25.9768L10.3348 16.093C10.3202 16.0723 10.3226 16.0442 10.3397 16.0256C10.3569 16.0071 10.3844 16.003 10.4061 16.0158L17.3983 20.1398L24.3905 16.0031C24.4122 15.9905 24.4398 15.9944 24.4569 16.0129ZM17.4139 3.00117C17.4206 3.00327 17.4251 3.00848 17.4305 3.01289C17.4341 3.01581 17.4376 3.01802 17.4403 3.02168C17.4412 3.02293 17.4434 3.02327 17.4442 3.02461L24.4637 14.6799C24.4709 14.692 24.473 14.7073 24.4696 14.7209C24.4661 14.7343 24.457 14.7459 24.4452 14.7531L17.4257 18.8947C17.4173 18.8997 17.4078 18.9007 17.3983 18.9006C17.3889 18.9007 17.3794 18.8996 17.371 18.8947L10.3514 14.7531C10.3394 14.7459 10.3306 14.7345 10.327 14.7209C10.3236 14.7071 10.3256 14.6921 10.3329 14.6799L17.3524 3.02461L17.3534 3.02266C17.3567 3.01753 17.3622 3.01468 17.3671 3.01094C17.3708 3.0081 17.3735 3.00394 17.3778 3.00215L17.3837 3.0002H17.412L17.4139 3.00117Z" fill="white"/>
<circle cx="17" cy="38" r="14.375" fill="#D9D9D9"/>
<circle cx="17" cy="38" r="14.375" fill="#7158FF"/>
<circle cx="17" cy="38" r="14.375" stroke="#5E47DF" stroke-width="1.25"/>
<circle cx="17" cy="38" r="14.375" stroke="#4B32D5" stroke-width="1.25"/>
<path d="M19.0577 26.6161L17.0376 27.7763V31.3972L15.9231 32.0433L14.8017 31.3967V30.104L15.9231 29.4636L16.6441 29.8818V28.8358L15.9168 28.4229L13.8972 29.5962V31.917L15.9236 33.084L17.9432 31.917V28.2966L19.0645 27.65L20.1854 28.2966V29.5836L19.0645 30.236L18.3372 29.8142V30.8549L19.0577 31.2704L21.0972 30.1102V27.7763L19.0577 26.6161Z" fill="white"/>
</g>
</svg>
