<svg width="35" height="35" viewBox="0 0 35 35" fill="none" xmlns="http://www.w3.org/2000/svg">
<circle cx="17.5" cy="17.5" r="17.5" fill="#5970FF"/>
<circle cx="17.5" cy="17.5" r="17.5" fill="#5970FF"/>
<path d="M24.4559 16.0128C24.473 16.0315 24.4745 16.0596 24.4598 16.0802L17.4413 25.9777C17.4277 25.9963 17.4028 26.0042 17.3807 25.9972C17.3692 25.9934 17.36 25.9855 17.3534 25.9757L10.3348 16.0929C10.3202 16.0723 10.3226 16.0442 10.3397 16.0255C10.3569 16.0071 10.3844 16.003 10.4061 16.0158L17.3983 20.1398L24.3895 16.0031C24.4113 15.9903 24.4388 15.9943 24.4559 16.0128ZM17.4139 3.00112C17.4182 3.00256 17.4209 3.00652 17.4247 3.00893C17.4311 3.01294 17.437 3.01649 17.4413 3.02261L17.4432 3.02456L24.4628 14.6798C24.47 14.692 24.4721 14.7071 24.4686 14.7208C24.4651 14.7344 24.4562 14.7459 24.4442 14.7531L17.4247 18.8947C17.4166 18.8994 17.4074 18.9015 17.3983 18.9015H17.3973C17.3882 18.9014 17.3791 18.8993 17.371 18.8947L10.3514 14.7531C10.3394 14.7459 10.3306 14.7344 10.327 14.7208C10.3236 14.7071 10.3256 14.692 10.3329 14.6798L17.3524 3.02456V3.02358C17.3532 3.02236 17.3535 3.02083 17.3544 3.01968L17.3778 3.0021L17.3798 3.00112C17.3807 3.00078 17.3817 3.00043 17.3827 3.00014H17.412L17.4139 3.00112Z" fill="white"/>
<path d="M17.0001 22.9999C22.3573 22.9999 27.0577 25.8091 29.7111 30.034C26.5579 33.1065 22.2504 34.9998 17.5001 34.9999C12.4428 34.9999 7.88737 32.8538 4.6925 29.4237C7.40349 25.5405 11.905 22.9999 17.0001 22.9999Z" fill="#7158FF"/>
<path d="M17.0001 22.9999C22.3573 22.9999 27.0577 25.8091 29.7111 30.034C26.5579 33.1065 22.2504 34.9998 17.5001 34.9999C12.4428 34.9999 7.88737 32.8538 4.6925 29.4237C7.40349 25.5405 11.905 22.9999 17.0001 22.9999Z" fill="#5436FF"/>
<path d="M18.9327 25.9161L16.9126 27.0763V30.6972L15.7981 31.3433L14.6767 30.6967V29.4039L15.7981 28.7636L16.5191 29.1817V28.1358L15.7918 27.7229L13.7722 28.8962V31.217L15.7986 32.384L17.8182 31.217V27.5966L18.9395 26.95L20.0604 27.5966V28.8836L18.9395 29.536L18.2122 29.1142V30.1548L18.9327 30.5704L20.9722 29.4102V27.0763L18.9327 25.9161Z" fill="white"/>
</svg>
