<svg width="45" height="45" viewBox="0 0 45 45" fill="none" xmlns="http://www.w3.org/2000/svg">
<rect x="1" y="1" width="43" height="43" rx="6.03125" fill="white"/>
<rect x="1" y="1" width="43" height="43" rx="6.03125" stroke="black" stroke-width="2"/>
<path d="M31.5426 24.7603C31.571 24.7435 31.6081 24.7488 31.6305 24.773C31.6528 24.7973 31.6544 24.834 31.6354 24.8609L22.484 37.7632C22.4754 37.7781 22.4638 37.791 22.4469 37.7964C22.432 37.8012 22.4162 37.8005 22.402 37.7955V37.7964C22.386 37.7912 22.3735 37.7799 22.3649 37.7662L13.2135 24.8775C13.1947 24.8508 13.1965 24.8148 13.2184 24.7906C13.2406 24.7664 13.2769 24.7605 13.3053 24.7769L22.4244 30.1568L31.5426 24.7603ZM22.4479 7.80328C22.4491 7.80374 22.4496 7.80569 22.4508 7.80621C22.4646 7.81182 22.4753 7.82042 22.483 7.83258L31.6383 23.0347C31.6479 23.0506 31.6506 23.0695 31.6461 23.0875C31.6415 23.1056 31.63 23.1219 31.6139 23.1314L22.4606 28.5308L22.4596 28.5328C22.4487 28.5389 22.4366 28.5425 22.4244 28.5425C22.4119 28.5427 22.3994 28.5391 22.3883 28.5328L22.3864 28.5308L13.235 23.1314C13.219 23.1219 13.2073 23.1055 13.2028 23.0875C13.1984 23.0695 13.201 23.0506 13.2106 23.0347L22.3658 7.83258H22.3649C22.3725 7.8205 22.3836 7.81199 22.3971 7.80621C22.3983 7.80568 22.3988 7.80375 22.4 7.80328C22.4017 7.80268 22.4032 7.80181 22.4049 7.80133C22.4114 7.79954 22.4179 7.80218 22.4244 7.80231C22.4309 7.80219 22.4375 7.79955 22.444 7.80133C22.4454 7.80172 22.4465 7.80281 22.4479 7.80328Z" fill="black"/>
</svg>
