<svg width="18" height="18" viewBox="0 0 18 18" fill="none" xmlns="http://www.w3.org/2000/svg">
    <g clip-path="url(#clip0_10958_56952)">
        <path d="M7.74 13.14L14.085 6.795L12.825 5.535L7.74 10.62L5.175 8.055L3.915 9.315L7.74 13.14ZM9 18C7.755 18 6.585 17.7638 5.49 17.2913C4.395 16.8188 3.4425 16.1775 2.6325 15.3675C1.8225 14.5575 1.18125 13.605 0.70875 12.51C0.23625 11.415 0 10.245 0 9C0 7.755 0.23625 6.585 0.70875 5.49C1.18125 4.395 1.8225 3.4425 2.6325 2.6325C3.4425 1.8225 4.395 1.18125 5.49 0.70875C6.585 0.23625 7.755 0 9 0C10.245 0 11.415 0.23625 12.51 0.70875C13.605 1.18125 14.5575 1.8225 15.3675 2.6325C16.1775 3.4425 16.8188 4.395 17.2913 5.49C17.7638 6.585 18 7.755 18 9C18 10.245 17.7638 11.415 17.2913 12.51C16.8188 13.605 16.1775 14.5575 15.3675 15.3675C14.5575 16.1775 13.605 16.8188 12.51 17.2913C11.415 17.7638 10.245 18 9 18Z" fill="#91B0FF"/>
    </g>
    <defs>
        <clipPath id="clip0_10958_56952">
            <rect width="18" height="18" fill="white"/>
        </clipPath>
    </defs>
</svg>
