<svg width="30" height="30" viewBox="0 0 30 30" fill="none" xmlns="http://www.w3.org/2000/svg">
    <path d="M15 0C23.2843 0 30 6.71573 30 15C30 23.2843 23.2843 30 15 30C6.71586 29.9999 6.59743e-07 23.2842 0 15C0 6.71582 6.71586 0.000149433 15 0ZM21.2227 16.3311L14.9941 20.0166L8.76758 16.3428C8.74823 16.3314 8.72327 16.3351 8.70801 16.3516C8.69296 16.3681 8.69129 16.3928 8.7041 16.4111L14.9561 25.2158C14.9619 25.224 14.9706 25.2302 14.9805 25.2334C14.9897 25.2362 15.0001 25.2364 15.0098 25.2334C15.0196 25.2302 15.0284 25.2239 15.0342 25.2158L21.2861 16.3994C21.2989 16.3811 21.2973 16.3563 21.2822 16.3398C21.267 16.3234 21.242 16.3198 21.2227 16.3311ZM15.0078 4.74902C14.9901 4.74424 14.9719 4.75125 14.96 4.76465C14.959 4.76576 14.957 4.76644 14.9561 4.76758C14.9554 4.76847 14.9547 4.76957 14.9541 4.77051L8.70215 15.1523C8.69578 15.1631 8.69428 15.1763 8.69727 15.1885C8.70041 15.2007 8.70794 15.2113 8.71875 15.2178L14.9678 18.9043C14.9692 18.9054 14.9701 18.9073 14.9717 18.9082C14.9864 18.9163 15.005 18.9157 15.0195 18.9072L21.2715 15.2188C21.2822 15.2123 21.2908 15.2015 21.2939 15.1895C21.297 15.1773 21.2944 15.1641 21.2881 15.1533L15.0361 4.77148L15.0342 4.76953C15.0296 4.76259 15.0232 4.75772 15.0156 4.75391C15.0143 4.75324 15.0131 4.75159 15.0117 4.75098C15.0104 4.75049 15.0091 4.74946 15.0078 4.74902Z" fill="#91B0FF"/>
    <path d="M15 0C23.2843 0 30 6.71573 30 15C30 23.2843 23.2843 30 15 30C6.71586 29.9999 6.59743e-07 23.2842 0 15C0 6.71582 6.71586 0.000149433 15 0ZM21.2227 16.3311L14.9941 20.0166L8.76758 16.3428C8.74823 16.3314 8.72327 16.3351 8.70801 16.3516C8.69296 16.3681 8.69129 16.3928 8.7041 16.4111L14.9561 25.2158C14.9619 25.224 14.9706 25.2302 14.9805 25.2334C14.9897 25.2362 15.0001 25.2364 15.0098 25.2334C15.0196 25.2302 15.0284 25.2239 15.0342 25.2158L21.2861 16.3994C21.2989 16.3811 21.2973 16.3563 21.2822 16.3398C21.267 16.3234 21.242 16.3198 21.2227 16.3311ZM15.0078 4.74902C14.9901 4.74424 14.9719 4.75125 14.96 4.76465C14.959 4.76576 14.957 4.76644 14.9561 4.76758C14.9554 4.76847 14.9547 4.76957 14.9541 4.77051L8.70215 15.1523C8.69578 15.1631 8.69428 15.1763 8.69727 15.1885C8.70041 15.2007 8.70794 15.2113 8.71875 15.2178L14.9678 18.9043C14.9692 18.9054 14.9701 18.9073 14.9717 18.9082C14.9864 18.9163 15.005 18.9157 15.0195 18.9072L21.2715 15.2188C21.2822 15.2123 21.2908 15.2015 21.2939 15.1895C21.297 15.1773 21.2944 15.1641 21.2881 15.1533L15.0361 4.77148L15.0342 4.76953C15.0296 4.76259 15.0232 4.75772 15.0156 4.75391C15.0143 4.75324 15.0131 4.75159 15.0117 4.75098C15.0104 4.75049 15.0091 4.74946 15.0078 4.74902Z" fill="#91B0FF"/>
</svg>
