<svg width="128" height="128" viewBox="0 0 128 128" fill="none" xmlns="http://www.w3.org/2000/svg">
<g clip-path="url(#clip0_67_21)">
<path d="M70.4443 8.33334C101.173 8.33336 126 33.1598 126 63.889C126 94.6181 101.173 119.445 70.4443 119.445C53.0832 119.445 37.4581 111.458 27.3887 98.9583L37.2842 89.0628C44.7495 98.9587 56.9027 105.556 70.4443 105.556C93.361 105.556 112.111 86.8056 112.111 63.889C112.111 40.9723 93.361 22.222 70.4443 22.222C56.9027 22.222 44.7495 28.8193 37.2842 38.7152C33.1175 44.0971 30.3405 50.521 29.2988 57.639C28.9516 59.7223 28.7773 61.8057 28.7773 63.889H42.667L21.833 84.722L1 63.889H14.8887C14.8887 61.9793 14.8891 60.2431 15.2363 58.3333C15.7572 52.7778 17.146 47.5692 19.0557 42.5345C27.3891 22.5694 47.3542 8.33334 70.4443 8.33334ZM75.6523 35.4163V60.9378L93.708 78.9925L83.8125 88.889L61.7637 66.6663V35.4163H75.6523Z" fill="white"/>
</g>
<defs>
<clipPath id="clip0_67_21">
<rect width="128" height="128" fill="white"/>
</clipPath>
</defs>
</svg>
