<svg width="45" height="46" viewBox="0 0 45 46" fill="none" xmlns="http://www.w3.org/2000/svg">
<circle cx="22.5" cy="23" r="22.5" fill="#312938" fill-opacity="0.1"/>
<path d="M25.391 19.4402C24.7502 15.2551 21.1352 12.0498 16.7708 12.0498C11.9548 12.0498 8.04984 15.9548 8.04984 20.7708C8.04984 24.1914 10.0183 27.1505 12.8847 28.5797C13.9003 29.087 15.0296 29.401 16.2246 29.4738C16.405 29.4857 16.5874 29.4917 16.7708 29.4917C20.8542 29.4917 24.2807 26.686 25.2306 22.8977C25.401 22.2169 25.4917 21.5043 25.4917 20.7708C25.4917 20.3183 25.4568 19.8738 25.391 19.4402ZM16.7708 26.5017C16.4518 26.5017 16.1379 26.4757 15.8329 26.4249C14.7794 26.2505 13.8226 25.788 13.0452 25.1223C11.8183 24.0708 11.0399 22.51 11.0399 20.7708C11.0399 17.6113 13.6113 15.0399 16.7708 15.0399C19.1429 15.0399 21.1821 16.488 22.0512 18.5462C22.3412 19.2309 22.5017 19.9824 22.5017 20.7708C22.5017 21.0508 22.4817 21.3259 22.4429 21.595C22.0422 24.3658 19.6512 26.5017 16.7708 26.5017Z" fill="#312938"/>
<path d="M36.4551 15.7874H34.2126V13.5448C34.2126 12.7196 33.5429 12.0498 32.7176 12.0498C31.8924 12.0498 31.2226 12.7196 31.2226 13.5448V15.7874H28.9801C28.1548 15.7874 27.485 16.4571 27.485 17.2824C27.485 18.1076 28.1548 18.7774 28.9801 18.7774H31.2226V21.0199C31.2226 21.8452 31.8924 22.5149 32.7176 22.5149C33.5429 22.5149 34.2126 21.8452 34.2126 21.0199V18.7774H36.4551C37.2804 18.7774 37.9502 18.1076 37.9502 17.2824C37.9502 16.4571 37.2804 15.7874 36.4551 15.7874Z" fill="#312938"/>
<path d="M25.391 19.4402C25.4568 19.8738 25.4917 20.3183 25.4917 20.7708C25.4917 21.5043 25.401 22.2169 25.2306 22.8977C26.4575 23.9502 27.2359 25.511 27.2359 27.2492C27.2359 30.4096 24.6654 32.9801 21.505 32.9801C19.1339 32.9801 17.0937 31.5319 16.2246 29.4738C15.0296 29.401 13.9003 29.087 12.8847 28.5797C13.5256 32.7658 17.1415 35.9701 21.505 35.9701C26.3219 35.9701 30.2259 32.0661 30.2259 27.2492C30.2259 23.8296 28.2575 20.8684 25.391 19.4402Z" fill="#312938"/>
</svg>
