<svg xmlns="http://www.w3.org/2000/svg" viewBox="0 0 32 32" width="32" height="32">
    <path fill-rule="evenodd" clip-rule="evenodd"
        d="M16 1.37854C16 0.764286 16.6636 0.379192 17.1969 0.68395L23 4L29.4961 7.71208C29.8077 7.89012 30 8.22147 30 8.58032V16L23.9923 12.567C23.3774 12.2157 22.6226 12.2157 22.0077 12.567L16 16V8V1.37854ZM2 16V8.58032C2 8.22147 2.19229 7.89012 2.50386 7.71208L8.00772 4.56702C8.62259 4.21566 9.37741 4.21566 9.99228 4.56702L16 8L2 16ZM16 30.6215C16 31.2357 15.3364 31.6208 14.8031 31.3161L9 28L2.50386 24.2879C2.19229 24.1099 2 23.7785 2 23.4197V16L8.00772 19.433C8.62259 19.7843 9.37741 19.7843 9.99228 19.433L16 16V24V30.6215ZM22.0077 27.433C22.6226 27.7843 23.3774 27.7843 23.9923 27.433L29.4961 24.2879C29.8077 24.1099 30 23.7785 30 23.4197V16L16 24L22.0077 27.433Z"
        fill="#159DFF"></path>
</svg>