<svg width="250" height="250" viewBox="0 0 250 250" fill="none" xmlns="http://www.w3.org/2000/svg">
<path d="M246.253 155.241C229.557 222.205 161.733 262.959 94.7606 246.26C27.8153 229.565 -12.9386 161.737 3.7645 94.7758C20.452 27.8031 88.2762 -12.9547 155.229 3.74061C222.198 20.4359 262.948 88.2719 246.253 155.241Z" fill="#F7931A"/>
<path d="M246.253 155.241C229.557 222.205 161.733 262.959 94.7606 246.26C27.8153 229.565 -12.9386 161.737 3.7645 94.7758C20.452 27.8031 88.2762 -12.9547 155.229 3.74061C222.198 20.4359 262.948 88.2719 246.253 155.241Z" fill="url(#paint0_linear_12205_81840)"/>
<path d="M246.253 155.241C229.557 222.205 161.733 262.959 94.7606 246.26C27.8153 229.565 -12.9386 161.737 3.7645 94.7758C20.452 27.8031 88.2762 -12.9547 155.229 3.74061C222.198 20.4359 262.948 88.2719 246.253 155.241Z" fill="url(#paint1_linear_12205_81840)"/>
<path d="M246.253 155.241C229.557 222.205 161.733 262.959 94.7606 246.26C27.8153 229.565 -12.9386 161.737 3.7645 94.7758C20.452 27.8031 88.2762 -12.9547 155.229 3.74061C222.198 20.4359 262.948 88.2719 246.253 155.241Z" fill="url(#paint2_linear_12205_81840)"/>
<path d="M3.7645 94.7757C20.4522 27.8033 88.2764 -12.9547 155.229 3.74058C222.198 20.4359 262.948 88.272 246.253 155.241L245.853 156.806C228.635 222.319 162.266 262.198 96.33 246.641L94.7606 246.26C27.8153 229.565 -12.9386 161.737 3.7645 94.7757ZM154.019 8.59214C89.7465 -7.43476 24.636 31.6917 8.61606 95.9847V95.9867C-7.41844 160.268 31.7044 225.381 95.9696 241.408C160.263 257.44 225.374 218.317 241.401 154.032C257.429 89.7415 218.308 24.6193 154.019 8.59214Z" fill="url(#paint3_linear_12205_81840)"/>
<path d="M3.7645 94.7757C20.4522 27.8033 88.2764 -12.9547 155.229 3.74058C222.198 20.4359 262.948 88.272 246.253 155.241L245.853 156.806C228.635 222.319 162.266 262.198 96.33 246.641L94.7606 246.26C27.8153 229.565 -12.9386 161.737 3.7645 94.7757ZM154.019 8.59214C89.7465 -7.43476 24.636 31.6917 8.61606 95.9847V95.9867C-7.41844 160.268 31.7044 225.381 95.9696 241.408C160.263 257.44 225.374 218.317 241.401 154.032C257.429 89.7415 218.308 24.6193 154.019 8.59214Z" fill="url(#paint4_linear_12205_81840)"/>
<path d="M3.7645 94.7757C20.4522 27.8033 88.2764 -12.9547 155.229 3.74058C222.198 20.4359 262.948 88.272 246.253 155.241L245.853 156.806C228.635 222.319 162.266 262.198 96.33 246.641L94.7606 246.26C27.8153 229.565 -12.9386 161.737 3.7645 94.7757ZM154.019 8.59214C89.7465 -7.43476 24.636 31.6917 8.61606 95.9847V95.9867C-7.41844 160.268 31.7044 225.381 95.9696 241.408C160.263 257.44 225.374 218.317 241.401 154.032C257.429 89.7415 218.308 24.6193 154.019 8.59214Z" fill="url(#paint5_linear_12205_81840)"/>
<path d="M93.0586 208.333L100.871 153.646H61.8086L132.121 52.083H147.746L139.934 114.583H186.809L108.684 208.333H93.0586Z" fill="#F66E00"/>
<path d="M93.0586 203.125L100.871 148.438H61.8086L132.121 46.875H147.746L139.934 109.375H186.809L108.684 203.125H93.0586Z" fill="url(#paint6_linear_12205_81840)"/>
<path d="M139.934 109.375H186.809L108.684 203.125H93.0586L100.871 148.438H61.8086L132.121 46.875H147.746L139.934 109.375ZM65.5859 146.458H103.153L95.3408 201.146H107.757L182.583 111.354H137.691L145.504 48.8545H133.158L65.5859 146.458Z" fill="url(#paint7_linear_12205_81840)"/>
<defs>
<linearGradient id="paint0_linear_12205_81840" x1="125.007" y1="0" x2="125.007" y2="250.003" gradientUnits="userSpaceOnUse">
<stop stop-color="#F7BC1A"/>
<stop offset="1" stop-color="#FF7700"/>
</linearGradient>
<linearGradient id="paint1_linear_12205_81840" x1="125.007" y1="0" x2="125.007" y2="250.003" gradientUnits="userSpaceOnUse">
<stop stop-color="#F7BC1A"/>
<stop offset="1" stop-color="#FF6A00"/>
</linearGradient>
<linearGradient id="paint2_linear_12205_81840" x1="125.007" y1="0" x2="125.007" y2="250.003" gradientUnits="userSpaceOnUse">
<stop offset="0.725084" stop-color="#C94701" stop-opacity="0"/>
<stop offset="1" stop-color="#C94701" stop-opacity="0.3"/>
</linearGradient>
<linearGradient id="paint3_linear_12205_81840" x1="125.007" y1="0.000349739" x2="125.007" y2="250.003" gradientUnits="userSpaceOnUse">
<stop stop-color="#FFE091"/>
<stop offset="1" stop-color="#FF9735"/>
</linearGradient>
<linearGradient id="paint4_linear_12205_81840" x1="125.007" y1="0.000349739" x2="125.007" y2="250.003" gradientUnits="userSpaceOnUse">
<stop offset="0.85" stop-color="#FFA54D" stop-opacity="0"/>
<stop offset="1" stop-color="#FFA54D"/>
</linearGradient>
<linearGradient id="paint5_linear_12205_81840" x1="125.007" y1="0.000349739" x2="125.007" y2="250.003" gradientUnits="userSpaceOnUse">
<stop stop-color="#FFF3DA"/>
<stop offset="0.15" stop-color="#FFF3DA" stop-opacity="0"/>
</linearGradient>
<linearGradient id="paint6_linear_12205_81840" x1="124.309" y1="46.875" x2="124.309" y2="203.125" gradientUnits="userSpaceOnUse">
<stop stop-color="white"/>
<stop offset="1" stop-color="#FEEABD"/>
</linearGradient>
<linearGradient id="paint7_linear_12205_81840" x1="124.309" y1="46.875" x2="124.309" y2="203.125" gradientUnits="userSpaceOnUse">
<stop stop-color="white"/>
<stop offset="1" stop-color="white"/>
</linearGradient>
</defs>
</svg>
