<svg width="24" height="24" viewBox="0 0 24 24" fill="none" xmlns="http://www.w3.org/2000/svg">
<path d="M22.7872 5.31335C22.4522 2.73468 20.2819 0.702486 17.7091 0.308701C17.275 0.242161 15.6304 0 11.8207 0H11.7923C7.98156 0 7.16402 0.242161 6.72995 0.308701C4.2288 0.691576 1.94467 2.5176 1.3905 5.12682C1.12395 6.41183 1.0955 7.83642 1.14502 9.14324C1.21561 11.0172 1.2293 12.888 1.39366 14.7544C1.50728 15.9941 1.7055 17.224 1.98681 18.4348C2.51359 20.671 4.646 22.5319 6.7352 23.2911C8.972 24.0829 11.3775 24.2143 13.6824 23.6707C13.9359 23.6096 14.1863 23.5387 14.4336 23.458C14.9941 23.2737 15.6504 23.0675 16.133 22.7054C16.1396 22.7003 16.145 22.6937 16.1488 22.6862C16.1527 22.6786 16.1548 22.6702 16.1551 22.6617V20.8531C16.155 20.8452 16.1531 20.8373 16.1497 20.8302C16.1463 20.8231 16.1414 20.8168 16.1353 20.8119C16.1292 20.807 16.1222 20.8035 16.1147 20.8018C16.1072 20.8001 16.0994 20.8001 16.0919 20.8019C14.6152 21.1671 13.102 21.3502 11.5837 21.3473C8.97086 21.3473 8.26815 20.0634 8.0669 19.5289C7.90516 19.0669 7.80246 18.5851 7.76138 18.0956C7.76094 18.0873 7.76241 18.0791 7.76564 18.0716C7.76884 18.0641 7.77373 18.0574 7.7799 18.0522C7.78606 18.047 7.7933 18.0434 7.80108 18.0416C7.80885 18.0399 7.81689 18.04 7.8246 18.0421C9.2767 18.4048 10.7653 18.5879 12.259 18.5875C12.6183 18.5875 12.9765 18.5875 13.3358 18.5777C14.8381 18.5341 16.4216 18.4544 17.8998 18.1556C17.9367 18.1479 17.9735 18.1414 18.0051 18.1316C20.3367 17.6679 22.5555 16.2128 22.7809 12.528C22.7894 12.383 22.8104 11.0085 22.8104 10.858C22.8115 10.3464 22.9695 7.22883 22.7872 5.31335Z" fill="url(#paint0_linear_3451_1074)"/>
<path d="M19.0934 8.21051V14.6169H16.6418V8.39923C16.6418 7.09026 16.115 6.42267 15.0436 6.42267C13.8657 6.42267 13.2757 7.21242 13.2757 8.7723V12.1756H10.8388V8.7723C10.8388 7.21242 10.2478 6.42267 9.0699 6.42267C8.00473 6.42267 7.47267 7.09026 7.47267 8.39923V14.6169H5.02209V8.21051C5.02209 6.90154 5.34483 5.86164 5.99033 5.09079C6.65617 4.32176 7.52959 3.92688 8.61368 3.92688C9.86848 3.92688 10.8167 4.42647 11.4488 5.42457L12.0588 6.48485L12.6699 5.42457C13.302 4.42647 14.2502 3.92688 15.5029 3.92688C16.586 3.92688 17.4594 4.32176 18.1273 5.09079C18.7721 5.86091 19.0941 6.90081 19.0934 8.21051Z" fill="white"/>
<defs>
<linearGradient id="paint0_linear_3451_1074" x1="12" y1="0" x2="12" y2="24" gradientUnits="userSpaceOnUse">
<stop stop-color="#6364FF"/>
<stop offset="1" stop-color="#563ACC"/>
</linearGradient>
</defs>
</svg>
