<svg width="22" height="22" viewBox="0 0 22 22" fill="none" xmlns="http://www.w3.org/2000/svg">
<path d="M13.7842 18.8721C13.7841 20.5907 12.4091 22 10.6904 22C8.97183 21.9999 7.56261 20.5907 7.5625 18.8721C7.5625 18.7347 7.56238 18.6314 7.59668 18.5283H0V15.7783H2.40625V8.59375C2.40625 3.85 6.25625 0 11 0C15.7437 0 19.5938 3.85 19.5938 8.59375V15.7783H22V18.5283H13.7842V18.8721ZM11 2.75C7.76875 2.75 5.15625 5.3625 5.15625 8.59375V15.7783H16.8438V8.59375C16.8438 5.3625 14.2312 2.75 11 2.75Z" fill="white"/>
</svg>
