<svg width="128" height="128" viewBox="0 0 128 128" fill="none" xmlns="http://www.w3.org/2000/svg">
<path d="M77.9219 103.359C77.9219 111.953 71.0469 119 62.4531 119C53.8594 119 46.8125 111.953 46.8125 103.359C46.8125 102.672 46.8125 102.156 46.9844 101.641H9V87.8906H21.0312V51.9688C21.0312 28.25 40.2812 9 64 9C87.7188 9 106.969 28.25 106.969 51.9688V87.8906H119V101.641H77.9219V103.359ZM64 22.75C47.8438 22.75 34.7812 35.8125 34.7812 51.9688V87.8906H93.2188V51.9688C93.2188 35.8125 80.1562 22.75 64 22.75Z" fill="white"/>
</svg>
