<svg width="158" height="158" viewBox="0 0 158 158" fill="none" xmlns="http://www.w3.org/2000/svg">
<g clip-path="url(#clip0_3076_287)">
<path d="M59.8674 111.213C61.104 109.782 62.8874 109.123 64.6415 109.237L69.6321 103.461C69.1122 101.951 69.369 100.216 70.4903 98.9183C71.6101 97.6223 73.2894 97.1164 74.8608 97.4098L79.8316 91.6568L65.7827 79.5181L42.7631 106.16C41.9574 107.093 41.5571 108.305 41.6467 109.532L41.9828 114.163L48.3733 119.684L53.4019 119.732C54.767 119.746 56.0685 119.159 56.9607 118.127L58.6055 116.223C58.2383 114.504 58.6308 112.644 59.8674 111.213Z" fill="url(#paint0_linear_3076_287)"/>
<path d="M115.362 82.4834C126.257 69.8745 124.867 50.823 112.258 39.9285C99.6491 29.0339 80.5975 30.4236 69.703 43.0325C69.1902 43.6261 68.7318 44.2453 68.2752 44.866L68.1857 44.7886L56.0469 58.8375C52.6951 62.7168 53.1228 68.5796 57.002 71.9314L88.6121 99.2435C92.4913 102.595 98.3541 102.168 101.706 98.2884L113.845 84.2395L113.755 84.1621C114.303 83.6203 114.849 83.077 115.362 82.4834ZM104.671 48.709C108.551 52.0608 108.978 57.9236 105.626 61.8029C102.275 65.6821 96.4118 66.1098 92.5325 62.758C88.6532 59.4061 88.2256 53.5434 91.5774 49.6641C94.9292 45.7849 100.792 45.3572 104.671 48.709Z" fill="url(#paint1_linear_3076_287)"/>
</g>
<defs>
<linearGradient id="paint0_linear_3076_287" x1="72.8481" y1="85.54" x2="45.4677" y2="117.229" gradientUnits="userSpaceOnUse">
<stop stop-color="#E5A505"/>
<stop offset="0.01" stop-color="#E9A804"/>
<stop offset="0.06" stop-color="#F4B102"/>
<stop offset="0.129" stop-color="#FBB600"/>
<stop offset="0.323" stop-color="#FDB700"/>
</linearGradient>
<linearGradient id="paint1_linear_3076_287" x1="91.8949" y1="31.3914" x2="84.3571" y2="99.6065" gradientUnits="userSpaceOnUse">
<stop stop-color="#FEDE00"/>
<stop offset="1" stop-color="#FFD000"/>
</linearGradient>
<clipPath id="clip0_3076_287">
<rect width="111.4" height="111.4" fill="white" transform="translate(73.146) rotate(40.8281)"/>
</clipPath>
</defs>
</svg>
