<svg width="35" height="35" viewBox="0 0 35 35" fill="none" xmlns="http://www.w3.org/2000/svg">
<g clip-path="url(#clip0_7325_15614)">
<path d="M17.5 35C27.198 35 35 27.198 35 17.5C35 7.80203 27.198 0 17.5 0C7.80203 0 0 7.80203 0 17.5C0 27.198 7.80203 35 17.5 35Z" fill="#2C56FF"/>
<path d="M17.5 35C27.198 35 35 27.198 35 17.5C35 7.80203 27.198 0 17.5 0C7.80203 0 0 7.80203 0 17.5C0 27.198 7.80203 35 17.5 35Z" fill="#6154F3"/>
<path d="M17.5 35C27.198 35 35 27.198 35 17.5C35 7.80203 27.198 0 17.5 0C7.80203 0 0 7.80203 0 17.5C0 27.198 7.80203 35 17.5 35Z" fill="#7158FF"/>
<path d="M22.0434 8.12997L16.1514 11.5138V22.0749L12.9005 23.9594L9.62981 22.0734V18.3029L12.9005 16.4352L15.0036 17.6548V14.6042L12.8822 13.3998L6.99182 16.8219V23.5911L12.9021 26.9948L18.7925 23.5911V13.0315L22.0632 11.1455L25.3324 13.0315V16.7852L22.0632 18.6881L19.9418 17.4577V20.493L22.0434 21.7051L27.9918 18.3212V11.5138L22.0434 8.12997Z" fill="white"/>
</g>
<defs>
<clipPath id="clip0_7325_15614">
<rect width="35" height="35" fill="white"/>
</clipPath>
</defs>
</svg>
