<svg width="200" height="200" viewBox="0 0 1200 1200" fill="none" xmlns="http://www.w3.org/2000/svg">
<path d="M282.04 0H917.96C1073.73 0 1200 126.274 1200 282.04V917.96C1200 1073.73 1073.73 1200 917.96 1200H282.04C126.274 1200 0 1073.73 0 917.96V282.04C0 126.274 126.274 0 282.04 0Z" fill="white"/>
<path d="M465.747 393.15H313.576V1008.46H465.747V393.15Z" fill="black"/>
<path d="M717.943 664.889C842.616 658.631 942.949 553.88 942.949 428.336C942.949 297.768 836.625 191.54 705.927 191.54H313.576V322.947H687.271C746.418 322.947 795.414 369.414 796.495 426.527C797.037 455.123 786.304 482.112 766.276 502.518C746.241 522.933 719.469 534.183 690.898 534.183H545.325C540.156 534.183 535.948 538.383 535.948 543.551V660.341C535.948 662.327 536.562 664.226 537.717 665.825L784.704 1008.46H965.505L717.943 664.889Z" fill="black"/>
</svg>
