<svg width="260" height="298" viewBox="0 0 260 298" fill="none" xmlns="http://www.w3.org/2000/svg">
<path d="M119.655 6.27832C126.055 3.53578 133.272 3.45033 139.723 6.02148L140.345 6.27832L243.044 50.293C252.699 54.431 258.96 63.925 258.96 74.4297V128.542C258.96 175.815 236.309 220.2 198.085 247.94L197.18 248.593L145.264 285.676C136.276 292.096 124.25 292.197 115.167 285.978L114.736 285.676L62.8203 248.593C24.0499 220.899 1.04004 176.187 1.04004 128.542V74.4297C1.04004 64.0891 7.10644 54.7283 16.5059 50.4912L16.9561 50.293L119.655 6.27832Z" stroke="#708BF4" stroke-opacity="0.05" stroke-width="2.08"/>
<path d="M120.451 17.2793C126.358 14.7477 133.02 14.6687 138.975 17.042L139.549 17.2793L234.349 57.9082C243.261 61.7279 249.04 70.491 249.04 80.1875V130.138C249.04 173.775 228.131 214.745 192.848 240.352L192.012 240.954L144.089 275.185C135.792 281.111 124.692 281.204 116.308 275.463L115.911 275.185L67.9883 240.954C32.2001 215.391 10.96 174.118 10.96 130.138V80.1875C10.9601 70.6424 16.56 62.0019 25.2363 58.0908L25.6514 57.9082L120.451 17.2793Z" stroke="#708BF4" stroke-opacity="0.15" stroke-width="1.92"/>
<path d="M121.294 28.3906C126.68 26.0825 132.754 26.0099 138.183 28.1738L138.706 28.3906L225.605 65.6328C233.731 69.1153 239 77.1057 239 85.9463V131.733C239 171.381 220.152 208.625 188.301 232.109L186.774 233.218L142.846 264.596C135.282 269.999 125.161 270.083 117.517 264.849L117.154 264.596L73.2256 233.218C40.4513 209.807 21 172.01 21 131.733V85.9463C21 77.2438 26.1053 69.3657 34.0156 65.7998L34.3945 65.6328L121.294 28.3906Z" stroke="#708BF4" stroke-opacity="0.5" stroke-width="2"/>
<path d="M77.8584 226.327L117.794 254.853C125.096 260.068 134.904 260.068 142.206 254.853L182.141 226.327C212.176 204.874 230 170.238 230 133.329V91.7045C230 83.3039 224.994 75.7116 217.272 72.4024L138.272 38.5453C132.99 36.2813 127.01 36.2813 121.728 38.5453L42.7277 72.4024C35.0063 75.7116 30 83.3039 30 91.7045V133.329C30 170.238 47.8247 204.874 77.8584 226.327Z" fill="black"/>
<path d="M77.8584 226.327L117.794 254.853C125.096 260.068 134.904 260.068 142.206 254.853L182.141 226.327C212.176 204.874 230 170.238 230 133.329V91.7045C230 83.3039 224.994 75.7116 217.272 72.4024L138.272 38.5453C132.99 36.2813 127.01 36.2813 121.728 38.5453L42.7277 72.4024C35.0063 75.7116 30 83.3039 30 91.7045V133.329C30 170.238 47.8247 204.874 77.8584 226.327Z" fill="url(#paint0_linear_4659_24215)"/>
<path d="M123.479 42.6299C127.513 40.9009 132.063 40.8476 136.13 42.4688L136.521 42.6299L215.521 76.4873C221.609 79.0961 225.556 85.0816 225.556 91.7041V133.329C225.556 168.248 208.955 201.051 180.902 221.734L179.559 222.711L139.623 251.236C134.047 255.22 126.615 255.344 120.923 251.609L120.377 251.236L80.4414 222.711C51.5757 202.092 34.4443 168.802 34.4443 133.329V91.7041C34.4445 85.2886 38.1486 79.4713 43.9141 76.7422L44.4785 76.4873L123.479 42.6299Z" stroke="url(#paint1_linear_4659_24215)" stroke-width="8.88889"/>
<path d="M123.479 42.6299C127.513 40.9009 132.063 40.8476 136.13 42.4688L136.521 42.6299L215.521 76.4873C221.609 79.0961 225.556 85.0816 225.556 91.7041V133.329C225.556 168.248 208.955 201.051 180.902 221.734L179.559 222.711L139.623 251.236C134.047 255.22 126.615 255.344 120.923 251.609L120.377 251.236L80.4414 222.711C51.5757 202.092 34.4443 168.802 34.4443 133.329V91.7041C34.4445 85.2886 38.1486 79.4713 43.9141 76.7422L44.4785 76.4873L123.479 42.6299Z" stroke="url(#paint2_linear_4659_24215)" stroke-width="8.88889"/>
<path d="M123.479 42.6299C127.513 40.9009 132.063 40.8476 136.13 42.4688L136.521 42.6299L215.521 76.4873C221.609 79.0961 225.556 85.0816 225.556 91.7041V133.329C225.556 168.248 208.955 201.051 180.902 221.734L179.559 222.711L139.623 251.236C134.047 255.22 126.615 255.344 120.923 251.609L120.377 251.236L80.4414 222.711C51.5757 202.092 34.4443 168.802 34.4443 133.329V91.7041C34.4445 85.2886 38.1486 79.4713 43.9141 76.7422L44.4785 76.4873L123.479 42.6299Z" stroke="url(#paint3_linear_4659_24215)" stroke-width="8.88889"/>
<g filter="url(#filter0_i_4659_24215)">
<path d="M77.8584 226.327L117.794 254.853C125.096 260.068 134.904 260.068 142.206 254.853L182.141 226.327C212.176 204.874 230 170.238 230 133.329V91.7045C230 83.3039 224.994 75.7116 217.272 72.4024L138.272 38.5453C132.99 36.2813 127.01 36.2813 121.728 38.5453L42.7277 72.4024C35.0063 75.7116 30 83.3039 30 91.7045V133.329C30 170.238 47.8247 204.874 77.8584 226.327Z" fill="black" fill-opacity="0.01"/>
</g>
<g filter="url(#filter1_ii_4659_24215)">
<path fill-rule="evenodd" clip-rule="evenodd" d="M147.625 154.25C163.158 154.25 175.75 141.658 175.75 126.125C175.75 110.592 163.158 98 147.625 98C132.092 98 119.5 110.592 119.5 126.125C119.5 131.628 121.081 136.763 123.813 141.098L85.6611 179.25L104.393 197.982L113.232 189.143L103.339 179.25L113.25 169.339L123.143 179.232L131.982 170.393L122.089 160.5L132.652 149.937C136.987 152.669 142.122 154.25 147.625 154.25ZM147.625 141.75C156.254 141.75 163.25 134.754 163.25 126.125C163.25 117.496 156.254 110.5 147.625 110.5C138.996 110.5 132 117.496 132 126.125C132 134.754 138.996 141.75 147.625 141.75Z" fill="black"/>
<path fill-rule="evenodd" clip-rule="evenodd" d="M147.625 154.25C163.158 154.25 175.75 141.658 175.75 126.125C175.75 110.592 163.158 98 147.625 98C132.092 98 119.5 110.592 119.5 126.125C119.5 131.628 121.081 136.763 123.813 141.098L85.6611 179.25L104.393 197.982L113.232 189.143L103.339 179.25L113.25 169.339L123.143 179.232L131.982 170.393L122.089 160.5L132.652 149.937C136.987 152.669 142.122 154.25 147.625 154.25ZM147.625 141.75C156.254 141.75 163.25 134.754 163.25 126.125C163.25 117.496 156.254 110.5 147.625 110.5C138.996 110.5 132 117.496 132 126.125C132 134.754 138.996 141.75 147.625 141.75Z" fill="url(#paint4_linear_4659_24215)"/>
<path fill-rule="evenodd" clip-rule="evenodd" d="M147.625 154.25C163.158 154.25 175.75 141.658 175.75 126.125C175.75 110.592 163.158 98 147.625 98C132.092 98 119.5 110.592 119.5 126.125C119.5 131.628 121.081 136.763 123.813 141.098L85.6611 179.25L104.393 197.982L113.232 189.143L103.339 179.25L113.25 169.339L123.143 179.232L131.982 170.393L122.089 160.5L132.652 149.937C136.987 152.669 142.122 154.25 147.625 154.25ZM147.625 141.75C156.254 141.75 163.25 134.754 163.25 126.125C163.25 117.496 156.254 110.5 147.625 110.5C138.996 110.5 132 117.496 132 126.125C132 134.754 138.996 141.75 147.625 141.75Z" fill="url(#paint5_linear_4659_24215)"/>
</g>
<path d="M158.882 230.082H221.118C227.963 230.082 232.227 222.658 228.779 216.746L197.66 163.4C194.238 157.533 185.762 157.533 182.34 163.4L151.221 216.746C147.773 222.658 152.037 230.082 158.882 230.082Z" fill="#D9D9D9"/>
<path d="M158.882 230.082H221.118C227.963 230.082 232.227 222.658 228.779 216.746L197.66 163.4C194.238 157.533 185.762 157.533 182.34 163.4L151.221 216.746C147.773 222.658 152.037 230.082 158.882 230.082Z" fill="url(#paint6_linear_4659_24215)"/>
<path d="M158.882 230.082H221.118C227.963 230.082 232.227 222.658 228.779 216.746L197.66 163.4C194.238 157.533 185.762 157.533 182.34 163.4L151.221 216.746C147.773 222.658 152.037 230.082 158.882 230.082Z" stroke="#312938" stroke-width="4" stroke-linecap="round" stroke-linejoin="round"/>
<path d="M158.882 230.082H221.118C227.963 230.082 232.227 222.658 228.779 216.746L197.66 163.4C194.238 157.533 185.762 157.533 182.34 163.4L151.221 216.746C147.773 222.658 152.037 230.082 158.882 230.082Z" stroke="url(#paint7_linear_4659_24215)" stroke-width="4" stroke-linecap="round" stroke-linejoin="round"/>
<path d="M158.882 230.082H221.118C227.963 230.082 232.227 222.658 228.779 216.746L197.66 163.4C194.238 157.533 185.762 157.533 182.34 163.4L151.221 216.746C147.773 222.658 152.037 230.082 158.882 230.082Z" stroke="url(#paint8_linear_4659_24215)" stroke-width="4" stroke-linecap="round" stroke-linejoin="round"/>
<path d="M189.907 212.209H189.952M189.907 198.907V185.604" stroke="#312938" stroke-width="8.86825" stroke-linecap="round" stroke-linejoin="round"/>
<defs>
<filter id="filter0_i_4659_24215" x="30" y="36.8477" width="200" height="221.917" filterUnits="userSpaceOnUse" color-interpolation-filters="sRGB">
<feFlood flood-opacity="0" result="BackgroundImageFix"/>
<feBlend mode="normal" in="SourceGraphic" in2="BackgroundImageFix" result="shape"/>
<feColorMatrix in="SourceAlpha" type="matrix" values="0 0 0 0 0 0 0 0 0 0 0 0 0 0 0 0 0 0 127 0" result="hardAlpha"/>
<feOffset dy="2"/>
<feComposite in2="hardAlpha" operator="arithmetic" k2="-1" k3="1"/>
<feColorMatrix type="matrix" values="0 0 0 0 1 0 0 0 0 1 0 0 0 0 1 0 0 0 0.5 0"/>
<feBlend mode="plus-lighter" in2="shape" result="effect1_innerShadow_4659_24215"/>
</filter>
<filter id="filter1_ii_4659_24215" x="85.6611" y="98" width="90.0889" height="99.9814" filterUnits="userSpaceOnUse" color-interpolation-filters="sRGB">
<feFlood flood-opacity="0" result="BackgroundImageFix"/>
<feBlend mode="normal" in="SourceGraphic" in2="BackgroundImageFix" result="shape"/>
<feColorMatrix in="SourceAlpha" type="matrix" values="0 0 0 0 0 0 0 0 0 0 0 0 0 0 0 0 0 0 127 0" result="hardAlpha"/>
<feOffset dy="2"/>
<feComposite in2="hardAlpha" operator="arithmetic" k2="-1" k3="1"/>
<feColorMatrix type="matrix" values="0 0 0 0 1 0 0 0 0 1 0 0 0 0 1 0 0 0 0.4 0"/>
<feBlend mode="normal" in2="shape" result="effect1_innerShadow_4659_24215"/>
<feColorMatrix in="SourceAlpha" type="matrix" values="0 0 0 0 0 0 0 0 0 0 0 0 0 0 0 0 0 0 127 0" result="hardAlpha"/>
<feOffset dy="-2"/>
<feComposite in2="hardAlpha" operator="arithmetic" k2="-1" k3="1"/>
<feColorMatrix type="matrix" values="0 0 0 0 0 0 0 0 0 0 0 0 0 0 0 0 0 0 0.2 0"/>
<feBlend mode="normal" in2="effect1_innerShadow_4659_24215" result="effect2_innerShadow_4659_24215"/>
</filter>
<linearGradient id="paint0_linear_4659_24215" x1="130" y1="35" x2="130" y2="263.571" gradientUnits="userSpaceOnUse">
<stop stop-color="#19233C"/>
<stop offset="1" stop-color="#1647C3"/>
</linearGradient>
<linearGradient id="paint1_linear_4659_24215" x1="130" y1="35" x2="130" y2="263.571" gradientUnits="userSpaceOnUse">
<stop stop-color="#C1F2FF"/>
<stop offset="0.42" stop-color="#2077F8"/>
<stop offset="0.700262" stop-color="#000F4D"/>
</linearGradient>
<linearGradient id="paint2_linear_4659_24215" x1="130" y1="35" x2="130" y2="263.571" gradientUnits="userSpaceOnUse">
<stop stop-color="#C1F2FF"/>
<stop offset="0.700262" stop-color="#718CF5"/>
</linearGradient>
<linearGradient id="paint3_linear_4659_24215" x1="130" y1="35" x2="130" y2="263.571" gradientUnits="userSpaceOnUse">
<stop stop-color="#D8E3FF"/>
<stop offset="0.700262" stop-color="#718CF5"/>
</linearGradient>
<linearGradient id="paint4_linear_4659_24215" x1="130.705" y1="98" x2="130.705" y2="197.982" gradientUnits="userSpaceOnUse">
<stop stop-color="white"/>
<stop offset="1" stop-color="#6DA8FF"/>
</linearGradient>
<linearGradient id="paint5_linear_4659_24215" x1="130.705" y1="98" x2="130.705" y2="197.982" gradientUnits="userSpaceOnUse">
<stop stop-color="white"/>
<stop offset="1" stop-color="#6891FE"/>
</linearGradient>
<linearGradient id="paint6_linear_4659_24215" x1="190" y1="159" x2="190.533" y2="242.2" gradientUnits="userSpaceOnUse">
<stop stop-color="#FFC414"/>
<stop offset="1" stop-color="#FF9500"/>
</linearGradient>
<linearGradient id="paint7_linear_4659_24215" x1="190" y1="159" x2="190" y2="230.082" gradientUnits="userSpaceOnUse">
<stop stop-color="#5C486E"/>
<stop offset="1" stop-color="#312938"/>
</linearGradient>
<linearGradient id="paint8_linear_4659_24215" x1="190" y1="159" x2="190" y2="230.082" gradientUnits="userSpaceOnUse">
<stop stop-color="white"/>
<stop offset="1" stop-color="#EBD4FF"/>
</linearGradient>
</defs>
</svg>
