<svg width="260" height="298" viewBox="0 0 260 298" fill="none" xmlns="http://www.w3.org/2000/svg">
<path d="M119.655 6.2793C126.055 3.53675 133.272 3.4513 139.723 6.02246L140.345 6.2793L243.044 50.2939C252.699 54.432 258.96 63.9259 258.96 74.4307V128.543C258.96 175.816 236.309 220.201 198.085 247.941L197.18 248.594L145.264 285.677C136.276 292.097 124.25 292.198 115.167 285.979L114.736 285.677L62.8203 248.594C24.0499 220.9 1.04004 176.188 1.04004 128.543V74.4307C1.04004 64.09 7.10644 54.7293 16.5059 50.4922L16.9561 50.2939L119.655 6.2793Z" stroke="#4A98DC" stroke-opacity="0.05" stroke-width="2.08"/>
<path d="M120.451 17.2803C126.358 14.7487 133.02 14.6696 138.975 17.043L139.549 17.2803L234.349 57.9092C243.261 61.7289 249.04 70.492 249.04 80.1885V130.139C249.04 173.775 228.131 214.746 192.848 240.353L192.012 240.955L144.089 275.186C135.792 281.112 124.692 281.205 116.308 275.464L115.911 275.186L67.9883 240.955C32.2001 215.392 10.96 174.119 10.96 130.139V80.1885C10.9601 70.6434 16.56 62.0028 25.2363 58.0918L25.6514 57.9092L120.451 17.2803Z" stroke="#4B98DC" stroke-opacity="0.15" stroke-width="1.92"/>
<path d="M121.294 28.3916C126.68 26.0835 132.754 26.0109 138.183 28.1748L138.706 28.3916L225.605 65.6338C233.731 69.1163 239 77.1066 239 85.9473V131.734C239 171.382 220.152 208.626 188.301 232.11L186.774 233.219L142.846 264.597C135.282 270 125.161 270.084 117.517 264.85L117.154 264.597L73.2256 233.219C40.4513 209.808 21 172.011 21 131.734V85.9473C21 77.2448 26.1053 69.3666 34.0156 65.8008L34.3945 65.6338L121.294 28.3916Z" stroke="#4895DB" stroke-opacity="0.35" stroke-width="2"/>
<path d="M77.8584 226.328L117.794 254.854C125.096 260.069 134.904 260.069 142.206 254.854L182.141 226.328C212.176 204.875 230 170.239 230 133.33V91.7054C230 83.3049 224.994 75.7126 217.272 72.4034L138.272 38.5462C132.99 36.2823 127.01 36.2823 121.728 38.5463L42.7277 72.4034C35.0063 75.7126 30 83.3049 30 91.7054V133.33C30 170.239 47.8247 204.875 77.8584 226.328Z" fill="black"/>
<path d="M77.8584 226.328L117.794 254.854C125.096 260.069 134.904 260.069 142.206 254.854L182.141 226.328C212.176 204.875 230 170.239 230 133.33V91.7054C230 83.3049 224.994 75.7126 217.272 72.4034L138.272 38.5462C132.99 36.2823 127.01 36.2823 121.728 38.5463L42.7277 72.4034C35.0063 75.7126 30 83.3049 30 91.7054V133.33C30 170.239 47.8247 204.875 77.8584 226.328Z" fill="url(#paint0_linear_5093_13165)"/>
<path d="M77.8584 226.328L117.794 254.854C125.096 260.069 134.904 260.069 142.206 254.854L182.141 226.328C212.176 204.875 230 170.239 230 133.33V91.7054C230 83.3049 224.994 75.7126 217.272 72.4034L138.272 38.5462C132.99 36.2823 127.01 36.2823 121.728 38.5463L42.7277 72.4034C35.0063 75.7126 30 83.3049 30 91.7054V133.33C30 170.239 47.8247 204.875 77.8584 226.328Z" fill="url(#paint1_linear_5093_13165)"/>
<path d="M77.8584 226.328L117.794 254.854C125.096 260.069 134.904 260.069 142.206 254.854L182.141 226.328C212.176 204.875 230 170.239 230 133.33V91.7054C230 83.3049 224.994 75.7126 217.272 72.4034L138.272 38.5462C132.99 36.2823 127.01 36.2823 121.728 38.5463L42.7277 72.4034C35.0063 75.7126 30 83.3049 30 91.7054V133.33C30 170.239 47.8247 204.875 77.8584 226.328Z" fill="url(#paint2_linear_5093_13165)"/>
<path d="M77.8584 226.328L117.794 254.854C125.096 260.069 134.904 260.069 142.206 254.854L182.141 226.328C212.176 204.875 230 170.239 230 133.33V91.7054C230 83.3049 224.994 75.7126 217.272 72.4034L138.272 38.5462C132.99 36.2823 127.01 36.2823 121.728 38.5463L42.7277 72.4034C35.0063 75.7126 30 83.3049 30 91.7054V133.33C30 170.239 47.8247 204.875 77.8584 226.328Z" fill="url(#paint3_linear_5093_13165)"/>
<path d="M77.8584 226.328L117.794 254.854C125.096 260.069 134.904 260.069 142.206 254.854L182.141 226.328C212.176 204.875 230 170.239 230 133.33V91.7054C230 83.3049 224.994 75.7126 217.272 72.4034L138.272 38.5462C132.99 36.2823 127.01 36.2823 121.728 38.5463L42.7277 72.4034C35.0063 75.7126 30 83.3049 30 91.7054V133.33C30 170.239 47.8247 204.875 77.8584 226.328Z" fill="url(#paint4_radial_5093_13165)" fill-opacity="0.3"/>
<path d="M123.479 42.6309C127.513 40.9019 132.063 40.8486 136.13 42.4697L136.521 42.6309L215.521 76.4883C221.609 79.097 225.556 85.0825 225.556 91.7051V133.33C225.556 168.249 208.955 201.052 180.902 221.735L179.559 222.712L139.623 251.237C134.047 255.221 126.615 255.345 120.923 251.61L120.377 251.237L80.4414 222.712C51.5757 202.093 34.4443 168.803 34.4443 133.33V91.7051C34.4445 85.2895 38.1486 79.4723 43.9141 76.7432L44.4785 76.4883L123.479 42.6309Z" stroke="url(#paint5_linear_5093_13165)" stroke-width="8.88889"/>
<path d="M123.479 42.6309C127.513 40.9019 132.063 40.8486 136.13 42.4697L136.521 42.6309L215.521 76.4883C221.609 79.097 225.556 85.0825 225.556 91.7051V133.33C225.556 168.249 208.955 201.052 180.902 221.735L179.559 222.712L139.623 251.237C134.047 255.221 126.615 255.345 120.923 251.61L120.377 251.237L80.4414 222.712C51.5757 202.093 34.4443 168.803 34.4443 133.33V91.7051C34.4445 85.2895 38.1486 79.4723 43.9141 76.7432L44.4785 76.4883L123.479 42.6309Z" stroke="url(#paint6_linear_5093_13165)" stroke-width="8.88889"/>
<path d="M123.479 42.6309C127.513 40.9019 132.063 40.8486 136.13 42.4697L136.521 42.6309L215.521 76.4883C221.609 79.097 225.556 85.0825 225.556 91.7051V133.33C225.556 168.249 208.955 201.052 180.902 221.735L179.559 222.712L139.623 251.237C134.047 255.221 126.615 255.345 120.923 251.61L120.377 251.237L80.4414 222.712C51.5757 202.093 34.4443 168.803 34.4443 133.33V91.7051C34.4445 85.2895 38.1486 79.4723 43.9141 76.7432L44.4785 76.4883L123.479 42.6309Z" stroke="url(#paint7_linear_5093_13165)" stroke-width="8.88889"/>
<path d="M123.479 42.6309C127.513 40.9019 132.063 40.8486 136.13 42.4697L136.521 42.6309L215.521 76.4883C221.609 79.097 225.556 85.0825 225.556 91.7051V133.33C225.556 168.249 208.955 201.052 180.902 221.735L179.559 222.712L139.623 251.237C134.047 255.221 126.615 255.345 120.923 251.61L120.377 251.237L80.4414 222.712C51.5757 202.093 34.4443 168.803 34.4443 133.33V91.7051C34.4445 85.2895 38.1486 79.4723 43.9141 76.7432L44.4785 76.4883L123.479 42.6309Z" stroke="url(#paint8_linear_5093_13165)" stroke-width="8.88889"/>
<g filter="url(#filter0_i_5093_13165)">
<path d="M77.8584 226.328L117.794 254.854C125.096 260.069 134.904 260.069 142.206 254.854L182.141 226.328C212.176 204.875 230 170.239 230 133.33V91.7054C230 83.3049 224.994 75.7126 217.272 72.4034L138.272 38.5462C132.99 36.2823 127.01 36.2823 121.728 38.5463L42.7277 72.4034C35.0063 75.7126 30 83.3049 30 91.7054V133.33C30 170.239 47.8247 204.875 77.8584 226.328Z" fill="black" fill-opacity="0.01"/>
</g>
<g filter="url(#filter1_ii_5093_13165)">
<path fill-rule="evenodd" clip-rule="evenodd" d="M147.625 154.251C163.158 154.251 175.75 141.659 175.75 126.126C175.75 110.593 163.158 98.001 147.625 98.001C132.092 98.001 119.5 110.593 119.5 126.126C119.5 131.629 121.081 136.764 123.813 141.099L85.6611 179.251L104.393 197.983L113.232 189.144L103.339 179.251L113.25 169.34L123.143 179.233L131.982 170.394L122.089 160.501L132.652 149.938C136.987 152.67 142.122 154.251 147.625 154.251ZM147.625 141.751C156.254 141.751 163.25 134.755 163.25 126.126C163.25 117.497 156.254 110.501 147.625 110.501C138.996 110.501 132 117.497 132 126.126C132 134.755 138.996 141.751 147.625 141.751Z" fill="black"/>
<path fill-rule="evenodd" clip-rule="evenodd" d="M147.625 154.251C163.158 154.251 175.75 141.659 175.75 126.126C175.75 110.593 163.158 98.001 147.625 98.001C132.092 98.001 119.5 110.593 119.5 126.126C119.5 131.629 121.081 136.764 123.813 141.099L85.6611 179.251L104.393 197.983L113.232 189.144L103.339 179.251L113.25 169.34L123.143 179.233L131.982 170.394L122.089 160.501L132.652 149.938C136.987 152.67 142.122 154.251 147.625 154.251ZM147.625 141.751C156.254 141.751 163.25 134.755 163.25 126.126C163.25 117.497 156.254 110.501 147.625 110.501C138.996 110.501 132 117.497 132 126.126C132 134.755 138.996 141.751 147.625 141.751Z" fill="url(#paint9_linear_5093_13165)"/>
<path fill-rule="evenodd" clip-rule="evenodd" d="M147.625 154.251C163.158 154.251 175.75 141.659 175.75 126.126C175.75 110.593 163.158 98.001 147.625 98.001C132.092 98.001 119.5 110.593 119.5 126.126C119.5 131.629 121.081 136.764 123.813 141.099L85.6611 179.251L104.393 197.983L113.232 189.144L103.339 179.251L113.25 169.34L123.143 179.233L131.982 170.394L122.089 160.501L132.652 149.938C136.987 152.67 142.122 154.251 147.625 154.251ZM147.625 141.751C156.254 141.751 163.25 134.755 163.25 126.126C163.25 117.497 156.254 110.501 147.625 110.501C138.996 110.501 132 117.497 132 126.126C132 134.755 138.996 141.751 147.625 141.751Z" fill="url(#paint10_linear_5093_13165)"/>
<path fill-rule="evenodd" clip-rule="evenodd" d="M147.625 154.251C163.158 154.251 175.75 141.659 175.75 126.126C175.75 110.593 163.158 98.001 147.625 98.001C132.092 98.001 119.5 110.593 119.5 126.126C119.5 131.629 121.081 136.764 123.813 141.099L85.6611 179.251L104.393 197.983L113.232 189.144L103.339 179.251L113.25 169.34L123.143 179.233L131.982 170.394L122.089 160.501L132.652 149.938C136.987 152.67 142.122 154.251 147.625 154.251ZM147.625 141.751C156.254 141.751 163.25 134.755 163.25 126.126C163.25 117.497 156.254 110.501 147.625 110.501C138.996 110.501 132 117.497 132 126.126C132 134.755 138.996 141.751 147.625 141.751Z" fill="url(#paint11_linear_5093_13165)"/>
</g>
<path d="M158.882 230.082H221.118C227.963 230.082 232.227 222.658 228.779 216.746L197.66 163.4C194.238 157.533 185.762 157.533 182.34 163.4L151.221 216.746C147.773 222.658 152.037 230.082 158.882 230.082Z" fill="#D9D9D9"/>
<path d="M158.882 230.082H221.118C227.963 230.082 232.227 222.658 228.779 216.746L197.66 163.4C194.238 157.533 185.762 157.533 182.34 163.4L151.221 216.746C147.773 222.658 152.037 230.082 158.882 230.082Z" fill="url(#paint12_linear_5093_13165)"/>
<path d="M158.882 230.082H221.118C227.963 230.082 232.227 222.658 228.779 216.746L197.66 163.4C194.238 157.533 185.762 157.533 182.34 163.4L151.221 216.746C147.773 222.658 152.037 230.082 158.882 230.082Z" stroke="#312938" stroke-width="4" stroke-linecap="round" stroke-linejoin="round"/>
<path d="M158.882 230.082H221.118C227.963 230.082 232.227 222.658 228.779 216.746L197.66 163.4C194.238 157.533 185.762 157.533 182.34 163.4L151.221 216.746C147.773 222.658 152.037 230.082 158.882 230.082Z" stroke="url(#paint13_linear_5093_13165)" stroke-width="4" stroke-linecap="round" stroke-linejoin="round"/>
<path d="M189.907 212.209H189.952M189.907 198.907V185.604" stroke="#312938" stroke-width="8.86825" stroke-linecap="round" stroke-linejoin="round"/>
<defs>
<filter id="filter0_i_5093_13165" x="30" y="36.8486" width="200" height="221.917" filterUnits="userSpaceOnUse" color-interpolation-filters="sRGB">
<feFlood flood-opacity="0" result="BackgroundImageFix"/>
<feBlend mode="normal" in="SourceGraphic" in2="BackgroundImageFix" result="shape"/>
<feColorMatrix in="SourceAlpha" type="matrix" values="0 0 0 0 0 0 0 0 0 0 0 0 0 0 0 0 0 0 127 0" result="hardAlpha"/>
<feOffset dy="2"/>
<feComposite in2="hardAlpha" operator="arithmetic" k2="-1" k3="1"/>
<feColorMatrix type="matrix" values="0 0 0 0 1 0 0 0 0 1 0 0 0 0 1 0 0 0 0.5 0"/>
<feBlend mode="normal" in2="shape" result="effect1_innerShadow_5093_13165"/>
</filter>
<filter id="filter1_ii_5093_13165" x="85.6611" y="98.001" width="90.0889" height="99.9814" filterUnits="userSpaceOnUse" color-interpolation-filters="sRGB">
<feFlood flood-opacity="0" result="BackgroundImageFix"/>
<feBlend mode="normal" in="SourceGraphic" in2="BackgroundImageFix" result="shape"/>
<feColorMatrix in="SourceAlpha" type="matrix" values="0 0 0 0 0 0 0 0 0 0 0 0 0 0 0 0 0 0 127 0" result="hardAlpha"/>
<feOffset dy="2"/>
<feComposite in2="hardAlpha" operator="arithmetic" k2="-1" k3="1"/>
<feColorMatrix type="matrix" values="0 0 0 0 1 0 0 0 0 1 0 0 0 0 1 0 0 0 0.3 0"/>
<feBlend mode="normal" in2="shape" result="effect1_innerShadow_5093_13165"/>
<feColorMatrix in="SourceAlpha" type="matrix" values="0 0 0 0 0 0 0 0 0 0 0 0 0 0 0 0 0 0 127 0" result="hardAlpha"/>
<feOffset dy="-2"/>
<feComposite in2="hardAlpha" operator="arithmetic" k2="-1" k3="1"/>
<feColorMatrix type="matrix" values="0 0 0 0 0 0 0 0 0 0 0 0 0 0 0 0 0 0 0.2 0"/>
<feBlend mode="normal" in2="effect1_innerShadow_5093_13165" result="effect2_innerShadow_5093_13165"/>
</filter>
<linearGradient id="paint0_linear_5093_13165" x1="130" y1="35.001" x2="130" y2="263.572" gradientUnits="userSpaceOnUse">
<stop stop-color="#002A52"/>
<stop offset="1" stop-color="#0652DF"/>
</linearGradient>
<linearGradient id="paint1_linear_5093_13165" x1="130" y1="35.001" x2="130" y2="263.572" gradientUnits="userSpaceOnUse">
<stop stop-color="#19233C"/>
<stop offset="1" stop-color="#144CD8"/>
</linearGradient>
<linearGradient id="paint2_linear_5093_13165" x1="130" y1="35.001" x2="130" y2="263.572" gradientUnits="userSpaceOnUse">
<stop stop-color="#19233C"/>
<stop offset="1" stop-color="#1647C3"/>
</linearGradient>
<linearGradient id="paint3_linear_5093_13165" x1="130" y1="35.001" x2="130" y2="263.572" gradientUnits="userSpaceOnUse">
<stop stop-color="#FAFAFA"/>
<stop offset="1" stop-color="#72AAFF"/>
</linearGradient>
<radialGradient id="paint4_radial_5093_13165" cx="0" cy="0" r="1" gradientUnits="userSpaceOnUse" gradientTransform="translate(130 149.287) rotate(90) scale(97.381 85.2083)">
<stop stop-color="white"/>
<stop offset="1" stop-color="white" stop-opacity="0"/>
</radialGradient>
<linearGradient id="paint5_linear_5093_13165" x1="130" y1="35.001" x2="130" y2="263.572" gradientUnits="userSpaceOnUse">
<stop stop-color="#C1F2FF"/>
<stop offset="0.42" stop-color="#2077F8"/>
<stop offset="0.700262" stop-color="#000F4D"/>
</linearGradient>
<linearGradient id="paint6_linear_5093_13165" x1="130" y1="35.001" x2="130" y2="263.572" gradientUnits="userSpaceOnUse">
<stop stop-color="#C1F2FF"/>
<stop offset="0.700262" stop-color="#718CF5"/>
</linearGradient>
<linearGradient id="paint7_linear_5093_13165" x1="130" y1="35.001" x2="130" y2="263.572" gradientUnits="userSpaceOnUse">
<stop stop-color="#D8E3FF"/>
<stop offset="0.700262" stop-color="#718CF5"/>
</linearGradient>
<linearGradient id="paint8_linear_5093_13165" x1="130" y1="35.001" x2="130" y2="263.572" gradientUnits="userSpaceOnUse">
<stop stop-color="#68BEEF"/>
<stop offset="0.700262" stop-color="#2C71CC"/>
</linearGradient>
<linearGradient id="paint9_linear_5093_13165" x1="130.705" y1="98.001" x2="130.705" y2="197.983" gradientUnits="userSpaceOnUse">
<stop stop-color="white"/>
<stop offset="1" stop-color="#6DA8FF"/>
</linearGradient>
<linearGradient id="paint10_linear_5093_13165" x1="130.705" y1="98.001" x2="130.705" y2="197.983" gradientUnits="userSpaceOnUse">
<stop stop-color="#68BEEF"/>
<stop offset="1" stop-color="#0047A3"/>
</linearGradient>
<linearGradient id="paint11_linear_5093_13165" x1="130.705" y1="98.001" x2="130.705" y2="197.983" gradientUnits="userSpaceOnUse">
<stop stop-color="#68BEEF"/>
<stop offset="0.700262" stop-color="#2C71CC"/>
</linearGradient>
<linearGradient id="paint12_linear_5093_13165" x1="190" y1="159" x2="190.533" y2="242.2" gradientUnits="userSpaceOnUse">
<stop stop-color="#FFC414"/>
<stop offset="1" stop-color="#FF9500"/>
</linearGradient>
<linearGradient id="paint13_linear_5093_13165" x1="190" y1="159" x2="190" y2="230.082" gradientUnits="userSpaceOnUse">
<stop stop-color="#5C486E"/>
<stop offset="1" stop-color="#312938"/>
</linearGradient>
</defs>
</svg>
