<svg xmlns="http://www.w3.org/2000/svg" xmlns:xlink="http://www.w3.org/1999/xlink" version="1.1" width="256" height="256" viewBox="0 0 256 256" xml:space="preserve">

<defs>
</defs>
<g style="stroke: none; stroke-width: 0; stroke-dasharray: none; stroke-linecap: butt; stroke-linejoin: miter; stroke-miterlimit: 10; fill: none; fill-rule: nonzero; opacity: 1;" transform="translate(1.4065934065934016 1.4065934065934016) scale(2.81 2.81)" >
	<circle cx="45" cy="45" r="45" style="stroke: none; stroke-width: 1; stroke-dasharray: none; stroke-linecap: butt; stroke-linejoin: miter; stroke-miterlimit: 10; fill: rgb(127,33,99); fill-rule: nonzero; opacity: 1;" transform="  matrix(1 0 0 1 0 0) "/>
	<polygon points="69.59,36.9 69.59,54.86 74.5,54.86 74.5,36.02 " style="stroke: none; stroke-width: 1; stroke-dasharray: none; stroke-linecap: butt; stroke-linejoin: miter; stroke-miterlimit: 10; fill: rgb(249,249,249); fill-rule: nonzero; opacity: 1;" transform="  matrix(1 0 0 1 0 0) "/>
	<polygon points="62.42,36.9 67.33,36.02 67.33,54.87 62.42,54.87 " style="stroke: none; stroke-width: 1; stroke-dasharray: none; stroke-linecap: butt; stroke-linejoin: miter; stroke-miterlimit: 10; fill: rgb(249,249,249); fill-rule: nonzero; opacity: 1;" transform="  matrix(1 0 0 1 0 0) "/>
	<rect x="55.43" y="41.08" rx="0" ry="0" width="4.91" height="13.78" style="stroke: none; stroke-width: 1; stroke-dasharray: none; stroke-linecap: butt; stroke-linejoin: miter; stroke-miterlimit: 10; fill: rgb(249,249,249); fill-rule: nonzero; opacity: 1;" transform=" matrix(1 0 0 1 0 0) "/>
	<path d="M 57.879 39.76 c 1.332 0 2.425 -1.082 2.425 -2.415 s -1.082 -2.425 -2.425 -2.425 c -1.332 0 -2.415 1.082 -2.415 2.425 C 55.465 38.677 56.547 39.76 57.879 39.76 z" style="stroke: none; stroke-width: 1; stroke-dasharray: none; stroke-linecap: butt; stroke-linejoin: miter; stroke-miterlimit: 10; fill: rgb(249,249,249); fill-rule: nonzero; opacity: 1;" transform=" matrix(1 0 0 1 0 0) " stroke-linecap="round" />
	<path d="M 52.665 40.884 c -4.538 0.146 -6.838 2.186 -6.838 6.234 v 7.754 h 4.954 v -6.328 c 0 -2.425 0.312 -3.466 3.195 -3.559 v -4.038 C 53.477 40.853 52.665 40.884 52.665 40.884 L 52.665 40.884 z" style="stroke: none; stroke-width: 1; stroke-dasharray: none; stroke-linecap: butt; stroke-linejoin: miter; stroke-miterlimit: 10; fill: rgb(249,249,249); fill-rule: nonzero; opacity: 1;" transform=" matrix(1 0 0 1 0 0) " stroke-linecap="round" />
	<path d="M 39.344 41.071 c -0.104 0.271 -0.895 2.498 -2.8 4.798 v -9.845 l -5.068 0.999 v 17.838 h 5.068 v -5.516 c 1.467 2.206 2.196 5.516 2.196 5.516 h 6.068 c -0.604 -2.498 -3.226 -7.098 -3.226 -7.098 c 2.352 -2.987 3.393 -6.172 3.559 -6.702 h -5.797 L 39.344 41.071 z" style="stroke: none; stroke-width: 1; stroke-dasharray: none; stroke-linecap: butt; stroke-linejoin: miter; stroke-miterlimit: 10; fill: rgb(249,249,249); fill-rule: nonzero; opacity: 1;" transform=" matrix(1 0 0 1 0 0) " stroke-linecap="round" />
	<path d="M 22.973 43.028 c -0.624 -0.042 -2.061 -0.135 -2.061 -1.426 c 0 -1.561 2.071 -1.561 2.841 -1.561 c 1.363 0 3.133 0.406 4.392 0.781 c 0 0 0.708 0.25 1.301 0.5 l 0.052 0.01 v -4.267 l -0.073 -0.021 c -1.488 -0.52 -3.216 -1.02 -6.432 -1.02 c -5.537 0 -7.493 3.226 -7.493 5.984 c 0 1.592 0.687 5.339 7.025 5.776 c 0.541 0.031 1.967 0.114 1.967 1.457 c 0 1.103 -1.166 1.759 -3.133 1.759 c -2.154 0 -4.236 -0.552 -5.506 -1.072 v 4.402 c 1.894 0.5 4.038 0.749 6.546 0.749 c 5.412 0 7.837 -3.049 7.837 -6.078 C 30.237 45.567 27.531 43.34 22.973 43.028 z" style="stroke: none; stroke-width: 1; stroke-dasharray: none; stroke-linecap: butt; stroke-linejoin: miter; stroke-miterlimit: 10; fill: rgb(249,249,249); fill-rule: nonzero; opacity: 1;" transform=" matrix(1 0 0 1 0 0) " stroke-linecap="round" />
</g>
</svg>