<svg width="45" height="45" viewBox="0 0 45 45" fill="none" xmlns="http://www.w3.org/2000/svg">
<rect x="1" y="1" width="43" height="43" rx="6.03125" fill="white"/>
<rect x="1" y="1" width="43" height="43" rx="6.03125" stroke="black" stroke-width="2"/>
<path d="M14.4585 27.9948C14.6138 27.8396 14.8223 27.7523 15.0406 27.7523H35.2423C35.6109 27.7523 35.7952 28.1986 35.5333 28.4556L31.5415 32.4475C31.3862 32.6027 31.1777 32.69 30.9594 32.69H10.7577C10.3891 32.69 10.2048 32.2437 10.4667 31.9867L14.4585 27.9948Z" fill="black"/>
<path d="M14.4585 13.0946C14.6138 12.9394 14.8223 12.8521 15.0406 12.8521H35.2423C35.6109 12.8521 35.7952 13.2983 35.5333 13.5554L31.5415 17.5424C31.3862 17.6976 31.1777 17.7849 30.9594 17.7849H10.7577C10.3891 17.7849 10.2048 17.3387 10.4667 17.0816L14.4585 13.0946Z" fill="black"/>
<path d="M31.5415 20.4962C31.3862 20.341 31.1777 20.2537 30.9594 20.2537H10.7577C10.3891 20.2537 10.2048 20.6999 10.4667 20.957L14.4585 24.944C14.6138 25.0992 14.8223 25.1865 15.0406 25.1865H35.2423C35.6109 25.1865 35.7952 24.7403 35.5333 24.4832L31.5415 20.4962Z" fill="black"/>
</svg>
