<svg width="32" height="32" viewBox="0 0 32 32" fill="none" xmlns="http://www.w3.org/2000/svg">
<path d="M6.88911 21.3278C7.05467 21.1623 7.27714 21.0692 7.50996 21.0692H29.0584C29.4516 21.0692 29.6482 21.5451 29.3688 21.8193L25.1109 26.0773C24.9453 26.2429 24.7229 26.336 24.49 26.336H2.94158C2.54838 26.336 2.35178 25.86 2.63116 25.5858L6.88911 21.3278Z" fill="white"/>
<path d="M6.88911 5.43428C7.05467 5.26872 7.27714 5.1756 7.50996 5.1756H29.0584C29.4516 5.1756 29.6482 5.65158 29.3688 5.92578L25.1109 10.1786C24.9453 10.3441 24.7229 10.4373 24.49 10.4373H2.94158C2.54838 10.4373 2.35178 9.96127 2.63116 9.68706L6.88911 5.43428Z" fill="white"/>
<path d="M25.1109 13.3293C24.9453 13.1638 24.7229 13.0706 24.49 13.0706H2.94158C2.54838 13.0706 2.35178 13.5466 2.63116 13.8208L6.88911 18.0736C7.05467 18.2392 7.27714 18.3323 7.50996 18.3323H29.0584C29.4516 18.3323 29.6482 17.8563 29.3688 17.5821L25.1109 13.3293Z" fill="white"/>
</svg>
