<svg width="45" height="45" viewBox="0 0 45 45" fill="none" xmlns="http://www.w3.org/2000/svg">
<rect x="1" y="1" width="43" height="43" rx="6.03125" fill="white"/>
<rect x="1" y="1" width="43" height="43" rx="6.03125" stroke="black" stroke-width="2"/>
<path d="M13.6585 27.1948C13.8137 27.0396 14.0223 26.9523 14.2405 26.9523H34.4422C34.8108 26.9523 34.9952 27.3986 34.7332 27.6556L30.7414 31.6475C30.5862 31.8027 30.3776 31.89 30.1594 31.89H9.95768C9.58906 31.89 9.40475 31.4437 9.66666 31.1867L13.6585 27.1948Z" fill="black"/>
<path d="M13.6585 12.2946C13.8137 12.1394 14.0223 12.0521 14.2405 12.0521H34.4422C34.8108 12.0521 34.9952 12.4984 34.7332 12.7554L30.7414 16.7424C30.5862 16.8976 30.3776 16.9849 30.1594 16.9849H9.95768C9.58906 16.9849 9.40475 16.5387 9.66666 16.2816L13.6585 12.2946Z" fill="black"/>
<path d="M30.7414 19.6962C30.5862 19.541 30.3776 19.4537 30.1594 19.4537H9.95768C9.58906 19.4537 9.40475 19.8999 9.66666 20.157L13.6585 24.144C13.8137 24.2992 14.0223 24.3865 14.2405 24.3865H34.4422C34.8108 24.3865 34.9952 23.9403 34.7332 23.6832L30.7414 19.6962Z" fill="black"/>
</svg>
