<svg width="44" height="54" viewBox="0 0 44 54" fill="none" xmlns="http://www.w3.org/2000/svg">
<mask id="mask0_8339_13859" style="mask-type:alpha" maskUnits="userSpaceOnUse" x="0" y="0" width="37" height="46">
<path d="M20.0293 0C21.2956 2.84666e-05 22.5146 0.480729 23.4404 1.34473L35.4111 12.5176C36.4243 13.4632 37 14.7869 37 16.1729V29.5635C34.6209 27.1993 31.6869 26 28.3125 26C24.9235 26 21.9783 27.2092 19.5938 29.5938C17.2092 31.9783 16 34.9235 16 38.3125C16 41.229 16.8975 43.8153 18.667 46H5C2.23858 46 0 43.7614 0 41V5C0 2.23858 2.23858 2.57711e-07 5 0H20.0293Z" fill="url(#paint0_linear_8339_13859)"/>
</mask>
<g mask="url(#mask0_8339_13859)">
<path d="M0 46V0H22L37 14V46H0Z" fill="url(#paint1_linear_8339_13859)"/>
<path d="M0 46V0H22L37 14V46H0Z" fill="url(#paint2_linear_8339_13859)"/>
<path d="M0 46V0H22L37 14V46H0Z" fill="url(#paint3_linear_8339_13859)"/>
<path d="M21 12V-1L38 15H24C22.3431 15 21 13.6569 21 12Z" fill="url(#paint4_linear_8339_13859)"/>
</g>
<path d="M28.3125 44.0417C29.9167 44.0417 31.2726 43.4878 32.3802 42.3802C33.4878 41.2726 34.0417 39.9167 34.0417 38.3125C34.0417 36.7083 33.4878 35.3524 32.3802 34.2448C31.2726 33.1372 29.9167 32.5833 28.3125 32.5833C26.7083 32.5833 25.3524 33.1372 24.2448 34.2448C23.1372 35.3524 22.5833 36.7083 22.5833 38.3125C22.5833 39.9167 23.1372 41.2726 24.2448 42.3802C25.3524 43.4878 26.7083 44.0417 28.3125 44.0417ZM41.5967 51.6116C40.7137 52.4947 39.283 52.498 38.3959 51.6191L33.8125 47.0781C33.0104 47.5747 32.1415 47.9566 31.2057 48.224C30.27 48.4913 29.3056 48.625 28.3125 48.625C25.4479 48.625 23.013 47.6224 21.0078 45.6172C19.0026 43.612 18 41.1771 18 38.3125C18 35.4479 19.0026 33.013 21.0078 31.0078C23.013 29.0026 25.4479 28 28.3125 28C31.1771 28 33.612 29.0026 35.6172 31.0078C37.6224 33.013 38.625 35.4479 38.625 38.3125C38.625 39.3438 38.4818 40.3273 38.1953 41.263C37.9089 42.1988 37.5174 43.0677 37.0208 43.8698L41.5892 48.3959C42.4822 49.2806 42.4856 50.7228 41.5967 51.6116Z" fill="url(#paint5_linear_8339_13859)"/>
<defs>
<linearGradient id="paint0_linear_8339_13859" x1="18.5" y1="0" x2="18.5" y2="46" gradientUnits="userSpaceOnUse">
<stop stop-color="#EFEFF8"/>
<stop offset="1" stop-color="#CECEE2"/>
</linearGradient>
<linearGradient id="paint1_linear_8339_13859" x1="18.5" y1="0" x2="18.5" y2="46" gradientUnits="userSpaceOnUse">
<stop stop-color="#EFEFF8"/>
<stop offset="1" stop-color="#CECEE2"/>
</linearGradient>
<linearGradient id="paint2_linear_8339_13859" x1="18.5" y1="0" x2="18.5" y2="46" gradientUnits="userSpaceOnUse">
<stop stop-color="#EFEFF8"/>
<stop offset="1" stop-color="#A2A2CC"/>
</linearGradient>
<linearGradient id="paint3_linear_8339_13859" x1="18.5" y1="0" x2="18.5" y2="46" gradientUnits="userSpaceOnUse">
<stop stop-color="#594E63"/>
<stop offset="1" stop-color="#312938"/>
</linearGradient>
<linearGradient id="paint4_linear_8339_13859" x1="30.0667" y1="5.28571" x2="21.4955" y2="13.7854" gradientUnits="userSpaceOnUse">
<stop stop-color="#A397AE"/>
<stop offset="1" stop-color="#6B5A7B"/>
</linearGradient>
<linearGradient id="paint5_linear_8339_13859" x1="30.6042" y1="28" x2="30.6042" y2="53.2083" gradientUnits="userSpaceOnUse">
<stop stop-color="#4EBEFF"/>
<stop offset="1" stop-color="#4A74FF"/>
</linearGradient>
</defs>
</svg>
