<svg width="55" height="55" viewBox="0 0 55 55" fill="none" xmlns="http://www.w3.org/2000/svg">
<path d="M32.3613 35.6025C33.2562 36.4975 33.2562 37.9485 32.3613 38.8434L27.4999 43.7048C25.2583 45.9464 22.5575 47.0672 19.3976 47.0672C16.2378 47.0672 13.537 45.9464 11.2954 43.7048C9.05375 41.4632 7.93294 38.7624 7.93294 35.6025C7.93294 32.4427 9.05375 29.7419 11.2954 27.5003L16.1567 22.6389C17.0517 21.744 18.5027 21.744 19.3976 22.6389C20.2926 23.5339 20.2926 24.9849 19.3976 25.8798L14.5363 30.7412C13.1859 32.0916 12.5107 33.712 12.5107 35.6025C12.5107 37.4931 13.1859 39.1135 14.5363 40.4639C15.8867 41.8143 17.5071 42.4895 19.3976 42.4895C21.2882 42.4895 22.9086 41.8143 24.259 40.4639L29.1204 35.6025C30.0153 34.7076 31.4663 34.7076 32.3613 35.6025ZM38.8431 32.3616C37.9481 33.2566 36.4971 33.2566 35.6022 32.3616C34.7072 31.4667 34.7072 30.0157 35.6022 29.1207L40.4635 24.2594C41.8139 22.909 42.4891 21.2885 42.4891 19.398C42.4891 17.5075 41.8139 15.887 40.4635 14.5366C39.1132 13.1863 37.4927 12.5111 35.6022 12.5111C33.7116 12.5111 32.0912 13.1863 30.7408 14.5366L25.8795 19.398C24.9845 20.293 23.5335 20.293 22.6386 19.398C21.7436 18.5031 21.7436 17.0521 22.6386 16.1571L27.4999 11.2957C29.7415 9.05412 32.4423 7.9333 35.6022 7.9333C38.7621 7.9333 41.4628 9.05412 43.7044 11.2957C45.9461 13.5374 47.0669 16.2381 47.0669 19.398C47.0669 22.5579 45.9461 25.2586 43.7044 27.5003L38.8431 32.3616Z" fill="url(#paint0_linear_8339_13877)"/>
<path d="M32.3613 35.6025C33.2562 36.4975 33.2562 37.9485 32.3613 38.8434L27.4999 43.7048C25.2583 45.9464 22.5575 47.0672 19.3976 47.0672C16.2378 47.0672 13.537 45.9464 11.2954 43.7048C9.05375 41.4632 7.93294 38.7624 7.93294 35.6025C7.93294 32.4427 9.05375 29.7419 11.2954 27.5003L16.1567 22.6389C17.0517 21.744 18.5027 21.744 19.3976 22.6389C20.2926 23.5339 20.2926 24.9849 19.3976 25.8798L14.5363 30.7412C13.1859 32.0916 12.5107 33.712 12.5107 35.6025C12.5107 37.4931 13.1859 39.1135 14.5363 40.4639C15.8867 41.8143 17.5071 42.4895 19.3976 42.4895C21.2882 42.4895 22.9086 41.8143 24.259 40.4639L29.1204 35.6025C30.0153 34.7076 31.4663 34.7076 32.3613 35.6025ZM38.8431 32.3616C37.9481 33.2566 36.4971 33.2566 35.6022 32.3616C34.7072 31.4667 34.7072 30.0157 35.6022 29.1207L40.4635 24.2594C41.8139 22.909 42.4891 21.2885 42.4891 19.398C42.4891 17.5075 41.8139 15.887 40.4635 14.5366C39.1132 13.1863 37.4927 12.5111 35.6022 12.5111C33.7116 12.5111 32.0912 13.1863 30.7408 14.5366L25.8795 19.398C24.9845 20.293 23.5335 20.293 22.6386 19.398C21.7436 18.5031 21.7436 17.0521 22.6386 16.1571L27.4999 11.2957C29.7415 9.05412 32.4423 7.9333 35.6022 7.9333C38.7621 7.9333 41.4628 9.05412 43.7044 11.2957C45.9461 13.5374 47.0669 16.2381 47.0669 19.398C47.0669 22.5579 45.9461 25.2586 43.7044 27.5003L38.8431 32.3616Z" fill="url(#paint1_linear_8339_13877)"/>
<path d="M32.3613 35.6025C33.2562 36.4975 33.2562 37.9485 32.3613 38.8434L27.4999 43.7048C25.2583 45.9464 22.5575 47.0672 19.3976 47.0672C16.2378 47.0672 13.537 45.9464 11.2954 43.7048C9.05375 41.4632 7.93294 38.7624 7.93294 35.6025C7.93294 32.4427 9.05375 29.7419 11.2954 27.5003L16.1567 22.6389C17.0517 21.744 18.5027 21.744 19.3976 22.6389C20.2926 23.5339 20.2926 24.9849 19.3976 25.8798L14.5363 30.7412C13.1859 32.0916 12.5107 33.712 12.5107 35.6025C12.5107 37.4931 13.1859 39.1135 14.5363 40.4639C15.8867 41.8143 17.5071 42.4895 19.3976 42.4895C21.2882 42.4895 22.9086 41.8143 24.259 40.4639L29.1204 35.6025C30.0153 34.7076 31.4663 34.7076 32.3613 35.6025ZM38.8431 32.3616C37.9481 33.2566 36.4971 33.2566 35.6022 32.3616C34.7072 31.4667 34.7072 30.0157 35.6022 29.1207L40.4635 24.2594C41.8139 22.909 42.4891 21.2885 42.4891 19.398C42.4891 17.5075 41.8139 15.887 40.4635 14.5366C39.1132 13.1863 37.4927 12.5111 35.6022 12.5111C33.7116 12.5111 32.0912 13.1863 30.7408 14.5366L25.8795 19.398C24.9845 20.293 23.5335 20.293 22.6386 19.398C21.7436 18.5031 21.7436 17.0521 22.6386 16.1571L27.4999 11.2957C29.7415 9.05412 32.4423 7.9333 35.6022 7.9333C38.7621 7.9333 41.4628 9.05412 43.7044 11.2957C45.9461 13.5374 47.0669 16.2381 47.0669 19.398C47.0669 22.5579 45.9461 25.2586 43.7044 27.5003L38.8431 32.3616Z" fill="url(#paint2_linear_8339_13877)"/>
<path d="M30.7406 21.0182L21.0179 30.7409C20.123 31.6358 20.123 33.0868 21.0179 33.9818C21.9129 34.8767 23.3639 34.8767 24.2588 33.9818L33.9815 24.2591C34.8765 23.3641 34.8765 21.9131 33.9815 21.0182C33.0866 20.1232 31.6356 20.1232 30.7406 21.0182Z" fill="url(#paint3_linear_8339_13877)"/>
<path d="M30.7406 21.0182L21.0179 30.7409C20.123 31.6358 20.123 33.0868 21.0179 33.9818C21.9129 34.8767 23.3639 34.8767 24.2588 33.9818L33.9815 24.2591C34.8765 23.3641 34.8765 21.9131 33.9815 21.0182C33.0866 20.1232 31.6356 20.1232 30.7406 21.0182Z" fill="url(#paint4_linear_8339_13877)"/>
<path d="M30.7406 21.0182L21.0179 30.7409C20.123 31.6358 20.123 33.0868 21.0179 33.9818C21.9129 34.8767 23.3639 34.8767 24.2588 33.9818L33.9815 24.2591C34.8765 23.3641 34.8765 21.9131 33.9815 21.0182C33.0866 20.1232 31.6356 20.1232 30.7406 21.0182Z" fill="url(#paint5_linear_8339_13877)"/>
<path d="M30.7406 21.0182L21.0179 30.7409C20.123 31.6358 20.123 33.0868 21.0179 33.9818C21.9129 34.8767 23.3639 34.8767 24.2588 33.9818L33.9815 24.2591C34.8765 23.3641 34.8765 21.9131 33.9815 21.0182C33.0866 20.1232 31.6356 20.1232 30.7406 21.0182Z" fill="url(#paint6_linear_8339_13877)"/>
<defs>
<linearGradient id="paint0_linear_8339_13877" x1="45.0001" y1="9.5" x2="10.5001" y2="44" gradientUnits="userSpaceOnUse">
<stop stop-color="#E3E3E3"/>
<stop offset="1" stop-color="#7D7D7D"/>
</linearGradient>
<linearGradient id="paint1_linear_8339_13877" x1="46.5001" y1="8.5" x2="13.5001" y2="43.5" gradientUnits="userSpaceOnUse">
<stop stop-color="#EFEFF8"/>
<stop offset="1" stop-color="#A2A2CC"/>
</linearGradient>
<linearGradient id="paint2_linear_8339_13877" x1="46.2507" y1="8.75065" x2="10.9301" y2="44.6964" gradientUnits="userSpaceOnUse">
<stop stop-color="#4EBEFF"/>
<stop offset="1" stop-color="#4A74FF"/>
</linearGradient>
<linearGradient id="paint3_linear_8339_13877" x1="44.9999" y1="9.5" x2="10.4999" y2="44" gradientUnits="userSpaceOnUse">
<stop stop-color="#E3E3E3"/>
<stop offset="1" stop-color="#7D7D7D"/>
</linearGradient>
<linearGradient id="paint4_linear_8339_13877" x1="34.9999" y1="20" x2="20.9999" y2="34.5" gradientUnits="userSpaceOnUse">
<stop stop-color="#4EBEFF"/>
<stop offset="1" stop-color="#4A74FF"/>
</linearGradient>
<linearGradient id="paint5_linear_8339_13877" x1="35.0998" y1="19.8999" x2="22.3329" y2="34.2626" gradientUnits="userSpaceOnUse">
<stop stop-color="#EFEFF8"/>
<stop offset="1" stop-color="#A2A2CC"/>
</linearGradient>
<linearGradient id="paint6_linear_8339_13877" x1="32.4999" y1="21" x2="19.9999" y2="33.5" gradientUnits="userSpaceOnUse">
<stop stop-color="#594E63"/>
<stop offset="1" stop-color="#312938"/>
</linearGradient>
</defs>
</svg>
