<svg width="51" height="45" viewBox="0 0 51 45" fill="none" xmlns="http://www.w3.org/2000/svg">
<path d="M35.7734 10.0928C44.3288 10.9797 51 18.2101 51 27C51 30.3127 50.052 33.4038 48.4131 36.0176C48.0976 36.5207 47.9823 37.1295 48.1357 37.7031L49.6016 43.1758C49.8008 43.9193 49.1205 44.5996 48.377 44.4004L41.7959 42.6367C41.3452 42.5161 40.8683 42.5615 40.4365 42.7383C38.4512 43.5513 36.278 44 34 44C28.2445 44 23.1576 41.1393 20.082 36.7627C29.6643 35.2804 37 26.9975 37 17C37 14.5721 36.5658 12.2457 35.7734 10.0928Z" fill="#B34A4A"/>
<path d="M35.7734 10.0928C44.3288 10.9797 51 18.2101 51 27C51 30.3127 50.052 33.4038 48.4131 36.0176C48.0976 36.5207 47.9823 37.1295 48.1357 37.7031L49.6016 43.1758C49.8008 43.9193 49.1205 44.5996 48.377 44.4004L41.7959 42.6367C41.3452 42.5161 40.8683 42.5615 40.4365 42.7383C38.4512 43.5513 36.278 44 34 44C28.2445 44 23.1576 41.1393 20.082 36.7627C29.6643 35.2804 37 26.9975 37 17C37 14.5721 36.5658 12.2457 35.7734 10.0928Z" fill="url(#paint0_linear_8339_13820)"/>
<path d="M17 0C26.3888 0 34 7.61116 34 17C34 26.3888 26.3888 34 17 34C14.722 34 12.549 33.5511 10.5637 32.7381C10.1318 32.5612 9.65457 32.5163 9.20372 32.6371L2.62305 34.4004C1.87948 34.5996 1.1992 33.9193 1.39844 33.1758L2.86391 27.7035C3.01758 27.1297 2.90234 26.5209 2.58677 26.0176C0.947895 23.4038 0 20.3127 0 17C0 7.61116 7.61116 0 17 0Z" fill="#D9D9D9"/>
<path d="M17 0C26.3888 0 34 7.61116 34 17C34 26.3888 26.3888 34 17 34C14.722 34 12.549 33.5511 10.5637 32.7381C10.1318 32.5612 9.65457 32.5163 9.20372 32.6371L2.62305 34.4004C1.87948 34.5996 1.1992 33.9193 1.39844 33.1758L2.86391 27.7035C3.01758 27.1297 2.90234 26.5209 2.58677 26.0176C0.947895 23.4038 0 20.3127 0 17C0 7.61116 7.61116 0 17 0Z" fill="url(#paint1_linear_8339_13820)"/>
<path d="M17 16C15.7625 16 14.7031 15.5594 13.8219 14.6781C12.9406 13.7969 12.5 12.7375 12.5 11.5C12.5 10.2625 12.9406 9.20312 13.8219 8.32188C14.7031 7.44063 15.7625 7 17 7C18.2375 7 19.2969 7.44063 20.1781 8.32188C21.0594 9.20312 21.5 10.2625 21.5 11.5C21.5 12.7375 21.0594 13.7969 20.1781 14.6781C19.2969 15.5594 18.2375 16 17 16ZM9 25C8.44772 25 8 24.5523 8 24V21.85C8 21.2125 8.16406 20.6266 8.49219 20.0922C8.82031 19.5578 9.25625 19.15 9.8 18.8688C10.9625 18.2875 12.1437 17.8516 13.3438 17.5609C14.5438 17.2703 15.7625 17.125 17 17.125C18.2375 17.125 19.4563 17.2703 20.6562 17.5609C21.8562 17.8516 23.0375 18.2875 24.2 18.8688C24.7438 19.15 25.1797 19.5578 25.5078 20.0922C25.8359 20.6266 26 21.2125 26 21.85V24C26 24.5523 25.5523 25 25 25H9Z" fill="url(#paint2_linear_8339_13820)"/>
<defs>
<linearGradient id="paint0_linear_8339_13820" x1="35.541" y1="10.0928" x2="35.541" y2="44.4355" gradientUnits="userSpaceOnUse">
<stop stop-color="#4EBEFF"/>
<stop offset="1" stop-color="#4A74FF"/>
</linearGradient>
<linearGradient id="paint1_linear_8339_13820" x1="17" y1="0" x2="17" y2="34.4355" gradientUnits="userSpaceOnUse">
<stop stop-color="#EFEFF8"/>
<stop offset="1" stop-color="#A2A2CC"/>
</linearGradient>
<linearGradient id="paint2_linear_8339_13820" x1="17" y1="7" x2="17" y2="25" gradientUnits="userSpaceOnUse">
<stop stop-color="#594E63"/>
<stop offset="1" stop-color="#312938"/>
</linearGradient>
</defs>
</svg>
