<?xml version="1.0" encoding="utf-8"?>
<!-- Uploaded to: SVG Repo, www.svgrepo.com, Generator: SVG Repo Mixer Tools -->
<svg fill="#000000" width="800px" height="800px" viewBox="0 0 32 32" version="1.1" xmlns="http://www.w3.org/2000/svg">
<title>torbrowser</title>
<path d="M1.004 16c0 8.282 6.714 14.996 14.996 14.996s14.996-6.714 14.996-14.996c0-8.282-6.714-14.996-14.996-14.996-4.141 0-7.89 1.678-10.604 4.392v0c-2.714 2.714-4.392 6.463-4.392 10.604v0zM16 12.826c0.008-0 0.018-0 0.028-0 1.753 0 3.174 1.421 3.174 3.174s-1.421 3.174-3.174 3.174c-0.010 0-0.019-0-0.029-0h0.001zM16 21.911c3.264 0 5.911-2.646 5.911-5.911s-2.646-5.911-5.911-5.911v0-1.812c4.265 0 7.723 3.458 7.723 7.723s-3.458 7.723-7.723 7.723v0zM16 28.271v-1.824c5.77 0 10.447-4.677 10.447-10.447s-4.677-10.447-10.447-10.447v-1.824c6.771 0.009 12.256 5.5 12.256 12.271s-5.485 12.263-12.255 12.271h-0.001z"></path>
</svg>