<svg width="35" height="35" viewBox="0 0 35 35" fill="none" xmlns="http://www.w3.org/2000/svg">
<g clip-path="url(#clip0_7325_15666)">
<path d="M17.5 35C27.198 35 35 27.198 35 17.5C35 7.80203 27.198 0 17.5 0C7.80203 0 0 7.80203 0 17.5C0 27.198 7.80203 35 17.5 35Z" fill="#FF060A"/>
<path d="M17.5 35C27.198 35 35 27.198 35 17.5C35 7.80203 27.198 0 17.5 0C7.80203 0 0 7.80203 0 17.5C0 27.198 7.80203 35 17.5 35Z" fill="#F9181C"/>
<path d="M28.2623 14.0184C27.2266 13.0621 25.7939 11.6017 24.627 10.566L24.5579 10.5177C24.443 10.4254 24.3135 10.3531 24.1747 10.3036C21.361 9.77886 8.26607 7.33111 8.01059 7.36219C7.93901 7.37221 7.87058 7.39817 7.81036 7.43814L7.74476 7.48992C7.66399 7.57195 7.60264 7.67105 7.56524 7.77993L7.54797 7.82481V8.06993V8.1079C9.02215 12.2128 14.8429 25.6599 15.9891 28.8154C16.0581 29.0294 16.1893 29.4368 16.4344 29.4575H16.4897C16.6209 29.4575 17.1802 28.7187 17.1802 28.7187C17.1802 28.7187 27.1783 16.5939 28.1898 15.3027C28.3208 15.1436 28.4364 14.9726 28.5351 14.7917C28.5603 14.6503 28.5484 14.5047 28.5006 14.3691C28.4528 14.2336 28.3707 14.1128 28.2623 14.0184ZM19.7453 15.4304L24.0124 11.8917L26.5154 14.1979L19.7453 15.4304ZM18.0881 15.1991L10.7414 9.17815L22.628 11.3704L18.0881 15.1991ZM18.751 16.7769L26.2703 15.5651L17.6739 25.9223L18.751 16.7769ZM9.7437 9.77886L17.4736 16.3384L16.355 25.9292L9.7437 9.77886Z" fill="white"/>
</g>
<defs>
<clipPath id="clip0_7325_15666">
<rect width="35" height="35" fill="white"/>
</clipPath>
</defs>
</svg>
