<svg width="32" height="32" viewBox="0 0 32 32" fill="none" xmlns="http://www.w3.org/2000/svg">
<path d="M30.9996 9.6403C29.4996 8.25532 27.4247 6.14034 25.7347 4.64036L25.6347 4.57036C25.4683 4.43676 25.2807 4.33197 25.0797 4.26037C21.0047 3.50038 2.03999 -0.0445748 1.66999 0.000424627C1.56632 0.0149445 1.46722 0.0525332 1.37999 0.110423L1.285 0.185422C1.16802 0.304221 1.07917 0.447741 1.025 0.605417L1 0.670416V1.02541V1.08041C3.13497 7.02533 11.5649 26.5001 13.2248 31.07C13.3248 31.38 13.5148 31.97 13.8698 32H13.9498C14.1398 32 14.9498 30.93 14.9498 30.93C14.9498 30.93 29.4296 13.3702 30.8946 11.5003C31.0842 11.2699 31.2516 11.0222 31.3946 10.7603C31.4311 10.5554 31.4139 10.3445 31.3447 10.1482C31.2754 9.95197 31.1566 9.77697 30.9996 9.6403ZM18.6648 11.6853L24.8447 6.56034L28.4696 9.90029L18.6648 11.6853ZM16.2648 11.3503L5.62494 2.63039L22.8397 5.80535L16.2648 11.3503ZM17.2248 13.6352L28.1146 11.8803L15.6648 26.8801L17.2248 13.6352ZM4.17996 3.50038L15.3748 13.0003L13.7548 26.8901L4.17996 3.50038Z" fill="white"/>
</svg>
