<svg width="45" height="45" viewBox="0 0 45 45" fill="none" xmlns="http://www.w3.org/2000/svg">
<rect x="1" y="1" width="43" height="43" rx="6.03125" fill="white"/>
<rect x="1" y="1" width="43" height="43" rx="6.03125" stroke="black" stroke-width="2"/>
<path d="M35.1505 17.4353C33.838 16.2234 32.0224 14.3728 30.5437 13.0603L30.4562 12.9991C30.3106 12.8822 30.1465 12.7905 29.9706 12.7278C26.405 12.0628 9.81087 8.961 9.48712 9.00037C9.39641 9.01308 9.3097 9.04597 9.23337 9.09662L9.15025 9.16224C9.0479 9.26619 8.97016 9.39177 8.92275 9.52974L8.90088 9.58661V9.89723V9.94536C10.769 15.1472 18.1451 32.1876 19.5976 36.1863C19.6851 36.4575 19.8514 36.9738 20.162 37H20.232C20.3982 37 21.107 36.0638 21.107 36.0638C21.107 36.0638 33.7768 20.699 35.0587 19.0627C35.2246 18.8612 35.3711 18.6444 35.4962 18.4152C35.5281 18.236 35.513 18.0515 35.4525 17.8797C35.3919 17.708 35.2879 17.5549 35.1505 17.4353ZM24.3576 19.2246L29.765 14.7403L32.9368 17.6628L24.3576 19.2246ZM22.2576 18.9315L12.9477 11.3016L28.0106 14.0797L22.2576 18.9315ZM23.0976 20.9308L32.6262 19.3952L21.7326 32.5201L23.0976 20.9308ZM11.6833 12.0628L21.4788 20.3752L20.0614 32.5288L11.6833 12.0628Z" fill="black"/>
</svg>
