<svg width="90" height="90" viewBox="0 0 90 90" fill="none" xmlns="http://www.w3.org/2000/svg">
<path d="M34.5013 49.1421C36.1876 49.1421 37.8051 49.812 38.9974 51.0044C40.1897 52.1969 40.8597 53.8143 40.8597 55.5005V69.5005C40.8597 71.1867 40.1897 72.8041 38.9974 73.9966C37.8051 75.1889 36.1876 75.8589 34.5013 75.8589H20.5033C18.8172 75.8588 17.2004 75.1888 16.0082 73.9966C14.8159 72.8041 14.1459 71.1867 14.1459 69.5005V55.5005C14.1459 53.8143 14.8159 52.1969 16.0082 51.0044C17.2004 49.8122 18.8172 49.1422 20.5033 49.1421H34.5013ZM69.5267 49.1421C71.2128 49.1421 72.8306 49.8122 74.0228 51.0044C75.2149 52.1967 75.885 53.8145 75.8851 55.5005V69.5005C75.885 71.1865 75.215 72.8042 74.0228 73.9966C72.8306 75.1888 71.2129 75.8589 69.5267 75.8589H55.5287C53.8428 75.8587 52.2257 75.1886 51.0336 73.9966C49.8416 72.8043 49.1714 71.1864 49.1713 69.5005V55.5005C49.1714 53.8145 49.8415 52.1967 51.0336 51.0044C52.2257 49.8123 53.8427 49.1423 55.5287 49.1421H69.5267ZM20.5033 54.8589C20.3336 54.859 20.1703 54.9262 20.0502 55.0464C19.93 55.1667 19.8627 55.3303 19.8627 55.5005V69.5005C19.8627 69.6707 19.93 69.8343 20.0502 69.9546C20.1703 70.0747 20.3336 70.142 20.5033 70.1421H34.5013C34.671 70.1421 34.8343 70.0746 34.9545 69.9546C35.0747 69.8343 35.1429 69.6707 35.1429 69.5005V55.5005C35.1429 55.3302 35.0747 55.1667 34.9545 55.0464C34.8342 54.9264 34.6711 54.8589 34.5013 54.8589H20.5033ZM55.5287 54.8589C55.3591 54.8591 55.1956 54.9263 55.0756 55.0464C54.9556 55.1666 54.8882 55.3305 54.8881 55.5005V69.5005C54.8882 69.6704 54.9557 69.8345 55.0756 69.9546C55.1956 70.0745 55.3592 70.1419 55.5287 70.1421H69.5267C69.6963 70.1421 69.8597 70.0745 69.9799 69.9546C70.1 69.8344 70.1682 69.6706 70.1683 69.5005V55.5005C70.1682 55.3305 70.0999 55.1666 69.9799 55.0464C69.8597 54.9266 69.6963 54.8589 69.5267 54.8589H55.5287ZM27.5033 59.0708C29.3975 59.071 30.933 60.6062 30.933 62.5005V62.5356C30.9328 64.4297 29.3973 65.9651 27.5033 65.9653C25.609 65.9653 24.0738 64.4299 24.0736 62.5356V62.5005C24.0736 60.6061 25.6089 59.0708 27.5033 59.0708ZM62.5287 59.0698C64.4226 59.0701 65.958 60.6056 65.9584 62.4995V62.5347C65.9583 64.4289 64.4229 65.9641 62.5287 65.9644C60.6344 65.9642 59.099 64.4289 59.099 62.5347V62.4995C59.0994 60.6055 60.6347 59.07 62.5287 59.0698ZM34.5013 14.1421C36.1876 14.1421 37.8051 14.812 38.9974 16.0044C40.1897 17.1969 40.8597 18.8143 40.8597 20.5005V34.5005C40.8597 36.1866 40.1897 37.8042 38.9974 38.9966C37.8052 40.1889 36.1876 40.8589 34.5013 40.8589H20.5033C18.8173 40.8588 17.2003 40.1888 16.0082 38.9966C14.8159 37.8042 14.1459 36.1866 14.1459 34.5005V20.5005C14.1459 18.8143 14.816 17.1968 16.0082 16.0044C17.2003 14.8122 18.8172 14.1422 20.5033 14.1421H34.5013ZM69.4965 14.1421C71.1827 14.1421 72.8003 14.8121 73.9926 16.0044C75.1848 17.1968 75.8549 18.8143 75.8549 20.5005V34.5005C75.8548 36.1866 75.1848 37.8042 73.9926 38.9966C72.8003 40.1889 71.1827 40.8589 69.4965 40.8589H55.4984C53.8124 40.8588 52.1955 40.1887 51.0033 38.9966C49.811 37.8042 49.141 36.1867 49.141 34.5005V20.5005C49.141 18.8143 49.811 17.1969 51.0033 16.0044C52.1955 14.8122 53.8123 14.1422 55.4984 14.1421H69.4965ZM20.5033 19.8589C20.3336 19.859 20.1703 19.9262 20.0502 20.0464C19.93 20.1667 19.8627 20.3303 19.8627 20.5005V34.5005C19.8627 34.6707 19.93 34.8344 20.0502 34.9546C20.1703 35.0747 20.3336 35.142 20.5033 35.1421H34.5013C34.671 35.1421 34.8343 35.0746 34.9545 34.9546C35.0747 34.8344 35.1429 34.6707 35.1429 34.5005V20.5005C35.1429 20.3302 35.0747 20.1667 34.9545 20.0464C34.8342 19.9264 34.6711 19.8589 34.5013 19.8589H20.5033ZM55.4984 19.8589C55.3287 19.859 55.1654 19.9262 55.0453 20.0464C54.9251 20.1667 54.8578 20.3302 54.8578 20.5005V34.5005C54.8578 34.6707 54.9251 34.8343 55.0453 34.9546C55.1654 35.0747 55.3288 35.142 55.4984 35.1421H69.4965C69.6663 35.1421 69.8303 35.0748 69.9506 34.9546C70.0707 34.8344 70.138 34.6707 70.1381 34.5005V20.5005C70.1381 20.3303 70.0707 20.1666 69.9506 20.0464C69.8303 19.9261 69.6663 19.8589 69.4965 19.8589H55.4984ZM27.5033 24.0708C29.3975 24.071 30.933 25.6062 30.933 27.5005V27.5356C30.9329 29.4298 29.3974 30.9651 27.5033 30.9653C25.609 30.9653 24.0737 29.43 24.0736 27.5356V27.5005C24.0736 25.6061 25.6089 24.0708 27.5033 24.0708ZM62.4974 24.0708C64.3918 24.0708 65.9271 25.6061 65.9271 27.5005V27.5356C65.927 29.4299 64.3918 30.9653 62.4974 30.9653C60.6033 30.9651 59.0679 29.4298 59.0677 27.5356V27.5005C59.0677 25.6062 60.6032 24.071 62.4974 24.0708Z" fill="url(#paint0_linear_7557_11568)"/>
<path d="M34.5013 49.1421C36.1876 49.1421 37.8051 49.812 38.9974 51.0044C40.1897 52.1969 40.8597 53.8143 40.8597 55.5005V69.5005C40.8597 71.1867 40.1897 72.8041 38.9974 73.9966C37.8051 75.1889 36.1876 75.8589 34.5013 75.8589H20.5033C18.8172 75.8588 17.2004 75.1888 16.0082 73.9966C14.8159 72.8041 14.1459 71.1867 14.1459 69.5005V55.5005C14.1459 53.8143 14.8159 52.1969 16.0082 51.0044C17.2004 49.8122 18.8172 49.1422 20.5033 49.1421H34.5013ZM69.5267 49.1421C71.2128 49.1421 72.8306 49.8122 74.0228 51.0044C75.2149 52.1967 75.885 53.8145 75.8851 55.5005V69.5005C75.885 71.1865 75.215 72.8042 74.0228 73.9966C72.8306 75.1888 71.2129 75.8589 69.5267 75.8589H55.5287C53.8428 75.8587 52.2257 75.1886 51.0336 73.9966C49.8416 72.8043 49.1714 71.1864 49.1713 69.5005V55.5005C49.1714 53.8145 49.8415 52.1967 51.0336 51.0044C52.2257 49.8123 53.8427 49.1423 55.5287 49.1421H69.5267ZM20.5033 54.8589C20.3336 54.859 20.1703 54.9262 20.0502 55.0464C19.93 55.1667 19.8627 55.3303 19.8627 55.5005V69.5005C19.8627 69.6707 19.93 69.8343 20.0502 69.9546C20.1703 70.0747 20.3336 70.142 20.5033 70.1421H34.5013C34.671 70.1421 34.8343 70.0746 34.9545 69.9546C35.0747 69.8343 35.1429 69.6707 35.1429 69.5005V55.5005C35.1429 55.3302 35.0747 55.1667 34.9545 55.0464C34.8342 54.9264 34.6711 54.8589 34.5013 54.8589H20.5033ZM55.5287 54.8589C55.3591 54.8591 55.1956 54.9263 55.0756 55.0464C54.9556 55.1666 54.8882 55.3305 54.8881 55.5005V69.5005C54.8882 69.6704 54.9557 69.8345 55.0756 69.9546C55.1956 70.0745 55.3592 70.1419 55.5287 70.1421H69.5267C69.6963 70.1421 69.8597 70.0745 69.9799 69.9546C70.1 69.8344 70.1682 69.6706 70.1683 69.5005V55.5005C70.1682 55.3305 70.0999 55.1666 69.9799 55.0464C69.8597 54.9266 69.6963 54.8589 69.5267 54.8589H55.5287ZM27.5033 59.0708C29.3975 59.071 30.933 60.6062 30.933 62.5005V62.5356C30.9328 64.4297 29.3973 65.9651 27.5033 65.9653C25.609 65.9653 24.0738 64.4299 24.0736 62.5356V62.5005C24.0736 60.6061 25.6089 59.0708 27.5033 59.0708ZM62.5287 59.0698C64.4226 59.0701 65.958 60.6056 65.9584 62.4995V62.5347C65.9583 64.4289 64.4229 65.9641 62.5287 65.9644C60.6344 65.9642 59.099 64.4289 59.099 62.5347V62.4995C59.0994 60.6055 60.6347 59.07 62.5287 59.0698ZM34.5013 14.1421C36.1876 14.1421 37.8051 14.812 38.9974 16.0044C40.1897 17.1969 40.8597 18.8143 40.8597 20.5005V34.5005C40.8597 36.1866 40.1897 37.8042 38.9974 38.9966C37.8052 40.1889 36.1876 40.8589 34.5013 40.8589H20.5033C18.8173 40.8588 17.2003 40.1888 16.0082 38.9966C14.8159 37.8042 14.1459 36.1866 14.1459 34.5005V20.5005C14.1459 18.8143 14.816 17.1968 16.0082 16.0044C17.2003 14.8122 18.8172 14.1422 20.5033 14.1421H34.5013ZM69.4965 14.1421C71.1827 14.1421 72.8003 14.8121 73.9926 16.0044C75.1848 17.1968 75.8549 18.8143 75.8549 20.5005V34.5005C75.8548 36.1866 75.1848 37.8042 73.9926 38.9966C72.8003 40.1889 71.1827 40.8589 69.4965 40.8589H55.4984C53.8124 40.8588 52.1955 40.1887 51.0033 38.9966C49.811 37.8042 49.141 36.1867 49.141 34.5005V20.5005C49.141 18.8143 49.811 17.1969 51.0033 16.0044C52.1955 14.8122 53.8123 14.1422 55.4984 14.1421H69.4965ZM20.5033 19.8589C20.3336 19.859 20.1703 19.9262 20.0502 20.0464C19.93 20.1667 19.8627 20.3303 19.8627 20.5005V34.5005C19.8627 34.6707 19.93 34.8344 20.0502 34.9546C20.1703 35.0747 20.3336 35.142 20.5033 35.1421H34.5013C34.671 35.1421 34.8343 35.0746 34.9545 34.9546C35.0747 34.8344 35.1429 34.6707 35.1429 34.5005V20.5005C35.1429 20.3302 35.0747 20.1667 34.9545 20.0464C34.8342 19.9264 34.6711 19.8589 34.5013 19.8589H20.5033ZM55.4984 19.8589C55.3287 19.859 55.1654 19.9262 55.0453 20.0464C54.9251 20.1667 54.8578 20.3302 54.8578 20.5005V34.5005C54.8578 34.6707 54.9251 34.8343 55.0453 34.9546C55.1654 35.0747 55.3288 35.142 55.4984 35.1421H69.4965C69.6663 35.1421 69.8303 35.0748 69.9506 34.9546C70.0707 34.8344 70.138 34.6707 70.1381 34.5005V20.5005C70.1381 20.3303 70.0707 20.1666 69.9506 20.0464C69.8303 19.9261 69.6663 19.8589 69.4965 19.8589H55.4984ZM27.5033 24.0708C29.3975 24.071 30.933 25.6062 30.933 27.5005V27.5356C30.9329 29.4298 29.3974 30.9651 27.5033 30.9653C25.609 30.9653 24.0737 29.43 24.0736 27.5356V27.5005C24.0736 25.6061 25.6089 24.0708 27.5033 24.0708ZM62.4974 24.0708C64.3918 24.0708 65.9271 25.6061 65.9271 27.5005V27.5356C65.927 29.4299 64.3918 30.9653 62.4974 30.9653C60.6033 30.9651 59.0679 29.4298 59.0677 27.5356V27.5005C59.0677 25.6062 60.6032 24.071 62.4974 24.0708Z" fill="#EFEFF8" fill-opacity="0.85"/>
<path d="M34.5013 49.1421C36.1876 49.1421 37.8051 49.812 38.9974 51.0044C40.1897 52.1969 40.8597 53.8143 40.8597 55.5005V69.5005C40.8597 71.1867 40.1897 72.8041 38.9974 73.9966C37.8051 75.1889 36.1876 75.8589 34.5013 75.8589H20.5033C18.8172 75.8588 17.2004 75.1888 16.0082 73.9966C14.8159 72.8041 14.1459 71.1867 14.1459 69.5005V55.5005C14.1459 53.8143 14.8159 52.1969 16.0082 51.0044C17.2004 49.8122 18.8172 49.1422 20.5033 49.1421H34.5013ZM69.5267 49.1421C71.2128 49.1421 72.8306 49.8122 74.0228 51.0044C75.2149 52.1967 75.885 53.8145 75.8851 55.5005V69.5005C75.885 71.1865 75.215 72.8042 74.0228 73.9966C72.8306 75.1888 71.2129 75.8589 69.5267 75.8589H55.5287C53.8428 75.8587 52.2257 75.1886 51.0336 73.9966C49.8416 72.8043 49.1714 71.1864 49.1713 69.5005V55.5005C49.1714 53.8145 49.8415 52.1967 51.0336 51.0044C52.2257 49.8123 53.8427 49.1423 55.5287 49.1421H69.5267ZM20.5033 54.8589C20.3336 54.859 20.1703 54.9262 20.0502 55.0464C19.93 55.1667 19.8627 55.3303 19.8627 55.5005V69.5005C19.8627 69.6707 19.93 69.8343 20.0502 69.9546C20.1703 70.0747 20.3336 70.142 20.5033 70.1421H34.5013C34.671 70.1421 34.8343 70.0746 34.9545 69.9546C35.0747 69.8343 35.1429 69.6707 35.1429 69.5005V55.5005C35.1429 55.3302 35.0747 55.1667 34.9545 55.0464C34.8342 54.9264 34.6711 54.8589 34.5013 54.8589H20.5033ZM55.5287 54.8589C55.3591 54.8591 55.1956 54.9263 55.0756 55.0464C54.9556 55.1666 54.8882 55.3305 54.8881 55.5005V69.5005C54.8882 69.6704 54.9557 69.8345 55.0756 69.9546C55.1956 70.0745 55.3592 70.1419 55.5287 70.1421H69.5267C69.6963 70.1421 69.8597 70.0745 69.9799 69.9546C70.1 69.8344 70.1682 69.6706 70.1683 69.5005V55.5005C70.1682 55.3305 70.0999 55.1666 69.9799 55.0464C69.8597 54.9266 69.6963 54.8589 69.5267 54.8589H55.5287ZM27.5033 59.0708C29.3975 59.071 30.933 60.6062 30.933 62.5005V62.5356C30.9328 64.4297 29.3973 65.9651 27.5033 65.9653C25.609 65.9653 24.0738 64.4299 24.0736 62.5356V62.5005C24.0736 60.6061 25.6089 59.0708 27.5033 59.0708ZM62.5287 59.0698C64.4226 59.0701 65.958 60.6056 65.9584 62.4995V62.5347C65.9583 64.4289 64.4229 65.9641 62.5287 65.9644C60.6344 65.9642 59.099 64.4289 59.099 62.5347V62.4995C59.0994 60.6055 60.6347 59.07 62.5287 59.0698ZM34.5013 14.1421C36.1876 14.1421 37.8051 14.812 38.9974 16.0044C40.1897 17.1969 40.8597 18.8143 40.8597 20.5005V34.5005C40.8597 36.1866 40.1897 37.8042 38.9974 38.9966C37.8052 40.1889 36.1876 40.8589 34.5013 40.8589H20.5033C18.8173 40.8588 17.2003 40.1888 16.0082 38.9966C14.8159 37.8042 14.1459 36.1866 14.1459 34.5005V20.5005C14.1459 18.8143 14.816 17.1968 16.0082 16.0044C17.2003 14.8122 18.8172 14.1422 20.5033 14.1421H34.5013ZM69.4965 14.1421C71.1827 14.1421 72.8003 14.8121 73.9926 16.0044C75.1848 17.1968 75.8549 18.8143 75.8549 20.5005V34.5005C75.8548 36.1866 75.1848 37.8042 73.9926 38.9966C72.8003 40.1889 71.1827 40.8589 69.4965 40.8589H55.4984C53.8124 40.8588 52.1955 40.1887 51.0033 38.9966C49.811 37.8042 49.141 36.1867 49.141 34.5005V20.5005C49.141 18.8143 49.811 17.1969 51.0033 16.0044C52.1955 14.8122 53.8123 14.1422 55.4984 14.1421H69.4965ZM20.5033 19.8589C20.3336 19.859 20.1703 19.9262 20.0502 20.0464C19.93 20.1667 19.8627 20.3303 19.8627 20.5005V34.5005C19.8627 34.6707 19.93 34.8344 20.0502 34.9546C20.1703 35.0747 20.3336 35.142 20.5033 35.1421H34.5013C34.671 35.1421 34.8343 35.0746 34.9545 34.9546C35.0747 34.8344 35.1429 34.6707 35.1429 34.5005V20.5005C35.1429 20.3302 35.0747 20.1667 34.9545 20.0464C34.8342 19.9264 34.6711 19.8589 34.5013 19.8589H20.5033ZM55.4984 19.8589C55.3287 19.859 55.1654 19.9262 55.0453 20.0464C54.9251 20.1667 54.8578 20.3302 54.8578 20.5005V34.5005C54.8578 34.6707 54.9251 34.8343 55.0453 34.9546C55.1654 35.0747 55.3288 35.142 55.4984 35.1421H69.4965C69.6663 35.1421 69.8303 35.0748 69.9506 34.9546C70.0707 34.8344 70.138 34.6707 70.1381 34.5005V20.5005C70.1381 20.3303 70.0707 20.1666 69.9506 20.0464C69.8303 19.9261 69.6663 19.8589 69.4965 19.8589H55.4984ZM27.5033 24.0708C29.3975 24.071 30.933 25.6062 30.933 27.5005V27.5356C30.9329 29.4298 29.3974 30.9651 27.5033 30.9653C25.609 30.9653 24.0737 29.43 24.0736 27.5356V27.5005C24.0736 25.6061 25.6089 24.0708 27.5033 24.0708ZM62.4974 24.0708C64.3918 24.0708 65.9271 25.6061 65.9271 27.5005V27.5356C65.927 29.4299 64.3918 30.9653 62.4974 30.9653C60.6033 30.9651 59.0679 29.4298 59.0677 27.5356V27.5005C59.0677 25.6062 60.6032 24.071 62.4974 24.0708Z" fill="url(#paint1_linear_7557_11568)" fill-opacity="0.85"/>
<path d="M34.5013 49.1421C36.1876 49.1421 37.8051 49.812 38.9974 51.0044C40.1897 52.1969 40.8597 53.8143 40.8597 55.5005V69.5005C40.8597 71.1867 40.1897 72.8041 38.9974 73.9966C37.8051 75.1889 36.1876 75.8589 34.5013 75.8589H20.5033C18.8172 75.8588 17.2004 75.1888 16.0082 73.9966C14.8159 72.8041 14.1459 71.1867 14.1459 69.5005V55.5005C14.1459 53.8143 14.8159 52.1969 16.0082 51.0044C17.2004 49.8122 18.8172 49.1422 20.5033 49.1421H34.5013ZM69.5267 49.1421C71.2128 49.1421 72.8306 49.8122 74.0228 51.0044C75.2149 52.1967 75.885 53.8145 75.8851 55.5005V69.5005C75.885 71.1865 75.215 72.8042 74.0228 73.9966C72.8306 75.1888 71.2129 75.8589 69.5267 75.8589H55.5287C53.8428 75.8587 52.2257 75.1886 51.0336 73.9966C49.8416 72.8043 49.1714 71.1864 49.1713 69.5005V55.5005C49.1714 53.8145 49.8415 52.1967 51.0336 51.0044C52.2257 49.8123 53.8427 49.1423 55.5287 49.1421H69.5267ZM20.5033 54.8589C20.3336 54.859 20.1703 54.9262 20.0502 55.0464C19.93 55.1667 19.8627 55.3303 19.8627 55.5005V69.5005C19.8627 69.6707 19.93 69.8343 20.0502 69.9546C20.1703 70.0747 20.3336 70.142 20.5033 70.1421H34.5013C34.671 70.1421 34.8343 70.0746 34.9545 69.9546C35.0747 69.8343 35.1429 69.6707 35.1429 69.5005V55.5005C35.1429 55.3302 35.0747 55.1667 34.9545 55.0464C34.8342 54.9264 34.6711 54.8589 34.5013 54.8589H20.5033ZM55.5287 54.8589C55.3591 54.8591 55.1956 54.9263 55.0756 55.0464C54.9556 55.1666 54.8882 55.3305 54.8881 55.5005V69.5005C54.8882 69.6704 54.9557 69.8345 55.0756 69.9546C55.1956 70.0745 55.3592 70.1419 55.5287 70.1421H69.5267C69.6963 70.1421 69.8597 70.0745 69.9799 69.9546C70.1 69.8344 70.1682 69.6706 70.1683 69.5005V55.5005C70.1682 55.3305 70.0999 55.1666 69.9799 55.0464C69.8597 54.9266 69.6963 54.8589 69.5267 54.8589H55.5287ZM27.5033 59.0708C29.3975 59.071 30.933 60.6062 30.933 62.5005V62.5356C30.9328 64.4297 29.3973 65.9651 27.5033 65.9653C25.609 65.9653 24.0738 64.4299 24.0736 62.5356V62.5005C24.0736 60.6061 25.6089 59.0708 27.5033 59.0708ZM62.5287 59.0698C64.4226 59.0701 65.958 60.6056 65.9584 62.4995V62.5347C65.9583 64.4289 64.4229 65.9641 62.5287 65.9644C60.6344 65.9642 59.099 64.4289 59.099 62.5347V62.4995C59.0994 60.6055 60.6347 59.07 62.5287 59.0698ZM34.5013 14.1421C36.1876 14.1421 37.8051 14.812 38.9974 16.0044C40.1897 17.1969 40.8597 18.8143 40.8597 20.5005V34.5005C40.8597 36.1866 40.1897 37.8042 38.9974 38.9966C37.8052 40.1889 36.1876 40.8589 34.5013 40.8589H20.5033C18.8173 40.8588 17.2003 40.1888 16.0082 38.9966C14.8159 37.8042 14.1459 36.1866 14.1459 34.5005V20.5005C14.1459 18.8143 14.816 17.1968 16.0082 16.0044C17.2003 14.8122 18.8172 14.1422 20.5033 14.1421H34.5013ZM69.4965 14.1421C71.1827 14.1421 72.8003 14.8121 73.9926 16.0044C75.1848 17.1968 75.8549 18.8143 75.8549 20.5005V34.5005C75.8548 36.1866 75.1848 37.8042 73.9926 38.9966C72.8003 40.1889 71.1827 40.8589 69.4965 40.8589H55.4984C53.8124 40.8588 52.1955 40.1887 51.0033 38.9966C49.811 37.8042 49.141 36.1867 49.141 34.5005V20.5005C49.141 18.8143 49.811 17.1969 51.0033 16.0044C52.1955 14.8122 53.8123 14.1422 55.4984 14.1421H69.4965ZM20.5033 19.8589C20.3336 19.859 20.1703 19.9262 20.0502 20.0464C19.93 20.1667 19.8627 20.3303 19.8627 20.5005V34.5005C19.8627 34.6707 19.93 34.8344 20.0502 34.9546C20.1703 35.0747 20.3336 35.142 20.5033 35.1421H34.5013C34.671 35.1421 34.8343 35.0746 34.9545 34.9546C35.0747 34.8344 35.1429 34.6707 35.1429 34.5005V20.5005C35.1429 20.3302 35.0747 20.1667 34.9545 20.0464C34.8342 19.9264 34.6711 19.8589 34.5013 19.8589H20.5033ZM55.4984 19.8589C55.3287 19.859 55.1654 19.9262 55.0453 20.0464C54.9251 20.1667 54.8578 20.3302 54.8578 20.5005V34.5005C54.8578 34.6707 54.9251 34.8343 55.0453 34.9546C55.1654 35.0747 55.3288 35.142 55.4984 35.1421H69.4965C69.6663 35.1421 69.8303 35.0748 69.9506 34.9546C70.0707 34.8344 70.138 34.6707 70.1381 34.5005V20.5005C70.1381 20.3303 70.0707 20.1666 69.9506 20.0464C69.8303 19.9261 69.6663 19.8589 69.4965 19.8589H55.4984ZM27.5033 24.0708C29.3975 24.071 30.933 25.6062 30.933 27.5005V27.5356C30.9329 29.4298 29.3974 30.9651 27.5033 30.9653C25.609 30.9653 24.0737 29.43 24.0736 27.5356V27.5005C24.0736 25.6061 25.6089 24.0708 27.5033 24.0708ZM62.4974 24.0708C64.3918 24.0708 65.9271 25.6061 65.9271 27.5005V27.5356C65.927 29.4299 64.3918 30.9653 62.4974 30.9653C60.6033 30.9651 59.0679 29.4298 59.0677 27.5356V27.5005C59.0677 25.6062 60.6032 24.071 62.4974 24.0708Z" fill="url(#paint2_linear_7557_11568)" fill-opacity="0.85"/>
<path d="M2.23438 58.8057C3.46802 58.8058 4.46866 59.8064 4.46875 61.04V74.3682C4.46891 80.5371 9.4697 85.538 15.6387 85.5381H28.9629C30.1965 85.5382 31.1972 86.5388 31.1973 87.7725C31.1971 89.0061 30.1965 90.0067 28.9629 90.0068H15.6387C7.00207 90.0068 0.000156824 83.0047 0 74.3682V61.04C9.06793e-05 59.8063 1.00064 58.8057 2.23438 58.8057ZM87.7666 58.8057C89.0002 58.8059 90.0009 59.8064 90.001 61.04V74.3682C90.0008 83.0046 82.9988 90.0066 74.3623 90.0068H61.0381C59.8045 90.0067 58.8039 89.0061 58.8037 87.7725C58.8038 86.5388 59.8045 85.5382 61.0381 85.5381H74.3623C80.5311 85.5379 85.5321 80.537 85.5322 74.3682V61.04C85.5323 59.8064 86.533 58.8058 87.7666 58.8057ZM28.9629 -0.00683594C30.1965 -0.00669637 31.1972 0.993883 31.1973 2.22754C31.1973 3.46127 30.1966 4.46177 28.9629 4.46191H15.6387C9.46963 4.46191 4.46884 9.46282 4.46875 15.6318V28.96C4.46875 30.1937 3.46808 31.1942 2.23438 31.1943C1.00056 31.1943 0 30.1938 0 28.96V15.6318C9.03316e-05 6.99518 7.002 -0.00683594 15.6387 -0.00683594H28.9629ZM74.3623 -0.00683594C82.9988 -0.00662192 90.0009 6.99532 90.001 15.6318V28.96C90.001 30.1936 89.0002 31.1941 87.7666 31.1943C86.5329 31.1942 85.5322 30.1937 85.5322 28.96V15.6318C85.5321 9.46297 80.5312 4.46213 74.3623 4.46191H61.0381C59.8044 4.46176 58.8037 3.46126 58.8037 2.22754C58.8038 0.993904 59.8045 -0.00668338 61.0381 -0.00683594H74.3623Z" fill="#EFEFF8" fill-opacity="0.85"/>
<path d="M2.23438 58.8057C3.46802 58.8058 4.46866 59.8064 4.46875 61.04V74.3682C4.46891 80.5371 9.4697 85.538 15.6387 85.5381H28.9629C30.1965 85.5382 31.1972 86.5388 31.1973 87.7725C31.1971 89.0061 30.1965 90.0067 28.9629 90.0068H15.6387C7.00207 90.0068 0.000156824 83.0047 0 74.3682V61.04C9.06793e-05 59.8063 1.00064 58.8057 2.23438 58.8057ZM87.7666 58.8057C89.0002 58.8059 90.0009 59.8064 90.001 61.04V74.3682C90.0008 83.0046 82.9988 90.0066 74.3623 90.0068H61.0381C59.8045 90.0067 58.8039 89.0061 58.8037 87.7725C58.8038 86.5388 59.8045 85.5382 61.0381 85.5381H74.3623C80.5311 85.5379 85.5321 80.537 85.5322 74.3682V61.04C85.5323 59.8064 86.533 58.8058 87.7666 58.8057ZM28.9629 -0.00683594C30.1965 -0.00669637 31.1972 0.993883 31.1973 2.22754C31.1973 3.46127 30.1966 4.46177 28.9629 4.46191H15.6387C9.46963 4.46191 4.46884 9.46282 4.46875 15.6318V28.96C4.46875 30.1937 3.46808 31.1942 2.23438 31.1943C1.00056 31.1943 0 30.1938 0 28.96V15.6318C9.03316e-05 6.99518 7.002 -0.00683594 15.6387 -0.00683594H28.9629ZM74.3623 -0.00683594C82.9988 -0.00662192 90.0009 6.99532 90.001 15.6318V28.96C90.001 30.1936 89.0002 31.1941 87.7666 31.1943C86.5329 31.1942 85.5322 30.1937 85.5322 28.96V15.6318C85.5321 9.46297 80.5312 4.46213 74.3623 4.46191H61.0381C59.8044 4.46176 58.8037 3.46126 58.8037 2.22754C58.8038 0.993904 59.8045 -0.00668338 61.0381 -0.00683594H74.3623Z" fill="url(#paint3_linear_7557_11568)"/>
<defs>
<linearGradient id="paint0_linear_7557_11568" x1="23.9765" y1="14.1476" x2="62.5586" y2="60.111" gradientUnits="userSpaceOnUse">
<stop stop-color="#4EBEFF"/>
<stop offset="1" stop-color="#2982FF"/>
</linearGradient>
<linearGradient id="paint1_linear_7557_11568" x1="45.0155" y1="14.1421" x2="56.4733" y2="75.8602" gradientUnits="userSpaceOnUse">
<stop stop-color="white"/>
<stop offset="1" stop-color="#EFEFF8"/>
</linearGradient>
<linearGradient id="paint2_linear_7557_11568" x1="45.0155" y1="14.1421" x2="56.4733" y2="75.8602" gradientUnits="userSpaceOnUse">
<stop stop-color="#EFEFF8"/>
<stop offset="1" stop-color="#9A9AD4"/>
</linearGradient>
<linearGradient id="paint3_linear_7557_11568" x1="14.3306" y1="0.00121788" x2="70.6075" y2="67.0106" gradientUnits="userSpaceOnUse">
<stop stop-color="#4EBEFF"/>
<stop offset="1" stop-color="#2982FF"/>
</linearGradient>
</defs>
</svg>
