<svg width="35" height="35" viewBox="0 0 35 35" fill="none" xmlns="http://www.w3.org/2000/svg">
<g clip-path="url(#clip0_8153_1393)">
<path d="M17.4999 35C27.1979 35 34.9999 27.198 34.9999 17.5C34.9999 7.80203 27.1979 0 17.4999 0C7.8019 0 -0.00012207 7.80203 -0.00012207 17.5C-0.00012207 27.198 7.8019 35 17.4999 35Z" fill="#2775CA"/>
<path fill-rule="evenodd" clip-rule="evenodd" d="M6.62085 17.6873C6.62085 12.7151 9.91301 8.52215 14.4083 7.16109V4.89999C8.67709 6.30495 4.43335 11.4967 4.43335 17.6873C4.43335 23.8779 8.67709 29.0697 14.4083 30.4746V28.2136C9.91301 26.8635 6.62085 22.6595 6.62085 17.6873ZM22.2615 20.135C22.2615 17.5599 19.9547 17.0687 17.9875 16.6497C16.5252 16.3383 15.2505 16.0668 15.2505 15.0091C15.2505 14.12 15.9615 13.5493 17.3177 13.5493C18.9365 13.5493 19.4943 14.3396 19.6693 15.4043H21.9005C21.7015 13.4061 20.5587 12.1445 18.6521 11.7687V10.0039H16.4646V11.7057C14.3759 11.9727 13.0631 13.1933 13.0631 15.0091C13.0631 17.6093 15.3959 18.1492 17.3723 18.6067C18.8248 18.9429 20.0849 19.2345 20.0849 20.2667C20.0849 21.1887 19.199 21.8034 17.7005 21.8034C15.7427 21.8034 15.0974 20.9363 14.8568 19.7399H12.6802C12.8212 21.9284 14.166 23.2981 16.4646 23.6399V25.3707H18.6521V23.663C20.8955 23.3721 22.2615 22.0624 22.2615 20.135ZM20.7084 7.16109V4.89999C26.4397 6.30495 30.6833 11.4967 30.6833 17.6873C30.6833 23.8779 26.4397 29.0697 20.7084 30.4746V28.2136C25.2037 26.8524 28.4959 22.6595 28.4959 17.6873C28.4959 12.7151 25.2037 8.52215 20.7084 7.16109Z" fill="white"/>
</g>
<defs>
<clipPath id="clip0_8153_1393">
<rect width="35" height="35" fill="white"/>
</clipPath>
</defs>
</svg>
