<svg width="35" height="35" viewBox="0 0 35 35" fill="none" xmlns="http://www.w3.org/2000/svg">
<path d="M17.5 35C27.198 35 35 27.198 35 17.5C35 7.80203 27.198 0 17.5 0C7.80203 0 0 7.80203 0 17.5C0 27.198 7.80203 35 17.5 35Z" fill="#009393"/>
<path fill-rule="evenodd" clip-rule="evenodd" d="M17.2568 18.7508C20.2664 18.7508 22.7816 18.242 23.3963 17.5621C22.8743 16.9855 20.9865 16.5313 18.589 16.4071V17.8434C18.1598 17.8657 17.7136 17.8767 17.2564 17.8767C16.7992 17.8767 16.353 17.8657 15.9229 17.8434V16.4071C13.5263 16.5313 11.6376 16.9855 11.1156 17.5621C11.7312 18.242 14.2468 18.7508 17.2564 18.7508H17.2568ZM22.604 11.9901V13.968H18.589V15.3396C21.4091 15.4862 23.5253 16.089 23.5411 16.8105V18.3146C23.5253 19.036 21.4091 19.6376 18.589 19.7846V23.1507H15.9233V19.7846C13.1032 19.638 10.9879 19.036 10.9721 18.3146V16.8105C10.9879 16.089 13.1032 15.4862 15.9233 15.3396V13.968H11.9084V11.9901H22.6044H22.604ZM10.3295 8.84229H24.424C24.7608 8.84229 25.071 9.01947 25.239 9.30735L29.345 16.3581C29.5576 16.7238 29.4946 17.1854 29.191 17.4816L17.8886 28.5145C17.522 28.8719 16.9331 28.8719 16.5673 28.5145L5.27896 17.4965C4.96877 17.1928 4.91015 16.7182 5.13896 16.3507L9.5284 9.28547C9.69946 9.01072 10.0031 8.84272 10.3299 8.84272L10.3295 8.84229Z" fill="white"/>
</svg>
