<svg width="200" height="184" viewBox="0 0 200 184" fill="none" xmlns="http://www.w3.org/2000/svg">
<rect y="32" width="200" height="47" rx="14.3" fill="#EEEEEE"/>
<rect y="32" width="200" height="47" rx="14.3" fill="black" fill-opacity="0.2"/>
<g filter="url(#filter0_i_4656_9041)">
<rect x="3" width="194.286" height="106.29" rx="11.5784" fill="#EFEFF8"/>
<rect x="3" width="194.286" height="106.29" rx="11.5784" fill="#FFC414"/>
<rect x="3" width="194.286" height="106.29" rx="11.5784" fill="url(#paint0_linear_4656_9041)"/>
</g>
<g filter="url(#filter1_i_4656_9041)">
<rect x="2.85742" y="15" width="194.286" height="106.29" rx="11.5784" fill="#61C5FF"/>
<rect x="2.85742" y="15" width="194.286" height="106.29" rx="11.5784" fill="url(#paint1_linear_4656_9041)"/>
</g>
<g filter="url(#filter2_i_4656_9041)">
<rect x="2.85742" y="31.667" width="194.286" height="106.29" rx="11.5784" fill="#FF630F"/>
<rect x="2.85742" y="31.667" width="194.286" height="106.29" rx="11.5784" fill="url(#paint2_linear_4656_9041)"/>
</g>
<g filter="url(#filter3_ii_4656_9041)">
<path d="M185.697 50.3691C193.596 50.3691 200 56.7727 200 64.6719V169.559C200 177.458 193.596 183.861 185.697 183.861H14.3027C6.40355 183.861 0 177.458 0 169.559V64.6719C9.33284e-06 56.7727 6.40356 50.3691 14.3027 50.3691H60.2588C67.6473 50.3691 73.509 56.3793 77.5616 62.5571C82.3525 69.8605 90.6127 74.6836 100 74.6836C109.387 74.6836 117.647 69.8604 122.438 62.5571C126.49 56.3792 132.352 50.3691 139.74 50.3691H185.697Z" fill="#D9D9D9"/>
<path d="M185.697 50.3691C193.596 50.3691 200 56.7727 200 64.6719V169.559C200 177.458 193.596 183.861 185.697 183.861H14.3027C6.40355 183.861 0 177.458 0 169.559V64.6719C9.33284e-06 56.7727 6.40356 50.3691 14.3027 50.3691H60.2588C67.6473 50.3691 73.509 56.3793 77.5616 62.5571C82.3525 69.8605 90.6127 74.6836 100 74.6836C109.387 74.6836 117.647 69.8604 122.438 62.5571C126.49 56.3792 132.352 50.3691 139.74 50.3691H185.697Z" fill="url(#paint3_linear_4656_9041)"/>
<path d="M185.697 50.3691C193.596 50.3691 200 56.7727 200 64.6719V169.559C200 177.458 193.596 183.861 185.697 183.861H14.3027C6.40355 183.861 0 177.458 0 169.559V64.6719C9.33284e-06 56.7727 6.40356 50.3691 14.3027 50.3691H60.2588C67.6473 50.3691 73.509 56.3793 77.5616 62.5571C82.3525 69.8605 90.6127 74.6836 100 74.6836C109.387 74.6836 117.647 69.8604 122.438 62.5571C126.49 56.3792 132.352 50.3691 139.74 50.3691H185.697Z" fill="#EEEEEE"/>
<path d="M185.697 50.3691C193.596 50.3691 200 56.7727 200 64.6719V169.559C200 177.458 193.596 183.861 185.697 183.861H14.3027C6.40355 183.861 0 177.458 0 169.559V64.6719C9.33284e-06 56.7727 6.40356 50.3691 14.3027 50.3691H60.2588C67.6473 50.3691 73.509 56.3793 77.5616 62.5571C82.3525 69.8605 90.6127 74.6836 100 74.6836C109.387 74.6836 117.647 69.8604 122.438 62.5571C126.49 56.3792 132.352 50.3691 139.74 50.3691H185.697Z" fill="url(#paint4_linear_4656_9041)"/>
<path d="M185.697 50.3691C193.596 50.3691 200 56.7727 200 64.6719V169.559C200 177.458 193.596 183.861 185.697 183.861H14.3027C6.40355 183.861 0 177.458 0 169.559V64.6719C9.33284e-06 56.7727 6.40356 50.3691 14.3027 50.3691H60.2588C67.6473 50.3691 73.509 56.3793 77.5616 62.5571C82.3525 69.8605 90.6127 74.6836 100 74.6836C109.387 74.6836 117.647 69.8604 122.438 62.5571C126.49 56.3792 132.352 50.3691 139.74 50.3691H185.697Z" fill="url(#paint5_linear_4656_9041)"/>
</g>
<g filter="url(#filter4_ii_4656_9041)">
<path d="M179.497 141.82C179.005 142.311 178.595 142.815 178.318 143.555C178.041 144.295 177.904 145.1 177.707 146.374C177.425 148.187 176.873 148.9 176.438 149.349C175.547 150.268 174.282 150.216 172.741 149.911C171.772 149.72 171.52 149.951 170.369 150.946L164.297 156.958L164.295 166.087C164.295 166.251 164.494 166.334 164.61 166.217L182.543 148.313C182.784 148.071 182.921 147.744 182.922 147.402L182.944 138.354L179.497 141.82H179.497Z" fill="#D1D1F2"/>
<path d="M172.26 147.53C173.428 147.564 174.243 148.409 175.205 147.803C176.167 147.197 176.14 146.522 176.326 145.406C176.513 144.29 176.884 142.991 177.214 142.207C177.545 141.423 178.285 140.42 179.037 139.689L182.913 135.656L182.938 131.593C182.94 131.344 182.639 131.219 182.463 131.395L164.836 149.022C164.489 149.368 164.295 149.837 164.295 150.327V154.327L170.249 148.35C170.249 148.35 171.09 147.497 172.259 147.53H172.259H172.26Z" fill="#D1D1F2"/>
<path d="M182.943 128.262L164.295 146.961V142.968C164.295 142.478 164.489 142.009 164.836 141.663L182.467 124.031C182.642 123.856 182.943 123.98 182.943 124.228V128.262V128.262Z" fill="#D1D1F2"/>
<path d="M181.509 121.159L149.937 128.037C148.807 128.283 148 129.284 148 130.442V153.495C148 153.838 148.136 154.166 148.378 154.409L161.663 167.693C161.934 167.965 162.398 167.773 162.398 167.389L162.4 142.683C162.4 141.868 162.724 141.086 163.3 140.509L181.905 121.884C182.209 121.58 181.929 121.067 181.509 121.158V121.159Z" fill="#D1D1F2"/>
</g>
<defs>
<filter id="filter0_i_4656_9041" x="3" y="0" width="194.286" height="106.29" filterUnits="userSpaceOnUse" color-interpolation-filters="sRGB">
<feFlood flood-opacity="0" result="BackgroundImageFix"/>
<feBlend mode="normal" in="SourceGraphic" in2="BackgroundImageFix" result="shape"/>
<feColorMatrix in="SourceAlpha" type="matrix" values="0 0 0 0 0 0 0 0 0 0 0 0 0 0 0 0 0 0 127 0" result="hardAlpha"/>
<feOffset dy="2.28571"/>
<feComposite in2="hardAlpha" operator="arithmetic" k2="-1" k3="1"/>
<feColorMatrix type="matrix" values="0 0 0 0 1 0 0 0 0 0.867226 0 0 0 0 0.471154 0 0 0 1 0"/>
<feBlend mode="normal" in2="shape" result="effect1_innerShadow_4656_9041"/>
</filter>
<filter id="filter1_i_4656_9041" x="2.85742" y="15" width="194.286" height="106.29" filterUnits="userSpaceOnUse" color-interpolation-filters="sRGB">
<feFlood flood-opacity="0" result="BackgroundImageFix"/>
<feBlend mode="normal" in="SourceGraphic" in2="BackgroundImageFix" result="shape"/>
<feColorMatrix in="SourceAlpha" type="matrix" values="0 0 0 0 0 0 0 0 0 0 0 0 0 0 0 0 0 0 127 0" result="hardAlpha"/>
<feOffset dy="2.28571"/>
<feComposite in2="hardAlpha" operator="arithmetic" k2="-1" k3="1"/>
<feColorMatrix type="matrix" values="0 0 0 0 0.6 0 0 0 0 0.853165 0 0 0 0 1 0 0 0 1 0"/>
<feBlend mode="normal" in2="shape" result="effect1_innerShadow_4656_9041"/>
</filter>
<filter id="filter2_i_4656_9041" x="2.85742" y="31.667" width="194.286" height="106.29" filterUnits="userSpaceOnUse" color-interpolation-filters="sRGB">
<feFlood flood-opacity="0" result="BackgroundImageFix"/>
<feBlend mode="normal" in="SourceGraphic" in2="BackgroundImageFix" result="shape"/>
<feColorMatrix in="SourceAlpha" type="matrix" values="0 0 0 0 0 0 0 0 0 0 0 0 0 0 0 0 0 0 127 0" result="hardAlpha"/>
<feOffset dy="2.28571"/>
<feComposite in2="hardAlpha" operator="arithmetic" k2="-1" k3="1"/>
<feColorMatrix type="matrix" values="0 0 0 0 1 0 0 0 0 0.65625 0 0 0 0 0.471154 0 0 0 1 0"/>
<feBlend mode="normal" in2="shape" result="effect1_innerShadow_4656_9041"/>
</filter>
<filter id="filter3_ii_4656_9041" x="0" y="50.3691" width="200" height="133.492" filterUnits="userSpaceOnUse" color-interpolation-filters="sRGB">
<feFlood flood-opacity="0" result="BackgroundImageFix"/>
<feBlend mode="normal" in="SourceGraphic" in2="BackgroundImageFix" result="shape"/>
<feColorMatrix in="SourceAlpha" type="matrix" values="0 0 0 0 0 0 0 0 0 0 0 0 0 0 0 0 0 0 127 0" result="hardAlpha"/>
<feOffset dy="-3.42857"/>
<feComposite in2="hardAlpha" operator="arithmetic" k2="-1" k3="1"/>
<feColorMatrix type="matrix" values="0 0 0 0 0 0 0 0 0 0 0 0 0 0 0 0 0 0 0.2 0"/>
<feBlend mode="normal" in2="shape" result="effect1_innerShadow_4656_9041"/>
<feColorMatrix in="SourceAlpha" type="matrix" values="0 0 0 0 0 0 0 0 0 0 0 0 0 0 0 0 0 0 127 0" result="hardAlpha"/>
<feOffset dy="3.42857"/>
<feComposite in2="hardAlpha" operator="arithmetic" k2="-1" k3="1"/>
<feColorMatrix type="matrix" values="0 0 0 0 1 0 0 0 0 1 0 0 0 0 1 0 0 0 1 0"/>
<feBlend mode="normal" in2="effect1_innerShadow_4656_9041" result="effect2_innerShadow_4656_9041"/>
</filter>
<filter id="filter4_ii_4656_9041" x="148" y="121" width="35" height="46.9121" filterUnits="userSpaceOnUse" color-interpolation-filters="sRGB">
<feFlood flood-opacity="0" result="BackgroundImageFix"/>
<feBlend mode="normal" in="SourceGraphic" in2="BackgroundImageFix" result="shape"/>
<feColorMatrix in="SourceAlpha" type="matrix" values="0 0 0 0 0 0 0 0 0 0 0 0 0 0 0 0 0 0 127 0" result="hardAlpha"/>
<feOffset dy="1"/>
<feComposite in2="hardAlpha" operator="arithmetic" k2="-1" k3="1"/>
<feColorMatrix type="matrix" values="0 0 0 0 1 0 0 0 0 1 0 0 0 0 1 0 0 0 1 0"/>
<feBlend mode="normal" in2="shape" result="effect1_innerShadow_4656_9041"/>
<feColorMatrix in="SourceAlpha" type="matrix" values="0 0 0 0 0 0 0 0 0 0 0 0 0 0 0 0 0 0 127 0" result="hardAlpha"/>
<feOffset dy="-1"/>
<feComposite in2="hardAlpha" operator="arithmetic" k2="-1" k3="1"/>
<feColorMatrix type="matrix" values="0 0 0 0 0 0 0 0 0 0 0 0 0 0 0 0 0 0 0.1 0"/>
<feBlend mode="normal" in2="effect1_innerShadow_4656_9041" result="effect2_innerShadow_4656_9041"/>
</filter>
<linearGradient id="paint0_linear_4656_9041" x1="29" y1="5" x2="215" y2="93.5" gradientUnits="userSpaceOnUse">
<stop offset="0.354229" stop-color="#FFC414"/>
<stop offset="1" stop-color="#FF9447" stop-opacity="0.5"/>
</linearGradient>
<linearGradient id="paint1_linear_4656_9041" x1="58" y1="21.5" x2="214.5" y2="147.5" gradientUnits="userSpaceOnUse">
<stop offset="0.127555" stop-color="#61C5FF"/>
<stop offset="1" stop-color="#2A92FA" stop-opacity="0.5"/>
</linearGradient>
<linearGradient id="paint2_linear_4656_9041" x1="54" y1="33.5" x2="225" y2="204.5" gradientUnits="userSpaceOnUse">
<stop stop-color="#FE6412"/>
<stop offset="1" stop-color="#EB4600" stop-opacity="0.5"/>
</linearGradient>
<linearGradient id="paint3_linear_4656_9041" x1="100" y1="56.0902" x2="196.106" y2="204.958" gradientUnits="userSpaceOnUse">
<stop stop-color="white"/>
<stop offset="1" stop-color="#EFEFF8"/>
</linearGradient>
<linearGradient id="paint4_linear_4656_9041" x1="-12" y1="94.5" x2="171" y2="180" gradientUnits="userSpaceOnUse">
<stop stop-color="#EEEEEE"/>
<stop offset="1" stop-color="#EFEFF8"/>
</linearGradient>
<linearGradient id="paint5_linear_4656_9041" x1="-12" y1="94.5" x2="171" y2="180" gradientUnits="userSpaceOnUse">
<stop stop-color="#EFEFF8"/>
<stop offset="1" stop-color="#E5E5FF"/>
</linearGradient>
</defs>
</svg>
