<svg width="170" height="180" viewBox="0 0 170 180" fill="none" xmlns="http://www.w3.org/2000/svg">
<rect x="0.899902" y="45.8809" width="159.454" height="37.4718" rx="11.401" fill="#EFEFF8"/>
<rect x="0.899902" y="45.8809" width="159.454" height="37.4718" rx="11.401" fill="black" fill-opacity="0.1"/>
<g filter="url(#filter0_ii_5098_11600)">
<circle cx="47.5403" cy="33.884" r="33.884" fill="#D9D9D9"/>
<circle cx="47.5403" cy="33.884" r="33.884" fill="#61C5FF"/>
</g>
<g filter="url(#filter1_i_5098_11600)">
<circle cx="47.5397" cy="33.884" r="25.9113" fill="#61C5FF"/>
</g>
<circle cx="47.5397" cy="33.884" r="24.3168" stroke="black" stroke-opacity="0.05" stroke-width="3.18909"/>
<path d="M45.1863 40.4066L46.9848 33.6345L51.2428 32.0789L52.3019 28.0989L52.2658 28.0002L48.0744 29.5314L51.0943 18.1602H42.5297L38.5804 32.9999L35.2829 34.2045L34.1934 38.3076L37.4883 37.104L35.1606 45.8497H57.9544L59.4157 40.4066H45.1863Z" fill="url(#paint0_linear_5098_11600)"/>
<g filter="url(#filter2_ii_5098_11600)">
<circle cx="116.903" cy="37.9182" r="33.884" fill="#D9D9D9"/>
<circle cx="116.903" cy="37.9182" r="33.884" fill="#FF630F"/>
</g>
<g filter="url(#filter3_i_5098_11600)">
<circle cx="116.903" cy="37.9182" r="24.3168" stroke="black" stroke-opacity="0.05" stroke-width="3.18909"/>
</g>
<path d="M131.84 43.4443H138.997C135.831 52.9613 126.858 59.825 116.277 59.8252C105.697 59.8252 96.7205 52.9616 93.5547 43.4443H100.714V23.2998L116.277 38.8623L131.84 23.2998V43.4443ZM116.276 46.0156L105.906 35.6455V48.3213H95.8174C100.02 55.2167 107.612 59.8213 116.276 59.8213C124.941 59.8213 132.533 55.2167 136.735 48.3213H126.646V35.6455L116.276 46.0156ZM139.214 42.7627C139.162 42.9345 139.108 43.1052 139.053 43.2754C139.108 43.1051 139.162 42.9344 139.214 42.7627ZM92.3848 34.3438C92.3518 34.8523 92.334 35.3652 92.334 35.8818V35.8809C92.334 35.3641 92.3517 34.8513 92.3848 34.3428V34.3438ZM116.276 9.27734C129.46 9.27734 140.402 18.8675 142.511 31.4521C140.401 18.8687 129.46 9.27947 116.277 9.2793C102.963 9.2793 91.9326 19.0604 89.9805 31.8291C91.9316 19.0595 102.961 9.27755 116.276 9.27734ZM138.748 27.6045C138.821 27.803 138.894 28.0022 138.962 28.2031C138.894 28.0022 138.821 27.803 138.748 27.6045ZM138.472 26.8887C138.548 27.0757 138.621 27.2638 138.692 27.4531C138.621 27.2638 138.548 27.0757 138.472 26.8887ZM138.188 26.2168C138.263 26.3879 138.337 26.5602 138.408 26.7334C138.336 26.5602 138.263 26.3879 138.188 26.2168ZM94.4502 26.0283L94.2158 26.5625C94.2915 26.3836 94.3694 26.2059 94.4492 26.0293L94.6953 25.502C94.6114 25.6761 94.53 25.8518 94.4502 26.0283ZM137.869 25.5254C137.963 25.7199 138.053 25.9159 138.142 26.1133C138.053 25.9159 137.963 25.7199 137.869 25.5254ZM137.601 24.9824C137.681 25.1388 137.758 25.2967 137.835 25.4551L137.601 24.9824ZM136.754 23.4668L137.048 23.9648C136.918 23.7397 136.784 23.5172 136.647 23.2969C136.683 23.3536 136.719 23.4097 136.754 23.4668ZM136.227 22.6406C136.367 22.8515 136.504 23.065 136.638 23.2803C136.504 23.0649 136.367 22.8515 136.227 22.6406ZM134.765 20.6699C135.017 20.9758 135.261 21.2881 135.498 21.6064L135.137 21.1338L134.765 20.6699ZM132.74 18.5L133.166 18.9141C133.026 18.7746 132.884 18.637 132.74 18.501L132.305 18.0977C132.452 18.23 132.597 18.3641 132.74 18.5ZM108.952 13.082C109.042 13.0531 109.132 13.0249 109.222 12.9971C109.132 13.0249 109.042 13.0532 108.952 13.082ZM109.539 12.9023C109.6 12.8844 109.661 12.8651 109.723 12.8477L109.787 12.8301C109.704 12.8534 109.622 12.8781 109.539 12.9023ZM116.896 11.9473C117.113 11.9528 117.329 11.9614 117.545 11.9727C117.329 11.9614 117.112 11.9528 116.895 11.9473L116.277 11.9395L116.896 11.9473Z" fill="url(#paint1_linear_5098_11600)"/>
<g filter="url(#filter4_ii_5098_11600)">
<circle cx="96.9714" cy="64.3411" r="33.884" fill="#D9D9D9"/>
<circle cx="96.9714" cy="64.3411" r="33.884" fill="#FFC414"/>
</g>
<g filter="url(#filter5_i_5098_11600)">
<circle cx="96.9714" cy="64.341" r="25.9113" fill="#FFC414"/>
</g>
<circle cx="96.9714" cy="64.341" r="24.3168" stroke="black" stroke-opacity="0.05" stroke-width="3.18909"/>
<path d="M109.787 60.4319C110.375 56.5028 107.383 54.3907 103.293 52.9816L104.62 47.6592L101.38 46.8518L100.088 52.034C99.2363 51.8217 98.3615 51.6215 97.4923 51.4231L98.7934 46.2068L95.5555 45.3994L94.2276 50.72C93.5226 50.5594 92.8306 50.4007 92.1588 50.2337L92.1625 50.2171L87.6946 49.1015L86.8327 52.5618C86.8327 52.5618 89.2365 53.1127 89.1857 53.1468C90.4979 53.4744 90.735 54.3427 90.6953 55.0311L89.1839 61.0944C89.2743 61.1175 89.3915 61.1507 89.5207 61.2024C89.4127 61.1756 89.2974 61.1461 89.1783 61.1175L87.0597 69.6114C86.8992 70.01 86.4922 70.608 85.575 70.381C85.6073 70.428 83.2202 69.7932 83.2202 69.7932L81.6118 73.5017L85.8278 74.5527C86.6122 74.7492 87.3808 74.955 88.1375 75.1488L86.7967 80.5321L90.0328 81.3395L91.3606 76.0134C92.2446 76.2533 93.1028 76.4748 93.9425 76.6833L92.6193 81.9845L95.859 82.7919L97.1998 77.4188C102.724 78.4642 106.878 78.0425 108.627 73.0459C110.036 69.0227 108.557 66.702 105.65 65.1887C107.767 64.7005 109.362 63.3081 109.787 60.4319ZM102.385 70.8119C101.384 74.8351 94.6096 72.6601 92.4135 72.1148L94.1926 64.9829C96.3887 65.531 103.431 66.6161 102.385 70.8119ZM103.387 60.3738C102.473 64.0334 96.8353 62.174 95.0064 61.7182L96.6194 55.2497C98.4483 55.7056 104.338 56.5564 103.387 60.3738Z" fill="url(#paint2_linear_5098_11600)"/>
<path d="M48.9429 60.5293C54.8334 60.5293 59.5069 65.3206 62.7378 70.2461C66.5572 76.0689 73.1424 79.9149 80.6265 79.915C88.1107 79.915 94.6965 76.069 98.5161 70.2461C101.747 65.3207 106.421 60.5294 112.311 60.5293H148.951C155.248 60.5293 160.354 65.6348 160.354 71.9326V129.705C155.414 126.009 149.281 123.821 142.637 123.821C126.289 123.822 113.035 137.075 113.035 153.424C113.035 158.301 114.216 162.902 116.305 166.959H12.3032C6.00563 166.959 0.900153 161.853 0.899902 155.556V71.9326C0.899902 65.6349 6.00547 60.5293 12.3032 60.5293H48.9429ZM143.324 126.856C143.662 126.865 143.999 126.882 144.334 126.903C143.999 126.882 143.662 126.865 143.323 126.856L142.637 126.848L143.324 126.856Z" fill="white"/>
<mask id="mask0_5098_11600" style="mask-type:alpha" maskUnits="userSpaceOnUse" x="0" y="60" width="161" height="107">
<path d="M48.9429 60.5303C54.8334 60.5303 59.5069 65.3216 62.7378 70.2471C66.5572 76.0699 73.1424 79.9159 80.6265 79.916C88.1107 79.916 94.6965 76.07 98.5161 70.2471C101.747 65.3217 106.421 60.5304 112.311 60.5303H148.951C155.248 60.5303 160.354 65.6358 160.354 71.9336V129.706C155.414 126.01 149.281 123.822 142.637 123.822C126.289 123.823 113.035 137.076 113.035 153.425C113.035 158.302 114.216 162.903 116.305 166.96H12.3032C6.00561 166.96 0.900123 161.854 0.899902 155.557V71.9336C0.899902 65.6358 6.00547 60.5303 12.3032 60.5303H48.9429ZM143.324 126.857C143.561 126.863 143.799 126.873 144.035 126.886L143.323 126.857L142.637 126.849L143.324 126.857Z" fill="url(#paint3_linear_5098_11600)"/>
</mask>
<g mask="url(#mask0_5098_11600)">
<path d="M148.951 63.5596C155.248 63.5596 160.354 68.6651 160.354 74.9629V158.586C160.354 164.884 155.248 169.989 148.951 169.989H12.3032C6.00543 169.989 0.899912 164.884 0.899902 158.586V74.9629C0.899902 68.6651 6.00543 63.5596 12.3032 63.5596H48.9427C54.8334 63.5596 59.5068 68.3514 62.7377 73.277C66.5571 79.0998 73.1423 82.9452 80.6265 82.9453C88.1108 82.9453 94.6964 79.0999 98.5161 73.277C101.747 68.3514 106.421 63.5596 112.311 63.5596H148.951Z" fill="url(#paint4_linear_5098_11600)"/>
<mask id="mask1_5098_11600" style="mask-type:alpha" maskUnits="userSpaceOnUse" x="0" y="63" width="161" height="107">
<path d="M148.951 63.5596C155.248 63.5596 160.354 68.6651 160.354 74.9629V158.586C160.354 164.884 155.248 169.989 148.951 169.989H12.3032C6.00543 169.989 0.899912 164.884 0.899902 158.586V74.9629C0.899902 68.6651 6.00543 63.5596 12.3032 63.5596H48.9427C54.8334 63.5596 59.5068 68.3514 62.7377 73.277C66.5571 79.0998 73.1423 82.9452 80.6265 82.9453C88.1108 82.9453 94.6964 79.0999 98.5161 73.277C101.747 68.3514 106.421 63.5596 112.311 63.5596H148.951Z" fill="url(#paint5_linear_5098_11600)"/>
<path d="M148.951 63.5596C155.248 63.5596 160.354 68.6651 160.354 74.9629V158.586C160.354 164.884 155.248 169.989 148.951 169.989H12.3032C6.00543 169.989 0.899912 164.884 0.899902 158.586V74.9629C0.899902 68.6651 6.00543 63.5596 12.3032 63.5596H48.9427C54.8334 63.5596 59.5068 68.3514 62.7377 73.277C66.5571 79.0998 73.1423 82.9452 80.6265 82.9453C88.1108 82.9453 94.6964 79.0999 98.5161 73.277C101.747 68.3514 106.421 63.5596 112.311 63.5596H148.951Z" fill="url(#paint6_linear_5098_11600)"/>
</mask>
<g mask="url(#mask1_5098_11600)">
<path d="M148.447 55.4893C154.744 55.4893 159.85 60.5949 159.85 66.8926V150.516C159.85 156.813 154.745 161.919 148.447 161.919H11.7993C5.50152 161.919 0.395996 156.813 0.395996 150.516V66.8926C0.396119 60.5949 5.5016 55.4893 11.7993 55.4893H48.4376C54.3284 55.4893 59.0019 60.2812 62.2327 65.207C66.052 71.0301 72.6374 74.8758 80.1216 74.876C87.606 74.876 94.1918 71.0302 98.0113 65.2069C101.242 60.2812 105.916 55.4893 111.807 55.4893H148.447Z" fill="url(#paint7_linear_5098_11600)"/>
<path d="M148.447 55.4893C154.744 55.4893 159.85 60.5949 159.85 66.8926V150.516C159.85 156.813 154.745 161.919 148.447 161.919H11.7993C5.50152 161.919 0.395996 156.813 0.395996 150.516V66.8926C0.396119 60.5949 5.5016 55.4893 11.7993 55.4893H48.4376C54.3284 55.4893 59.0019 60.2812 62.2327 65.207C66.052 71.0301 72.6374 74.8758 80.1216 74.876C87.606 74.876 94.1918 71.0302 98.0113 65.2069C101.242 60.2812 105.916 55.4893 111.807 55.4893H148.447Z" fill="#7272FF"/>
<path d="M148.447 55.4893C154.744 55.4893 159.85 60.5949 159.85 66.8926V150.516C159.85 156.813 154.745 161.919 148.447 161.919H11.7993C5.50152 161.919 0.395996 156.813 0.395996 150.516V66.8926C0.396119 60.5949 5.5016 55.4893 11.7993 55.4893H48.4376C54.3284 55.4893 59.0019 60.2812 62.2327 65.207C66.052 71.0301 72.6374 74.8758 80.1216 74.876C87.606 74.876 94.1918 71.0302 98.0113 65.2069C101.242 60.2812 105.916 55.4893 111.807 55.4893H148.447Z" fill="url(#paint8_linear_5098_11600)"/>
</g>
<path d="M142.489 119.899C161.155 119.899 176.287 135.031 176.287 153.697C176.287 172.363 161.155 187.495 142.489 187.495C123.823 187.495 108.691 172.363 108.691 153.697C108.691 135.031 123.823 119.899 142.489 119.899Z" stroke="#312938" stroke-opacity="0.3" stroke-width="2.01779"/>
<path d="M142.489 115.154C163.776 115.154 181.032 132.41 181.032 153.696C181.032 174.983 163.776 192.239 142.489 192.239C121.203 192.239 103.947 174.983 103.947 153.696C103.948 132.41 121.203 115.155 142.489 115.154Z" stroke="#312938" stroke-opacity="0.15" stroke-width="1.41876"/>
<path d="M142.49 110.314C166.449 110.314 185.873 129.738 185.873 153.697C185.873 177.657 166.449 197.08 142.49 197.08C118.53 197.08 99.1069 177.657 99.1069 153.697C99.1069 129.738 118.53 110.314 142.49 110.314Z" stroke="#312938" stroke-opacity="0.08" stroke-width="1.00889"/>
</g>
<path d="M142.638 127.733C156.826 127.734 168.327 139.236 168.327 153.424C168.327 167.612 156.825 179.113 142.638 179.113C128.45 179.113 116.948 167.612 116.947 153.424C116.947 139.236 128.45 127.733 142.638 127.733Z" fill="#61C5FF"/>
<path d="M142.638 127.733C156.826 127.734 168.327 139.236 168.327 153.424C168.327 167.612 156.825 179.113 142.638 179.113C128.45 179.113 116.948 167.612 116.947 153.424C116.947 139.236 128.45 127.733 142.638 127.733Z" fill="url(#paint9_linear_5098_11600)"/>
<path d="M142.638 127.733C156.826 127.734 168.327 139.236 168.327 153.424C168.327 167.612 156.825 179.113 142.638 179.113C128.45 179.113 116.948 167.612 116.947 153.424C116.947 139.236 128.45 127.733 142.638 127.733Z" stroke="url(#paint10_linear_5098_11600)" stroke-width="1.77171"/>
<path d="M140.866 167.599V155.197H128.463C127.485 155.197 126.692 154.404 126.692 153.426C126.692 152.447 127.485 151.654 128.463 151.654H140.866V139.252C140.866 138.273 141.659 137.48 142.637 137.48C143.616 137.48 144.409 138.273 144.409 139.252V151.654H156.811L156.992 151.663C157.885 151.754 158.582 152.508 158.582 153.426C158.582 154.343 157.885 155.097 156.992 155.188L156.811 155.197H144.409V167.599C144.409 168.578 143.616 169.371 142.637 169.371C141.659 169.371 140.866 168.578 140.866 167.599Z" fill="black"/>
<path d="M140.866 167.599V155.197H128.463C127.485 155.197 126.692 154.404 126.692 153.426C126.692 152.447 127.485 151.654 128.463 151.654H140.866V139.252C140.866 138.273 141.659 137.48 142.637 137.48C143.616 137.48 144.409 138.273 144.409 139.252V151.654H156.811L156.992 151.663C157.885 151.754 158.582 152.508 158.582 153.426C158.582 154.343 157.885 155.097 156.992 155.188L156.811 155.197H144.409V167.599C144.409 168.578 143.616 169.371 142.637 169.371C141.659 169.371 140.866 168.578 140.866 167.599Z" fill="url(#paint11_linear_5098_11600)"/>
<defs>
<filter id="filter0_ii_5098_11600" x="13.6562" y="0" width="67.7681" height="67.7686" filterUnits="userSpaceOnUse" color-interpolation-filters="sRGB">
<feFlood flood-opacity="0" result="BackgroundImageFix"/>
<feBlend mode="normal" in="SourceGraphic" in2="BackgroundImageFix" result="shape"/>
<feColorMatrix in="SourceAlpha" type="matrix" values="0 0 0 0 0 0 0 0 0 0 0 0 0 0 0 0 0 0 127 0" result="hardAlpha"/>
<feOffset dy="-3.18909"/>
<feComposite in2="hardAlpha" operator="arithmetic" k2="-1" k3="1"/>
<feColorMatrix type="matrix" values="0 0 0 0 0 0 0 0 0 0 0 0 0 0 0 0 0 0 0.25 0"/>
<feBlend mode="normal" in2="shape" result="effect1_innerShadow_5098_11600"/>
<feColorMatrix in="SourceAlpha" type="matrix" values="0 0 0 0 0 0 0 0 0 0 0 0 0 0 0 0 0 0 127 0" result="hardAlpha"/>
<feOffset dy="3.18909"/>
<feComposite in2="hardAlpha" operator="arithmetic" k2="-1" k3="1"/>
<feColorMatrix type="matrix" values="0 0 0 0 1 0 0 0 0 1 0 0 0 0 1 0 0 0 0.5 0"/>
<feBlend mode="normal" in2="effect1_innerShadow_5098_11600" result="effect2_innerShadow_5098_11600"/>
</filter>
<filter id="filter1_i_5098_11600" x="21.6284" y="7.97266" width="51.8228" height="53.4168" filterUnits="userSpaceOnUse" color-interpolation-filters="sRGB">
<feFlood flood-opacity="0" result="BackgroundImageFix"/>
<feBlend mode="normal" in="SourceGraphic" in2="BackgroundImageFix" result="shape"/>
<feColorMatrix in="SourceAlpha" type="matrix" values="0 0 0 0 0 0 0 0 0 0 0 0 0 0 0 0 0 0 127 0" result="hardAlpha"/>
<feOffset dy="1.59454"/>
<feGaussianBlur stdDeviation="1.59454"/>
<feComposite in2="hardAlpha" operator="arithmetic" k2="-1" k3="1"/>
<feColorMatrix type="matrix" values="0 0 0 0 0 0 0 0 0 0 0 0 0 0 0 0 0 0 0.2 0"/>
<feBlend mode="normal" in2="shape" result="effect1_innerShadow_5098_11600"/>
</filter>
<filter id="filter2_ii_5098_11600" x="83.019" y="4.03418" width="67.7681" height="67.7686" filterUnits="userSpaceOnUse" color-interpolation-filters="sRGB">
<feFlood flood-opacity="0" result="BackgroundImageFix"/>
<feBlend mode="normal" in="SourceGraphic" in2="BackgroundImageFix" result="shape"/>
<feColorMatrix in="SourceAlpha" type="matrix" values="0 0 0 0 0 0 0 0 0 0 0 0 0 0 0 0 0 0 127 0" result="hardAlpha"/>
<feOffset dy="-3.18909"/>
<feComposite in2="hardAlpha" operator="arithmetic" k2="-1" k3="1"/>
<feColorMatrix type="matrix" values="0 0 0 0 0 0 0 0 0 0 0 0 0 0 0 0 0 0 0.25 0"/>
<feBlend mode="normal" in2="shape" result="effect1_innerShadow_5098_11600"/>
<feColorMatrix in="SourceAlpha" type="matrix" values="0 0 0 0 0 0 0 0 0 0 0 0 0 0 0 0 0 0 127 0" result="hardAlpha"/>
<feOffset dy="3.18909"/>
<feComposite in2="hardAlpha" operator="arithmetic" k2="-1" k3="1"/>
<feColorMatrix type="matrix" values="0 0 0 0 1 0 0 0 0 1 0 0 0 0 1 0 0 0 0.5 0"/>
<feBlend mode="normal" in2="effect1_innerShadow_5098_11600" result="effect2_innerShadow_5098_11600"/>
</filter>
<filter id="filter3_i_5098_11600" x="90.9912" y="12.0068" width="51.8228" height="53.4168" filterUnits="userSpaceOnUse" color-interpolation-filters="sRGB">
<feFlood flood-opacity="0" result="BackgroundImageFix"/>
<feBlend mode="normal" in="SourceGraphic" in2="BackgroundImageFix" result="shape"/>
<feColorMatrix in="SourceAlpha" type="matrix" values="0 0 0 0 0 0 0 0 0 0 0 0 0 0 0 0 0 0 127 0" result="hardAlpha"/>
<feOffset dy="1.59454"/>
<feGaussianBlur stdDeviation="1.59454"/>
<feComposite in2="hardAlpha" operator="arithmetic" k2="-1" k3="1"/>
<feColorMatrix type="matrix" values="0 0 0 0 0 0 0 0 0 0 0 0 0 0 0 0 0 0 0.2 0"/>
<feBlend mode="normal" in2="shape" result="effect1_innerShadow_5098_11600"/>
</filter>
<filter id="filter4_ii_5098_11600" x="63.0874" y="30.457" width="67.7681" height="67.7686" filterUnits="userSpaceOnUse" color-interpolation-filters="sRGB">
<feFlood flood-opacity="0" result="BackgroundImageFix"/>
<feBlend mode="normal" in="SourceGraphic" in2="BackgroundImageFix" result="shape"/>
<feColorMatrix in="SourceAlpha" type="matrix" values="0 0 0 0 0 0 0 0 0 0 0 0 0 0 0 0 0 0 127 0" result="hardAlpha"/>
<feOffset dy="-3.18909"/>
<feComposite in2="hardAlpha" operator="arithmetic" k2="-1" k3="1"/>
<feColorMatrix type="matrix" values="0 0 0 0 0 0 0 0 0 0 0 0 0 0 0 0 0 0 0.25 0"/>
<feBlend mode="normal" in2="shape" result="effect1_innerShadow_5098_11600"/>
<feColorMatrix in="SourceAlpha" type="matrix" values="0 0 0 0 0 0 0 0 0 0 0 0 0 0 0 0 0 0 127 0" result="hardAlpha"/>
<feOffset dy="3.18909"/>
<feComposite in2="hardAlpha" operator="arithmetic" k2="-1" k3="1"/>
<feColorMatrix type="matrix" values="0 0 0 0 1 0 0 0 0 1 0 0 0 0 1 0 0 0 0.5 0"/>
<feBlend mode="normal" in2="effect1_innerShadow_5098_11600" result="effect2_innerShadow_5098_11600"/>
</filter>
<filter id="filter5_i_5098_11600" x="71.0601" y="38.4297" width="51.8228" height="53.4168" filterUnits="userSpaceOnUse" color-interpolation-filters="sRGB">
<feFlood flood-opacity="0" result="BackgroundImageFix"/>
<feBlend mode="normal" in="SourceGraphic" in2="BackgroundImageFix" result="shape"/>
<feColorMatrix in="SourceAlpha" type="matrix" values="0 0 0 0 0 0 0 0 0 0 0 0 0 0 0 0 0 0 127 0" result="hardAlpha"/>
<feOffset dy="1.59454"/>
<feGaussianBlur stdDeviation="1.59454"/>
<feComposite in2="hardAlpha" operator="arithmetic" k2="-1" k3="1"/>
<feColorMatrix type="matrix" values="0 0 0 0 0 0 0 0 0 0 0 0 0 0 0 0 0 0 0.2 0"/>
<feBlend mode="normal" in2="shape" result="effect1_innerShadow_5098_11600"/>
</filter>
<linearGradient id="paint0_linear_5098_11600" x1="46.8045" y1="18.1602" x2="54.3712" y2="51.9581" gradientUnits="userSpaceOnUse">
<stop stop-color="white"/>
<stop offset="1" stop-color="white" stop-opacity="0"/>
</linearGradient>
<linearGradient id="paint1_linear_5098_11600" x1="116.246" y1="9.27734" x2="128.489" y2="71.6661" gradientUnits="userSpaceOnUse">
<stop stop-color="white"/>
<stop offset="1" stop-color="white" stop-opacity="0"/>
</linearGradient>
<linearGradient id="paint2_linear_5098_11600" x1="95.7363" y1="45.3994" x2="107.796" y2="90.0731" gradientUnits="userSpaceOnUse">
<stop stop-color="white"/>
<stop offset="1" stop-color="white" stop-opacity="0"/>
</linearGradient>
<linearGradient id="paint3_linear_5098_11600" x1="-8.66734" y1="95.7147" x2="137.233" y2="163.881" gradientUnits="userSpaceOnUse">
<stop stop-color="#EFEFF8"/>
<stop offset="1" stop-color="#E5E5FF"/>
</linearGradient>
<linearGradient id="paint4_linear_5098_11600" x1="136.091" y1="117.031" x2="0.899902" y2="116.774" gradientUnits="userSpaceOnUse">
<stop stop-color="#E7E7FE"/>
<stop offset="0.852224" stop-color="#BABACB"/>
</linearGradient>
<linearGradient id="paint5_linear_5098_11600" x1="-8.66734" y1="98.7439" x2="137.233" y2="166.91" gradientUnits="userSpaceOnUse">
<stop stop-color="#EFEFF8"/>
<stop offset="1" stop-color="#E5E5FF"/>
</linearGradient>
<linearGradient id="paint6_linear_5098_11600" x1="-8.66734" y1="98.744" x2="137.233" y2="166.91" gradientUnits="userSpaceOnUse">
<stop stop-color="#EFEFF8"/>
<stop offset="1" stop-color="#E5E5FF"/>
</linearGradient>
<linearGradient id="paint7_linear_5098_11600" x1="-9.17125" y1="90.6736" x2="136.729" y2="158.84" gradientUnits="userSpaceOnUse">
<stop stop-color="#EFEFF8"/>
<stop offset="1" stop-color="#E5E5FF"/>
</linearGradient>
<linearGradient id="paint8_linear_5098_11600" x1="-9.17125" y1="90.6736" x2="136.729" y2="158.84" gradientUnits="userSpaceOnUse">
<stop stop-color="#EFEFF8"/>
<stop offset="1" stop-color="#E5E5FF"/>
</linearGradient>
<linearGradient id="paint9_linear_5098_11600" x1="131.147" y1="130.098" x2="190.248" y2="156.13" gradientUnits="userSpaceOnUse">
<stop offset="0.127555" stop-color="#61C5FF"/>
<stop offset="1" stop-color="#2A92FA"/>
</linearGradient>
<linearGradient id="paint10_linear_5098_11600" x1="178.072" y1="170.698" x2="116.062" y2="124.19" gradientUnits="userSpaceOnUse">
<stop stop-color="#44A0FD"/>
<stop offset="1" stop-color="#B2E3FF"/>
</linearGradient>
<linearGradient id="paint11_linear_5098_11600" x1="142.637" y1="139.252" x2="142.637" y2="167.599" gradientUnits="userSpaceOnUse">
<stop stop-color="white"/>
<stop offset="1" stop-color="#BDE4FF"/>
</linearGradient>
</defs>
</svg>
