<svg width="190" height="216" viewBox="0 0 190 216" fill="none" xmlns="http://www.w3.org/2000/svg">
<rect y="70.9463" width="190" height="44.65" rx="13.585" fill="#291F32"/>
<g filter="url(#filter0_dii_5093_13382)">
<circle cx="55.575" cy="41.0215" r="40.375" fill="#D9D9D9"/>
<circle cx="55.575" cy="41.0215" r="40.375" fill="#61C5FF"/>
</g>
<g filter="url(#filter1_i_5093_13382)">
<circle cx="55.575" cy="41.0215" r="30.875" fill="#61C5FF"/>
</g>
<circle cx="55.575" cy="41.0215" r="28.975" stroke="black" stroke-opacity="0.05" stroke-width="3.8"/>
<g filter="url(#filter2_ii_5093_13382)">
<circle cx="138.225" cy="60.0215" r="40.375" fill="#D9D9D9"/>
<circle cx="138.225" cy="60.0215" r="40.375" fill="#FF630F"/>
</g>
<g filter="url(#filter3_i_5093_13382)">
<circle cx="138.225" cy="60.0215" r="28.975" stroke="black" stroke-opacity="0.05" stroke-width="3.8"/>
</g>
<g filter="url(#filter4_ii_5093_13382)">
<circle cx="114.475" cy="80.9209" r="40.375" fill="#D9D9D9"/>
<circle cx="114.475" cy="80.9209" r="40.375" fill="#FFC414"/>
</g>
<g filter="url(#filter5_i_5093_13382)">
<circle cx="114.475" cy="80.9209" r="30.875" fill="#FFC414"/>
</g>
<circle cx="114.475" cy="80.9209" r="28.975" stroke="black" stroke-opacity="0.05" stroke-width="3.8"/>
<g filter="url(#filter6_ii_5093_13382)">
<path d="M176.412 88.397C183.916 88.397 190 94.4806 190 101.985V201.627C190 209.131 183.916 215.214 176.412 215.214H13.5879C6.08381 215.214 0.000227823 209.131 0 201.627V101.985C0 94.4806 6.08367 88.397 13.5879 88.397H57.247C64.2659 88.397 69.8345 94.1064 73.6843 99.9753C78.2354 106.914 86.0822 111.496 95 111.496C103.918 111.496 111.765 106.913 116.316 99.9753C120.165 94.1064 125.734 88.397 132.753 88.397H176.412Z" fill="#D9D9D9"/>
<path d="M176.412 88.397C183.916 88.397 190 94.4806 190 101.985V201.627C190 209.131 183.916 215.214 176.412 215.214H13.5879C6.08381 215.214 0.000227823 209.131 0 201.627V101.985C0 94.4806 6.08367 88.397 13.5879 88.397H57.247C64.2659 88.397 69.8345 94.1064 73.6843 99.9753C78.2354 106.914 86.0822 111.496 95 111.496C103.918 111.496 111.765 106.913 116.316 99.9753C120.165 94.1064 125.734 88.397 132.753 88.397H176.412Z" fill="url(#paint0_linear_5093_13382)"/>
<path d="M176.412 88.397C183.916 88.397 190 94.4806 190 101.985V201.627C190 209.131 183.916 215.214 176.412 215.214H13.5879C6.08381 215.214 0.000227823 209.131 0 201.627V101.985C0 94.4806 6.08367 88.397 13.5879 88.397H57.247C64.2659 88.397 69.8345 94.1064 73.6843 99.9753C78.2354 106.914 86.0822 111.496 95 111.496C103.918 111.496 111.765 106.913 116.316 99.9753C120.165 94.1064 125.734 88.397 132.753 88.397H176.412Z" fill="#312938"/>
<path d="M176.412 88.397C183.916 88.397 190 94.4806 190 101.985V201.627C190 209.131 183.916 215.214 176.412 215.214H13.5879C6.08381 215.214 0.000227823 209.131 0 201.627V101.985C0 94.4806 6.08367 88.397 13.5879 88.397H57.247C64.2659 88.397 69.8345 94.1064 73.6843 99.9753C78.2354 106.914 86.0822 111.496 95 111.496C103.918 111.496 111.765 106.913 116.316 99.9753C120.165 94.1064 125.734 88.397 132.753 88.397H176.412Z" fill="#312938"/>
<path d="M176.412 88.397C183.916 88.397 190 94.4806 190 101.985V201.627C190 209.131 183.916 215.214 176.412 215.214H13.5879C6.08381 215.214 0.000227823 209.131 0 201.627V101.985C0 94.4806 6.08367 88.397 13.5879 88.397H57.247C64.2659 88.397 69.8345 94.1064 73.6843 99.9753C78.2354 106.914 86.0822 111.496 95 111.496C103.918 111.496 111.765 106.913 116.316 99.9753C120.165 94.1064 125.734 88.397 132.753 88.397H176.412Z" fill="url(#paint1_linear_5093_13382)"/>
</g>
<g filter="url(#filter7_ii_5093_13382)">
<path d="M170.521 175.275C170.054 175.741 169.664 176.22 169.401 176.924C169.138 177.627 169.008 178.391 168.821 179.601C168.553 181.324 168.029 182.001 167.615 182.428C166.769 183.3 165.568 183.251 164.103 182.962C163.183 182.78 162.944 182.999 161.85 183.944L156.082 189.657L156.08 198.329C156.08 198.485 156.268 198.563 156.379 198.453L173.415 181.443C173.645 181.214 173.774 180.903 173.775 180.578L173.797 171.983L170.522 175.275H170.521Z" fill="#473E4F"/>
<path d="M163.647 180.701C164.757 180.733 165.531 181.535 166.445 180.96C167.359 180.385 167.333 179.743 167.51 178.683C167.688 177.622 168.04 176.388 168.354 175.644C168.668 174.899 169.371 173.946 170.086 173.252L173.768 169.421L173.792 165.561C173.793 165.324 173.507 165.205 173.34 165.372L156.594 182.118C156.265 182.447 156.081 182.893 156.081 183.357V187.158L161.737 181.48C161.737 181.48 162.536 180.669 163.646 180.701H163.647H163.647Z" fill="#473E4F"/>
<path d="M173.796 162.396L156.081 180.16V176.367C156.081 175.902 156.265 175.456 156.594 175.127L173.344 158.377C173.511 158.21 173.796 158.328 173.796 158.564V162.396V162.396Z" fill="#473E4F"/>
<path d="M172.434 155.647L142.44 162.182C141.366 162.415 140.6 163.366 140.6 164.466V186.367C140.6 186.692 140.729 187.004 140.96 187.235L153.58 199.855C153.838 200.113 154.278 199.93 154.278 199.566L154.28 176.095C154.28 175.32 154.588 174.577 155.135 174.03L172.81 156.335C173.099 156.047 172.832 155.56 172.434 155.646V155.647Z" fill="#473E4F"/>
</g>
<defs>
<filter id="filter0_dii_5093_13382" x="15.2" y="0.646484" width="80.75" height="82.8611" filterUnits="userSpaceOnUse" color-interpolation-filters="sRGB">
<feFlood flood-opacity="0" result="BackgroundImageFix"/>
<feColorMatrix in="SourceAlpha" type="matrix" values="0 0 0 0 0 0 0 0 0 0 0 0 0 0 0 0 0 0 127 0" result="hardAlpha"/>
<feOffset dy="2.11111"/>
<feComposite in2="hardAlpha" operator="out"/>
<feColorMatrix type="matrix" values="0 0 0 0 0 0 0 0 0 0 0 0 0 0 0 0 0 0 0.1 0"/>
<feBlend mode="normal" in2="BackgroundImageFix" result="effect1_dropShadow_5093_13382"/>
<feBlend mode="normal" in="SourceGraphic" in2="effect1_dropShadow_5093_13382" result="shape"/>
<feColorMatrix in="SourceAlpha" type="matrix" values="0 0 0 0 0 0 0 0 0 0 0 0 0 0 0 0 0 0 127 0" result="hardAlpha"/>
<feOffset dy="-3.8"/>
<feComposite in2="hardAlpha" operator="arithmetic" k2="-1" k3="1"/>
<feColorMatrix type="matrix" values="0 0 0 0 0 0 0 0 0 0 0 0 0 0 0 0 0 0 0.25 0"/>
<feBlend mode="normal" in2="shape" result="effect2_innerShadow_5093_13382"/>
<feColorMatrix in="SourceAlpha" type="matrix" values="0 0 0 0 0 0 0 0 0 0 0 0 0 0 0 0 0 0 127 0" result="hardAlpha"/>
<feOffset dy="3.8"/>
<feComposite in2="hardAlpha" operator="arithmetic" k2="-1" k3="1"/>
<feColorMatrix type="matrix" values="0 0 0 0 1 0 0 0 0 1 0 0 0 0 1 0 0 0 0.5 0"/>
<feBlend mode="normal" in2="effect2_innerShadow_5093_13382" result="effect3_innerShadow_5093_13382"/>
</filter>
<filter id="filter1_i_5093_13382" x="24.7" y="10.1465" width="61.75" height="63.65" filterUnits="userSpaceOnUse" color-interpolation-filters="sRGB">
<feFlood flood-opacity="0" result="BackgroundImageFix"/>
<feBlend mode="normal" in="SourceGraphic" in2="BackgroundImageFix" result="shape"/>
<feColorMatrix in="SourceAlpha" type="matrix" values="0 0 0 0 0 0 0 0 0 0 0 0 0 0 0 0 0 0 127 0" result="hardAlpha"/>
<feOffset dy="1.9"/>
<feGaussianBlur stdDeviation="1.9"/>
<feComposite in2="hardAlpha" operator="arithmetic" k2="-1" k3="1"/>
<feColorMatrix type="matrix" values="0 0 0 0 0 0 0 0 0 0 0 0 0 0 0 0 0 0 0.2 0"/>
<feBlend mode="normal" in2="shape" result="effect1_innerShadow_5093_13382"/>
</filter>
<filter id="filter2_ii_5093_13382" x="97.8501" y="19.6465" width="80.75" height="80.75" filterUnits="userSpaceOnUse" color-interpolation-filters="sRGB">
<feFlood flood-opacity="0" result="BackgroundImageFix"/>
<feBlend mode="normal" in="SourceGraphic" in2="BackgroundImageFix" result="shape"/>
<feColorMatrix in="SourceAlpha" type="matrix" values="0 0 0 0 0 0 0 0 0 0 0 0 0 0 0 0 0 0 127 0" result="hardAlpha"/>
<feOffset dy="-3.8"/>
<feComposite in2="hardAlpha" operator="arithmetic" k2="-1" k3="1"/>
<feColorMatrix type="matrix" values="0 0 0 0 0 0 0 0 0 0 0 0 0 0 0 0 0 0 0.25 0"/>
<feBlend mode="normal" in2="shape" result="effect1_innerShadow_5093_13382"/>
<feColorMatrix in="SourceAlpha" type="matrix" values="0 0 0 0 0 0 0 0 0 0 0 0 0 0 0 0 0 0 127 0" result="hardAlpha"/>
<feOffset dy="3.8"/>
<feComposite in2="hardAlpha" operator="arithmetic" k2="-1" k3="1"/>
<feColorMatrix type="matrix" values="0 0 0 0 1 0 0 0 0 1 0 0 0 0 1 0 0 0 0.5 0"/>
<feBlend mode="normal" in2="effect1_innerShadow_5093_13382" result="effect2_innerShadow_5093_13382"/>
</filter>
<filter id="filter3_i_5093_13382" x="107.35" y="29.1465" width="61.75" height="63.65" filterUnits="userSpaceOnUse" color-interpolation-filters="sRGB">
<feFlood flood-opacity="0" result="BackgroundImageFix"/>
<feBlend mode="normal" in="SourceGraphic" in2="BackgroundImageFix" result="shape"/>
<feColorMatrix in="SourceAlpha" type="matrix" values="0 0 0 0 0 0 0 0 0 0 0 0 0 0 0 0 0 0 127 0" result="hardAlpha"/>
<feOffset dy="1.9"/>
<feGaussianBlur stdDeviation="1.9"/>
<feComposite in2="hardAlpha" operator="arithmetic" k2="-1" k3="1"/>
<feColorMatrix type="matrix" values="0 0 0 0 0 0 0 0 0 0 0 0 0 0 0 0 0 0 0.2 0"/>
<feBlend mode="normal" in2="shape" result="effect1_innerShadow_5093_13382"/>
</filter>
<filter id="filter4_ii_5093_13382" x="74.1001" y="40.5459" width="80.75" height="80.75" filterUnits="userSpaceOnUse" color-interpolation-filters="sRGB">
<feFlood flood-opacity="0" result="BackgroundImageFix"/>
<feBlend mode="normal" in="SourceGraphic" in2="BackgroundImageFix" result="shape"/>
<feColorMatrix in="SourceAlpha" type="matrix" values="0 0 0 0 0 0 0 0 0 0 0 0 0 0 0 0 0 0 127 0" result="hardAlpha"/>
<feOffset dy="-3.8"/>
<feComposite in2="hardAlpha" operator="arithmetic" k2="-1" k3="1"/>
<feColorMatrix type="matrix" values="0 0 0 0 0 0 0 0 0 0 0 0 0 0 0 0 0 0 0.25 0"/>
<feBlend mode="normal" in2="shape" result="effect1_innerShadow_5093_13382"/>
<feColorMatrix in="SourceAlpha" type="matrix" values="0 0 0 0 0 0 0 0 0 0 0 0 0 0 0 0 0 0 127 0" result="hardAlpha"/>
<feOffset dy="3.8"/>
<feComposite in2="hardAlpha" operator="arithmetic" k2="-1" k3="1"/>
<feColorMatrix type="matrix" values="0 0 0 0 1 0 0 0 0 1 0 0 0 0 1 0 0 0 0.5 0"/>
<feBlend mode="normal" in2="effect1_innerShadow_5093_13382" result="effect2_innerShadow_5093_13382"/>
</filter>
<filter id="filter5_i_5093_13382" x="83.5999" y="50.0459" width="61.75" height="63.65" filterUnits="userSpaceOnUse" color-interpolation-filters="sRGB">
<feFlood flood-opacity="0" result="BackgroundImageFix"/>
<feBlend mode="normal" in="SourceGraphic" in2="BackgroundImageFix" result="shape"/>
<feColorMatrix in="SourceAlpha" type="matrix" values="0 0 0 0 0 0 0 0 0 0 0 0 0 0 0 0 0 0 127 0" result="hardAlpha"/>
<feOffset dy="1.9"/>
<feGaussianBlur stdDeviation="1.9"/>
<feComposite in2="hardAlpha" operator="arithmetic" k2="-1" k3="1"/>
<feColorMatrix type="matrix" values="0 0 0 0 0 0 0 0 0 0 0 0 0 0 0 0 0 0 0.2 0"/>
<feBlend mode="normal" in2="shape" result="effect1_innerShadow_5093_13382"/>
</filter>
<filter id="filter6_ii_5093_13382" x="0" y="88.397" width="190" height="126.817" filterUnits="userSpaceOnUse" color-interpolation-filters="sRGB">
<feFlood flood-opacity="0" result="BackgroundImageFix"/>
<feBlend mode="normal" in="SourceGraphic" in2="BackgroundImageFix" result="shape"/>
<feColorMatrix in="SourceAlpha" type="matrix" values="0 0 0 0 0 0 0 0 0 0 0 0 0 0 0 0 0 0 127 0" result="hardAlpha"/>
<feOffset dy="-3.61905"/>
<feComposite in2="hardAlpha" operator="arithmetic" k2="-1" k3="1"/>
<feColorMatrix type="matrix" values="0 0 0 0 0.149162 0 0 0 0 0.0998521 0 0 0 0 0.192308 0 0 0 1 0"/>
<feBlend mode="normal" in2="shape" result="effect1_innerShadow_5093_13382"/>
<feColorMatrix in="SourceAlpha" type="matrix" values="0 0 0 0 0 0 0 0 0 0 0 0 0 0 0 0 0 0 127 0" result="hardAlpha"/>
<feOffset dy="3.61905"/>
<feComposite in2="hardAlpha" operator="arithmetic" k2="-1" k3="1"/>
<feColorMatrix type="matrix" values="0 0 0 0 0.350892 0 0 0 0 0.284879 0 0 0 0 0.408654 0 0 0 1 0"/>
<feBlend mode="normal" in2="effect1_innerShadow_5093_13382" result="effect2_innerShadow_5093_13382"/>
</filter>
<filter id="filter7_ii_5093_13382" x="140.6" y="155.497" width="33.25" height="44.5664" filterUnits="userSpaceOnUse" color-interpolation-filters="sRGB">
<feFlood flood-opacity="0" result="BackgroundImageFix"/>
<feBlend mode="normal" in="SourceGraphic" in2="BackgroundImageFix" result="shape"/>
<feColorMatrix in="SourceAlpha" type="matrix" values="0 0 0 0 0 0 0 0 0 0 0 0 0 0 0 0 0 0 127 0" result="hardAlpha"/>
<feOffset dy="0.95"/>
<feComposite in2="hardAlpha" operator="arithmetic" k2="-1" k3="1"/>
<feColorMatrix type="matrix" values="0 0 0 0 0.34213 0 0 0 0 0.302988 0 0 0 0 0.376923 0 0 0 1 0"/>
<feBlend mode="normal" in2="shape" result="effect1_innerShadow_5093_13382"/>
<feColorMatrix in="SourceAlpha" type="matrix" values="0 0 0 0 0 0 0 0 0 0 0 0 0 0 0 0 0 0 127 0" result="hardAlpha"/>
<feOffset dy="-0.95"/>
<feComposite in2="hardAlpha" operator="arithmetic" k2="-1" k3="1"/>
<feColorMatrix type="matrix" values="0 0 0 0 0.14902 0 0 0 0 0.0980392 0 0 0 0 0.192157 0 0 0 1 0"/>
<feBlend mode="normal" in2="effect1_innerShadow_5093_13382" result="effect2_innerShadow_5093_13382"/>
</filter>
<linearGradient id="paint0_linear_5093_13382" x1="95" y1="93.832" x2="186.301" y2="235.256" gradientUnits="userSpaceOnUse">
<stop stop-color="white"/>
<stop offset="1" stop-color="#EFEFF8"/>
</linearGradient>
<linearGradient id="paint1_linear_5093_13382" x1="-34.675" y1="122.246" x2="139.65" y2="213.921" gradientUnits="userSpaceOnUse">
<stop stop-color="#483D51" stop-opacity="0.3"/>
<stop offset="1" stop-color="#312938"/>
</linearGradient>
</defs>
</svg>
