<svg width="170" height="180" viewBox="0 0 170 180" fill="none" xmlns="http://www.w3.org/2000/svg">
<rect x="0.899902" y="45.8809" width="159.454" height="37.4718" rx="11.401" fill="#291F32"/>
<g filter="url(#filter0_ii_5098_11656)">
<circle cx="47.5403" cy="33.884" r="33.884" fill="#D9D9D9"/>
<circle cx="47.5403" cy="33.884" r="33.884" fill="#61C5FF"/>
</g>
<g filter="url(#filter1_i_5098_11656)">
<circle cx="47.5397" cy="33.884" r="25.9113" fill="#61C5FF"/>
</g>
<circle cx="47.5397" cy="33.884" r="24.3168" stroke="black" stroke-opacity="0.05" stroke-width="3.18909"/>
<path d="M45.1863 40.4066L46.9848 33.6345L51.2428 32.0789L52.3019 28.0989L52.2658 28.0002L48.0744 29.5314L51.0943 18.1602H42.5297L38.5804 32.9999L35.2829 34.2045L34.1934 38.3076L37.4883 37.104L35.1606 45.8497H57.9544L59.4157 40.4066H45.1863Z" fill="url(#paint0_linear_5098_11656)"/>
<g filter="url(#filter2_ii_5098_11656)">
<circle cx="116.903" cy="37.9182" r="33.884" fill="#D9D9D9"/>
<circle cx="116.903" cy="37.9182" r="33.884" fill="#FF630F"/>
</g>
<g filter="url(#filter3_i_5098_11656)">
<circle cx="116.903" cy="37.9182" r="24.3168" stroke="black" stroke-opacity="0.05" stroke-width="3.18909"/>
</g>
<path d="M131.84 43.4429H139C135.834 52.9599 126.858 59.8235 116.277 59.8237C105.697 59.8237 96.7206 52.96 93.5547 43.4429H100.714V23.2983L116.277 38.8608L131.84 23.2983V43.4429ZM116.276 46.0161L105.906 35.645V48.3208H95.8184C100.021 55.2161 107.612 59.8217 116.276 59.8218C124.941 59.8218 132.533 55.2162 136.735 48.3208H126.646V35.645L116.276 46.0161ZM116.276 9.27588C123.993 9.27588 130.941 12.5634 135.801 17.812C130.941 12.5639 123.994 9.27699 116.277 9.27686C103.028 9.27686 92.0419 18.9643 90.0117 31.6421C92.0413 18.9639 103.026 9.27605 116.276 9.27588ZM92.8213 31.0552L92.708 31.6421C92.7431 31.4458 92.7805 31.2498 92.8203 31.0552L92.9473 30.4731C92.9027 30.6661 92.8611 30.8605 92.8213 31.0552ZM93.2432 29.3257L93.0879 29.897C93.1371 29.7058 93.1884 29.515 93.2422 29.3257L93.4111 28.7603C93.3529 28.9476 93.2969 29.1364 93.2432 29.3257ZM141.579 27.646C141.699 28.014 141.811 28.3854 141.915 28.7603C141.811 28.3854 141.699 28.014 141.579 27.646ZM94.2256 26.5405C94.3083 26.3455 94.3937 26.1518 94.4814 25.9595C94.3937 26.1518 94.3083 26.3455 94.2256 26.5405ZM137.647 25.0737C137.872 25.5171 138.083 25.9685 138.28 26.4272C138.083 25.9686 137.872 25.5171 137.647 25.0737ZM94.75 25.3921C94.6583 25.58 94.5684 25.7689 94.4814 25.9595C94.5683 25.7689 94.6583 25.58 94.75 25.3921ZM94.8447 25.1968C94.9319 25.0222 95.022 24.8493 95.1133 24.6772C95.022 24.8493 94.9319 25.0222 94.8447 25.1968ZM137.453 24.6978C137.507 24.8004 137.56 24.9038 137.613 25.0073C137.56 24.9038 137.507 24.8004 137.453 24.6978ZM95.4316 24.0981C95.3231 24.2897 95.2166 24.4825 95.1133 24.6772C95.2166 24.4825 95.3231 24.2897 95.4316 24.0981ZM139.722 23.2983C139.964 23.7497 140.194 24.2088 140.411 24.6753C140.194 24.2088 139.964 23.7496 139.722 23.2983ZM137.229 24.2866C137.287 24.3896 137.343 24.4932 137.398 24.5972C137.343 24.4932 137.287 24.3896 137.229 24.2866ZM137.026 23.9272C137.089 24.0358 137.151 24.1448 137.212 24.2544C137.151 24.1448 137.089 24.0358 137.026 23.9272ZM95.5293 23.9243C95.6291 23.7515 95.732 23.5807 95.8359 23.4106C95.732 23.5807 95.6291 23.7515 95.5293 23.9243ZM136.796 23.5366C136.843 23.6141 136.889 23.692 136.935 23.77C136.889 23.692 136.843 23.6141 136.796 23.5366ZM136.322 22.7817C136.471 23.0091 136.616 23.2395 136.757 23.4722C136.616 23.2396 136.471 23.0091 136.322 22.7817ZM98.4619 19.8853C97.4832 20.9746 96.6038 22.1548 95.8359 23.4106C96.6038 22.1547 97.4831 20.9747 98.4619 19.8853ZM139.028 22.0845C139.183 22.3382 139.331 22.5958 139.477 22.855C139.331 22.5964 139.183 22.3395 139.029 22.0864L139.028 22.0845ZM136.092 22.438C136.159 22.5361 136.225 22.6347 136.29 22.7339C136.225 22.6347 136.159 22.5361 136.092 22.438ZM135.848 22.0845C135.893 22.1489 135.938 22.214 135.982 22.2788C135.938 22.214 135.893 22.1488 135.848 22.0845ZM135.325 21.3735C135.474 21.5682 135.619 21.7651 135.762 21.9644C135.619 21.7651 135.474 21.5681 135.325 21.3735ZM134.844 20.7622C134.978 20.9265 135.109 21.0933 135.238 21.2612C135.077 21.0529 134.914 20.8469 134.746 20.644L134.844 20.7622ZM138.084 20.6411C138.19 20.7928 138.295 20.9452 138.398 21.0991C138.295 20.9452 138.19 20.7928 138.084 20.6411ZM134.487 20.3354C134.564 20.4247 134.639 20.5146 134.714 20.605C134.639 20.5146 134.564 20.4247 134.487 20.3354ZM134.218 20.0259C134.283 20.0997 134.348 20.1739 134.412 20.2485C134.348 20.1739 134.283 20.0997 134.218 20.0259ZM133.921 19.6978C133.979 19.7613 134.037 19.825 134.095 19.8892C134.037 19.825 133.979 19.7612 133.921 19.6978ZM98.4619 19.8853C98.6027 19.7286 98.7459 19.5743 98.8906 19.4214C98.7459 19.5743 98.6026 19.7286 98.4619 19.8853ZM136.393 18.4702C136.761 18.8955 137.115 19.3335 137.456 19.7817C137.115 19.3339 136.762 18.8961 136.394 18.4712L136.393 18.4702ZM133.607 19.3618C133.676 19.4342 133.744 19.5074 133.812 19.5806C133.744 19.5074 133.676 19.4341 133.607 19.3618ZM99.9756 18.3452C99.6334 18.6635 99.3007 18.992 98.9775 19.3296C99.3007 18.9919 99.6333 18.6635 99.9756 18.3452ZM132.664 18.4253C132.952 18.6956 133.233 18.9732 133.507 19.2573C133.233 18.9732 132.952 18.6956 132.664 18.4253ZM132.382 18.1655C132.45 18.2277 132.518 18.2901 132.586 18.353C132.518 18.2901 132.45 18.2277 132.382 18.1655ZM132.008 17.8315C132.093 17.906 132.177 17.9815 132.262 18.0571C132.177 17.9815 132.093 17.906 132.008 17.8315ZM100.505 17.8677C100.658 17.7338 100.813 17.6022 100.969 17.4722C100.813 17.6022 100.658 17.7338 100.505 17.8677ZM131.649 17.5259C131.665 17.5392 131.681 17.5525 131.697 17.5659C131.681 17.5525 131.665 17.5392 131.649 17.5259ZM131.373 17.2974C131.459 17.3671 131.544 17.4374 131.629 17.5083C131.544 17.4374 131.459 17.3671 131.373 17.2974ZM101.07 17.3872C101.244 17.2443 101.419 17.1034 101.597 16.9653C101.419 17.1034 101.244 17.2443 101.07 17.3872ZM131.172 17.1343C131.203 17.1593 131.234 17.1852 131.266 17.2104C131.166 17.1306 131.066 17.0514 130.966 16.9731L131.172 17.1343ZM130.654 16.7349C130.757 16.8122 130.859 16.8903 130.961 16.9692C130.859 16.8903 130.757 16.8122 130.654 16.7349ZM102.138 16.5581C101.956 16.6916 101.775 16.8269 101.597 16.9653C101.775 16.8269 101.956 16.6916 102.138 16.5581ZM130.308 16.479C130.403 16.5482 130.498 16.6175 130.593 16.688C130.498 16.6175 130.403 16.5482 130.308 16.479ZM102.198 16.5142C102.372 16.3874 102.548 16.2632 102.726 16.1411C102.548 16.2632 102.372 16.3874 102.198 16.5142ZM130.252 16.439C130.271 16.4523 130.289 16.4656 130.308 16.479C130.289 16.4656 130.271 16.4523 130.252 16.439ZM129.604 15.9878C129.823 16.1342 130.038 16.2846 130.251 16.438C130.038 16.2846 129.823 16.1342 129.604 15.9878ZM102.783 16.1011C102.952 15.9859 103.122 15.8741 103.294 15.7632C103.122 15.8741 102.952 15.9859 102.783 16.1011ZM127.329 14.6372C128.071 15.024 128.791 15.448 129.484 15.9077C128.791 15.448 128.071 15.024 127.329 14.6372ZM103.402 15.6909C103.58 15.5772 103.76 15.467 103.941 15.3579C103.76 15.467 103.58 15.5772 103.402 15.6909ZM104.542 15.0073C104.34 15.1212 104.14 15.2384 103.941 15.3579C104.14 15.2384 104.34 15.1212 104.542 15.0073ZM104.63 14.9575C104.809 14.8574 104.991 14.7602 105.173 14.6646C104.991 14.7602 104.809 14.8574 104.63 14.9575ZM105.269 14.6138C105.446 14.5216 105.625 14.432 105.806 14.3442C105.625 14.4321 105.446 14.5216 105.269 14.6138ZM126.845 14.3911C126.968 14.452 127.091 14.5137 127.214 14.5767C127.091 14.5137 126.968 14.452 126.845 14.3911ZM122.233 12.6851C123.842 13.0969 125.385 13.6721 126.845 14.3911C125.385 13.672 123.842 13.097 122.233 12.6851ZM105.919 14.2886C106.107 14.1984 106.296 14.1113 106.486 14.0259C106.296 14.1113 106.107 14.1984 105.919 14.2886ZM106.575 13.9858C106.754 13.9066 106.934 13.8303 107.114 13.7554C106.934 13.8303 106.754 13.9066 106.575 13.9858ZM107.257 13.6958C107.45 13.6171 107.645 13.542 107.841 13.4683C107.645 13.542 107.45 13.6171 107.257 13.6958ZM107.931 13.4331C108.129 13.3594 108.329 13.2898 108.529 13.2212C108.329 13.2898 108.129 13.3594 107.931 13.4331ZM108.616 13.1909C108.787 13.1331 108.96 13.0779 109.133 13.0239C108.96 13.0779 108.787 13.1331 108.616 13.1909ZM109.343 12.9575C109.524 12.9029 109.706 12.8527 109.889 12.8022C109.706 12.8527 109.524 12.9029 109.343 12.9575ZM110.04 12.7593C110.228 12.7088 110.416 12.6617 110.605 12.6157C110.416 12.6617 110.228 12.7088 110.04 12.7593ZM110.753 12.5786C110.792 12.5694 110.831 12.5593 110.87 12.5503L111.452 12.4243C111.218 12.4723 110.985 12.5239 110.753 12.5786ZM120.913 12.3862C121.164 12.4354 121.413 12.4895 121.66 12.5464C121.413 12.4895 121.164 12.4354 120.913 12.3862ZM120.021 12.23C120.295 12.273 120.568 12.3203 120.839 12.3726C120.568 12.3203 120.295 12.273 120.021 12.23ZM119.577 12.1636C119.68 12.1777 119.782 12.1931 119.884 12.2085C119.782 12.1931 119.68 12.1777 119.577 12.1636ZM119.101 12.103C119.204 12.1152 119.307 12.1286 119.41 12.1421C119.307 12.1286 119.204 12.1152 119.101 12.103ZM113.453 12.103C113.597 12.0861 113.741 12.0725 113.885 12.0581C113.741 12.0724 113.597 12.0862 113.453 12.103ZM118.192 12.0142C118.277 12.0208 118.361 12.0281 118.445 12.0356C118.361 12.0281 118.277 12.0208 118.192 12.0142ZM114.179 12.0288C114.388 12.0105 114.599 11.9967 114.81 11.9839C114.599 11.9966 114.388 12.0107 114.179 12.0288ZM117.767 11.9839C117.852 11.9891 117.937 11.9954 118.021 12.0015C117.937 11.9954 117.852 11.9891 117.767 11.9839ZM114.909 11.9771C114.954 11.9745 115 11.9706 115.045 11.9683L115.659 11.9458C115.408 11.9522 115.158 11.9631 114.909 11.9771ZM117.306 11.9604C117.359 11.9627 117.413 11.9656 117.467 11.9683C117.413 11.9656 117.359 11.9627 117.306 11.9604ZM116.896 11.9458C116.956 11.9473 117.017 11.9497 117.078 11.9517C116.991 11.9488 116.904 11.9458 116.816 11.9438L116.896 11.9458ZM100.072 18.2544L100.501 17.8716C100.324 18.0271 100.148 18.1846 99.9756 18.3452C100.008 18.3151 100.04 18.2843 100.072 18.2544Z" fill="url(#paint1_linear_5098_11656)"/>
<g filter="url(#filter4_ii_5098_11656)">
<circle cx="96.9714" cy="64.3411" r="33.884" fill="#D9D9D9"/>
<circle cx="96.9714" cy="64.3411" r="33.884" fill="#FFC414"/>
</g>
<g filter="url(#filter5_i_5098_11656)">
<circle cx="96.9719" cy="64.341" r="25.9113" fill="#FFC414"/>
</g>
<circle cx="96.9719" cy="64.341" r="24.3168" stroke="black" stroke-opacity="0.05" stroke-width="3.18909"/>
<path d="M109.787 60.4319C110.375 56.5028 107.383 54.3907 103.293 52.9816L104.62 47.6592L101.38 46.8518L100.088 52.034C99.2363 51.8217 98.3615 51.6215 97.4923 51.4231L98.7934 46.2068L95.5555 45.3994L94.2276 50.72C93.5226 50.5594 92.8306 50.4007 92.1588 50.2337L92.1625 50.2171L87.6946 49.1015L86.8327 52.5618C86.8327 52.5618 89.2365 53.1127 89.1857 53.1468C90.4979 53.4744 90.735 54.3427 90.6953 55.0311L89.1839 61.0944C89.2743 61.1175 89.3915 61.1507 89.5207 61.2024C89.4127 61.1756 89.2974 61.1461 89.1783 61.1175L87.0597 69.6114C86.8992 70.01 86.4922 70.608 85.575 70.381C85.6073 70.428 83.2202 69.7932 83.2202 69.7932L81.6118 73.5017L85.8278 74.5527C86.6122 74.7492 87.3808 74.955 88.1375 75.1488L86.7967 80.5321L90.0328 81.3395L91.3606 76.0134C92.2446 76.2533 93.1028 76.4748 93.9425 76.6833L92.6193 81.9845L95.859 82.7919L97.1998 77.4188C102.724 78.4642 106.878 78.0425 108.627 73.0459C110.036 69.0227 108.557 66.702 105.65 65.1887C107.767 64.7005 109.362 63.3081 109.787 60.4319ZM102.385 70.8119C101.384 74.8351 94.6096 72.6601 92.4135 72.1148L94.1926 64.9829C96.3887 65.531 103.431 66.6161 102.385 70.8119ZM103.387 60.3738C102.473 64.0334 96.8353 62.174 95.0064 61.7182L96.6194 55.2497C98.4483 55.7056 104.338 56.5564 103.387 60.3738Z" fill="url(#paint2_linear_5098_11656)"/>
<path d="M48.9429 60.5293C54.8335 60.5293 59.507 65.3215 62.7378 70.2471C66.5572 76.0698 73.1425 79.9149 80.6265 79.915C88.1105 79.915 94.6957 76.0698 98.5151 70.2471C101.746 65.3215 106.419 60.5294 112.31 60.5293H148.951C155.248 60.5293 160.354 65.6349 160.354 71.9326V129.705C155.414 126.009 149.281 123.821 142.637 123.821C126.289 123.822 113.035 137.075 113.035 153.424C113.035 158.301 114.216 162.902 116.305 166.959H12.3032C6.00547 166.959 0.899902 161.853 0.899902 155.556V71.9326C0.899955 65.6349 6.00551 60.5293 12.3032 60.5293H48.9429ZM130.166 129.951C130.289 129.885 130.413 129.819 130.539 129.755L130.621 129.714C130.468 129.792 130.316 129.871 130.166 129.951ZM143.853 126.876C143.947 126.88 144.041 126.884 144.134 126.89C144.041 126.884 143.947 126.88 143.853 126.876ZM143.324 126.856C143.388 126.858 143.452 126.861 143.516 126.863C143.418 126.86 143.32 126.857 143.222 126.854L143.324 126.856ZM142.909 126.851C142.818 126.85 142.728 126.849 142.637 126.849C142.41 126.849 142.184 126.85 141.958 126.855C142.184 126.85 142.41 126.848 142.637 126.848L142.909 126.851Z" fill="#594968"/>
<mask id="mask0_5098_11656" style="mask-type:alpha" maskUnits="userSpaceOnUse" x="0" y="60" width="161" height="107">
<path d="M48.9429 60.5303C54.8334 60.5303 59.507 65.3216 62.7378 70.2471C66.5572 76.0699 73.1424 79.9159 80.6265 79.916C88.1107 79.916 94.6958 76.07 98.5151 70.2471C101.746 65.3216 106.42 60.5303 112.31 60.5303H148.951C155.248 60.5303 160.354 65.6358 160.354 71.9336V129.706C155.414 126.01 149.281 123.822 142.637 123.822C126.288 123.823 113.035 137.076 113.035 153.425C113.035 158.302 114.216 162.903 116.305 166.96H12.3032C6.00547 166.96 0.899902 161.854 0.899902 155.557V71.9336C0.899902 65.6358 6.00547 60.5303 12.3032 60.5303H48.9429ZM127.99 131.247C128.097 131.176 128.205 131.105 128.313 131.035L128.402 130.979C128.264 131.067 128.126 131.157 127.99 131.247ZM130.166 129.952C130.289 129.886 130.414 129.82 130.539 129.756L130.621 129.715C130.468 129.792 130.316 129.872 130.166 129.952ZM133.059 128.628C133.205 128.571 133.352 128.515 133.5 128.461L133.552 128.441C133.387 128.502 133.223 128.565 133.059 128.628ZM143.324 126.857C143.561 126.863 143.799 126.872 144.035 126.885L143.323 126.857L142.637 126.849L143.324 126.857Z" fill="url(#paint3_linear_5098_11656)"/>
</mask>
<g mask="url(#mask0_5098_11656)">
<path d="M148.951 63.5601C155.248 63.5601 160.354 68.6656 160.354 74.9634V158.586C160.354 164.884 155.248 169.99 148.951 169.99H12.3032C6.00543 169.99 0.899902 164.884 0.899902 158.586V74.9634C0.899902 68.6656 6.00543 63.5601 12.3032 63.5601H48.9427C54.8334 63.5601 59.5068 68.3519 62.7377 73.2775C66.5571 79.1003 73.1423 82.9457 80.6265 82.9458C88.1107 82.9458 94.6959 79.1003 98.5153 73.2775C101.746 68.3519 106.42 63.5601 112.31 63.5601H148.951Z" fill="url(#paint4_linear_5098_11656)"/>
<mask id="mask1_5098_11656" style="mask-type:alpha" maskUnits="userSpaceOnUse" x="0" y="63" width="161" height="107">
<path d="M148.951 63.5601C155.248 63.5601 160.354 68.6656 160.354 74.9634V158.586C160.354 164.884 155.248 169.99 148.951 169.99H12.3032C6.00543 169.99 0.899902 164.884 0.899902 158.586V74.9634C0.899902 68.6656 6.00543 63.5601 12.3032 63.5601H48.9427C54.8334 63.5601 59.5068 68.3519 62.7377 73.2775C66.5571 79.1003 73.1423 82.9457 80.6265 82.9458C88.1107 82.9458 94.6959 79.1003 98.5153 73.2775C101.746 68.3519 106.42 63.5601 112.31 63.5601H148.951Z" fill="url(#paint5_linear_5098_11656)"/>
<path d="M148.951 63.5601C155.248 63.5601 160.354 68.6656 160.354 74.9634V158.586C160.354 164.884 155.248 169.99 148.951 169.99H12.3032C6.00543 169.99 0.899902 164.884 0.899902 158.586V74.9634C0.899902 68.6656 6.00543 63.5601 12.3032 63.5601H48.9427C54.8334 63.5601 59.5068 68.3519 62.7377 73.2775C66.5571 79.1003 73.1423 82.9457 80.6265 82.9458C88.1107 82.9458 94.6959 79.1003 98.5153 73.2775C101.746 68.3519 106.42 63.5601 112.31 63.5601H148.951Z" fill="url(#paint6_linear_5098_11656)"/>
</mask>
<g mask="url(#mask1_5098_11656)">
<path d="M148.446 55.4888C154.744 55.4888 159.849 60.5944 159.85 66.8921V150.516C159.849 156.814 154.744 161.918 148.446 161.918H11.7988C5.50118 161.918 0.39575 156.814 0.395508 150.516V66.8921C0.395683 60.5944 5.50114 55.4888 11.7988 55.4888H48.4382C54.329 55.4888 59.0024 60.2807 62.2333 65.2063C66.0526 71.0291 72.6378 74.8745 80.1221 74.8745C87.6063 74.8745 94.1916 71.0291 98.0109 65.2063C101.242 60.2807 105.915 55.4888 111.806 55.4888H148.446Z" fill="#312938"/>
<path d="M148.446 55.4888C154.744 55.4888 159.849 60.5944 159.85 66.8921V150.516C159.849 156.814 154.744 161.918 148.446 161.918H11.7988C5.50118 161.918 0.39575 156.814 0.395508 150.516V66.8921C0.395683 60.5944 5.50114 55.4888 11.7988 55.4888H48.4382C54.329 55.4888 59.0024 60.2807 62.2333 65.2063C66.0526 71.0291 72.6378 74.8745 80.1221 74.8745C87.6063 74.8745 94.1916 71.0291 98.0109 65.2063C101.242 60.2807 105.915 55.4888 111.806 55.4888H148.446Z" fill="url(#paint7_linear_5098_11656)"/>
</g>
<path d="M142.489 119.9C161.155 119.9 176.287 135.032 176.287 153.698C176.287 172.364 161.155 187.496 142.489 187.496C123.823 187.496 108.691 172.364 108.691 153.698C108.691 135.032 123.823 119.9 142.489 119.9Z" stroke="#EFEFF8" stroke-opacity="0.2" stroke-width="2.01779"/>
<path d="M142.489 115.155C163.775 115.155 181.031 132.41 181.032 153.697C181.032 174.983 163.775 192.24 142.489 192.24C121.202 192.239 103.947 174.983 103.947 153.697C103.947 132.411 121.203 115.155 142.489 115.155Z" stroke="#EFEFF8" stroke-opacity="0.1" stroke-width="1.41876"/>
<path d="M142.489 110.314C166.449 110.314 185.872 129.738 185.872 153.697C185.872 177.657 166.449 197.08 142.489 197.08C118.53 197.08 99.1064 177.657 99.1064 153.697C99.1065 129.738 118.53 110.314 142.489 110.314Z" stroke="#EFEFF8" stroke-opacity="0.05" stroke-width="1.00889"/>
</g>
<path d="M142.638 127.732C156.826 127.733 168.327 139.235 168.327 153.423C168.327 167.611 156.825 179.112 142.638 179.112C128.45 179.112 116.948 167.611 116.947 153.423C116.947 139.235 128.45 127.732 142.638 127.732Z" fill="#61C5FF"/>
<path d="M142.638 127.732C156.826 127.733 168.327 139.235 168.327 153.423C168.327 167.611 156.825 179.112 142.638 179.112C128.45 179.112 116.948 167.611 116.947 153.423C116.947 139.235 128.45 127.732 142.638 127.732Z" fill="url(#paint8_linear_5098_11656)"/>
<path d="M142.638 127.732C156.826 127.733 168.327 139.235 168.327 153.423C168.327 167.611 156.825 179.112 142.638 179.112C128.45 179.112 116.948 167.611 116.947 153.423C116.947 139.235 128.45 127.732 142.638 127.732Z" stroke="url(#paint9_linear_5098_11656)" stroke-width="1.77171"/>
<path d="M140.866 167.599V155.197H128.464C127.485 155.197 126.692 154.404 126.692 153.425C126.692 152.447 127.485 151.654 128.464 151.654H140.866V139.251C140.866 138.273 141.659 137.48 142.638 137.48C143.616 137.48 144.409 138.273 144.409 139.251V151.654H156.811L156.993 151.663C157.886 151.753 158.583 152.508 158.583 153.425C158.583 154.342 157.886 155.097 156.993 155.188L156.811 155.197H144.409V167.599C144.409 168.577 143.616 169.37 142.638 169.37C141.659 169.37 140.866 168.577 140.866 167.599Z" fill="black"/>
<path d="M140.866 167.599V155.197H128.464C127.485 155.197 126.692 154.404 126.692 153.425C126.692 152.447 127.485 151.654 128.464 151.654H140.866V139.251C140.866 138.273 141.659 137.48 142.638 137.48C143.616 137.48 144.409 138.273 144.409 139.251V151.654H156.811L156.993 151.663C157.886 151.753 158.583 152.508 158.583 153.425C158.583 154.342 157.886 155.097 156.993 155.188L156.811 155.197H144.409V167.599C144.409 168.577 143.616 169.37 142.638 169.37C141.659 169.37 140.866 168.577 140.866 167.599Z" fill="url(#paint10_linear_5098_11656)"/>
<defs>
<filter id="filter0_ii_5098_11656" x="13.6562" y="0" width="67.7681" height="67.7681" filterUnits="userSpaceOnUse" color-interpolation-filters="sRGB">
<feFlood flood-opacity="0" result="BackgroundImageFix"/>
<feBlend mode="normal" in="SourceGraphic" in2="BackgroundImageFix" result="shape"/>
<feColorMatrix in="SourceAlpha" type="matrix" values="0 0 0 0 0 0 0 0 0 0 0 0 0 0 0 0 0 0 127 0" result="hardAlpha"/>
<feOffset dy="-3.18909"/>
<feComposite in2="hardAlpha" operator="arithmetic" k2="-1" k3="1"/>
<feColorMatrix type="matrix" values="0 0 0 0 0 0 0 0 0 0 0 0 0 0 0 0 0 0 0.25 0"/>
<feBlend mode="normal" in2="shape" result="effect1_innerShadow_5098_11656"/>
<feColorMatrix in="SourceAlpha" type="matrix" values="0 0 0 0 0 0 0 0 0 0 0 0 0 0 0 0 0 0 127 0" result="hardAlpha"/>
<feOffset dy="3.18909"/>
<feComposite in2="hardAlpha" operator="arithmetic" k2="-1" k3="1"/>
<feColorMatrix type="matrix" values="0 0 0 0 1 0 0 0 0 1 0 0 0 0 1 0 0 0 0.5 0"/>
<feBlend mode="normal" in2="effect1_innerShadow_5098_11656" result="effect2_innerShadow_5098_11656"/>
</filter>
<filter id="filter1_i_5098_11656" x="21.6284" y="7.97266" width="51.8228" height="53.4173" filterUnits="userSpaceOnUse" color-interpolation-filters="sRGB">
<feFlood flood-opacity="0" result="BackgroundImageFix"/>
<feBlend mode="normal" in="SourceGraphic" in2="BackgroundImageFix" result="shape"/>
<feColorMatrix in="SourceAlpha" type="matrix" values="0 0 0 0 0 0 0 0 0 0 0 0 0 0 0 0 0 0 127 0" result="hardAlpha"/>
<feOffset dy="1.59454"/>
<feGaussianBlur stdDeviation="1.59454"/>
<feComposite in2="hardAlpha" operator="arithmetic" k2="-1" k3="1"/>
<feColorMatrix type="matrix" values="0 0 0 0 0 0 0 0 0 0 0 0 0 0 0 0 0 0 0.2 0"/>
<feBlend mode="normal" in2="shape" result="effect1_innerShadow_5098_11656"/>
</filter>
<filter id="filter2_ii_5098_11656" x="83.019" y="4.03418" width="67.7681" height="67.7681" filterUnits="userSpaceOnUse" color-interpolation-filters="sRGB">
<feFlood flood-opacity="0" result="BackgroundImageFix"/>
<feBlend mode="normal" in="SourceGraphic" in2="BackgroundImageFix" result="shape"/>
<feColorMatrix in="SourceAlpha" type="matrix" values="0 0 0 0 0 0 0 0 0 0 0 0 0 0 0 0 0 0 127 0" result="hardAlpha"/>
<feOffset dy="-3.18909"/>
<feComposite in2="hardAlpha" operator="arithmetic" k2="-1" k3="1"/>
<feColorMatrix type="matrix" values="0 0 0 0 0 0 0 0 0 0 0 0 0 0 0 0 0 0 0.25 0"/>
<feBlend mode="normal" in2="shape" result="effect1_innerShadow_5098_11656"/>
<feColorMatrix in="SourceAlpha" type="matrix" values="0 0 0 0 0 0 0 0 0 0 0 0 0 0 0 0 0 0 127 0" result="hardAlpha"/>
<feOffset dy="3.18909"/>
<feComposite in2="hardAlpha" operator="arithmetic" k2="-1" k3="1"/>
<feColorMatrix type="matrix" values="0 0 0 0 1 0 0 0 0 1 0 0 0 0 1 0 0 0 0.5 0"/>
<feBlend mode="normal" in2="effect1_innerShadow_5098_11656" result="effect2_innerShadow_5098_11656"/>
</filter>
<filter id="filter3_i_5098_11656" x="90.9912" y="12.0068" width="51.8228" height="53.4173" filterUnits="userSpaceOnUse" color-interpolation-filters="sRGB">
<feFlood flood-opacity="0" result="BackgroundImageFix"/>
<feBlend mode="normal" in="SourceGraphic" in2="BackgroundImageFix" result="shape"/>
<feColorMatrix in="SourceAlpha" type="matrix" values="0 0 0 0 0 0 0 0 0 0 0 0 0 0 0 0 0 0 127 0" result="hardAlpha"/>
<feOffset dy="1.59454"/>
<feGaussianBlur stdDeviation="1.59454"/>
<feComposite in2="hardAlpha" operator="arithmetic" k2="-1" k3="1"/>
<feColorMatrix type="matrix" values="0 0 0 0 0 0 0 0 0 0 0 0 0 0 0 0 0 0 0.2 0"/>
<feBlend mode="normal" in2="shape" result="effect1_innerShadow_5098_11656"/>
</filter>
<filter id="filter4_ii_5098_11656" x="63.0874" y="30.457" width="67.7681" height="67.7681" filterUnits="userSpaceOnUse" color-interpolation-filters="sRGB">
<feFlood flood-opacity="0" result="BackgroundImageFix"/>
<feBlend mode="normal" in="SourceGraphic" in2="BackgroundImageFix" result="shape"/>
<feColorMatrix in="SourceAlpha" type="matrix" values="0 0 0 0 0 0 0 0 0 0 0 0 0 0 0 0 0 0 127 0" result="hardAlpha"/>
<feOffset dy="-3.18909"/>
<feComposite in2="hardAlpha" operator="arithmetic" k2="-1" k3="1"/>
<feColorMatrix type="matrix" values="0 0 0 0 0 0 0 0 0 0 0 0 0 0 0 0 0 0 0.25 0"/>
<feBlend mode="normal" in2="shape" result="effect1_innerShadow_5098_11656"/>
<feColorMatrix in="SourceAlpha" type="matrix" values="0 0 0 0 0 0 0 0 0 0 0 0 0 0 0 0 0 0 127 0" result="hardAlpha"/>
<feOffset dy="3.18909"/>
<feComposite in2="hardAlpha" operator="arithmetic" k2="-1" k3="1"/>
<feColorMatrix type="matrix" values="0 0 0 0 1 0 0 0 0 1 0 0 0 0 1 0 0 0 0.5 0"/>
<feBlend mode="normal" in2="effect1_innerShadow_5098_11656" result="effect2_innerShadow_5098_11656"/>
</filter>
<filter id="filter5_i_5098_11656" x="71.0605" y="38.4297" width="51.8228" height="53.4173" filterUnits="userSpaceOnUse" color-interpolation-filters="sRGB">
<feFlood flood-opacity="0" result="BackgroundImageFix"/>
<feBlend mode="normal" in="SourceGraphic" in2="BackgroundImageFix" result="shape"/>
<feColorMatrix in="SourceAlpha" type="matrix" values="0 0 0 0 0 0 0 0 0 0 0 0 0 0 0 0 0 0 127 0" result="hardAlpha"/>
<feOffset dy="1.59454"/>
<feGaussianBlur stdDeviation="1.59454"/>
<feComposite in2="hardAlpha" operator="arithmetic" k2="-1" k3="1"/>
<feColorMatrix type="matrix" values="0 0 0 0 0 0 0 0 0 0 0 0 0 0 0 0 0 0 0.2 0"/>
<feBlend mode="normal" in2="shape" result="effect1_innerShadow_5098_11656"/>
</filter>
<linearGradient id="paint0_linear_5098_11656" x1="46.8045" y1="18.1602" x2="54.3712" y2="51.9581" gradientUnits="userSpaceOnUse">
<stop stop-color="white"/>
<stop offset="1" stop-color="white" stop-opacity="0"/>
</linearGradient>
<linearGradient id="paint1_linear_5098_11656" x1="115.963" y1="9.27588" x2="128.343" y2="71.6085" gradientUnits="userSpaceOnUse">
<stop stop-color="white"/>
<stop offset="1" stop-color="white" stop-opacity="0"/>
</linearGradient>
<linearGradient id="paint2_linear_5098_11656" x1="95.7363" y1="45.3994" x2="107.796" y2="90.0731" gradientUnits="userSpaceOnUse">
<stop stop-color="white"/>
<stop offset="1" stop-color="white" stop-opacity="0"/>
</linearGradient>
<linearGradient id="paint3_linear_5098_11656" x1="-8.66734" y1="95.7147" x2="137.233" y2="163.881" gradientUnits="userSpaceOnUse">
<stop stop-color="#EFEFF8"/>
<stop offset="1" stop-color="#E5E5FF"/>
</linearGradient>
<linearGradient id="paint4_linear_5098_11656" x1="136.091" y1="117.031" x2="0.899902" y2="116.775" gradientUnits="userSpaceOnUse">
<stop stop-color="#322A3A"/>
<stop offset="0.852224" stop-color="#261931"/>
</linearGradient>
<linearGradient id="paint5_linear_5098_11656" x1="-8.66734" y1="98.7444" x2="137.233" y2="166.911" gradientUnits="userSpaceOnUse">
<stop stop-color="#EFEFF8"/>
<stop offset="1" stop-color="#E5E5FF"/>
</linearGradient>
<linearGradient id="paint6_linear_5098_11656" x1="-8.66734" y1="98.7444" x2="137.233" y2="166.911" gradientUnits="userSpaceOnUse">
<stop stop-color="#EFEFF8"/>
<stop offset="1" stop-color="#E5E5FF"/>
</linearGradient>
<linearGradient id="paint7_linear_5098_11656" x1="-28.7049" y1="83.8963" x2="117.594" y2="160.833" gradientUnits="userSpaceOnUse">
<stop stop-color="#483D51" stop-opacity="0.3"/>
<stop offset="1" stop-color="#312938"/>
</linearGradient>
<linearGradient id="paint8_linear_5098_11656" x1="131.147" y1="130.097" x2="190.248" y2="156.129" gradientUnits="userSpaceOnUse">
<stop offset="0.127555" stop-color="#61C5FF"/>
<stop offset="1" stop-color="#2A92FA"/>
</linearGradient>
<linearGradient id="paint9_linear_5098_11656" x1="178.072" y1="170.697" x2="116.062" y2="124.189" gradientUnits="userSpaceOnUse">
<stop stop-color="#44A0FD"/>
<stop offset="1" stop-color="#B2E3FF"/>
</linearGradient>
<linearGradient id="paint10_linear_5098_11656" x1="142.638" y1="139.251" x2="142.638" y2="167.599" gradientUnits="userSpaceOnUse">
<stop stop-color="white"/>
<stop offset="1" stop-color="#BDE4FF"/>
</linearGradient>
</defs>
</svg>
