<svg width="190" height="215" viewBox="0 0 190 215" fill="none" xmlns="http://www.w3.org/2000/svg">
<rect y="70.2998" width="190" height="44.65" rx="13.585" fill="#EFEFF8"/>
<rect y="70.2998" width="190" height="44.65" rx="13.585" fill="black" fill-opacity="0.1"/>
<g filter="url(#filter0_ii_4664_11060)">
<circle cx="55.575" cy="40.375" r="40.375" fill="#D9D9D9"/>
<circle cx="55.575" cy="40.375" r="40.375" fill="#61C5FF"/>
</g>
<g filter="url(#filter1_i_4664_11060)">
<circle cx="55.575" cy="40.375" r="30.875" fill="#61C5FF"/>
</g>
<circle cx="55.575" cy="40.375" r="28.975" stroke="black" stroke-opacity="0.05" stroke-width="3.8"/>
<g filter="url(#filter2_ii_4664_11060)">
<circle cx="138.225" cy="59.375" r="40.375" fill="#D9D9D9"/>
<circle cx="138.225" cy="59.375" r="40.375" fill="#FF630F"/>
</g>
<g filter="url(#filter3_i_4664_11060)">
<circle cx="138.225" cy="59.375" r="28.975" stroke="black" stroke-opacity="0.05" stroke-width="3.8"/>
</g>
<g filter="url(#filter4_ii_4664_11060)">
<circle cx="114.475" cy="80.2754" r="40.375" fill="#D9D9D9"/>
<circle cx="114.475" cy="80.2754" r="40.375" fill="#FFC414"/>
</g>
<g filter="url(#filter5_i_4664_11060)">
<circle cx="114.475" cy="80.2754" r="30.875" fill="#FFC414"/>
</g>
<circle cx="114.475" cy="80.2754" r="28.975" stroke="black" stroke-opacity="0.05" stroke-width="3.8"/>
<g filter="url(#filter6_ii_4664_11060)">
<path fill-rule="evenodd" clip-rule="evenodd" d="M73.6824 99.3286C69.8323 93.4597 64.2636 87.75 57.2445 87.75H13.5876C6.08338 87.75 0 93.8334 0 101.338V200.98C0 208.484 6.08338 214.568 13.5876 214.568H176.412C183.917 214.568 190 208.484 190 200.98V101.338C190 93.8334 183.917 87.75 176.412 87.75H132.755C125.736 87.75 120.167 93.4597 116.317 99.3286C111.766 106.267 103.918 110.849 94.9999 110.849C86.0819 110.849 78.2341 106.267 73.6824 99.3286Z" fill="#D9D9D9"/>
<path fill-rule="evenodd" clip-rule="evenodd" d="M73.6824 99.3286C69.8323 93.4597 64.2636 87.75 57.2445 87.75H13.5876C6.08338 87.75 0 93.8334 0 101.338V200.98C0 208.484 6.08338 214.568 13.5876 214.568H176.412C183.917 214.568 190 208.484 190 200.98V101.338C190 93.8334 183.917 87.75 176.412 87.75H132.755C125.736 87.75 120.167 93.4597 116.317 99.3286C111.766 106.267 103.918 110.849 94.9999 110.849C86.0819 110.849 78.2341 106.267 73.6824 99.3286Z" fill="url(#paint0_linear_4664_11060)"/>
<path fill-rule="evenodd" clip-rule="evenodd" d="M73.6824 99.3286C69.8323 93.4597 64.2636 87.75 57.2445 87.75H13.5876C6.08338 87.75 0 93.8334 0 101.338V200.98C0 208.484 6.08338 214.568 13.5876 214.568H176.412C183.917 214.568 190 208.484 190 200.98V101.338C190 93.8334 183.917 87.75 176.412 87.75H132.755C125.736 87.75 120.167 93.4597 116.317 99.3286C111.766 106.267 103.918 110.849 94.9999 110.849C86.0819 110.849 78.2341 106.267 73.6824 99.3286Z" fill="#312938"/>
<path fill-rule="evenodd" clip-rule="evenodd" d="M73.6824 99.3286C69.8323 93.4597 64.2636 87.75 57.2445 87.75H13.5876C6.08338 87.75 0 93.8334 0 101.338V200.98C0 208.484 6.08338 214.568 13.5876 214.568H176.412C183.917 214.568 190 208.484 190 200.98V101.338C190 93.8334 183.917 87.75 176.412 87.75H132.755C125.736 87.75 120.167 93.4597 116.317 99.3286C111.766 106.267 103.918 110.849 94.9999 110.849C86.0819 110.849 78.2341 106.267 73.6824 99.3286Z" fill="#EEEEEE"/>
<path fill-rule="evenodd" clip-rule="evenodd" d="M73.6824 99.3286C69.8323 93.4597 64.2636 87.75 57.2445 87.75H13.5876C6.08338 87.75 0 93.8334 0 101.338V200.98C0 208.484 6.08338 214.568 13.5876 214.568H176.412C183.917 214.568 190 208.484 190 200.98V101.338C190 93.8334 183.917 87.75 176.412 87.75H132.755C125.736 87.75 120.167 93.4597 116.317 99.3286C111.766 106.267 103.918 110.849 94.9999 110.849C86.0819 110.849 78.2341 106.267 73.6824 99.3286Z" fill="url(#paint1_linear_4664_11060)"/>
</g>
<g filter="url(#filter7_ii_4664_11060)">
<path d="M170.521 174.628C170.054 175.094 169.664 175.573 169.401 176.277C169.138 176.98 169.008 177.744 168.821 178.954C168.553 180.677 168.029 181.354 167.615 181.781C166.769 182.653 165.568 182.604 164.103 182.315C163.183 182.133 162.944 182.352 161.85 183.298L156.082 189.01L156.08 197.682C156.08 197.838 156.268 197.916 156.379 197.806L173.415 180.796C173.645 180.567 173.774 180.256 173.775 179.931L173.797 171.336L170.522 174.628H170.521Z" fill="#D1D1F2"/>
<path d="M163.647 180.054C164.757 180.086 165.531 180.889 166.445 180.314C167.359 179.738 167.333 179.096 167.51 178.036C167.688 176.976 168.04 175.742 168.354 174.997C168.668 174.252 169.371 173.3 170.086 172.606L173.768 168.774L173.792 164.914C173.793 164.678 173.507 164.558 173.34 164.725L156.594 181.471C156.265 181.8 156.081 182.246 156.081 182.711V186.511L161.737 180.833C161.737 180.833 162.536 180.023 163.646 180.054H163.647H163.647Z" fill="#D1D1F2"/>
<path d="M173.796 161.75L156.081 179.513V175.72C156.081 175.255 156.265 174.809 156.594 174.481L173.344 157.73C173.511 157.564 173.796 157.682 173.796 157.917V161.749V161.75Z" fill="#D1D1F2"/>
<path d="M172.433 155L142.44 161.535C141.366 161.768 140.6 162.719 140.6 163.819V185.72C140.6 186.045 140.729 186.357 140.959 186.588L153.58 199.208C153.837 199.466 154.278 199.283 154.278 198.919L154.28 175.448C154.28 174.673 154.587 173.93 155.135 173.383L172.81 155.689C173.099 155.4 172.832 154.913 172.433 154.999V155Z" fill="#D1D1F2"/>
</g>
<defs>
<filter id="filter0_ii_4664_11060" x="15.2" y="0" width="80.75" height="80.75" filterUnits="userSpaceOnUse" color-interpolation-filters="sRGB">
<feFlood flood-opacity="0" result="BackgroundImageFix"/>
<feBlend mode="normal" in="SourceGraphic" in2="BackgroundImageFix" result="shape"/>
<feColorMatrix in="SourceAlpha" type="matrix" values="0 0 0 0 0 0 0 0 0 0 0 0 0 0 0 0 0 0 127 0" result="hardAlpha"/>
<feOffset dy="-3.8"/>
<feComposite in2="hardAlpha" operator="arithmetic" k2="-1" k3="1"/>
<feColorMatrix type="matrix" values="0 0 0 0 0 0 0 0 0 0 0 0 0 0 0 0 0 0 0.25 0"/>
<feBlend mode="normal" in2="shape" result="effect1_innerShadow_4664_11060"/>
<feColorMatrix in="SourceAlpha" type="matrix" values="0 0 0 0 0 0 0 0 0 0 0 0 0 0 0 0 0 0 127 0" result="hardAlpha"/>
<feOffset dy="3.8"/>
<feComposite in2="hardAlpha" operator="arithmetic" k2="-1" k3="1"/>
<feColorMatrix type="matrix" values="0 0 0 0 1 0 0 0 0 1 0 0 0 0 1 0 0 0 0.5 0"/>
<feBlend mode="normal" in2="effect1_innerShadow_4664_11060" result="effect2_innerShadow_4664_11060"/>
</filter>
<filter id="filter1_i_4664_11060" x="24.7" y="9.5" width="61.75" height="63.65" filterUnits="userSpaceOnUse" color-interpolation-filters="sRGB">
<feFlood flood-opacity="0" result="BackgroundImageFix"/>
<feBlend mode="normal" in="SourceGraphic" in2="BackgroundImageFix" result="shape"/>
<feColorMatrix in="SourceAlpha" type="matrix" values="0 0 0 0 0 0 0 0 0 0 0 0 0 0 0 0 0 0 127 0" result="hardAlpha"/>
<feOffset dy="1.9"/>
<feGaussianBlur stdDeviation="1.9"/>
<feComposite in2="hardAlpha" operator="arithmetic" k2="-1" k3="1"/>
<feColorMatrix type="matrix" values="0 0 0 0 0 0 0 0 0 0 0 0 0 0 0 0 0 0 0.2 0"/>
<feBlend mode="normal" in2="shape" result="effect1_innerShadow_4664_11060"/>
</filter>
<filter id="filter2_ii_4664_11060" x="97.8499" y="19" width="80.75" height="80.75" filterUnits="userSpaceOnUse" color-interpolation-filters="sRGB">
<feFlood flood-opacity="0" result="BackgroundImageFix"/>
<feBlend mode="normal" in="SourceGraphic" in2="BackgroundImageFix" result="shape"/>
<feColorMatrix in="SourceAlpha" type="matrix" values="0 0 0 0 0 0 0 0 0 0 0 0 0 0 0 0 0 0 127 0" result="hardAlpha"/>
<feOffset dy="-3.8"/>
<feComposite in2="hardAlpha" operator="arithmetic" k2="-1" k3="1"/>
<feColorMatrix type="matrix" values="0 0 0 0 0 0 0 0 0 0 0 0 0 0 0 0 0 0 0.25 0"/>
<feBlend mode="normal" in2="shape" result="effect1_innerShadow_4664_11060"/>
<feColorMatrix in="SourceAlpha" type="matrix" values="0 0 0 0 0 0 0 0 0 0 0 0 0 0 0 0 0 0 127 0" result="hardAlpha"/>
<feOffset dy="3.8"/>
<feComposite in2="hardAlpha" operator="arithmetic" k2="-1" k3="1"/>
<feColorMatrix type="matrix" values="0 0 0 0 1 0 0 0 0 1 0 0 0 0 1 0 0 0 0.5 0"/>
<feBlend mode="normal" in2="effect1_innerShadow_4664_11060" result="effect2_innerShadow_4664_11060"/>
</filter>
<filter id="filter3_i_4664_11060" x="107.35" y="28.5" width="61.75" height="63.65" filterUnits="userSpaceOnUse" color-interpolation-filters="sRGB">
<feFlood flood-opacity="0" result="BackgroundImageFix"/>
<feBlend mode="normal" in="SourceGraphic" in2="BackgroundImageFix" result="shape"/>
<feColorMatrix in="SourceAlpha" type="matrix" values="0 0 0 0 0 0 0 0 0 0 0 0 0 0 0 0 0 0 127 0" result="hardAlpha"/>
<feOffset dy="1.9"/>
<feGaussianBlur stdDeviation="1.9"/>
<feComposite in2="hardAlpha" operator="arithmetic" k2="-1" k3="1"/>
<feColorMatrix type="matrix" values="0 0 0 0 0 0 0 0 0 0 0 0 0 0 0 0 0 0 0.2 0"/>
<feBlend mode="normal" in2="shape" result="effect1_innerShadow_4664_11060"/>
</filter>
<filter id="filter4_ii_4664_11060" x="74.1001" y="39.9004" width="80.75" height="80.75" filterUnits="userSpaceOnUse" color-interpolation-filters="sRGB">
<feFlood flood-opacity="0" result="BackgroundImageFix"/>
<feBlend mode="normal" in="SourceGraphic" in2="BackgroundImageFix" result="shape"/>
<feColorMatrix in="SourceAlpha" type="matrix" values="0 0 0 0 0 0 0 0 0 0 0 0 0 0 0 0 0 0 127 0" result="hardAlpha"/>
<feOffset dy="-3.8"/>
<feComposite in2="hardAlpha" operator="arithmetic" k2="-1" k3="1"/>
<feColorMatrix type="matrix" values="0 0 0 0 0 0 0 0 0 0 0 0 0 0 0 0 0 0 0.25 0"/>
<feBlend mode="normal" in2="shape" result="effect1_innerShadow_4664_11060"/>
<feColorMatrix in="SourceAlpha" type="matrix" values="0 0 0 0 0 0 0 0 0 0 0 0 0 0 0 0 0 0 127 0" result="hardAlpha"/>
<feOffset dy="3.8"/>
<feComposite in2="hardAlpha" operator="arithmetic" k2="-1" k3="1"/>
<feColorMatrix type="matrix" values="0 0 0 0 1 0 0 0 0 1 0 0 0 0 1 0 0 0 0.5 0"/>
<feBlend mode="normal" in2="effect1_innerShadow_4664_11060" result="effect2_innerShadow_4664_11060"/>
</filter>
<filter id="filter5_i_4664_11060" x="83.5999" y="49.4004" width="61.75" height="63.65" filterUnits="userSpaceOnUse" color-interpolation-filters="sRGB">
<feFlood flood-opacity="0" result="BackgroundImageFix"/>
<feBlend mode="normal" in="SourceGraphic" in2="BackgroundImageFix" result="shape"/>
<feColorMatrix in="SourceAlpha" type="matrix" values="0 0 0 0 0 0 0 0 0 0 0 0 0 0 0 0 0 0 127 0" result="hardAlpha"/>
<feOffset dy="1.9"/>
<feGaussianBlur stdDeviation="1.9"/>
<feComposite in2="hardAlpha" operator="arithmetic" k2="-1" k3="1"/>
<feColorMatrix type="matrix" values="0 0 0 0 0 0 0 0 0 0 0 0 0 0 0 0 0 0 0.2 0"/>
<feBlend mode="normal" in2="shape" result="effect1_innerShadow_4664_11060"/>
</filter>
<filter id="filter6_ii_4664_11060" x="0" y="87.2675" width="190" height="127.782" filterUnits="userSpaceOnUse" color-interpolation-filters="sRGB">
<feFlood flood-opacity="0" result="BackgroundImageFix"/>
<feBlend mode="normal" in="SourceGraphic" in2="BackgroundImageFix" result="shape"/>
<feColorMatrix in="SourceAlpha" type="matrix" values="0 0 0 0 0 0 0 0 0 0 0 0 0 0 0 0 0 0 127 0" result="hardAlpha"/>
<feOffset dy="-3.61905"/>
<feGaussianBlur stdDeviation="0.24127"/>
<feComposite in2="hardAlpha" operator="arithmetic" k2="-1" k3="1"/>
<feColorMatrix type="matrix" values="0 0 0 0 0 0 0 0 0 0 0 0 0 0 0 0 0 0 0.2 0"/>
<feBlend mode="normal" in2="shape" result="effect1_innerShadow_4664_11060"/>
<feColorMatrix in="SourceAlpha" type="matrix" values="0 0 0 0 0 0 0 0 0 0 0 0 0 0 0 0 0 0 127 0" result="hardAlpha"/>
<feOffset dy="3.61905"/>
<feGaussianBlur stdDeviation="0.24127"/>
<feComposite in2="hardAlpha" operator="arithmetic" k2="-1" k3="1"/>
<feColorMatrix type="matrix" values="0 0 0 0 1 0 0 0 0 1 0 0 0 0 1 0 0 0 1 0"/>
<feBlend mode="normal" in2="effect1_innerShadow_4664_11060" result="effect2_innerShadow_4664_11060"/>
</filter>
<filter id="filter7_ii_4664_11060" x="140.6" y="154.851" width="33.25" height="44.5664" filterUnits="userSpaceOnUse" color-interpolation-filters="sRGB">
<feFlood flood-opacity="0" result="BackgroundImageFix"/>
<feBlend mode="normal" in="SourceGraphic" in2="BackgroundImageFix" result="shape"/>
<feColorMatrix in="SourceAlpha" type="matrix" values="0 0 0 0 0 0 0 0 0 0 0 0 0 0 0 0 0 0 127 0" result="hardAlpha"/>
<feOffset dy="1.05556"/>
<feComposite in2="hardAlpha" operator="arithmetic" k2="-1" k3="1"/>
<feColorMatrix type="matrix" values="0 0 0 0 1 0 0 0 0 1 0 0 0 0 1 0 0 0 1 0"/>
<feBlend mode="normal" in2="shape" result="effect1_innerShadow_4664_11060"/>
<feColorMatrix in="SourceAlpha" type="matrix" values="0 0 0 0 0 0 0 0 0 0 0 0 0 0 0 0 0 0 127 0" result="hardAlpha"/>
<feOffset dy="-1.05556"/>
<feComposite in2="hardAlpha" operator="arithmetic" k2="-1" k3="1"/>
<feColorMatrix type="matrix" values="0 0 0 0 0 0 0 0 0 0 0 0 0 0 0 0 0 0 0.1 0"/>
<feBlend mode="normal" in2="effect1_innerShadow_4664_11060" result="effect2_innerShadow_4664_11060"/>
</filter>
<linearGradient id="paint0_linear_4664_11060" x1="95" y1="93.185" x2="186.301" y2="234.609" gradientUnits="userSpaceOnUse">
<stop stop-color="white"/>
<stop offset="1" stop-color="#EFEFF8"/>
</linearGradient>
<linearGradient id="paint1_linear_4664_11060" x1="-11.4" y1="129.674" x2="162.45" y2="210.899" gradientUnits="userSpaceOnUse">
<stop stop-color="#EFEFF8"/>
<stop offset="1" stop-color="#E5E5FF"/>
</linearGradient>
</defs>
</svg>
