<svg width="375" height="304" viewBox="0 0 375 304" fill="none" xmlns="http://www.w3.org/2000/svg">
<rect x="-40" width="475" height="304" fill="url(#paint0_linear_5249_9340)"/>
<g filter="url(#filter0_df_5249_9340)">
<circle cx="298.5" cy="121.5" r="2.5" fill="#E0E7FA"/>
</g>
<g opacity="0.5" filter="url(#filter1_df_5249_9340)">
<ellipse cx="261" cy="64.5" rx="1" ry="2.5" fill="#E0E7FA"/>
</g>
<g filter="url(#filter2_df_5249_9340)">
<path d="M95.5 59L96.3061 65.6939L103 66.5L96.3061 67.3061L95.5 74L94.6939 67.3061L88 66.5L94.6939 65.6939L95.5 59Z" fill="#D7E2F7"/>
</g>
<g filter="url(#filter3_df_5249_9340)">
<path d="M38.5 156L39.3061 162.694L46 163.5L39.3061 164.306L38.5 171L37.6939 164.306L31 163.5L37.6939 162.694L38.5 156Z" fill="#D7E2F7"/>
</g>
<g filter="url(#filter4_df_5249_9340)">
<path d="M336.5 79L337.306 85.6939L344 86.5L337.306 87.3061L336.5 94L335.694 87.3061L329 86.5L335.694 85.6939L336.5 79Z" fill="#D7E2F7"/>
</g>
<g filter="url(#filter5_df_5249_9340)">
<path d="M75.5 123.5L76.1449 128.855L81.5 129.5L76.1449 130.145L75.5 135.5L74.8551 130.145L69.5 129.5L74.8551 128.855L75.5 123.5Z" fill="#D7E2F7"/>
</g>
<g filter="url(#filter6_df_5249_9340)">
<circle cx="271.5" cy="216.5" r="2.5" fill="#E0E7FA"/>
</g>
<g filter="url(#filter7_df_5249_9340)">
<path d="M316.5 171L317.844 182.156L329 183.5L317.844 184.844L316.5 196L315.156 184.844L304 183.5L315.156 182.156L316.5 171Z" fill="#D7E2F7"/>
</g>
<line x1="316.5" y1="161" x2="316.5" y2="207" stroke="url(#paint1_linear_5249_9340)"/>
<line x1="293" y1="183.5" x2="339" y2="183.5" stroke="url(#paint2_linear_5249_9340)"/>
<g opacity="0.2">
<g filter="url(#filter8_df_5249_9340)">
<path d="M54.5 77L55.8435 88.1565L67 89.5L55.8435 90.8435L54.5 102L53.1565 90.8435L42 89.5L53.1565 88.1565L54.5 77Z" fill="#D7E2F7"/>
</g>
<line x1="54.5" y1="67" x2="54.5" y2="113" stroke="url(#paint3_linear_5249_9340)"/>
<line x1="31" y1="89.5" x2="77" y2="89.5" stroke="url(#paint4_linear_5249_9340)"/>
</g>
<g opacity="0.5" filter="url(#filter9_df_5249_9340)">
<ellipse cx="102" cy="173.5" rx="1" ry="2.5" fill="#E0E7FA"/>
</g>
<path d="M176.165 126.986C174.967 129.623 174.3 132.551 174.3 135.636C174.3 147.197 183.672 156.569 195.232 156.569C200.746 156.569 205.761 154.436 209.5 150.951C206.208 158.196 198.909 163.235 190.433 163.235C178.872 163.235 169.5 153.863 169.5 142.302C169.5 136.255 172.065 130.808 176.165 126.986Z" fill="#D9D9D9"/>
<path d="M176.165 126.986C174.967 129.623 174.3 132.551 174.3 135.636C174.3 147.197 183.672 156.569 195.232 156.569C200.746 156.569 205.761 154.436 209.5 150.951C206.208 158.196 198.909 163.235 190.433 163.235C178.872 163.235 169.5 153.863 169.5 142.302C169.5 136.255 172.065 130.808 176.165 126.986Z" fill="url(#paint5_linear_5249_9340)"/>
<path d="M176.165 126.986C174.967 129.623 174.3 132.551 174.3 135.636C174.3 147.197 183.672 156.569 195.232 156.569C200.746 156.569 205.761 154.436 209.5 150.951C206.208 158.196 198.909 163.235 190.433 163.235C178.872 163.235 169.5 153.863 169.5 142.302C169.5 136.255 172.065 130.808 176.165 126.986Z" fill="url(#paint6_linear_5249_9340)"/>
<g opacity="0.5" filter="url(#filter10_f_5249_9340)">
<path d="M176.165 126.986C174.967 129.623 174.3 132.551 174.3 135.636C174.3 147.197 183.672 156.569 195.232 156.569C200.746 156.569 205.761 154.436 209.5 150.951C206.208 158.196 198.909 163.235 190.433 163.235C178.872 163.235 169.5 153.863 169.5 142.302C169.5 136.255 172.065 130.808 176.165 126.986Z" fill="#D9D9D9"/>
<path d="M176.165 126.986C174.967 129.623 174.3 132.551 174.3 135.636C174.3 147.197 183.672 156.569 195.232 156.569C200.746 156.569 205.761 154.436 209.5 150.951C206.208 158.196 198.909 163.235 190.433 163.235C178.872 163.235 169.5 153.863 169.5 142.302C169.5 136.255 172.065 130.808 176.165 126.986Z" fill="url(#paint7_linear_5249_9340)"/>
<path d="M176.165 126.986C174.967 129.623 174.3 132.551 174.3 135.636C174.3 147.197 183.672 156.569 195.232 156.569C200.746 156.569 205.761 154.436 209.5 150.951C206.208 158.196 198.909 163.235 190.433 163.235C178.872 163.235 169.5 153.863 169.5 142.302C169.5 136.255 172.065 130.808 176.165 126.986Z" fill="url(#paint8_linear_5249_9340)"/>
</g>
<defs>
<filter id="filter0_df_5249_9340" x="284.5" y="107.5" width="28" height="28" filterUnits="userSpaceOnUse" color-interpolation-filters="sRGB">
<feFlood flood-opacity="0" result="BackgroundImageFix"/>
<feColorMatrix in="SourceAlpha" type="matrix" values="0 0 0 0 0 0 0 0 0 0 0 0 0 0 0 0 0 0 127 0" result="hardAlpha"/>
<feMorphology radius="1" operator="dilate" in="SourceAlpha" result="effect1_dropShadow_5249_9340"/>
<feOffset/>
<feGaussianBlur stdDeviation="5.25"/>
<feComposite in2="hardAlpha" operator="out"/>
<feColorMatrix type="matrix" values="0 0 0 0 1 0 0 0 0 1 0 0 0 0 1 0 0 0 0.7 0"/>
<feBlend mode="normal" in2="BackgroundImageFix" result="effect1_dropShadow_5249_9340"/>
<feBlend mode="normal" in="SourceGraphic" in2="effect1_dropShadow_5249_9340" result="shape"/>
<feGaussianBlur stdDeviation="2" result="effect2_foregroundBlur_5249_9340"/>
</filter>
<filter id="filter1_df_5249_9340" x="248.5" y="50.5" width="25" height="28" filterUnits="userSpaceOnUse" color-interpolation-filters="sRGB">
<feFlood flood-opacity="0" result="BackgroundImageFix"/>
<feColorMatrix in="SourceAlpha" type="matrix" values="0 0 0 0 0 0 0 0 0 0 0 0 0 0 0 0 0 0 127 0" result="hardAlpha"/>
<feMorphology radius="1" operator="dilate" in="SourceAlpha" result="effect1_dropShadow_5249_9340"/>
<feOffset/>
<feGaussianBlur stdDeviation="5.25"/>
<feComposite in2="hardAlpha" operator="out"/>
<feColorMatrix type="matrix" values="0 0 0 0 1 0 0 0 0 1 0 0 0 0 1 0 0 0 0.7 0"/>
<feBlend mode="normal" in2="BackgroundImageFix" result="effect1_dropShadow_5249_9340"/>
<feBlend mode="normal" in="SourceGraphic" in2="effect1_dropShadow_5249_9340" result="shape"/>
<feGaussianBlur stdDeviation="2" result="effect2_foregroundBlur_5249_9340"/>
</filter>
<filter id="filter2_df_5249_9340" x="81.1" y="52.1" width="28.8" height="28.8" filterUnits="userSpaceOnUse" color-interpolation-filters="sRGB">
<feFlood flood-opacity="0" result="BackgroundImageFix"/>
<feColorMatrix in="SourceAlpha" type="matrix" values="0 0 0 0 0 0 0 0 0 0 0 0 0 0 0 0 0 0 127 0" result="hardAlpha"/>
<feMorphology radius="0.6" operator="dilate" in="SourceAlpha" result="effect1_dropShadow_5249_9340"/>
<feOffset/>
<feGaussianBlur stdDeviation="3.15"/>
<feComposite in2="hardAlpha" operator="out"/>
<feColorMatrix type="matrix" values="0 0 0 0 1 0 0 0 0 1 0 0 0 0 1 0 0 0 0.7 0"/>
<feBlend mode="normal" in2="BackgroundImageFix" result="effect1_dropShadow_5249_9340"/>
<feBlend mode="normal" in="SourceGraphic" in2="effect1_dropShadow_5249_9340" result="shape"/>
<feGaussianBlur stdDeviation="0.3" result="effect2_foregroundBlur_5249_9340"/>
</filter>
<filter id="filter3_df_5249_9340" x="24.1" y="149.1" width="28.8" height="28.8" filterUnits="userSpaceOnUse" color-interpolation-filters="sRGB">
<feFlood flood-opacity="0" result="BackgroundImageFix"/>
<feColorMatrix in="SourceAlpha" type="matrix" values="0 0 0 0 0 0 0 0 0 0 0 0 0 0 0 0 0 0 127 0" result="hardAlpha"/>
<feMorphology radius="0.6" operator="dilate" in="SourceAlpha" result="effect1_dropShadow_5249_9340"/>
<feOffset/>
<feGaussianBlur stdDeviation="3.15"/>
<feComposite in2="hardAlpha" operator="out"/>
<feColorMatrix type="matrix" values="0 0 0 0 1 0 0 0 0 1 0 0 0 0 1 0 0 0 0.7 0"/>
<feBlend mode="normal" in2="BackgroundImageFix" result="effect1_dropShadow_5249_9340"/>
<feBlend mode="normal" in="SourceGraphic" in2="effect1_dropShadow_5249_9340" result="shape"/>
<feGaussianBlur stdDeviation="0.3" result="effect2_foregroundBlur_5249_9340"/>
</filter>
<filter id="filter4_df_5249_9340" x="322.1" y="72.1" width="28.8" height="28.8" filterUnits="userSpaceOnUse" color-interpolation-filters="sRGB">
<feFlood flood-opacity="0" result="BackgroundImageFix"/>
<feColorMatrix in="SourceAlpha" type="matrix" values="0 0 0 0 0 0 0 0 0 0 0 0 0 0 0 0 0 0 127 0" result="hardAlpha"/>
<feMorphology radius="0.6" operator="dilate" in="SourceAlpha" result="effect1_dropShadow_5249_9340"/>
<feOffset/>
<feGaussianBlur stdDeviation="3.15"/>
<feComposite in2="hardAlpha" operator="out"/>
<feColorMatrix type="matrix" values="0 0 0 0 1 0 0 0 0 1 0 0 0 0 1 0 0 0 0.7 0"/>
<feBlend mode="normal" in2="BackgroundImageFix" result="effect1_dropShadow_5249_9340"/>
<feBlend mode="normal" in="SourceGraphic" in2="effect1_dropShadow_5249_9340" result="shape"/>
<feGaussianBlur stdDeviation="0.3" result="effect2_foregroundBlur_5249_9340"/>
</filter>
<filter id="filter5_df_5249_9340" x="63.98" y="117.98" width="23.04" height="23.04" filterUnits="userSpaceOnUse" color-interpolation-filters="sRGB">
<feFlood flood-opacity="0" result="BackgroundImageFix"/>
<feColorMatrix in="SourceAlpha" type="matrix" values="0 0 0 0 0 0 0 0 0 0 0 0 0 0 0 0 0 0 127 0" result="hardAlpha"/>
<feMorphology radius="0.48" operator="dilate" in="SourceAlpha" result="effect1_dropShadow_5249_9340"/>
<feOffset/>
<feGaussianBlur stdDeviation="2.52"/>
<feComposite in2="hardAlpha" operator="out"/>
<feColorMatrix type="matrix" values="0 0 0 0 1 0 0 0 0 1 0 0 0 0 1 0 0 0 0.7 0"/>
<feBlend mode="normal" in2="BackgroundImageFix" result="effect1_dropShadow_5249_9340"/>
<feBlend mode="normal" in="SourceGraphic" in2="effect1_dropShadow_5249_9340" result="shape"/>
<feGaussianBlur stdDeviation="0.24" result="effect2_foregroundBlur_5249_9340"/>
</filter>
<filter id="filter6_df_5249_9340" x="257.5" y="202.5" width="28" height="28" filterUnits="userSpaceOnUse" color-interpolation-filters="sRGB">
<feFlood flood-opacity="0" result="BackgroundImageFix"/>
<feColorMatrix in="SourceAlpha" type="matrix" values="0 0 0 0 0 0 0 0 0 0 0 0 0 0 0 0 0 0 127 0" result="hardAlpha"/>
<feMorphology radius="1" operator="dilate" in="SourceAlpha" result="effect1_dropShadow_5249_9340"/>
<feOffset/>
<feGaussianBlur stdDeviation="5.25"/>
<feComposite in2="hardAlpha" operator="out"/>
<feColorMatrix type="matrix" values="0 0 0 0 1 0 0 0 0 1 0 0 0 0 1 0 0 0 0.7 0"/>
<feBlend mode="normal" in2="BackgroundImageFix" result="effect1_dropShadow_5249_9340"/>
<feBlend mode="normal" in="SourceGraphic" in2="effect1_dropShadow_5249_9340" result="shape"/>
<feGaussianBlur stdDeviation="2" result="effect2_foregroundBlur_5249_9340"/>
</filter>
<filter id="filter7_df_5249_9340" x="292.5" y="159.5" width="48" height="48" filterUnits="userSpaceOnUse" color-interpolation-filters="sRGB">
<feFlood flood-opacity="0" result="BackgroundImageFix"/>
<feColorMatrix in="SourceAlpha" type="matrix" values="0 0 0 0 0 0 0 0 0 0 0 0 0 0 0 0 0 0 127 0" result="hardAlpha"/>
<feMorphology radius="1" operator="dilate" in="SourceAlpha" result="effect1_dropShadow_5249_9340"/>
<feOffset/>
<feGaussianBlur stdDeviation="5.25"/>
<feComposite in2="hardAlpha" operator="out"/>
<feColorMatrix type="matrix" values="0 0 0 0 1 0 0 0 0 1 0 0 0 0 1 0 0 0 0.7 0"/>
<feBlend mode="normal" in2="BackgroundImageFix" result="effect1_dropShadow_5249_9340"/>
<feBlend mode="normal" in="SourceGraphic" in2="effect1_dropShadow_5249_9340" result="shape"/>
<feGaussianBlur stdDeviation="0.5" result="effect2_foregroundBlur_5249_9340"/>
</filter>
<filter id="filter8_df_5249_9340" x="30.5" y="65.5" width="48" height="48" filterUnits="userSpaceOnUse" color-interpolation-filters="sRGB">
<feFlood flood-opacity="0" result="BackgroundImageFix"/>
<feColorMatrix in="SourceAlpha" type="matrix" values="0 0 0 0 0 0 0 0 0 0 0 0 0 0 0 0 0 0 127 0" result="hardAlpha"/>
<feMorphology radius="1" operator="dilate" in="SourceAlpha" result="effect1_dropShadow_5249_9340"/>
<feOffset/>
<feGaussianBlur stdDeviation="5.25"/>
<feComposite in2="hardAlpha" operator="out"/>
<feColorMatrix type="matrix" values="0 0 0 0 1 0 0 0 0 1 0 0 0 0 1 0 0 0 0.7 0"/>
<feBlend mode="normal" in2="BackgroundImageFix" result="effect1_dropShadow_5249_9340"/>
<feBlend mode="normal" in="SourceGraphic" in2="effect1_dropShadow_5249_9340" result="shape"/>
<feGaussianBlur stdDeviation="0.5" result="effect2_foregroundBlur_5249_9340"/>
</filter>
<filter id="filter9_df_5249_9340" x="89.5" y="159.5" width="25" height="28" filterUnits="userSpaceOnUse" color-interpolation-filters="sRGB">
<feFlood flood-opacity="0" result="BackgroundImageFix"/>
<feColorMatrix in="SourceAlpha" type="matrix" values="0 0 0 0 0 0 0 0 0 0 0 0 0 0 0 0 0 0 127 0" result="hardAlpha"/>
<feMorphology radius="1" operator="dilate" in="SourceAlpha" result="effect1_dropShadow_5249_9340"/>
<feOffset/>
<feGaussianBlur stdDeviation="5.25"/>
<feComposite in2="hardAlpha" operator="out"/>
<feColorMatrix type="matrix" values="0 0 0 0 1 0 0 0 0 1 0 0 0 0 1 0 0 0 0.7 0"/>
<feBlend mode="normal" in2="BackgroundImageFix" result="effect1_dropShadow_5249_9340"/>
<feBlend mode="normal" in="SourceGraphic" in2="effect1_dropShadow_5249_9340" result="shape"/>
<feGaussianBlur stdDeviation="2" result="effect2_foregroundBlur_5249_9340"/>
</filter>
<filter id="filter10_f_5249_9340" x="156.1" y="113.586" width="66.8" height="63.049" filterUnits="userSpaceOnUse" color-interpolation-filters="sRGB">
<feFlood flood-opacity="0" result="BackgroundImageFix"/>
<feBlend mode="normal" in="SourceGraphic" in2="BackgroundImageFix" result="shape"/>
<feGaussianBlur stdDeviation="6.7" result="effect1_foregroundBlur_5249_9340"/>
</filter>
<linearGradient id="paint0_linear_5249_9340" x1="198" y1="22.9607" x2="198" y2="268.181" gradientUnits="userSpaceOnUse">
<stop stop-color="#142040"/>
<stop offset="0.682692" stop-color="#14234B"/>
<stop offset="1" stop-color="#1B284A" stop-opacity="0"/>
</linearGradient>
<linearGradient id="paint1_linear_5249_9340" x1="315.5" y1="161" x2="315.5" y2="207" gradientUnits="userSpaceOnUse">
<stop stop-color="#D7E2F7" stop-opacity="0"/>
<stop offset="0.466346" stop-color="#D7E2F7"/>
<stop offset="1" stop-color="#D7E2F7" stop-opacity="0"/>
</linearGradient>
<linearGradient id="paint2_linear_5249_9340" x1="293" y1="184.5" x2="339" y2="184.5" gradientUnits="userSpaceOnUse">
<stop stop-color="#D7E2F7" stop-opacity="0"/>
<stop offset="0.466346" stop-color="#D7E2F7"/>
<stop offset="1" stop-color="#D7E2F7" stop-opacity="0"/>
</linearGradient>
<linearGradient id="paint3_linear_5249_9340" x1="53.5" y1="67" x2="53.5" y2="113" gradientUnits="userSpaceOnUse">
<stop stop-color="#D7E2F7" stop-opacity="0"/>
<stop offset="0.466346" stop-color="#D7E2F7"/>
<stop offset="1" stop-color="#D7E2F7" stop-opacity="0"/>
</linearGradient>
<linearGradient id="paint4_linear_5249_9340" x1="31" y1="90.5" x2="77" y2="90.5" gradientUnits="userSpaceOnUse">
<stop stop-color="#D7E2F7" stop-opacity="0"/>
<stop offset="0.466346" stop-color="#D7E2F7"/>
<stop offset="1" stop-color="#D7E2F7" stop-opacity="0"/>
</linearGradient>
<linearGradient id="paint5_linear_5249_9340" x1="189.5" y1="126.986" x2="189.5" y2="163.235" gradientUnits="userSpaceOnUse">
<stop stop-color="#D7E2F7"/>
<stop offset="1" stop-color="#7891C1"/>
</linearGradient>
<linearGradient id="paint6_linear_5249_9340" x1="189.5" y1="126.986" x2="195.774" y2="163.063" gradientUnits="userSpaceOnUse">
<stop stop-color="white"/>
<stop offset="1" stop-color="#7891C1"/>
</linearGradient>
<linearGradient id="paint7_linear_5249_9340" x1="189.5" y1="126.986" x2="189.5" y2="163.235" gradientUnits="userSpaceOnUse">
<stop stop-color="#D7E2F7"/>
<stop offset="1" stop-color="#7891C1"/>
</linearGradient>
<linearGradient id="paint8_linear_5249_9340" x1="189.5" y1="126.986" x2="195.774" y2="163.063" gradientUnits="userSpaceOnUse">
<stop stop-color="white"/>
<stop offset="1" stop-color="#7891C1"/>
</linearGradient>
</defs>
</svg>
