<svg width="45" height="45" viewBox="0 0 45 45" fill="none" xmlns="http://www.w3.org/2000/svg">
<rect x="1" y="1" width="43" height="43" rx="6.03125" fill="#FF45D9"/>
<rect x="1" y="1" width="43" height="43" rx="6.03125" stroke="black" stroke-width="2"/>
<g clip-path="url(#clip0_7309_8743)">
<path d="M36.0281 16.3406C32.7937 8.74683 23.9812 5.18433 16.3406 8.37183C8.69996 11.5593 5.13746 20.4187 8.37183 28.0125C11.6062 35.6062 20.4187 39.2156 28.0125 35.9812C31.6218 34.4812 34.4812 31.6218 35.9812 28.0125C37.575 24.3093 37.575 20.0906 36.0281 16.3406Z" fill="#FF2AD4"/>
<path d="M36.0281 16.3406C32.7937 8.74683 23.9812 5.18433 16.3406 8.37183C8.69996 11.5593 5.13746 20.4187 8.37183 28.0125C11.6062 35.6062 20.4187 39.2156 28.0125 35.9812C31.6218 34.4812 34.4812 31.6218 35.9812 28.0125C37.575 24.3093 37.575 20.0906 36.0281 16.3406Z" fill="#FF45D9"/>
<path d="M10.3346 19.4514H14.2897V26.9758V30.0627L16.5084 27.9404L22.2481 22.5383L27.9396 27.9404L30.1583 30.0627V26.9758V19.4514H34.0652C34.2581 20.3196 34.3546 21.2361 34.3546 22.1525C34.3546 28.8569 28.9042 34.3554 22.1999 34.3554C15.4955 34.3554 9.99694 28.8569 9.99694 22.1525C9.99694 21.2361 10.0934 20.3196 10.3346 19.4514ZM9.32168 18.1009C7.10297 25.2394 11.0581 32.812 18.1965 35.0307C25.335 37.2494 32.9076 33.2461 35.0781 26.1558C35.4639 24.8535 35.7051 23.503 35.7051 22.1525C35.7051 20.802 35.5121 19.4514 35.0781 18.1009H28.856L28.8078 26.9758L22.2481 20.6573L15.592 26.9758V18.1009H9.32168Z" fill="white"/>
<path d="M15.592 16.7985H16.8943V18.149V23.937L21.2835 19.7407L22.1999 18.8725L23.1163 19.7407L27.5055 23.8887V18.1008V16.7985H34.5958C31.6053 9.94943 23.5987 6.86252 16.7978 9.85296C13.7109 11.2035 11.2028 13.7116 9.85229 16.7985H15.592Z" fill="white"/>
</g>
<defs>
<clipPath id="clip0_7309_8743">
<rect width="30" height="30" fill="white" transform="translate(7.19995 7.20001)"/>
</clipPath>
</defs>
</svg>
