<svg width="45" height="45" viewBox="0 0 45 45" fill="none" xmlns="http://www.w3.org/2000/svg">
<rect x="1" y="1" width="43" height="43" rx="6.03125" fill="#FF45D9"/>
<rect x="1" y="1" width="43" height="43" rx="6.03125" stroke="black" stroke-width="2"/>
<g clip-path="url(#clip0_7309_8743)">
<path d="M36.8281 17.1406C33.5938 9.54682 24.7813 5.98432 17.1406 9.17182C9.5 12.3593 5.9375 21.2187 9.17188 28.8124C12.4063 36.4062 21.2188 40.0156 28.8125 36.7812C32.4219 35.2812 35.2813 32.4218 36.7813 28.8124C38.375 25.1093 38.375 20.8906 36.8281 17.1406Z" fill="#FF2AD4"/>
<path d="M36.8281 17.1406C33.5938 9.54682 24.7813 5.98432 17.1406 9.17182C9.5 12.3593 5.9375 21.2187 9.17188 28.8124C12.4063 36.4062 21.2188 40.0156 28.8125 36.7812C32.4219 35.2812 35.2813 32.4218 36.7813 28.8124C38.375 25.1093 38.375 20.8906 36.8281 17.1406Z" fill="#FF45D9"/>
<path d="M11.1346 20.2514H15.0897V27.7758V30.8627L17.3084 28.7404L23.0481 23.3383L28.7396 28.7404L30.9583 30.8627V27.7758V20.2514H34.8652C35.0581 21.1196 35.1546 22.036 35.1546 22.9525C35.1546 29.6568 29.7043 35.1554 22.9999 35.1554C16.2955 35.1554 10.797 29.6568 10.797 22.9525C10.797 22.036 10.8935 21.1196 11.1346 20.2514ZM10.1217 18.9009C7.90302 26.0394 11.8581 33.6119 18.9966 35.8307C26.1351 38.0494 33.7076 34.046 35.8781 26.9558C36.264 25.6535 36.5051 24.303 36.5051 22.9525C36.5051 21.602 36.3122 20.2514 35.8781 18.9009H29.6561L29.6078 27.7758L23.0481 21.4573L16.392 27.7758V18.9009H10.1217Z" fill="white"/>
<path d="M16.3921 17.5985H17.6943V18.949V24.737L22.0835 20.5407L23 19.6725L23.9164 20.5407L28.3056 24.6887V18.9008V17.5985H35.3958C32.4054 10.7494 24.3987 7.66251 17.5979 10.6529C14.511 12.0035 12.0029 14.5116 10.6523 17.5985H16.3921Z" fill="white"/>
</g>
<defs>
<clipPath id="clip0_7309_8743">
<rect width="30" height="30" fill="white" transform="translate(8 8)"/>
</clipPath>
</defs>
</svg>
