<svg width="45" height="45" viewBox="0 0 45 45" fill="none" xmlns="http://www.w3.org/2000/svg">
<rect x="1" y="1" width="43" height="43" rx="6.03125" fill="#FE6412"/>
<rect x="1" y="1" width="43" height="43" rx="6.03125" stroke="black" stroke-width="2"/>
<path d="M29.0635 30.2744H34.9619C32.5048 34.3062 28.0663 36.9999 23 37C17.9335 37 13.4947 34.3063 11.0371 30.2744H16.9365V22.8633L23 28.9267L29.0635 22.8633V30.2744ZM23 8.99997C30.7305 9.00007 36.9998 15.2685 37 22.999C37 24.5445 36.7499 26.0315 36.2871 27.4218H32.0996V15.6425L23 24.7422L13.9004 15.6425V27.4218H9.71289C9.25006 26.0315 9 24.5445 9 22.999C9.00022 15.2684 15.2698 8.99997 23 8.99997Z" fill="white"/>
</svg>
