<svg width="45" height="45" viewBox="0 0 45 45" fill="none" xmlns="http://www.w3.org/2000/svg">
<rect x="1" y="1" width="43" height="43" rx="6.03125" fill="#FE6412"/>
<rect x="1" y="1" width="43" height="43" rx="6.03125" stroke="black" stroke-width="2"/>
<path d="M28.4635 29.6744H34.3619C31.9048 33.7062 27.4663 36.3999 22.4 36.4C17.3336 36.4 12.8947 33.7063 10.4371 29.6744H16.3365V22.2633L22.4 28.3268L28.4635 22.2633V29.6744ZM22.4 8.39999C30.1306 8.4001 36.3998 14.6685 36.4 22.399C36.4 23.9446 36.15 25.4315 35.6871 26.8219H31.4996V15.0426L22.4 24.1422L13.3004 15.0426V26.8219H9.11292C8.65009 25.4315 8.40002 23.9446 8.40002 22.399C8.40024 14.6684 14.6698 8.39999 22.4 8.39999Z" fill="white"/>
</svg>
