<svg width="35" height="35" viewBox="0 0 35 35" fill="none" xmlns="http://www.w3.org/2000/svg">
<g clip-path="url(#clip0_7325_15765)">
<path d="M17.5 35C27.198 35 35 27.198 35 17.5C35 7.80203 27.198 0 17.5 0C7.80203 0 0 7.80203 0 17.5C0 27.198 7.80203 35 17.5 35Z" fill="#2C56FF"/>
<path d="M21.7695 7.00003C22.6036 7.00001 23.3055 6.99972 23.8799 7.04691C24.4808 7.09627 25.053 7.20396 25.5967 7.48245C26.4249 7.90669 27.0985 8.58344 27.5205 9.41605C27.7975 9.96264 27.904 10.5385 27.9531 11.1426C28.0001 11.72 28 12.4254 28 13.2637V15.586C28 16.4246 28.0001 17.1305 27.9531 17.708C27.904 18.3119 27.7974 18.8872 27.5205 19.4336C27.0985 20.2662 26.4249 20.9439 25.5967 21.3682C25.0531 21.6466 24.4807 21.7534 23.8799 21.8028C23.5926 21.8263 23.2734 21.8379 22.9219 21.8438C22.5704 21.8497 22.1865 21.8496 21.7695 21.8496H21.7705V21.8965C21.7705 22.6612 21.7707 23.3049 21.7314 23.833C21.6905 24.3848 21.6018 24.9121 21.3701 25.42C20.9308 26.3826 20.1625 27.155 19.2051 27.5967C18.6998 27.8298 18.1749 27.9198 17.626 27.961C17.1007 28.0004 16.4607 28 15.7002 28H13.2305C12.8135 28 12.4296 28.0001 12.0781 27.9942C11.7266 27.9883 11.4074 27.9768 11.1201 27.9532C10.5193 27.9038 9.94699 27.7961 9.40332 27.5176C8.57514 27.0934 7.90147 26.4166 7.47949 25.584C7.20247 25.0374 7.09597 24.4616 7.04688 23.8575C6.99997 23.28 6.99998 22.5747 7 21.7364V19.4141C6.99998 18.5755 6.99994 17.8696 7.04688 17.292C7.09597 16.6882 7.20263 16.1129 7.47949 15.5664C7.90145 14.7339 8.5752 14.0571 9.40332 13.6328C9.94699 13.3544 10.5192 13.2466 11.1201 13.1973C11.6647 13.1526 12.3238 13.1505 13.1016 13.1504C13.0974 12.7992 13.0943 12.4722 13.0957 12.169C13.0973 11.812 13.1057 11.488 13.126 11.1963C13.1684 10.5861 13.2693 10.0039 13.5439 9.45023C13.9621 8.60742 14.6366 7.91994 15.4697 7.48929C16.017 7.20639 16.5948 7.09795 17.2012 7.04788C17.7812 7 18.4906 7.00001 19.334 7.00003H21.7695ZM13.2812 15.7002C12.3833 15.7002 11.7859 15.7007 11.3271 15.7383C10.8831 15.7748 10.6812 15.8395 10.5547 15.9043C10.2038 16.0841 9.91806 16.3708 9.73926 16.7237C9.67479 16.8509 9.61147 17.0537 9.5752 17.5C9.53771 17.9613 9.53613 18.5619 9.53613 19.4649V21.6846C9.53613 22.5877 9.53771 23.1891 9.5752 23.6504C9.61143 24.096 9.67489 24.2986 9.73926 24.4258C9.91806 24.7786 10.2038 25.0664 10.5547 25.2461C10.6812 25.3109 10.8833 25.3747 11.3271 25.4112C11.7859 25.4488 12.3833 25.4502 13.2812 25.4502H15.6533C16.0629 25.4502 16.4043 25.4495 16.6953 25.4453C16.9863 25.4412 17.2277 25.4337 17.4375 25.418C17.8439 25.3874 18.0307 25.3332 18.1475 25.2793C18.5531 25.0922 18.8783 24.7644 19.0645 24.3565C19.118 24.2391 19.1718 24.0512 19.2021 23.6426C19.2335 23.2208 19.2344 22.6729 19.2344 21.8496H14.4971C13.9864 21.8496 13.5258 21.5418 13.3281 21.0684C13.1305 20.5949 13.2349 20.0481 13.5928 19.6817L17.4805 15.7002H13.2812ZM19.3857 9.54984C18.4778 9.54984 17.873 9.55063 17.4092 9.5889C16.96 9.62598 16.7569 9.69222 16.6299 9.75784C16.2769 9.9403 15.9907 10.2309 15.8135 10.5879C15.7498 10.7163 15.6867 10.9213 15.6553 11.3731C15.639 11.6066 15.6329 11.8757 15.6318 12.2002C15.6309 12.4733 15.6344 12.786 15.6387 13.1504H20.5029C21.2031 13.1506 21.7704 13.7209 21.7705 14.4248C21.7705 14.7728 21.6311 15.0873 21.4062 15.3174L21.4072 15.3184L17.5195 19.2998H21.7188C22.1677 19.2998 22.5415 19.2999 22.8604 19.295C23.1793 19.29 23.4434 19.2806 23.6729 19.2617C24.1169 19.2253 24.3188 19.1605 24.4453 19.0957C24.7961 18.916 25.081 18.6291 25.2598 18.2764C25.3242 18.1492 25.3885 17.9464 25.4248 17.5C25.4623 17.0388 25.4639 16.4382 25.4639 15.5352V13.3155C25.4639 12.4124 25.4623 11.8109 25.4248 11.3496C25.3886 10.9036 25.3242 10.7014 25.2598 10.5742C25.081 10.2214 24.7962 9.9337 24.4453 9.75394C24.3188 9.68914 24.1168 9.62536 23.6729 9.5889C23.4434 9.57006 23.1794 9.56065 22.8604 9.55569L21.7188 9.54984H19.3857Z" fill="white"/>
</g>
<defs>
<clipPath id="clip0_7325_15765">
<rect width="35" height="35" fill="white"/>
</clipPath>
</defs>
</svg>
