<svg width="32" height="32" viewBox="0 0 32 32" fill="none" xmlns="http://www.w3.org/2000/svg">
<path d="M21.6924 2C22.8046 1.99997 23.7409 1.99958 24.5068 2.0625C25.3079 2.12833 26.0711 2.27227 26.7959 2.64355C27.9 3.20921 28.7978 4.11165 29.3604 5.22168C29.7297 5.95043 29.872 6.71803 29.9375 7.52344C30.0001 8.29333 30 9.2338 30 10.3516V13.4482C30 14.5663 30.0001 15.5073 29.9375 16.2773C29.872 17.0825 29.7296 17.8495 29.3604 18.5781C28.7977 19.6883 27.9001 20.5915 26.7959 21.1572C26.0711 21.5285 25.3079 21.6715 24.5068 21.7373C23.7409 21.8002 22.8045 21.7998 21.6924 21.7998H21.6943V21.8623C21.6944 22.8816 21.6948 23.7393 21.6426 24.4434C21.588 25.179 21.4691 25.8824 21.1602 26.5596C20.5744 27.8433 19.5502 28.874 18.2734 29.4629C17.5997 29.7736 16.8998 29.8924 16.168 29.9473C15.4675 29.9999 14.6138 30 13.5996 30H10.3076C9.75147 30 9.23925 30 8.77051 29.9922C8.30191 29.9843 7.87608 29.969 7.49316 29.9375C6.69213 29.8717 5.92889 29.7277 5.2041 29.3564C4.10003 28.7908 3.20223 27.8884 2.63965 26.7783C2.27033 26.0496 2.12796 25.282 2.0625 24.4766C1.99996 23.7067 1.99997 22.7662 2 21.6484V18.5518C1.99997 17.4337 1.99992 16.4927 2.0625 15.7227C2.12796 14.9175 2.27046 14.1505 2.63965 13.4219C3.20227 12.3118 4.09991 11.4085 5.2041 10.8428C5.92889 10.4715 6.69214 10.3285 7.49316 10.2627C8.21959 10.203 9.09919 10.2004 10.1367 10.2002C10.1247 9.18051 10.1171 8.31403 10.167 7.59473C10.2235 6.78104 10.3593 6.00492 10.7256 5.2666C11.2831 4.14301 12.1823 3.22754 13.293 2.65332C14.0227 2.2761 14.7931 2.13024 15.6016 2.06348C16.375 1.99964 17.3208 1.99997 18.4453 2H21.6924ZM10.375 13.5996C9.17771 13.5996 8.38122 13.6012 7.76953 13.6514C7.17746 13.7 6.90797 13.7857 6.73926 13.8721C6.27153 14.1117 5.89171 14.4946 5.65332 14.9648C5.56736 15.1345 5.48196 15.4048 5.43359 16C5.38362 16.6151 5.38184 17.416 5.38184 18.6201V21.5801C5.38184 22.7841 5.38361 23.5851 5.43359 24.2002C5.48197 24.7953 5.56737 25.0658 5.65332 25.2354C5.89167 25.7054 6.27174 26.0875 6.73926 26.3271C6.90797 26.4136 7.17746 26.5002 7.76953 26.5488C8.38122 26.599 9.17773 26.5996 10.375 26.5996H13.5381C14.6301 26.5996 15.3565 26.5986 15.916 26.5566C16.4582 26.5159 16.7075 26.4439 16.8633 26.3721C17.4041 26.1225 17.8378 25.6863 18.0859 25.1426C18.1574 24.9861 18.2291 24.7356 18.2695 24.1904C18.3113 23.628 18.3125 22.8977 18.3125 21.7998H11.9961C11.3152 21.7997 10.701 21.389 10.4375 20.7578C10.174 20.1264 10.3129 19.3978 10.79 18.9092L15.9746 13.5996H10.375ZM18.5137 5.40039C17.3032 5.40039 16.4973 5.40112 15.8789 5.45215C15.2801 5.50158 15.0092 5.58928 14.8398 5.67676C14.3692 5.92007 13.9872 6.30802 13.751 6.78418C13.6661 6.95543 13.5829 7.22883 13.541 7.83105C13.5012 8.40433 13.5071 9.13706 13.5195 10.2002H20.0039C20.9377 10.2004 21.6943 10.9616 21.6943 11.9004C21.6942 12.3698 21.5053 12.795 21.1992 13.1025C21.1932 13.1086 21.1858 13.1132 21.1797 13.1191L16.0264 18.4004H21.625C22.8227 18.4004 23.6196 18.3989 24.2314 18.3486C24.8232 18.3 25.0921 18.2143 25.2607 18.1279C25.7285 17.8883 26.1083 17.5054 26.3467 17.0352C26.4326 16.8655 26.5181 16.5952 26.5664 16C26.6164 15.3849 26.6182 14.584 26.6182 13.3799V10.4199C26.6182 9.21583 26.6164 8.41487 26.5664 7.7998C26.5181 7.20464 26.4326 6.93426 26.3467 6.76465C26.1084 6.2946 25.7283 5.91248 25.2607 5.67285C25.0921 5.58645 24.8232 5.49981 24.2314 5.45117C23.9255 5.42604 23.5729 5.41384 23.1475 5.40723L21.625 5.40039H18.5137Z" fill="white"/>
</svg>
