<svg width="45" height="45" viewBox="0 0 45 45" fill="none" xmlns="http://www.w3.org/2000/svg">
<rect x="1" y="1" width="43" height="43" rx="6.03125" fill="white"/>
<rect x="1" y="1" width="43" height="43" rx="6.03125" stroke="black" stroke-width="2"/>
<path d="M26.9814 10.75C27.9544 10.75 28.7733 10.7496 29.4434 10.8047C30.1443 10.8623 30.8121 10.9876 31.4463 11.3125C32.4124 11.8074 33.1981 12.5971 33.6904 13.5684C34.0137 14.2061 34.138 14.8782 34.1953 15.583C34.2501 16.2567 34.25 17.0796 34.25 18.0576V20.7666C34.25 21.7449 34.2501 22.5684 34.1953 23.2422C34.138 23.9468 34.0136 24.6182 33.6904 25.2559C33.1981 26.2272 32.4125 27.0177 31.4463 27.5127C30.8121 27.8375 30.1443 27.962 29.4434 28.0195C28.7732 28.0746 27.9544 28.0752 26.9814 28.0752H26.9824V28.1289C26.9825 29.0211 26.9832 29.7725 26.9375 30.3887C26.8897 31.0323 26.785 31.6477 26.5146 32.2402C26.0021 33.3632 25.1062 34.2641 23.9893 34.7793C23.3999 35.0511 22.7877 35.156 22.1475 35.2041C21.5347 35.2501 20.7877 35.25 19.9004 35.25H17.0186C16.5323 35.25 16.0847 35.25 15.6748 35.2432C15.2646 35.2363 14.8918 35.2229 14.5566 35.1953C13.8557 35.1377 13.1879 35.0124 12.5537 34.6875C11.5875 34.1926 10.8019 33.402 10.3096 32.4307C9.98655 31.7931 9.86195 31.1216 9.80469 30.417C9.74996 29.7433 9.74998 28.9204 9.75 27.9424V25.2324C9.74998 24.2544 9.74996 23.4315 9.80469 22.7578C9.86195 22.0532 9.98652 21.3817 10.3096 20.7441C10.8019 19.7728 11.5875 18.9823 12.5537 18.4873C13.1879 18.1625 13.8557 18.038 14.5566 17.9805C15.1921 17.9283 15.9615 17.9249 16.8691 17.9248C16.8586 17.0328 16.8528 16.2748 16.8965 15.6455C16.946 14.9336 17.0643 14.2544 17.3848 13.6084C17.8727 12.6251 18.6598 11.8237 19.6318 11.3213C20.2703 10.9913 20.9441 10.8641 21.6514 10.8057C22.3281 10.7498 23.1557 10.75 24.1396 10.75H26.9814ZM17.0781 20.9004C16.0302 20.9004 15.3331 20.9013 14.7979 20.9453C14.2799 20.9879 14.0451 21.0631 13.8975 21.1387C13.488 21.3484 13.1549 21.6831 12.9463 22.0947C12.8711 22.2432 12.7962 22.4796 12.7539 23C12.7102 23.5381 12.709 24.2387 12.709 25.292V27.8828C12.709 28.9361 12.7102 29.6367 12.7539 30.1748C12.7962 30.6951 12.8711 30.9317 12.9463 31.0801C13.1549 31.4917 13.4881 31.8264 13.8975 32.0361C14.0451 32.1117 14.2799 32.1869 14.7979 32.2295C15.3331 32.2734 16.0302 32.2754 17.0781 32.2754H19.8457C20.3237 32.2754 20.7219 32.2744 21.0615 32.2695C21.4009 32.2647 21.6821 32.2556 21.9268 32.2373C22.4008 32.2017 22.6186 32.139 22.7549 32.0762C23.2282 31.8579 23.608 31.4757 23.8252 31C23.8877 30.8631 23.9509 30.6439 23.9863 30.167C24.0229 29.6749 24.0234 29.0358 24.0234 28.0752H18.4971C17.9012 28.0752 17.3634 27.7155 17.1328 27.1631C16.9022 26.6106 17.0239 25.9725 17.4414 25.5449L21.9766 20.9004H17.0781ZM24.2002 13.7246C23.1407 13.7246 22.4348 13.7258 21.8936 13.7705C21.3696 13.8138 21.1325 13.8902 20.9844 13.9668C20.5726 14.1797 20.2389 14.5199 20.0322 14.9365C19.958 15.0864 19.8852 15.3257 19.8486 15.8525C19.8138 16.3541 19.8182 16.9948 19.8291 17.9248H25.5029C26.32 17.9248 26.9822 18.5908 26.9824 19.4121C26.9824 19.8227 26.8173 20.1947 26.5498 20.4639C26.5435 20.4702 26.5357 20.4752 26.5293 20.4814L22.0225 25.0996H26.9219C27.9698 25.0996 28.6668 25.0987 29.2021 25.0547C29.72 25.0122 29.9549 24.9369 30.1025 24.8613C30.512 24.6516 30.8451 24.3169 31.0537 23.9053C31.1289 23.7568 31.2038 23.5205 31.2461 23C31.2898 22.4618 31.291 21.7606 31.291 20.707V18.1172C31.291 17.0639 31.2898 16.3633 31.2461 15.8252C31.2038 15.3044 31.1289 15.0674 31.0537 14.9189C30.8451 14.5075 30.5118 14.1735 30.1025 13.9639C29.9549 13.8883 29.7201 13.8131 29.2021 13.7705C28.9344 13.7485 28.6262 13.7372 28.2539 13.7314L26.9219 13.7246H24.2002Z" fill="black"/>
</svg>
