<svg width="45" height="45" viewBox="0 0 45 45" fill="none" xmlns="http://www.w3.org/2000/svg">
<rect x="1" y="1" width="43" height="43" rx="6.03125" fill="white"/>
<rect x="1" y="1" width="43" height="43" rx="6.03125" stroke="black" stroke-width="2"/>
<path d="M27.3815 10.15C28.3544 10.15 29.1733 10.1496 29.8434 10.2047C30.5444 10.2623 31.2121 10.3876 31.8463 10.7125C32.8124 11.2074 33.5982 11.9971 34.0905 12.9684C34.4137 13.6061 34.5381 14.2782 34.5953 14.983C34.6501 15.6567 34.65 16.4796 34.65 17.4576V20.1666C34.65 21.1449 34.6501 21.9684 34.5953 22.6422C34.5381 23.3468 34.4136 24.0182 34.0905 24.6559C33.5982 25.6272 32.8125 26.4177 31.8463 26.9127C31.2121 27.2375 30.5443 27.362 29.8434 27.4195C29.5082 27.447 29.1355 27.4615 28.7252 27.4684C28.3154 27.4752 27.8677 27.4752 27.3815 27.4752H27.3824V27.5289C27.3825 28.4211 27.3833 29.1725 27.3375 29.7887C27.2897 30.4323 27.185 31.0477 26.9147 31.6402C26.4021 32.7632 25.5062 33.664 24.3893 34.1793C23.7999 34.4511 23.1877 34.556 22.5475 34.6041C21.9347 34.6501 21.1877 34.65 20.3004 34.65H17.4186C16.4457 34.65 15.6268 34.6504 14.9567 34.5953C14.2557 34.5377 13.588 34.4124 12.9537 34.0875C11.9875 33.5926 11.2019 32.802 10.7096 31.8307C10.3866 31.1931 10.262 30.5216 10.2047 29.817C10.15 29.1433 10.15 28.3204 10.15 27.3424V24.6324C10.15 23.6544 10.15 22.8315 10.2047 22.1578C10.262 21.4532 10.3865 20.7817 10.7096 20.1441C11.2019 19.1728 11.9875 18.3823 12.9537 17.8873C13.5879 17.5625 14.2558 17.438 14.9567 17.3805C15.5922 17.3283 16.3616 17.3249 17.2692 17.3248C17.2643 16.9152 17.2598 16.5339 17.2614 16.1803C17.2632 15.7638 17.2729 15.3858 17.2965 15.0455C17.346 14.3336 17.4643 13.6544 17.7848 13.0084C18.2727 12.0251 19.0599 11.2237 20.0319 10.7213C20.6703 10.3913 21.3441 10.2641 22.0514 10.2057C22.7281 10.1498 23.5558 10.15 24.5397 10.15H27.3815ZM17.4781 20.3004C16.4303 20.3004 15.7332 20.3013 15.1979 20.3453C14.6799 20.3878 14.4451 20.4631 14.2975 20.5387C13.8881 20.7484 13.5549 21.0831 13.3463 21.4947C13.2712 21.6432 13.1962 21.8796 13.1539 22.4C13.1102 22.9381 13.109 23.6387 13.109 24.692V27.2828C13.109 28.336 13.1102 29.0367 13.1539 29.5748C13.1962 30.0951 13.2712 30.3317 13.3463 30.4801C13.5549 30.8917 13.8881 31.2264 14.2975 31.4361C14.4451 31.5117 14.6799 31.5869 15.1979 31.6295C15.7332 31.6734 16.4303 31.6754 17.4781 31.6754H20.2457C21.2014 31.6754 21.8372 31.674 22.3268 31.6373C22.8009 31.6017 23.0186 31.5389 23.1549 31.4762C23.6282 31.2579 24.008 30.8757 24.2252 30.4C24.2877 30.2631 24.3509 30.0439 24.3864 29.567C24.4229 29.0749 24.4235 28.4358 24.4235 27.4752H18.8971C18.8598 27.4752 18.8226 27.4731 18.7858 27.4703C18.2349 27.4287 17.749 27.0809 17.5328 26.5631C17.3022 26.0106 17.4239 25.3725 17.8414 24.9449L22.3766 20.3004H17.4781ZM24.6002 13.1246C23.5407 13.1246 22.8348 13.1258 22.2936 13.1705C21.7697 13.2138 21.5325 13.2902 21.3844 13.3668C20.9726 13.5797 20.6389 13.9199 20.4323 14.3365C20.358 14.4864 20.2853 14.7257 20.2487 15.2525C20.2297 15.5248 20.2216 15.8381 20.2203 16.2164C20.2193 16.535 20.2242 16.8997 20.2291 17.3248H25.903C26.72 17.3248 27.3822 17.9908 27.3824 18.8121C27.3824 19.2324 27.2081 19.6109 26.9293 19.8814L22.4225 24.4996H27.3219C27.8457 24.4996 28.2818 24.4995 28.6539 24.4937C29.0262 24.488 29.3344 24.4767 29.6022 24.4547C30.1201 24.4122 30.3549 24.3369 30.5026 24.2613C30.912 24.0516 31.2452 23.7169 31.4537 23.3053C31.5289 23.1568 31.6038 22.9205 31.6461 22.4C31.6898 21.8618 31.691 21.1606 31.691 20.107V17.5172C31.691 16.4639 31.6898 15.7633 31.6461 15.2252C31.6038 14.7044 31.529 14.4674 31.4537 14.3189C31.2451 13.9075 30.9119 13.5735 30.5026 13.3639C30.3549 13.2882 30.1202 13.213 29.6022 13.1705C29.3344 13.1485 29.0263 13.1372 28.6539 13.1314L27.3219 13.1246H24.6002Z" fill="black"/>
</svg>
