<svg xmlns="http://www.w3.org/2000/svg" height="260.573" width="1280.893"><path d="M239.636 47.895h46.059V1.84h-46.059v46.055" fill="#e22224"/><path d="M207.101 183.047c0 44.508-30.509 71.785-78.97 71.785H0V-.005h121.317c44.866 0 76.804 24.049 76.804 65.688 0 27.638-15.069 47.016-39.48 55.272 31.228 9.695 48.46 30.148 48.46 62.092m-156.85-80.399h58.858c25.844 0 40.206-12.565 40.206-33.02 0-20.459-13.28-30.861-39.844-30.861h-59.22zm59.94 113.424c30.51 0 46.654-13.643 46.654-36.972 0-22.968-16.506-37.33-46.655-37.33H50.251v74.302h59.94M286.297 254.83h-46.661V71.422h46.661v183.41M433.657 252.32c-13.634 4.667-27.27 6.818-41.274 6.818-36.254 0-52.04-16.869-52.04-51.683v-100.5H307.68v-35.53h32.663V14.713h46.66v56.712h43.789v35.53h-43.79v94.758c0 12.56 5.38 16.87 18.303 16.87 6.46 0 13.998-1.082 22.974-3.228l5.378 36.965M669.61 183.047c0 44.508-30.511 71.785-78.971 71.785H462.508V-.005h121.317c44.867 0 76.804 24.049 76.804 65.688 0 27.638-15.069 47.016-39.481 55.272 31.23 9.695 48.461 30.148 48.461 62.092m-156.85-80.399h58.858c25.844 0 40.204-12.565 40.204-33.02 0-20.459-13.284-30.861-39.841-30.861h-59.221zm59.94 113.424c30.509 0 46.656-13.643 46.656-36.972 0-22.968-16.508-37.33-46.656-37.33h-59.94v74.302h59.94M882.253 162.948c0 58.145-39.842 97.625-95.116 97.625-55.636 0-95.473-39.48-95.473-97.625 0-58.144 39.837-97.625 95.473-97.625 55.274 0 95.116 39.481 95.116 97.625m-143.216 0c0 35.535 19.028 58.145 48.1 58.145 28.716 0 47.736-22.61 47.736-58.145 0-34.82-19.02-58.144-47.736-58.144-29.072 0-48.1 23.325-48.1 58.144M1015.755 254.832l-41.282-62.81-41.633 62.81h-50.25l66.045-96.192-59.946-87.217h50.614l35.894 53.841 35.171-53.841h50.25l-59.225 85.422 65.688 97.987h-51.326" fill="#fff"/><path d="M1097.563 254.836h183.329V71.426h-183.33v183.41" fill="#e22224"/><path d="M1250.427 181.57h-42.803v42.698h-36.679v-42.697h-42.794v-36.786h42.794v-42.862h36.679v42.862h42.803v36.786" fill="#fff"/></svg>
