<svg width="90" height="25" viewBox="0 0 90 25" fill="none" xmlns="http://www.w3.org/2000/svg">
<mask id="mask0_7843_12605" style="mask-type:luminance" maskUnits="userSpaceOnUse" x="0" y="1" width="90" height="23">
<path d="M89.7959 1.5H0V23.5H89.7959V1.5Z" fill="white"/>
</mask>
<g mask="url(#mask0_7843_12605)">
<path fill-rule="evenodd" clip-rule="evenodd" d="M38.989 15.6797C38.989 18.2977 37.1944 19.9022 34.3442 19.9022H26.8069V4.91211H33.9429C36.582 4.91211 38.4611 6.31966 38.4611 8.7758C38.5227 10.2635 37.5659 11.603 36.1386 12.0272C37.9755 12.5972 38.989 13.8006 38.989 15.6797ZM33.2885 17.6221C35.083 17.6221 36.0331 16.8198 36.0331 15.4474C36.0331 14.0752 35.0619 13.2517 33.2885 13.2517H29.7697V17.6221H33.2885ZM29.7697 10.9504H33.2251C34.7453 10.9504 35.5898 10.2467 35.5898 9.00802C35.5898 7.76933 34.8086 7.19239 33.2463 7.19239H29.7627L29.7697 10.9504ZM43.6478 4.91211V7.65677H40.9032V4.91211H43.6478ZM43.6478 9.11357V19.9022H40.9032V9.11357H43.6478ZM52.3111 19.7545C51.5297 20.0226 50.7091 20.1581 49.8831 20.1556C47.7718 20.1556 46.8217 19.1632 46.8217 17.1154V11.2037H44.9005V9.13463H46.8217V5.77774H49.5664V9.13463H52.1422V11.2459H49.5664V16.8197C49.5664 17.5586 49.883 17.812 50.6431 17.812C51.101 17.7875 51.5545 17.7096 51.9943 17.5798L52.3111 19.7545ZM66.2173 15.6797C66.2173 18.2977 64.4228 19.9022 61.5725 19.9022H54.0071V4.91211H61.1432C63.7823 4.91211 65.6612 6.31966 65.6612 8.7758C65.723 10.2635 64.7662 11.603 63.3389 12.0272C65.1758 12.5972 66.2173 13.8006 66.2173 15.6797ZM56.9699 10.9504H60.4324C61.9525 10.9504 62.7971 10.2467 62.7971 9.00802C62.7971 7.76933 61.9947 7.19239 60.4465 7.19239H56.9629L56.9699 10.9504ZM60.4887 17.6221C62.2833 17.6221 63.2333 16.8198 63.2333 15.4474C63.2333 14.0752 62.2622 13.2517 60.4887 13.2517H56.9699V17.6221H60.4887ZM78.716 14.4974C78.716 17.9177 76.3726 20.24 73.086 20.24C69.7994 20.24 67.4559 17.9177 67.4559 14.4974C67.4559 11.0771 69.7994 8.7547 73.086 8.7547C76.3726 8.7547 78.716 11.0771 78.716 14.4974ZM70.271 14.4974C70.271 16.6087 71.3899 17.9177 73.086 17.9177C74.7821 17.9177 75.9011 16.5876 75.9011 14.4974C75.9011 12.4072 74.7821 11.0771 73.086 11.0771C71.3899 11.0771 70.271 12.4846 70.271 14.4974ZM86.5489 19.9022L84.1209 16.2075L81.6719 19.9022H78.716L82.6008 14.244L79.075 9.11357H82.0519L84.1631 12.2804L86.2322 9.11357H89.181L85.7044 14.1384L89.561 19.9022H86.5489ZM0 18.1359V13.0218L4.13093 11.2452V3.28523L8.22737 1.5V14.5569L0 18.1359ZM18.5159 18.179L10.2799 14.6V1.54315L14.3849 3.33696V11.2883L18.5159 13.0735V18.179ZM9.27084 16.3507L17.4983 19.921L9.26223 23.5L1.06071 19.9383L9.27084 16.3507Z" fill="#D7E2F7"/>
</g>
</svg>
