<svg width="84" height="25" viewBox="0 0 84 25" fill="none" xmlns="http://www.w3.org/2000/svg">
<g clip-path="url(#clip0_7540_12880)">
<path d="M29.2774 18.4306H22.9156C22.0991 18.4306 21.4355 17.7666 21.4355 16.9516V7.65171C21.4355 7.02755 21.9425 6.521 22.5671 6.521C23.1917 6.521 23.6986 7.02755 23.6986 7.65171V16.1691H29.2774C29.902 16.1691 30.4089 16.6757 30.4089 17.2998C30.4089 17.924 29.902 18.4306 29.2774 18.4306Z" fill="#D7E2F7"/>
<path d="M16.7993 18.5002H13.6066C13.3061 18.5002 13.0191 18.3808 12.8064 18.1692L11.0503 16.4143C10.8384 16.2026 10.719 15.915 10.719 15.6147V9.38582C10.719 9.0855 10.8384 8.79785 11.0503 8.58618L12.8064 6.83132C13.0191 6.61965 13.307 6.50024 13.6066 6.50024H16.7993C17.0998 6.50024 17.3868 6.61965 17.5995 6.83132L19.3556 8.58618C19.5674 8.79785 19.6869 9.0855 19.6869 9.38582V15.6147C19.6869 15.915 19.5674 16.2026 19.3556 16.4143L17.5995 18.1692C17.3877 18.3808 17.0998 18.5002 16.7993 18.5002ZM14.0755 16.2388H16.3304L17.4239 15.1461V9.85438L16.3304 8.76167H14.0755L12.982 9.85438V15.1461L14.0755 16.2388Z" fill="#D7E2F7"/>
<path d="M33.2873 18.5002C32.6627 18.5002 32.1558 17.9937 32.1558 17.3695V7.63095C32.1567 7.0068 32.6636 6.50024 33.2882 6.50024H38.237C38.5375 6.50024 38.8245 6.61965 39.0372 6.83132L40.7933 8.58618C41.0051 8.79785 41.1246 9.0855 41.1246 9.38582V15.6147C41.1246 15.915 41.0051 16.2026 40.7933 16.4143L39.0372 18.1692C38.8254 18.3808 38.5375 18.5002 38.237 18.5002H33.2873ZM34.4188 16.2388H37.7672L38.8607 15.1461V9.85438L37.7672 8.76167H34.4188V16.2388Z" fill="#D7E2F7"/>
<path d="M81.1125 18.5002H76.1636C75.5391 18.5002 75.0323 17.9937 75.0323 17.3695V7.63095C75.0323 7.0068 75.5391 6.50024 76.1636 6.50024H81.1125C81.4131 6.50024 81.7 6.61965 81.9127 6.83132L83.6691 8.58618C83.8807 8.79785 84.0002 9.0855 84.0002 9.38582V15.6147C84.0002 15.915 83.8807 16.2026 83.6691 16.4143L81.9127 18.1692C81.7011 18.3808 81.4131 18.5002 81.1125 18.5002ZM77.2954 16.2388H80.6434L81.7371 15.1461V9.85438L80.6434 8.76167H77.2954V16.2388Z" fill="#D7E2F7"/>
<path d="M6.08029 18.5002H2.88763C2.588 18.5002 2.30014 18.3808 2.08742 18.1692L0.331307 16.4143C0.119488 16.2026 0 15.915 0 15.6147V9.38582C0 9.0855 0.119488 8.79785 0.331307 8.58618L2.08742 6.83132C2.30014 6.61965 2.588 6.50024 2.88763 6.50024H6.07942C6.37991 6.50024 6.6678 6.61965 6.8796 6.83132L8.63569 8.58618C9.07745 9.02761 9.07745 9.74402 8.63569 10.1855C8.19398 10.6269 7.47704 10.6269 7.03533 10.1855L5.61049 8.76167H3.35562L2.26213 9.85438V15.1461L3.35562 16.2388H5.61049L7.03533 14.815C7.47704 14.3736 8.19398 14.3736 8.63569 14.815C9.07745 15.2565 9.07745 15.9729 8.63569 16.4143L6.8796 18.1692C6.6678 18.3808 6.37991 18.5002 6.07942 18.5002H6.08029Z" fill="#D7E2F7"/>
<path d="M48.9556 18.5002H45.7639C45.4633 18.5002 45.1764 18.3808 44.9637 18.1692L43.2075 16.4143C42.9957 16.2026 42.8762 15.915 42.8762 15.6147V9.38582C42.8762 9.0855 42.9957 8.79785 43.2075 8.58618L44.9637 6.83132C45.1755 6.61965 45.4633 6.50024 45.763 6.50024H48.9548C49.2553 6.50024 49.5431 6.61965 49.7549 6.83132L51.511 8.58618C51.9528 9.02761 51.9528 9.74402 51.511 10.1855C51.0693 10.6269 50.3524 10.6269 49.9106 10.1855L48.4858 8.76167H46.231L45.1375 9.85438V15.1461L46.231 16.2388H48.4858L49.9106 14.815C50.3524 14.3736 51.0693 14.3736 51.511 14.815C51.9528 15.2565 51.9528 15.9729 51.511 16.4143L49.7549 18.1692C49.5431 18.3808 49.2553 18.5002 48.9548 18.5002H48.9556Z" fill="#D7E2F7"/>
<path d="M62.2305 8.58618L60.4747 6.83132C60.263 6.61965 59.975 6.50024 59.6745 6.50024H56.4825C56.182 6.50024 55.894 6.61965 55.6823 6.83132L53.9263 8.58618C53.7145 8.79785 53.595 9.0855 53.595 9.38582V17.3695C53.595 17.9937 54.1019 18.5002 54.7267 18.5002C55.3512 18.5002 55.858 17.9937 55.858 17.3695V14.9544H60.3001V17.3695C60.3001 17.9937 60.8069 18.5002 61.4314 18.5002C62.056 18.5002 62.5627 17.9937 62.5627 17.3695V9.38582C62.5627 9.0855 62.4432 8.79785 62.2316 8.58618H62.2305ZM55.858 12.692V9.85348L56.9516 8.76076H59.2065L60.3001 9.85348V12.692H55.858Z" fill="#D7E2F7"/>
<path d="M72.6886 13.2085C73.071 12.8268 73.281 12.3193 73.281 11.7802V9.75397C73.281 9.21395 73.071 8.70739 72.6886 8.32566L71.4543 7.09183C71.0719 6.7101 70.5641 6.50024 70.0246 6.50024H65.445C64.8205 6.50024 64.3137 7.0068 64.3137 7.63095V17.3695C64.3137 17.9937 64.8205 18.5002 65.445 18.5002C66.0701 18.5002 66.5768 17.9937 66.5768 17.3695V15.0339H68.5879L71.3021 18.1022C71.5257 18.3546 71.8372 18.4839 72.1503 18.4839C72.4164 18.4839 72.6843 18.3908 72.8986 18.2008C73.3666 17.7874 73.4114 17.0728 72.9974 16.6052L71.2443 14.6233C71.3174 14.5681 71.3877 14.5093 71.4543 14.4433L72.6886 13.2094V13.2085ZM66.5757 8.76167H69.9243L71.0179 9.85438V11.6798L69.9243 12.7725H66.5757V8.76167Z" fill="#D7E2F7"/>
<path d="M82.997 17.5253L83.2081 17.7361L83.1421 17.8021L83.0216 17.6818H82.967L82.8749 17.7741L83.1536 18.0527H83.2081L83.3085 17.9523L83.3718 18.0156L83.0434 18.344L82.9801 18.2806L83.0805 18.1802V18.1259L82.8018 17.8474L82.709 17.9396V17.9939L82.8296 18.1142L82.7636 18.1802L82.5525 17.9695L82.9981 17.5244L82.997 17.5253Z" fill="#D7E2F7"/>
<path d="M83.5998 17.5771L83.2725 17.3898L83.2523 17.4097L83.5256 17.6829H83.5801L83.6227 17.6403L83.6859 17.7037L83.4934 17.8964L83.4296 17.833L83.4618 17.8014V17.7471L83.2098 17.4956H83.1558L83.1241 17.5273L83.0603 17.464L83.2507 17.274L83.5594 17.4567L83.3767 17.1483L83.5654 16.9592L83.6292 17.0226L83.597 17.0542V17.1085L83.849 17.3599H83.903L83.9352 17.3283L83.9985 17.3916L83.8054 17.5843L83.7421 17.5209L83.7836 17.4794V17.4251L83.5103 17.1519L83.4912 17.1709L83.6778 17.4992L83.5998 17.5771Z" fill="#D7E2F7"/>
</g>
<defs>
<clipPath id="clip0_7540_12880">
<rect width="84" height="12" fill="white" transform="translate(0 6.5)"/>
</clipPath>
</defs>
</svg>
