<svg width="84" height="13" viewBox="0 0 84 13" fill="none" xmlns="http://www.w3.org/2000/svg">
<g clip-path="url(#clip0_7252_25253)">
<path d="M29.2772 12.431H22.9153C22.0988 12.431 21.4353 11.7671 21.4353 10.952V1.65219C21.4353 1.02804 21.9422 0.521484 22.5668 0.521484C23.1914 0.521484 23.6983 1.02804 23.6983 1.65219V10.1696H29.2772C29.9018 10.1696 30.4087 10.6762 30.4087 11.3003C30.4087 11.9245 29.9018 12.431 29.2772 12.431Z" fill="#D7E2F7"/>
<path d="M16.799 12.5H13.6064C13.3058 12.5 13.0189 12.3806 12.8061 12.1689L11.0501 10.4141C10.8382 10.2024 10.7188 9.91476 10.7188 9.61444V3.38557C10.7188 3.08525 10.8382 2.7976 11.0501 2.58593L12.8061 0.831072C13.0189 0.619403 13.3067 0.5 13.6064 0.5H16.799C17.0996 0.5 17.3865 0.619403 17.5993 0.831072L19.3554 2.58593C19.5672 2.7976 19.6867 3.08525 19.6867 3.38557V9.61444C19.6867 9.91476 19.5672 10.2024 19.3554 10.4141L17.5993 12.1689C17.3874 12.3806 17.0996 12.5 16.799 12.5ZM14.0753 10.2386H16.3302L17.4236 9.14584V3.85414L16.3302 2.76142H14.0753L12.9818 3.85414V9.14584L14.0753 10.2386Z" fill="#D7E2F7"/>
<path d="M33.2873 12.5C32.6627 12.5 32.1558 11.9934 32.1558 11.3693V1.63071C32.1567 1.00656 32.6636 0.5 33.2882 0.5H38.237C38.5375 0.5 38.8245 0.619403 39.0372 0.831072L40.7933 2.58593C41.0051 2.7976 41.1246 3.08525 41.1246 3.38557V9.61444C41.1246 9.91476 41.0051 10.2024 40.7933 10.4141L39.0372 12.1689C38.8254 12.3806 38.5375 12.5 38.237 12.5H33.2873ZM34.4188 10.2386H37.7672L38.8607 9.14584V3.85414L37.7672 2.76142H34.4188V10.2386Z" fill="#D7E2F7"/>
<path d="M81.1124 12.5H76.1635C75.5389 12.5 75.0322 11.9934 75.0322 11.3693V1.63071C75.0322 1.00656 75.5389 0.5 76.1635 0.5H81.1124C81.4129 0.5 81.6999 0.619403 81.9126 0.831072L83.669 2.58593C83.8806 2.7976 84 3.08525 84 3.38557V9.61444C84 9.91476 83.8806 10.2024 83.669 10.4141L81.9126 12.1689C81.701 12.3806 81.4129 12.5 81.1124 12.5ZM77.2953 10.2386H80.6433L81.7369 9.14584V3.85414L80.6433 2.76142H77.2953V10.2386Z" fill="#D7E2F7"/>
<path d="M6.08029 12.5H2.88763C2.588 12.5 2.30014 12.3806 2.08742 12.1689L0.331307 10.4141C0.119488 10.2024 0 9.91476 0 9.61444V3.38557C0 3.08525 0.119488 2.7976 0.331307 2.58593L2.08742 0.831072C2.30014 0.619403 2.588 0.5 2.88763 0.5H6.07942C6.37991 0.5 6.6678 0.619403 6.8796 0.831072L8.63569 2.58593C9.07745 3.02736 9.07745 3.74378 8.63569 4.18521C8.19398 4.62664 7.47704 4.62664 7.03533 4.18521L5.61049 2.76142H3.35562L2.26213 3.85414V9.14584L3.35562 10.2386H5.61049L7.03533 8.8148C7.47704 8.37336 8.19398 8.37336 8.63569 8.8148C9.07745 9.25624 9.07745 9.97264 8.63569 10.4141L6.8796 12.1689C6.6678 12.3806 6.37991 12.5 6.07942 12.5H6.08029Z" fill="#D7E2F7"/>
<path d="M48.9556 12.5H45.7639C45.4633 12.5 45.1764 12.3806 44.9637 12.1689L43.2075 10.4141C42.9957 10.2024 42.8762 9.91476 42.8762 9.61444V3.38557C42.8762 3.08525 42.9957 2.7976 43.2075 2.58593L44.9637 0.831072C45.1755 0.619403 45.4633 0.5 45.763 0.5H48.9548C49.2553 0.5 49.5431 0.619403 49.7549 0.831072L51.511 2.58593C51.9528 3.02736 51.9528 3.74378 51.511 4.18521C51.0693 4.62664 50.3524 4.62664 49.9106 4.18521L48.4858 2.76142H46.231L45.1375 3.85414V9.14584L46.231 10.2386H48.4858L49.9106 8.8148C50.3524 8.37336 51.0693 8.37336 51.511 8.8148C51.9528 9.25624 51.9528 9.97264 51.511 10.4141L49.7549 12.1689C49.5431 12.3806 49.2553 12.5 48.9548 12.5H48.9556Z" fill="#D7E2F7"/>
<path d="M62.2305 2.58593L60.4747 0.831072C60.263 0.619403 59.975 0.5 59.6745 0.5H56.4825C56.182 0.5 55.894 0.619403 55.6823 0.831072L53.9263 2.58593C53.7145 2.7976 53.595 3.08525 53.595 3.38557V11.3693C53.595 11.9934 54.1019 12.5 54.7267 12.5C55.3512 12.5 55.858 11.9934 55.858 11.3693V8.95411H60.3001V11.3693C60.3001 11.9934 60.8069 12.5 61.4314 12.5C62.056 12.5 62.5627 11.9934 62.5627 11.3693V3.38557C62.5627 3.08525 62.4432 2.7976 62.2316 2.58593H62.2305ZM55.858 6.69178V3.85324L56.9516 2.76052H59.2065L60.3001 3.85324V6.69178H55.858Z" fill="#D7E2F7"/>
<path d="M72.6884 7.20827C73.0707 6.82656 73.2808 6.31907 73.2808 5.77996V3.75373C73.2808 3.2137 73.0707 2.70714 72.6884 2.32542L71.454 1.09159C71.0717 0.70986 70.5638 0.5 70.0244 0.5H65.4448C64.8202 0.5 64.3135 1.00656 64.3135 1.63071V11.3693C64.3135 11.9934 64.8202 12.5 65.4448 12.5C66.0698 12.5 66.5766 11.9934 66.5766 11.3693V9.03369H68.5877L71.3018 12.102C71.5255 12.3544 71.8369 12.4837 72.15 12.4837C72.4162 12.4837 72.684 12.3905 72.8984 12.2006C73.3664 11.7872 73.4111 11.0726 72.9971 10.6049L71.244 8.62302C71.3171 8.56782 71.3875 8.50907 71.454 8.44302L72.6884 7.2092V7.20827ZM66.5755 2.76142H69.924L71.0177 3.85414V5.67955L69.924 6.77229H66.5755V2.76142Z" fill="#D7E2F7"/>
<path d="M82.997 11.5253L83.2081 11.7361L83.1421 11.8021L83.0216 11.6818H82.967L82.8749 11.7741L83.1536 12.0527H83.2081L83.3085 11.9523L83.3718 12.0156L83.0434 12.344L82.9801 12.2806L83.0805 12.1802V12.1259L82.8018 11.8474L82.709 11.9396V11.9939L82.8296 12.1142L82.7636 12.1802L82.5525 11.9695L82.9981 11.5244L82.997 11.5253Z" fill="#D7E2F7"/>
<path d="M83.5998 11.5768L83.2725 11.3896L83.2523 11.4095L83.5256 11.6826H83.5801L83.6227 11.6401L83.6859 11.7034L83.4934 11.8961L83.4296 11.8328L83.4618 11.8011V11.7468L83.2098 11.4954H83.1558L83.1241 11.527L83.0603 11.4637L83.2507 11.2738L83.5594 11.4565L83.3767 11.148L83.5654 10.959L83.6292 11.0223L83.597 11.0539V11.1082L83.849 11.3597H83.903L83.9352 11.328L83.9985 11.3914L83.8054 11.584L83.7421 11.5207L83.7836 11.4791V11.4249L83.5103 11.1516L83.4912 11.1706L83.6778 11.499L83.5998 11.5768Z" fill="#D7E2F7"/>
</g>
<defs>
<clipPath id="clip0_7252_25253">
<rect width="84" height="12" fill="white" transform="translate(0 0.5)"/>
</clipPath>
</defs>
</svg>
