<svg width="97" height="97" viewBox="0 0 97 97" fill="none" xmlns="http://www.w3.org/2000/svg">
<path d="M67.0791 26C72.5581 26 77 30.4419 77 35.9209V39H90V58H77V61.0791C77 66.5581 72.5581 71 67.0791 71H15.9209L15.4102 70.9873C10.1684 70.7216 6 66.3869 6 61.0791V35.9209C6 30.6131 10.1684 26.2784 15.4102 26.0127L15.9209 26H67.0791ZM15.9209 33C14.3582 33 13.082 34.2273 13.0039 35.7705L13 35.9209V61.0791C13 62.6921 14.3079 64 15.9209 64H67.0791C68.6921 64 70 62.6921 70 61.0791V35.9209C70 34.3079 68.6921 33 67.0791 33H15.9209Z" fill="#D7E2F7"/>
</svg>
