<svg width="97" height="97" viewBox="0 0 97 97" fill="none" xmlns="http://www.w3.org/2000/svg">
<path d="M7.76001 86.33H72.556C81.674 86.33 89.24 78.764 89.24 69.549C89.24 65.281 87.688 61.207 84.875 58.297L37.345 10.67L14.162 33.8531L33.271 52.865H7.76001V86.33ZM15.035 79.055V60.14H72.556C77.697 60.14 81.965 64.408 81.965 69.549C81.965 74.787 77.697 79.055 72.556 79.055H15.035ZM24.444 33.8531L37.345 20.952L69.161 52.865H66.251H43.553L24.444 33.8531ZM32.592 34.1441C32.592 36.8601 34.823 39.2851 37.733 39.2851C40.546 39.2851 42.777 36.8601 42.777 34.1441C42.777 31.3311 40.546 29.1001 37.733 29.1001C34.823 29.1001 32.592 31.3311 32.592 34.1441ZM66.93 69.549C66.93 72.265 69.161 74.69 72.071 74.69C74.884 74.69 77.115 72.265 77.115 69.549C77.115 66.736 74.884 64.505 72.071 64.505C69.161 64.505 66.93 66.736 66.93 69.549Z" fill="#D7E2F7"/>
</svg>
