<svg width="24" height="24" viewBox="0 0 24 24" fill="none" xmlns="http://www.w3.org/2000/svg">
<path d="M16.5 2C17.8807 2 19 3.11929 19 4.5V5C19.2761 5 19.5 5.22386 19.5 5.5V8C19.5 8.24171 19.3286 8.44371 19.1006 8.49023L19 8.5V19.5C19 20.8807 17.8807 22 16.5 22H7.5C6.11929 22 5 20.8807 5 19.5V4.5C5 3.11929 6.11929 2 7.5 2H16.5ZM14.5 19C13.9477 19 13.5 19.4477 13.5 20C13.5 20.5523 13.9477 21 14.5 21H16.5C17.0523 21 17.5 20.5523 17.5 20C17.5 19.4477 17.0523 19 16.5 19H14.5ZM7.5 3.5C6.94772 3.5 6.5 3.94772 6.5 4.5V16.5C6.5 17.0523 6.94772 17.5 7.5 17.5H16.5C17.0523 17.5 17.5 17.0523 17.5 16.5V4.5C17.5 3.94772 17.0523 3.5 16.5 3.5H7.5Z" fill="white"/>
</svg>
