<svg width="153" height="25" viewBox="0 0 153 25" fill="none" xmlns="http://www.w3.org/2000/svg">
<g clip-path="url(#clip0_7559_11731)">
<g clip-path="url(#clip1_7559_11731)">
<g opacity="0.5">
<path opacity="0.5" d="M10.9595 17.6824H2.06372L10.9595 1.86987V17.6824Z" fill="#D7E2F7"/>
</g>
<path d="M2.88303 18.2907C2.0483 18.2824 1.87099 18.6798 2.38383 19.3156C4.4161 21.8481 7.50134 23.5007 10.9903 23.5007C14.4793 23.5007 17.5645 21.8481 19.5967 19.3156C20.1096 18.6798 19.9295 18.2852 19.0975 18.2907C15.0412 18.3098 2.88303 18.2907 2.88303 18.2907Z" fill="url(#paint0_radial_7559_11731)"/>
<path d="M1.9009 16.5796C1.48626 17.3059 1.0607 17.2648 0.766095 16.5029C-0.401439 13.469 -0.28414 9.95817 1.4617 6.9215C3.20755 3.88483 6.17275 2.0294 9.37255 1.52512C10.1773 1.39904 10.431 1.75259 10.0054 2.47339C10.0054 2.47339 3.90862 13.0442 1.9009 16.5796Z" fill="url(#paint1_radial_7559_11731)"/>
<path d="M11.9725 2.47351C11.5524 1.74998 11.8007 1.39917 12.6054 1.52524C15.8052 2.02679 18.7704 3.88497 20.5163 6.92163C22.2621 9.95831 22.3767 13.4691 21.2119 16.503C20.9172 17.2677 20.489 17.3088 20.0771 16.5798C20.0771 16.5798 14.013 5.9898 11.9725 2.47351Z" fill="url(#paint2_radial_7559_11731)"/>
<path d="M2.90647 18.2907C2.07174 18.2824 1.89442 18.6798 2.40726 19.3156C4.43953 21.8481 7.52479 23.5007 11.0137 23.5007C14.5027 23.5007 17.5879 21.8481 19.6202 19.3156C20.1331 18.6798 19.953 18.2852 19.121 18.2907C15.0646 18.3098 2.90647 18.2907 2.90647 18.2907Z" fill="#D7E2F7"/>
<path d="M1.92433 16.5796C1.5097 17.3059 1.08414 17.2648 0.789532 16.5029C-0.378001 13.469 -0.260702 9.95817 1.48514 6.9215C3.23098 3.88483 6.19619 2.0294 9.396 1.52512C10.2007 1.39904 10.4544 1.75259 10.0288 2.47339C10.0288 2.47339 3.93205 13.0442 1.92433 16.5796Z" fill="#D7E2F7"/>
<path d="M11.996 2.47351C11.5759 1.74998 11.8241 1.39917 12.6289 1.52524C15.8286 2.02679 18.7938 3.88497 20.5397 6.92163C22.2856 9.95831 22.4001 13.4691 21.2353 16.503C20.9407 17.2677 20.5124 17.3088 20.1005 16.5798C20.1005 16.5798 14.0365 5.9898 11.996 2.47351Z" fill="#D7E2F7"/>
<path d="M36.4474 8.56001C36.4474 8.44238 36.5461 8.33459 36.6745 8.33459H41.5533C41.6817 8.33459 41.7804 8.44238 41.7804 8.56001V9.54004C41.7804 9.65767 41.6817 9.76547 41.5533 9.76547H37.9979V12H40.9607C41.0792 12 41.1878 12.1078 41.1878 12.2253V13.2055C41.1878 13.323 41.0792 13.4308 40.9607 13.4308H37.9979V16.4396C37.9979 16.5572 37.8893 16.6649 37.7708 16.6649H36.6646C36.5363 16.6649 36.4375 16.5572 36.4375 16.4396V8.56001H36.4474Z" fill="#D7E2F7"/>
<path d="M51.3117 8.21692C53.7115 8.21692 55.6275 10.1378 55.6275 12.5193C55.6275 14.9009 53.7115 16.7923 51.3117 16.7923C48.9118 16.7923 47.0057 14.9009 47.0057 12.5193C47.0057 10.1378 48.9118 8.21692 51.3117 8.21692ZM51.3117 15.234C52.8227 15.234 54.0671 14.009 54.0671 12.5095C54.0671 11.01 52.8227 9.75561 51.3117 9.75561C49.8006 9.75561 48.5662 11.01 48.5662 12.5095C48.5563 14.009 49.7908 15.234 51.3117 15.234Z" fill="#D7E2F7"/>
<path d="M61.4539 8.56001C61.4539 8.44238 61.5626 8.33459 61.6811 8.33459H62.8168C62.9453 8.33459 63.044 8.44238 63.044 8.56001V13.4308C63.044 14.4403 63.7353 15.2439 64.7822 15.2439C65.8291 15.2439 66.5302 14.4501 66.5302 13.4504V8.56977C66.5302 8.45221 66.629 8.34439 66.7574 8.34439H67.8931C68.0117 8.34439 68.1203 8.45221 68.1203 8.56977V13.519C68.1203 15.3321 66.6685 16.7924 64.7723 16.7924C62.886 16.7924 61.4342 15.3321 61.4342 13.519V8.56001H61.4539Z" fill="#D7E2F7"/>
<path d="M74.5891 8.42302C74.5891 8.30539 74.6977 8.2074 74.816 8.2074H75.1123L80.1001 13.4702H80.1097V8.55042C80.1097 8.43279 80.2087 8.32499 80.3366 8.32499H81.4428C81.5617 8.32499 81.6703 8.43279 81.6703 8.55042V16.5672C81.6703 16.6848 81.5617 16.7828 81.4428 16.7828H81.1568L76.1394 11.3142H76.1298V16.43C76.1298 16.5476 76.0308 16.6554 75.9022 16.6554H74.8063C74.6881 16.6554 74.5795 16.5476 74.5795 16.43V8.42302H74.5891Z" fill="#D7E2F7"/>
<path d="M88.2374 8.56001C88.2374 8.44238 88.3357 8.33459 88.4547 8.33459H91.2989C93.6096 8.33459 95.5057 10.2065 95.5057 12.49C95.5057 14.8029 93.6096 16.6649 91.2989 16.6649H88.4547C88.3357 16.6649 88.2374 16.5572 88.2374 16.4396V8.56001ZM91.1504 15.2145C92.711 15.2145 93.8467 14.0483 93.8467 12.49C93.8467 10.9415 92.711 9.77524 91.1504 9.77524H89.7781V15.2145H91.1504Z" fill="#D7E2F7"/>
<path d="M101.905 16.43C101.856 16.5476 101.747 16.6652 101.56 16.6652H100.513C100.335 16.6652 100.236 16.5084 100.306 16.3516L104.039 8.3348C104.078 8.26619 104.138 8.2074 104.246 8.2074H104.365C104.483 8.2074 104.532 8.26619 104.572 8.3348L108.266 16.3516C108.335 16.5084 108.246 16.6652 108.059 16.6652H107.012C106.833 16.6652 106.745 16.5966 106.666 16.43L104.286 11.2063H104.246L101.905 16.43Z" fill="#D7E2F7"/>
<path d="M114.419 9.76547H112.582C112.454 9.76547 112.356 9.65767 112.356 9.54004V8.56001C112.356 8.44238 112.454 8.33459 112.582 8.33459H117.827C117.955 8.33459 118.054 8.44238 118.054 8.56001V9.54004C118.054 9.65767 117.955 9.76547 117.827 9.76547H115.99V16.4493C115.99 16.567 115.881 16.6748 115.763 16.6748H114.647C114.528 16.6748 114.419 16.567 114.419 16.4493V9.76547Z" fill="#D7E2F7"/>
<path d="M123.683 8.56001C123.683 8.44238 123.792 8.33459 123.911 8.33459H125.026C125.145 8.33459 125.253 8.44238 125.253 8.56001V16.4396C125.253 16.5572 125.145 16.6649 125.026 16.6649H123.911C123.792 16.6649 123.683 16.5572 123.683 16.4396V8.56001Z" fill="#D7E2F7"/>
<path d="M135.524 8.21692C137.925 8.21692 139.841 10.1378 139.841 12.5193C139.841 14.9009 137.925 16.7923 135.524 16.7923C133.124 16.7923 131.219 14.9009 131.219 12.5193C131.219 10.1378 133.124 8.21692 135.524 8.21692ZM135.524 15.234C137.036 15.234 138.28 14.009 138.28 12.5095C138.28 11.01 137.036 9.75561 135.524 9.75561C134.013 9.75561 132.779 11.01 132.779 12.5095C132.779 14.009 134.013 15.234 135.524 15.234Z" fill="#D7E2F7"/>
<path d="M145.795 8.42302C145.795 8.30539 145.904 8.2074 146.023 8.2074H146.319L151.306 13.4702H151.316V8.55042C151.316 8.43279 151.415 8.32499 151.544 8.32499H152.65C152.768 8.32499 152.877 8.43279 152.877 8.55042V16.5672C152.877 16.6848 152.768 16.7828 152.65 16.7828H152.363L147.346 11.3142H147.336V16.43C147.336 16.5476 147.237 16.6554 147.109 16.6554H146.013C145.894 16.6554 145.786 16.5476 145.786 16.43V8.42302H145.795Z" fill="#D7E2F7"/>
</g>
</g>
<defs>
<radialGradient id="paint0_radial_7559_11731" cx="0" cy="0" r="1" gradientUnits="userSpaceOnUse" gradientTransform="translate(11.0209 12.4279) rotate(180) scale(11.0059 11.0575)">
<stop offset="0.5" stop-color="#BB6E5A"/>
<stop offset="0.75" stop-color="#DE9173"/>
<stop offset="1" stop-color="#FAC2A9"/>
</radialGradient>
<radialGradient id="paint1_radial_7559_11731" cx="0" cy="0" r="1" gradientUnits="userSpaceOnUse" gradientTransform="translate(11.003 12.4451) rotate(180) scale(11.0036 11.0552)">
<stop offset="0.5" stop-color="#FAC2A9"/>
<stop offset="0.75" stop-color="#DE9173"/>
<stop offset="1" stop-color="#BB6E5A"/>
</radialGradient>
<radialGradient id="paint2_radial_7559_11731" cx="0" cy="0" r="1" gradientUnits="userSpaceOnUse" gradientTransform="translate(10.9943 12.4407) rotate(180) scale(11.0194 11.0711)">
<stop offset="0.5" stop-color="#FAC2A9"/>
<stop offset="0.75" stop-color="#DE9173"/>
<stop offset="1" stop-color="#BB6E5A"/>
</radialGradient>
<clipPath id="clip0_7559_11731">
<rect width="153" height="22" fill="white" transform="translate(0 1.5)"/>
</clipPath>
<clipPath id="clip1_7559_11731">
<rect width="153.312" height="22" fill="white" transform="translate(0 1.5)"/>
</clipPath>
</defs>
</svg>
