<svg width="111" height="25" viewBox="0 0 111 25" fill="none" xmlns="http://www.w3.org/2000/svg">
<path d="M4.6875 3.90625H14.0625L7.8125 17.1875H3.125L4.6875 3.90625Z" fill="#D7E2F7"/>
<path d="M20.3125 21.0938H10.9375L17.1875 7.8125H21.875L20.3125 21.0938Z" fill="#3D71FF"/>
<path d="M20.3125 21.0938H10.9375L17.1875 7.8125H21.875L20.3125 21.0938Z" fill="#D7E2F7"/>
<path d="M89.4531 7.8125H92.805L95.7031 13.6585V7.8125H97.6562V17.1875H95.7031V15.2344H94.3044L91.4062 9.38844V17.1875H89.4531V7.8125Z" fill="#D7E2F7"/>
<path d="M76.5625 7.8125H68.75V9.375H71.6797V17.1875H73.6328V9.375H76.5625V7.8125Z" fill="#D7E2F7"/>
<path d="M107.031 7.8125H101.953V9.375H100V17.1875H107.031V15.625H101.953V13.2812H106.25V11.7188H101.953V9.375H107.031V7.8125Z" fill="#D7E2F7"/>
<path d="M48.4375 7.8125H43.3594V9.375H41.4062V17.1875H48.4375V15.625H43.3594V13.2812H47.6562V11.7188H43.3594V9.375H48.4375V7.8125Z" fill="#D7E2F7"/>
<path d="M33.2031 12.1095L36.8822 7.8125H39.4534L35.4704 12.4645L39.8439 17.1875H37.182L33.2031 12.8906V17.1875H31.25V7.8125H33.2031V12.1095Z" fill="#D7E2F7"/>
<path d="M49.9995 7.8125L53.3203 13.0858V17.1875H55.2734V13.0859L58.5942 7.8125H56.2861L54.2969 10.9714L52.3076 7.8125H49.9995Z" fill="#D7E2F7"/>
<path opacity="0.9" d="M66.9922 8.10547C66.9922 8.10547 65.625 7.61719 63.6719 7.61719C60.9375 7.61719 59.9609 8.69141 59.9609 10.3516C59.9609 11.8164 60.7422 12.793 62.8906 13.2812C64.6484 13.6808 65.2344 13.7695 65.2344 14.5508C65.2344 15.332 64.5508 15.5273 63.2812 15.5273C61.8164 15.5273 59.9609 14.7461 59.9609 14.7461V16.6992C60.5144 16.9271 61.9141 17.3828 63.6719 17.3828C65.7227 17.3828 67.3828 16.7969 67.3828 14.6484C67.3828 12.5977 66.2043 12.0428 63.8672 11.5234C62.1094 11.1328 61.9141 10.6445 61.9141 10.3516C61.9141 9.68386 62.4023 9.27734 63.6719 9.27734C64.4531 9.27734 65.5637 9.51581 66.9922 9.86328V8.10547Z" fill="#D7E2F7"/>
<path fill-rule="evenodd" clip-rule="evenodd" d="M82.6172 17.3828C85.6172 17.3828 87.3047 15.2344 87.3047 12.5C87.3047 9.76562 85.6172 7.61719 82.6172 7.61719C79.6172 7.61719 77.9297 9.76562 77.9297 12.5C77.9297 15.2344 79.6172 17.3828 82.6172 17.3828ZM82.6172 15.625C84.3672 15.625 85.3516 14.25 85.3516 12.5C85.3516 10.75 84.3672 9.375 82.6172 9.375C80.8672 9.375 79.8828 10.75 79.8828 12.5C79.8828 14.25 80.8672 15.625 82.6172 15.625Z" fill="#D7E2F7"/>
</svg>
