<svg width="75" height="25" viewBox="0 0 75 25" fill="none" xmlns="http://www.w3.org/2000/svg">
<path d="M63.9184 23.4258V24.9996H74.7207V17.9013H73.1467V23.4258H63.9184ZM63.9184 0V1.57391H73.1467V7.09867H74.7207V0H63.9184ZM58.3477 12.176V8.51871H60.8168C62.0207 8.51871 62.4527 8.91984 62.4527 10.0157V10.6637C62.4527 11.7902 62.0359 12.176 60.8168 12.176H58.3477ZM62.2672 12.824C63.3936 12.5308 64.1805 11.4813 64.1805 10.2316C64.1805 9.44461 63.8721 8.73459 63.2857 8.16352C62.5449 7.4535 61.557 7.09867 60.2764 7.09867H56.8043V17.901H58.3477V13.5956H60.6625C61.8506 13.5956 62.3291 14.0894 62.3291 15.3242V17.9013H63.9031V15.5711C63.9031 13.8735 63.502 13.2255 62.2672 13.0403V12.824ZM49.2738 13.1788H54.027V11.7592H49.2738V8.51834H54.4898V7.09867H47.6996V17.901H54.7213V16.4813H49.2738V13.1788ZM44.1039 13.7499V14.4905C44.1039 16.0492 43.5328 16.5586 42.0979 16.5586H41.7584C40.323 16.5586 39.6287 16.0955 39.6287 13.9505V11.0492C39.6287 8.88885 40.3541 8.44104 41.7891 8.44104H42.0975C43.502 8.44104 43.9494 8.96578 43.9646 10.4164H45.6623C45.508 8.28678 44.0883 6.94443 41.9586 6.94443C40.9248 6.94443 40.0605 7.26861 39.4125 7.88564C38.4402 8.79623 37.9002 10.3395 37.9002 12.4998C37.9002 14.5832 38.3633 16.1265 39.3199 17.083C39.968 17.7157 40.8631 18.0552 41.7428 18.0552C42.6686 18.0552 43.5176 17.6847 43.9494 16.8824H44.1652V17.901H45.585V12.3303H41.4029V13.7499H44.1039ZM30.4934 8.51834H32.1756C33.7652 8.51834 34.6295 8.91947 34.6295 11.0802V13.9195C34.6295 16.0798 33.7652 16.4813 32.1756 16.4813H30.4934V8.51834ZM32.3143 17.9013C35.2619 17.9013 36.3572 15.6637 36.3572 12.5002C36.3572 9.29035 35.1846 7.09904 32.2832 7.09904H28.9498V17.9013H32.3143ZM21.4967 13.1788H26.2498V11.7592H21.4967V8.51834H26.7125V7.09867H19.9223V17.901H26.9441V16.4813H21.4967V13.1788ZM12.3919 7.09867H10.8179V17.901H17.9166V16.4813H12.3919V7.09867ZM0 17.9013V25H10.8023V23.4258H1.57391V17.9013H0ZM0 0V7.09867H1.57391V1.57391H10.8023V0H0Z" fill="#D7E2F7"/>
</svg>
