<svg width="78" height="25" viewBox="0 0 78 25" fill="none" xmlns="http://www.w3.org/2000/svg">
<g clip-path="url(#clip0_7559_11744)">
<g clip-path="url(#clip1_7559_11744)">
<path d="M0.0103835 11.9826C0.240345 5.35887 5.62559 0.296015 12.0963 0.000244141H66.2297C68.0073 0.0926724 70.2751 0.706396 71.7569 1.62698C75.3261 3.84378 77.6413 7.75091 77.798 11.9826C77.8128 12.3893 77.8121 12.833 77.798 13.2397C77.5836 19.3148 72.8771 24.5189 66.6733 25.0002H11.0611C4.9076 24.4738 0.212247 19.337 0.0103835 13.2397C-0.00292619 12.8285 -0.00366562 12.3938 0.0103835 11.9826ZM33.8761 1.85251L12.171 1.84955C6.64378 2.02775 1.81532 6.53307 1.56688 12.0159C1.31251 17.6326 5.42003 22.6252 11.0618 23.1509L33.8761 23.148V1.85251ZM40.9509 9.6394C40.3498 8.89258 38.6254 8.78685 37.7951 9.13511C36.4449 9.70152 36.124 11.8362 37.3743 12.6622C38.0169 13.0866 38.5988 13.077 39.2539 13.2966C40.4001 13.6818 39.5882 14.8642 38.5426 14.3776C37.9289 14.0915 37.6161 13.0526 36.7865 13.8571C36.0175 14.6039 36.9403 15.4506 37.6553 15.7818C39.6643 16.7128 42.202 15.3175 41.3798 12.9446C40.9384 11.6721 39.5608 11.9664 38.6624 11.5212C37.835 11.1116 38.5537 10.1592 39.4425 10.5933C39.7316 10.7345 39.79 11.0569 40.2736 11.0266C40.7572 10.9963 41.345 10.1259 40.9517 9.63866L40.9509 9.6394ZM49.6266 13.2389C49.6813 14.127 49.7131 14.4316 48.7134 14.3947C48.0006 14.368 47.3174 13.8253 47.0564 13.1842C46.473 11.7519 47.6272 10.4143 49.1282 10.6687C49.8839 10.7966 50.1302 11.6861 50.8836 10.6879C51.4183 9.9788 51.0227 9.64976 50.3424 9.3074C48.5323 8.39643 46.1402 9.22976 45.4296 11.1501C44.3286 14.1255 47.137 16.942 50.1427 15.8632C50.5014 15.7345 51.2511 15.2968 51.3236 14.8997C51.4042 14.4597 51.3754 12.8766 51.3303 12.3856C51.3096 12.1594 51.3066 12.0115 51.0855 11.891C50.7365 11.7009 48.7829 11.6765 48.4768 11.9043C48.2587 12.0669 48.2557 12.569 48.3119 12.8167C48.4421 13.3942 49.1933 13.2182 49.6274 13.2389H49.6266ZM61.087 11.6869C61.1269 11.4776 60.979 10.8107 61.2083 10.736C62.1599 10.6147 63.3822 10.8646 64.2991 10.7212C64.9852 10.614 64.9571 9.23568 64.4351 9.11441C63.3555 9.08335 62.2745 9.09962 61.1949 9.10184C60.8119 9.10258 60.3609 9.02494 59.9742 9.05748C59.5091 9.09593 59.4188 9.29631 59.3833 9.72444C59.234 11.5264 59.5031 13.5266 59.3833 15.3507C59.39 15.7781 59.6044 15.9423 60.0119 15.9792C61.3983 16.1049 63.011 15.906 64.4188 15.9423C64.8876 15.8417 64.8862 14.7503 64.6717 14.4989C64.637 14.4582 64.3257 14.2749 64.3042 14.2749H61.0877V13.3876H63.269C63.2868 13.3876 63.5633 13.2375 63.5811 13.2197C63.8746 12.9247 63.8236 11.6869 63.343 11.6869H61.0877H61.087ZM42.8764 9.11441C42.551 9.18909 42.483 9.5869 42.4549 9.87602C42.3174 11.2624 42.4231 13.3513 42.5274 14.7562C42.5873 15.56 42.3595 16.0902 43.5264 15.9755C44.1379 15.9157 44.1807 15.594 44.2281 15.0505C44.3427 13.7343 44.336 11.346 44.2281 10.0246C44.2096 9.79542 44.1526 9.30149 43.9626 9.18096C43.7726 9.06043 43.0975 9.06487 42.8771 9.11515L42.8764 9.11441ZM53.9885 15.6428V12.2045L54.2088 12.3169L56.8338 15.8291C57.1636 16.0887 58.3156 16.0857 58.3555 15.4986L58.3925 9.68673C58.5182 8.85044 56.7251 8.96874 56.7251 9.43163V12.9439C56.223 12.5002 55.8578 11.9013 55.454 11.3645C55.3949 11.2861 55.2958 11.2528 55.2455 11.1863C54.9579 10.801 54.061 9.24677 53.6972 9.13216C53.3984 9.03825 52.5096 9.00424 52.395 9.39022L52.378 15.6273C52.5333 16.1574 53.8776 16.0487 53.9892 15.6428H53.9885ZM67.4461 15.5689C67.5104 15.2635 67.4461 14.53 67.4461 14.164C67.4461 13.9968 68.7829 14.0124 68.95 14.1203C69.1985 14.2815 69.427 15.9186 70.0148 16.0362C70.284 16.0902 71.0685 15.7722 71.1787 15.5304C71.4316 14.9736 70.5021 13.8837 70.4762 13.4171C70.4666 13.2471 70.8955 12.8078 70.9983 12.5394C71.4168 11.4429 71.0249 10.0579 70.0111 9.45381C69.2473 8.99906 67.2065 8.98945 66.2985 9.09666C66.1203 9.11811 65.9554 9.15878 65.874 9.33772C65.8171 9.46194 65.7579 10.1259 65.7461 10.3189C65.6663 11.6137 65.6145 13.934 65.755 15.1888C65.7712 15.333 65.8156 15.6051 65.8888 15.7204C66.1402 16.1153 67.3381 16.0798 67.4461 15.5681V15.5689Z" fill="#D7E2F7"/>
<path d="M31.2396 11.3689C32.0559 13.3505 30.7701 15.8342 28.5141 16.0479C27.9003 16.1064 26.5265 16.1204 25.9261 16.0509C25.5423 16.0058 25.4329 15.7773 25.3708 15.4231C25.4994 13.6115 25.2059 11.5825 25.3693 9.79831C25.4092 9.36205 25.5556 9.20973 25.9978 9.1698C28.2131 8.96942 30.3168 9.12987 31.2396 11.3696V11.3689ZM27.1476 14.3487C27.1838 14.4597 27.9196 14.4426 28.0808 14.4279C28.2242 14.4153 28.2656 14.3643 28.3307 14.3487C29.601 14.0478 30.2207 12.5068 29.3237 11.4702C29.1833 11.3082 28.6302 10.8734 28.4416 10.8734H27.1476V14.3487Z" fill="#D7E2F7"/>
<path d="M20.7882 13.5357C20.8318 13.7967 20.7572 14.148 20.7882 14.423H24.0047C24.526 14.423 24.6724 15.9122 24.0631 16.0342L19.4913 16.0535C19.1156 15.9817 19.0409 15.8583 19.0106 15.4989C18.8524 13.6296 19.1378 11.5437 19.0099 9.65077C19.0247 9.37127 19.3108 9.18789 19.5667 9.17236L24.0639 9.18937C24.5327 9.40528 24.5585 10.2164 24.3293 10.6076C24.197 10.8346 24.0831 10.7473 23.913 10.8235C23.8768 10.8398 23.9005 10.9485 23.8938 10.9485H20.7882V11.8358H22.8956C22.9362 11.8358 23.0146 11.7071 23.1529 11.7944C23.4819 12.0021 23.496 13.2252 23.1514 13.4226C23.1085 13.4477 22.7787 13.5283 22.7107 13.5365C22.0837 13.3671 21.3635 13.5069 20.7143 13.4633C20.695 13.5224 20.7867 13.5298 20.7882 13.5365V13.5357Z" fill="#D7E2F7"/>
<path d="M14.3554 13.5348C14.1912 13.7005 14.3206 14.1766 14.2815 14.4221H17.5719C18.1945 14.4221 18.1997 15.8943 17.7634 16.0171L12.8344 15.9801C12.6961 15.8507 12.5793 15.6947 12.5786 15.4965C12.7287 13.6879 12.3833 11.5724 12.58 9.80146C12.6355 9.30234 12.807 9.22101 13.2832 9.17368C14.2275 9.07978 16.4154 9.06943 17.3493 9.17221C18.0244 9.24689 18.1287 9.60921 18.0533 10.2466C17.9867 10.81 17.7013 10.8367 17.2044 10.8758C16.3237 10.9446 15.3566 10.8189 14.4656 10.8729C14.172 10.8832 14.2245 11.7661 14.402 11.8238C14.6438 11.9029 15.9496 11.843 16.3171 11.8378C16.5515 11.8349 16.7393 11.6744 16.8961 11.9879C17.0698 12.3347 17.1083 13.2257 16.7009 13.4047C16.53 13.4794 16.4199 13.4372 16.2764 13.4609C15.9237 13.52 14.538 13.35 14.3539 13.5348H14.3554Z" fill="#D7E2F7"/>
<path d="M9.97874 9.11811C9.99057 9.12329 9.99649 9.22311 10.0482 9.24086C10.3854 9.35547 11.2624 9.66899 11.2927 10.0942C11.3164 10.4321 10.7514 11.1404 10.3995 11.1715C9.70737 11.2329 9.84269 10.7774 9.42048 10.6694C9.24893 10.6251 8.8977 10.6265 8.73059 10.6827C8.48732 10.7641 8.31429 11.0835 8.41042 11.3194C8.60785 11.8008 9.72512 11.7268 10.1569 11.9102C10.2545 11.9516 10.2501 12.0699 10.3255 12.1298C10.5133 11.7031 10.4934 12.1668 10.5185 12.1912C10.5525 12.2244 10.7529 12.2052 10.8601 12.2592C11.6047 12.6356 11.7792 13.7018 11.6121 14.4516C11.5789 14.601 11.3289 15.2287 11.2491 15.3271C11.1818 15.4099 11.0775 15.3921 10.9977 15.4609C10.5363 15.8617 10.452 15.8432 9.90184 16.0547C9.83677 16.0798 9.84269 16.1959 9.80202 16.1974C9.70959 16.2003 9.58611 16.0953 9.44931 16.1197C9.39903 16.1286 9.4079 16.2558 9.35097 16.2698C9.25706 16.2928 8.87774 16.2928 8.78531 16.2698C8.72763 16.2558 8.73798 16.1234 8.68992 16.119C8.30838 16.0828 8.22926 16.1604 7.77451 15.9386C7.32568 15.7197 6.37995 14.9729 6.5478 14.4198C6.56555 14.3614 6.96262 13.8682 7.01586 13.829C7.7368 13.3003 8.17972 14.3111 8.7158 14.5522C9.31104 14.8206 10.0786 14.4405 9.83234 13.7314C9.73621 13.4556 9.02488 13.4223 8.80675 13.3528C7.8381 13.0452 6.84875 12.6755 6.6846 11.556C6.49752 10.2798 7.25691 9.19797 8.54795 9.09593C8.71136 9.08262 9.91293 9.08928 9.97874 9.11811Z" fill="#D7E2F7"/>
<path d="M68.8882 10.7252C68.9266 10.7341 69.2571 10.9545 69.2963 11.0025C69.706 11.5024 69.3488 12.4259 68.7403 12.4259H67.4463V10.7252C67.8611 10.7866 68.5081 10.6409 68.8882 10.7252Z" fill="#D7E2F7"/>
</g>
</g>
<defs>
<clipPath id="clip0_7559_11744">
<rect width="77.8091" height="25" fill="white"/>
</clipPath>
<clipPath id="clip1_7559_11744">
<rect width="77.8091" height="25" fill="white"/>
</clipPath>
</defs>
</svg>
