<svg width="80" height="25" viewBox="0 0 80 25" fill="none" xmlns="http://www.w3.org/2000/svg">
<g clip-path="url(#clip0_7559_11628)">
<path d="M11.9232 7.14104C11.9232 4.60444 9.69366 2.5 6.97947 2.5C4.2648 2.5 2.03478 4.60542 2.03478 7.14055V8.62445H0V19.2938L6.978 22.5L13.9599 19.2948V8.67154H11.9251L11.9237 7.14055L11.9232 7.14104ZM4.5552 7.14104C4.5552 5.9451 5.62213 4.98804 6.97947 4.98804C8.33681 4.98804 9.40276 5.9451 9.40276 7.14104V8.62445H4.55569L4.5552 7.14104ZM11.1481 17.572L6.97751 19.4871L2.80837 17.5735V11.1606H11.1476L11.1481 17.572Z" fill="#D7E2F7"/>
<path d="M19.6313 8.62444H28.4052V11.1606H25.3997V19.3419H22.5884V11.1606H19.6313V8.62444ZM38.4884 12.2128C38.4884 10.0593 36.9853 8.67203 34.7558 8.67203H29.6654V19.3414H32.4772V15.7535H33.5437L35.5309 19.3414H38.7817L36.4065 15.3709C37.4219 14.9883 38.4884 13.9827 38.4884 12.2128ZM34.4188 13.2655H32.4772V11.112H34.4164C35.1434 11.112 35.628 11.5432 35.628 12.1652C35.628 12.8348 35.1434 13.2655 34.4164 13.2655H34.4188ZM39.7967 8.62444H47.6498V11.1125H42.608V12.6916H47.5046V15.1315H42.608V16.8533H47.6498V19.3419H39.7967V8.62444ZM63.4041 8.48022C60.1082 8.48022 57.7825 10.825 57.7825 13.9832C57.7825 17.1408 60.1562 19.4871 63.4041 19.4871C66.652 19.4871 69.0758 17.1428 69.0758 13.9846C69.0758 10.8265 66.7006 8.48072 63.4041 8.48072V8.48022ZM63.4041 16.9976C61.7564 16.9976 60.6409 15.7535 60.6409 13.9856C60.6409 12.1672 61.7564 10.9727 63.4041 10.9727C65.0524 10.9727 66.2159 12.2172 66.2159 13.9851C66.2159 15.7535 65.0524 16.9971 63.4041 16.9971V16.9976ZM76.9775 15.3709C77.9949 14.9883 79.0623 13.9827 79.0623 12.2128C79.0623 10.0593 77.5593 8.67203 75.3293 8.67203H70.2399V19.3414H73.0512V15.7535H74.1196L76.1068 19.3414H79.3547L76.9775 15.3709ZM74.9898 13.2655H73.0512V11.112H74.9898C75.7178 11.112 76.202 11.5432 76.202 12.1652C76.202 12.8348 75.7178 13.2655 74.9898 13.2655ZM49.0071 8.62444H57.2964V10.7774L52.7882 16.8062H57.2964V19.3419H49.0071V17.1884L53.5152 11.1606H49.0071V8.62444Z" fill="#D7E2F7"/>
</g>
<defs>
<clipPath id="clip0_7559_11628">
<rect width="79.3544" height="20" fill="white" transform="translate(0 2.5)"/>
</clipPath>
</defs>
</svg>
