<svg width="80" height="21" viewBox="0 0 80 21" fill="none" xmlns="http://www.w3.org/2000/svg">
<g clip-path="url(#clip0_7252_25272)">
<path d="M11.9232 5.14104C11.9232 2.60444 9.69366 0.5 6.97947 0.5C4.2648 0.5 2.03478 2.60542 2.03478 5.14055V6.62445H0V17.2938L6.978 20.5L13.9599 17.2948V6.67154H11.9251L11.9237 5.14055L11.9232 5.14104ZM4.5552 5.14104C4.5552 3.9451 5.62213 2.98804 6.97947 2.98804C8.33681 2.98804 9.40276 3.9451 9.40276 5.14104V6.62445H4.55569L4.5552 5.14104ZM11.1481 15.572L6.97751 17.4871L2.80837 15.5735V9.16057H11.1476L11.1481 15.572Z" fill="#D7E2F7"/>
<path d="M19.6313 6.62469H28.4052V9.16081H25.3997V17.3421H22.5884V9.16081H19.6313V6.62469ZM38.4884 10.213C38.4884 8.05953 36.9853 6.67227 34.7558 6.67227H29.6654V17.3416H32.4772V13.7538H33.5437L35.5309 17.3416H38.7817L36.4065 13.3712C37.4219 12.9885 38.4884 11.9829 38.4884 10.213ZM34.4188 11.2657H32.4772V9.11224H34.4164C35.1434 9.11224 35.628 9.54343 35.628 10.1654C35.628 10.835 35.1434 11.2657 34.4164 11.2657H34.4188ZM39.7967 6.62469H47.6498V9.11273H42.608V10.6918H47.5046V13.1318H42.608V14.8536H47.6498V17.3421H39.7967V6.62469ZM63.4041 6.48047C60.1082 6.48047 57.7825 8.82527 57.7825 11.9834C57.7825 15.141 60.1562 17.4873 63.4041 17.4873C66.652 17.4873 69.0758 15.143 69.0758 11.9849C69.0758 8.82674 66.7006 6.48096 63.4041 6.48096V6.48047ZM63.4041 14.9978C61.7564 14.9978 60.6409 13.7538 60.6409 11.9859C60.6409 10.1674 61.7564 8.97293 63.4041 8.97293C65.0524 8.97293 66.2159 10.2174 66.2159 11.9854C66.2159 13.7538 65.0524 14.9973 63.4041 14.9973V14.9978ZM76.9775 13.3712C77.9949 12.9885 79.0623 11.9829 79.0623 10.213C79.0623 8.05953 77.5593 6.67227 75.3293 6.67227H70.2399V17.3416H73.0512V13.7538H74.1196L76.1068 17.3416H79.3547L76.9775 13.3712ZM74.9898 11.2657H73.0512V9.11224H74.9898C75.7178 9.11224 76.202 9.54343 76.202 10.1654C76.202 10.835 75.7178 11.2657 74.9898 11.2657ZM49.0071 6.62469H57.2964V8.77769L52.7882 14.8065H57.2964V17.3421H49.0071V15.1886L53.5152 9.16081H49.0071V6.62469Z" fill="#D7E2F7"/>
</g>
<defs>
<clipPath id="clip0_7252_25272">
<rect width="79.3544" height="20" fill="white" transform="translate(0 0.5)"/>
</clipPath>
</defs>
</svg>
