<svg width="45" height="45" viewBox="0 0 45 45" fill="none" xmlns="http://www.w3.org/2000/svg">
<path d="M20.5391 22.7622C22.2127 23.1798 27.5793 24.0067 26.7823 27.2036C26.0193 30.2692 20.8573 28.6123 19.1837 28.1967L20.5391 22.7622Z" fill="white" fill-opacity="0.3"/>
<path d="M22.3887 15.3461C23.7825 15.6935 28.271 16.3416 27.546 19.2504C26.8497 22.0383 22.5544 20.6224 21.1602 20.2748L22.3887 15.3461Z" fill="white" fill-opacity="0.3"/>
<path fill-rule="evenodd" clip-rule="evenodd" d="M0.676816 17.06C3.68087 5.00492 15.8906 -2.33187 27.9434 0.673285C39.999 3.67844 47.3346 15.8894 44.3292 27.9438C41.3235 39.9972 29.1138 47.3324 17.0577 44.3266C5.0066 41.3214 -2.32978 29.1128 0.676816 17.06ZM20.5665 11.894C20.0292 11.7716 19.5012 11.6511 18.9893 11.5239L18.9922 11.5112L15.5879 10.6606L14.9307 13.2973C14.9307 13.2973 16.7624 13.7176 16.7237 13.7436C17.7236 13.9932 17.9043 14.6546 17.8741 15.1791L16.7227 19.7993C16.7916 19.8168 16.8811 19.8419 16.9795 19.8813C16.8974 19.8609 16.8094 19.8386 16.7188 19.8168L15.1036 26.2895C14.9811 26.5932 14.6712 27.0482 13.9727 26.8754C13.996 26.9108 12.1907 26.4316 12.1778 26.4282L10.9522 29.2534L14.1651 30.0541C14.7627 30.2039 15.3484 30.3606 15.9249 30.5082L14.9034 34.6108L17.3692 35.226L18.3819 31.1674C19.0553 31.3502 19.709 31.5193 20.3487 31.6782L19.3409 35.7172L21.8096 36.3325L22.8311 32.2387C27.041 33.0353 30.2075 32.7138 31.5401 28.9067C32.6138 25.8413 31.4863 24.0725 29.2715 22.9194C30.8845 22.5474 32.0997 21.4859 32.4239 19.2944C32.8717 16.3006 30.5918 14.6913 27.4747 13.6176L28.4854 9.56196L26.0167 8.94672L25.0323 12.895C24.3833 12.7333 23.7162 12.5813 23.0538 12.4301L24.046 8.45551L21.5782 7.84028L20.5665 11.894Z" fill="white" fill-opacity="0.3"/>
</svg>
