<svg width="45" height="45" viewBox="0 0 45 45" fill="none" xmlns="http://www.w3.org/2000/svg">
    <path d="M20.5362 22.7622C22.2097 23.1798 27.5764 24.0067 26.7794 27.2036C26.0164 30.2692 20.8543 28.6123 19.1807 28.1967L20.5362 22.7622Z" fill="white" fill-opacity="0.3"/>
    <path d="M22.3858 15.3461C23.7795 15.6935 28.268 16.3416 27.543 19.2504C26.8467 22.0383 22.5515 20.6224 21.1573 20.2748L22.3858 15.3461Z" fill="white" fill-opacity="0.3"/>
    <path fill-rule="evenodd" clip-rule="evenodd" d="M0.673886 17.06C3.67794 5.00492 15.8877 -2.33187 27.9405 0.673285C39.9961 3.67844 47.3317 15.8894 44.3262 27.9438C41.3206 39.9972 29.1109 47.3324 17.0547 44.3266C5.00367 41.3214 -2.33271 29.1128 0.673886 17.06ZM20.5635 11.894C20.0263 11.7716 19.4983 11.6511 18.9864 11.5239L18.9893 11.5112L15.585 10.6606L14.9278 13.2973C14.9278 13.2973 16.7594 13.7176 16.7208 13.7436C17.7207 13.9932 17.9014 14.6546 17.8712 15.1791L16.7198 19.7993C16.7887 19.8168 16.8782 19.8419 16.9766 19.8813C16.8945 19.8609 16.8065 19.8386 16.7159 19.8168L15.1006 26.2895C14.9782 26.5932 14.6683 27.0482 13.9698 26.8754C13.9931 26.9108 12.1877 26.4316 12.1749 26.4282L10.9493 29.2534L14.1622 30.0541C14.7598 30.2039 15.3454 30.3606 15.9219 30.5082L14.9004 34.6108L17.3663 35.226L18.379 31.1674C19.0524 31.3502 19.7061 31.5193 20.3458 31.6782L19.3379 35.7172L21.8067 36.3325L22.8282 32.2387C27.0381 33.0353 30.2046 32.7138 31.5372 28.9067C32.6109 25.8413 31.4834 24.0725 29.2686 22.9194C30.8816 22.5474 32.0968 21.4859 32.421 19.2944C32.8688 16.3006 30.5888 14.6913 27.4717 13.6176L28.4825 9.56196L26.0137 8.94672L25.0294 12.895C24.3803 12.7333 23.7132 12.5813 23.0508 12.4301L24.043 8.45551L21.5753 7.84028L20.5635 11.894Z" fill="white" fill-opacity="0.3"/>
</svg>
