<svg width="45" height="45" viewBox="0 0 45 45" fill="none" xmlns="http://www.w3.org/2000/svg">
<g clip-path="url(#clip0_14106_283500)">
<path d="M22.5 0C34.9263 8.06958e-05 45 10.0736 45 22.5C44.9999 34.9263 34.9263 44.9999 22.5 45C10.0736 45 5.87561e-05 34.9264 0 22.5C0 10.0736 10.0736 0 22.5 0ZM19.1768 9.02246L20.1816 12.9746C19.5479 13.1345 18.8971 13.2714 18.252 13.4541L17.2471 9.52539L14.8369 10.1475L15.8594 14.1113C15.3397 14.2598 10.9932 15.373 10.9932 15.373L11.6562 17.9541C11.6843 17.9462 13.4145 17.461 13.4092 17.4971C14.3913 17.2402 14.8543 17.7318 15.0713 18.1943L17.8809 29.0557C17.9151 29.3698 17.8575 29.9071 17.1836 30.0898C17.2236 30.1127 15.4307 30.541 15.4307 30.541L15.6934 33.5498C15.7124 33.5449 19.9995 32.4483 20.5645 32.3057L21.5986 36.3145L24.0078 35.6914L22.9746 31.6543C23.6369 31.5001 24.2821 31.3404 24.9102 31.1748L25.9385 35.1895L28.3486 34.5664L27.3145 30.5635C31.0263 29.6612 33.6481 27.3198 33.1113 23.7393C32.7687 21.5807 30.4099 19.8103 28.4512 19.6104C29.656 18.5425 30.2666 16.983 29.5186 14.9443C28.3878 12.3808 25.7898 11.8323 22.6094 12.3633L21.5869 8.40039L19.1768 9.02246ZM20.8672 23.499C22.5004 23.0707 27.5481 21.2724 28.3594 24.3955C28.8391 27.9418 23.9107 28.3764 22.2832 28.8047L20.8672 23.499ZM19.0342 16.2236C20.3991 15.8866 24.3559 14.2541 25.3896 17.1719C25.8978 20.3238 21.6848 20.6898 20.3252 21.0381L19.0342 16.2236Z" fill="white"/>
<path d="M22.5 0C34.9263 8.06958e-05 45 10.0736 45 22.5C44.9999 34.9263 34.9263 44.9999 22.5 45C10.0736 45 5.87561e-05 34.9264 0 22.5C0 10.0736 10.0736 0 22.5 0ZM19.1768 9.02246L20.1816 12.9746C19.5479 13.1345 18.8971 13.2714 18.252 13.4541L17.2471 9.52539L14.8369 10.1475L15.8594 14.1113C15.3397 14.2598 10.9932 15.373 10.9932 15.373L11.6562 17.9541C11.6843 17.9462 13.4145 17.461 13.4092 17.4971C14.3913 17.2402 14.8543 17.7318 15.0713 18.1943L17.8809 29.0557C17.9151 29.3698 17.8575 29.9071 17.1836 30.0898C17.2236 30.1127 15.4307 30.541 15.4307 30.541L15.6934 33.5498C15.7124 33.5449 19.9995 32.4483 20.5645 32.3057L21.5986 36.3145L24.0078 35.6914L22.9746 31.6543C23.6369 31.5001 24.2821 31.3404 24.9102 31.1748L25.9385 35.1895L28.3486 34.5664L27.3145 30.5635C31.0263 29.6612 33.6481 27.3198 33.1113 23.7393C32.7687 21.5807 30.4099 19.8103 28.4512 19.6104C29.656 18.5425 30.2666 16.983 29.5186 14.9443C28.3878 12.3808 25.7898 11.8323 22.6094 12.3633L21.5869 8.40039L19.1768 9.02246ZM20.8672 23.499C22.5004 23.0707 27.5481 21.2724 28.3594 24.3955C28.8391 27.9418 23.9107 28.3764 22.2832 28.8047L20.8672 23.499ZM19.0342 16.2236C20.3991 15.8866 24.3559 14.2541 25.3896 17.1719C25.8978 20.3238 21.6848 20.6898 20.3252 21.0381L19.0342 16.2236Z" fill="white"/>
</g>
<defs>
<clipPath id="clip0_14106_283500">
<rect width="45" height="45" fill="white"/>
</clipPath>
</defs>
</svg>
