<svg width="45" height="45" viewBox="0 0 45 45" fill="none" xmlns="http://www.w3.org/2000/svg">
<path d="M22.5078 0C34.9341 0.000140704 45.0078 10.0737 45.0078 22.5C45.0077 34.9263 34.9341 44.9999 22.5078 45C10.0814 45 0.00787848 34.9264 0.0078125 22.5C0.0078125 10.0736 10.0814 0 22.5078 0ZM9.15234 12.2344L14.374 16.7734C12.5729 17.5073 11.0827 18.8446 10.1582 20.5557C9.23365 22.2671 8.93194 24.2473 9.30566 26.1562C9.67941 28.0652 10.7054 29.785 12.207 31.0215C13.7086 32.2577 15.5931 32.9341 17.5381 32.9346H24.165L19.6475 29.0137H17.5381C16.3534 29.0136 15.2166 28.5427 14.3789 27.7051C13.5412 26.8673 13.0713 25.7306 13.0713 24.5459C13.0714 23.3614 13.5415 22.2254 14.3789 21.3877C15.2166 20.5501 16.3534 20.0791 17.5381 20.0791H24.168L15.1377 12.2344H9.15234ZM20.9355 12.2344L25.4561 16.1553H27.5645C28.7491 16.1554 29.8859 16.6263 30.7236 17.4639C31.5613 18.3016 32.0322 19.4383 32.0322 20.623C32.0322 21.8077 31.5613 22.9445 30.7236 23.7822C29.886 24.6198 28.749 25.0907 27.5645 25.0908H20.9355L29.9697 32.9326H35.9551L30.7285 28.3955C32.5298 27.6616 34.0208 26.3246 34.9453 24.6133C35.8698 22.9019 36.1706 20.9216 35.7969 19.0127C35.4231 17.104 34.398 15.3838 32.8965 14.1475C31.3949 12.9111 29.5095 12.2349 27.5645 12.2344H20.9355Z" fill="white"/>
</svg>
