<svg width="45" height="45" viewBox="0 0 45 45" fill="none" xmlns="http://www.w3.org/2000/svg">
<path d="M23.039 14.8271H19.8242V21.1652H24.882V23.8188H19.8242V30.1564H23.1965C24.063 30.1564 30.3101 30.2543 30.3004 22.7827C30.2908 15.3111 24.2414 14.8271 23.039 14.8271Z" fill="white"/>
<path d="M22.5 0C10.0735 0 0 10.0735 0 22.5C0 34.9265 10.0735 45 22.5 45C34.9265 45 45 34.9265 45 22.5C45 10.0735 34.9265 0 22.5 0ZM23.384 34.6523H15.2357V23.8194H12.3633V21.1658H15.2354V10.3322H22.2289C23.8833 10.3322 34.8415 9.98865 34.8415 22.6955C34.8415 35.6126 23.3843 34.6523 23.3843 34.6523H23.384Z" fill="white"/>
</svg>
