<svg width="45" height="45" viewBox="0 0 45 45" fill="none" xmlns="http://www.w3.org/2000/svg">
    <path fill-rule="evenodd" clip-rule="evenodd"
        d="M22.5 0C34.9264 1.31503e-05 45 10.0736 45 22.5C45 34.9264 34.9264 45 22.5 45C10.0736 45 0 34.9264 0 22.5C5.32078e-06 10.0736 10.0736 0 22.5 0ZM31.9238 24.5098C31.9009 24.4852 31.8639 24.4799 31.835 24.4971L22.4922 30.0254L13.1504 24.5146C13.1214 24.4976 13.0844 24.5026 13.0615 24.5273C13.0392 24.5521 13.0365 24.5898 13.0557 24.6172L22.4346 37.8242C22.4526 37.849 22.4853 37.8597 22.5146 37.8506C22.5296 37.8457 22.542 37.8355 22.5508 37.8232L31.9297 24.5996C31.9491 24.5721 31.9466 24.5346 31.9238 24.5098ZM22.4736 7.12402C22.4714 7.12463 22.4689 7.12515 22.4668 7.12598L22.4658 7.12695C22.4534 7.13228 22.4431 7.14147 22.4355 7.15234C22.4345 7.15359 22.4325 7.15483 22.4316 7.15625L13.0527 22.7285C13.0432 22.7446 13.0405 22.765 13.0449 22.7832C13.0497 22.8015 13.0619 22.8185 13.0781 22.8281L22.4561 28.3604L22.458 28.3613C22.4631 28.3642 22.4692 28.3638 22.4746 28.3652C22.4808 28.367 22.4868 28.3691 22.4932 28.3691C22.4982 28.3691 22.5029 28.3673 22.5078 28.3662C22.5146 28.3648 22.5221 28.3647 22.5283 28.3613L22.5293 28.3604L31.9082 22.8281C31.9245 22.8185 31.9366 22.8015 31.9414 22.7832C31.9458 22.7649 31.9423 22.7447 31.9326 22.7285L22.5547 7.15625C22.5538 7.15475 22.5519 7.15371 22.5508 7.15234C22.5432 7.14157 22.5329 7.13327 22.5205 7.12793C22.5192 7.12736 22.518 7.12646 22.5166 7.12598C22.515 7.12539 22.5134 7.12449 22.5117 7.12402H22.4736Z"
        fill="white" />
</svg>
