<svg width="45" height="45" viewBox="0 0 45 45" fill="none" xmlns="http://www.w3.org/2000/svg">
    <path fill-rule="evenodd" clip-rule="evenodd" d="M22.5 0C34.9264 0 45 10.0736 45 22.5C45 34.9264 34.9264 45 22.5 45C10.0736 45 0 34.9264 0 22.5C0 10.0736 10.0736 0 22.5 0ZM28.6064 10.7783C29.0054 10.0602 28.3821 9.64197 27.7285 10.0605L12.7285 22.9854C11.3838 24.1719 12.7057 24.1825 12.7285 24.1826H21.1865L16.5586 33.3584C15.8408 34.7146 16.5586 35.193 17.5957 34.3154L32.3564 21.3105C33.7128 20.1935 32.3564 20.1934 32.3564 20.1934H23.8193L28.6064 10.7783Z" fill="white" fill-opacity="0.3"/>
</svg>
