<svg width="45" height="45" viewBox="0 0 45 45" fill="none" xmlns="http://www.w3.org/2000/svg">
<g clip-path="url(#clip0_14106_283475)">
<path d="M22.5 0C34.9264 1.21195e-05 45 10.0736 45 22.5C45 34.9264 34.9264 45 22.5 45C10.0736 45 0 34.9264 0 22.5C4.33268e-05 10.0736 10.0736 0 22.5 0ZM12.7871 8.59277L20.8467 21.1973H14.0205V22.7969H20.915L18.8535 25.9951H14.0205L14.0195 27.5938H17.8223L11.9453 36.708H14.1152L20.0557 27.5938H24.999L30.8506 36.708H33.0381L27.2451 27.5938H31.0342V25.9951H26.2285L24.1963 22.7969H31.0342V21.1973H24.2295L32.3984 8.59277H30.3057L22.582 20.4326L15.0176 8.59277H12.7871ZM23.9727 25.9951H21.0977L22.5459 23.7734L23.9727 25.9951Z" fill="white"/>
</g>
<defs>
<clipPath id="clip0_14106_283475">
<rect width="45" height="45" fill="white"/>
</clipPath>
</defs>
</svg>
