<svg width="45" height="45" viewBox="0 0 45 45" fill="none" xmlns="http://www.w3.org/2000/svg">
<g clip-path="url(#clip0_14106_283456)">
<path d="M22.502 -0.000976562C34.9708 -0.000976562 45.002 10.0302 45.002 22.499C45.0019 34.9678 34.9707 44.999 22.502 44.999C10.0334 44.9988 0.00204158 34.9676 0.00195312 22.499C0.00195312 10.0303 10.0333 -0.000779672 22.502 -0.000976562ZM20.7686 14.6992V28.2783L16.5889 30.7012L12.3828 28.2764V23.4287L16.5889 21.0273L19.292 22.5957V18.6729L16.5645 17.125L8.99121 21.5244V30.2275L16.5908 34.6035L24.1641 30.2275V16.6514L28.3691 14.2256L32.5723 16.6514V21.4775L28.3691 23.9238L25.6416 22.3418V26.2441L28.3438 27.8027L35.9912 23.4521V14.6992L28.3438 10.3486L20.7686 14.6992Z" fill="white"/>
<path d="M22.502 -0.000976562C34.9708 -0.000976562 45.002 10.0302 45.002 22.499C45.0019 34.9678 34.9707 44.999 22.502 44.999C10.0334 44.9988 0.00204158 34.9676 0.00195312 22.499C0.00195312 10.0303 10.0333 -0.000779672 22.502 -0.000976562ZM20.7686 14.6992V28.2783L16.5889 30.7012L12.3828 28.2764V23.4287L16.5889 21.0273L19.292 22.5957V18.6729L16.5645 17.125L8.99121 21.5244V30.2275L16.5908 34.6035L24.1641 30.2275V16.6514L28.3691 14.2256L32.5723 16.6514V21.4775L28.3691 23.9238L25.6416 22.3418V26.2441L28.3438 27.8027L35.9912 23.4521V14.6992L28.3438 10.3486L20.7686 14.6992Z" fill="white"/>
<path d="M22.502 -0.000976562C34.9708 -0.000976562 45.002 10.0302 45.002 22.499C45.0019 34.9678 34.9707 44.999 22.502 44.999C10.0334 44.9988 0.00204158 34.9676 0.00195312 22.499C0.00195312 10.0303 10.0333 -0.000779672 22.502 -0.000976562ZM20.7686 14.6992V28.2783L16.5889 30.7012L12.3828 28.2764V23.4287L16.5889 21.0273L19.292 22.5957V18.6729L16.5645 17.125L8.99121 21.5244V30.2275L16.5908 34.6035L24.1641 30.2275V16.6514L28.3691 14.2256L32.5723 16.6514V21.4775L28.3691 23.9238L25.6416 22.3418V26.2441L28.3438 27.8027L35.9912 23.4521V14.6992L28.3438 10.3486L20.7686 14.6992Z" fill="white"/>
</g>
<defs>
<clipPath id="clip0_14106_283456">
<rect width="45" height="45" fill="white"/>
</clipPath>
</defs>
</svg>
