<svg width="45" height="45" viewBox="0 0 45 45" fill="none" xmlns="http://www.w3.org/2000/svg">
<path d="M22.5 0C34.9264 0 45 10.0736 45 22.5C45 34.9264 34.9264 45 22.5 45C10.0736 45 0 34.9264 0 22.5C0 10.0736 10.0736 0 22.5 0ZM14.0039 27.8584C13.7712 27.8584 13.5483 27.9517 13.3828 28.1172L9.125 32.375C8.84572 32.6492 9.04248 33.1249 9.43555 33.125H30.9844C31.2171 33.1249 31.44 33.0327 31.6055 32.8672L35.8633 28.6084C36.1421 28.3342 35.9457 27.8585 35.5527 27.8584H14.0039ZM9.43555 19.8604C9.04249 19.8605 8.84574 20.3362 9.125 20.6104L13.3828 24.8633C13.5483 25.0288 13.7712 25.122 14.0039 25.1221H35.5527C35.9458 25.1219 36.1426 24.6453 35.8633 24.3711L31.6055 20.1191C31.44 19.9536 31.2171 19.8604 30.9844 19.8604H9.43555ZM14.0039 11.9648C13.7712 11.9649 13.5483 12.0581 13.3828 12.2236L9.125 16.4766C8.84607 16.7508 9.04259 17.2264 9.43555 17.2266H30.9844C31.2171 17.2265 31.44 17.1333 31.6055 16.9678L35.8633 12.7148C36.1423 12.4406 35.9457 11.965 35.5527 11.9648H14.0039Z" fill="white"/>
</svg>
