<svg width="45" height="45" viewBox="0 0 45 45" fill="none" xmlns="http://www.w3.org/2000/svg">
<g clip-path="url(#clip0_14106_283461)">
<path d="M22.502 0C34.9708 0 45.002 10.0312 45.002 22.5C45.0019 34.9688 34.9707 45 22.502 45C10.0333 44.9998 0.00201811 34.9686 0.00195312 22.5C0.00195312 10.0313 10.0333 0.00019689 22.502 0ZM10.3018 9.46582C10.2097 9.47871 10.1214 9.51208 10.0439 9.56348L9.95996 9.62988C9.85611 9.73535 9.77661 9.86295 9.72852 10.0029L9.70703 10.0605V10.4248C11.6026 15.703 19.0856 32.9903 20.5596 37.0479C20.6483 37.323 20.8168 37.8472 21.1318 37.874H21.2031C21.3719 37.8737 22.0908 36.9238 22.0908 36.9238C22.1307 36.8754 34.9476 21.3323 36.2461 19.6748C36.4144 19.4703 36.5635 19.2501 36.6904 19.0176C36.7227 18.8358 36.7069 18.6487 36.6455 18.4746C36.5841 18.3004 36.4782 18.1448 36.3389 18.0234C35.0073 16.7939 33.1652 14.9165 31.665 13.585L31.5762 13.5225C31.4285 13.404 31.2623 13.3106 31.084 13.2471C27.4677 12.5726 10.6421 9.4282 10.3018 9.46582ZM22.4678 21.0068L21.0303 33.3379L12.5293 12.5732L22.4678 21.0068ZM22.7256 33.3281L24.1104 21.5703L33.7783 20.0117L22.7256 33.3281ZM34.0938 18.2549L25.3887 19.8389L30.875 15.2891L34.0938 18.2549ZM29.0957 14.6191L23.2578 19.542L13.8125 11.8008L29.0957 14.6191Z" fill="white"/>
<path d="M22.502 0C34.9708 0 45.002 10.0312 45.002 22.5C45.0019 34.9688 34.9707 45 22.502 45C10.0333 44.9998 0.00201811 34.9686 0.00195312 22.5C0.00195312 10.0313 10.0333 0.00019689 22.502 0ZM10.3018 9.46582C10.2097 9.47871 10.1214 9.51208 10.0439 9.56348L9.95996 9.62988C9.85611 9.73535 9.77661 9.86295 9.72852 10.0029L9.70703 10.0605V10.4248C11.6026 15.703 19.0856 32.9903 20.5596 37.0479C20.6483 37.323 20.8168 37.8472 21.1318 37.874H21.2031C21.3719 37.8737 22.0908 36.9238 22.0908 36.9238C22.1307 36.8754 34.9476 21.3323 36.2461 19.6748C36.4144 19.4703 36.5635 19.2501 36.6904 19.0176C36.7227 18.8358 36.7069 18.6487 36.6455 18.4746C36.5841 18.3004 36.4782 18.1448 36.3389 18.0234C35.0073 16.7939 33.1652 14.9165 31.665 13.585L31.5762 13.5225C31.4285 13.404 31.2623 13.3106 31.084 13.2471C27.4677 12.5726 10.6421 9.4282 10.3018 9.46582ZM22.4678 21.0068L21.0303 33.3379L12.5293 12.5732L22.4678 21.0068ZM22.7256 33.3281L24.1104 21.5703L33.7783 20.0117L22.7256 33.3281ZM34.0938 18.2549L25.3887 19.8389L30.875 15.2891L34.0938 18.2549ZM29.0957 14.6191L23.2578 19.542L13.8125 11.8008L29.0957 14.6191Z" fill="white"/>
</g>
<defs>
<clipPath id="clip0_14106_283461">
<rect width="45" height="45" fill="white"/>
</clipPath>
</defs>
</svg>
