<svg width="45" height="45" viewBox="0 0 45 45" fill="none" xmlns="http://www.w3.org/2000/svg">
<g clip-path="url(#clip0_14106_283493)">
<path d="M13.7119 1.75879C25.1729 -3.02246 38.3916 2.32129 43.2432 13.7119C45.5634 19.3369 45.5635 25.6651 43.1729 31.2197C40.9228 36.6336 36.6336 40.9229 31.2197 43.1729C19.8293 48.024 6.61032 42.6101 1.75879 31.2197C-3.0927 19.8293 2.25133 6.54022 13.7119 1.75879ZM3.18262 16.3516C-0.145276 27.0591 5.78769 38.4179 16.4951 41.7461C27.2027 45.074 38.5617 39.0689 41.8174 28.4336C42.3961 26.4803 42.7578 24.4543 42.7578 22.4287C42.7578 20.4032 42.4684 18.3771 41.8174 16.3516H32.4844L32.4121 29.6641L22.5723 20.1855L12.5879 29.6641V16.3516H3.18262ZM10.6348 18.377V34.2939L13.9629 31.1104L22.5723 23.0078L31.1094 31.1104L34.4375 34.2939V18.377H40.2979C40.5872 19.6791 40.7314 21.0542 40.7314 22.4287C40.7314 32.4852 32.5565 40.7333 22.5 40.7334C12.4436 40.7333 4.19533 32.4852 4.19531 22.4287C4.19535 21.0542 4.34044 19.6791 4.70215 18.377H10.6348ZM41.0938 14.3975C36.6078 4.12452 24.5984 -0.505917 14.3975 3.97949C9.76724 6.00521 6.00434 9.76729 3.97852 14.3975H14.542V25.1055L21.126 18.8115L22.5 17.5088L23.875 18.8115L30.459 25.0332V14.3975H41.0938Z" fill="white"/>
<path d="M13.7119 1.75879C25.1729 -3.02246 38.3916 2.32129 43.2432 13.7119C45.5634 19.3369 45.5635 25.6651 43.1729 31.2197C40.9228 36.6336 36.6336 40.9229 31.2197 43.1729C19.8293 48.024 6.61032 42.6101 1.75879 31.2197C-3.0927 19.8293 2.25133 6.54022 13.7119 1.75879ZM3.18262 16.3516C-0.145276 27.0591 5.78769 38.4179 16.4951 41.7461C27.2027 45.074 38.5617 39.0689 41.8174 28.4336C42.3961 26.4803 42.7578 24.4543 42.7578 22.4287C42.7578 20.4032 42.4684 18.3771 41.8174 16.3516H32.4844L32.4121 29.6641L22.5723 20.1855L12.5879 29.6641V16.3516H3.18262ZM10.6348 18.377V34.2939L13.9629 31.1104L22.5723 23.0078L31.1094 31.1104L34.4375 34.2939V18.377H40.2979C40.5872 19.6791 40.7314 21.0542 40.7314 22.4287C40.7314 32.4852 32.5565 40.7333 22.5 40.7334C12.4436 40.7333 4.19533 32.4852 4.19531 22.4287C4.19535 21.0542 4.34044 19.6791 4.70215 18.377H10.6348ZM41.0938 14.3975C36.6078 4.12452 24.5984 -0.505917 14.3975 3.97949C9.76724 6.00521 6.00434 9.76729 3.97852 14.3975H14.542V25.1055L21.126 18.8115L22.5 17.5088L23.875 18.8115L30.459 25.0332V14.3975H41.0938Z" fill="#FFF5FD"/>
</g>
<defs>
<clipPath id="clip0_14106_283493">
<rect width="45" height="45" fill="white"/>
</clipPath>
</defs>
</svg>
