<svg width="45" height="45" viewBox="0 0 45 45" fill="none" xmlns="http://www.w3.org/2000/svg">
<g clip-path="url(#clip0_14106_283482)">
<path d="M22.5 0C34.9687 2.36518e-05 44.9999 10.0313 45 22.5C45 34.9688 34.9688 45 22.5 45C10.0312 45 0 34.9688 0 22.5C0.000105523 10.0313 10.0312 0 22.5 0ZM24.8584 9C23.774 8.99998 22.862 8.99998 22.1162 9.06152C21.3365 9.12589 20.5934 9.26609 19.8896 9.62988C18.8186 10.1836 17.9507 11.066 17.4131 12.1494C17.0599 12.8613 16.9305 13.61 16.876 14.3945C16.8278 15.0882 16.8341 15.9239 16.8457 16.9072C15.8456 16.9074 14.9982 16.9103 14.2979 16.9678C13.5253 17.0312 12.7889 17.1693 12.0898 17.5273C11.0251 18.0728 10.1597 18.9432 9.61719 20.0137C9.26107 20.7163 9.12368 21.4559 9.06055 22.2324C9.0002 22.975 8.99998 23.8827 9 24.9609V27.9463C8.99998 29.0243 9.00022 29.9313 9.06055 30.6738C9.12367 31.4506 9.26101 32.1908 9.61719 32.8936C10.1597 33.9639 11.0251 34.8345 12.0898 35.3799C12.7889 35.7379 13.5253 35.876 14.2979 35.9395C15.0364 36.0001 15.9386 36 17.0107 36H20.1855C21.1636 36 21.9867 35.9999 22.6621 35.9492C23.3677 35.8963 24.0419 35.781 24.6914 35.4814C25.9227 34.9136 26.9107 33.9206 27.4756 32.6826C27.7735 32.0297 27.8877 31.3519 27.9404 30.6426C27.9908 29.9635 27.9913 29.1356 27.9912 28.1523V28.0928H27.9893C29.0615 28.0928 29.9636 28.0928 30.7021 28.0322C31.4748 27.9688 32.2111 27.8307 32.9102 27.4727C33.9749 26.9272 34.8403 26.0568 35.3828 24.9863C35.739 24.2835 35.8763 23.5433 35.9395 22.7666C35.9998 22.0241 36 21.117 36 20.0391V17.0537C36 15.9757 35.9998 15.0686 35.9395 14.3262C35.8763 13.5495 35.739 12.8092 35.3828 12.1064C34.8403 11.036 33.9749 10.1656 32.9102 9.62012C32.2111 9.26203 31.4748 9.12401 30.7021 9.06055C29.9637 8.9999 29.0615 8.99998 27.9893 9H24.8584ZM22.4756 20.1855L17.4756 25.3047C17.0155 25.7759 16.8816 26.4791 17.1357 27.0879C17.3899 27.6967 17.9829 28.0928 18.6396 28.0928H24.7305C24.7305 29.1515 24.7288 29.8561 24.6885 30.3984C24.6495 30.9235 24.5805 31.1645 24.5117 31.3154C24.2724 31.84 23.8538 32.2613 23.332 32.502C23.1818 32.5712 22.9418 32.6404 22.4189 32.6797C21.8794 32.7201 21.179 32.7217 20.126 32.7217H17.0762C15.9212 32.7217 15.1524 32.7203 14.5625 32.6719C13.992 32.6249 13.733 32.5423 13.5703 32.459C13.1192 32.2279 12.7524 31.8588 12.5225 31.4053C12.4396 31.2418 12.3572 30.9811 12.3105 30.4072C12.2624 29.8142 12.2607 29.0418 12.2607 27.8809V25.0264C12.2607 23.8653 12.2624 23.0931 12.3105 22.5C12.3572 21.9261 12.4396 21.6655 12.5225 21.502C12.7524 21.0483 13.1191 20.6794 13.5703 20.4482C13.733 20.3649 13.9919 20.2822 14.5625 20.2354C15.1524 20.1869 15.9212 20.1855 17.0762 20.1855H22.4756ZM27.9238 12.2783L29.3926 12.2852C29.8024 12.2915 30.1417 12.3039 30.4365 12.3281C31.0074 12.375 31.267 12.4577 31.4297 12.541C31.8808 12.7721 32.2477 13.1411 32.4775 13.5947C32.5604 13.7583 32.6428 14.0188 32.6895 14.5928C32.7376 15.1859 32.7383 15.9581 32.7383 17.1191V19.9736C32.7383 21.1347 32.7376 21.9069 32.6895 22.5C32.6428 23.0739 32.5604 23.3345 32.4775 23.498C32.2477 23.9516 31.8808 24.3206 31.4297 24.5518C31.267 24.6351 31.0074 24.7178 30.4365 24.7646C29.8466 24.8131 29.0785 24.8145 27.9238 24.8145H22.5244L27.5244 19.6943L27.5234 19.6934C27.8121 19.3976 27.9912 18.9929 27.9912 18.5459C27.991 17.6408 27.2607 16.9072 26.3604 16.9072H20.1074C20.0954 15.8821 20.0905 15.1758 20.1289 14.623C20.1693 14.0419 20.2501 13.7784 20.332 13.6133C20.5598 13.1542 20.927 12.7795 21.3809 12.5449C21.5441 12.4606 21.8054 12.3768 22.3828 12.3291C22.9792 12.2799 23.7563 12.2783 24.9238 12.2783H27.9238Z" fill="white"/>
</g>
<defs>
<clipPath id="clip0_14106_283482">
<rect width="45" height="45" fill="white"/>
</clipPath>
</defs>
</svg>
