<svg width="1920" height="600" viewBox="0 0 1920 600" fill="none" xmlns="http://www.w3.org/2000/svg">
<g clip-path="url(#clip0_644_709)">
<rect width="1920" height="600" fill="url(#paint0_linear_644_709)"/>
<g style="mix-blend-mode:plus-darker">
<path d="M276.571 166.245C286.782 160.435 290.201 147.366 284.158 137.245L-20.8656 -373.636C-26.7569 -383.503 -39.4535 -386.871 -49.4082 -381.207L-321.086 -226.627C-323.321 -225.355 -325.301 -223.684 -326.929 -221.695C-400.022 -132.362 -473.081 -43.0023 -546.17 46.3337C-554.921 57.0293 -551.083 73.1533 -538.431 78.853L-7.60596 317.972C-1.46378 320.739 5.61906 320.412 11.4531 317.093L276.571 166.245Z" fill="url(#paint1_linear_644_709)" fill-opacity="0.15"/>
</g>
<g style="mix-blend-mode:plus-darker">
<path d="M1262.42 659.593C1253.65 667.329 1253.05 680.754 1261.07 689.415L1667.17 1127.97C1675.02 1136.45 1688.2 1137.18 1696.78 1129.61L1930.02 923.7C1931.94 922.001 1933.53 919.963 1934.7 917.686C1987.43 815.523 2040.12 713.341 2092.85 611.177C2099.14 598.975 2092.02 584.042 2078.45 581.015L1508.63 453.89C1502 452.413 1495.11 454.169 1490.07 458.612L1262.42 659.593Z" fill="url(#paint2_linear_644_709)" fill-opacity="0.15"/>
</g>
<g clip-path="url(#clip1_644_709)">
<path d="M842.52 272.836C848.75 272.836 854.132 274.111 858.663 276.377C863.336 278.784 866.877 282.041 869.426 286.431C871.975 290.679 873.249 295.777 873.249 301.583V345.481H860.362V336.295C858.139 339.405 855.307 341.926 851.866 343.924C847.476 346.473 842.378 347.748 836.572 347.748C831.616 347.748 827.084 346.756 823.261 344.915C819.437 342.933 816.464 340.242 814.34 336.844C812.216 333.445 811.082 329.621 811.082 325.231C811.082 318.009 813.915 312.345 819.438 308.238C825.102 303.99 832.749 302.008 842.236 302.008H859.938C859.938 296.627 858.238 292.236 854.981 289.121C851.724 286.006 847.193 284.307 841.387 284.307C833.882 284.307 827.226 287.422 821.562 293.652L813.349 284.873C821.562 276.802 831.333 272.836 842.52 272.836ZM981.433 272.836C987.805 272.836 993.469 274.394 998.426 277.651C1003.38 280.767 1007.21 285.156 1010.04 290.679C1012.87 296.201 1014.14 302.574 1014.14 309.796V314.895H961.461C961.845 318.078 962.634 321.004 963.873 323.674C965.714 327.497 968.404 330.472 971.944 332.737C975.343 334.861 979.45 335.994 984.265 335.994C988.513 335.994 992.337 335.003 995.735 333.162C999.134 331.321 1002.11 328.488 1004.8 324.807L1013.15 333.729C1009.47 338.402 1005.08 341.941 1000.12 344.207C995.027 346.614 989.504 347.748 983.557 347.748C976.193 347.748 969.821 346.19 964.298 342.933C958.775 339.676 954.385 335.286 951.27 329.622C948.154 323.958 946.597 317.584 946.597 310.362C946.597 303.14 948.154 296.768 951.128 291.104C954.243 285.439 958.35 281.05 963.59 277.793C968.971 274.536 974.919 272.836 981.433 272.836ZM1199.45 272.836C1205.68 272.836 1211.06 274.111 1215.59 276.377C1220.27 278.784 1223.81 282.041 1226.35 286.431C1228.9 290.679 1230.18 295.777 1230.18 301.583V345.481H1217.29V336.295C1215.07 339.406 1212.24 341.926 1208.79 343.924C1204.41 346.473 1199.31 347.748 1193.5 347.748C1188.55 347.748 1184.01 346.756 1180.19 344.915C1176.37 342.933 1173.39 340.242 1171.27 336.844C1169.14 333.445 1168.01 329.621 1168.01 325.231C1168.01 318.009 1170.84 312.345 1176.37 308.238C1182.03 303.99 1189.68 302.008 1199.17 302.008H1216.87C1216.87 296.627 1215.17 292.236 1211.91 289.121C1208.65 286.006 1204.12 284.307 1198.32 284.307C1190.81 284.307 1184.16 287.422 1178.49 293.652L1170.28 284.873C1178.49 276.801 1188.26 272.836 1199.45 272.836ZM1328.99 272.836C1335.36 272.836 1341.02 274.394 1345.98 277.651C1350.94 280.767 1354.76 285.156 1357.59 290.679C1360.42 296.201 1361.7 302.574 1361.7 309.796V314.895H1309.02C1309.4 318.078 1310.19 321.004 1311.43 323.674C1313.27 327.497 1315.96 330.472 1319.5 332.737C1322.9 334.861 1327 335.994 1331.82 335.994C1336.07 335.994 1339.89 335.003 1343.29 333.162C1346.69 331.321 1349.66 328.488 1352.35 324.807L1360.71 333.729C1357.03 338.402 1352.64 341.941 1347.68 344.207C1342.58 346.614 1337.06 347.748 1331.11 347.748C1323.75 347.748 1317.38 346.19 1311.85 342.933C1306.33 339.676 1301.94 335.286 1298.82 329.622C1295.71 323.958 1294.15 317.584 1294.15 310.362C1294.15 303.14 1295.71 296.768 1298.68 291.104C1301.8 285.439 1305.91 281.05 1311.14 277.793C1316.53 274.536 1322.47 272.836 1328.99 272.836ZM769.958 241.965C777.746 241.965 784.969 243.664 791.341 246.921C797.855 250.178 803.236 254.993 807.768 261.082L797.854 270.995C794.597 265.756 790.49 261.79 785.817 259.1C781.003 256.409 775.764 254.993 769.816 254.993C763.302 254.993 757.355 256.692 752.257 260.232C747.017 263.631 743.052 268.304 740.078 274.252C737.104 280.2 735.688 287.138 735.688 294.927C735.688 302.574 737.104 309.371 740.078 315.318C743.052 321.408 747.017 326.081 752.257 329.479C757.355 333.02 763.161 334.719 769.816 334.719C775.622 334.719 781.003 333.303 785.817 330.612C790.632 327.78 794.597 323.815 797.854 318.717L807.768 328.63C803.519 334.577 797.996 339.251 791.199 342.649C784.261 346.048 777.18 347.747 769.675 347.747C762.594 347.747 756.079 346.473 750.132 343.782C744.043 341.233 738.945 337.409 734.414 332.736C730.024 327.922 726.484 322.257 724.076 315.885C721.669 309.371 720.395 302.432 720.395 294.927C720.395 287.28 721.669 280.2 724.218 273.827C726.625 267.455 730.166 261.79 734.556 256.976C738.945 252.303 744.184 248.479 750.273 245.93C756.363 243.239 762.878 241.965 769.958 241.965ZM899.913 306.651L931.067 275.102H948.769L914.468 308.993L952.733 345.481H933.758L899.913 312.53V345.481H885.752V243.523H899.913V306.651ZM1256.84 345.481H1242.68V243.523H1256.84V345.481ZM1284.63 345.481H1270.47V243.523H1284.63V345.481ZM1388.52 275.102H1406.22V286.997H1388.52V326.364C1388.52 328.63 1389.09 330.472 1390.22 331.746C1391.35 332.879 1393.05 333.587 1395.32 333.587H1407.07V345.481H1391.07C1385.55 345.481 1381.3 344.065 1378.61 341.092C1375.78 338.118 1374.36 333.869 1374.36 328.205V286.997H1361.9V275.102H1374.36V255.418H1388.52V275.102ZM1078.52 326.695L1100.3 244.23H1114.46L1136.45 327.489L1157.65 244.23H1172.66L1144.77 345.48H1128.34L1107.24 265.303L1086.14 345.48H1069.85L1041.82 244.23H1057.39L1078.52 326.695ZM843.511 312.062C837.846 312.063 833.456 313.195 830.199 315.319C827.084 317.585 825.526 320.7 825.526 324.665C825.526 328.205 826.801 331.18 829.35 333.304C831.757 335.569 835.156 336.702 839.404 336.702C843.369 336.702 847.052 335.853 850.309 334.012C853.566 332.312 856.114 329.763 858.097 326.647C858.825 325.502 859.438 324.28 859.938 322.996V312.062H843.511ZM1200.44 312.062C1194.78 312.062 1190.39 313.195 1187.13 315.319C1184.01 317.585 1182.46 320.7 1182.46 324.665C1182.46 328.205 1183.73 331.18 1186.28 333.304C1188.69 335.569 1192.09 336.702 1196.33 336.702C1200.3 336.702 1203.98 335.852 1207.24 334.012C1210.49 332.312 1213.04 329.763 1215.03 326.647C1215.76 325.502 1216.37 324.28 1216.87 322.996V312.062H1200.44ZM981.291 284.59C977.326 284.59 973.927 285.581 970.812 287.705C967.696 289.829 965.431 292.804 963.731 296.627C962.656 299.046 961.922 301.748 961.527 304.698H999.899C999.336 299.246 997.713 294.715 995.027 291.245C991.77 286.714 987.097 284.59 981.291 284.59ZM1328.85 284.59C1324.88 284.59 1321.48 285.581 1318.37 287.705C1315.25 289.829 1312.99 292.804 1311.29 296.627C1310.21 299.046 1309.48 301.748 1309.08 304.698H1347.45C1346.89 299.246 1345.27 294.715 1342.58 291.245C1339.33 286.714 1334.65 284.59 1328.85 284.59Z" fill="#312938"/>
<path d="M651.409 287.096C648.957 289.54 646.916 292.055 645.537 295.738C644.158 299.422 643.475 303.433 642.492 309.777C641.085 318.809 638.34 322.361 636.167 324.603C631.729 329.178 625.424 328.921 617.741 327.403C612.912 326.449 611.658 327.597 605.918 332.556L575.656 362.514L575.642 407.994C575.642 408.809 576.631 409.22 577.209 408.643L666.59 319.443C667.794 318.238 668.477 316.609 668.477 314.903L668.588 269.826L651.409 287.089V287.096Z" fill="url(#paint3_linear_644_709)"/>
<path d="M615.348 315.552C621.173 315.72 625.234 319.932 630.027 316.91C634.82 313.888 634.688 310.525 635.614 304.968C636.547 299.403 638.394 292.934 640.037 289.034C641.688 285.127 645.374 280.134 649.122 276.493L668.44 256.402L668.565 236.158C668.565 234.919 667.075 234.292 666.197 235.169L578.343 322.99C576.615 324.717 575.646 327.057 575.646 329.494V349.424L605.324 319.647C605.324 319.647 609.518 315.392 615.341 315.559L615.348 315.552Z" fill="url(#paint4_linear_644_709)"/>
<path d="M668.593 219.556L575.646 312.71V292.822C575.646 290.385 576.615 288.045 578.343 286.318L666.218 198.476C667.089 197.606 668.586 198.219 668.586 199.458V219.556H668.593Z" fill="url(#paint5_linear_644_709)"/>
<path d="M661.439 184.159L504.088 218.427C498.451 219.653 494.432 224.639 494.432 230.405V345.259C494.432 346.965 495.108 348.601 496.319 349.813L562.529 415.997C563.88 417.348 566.194 416.393 566.194 414.479V291.387C566.2 287.327 567.816 283.427 570.687 280.558L663.417 187.772C664.929 186.261 663.535 183.705 661.446 184.159H661.439Z" fill="url(#paint6_linear_644_709)"/>
</g>
<g style="mix-blend-mode:plus-darker" opacity="0.06">
<path d="M-323.728 679.737C-333.151 686.698 -334.951 700.049 -327.723 709.377L143.703 1317.81C150.762 1326.92 163.803 1328.78 173.007 1321.98L497.114 1082.58C499.179 1081.06 500.943 1079.17 502.316 1077C582.181 951 661.997 824.969 741.857 698.966C749.229 687.336 743.454 671.811 730.202 667.635L13.2054 441.688C6.75647 439.656 -0.25285 440.812 -5.64986 444.798L-323.728 679.737Z" fill="url(#paint7_linear_644_709)" style="mix-blend-mode:multiply"/>
</g>
<g opacity="0.08">
<rect x="868.527" y="567.229" width="33.8822" height="67.234" transform="rotate(20.4442 868.527 567.229)" fill="#F7551A"/>
<rect x="282.482" y="236.152" width="29.5682" height="69.7856" transform="rotate(14.9813 282.482 236.152)" fill="#F7551A"/>
<rect x="533.282" y="-30.7285" width="35.5348" height="79.5729" transform="rotate(25.7283 533.282 -30.7285)" fill="#6181FF"/>
</g>
<g opacity="0.1">
<rect width="33.8822" height="67.234" transform="matrix(0.986892 0.161384 0.161384 -0.986892 1791.89 47.5742)" fill="#F7551A"/>
<rect width="39.3349" height="79.5729" transform="matrix(0.866025 0.5 0.5 -0.866025 1324.8 135.035)" fill="#FFC414"/>
<rect width="29.5682" height="69.7856" transform="matrix(0.96601 -0.258503 -0.258503 -0.96601 1204.31 527.588)" fill="#6181FF"/>
</g>
</g>
<defs>
<linearGradient id="paint0_linear_644_709" x1="960" y1="0" x2="960" y2="600" gradientUnits="userSpaceOnUse">
<stop stop-color="white"/>
<stop offset="1" stop-color="#EFEFF8"/>
</linearGradient>
<linearGradient id="paint1_linear_644_709" x1="-148.05" y1="177.997" x2="307.929" y2="62.6017" gradientUnits="userSpaceOnUse">
<stop stop-color="#FFC414" stop-opacity="0"/>
<stop offset="1" stop-color="#FFC414"/>
</linearGradient>
<linearGradient id="paint2_linear_644_709" x1="1453.78" y1="465.218" x2="1808.42" y2="694.413" gradientUnits="userSpaceOnUse">
<stop stop-color="#61C5FF"/>
<stop offset="1" stop-color="#61C5FF" stop-opacity="0"/>
</linearGradient>
<linearGradient id="paint3_linear_644_709" x1="666.157" y1="295.871" x2="575.977" y2="388.872" gradientUnits="userSpaceOnUse">
<stop stop-color="#FF7D38"/>
<stop offset="0.61" stop-color="#FE6412"/>
<stop offset="1" stop-color="#EB4600"/>
</linearGradient>
<linearGradient id="paint4_linear_644_709" x1="645.734" y1="269.849" x2="573.513" y2="345.82" gradientUnits="userSpaceOnUse">
<stop stop-color="#61C5FF"/>
<stop offset="1" stop-color="#2A92FA"/>
</linearGradient>
<linearGradient id="paint5_linear_644_709" x1="668.593" y1="212.655" x2="582.147" y2="306.139" gradientUnits="userSpaceOnUse">
<stop stop-color="#FFC414"/>
<stop offset="1" stop-color="#FF9447"/>
</linearGradient>
<linearGradient id="paint6_linear_644_709" x1="695.154" y1="54.6218" x2="489.976" y2="397.442" gradientUnits="userSpaceOnUse">
<stop stop-color="#776A83"/>
<stop offset="0.11" stop-color="#776A83"/>
<stop offset="0.57" stop-color="#312938"/>
<stop offset="0.96" stop-color="#19151D"/>
<stop offset="1" stop-color="#19151D"/>
</linearGradient>
<linearGradient id="paint7_linear_644_709" x1="-402.637" y1="699.751" x2="737.075" y2="686.777" gradientUnits="userSpaceOnUse">
<stop stop-color="#312938" stop-opacity="0"/>
<stop offset="1" stop-color="#312938"/>
</linearGradient>
<clipPath id="clip0_644_709">
<rect width="1920" height="600" fill="white"/>
</clipPath>
<clipPath id="clip1_644_709">
<rect width="931.135" height="232.784" fill="white" transform="translate(494.433 183.883)"/>
</clipPath>
</defs>
</svg>
