<svg opacity="0.85" width="44" height="44" viewBox="0 0 44 44" fill="none" xmlns="http://www.w3.org/2000/svg">
<circle cx="22" cy="22" r="22" fill="#2972FF"/>
<circle cx="22" cy="22" r="22" fill="#091440"/>
<circle cx="22" cy="22" r="22" fill="#012895"/>
<circle cx="22" cy="22" r="22" fill="#091440"/>
<path fill-rule="evenodd" clip-rule="evenodd" d="M23.6216 19.6318H17.1401C15.9817 19.6318 14.8705 20.092 14.0513 20.9111C13.2321 21.7303 12.772 22.8415 12.772 24C12.772 25.1585 13.2321 26.2697 14.0513 27.0889C14.8704 27.908 15.9817 28.3682 17.1401 28.3682H19.2026L23.6196 32.2021H17.1401C15.2382 32.2017 13.3956 31.54 11.9273 30.3311C10.459 29.1221 9.45577 27.4408 9.09034 25.5742C8.72494 23.7077 9.01942 21.772 9.92335 20.0986C10.8273 18.4253 12.285 17.118 14.0464 16.4004L8.93995 11.9619H14.7935L23.6216 19.6318ZM26.9429 11.9619C28.8449 11.9623 30.6875 12.624 32.1558 13.833C33.6241 15.042 34.6273 16.7233 34.9927 18.5898C35.3581 20.4564 35.0636 22.392 34.1597 24.0654C33.2557 25.7388 31.798 27.046 30.0366 27.7637L35.147 32.2002H29.2944L20.4614 24.5322H26.9429C28.1013 24.5322 29.2126 24.072 30.0317 23.2529C30.8509 22.4338 31.311 21.3225 31.311 20.1641C31.311 19.0056 30.8509 17.8944 30.0317 17.0752C29.2126 16.256 28.1013 15.7959 26.9429 15.7959H24.8804L20.4614 11.9619H26.9429Z" fill="white"/>
</svg>
