<svg width="15" height="16" viewBox="0 0 15 16" fill="none" xmlns="http://www.w3.org/2000/svg">
    <g clip-path="url(#clip0_10958_57031)">
        <mask id="mask0_10958_57031" style="mask-type:luminance" maskUnits="userSpaceOnUse" x="-1" y="0" width="16" height="16">
            <path d="M14.4978 0H-0.00219727V16H14.4978V0Z" fill="white"/>
        </mask>
        <g mask="url(#mask0_10958_57031)">
            <path d="M8.46295 9.21579L7.66965 11.3397C7.64625 11.3986 7.64625 11.4641 7.66965 11.523L9.03195 15.1786L10.6085 14.2884L8.71735 9.21579C8.6738 9.09799 8.50645 9.09799 8.46295 9.21579Z" fill="#D7E2F7"/>
            <path d="M10.0492 5.64206C10.0057 5.52426 9.8384 5.52426 9.7949 5.64206L9.0016 7.76601C8.97815 7.82496 8.97815 7.89041 9.0016 7.94931L11.2341 13.935L12.8107 13.0448L10.0492 5.64206Z" fill="#D7E2F7"/>
            <path d="M7.2478 0.991615C7.28795 0.991615 7.3248 1.00143 7.3616 1.02107L13.3732 4.41481C13.4435 4.45408 13.487 4.52608 13.487 4.60463V11.3921C13.487 11.4707 13.4435 11.5426 13.3732 11.5819L7.3616 14.9789C7.32815 14.9985 7.28795 15.0084 7.2478 15.0084C7.20765 15.0084 7.1708 14.9985 7.134 14.9789L1.1258 11.5852C1.05551 11.5459 1.012 11.4739 1.012 11.3954V4.60463C1.012 4.52608 1.05551 4.45408 1.1258 4.41481L7.13735 1.02107C7.1708 1.00143 7.211 0.991615 7.2478 0.991615ZM7.2478 0C7.0336 0 6.81935 0.055635 6.62855 0.163632L0.617033 3.55737C0.235453 3.77337 -0.00219727 4.17264 -0.00219727 4.60463V11.3921C-0.00219727 11.8241 0.235453 12.2267 0.617033 12.4426L6.62855 15.8364C6.81935 15.9444 7.0336 16 7.2478 16C7.462 16 7.67625 15.9444 7.86705 15.8364L13.8786 12.4426C14.2635 12.2267 14.4978 11.8274 14.4978 11.3921V4.60463C14.4978 4.17264 14.2602 3.7701 13.8786 3.5541L7.8704 0.163632C7.67625 0.055635 7.462 0 7.2478 0Z" fill="#D7E2F7"/>
            <path d="M3.27527 13.9416L3.82755 12.4624L4.93882 13.3657L3.90119 14.2951L3.27527 13.9416Z" fill="#D7E2F7"/>
            <path d="M6.74233 4.12036H5.21938C5.10558 4.12036 5.00178 4.18909 4.96497 4.29381L1.69812 13.0514L3.27465 13.9416L6.87288 4.29709C6.90298 4.212 6.83938 4.12036 6.74233 4.12036Z" fill="#D7E2F7"/>
            <path d="M9.40972 4.12036H7.88677C7.77297 4.12036 7.66917 4.18909 7.63237 4.29381L3.90027 14.295L5.47677 15.1852L9.53692 4.30036C9.57037 4.212 9.50347 4.12036 9.40972 4.12036Z" fill="#D7E2F7"/>
        </g>
    </g>
    <defs>
        <clipPath id="clip0_10958_57031">
            <rect width="14.5" height="16" fill="white"/>
        </clipPath>
    </defs>
</svg>
