<svg width="16" height="16" viewBox="0 0 16 16" fill="none" xmlns="http://www.w3.org/2000/svg">
    <path d="M12.8702 9.05127C12.8821 9.06418 12.8832 9.08379 12.8732 9.09814L7.99036 15.9819C7.9859 15.9888 7.9801 15.9948 7.9718 15.9976C7.95636 16.0024 7.93919 15.9971 7.92981 15.9839L3.047 9.10791C3.03691 9.09358 3.03808 9.07396 3.04993 9.06104C3.06172 9.04833 3.08079 9.04563 3.09583 9.0542L7.95911 11.9224L12.8243 9.04443C12.8394 9.03582 12.8584 9.03861 12.8702 9.05127ZM7.97375 0.00244141C7.98122 0.00535592 7.98798 0.0100481 7.99231 0.0170898L12.8751 8.12549C12.8802 8.13389 12.8813 8.14429 12.879 8.15381C12.8766 8.16331 12.8708 8.17216 12.8624 8.17725L7.97864 11.0581C7.96719 11.0646 7.953 11.0647 7.94153 11.0581L3.05872 8.17725C3.05028 8.17216 3.04355 8.16336 3.04114 8.15381C3.03885 8.14433 3.04004 8.13387 3.04504 8.12549L7.92786 0.0170898C7.92847 0.0160823 7.92911 0.0150907 7.92981 0.0141602C7.93158 0.011717 7.93532 0.0112365 7.93762 0.00927734C7.94096 0.00664239 7.94338 0.00287135 7.94739 0.00146484C7.94835 0.00110723 7.94932 0.000765826 7.95032 0.000488281H7.96985L7.97375 0.00244141Z" fill="#D7E2F7"/>
</svg>
