<svg width="16" height="16" viewBox="0 0 16 16" fill="none" xmlns="http://www.w3.org/2000/svg">
    <g clip-path="url(#clip0_10958_57056)">
        <mask id="mask0_10958_57056" style="mask-type:luminance" maskUnits="userSpaceOnUse" x="0" y="0" width="16" height="16">
            <path d="M15.9701 0.0297852H0V15.9999H15.9701V0.0297852Z" fill="white"/>
        </mask>
        <g mask="url(#mask0_10958_57056)">
            <path d="M2.62806 7.0571C2.62078 6.59436 2.77125 6.14292 3.05473 5.7771L5.96459 8.68697C5.59783 8.96865 5.14704 9.1189 4.68459 9.11363C4.13987 9.11139 3.6181 8.89401 3.2329 8.50881C2.84771 8.12362 2.63032 7.60185 2.62806 7.0571Z" fill="#D7E2F7"/>
            <path d="M11.2851 9.11148C11.5576 9.11261 11.8276 9.05981 12.0795 8.95613C12.3315 8.85245 12.5604 8.69996 12.7531 8.5074C12.9459 8.31485 13.0986 8.08607 13.2026 7.83423C13.3065 7.58237 13.3596 7.31246 13.3587 7.04001C13.3638 6.57761 13.2136 6.12688 12.9321 5.76001L10.0137 8.67841C10.3764 8.96219 10.8246 9.11483 11.2851 9.11148Z" fill="#D7E2F7"/>
            <path d="M13.5359 5.1692C13.9845 5.69601 14.231 6.36528 14.2313 7.0572C14.2308 7.83538 13.9213 8.58147 13.3708 9.13153C12.8204 9.68156 12.0741 9.99053 11.2959 9.99053C10.6076 9.99132 9.94111 9.74876 9.41428 9.30573L8.00202 10.718L6.58975 9.30573C6.06256 9.74955 5.39515 9.99218 4.70602 9.99053C4.31982 9.99194 3.93712 9.91713 3.57989 9.77037C3.22265 9.6236 2.89789 9.40779 2.6242 9.1353C2.35052 8.86279 2.13328 8.53897 1.98496 8.18239C1.83665 7.82578 1.76016 7.44342 1.75988 7.0572C1.76044 6.36845 2.0028 5.70179 2.44468 5.17347L1.78548 4.51427L1.15616 3.87427C0.39805 5.12071 -0.00201957 6.55192 -0.000115304 8.0108C-0.000395751 9.0594 0.205975 10.0978 0.607189 11.0666C1.0084 12.0354 1.5966 12.9156 2.33817 13.657C3.07973 14.3983 3.96014 14.9863 4.92904 15.3873C5.89795 15.7882 6.93635 15.9943 7.98495 15.9937C10.1011 15.9932 12.1305 15.1529 13.6276 13.6574C15.1247 12.1618 15.9672 10.1333 15.97 8.0172C15.9832 6.55856 15.587 5.12547 14.8265 3.88067L13.5359 5.1692Z" fill="#D7E2F7"/>
            <path d="M13.7684 2.50445C13.0238 1.72155 12.1276 1.0984 11.1344 0.672961C10.1412 0.247521 9.07185 0.0286866 7.99138 0.0297893C6.91067 0.0292664 5.84115 0.248353 4.8477 0.67375C3.85425 1.09915 2.95759 1.72199 2.21218 2.50445C2.01805 2.71778 1.82819 2.93112 1.65112 3.15938L7.98498 9.49112L14.3188 3.15298C14.1516 2.92354 13.9677 2.70677 13.7684 2.50445ZM7.99138 8.01272L3.08471 3.10605C3.72623 2.45771 4.4906 1.94377 5.3331 1.59432C6.17559 1.24486 7.07929 1.06691 7.99138 1.07086C8.90363 1.06583 9.80766 1.2433 10.6503 1.59281C11.4929 1.94232 12.2572 2.45683 12.898 3.10605L7.99138 8.01272Z" fill="#D7E2F7"/>
        </g>
    </g>
    <defs>
        <clipPath id="clip0_10958_57056">
            <rect width="16" height="16" fill="white"/>
        </clipPath>
    </defs>
</svg>
