<svg width="24" height="24" viewBox="0 0 24 24" fill="none" xmlns="http://www.w3.org/2000/svg">
<rect width="24" height="24" rx="5" fill="#E05D00"/>
<rect width="24" height="24" rx="5" fill="#8C4AFF"/>
<rect width="24" height="24" rx="5" fill="url(#paint0_linear_13916_244066)"/>
<path d="M19.1998 8.16094V17.7609C19.1998 18.2009 19.0431 18.5776 18.7298 18.8909C18.4165 19.2043 18.0398 19.3609 17.5998 19.3609H6.3998C5.9598 19.3609 5.58314 19.2043 5.2698 18.8909C4.95647 18.5776 4.7998 18.2009 4.7998 17.7609V6.56094C4.7998 6.12094 4.95647 5.74427 5.2698 5.43094C5.58314 5.1176 5.9598 4.96094 6.3998 4.96094H15.9998L19.1998 8.16094ZM11.9998 16.9609C12.6665 16.9609 13.2331 16.7276 13.6998 16.2609C14.1665 15.7943 14.3998 15.2276 14.3998 14.5609C14.3998 13.8943 14.1665 13.3276 13.6998 12.8609C13.2331 12.3943 12.6665 12.1609 11.9998 12.1609C11.3331 12.1609 10.7665 12.3943 10.2998 12.8609C9.83314 13.3276 9.5998 13.8943 9.5998 14.5609C9.5998 15.2276 9.83314 15.7943 10.2998 16.2609C10.7665 16.7276 11.3331 16.9609 11.9998 16.9609ZM7.1998 10.5609H14.3998V7.36094H7.1998V10.5609Z" fill="white"/>
<path d="M19.1998 8.16094V17.7609C19.1998 18.2009 19.0431 18.5776 18.7298 18.8909C18.4165 19.2043 18.0398 19.3609 17.5998 19.3609H6.3998C5.9598 19.3609 5.58314 19.2043 5.2698 18.8909C4.95647 18.5776 4.7998 18.2009 4.7998 17.7609V6.56094C4.7998 6.12094 4.95647 5.74427 5.2698 5.43094C5.58314 5.1176 5.9598 4.96094 6.3998 4.96094H15.9998L19.1998 8.16094ZM11.9998 16.9609C12.6665 16.9609 13.2331 16.7276 13.6998 16.2609C14.1665 15.7943 14.3998 15.2276 14.3998 14.5609C14.3998 13.8943 14.1665 13.3276 13.6998 12.8609C13.2331 12.3943 12.6665 12.1609 11.9998 12.1609C11.3331 12.1609 10.7665 12.3943 10.2998 12.8609C9.83314 13.3276 9.5998 13.8943 9.5998 14.5609C9.5998 15.2276 9.83314 15.7943 10.2998 16.2609C10.7665 16.7276 11.3331 16.9609 11.9998 16.9609ZM7.1998 10.5609H14.3998V7.36094H7.1998V10.5609Z" fill="url(#paint1_linear_13916_244066)"/>
<path d="M19.1998 8.16094V17.7609C19.1998 18.2009 19.0431 18.5776 18.7298 18.8909C18.4165 19.2043 18.0398 19.3609 17.5998 19.3609H6.3998C5.9598 19.3609 5.58314 19.2043 5.2698 18.8909C4.95647 18.5776 4.7998 18.2009 4.7998 17.7609V6.56094C4.7998 6.12094 4.95647 5.74427 5.2698 5.43094C5.58314 5.1176 5.9598 4.96094 6.3998 4.96094H15.9998L19.1998 8.16094ZM11.9998 16.9609C12.6665 16.9609 13.2331 16.7276 13.6998 16.2609C14.1665 15.7943 14.3998 15.2276 14.3998 14.5609C14.3998 13.8943 14.1665 13.3276 13.6998 12.8609C13.2331 12.3943 12.6665 12.1609 11.9998 12.1609C11.3331 12.1609 10.7665 12.3943 10.2998 12.8609C9.83314 13.3276 9.5998 13.8943 9.5998 14.5609C9.5998 15.2276 9.83314 15.7943 10.2998 16.2609C10.7665 16.7276 11.3331 16.9609 11.9998 16.9609ZM7.1998 10.5609H14.3998V7.36094H7.1998V10.5609Z" fill="url(#paint2_linear_13916_244066)"/>
<defs>
<linearGradient id="paint0_linear_13916_244066" x1="12" y1="0" x2="12" y2="24" gradientUnits="userSpaceOnUse">
<stop stop-color="#8C4AFF"/>
<stop offset="1" stop-color="#792BFF"/>
</linearGradient>
<linearGradient id="paint1_linear_13916_244066" x1="12.0008" y1="4.95996" x2="12.0008" y2="19.36" gradientUnits="userSpaceOnUse">
<stop stop-color="white"/>
<stop offset="1" stop-color="#CBACFF"/>
</linearGradient>
<linearGradient id="paint2_linear_13916_244066" x1="12.0008" y1="4.95996" x2="12.0008" y2="19.36" gradientUnits="userSpaceOnUse">
<stop stop-color="white"/>
<stop offset="1" stop-color="#D6BEFF"/>
</linearGradient>
</defs>
</svg>
