<svg width="24" height="24" viewBox="0 0 24 24" fill="none" xmlns="http://www.w3.org/2000/svg">
<rect width="24" height="24" rx="5" fill="#F7931A"/>
<rect width="24" height="24" rx="5" fill="url(#paint0_linear_13916_244043)"/>
<path d="M14.5013 18.25C12.7568 18.25 11.2788 17.6447 10.0673 16.434C8.85576 15.2233 8.25 13.7457 8.25 12.0013C8.25 10.2568 8.85535 8.77882 10.066 7.56729C11.2767 6.35576 12.7543 5.75 14.4988 5.75C16.2432 5.75 17.7212 6.35535 18.9327 7.56604C20.1442 8.77674 20.75 10.2543 20.75 11.9988C20.75 13.7432 20.1447 15.2212 18.934 16.4327C17.7233 17.6442 16.2457 18.25 14.5013 18.25ZM7.83333 18.0256C6.46792 17.6634 5.36271 16.9238 4.51771 15.8069C3.67257 14.6899 3.25 13.421 3.25 12C3.25 10.579 3.67257 9.31007 4.51771 8.19313C5.36271 7.07618 6.46792 6.3366 7.83333 5.97438V7.29167C6.83333 7.63889 6.02778 8.24306 5.41667 9.10417C4.80556 9.96528 4.5 10.9306 4.5 12C4.5 13.0694 4.80556 14.0347 5.41667 14.8958C6.02778 15.7569 6.83333 16.3611 7.83333 16.7083V18.0256Z" fill="url(#paint1_linear_13916_244043)"/>
<defs>
<linearGradient id="paint0_linear_13916_244043" x1="12" y1="0" x2="12" y2="24" gradientUnits="userSpaceOnUse">
<stop stop-color="#91B0FF"/>
<stop offset="1" stop-color="#5B89FF"/>
</linearGradient>
<linearGradient id="paint1_linear_13916_244043" x1="12" y1="5.75" x2="12" y2="18.25" gradientUnits="userSpaceOnUse">
<stop stop-color="white"/>
<stop offset="1" stop-color="#B7CCFF"/>
</linearGradient>
</defs>
</svg>
