<svg width="24" height="24" viewBox="0 0 24 24" fill="none" xmlns="http://www.w3.org/2000/svg">
<rect width="24" height="24" rx="5" fill="#6D6D6D"/>
<rect width="24" height="24" rx="5" fill="url(#paint0_linear_13916_244055)"/>
<path d="M12.0002 19.7992C10.9268 19.7992 9.91572 19.594 8.96686 19.1835C8.01801 18.7728 7.19164 18.2155 6.48776 17.5117C5.78388 16.8078 5.22662 15.9814 4.81596 15.0326C4.40545 14.0837 4.2002 13.0726 4.2002 11.9992C4.2002 10.9225 4.40545 9.91055 4.81596 8.96329C5.22662 8.01616 5.78388 7.19066 6.48776 6.48679C7.19164 5.78291 8.01801 5.22564 8.96686 4.81499C9.91572 4.40447 10.9268 4.19922 12.0002 4.19922C13.0769 4.19922 14.0889 4.40447 15.0361 4.81499C15.9833 5.22564 16.8088 5.78291 17.5126 6.48679C18.2165 7.19066 18.7738 8.01616 19.1844 8.96329C19.5949 9.91055 19.8002 10.9225 19.8002 11.9992C19.8002 13.0726 19.5949 14.0837 19.1844 15.0326C18.7738 15.9814 18.2165 16.8078 17.5126 17.5117C16.8088 18.2155 15.9833 18.7728 15.0361 19.1835C14.0889 19.594 13.0769 19.7992 12.0002 19.7992ZM12.0002 18.9393C12.5091 18.2859 12.9285 17.6443 13.2586 17.0142C13.5885 16.3843 13.8568 15.6793 14.0635 14.8993H9.93688C10.1658 15.7236 10.4397 16.4509 10.7585 17.0809C11.0774 17.7108 11.4913 18.3303 12.0002 18.9393ZM10.8969 18.8093C10.4925 18.3326 10.1233 17.7434 9.78933 17.0417C9.45552 16.34 9.20693 15.6259 9.04356 14.8993H5.72011C6.21686 15.977 6.92102 16.8609 7.83261 17.5509C8.74435 18.2409 9.76578 18.6603 10.8969 18.8093ZM13.1035 18.8093C14.2346 18.6603 15.256 18.2409 16.1678 17.5509C17.0794 16.8609 17.7835 15.977 18.2803 14.8993H14.9568C14.738 15.637 14.4616 16.3567 14.1276 17.0584C13.7938 17.7601 13.4524 18.3437 13.1035 18.8093ZM5.36695 14.0326H8.86351C8.79793 13.677 8.75157 13.3306 8.72441 12.9933C8.69711 12.6562 8.68346 12.3248 8.68346 11.9992C8.68346 11.6736 8.69711 11.3423 8.72441 11.0052C8.75157 10.6679 8.79793 10.3214 8.86351 9.9658H5.36695C5.27248 10.2658 5.19881 10.5928 5.14595 10.9467C5.09322 11.3005 5.06686 11.6514 5.06686 11.9992C5.06686 12.347 5.09322 12.6979 5.14595 13.0518C5.19881 13.4057 5.27248 13.7326 5.36695 14.0326ZM9.73018 14.0326H14.2702C14.3358 13.677 14.3822 13.3361 14.4093 13.01C14.4366 12.684 14.4503 12.347 14.4503 11.9992C14.4503 11.6514 14.4366 11.3145 14.4093 10.9885C14.3822 10.6623 14.3358 10.3214 14.2702 9.9658H9.73018C9.6646 10.3214 9.61823 10.6623 9.59108 10.9885C9.56378 11.3145 9.55013 11.6514 9.55013 11.9992C9.55013 12.347 9.56378 12.684 9.59108 13.01C9.61823 13.3361 9.6646 13.677 9.73018 14.0326ZM15.1369 14.0326H18.6334C18.7279 13.7326 18.8016 13.4057 18.8544 13.0518C18.9072 12.6979 18.9335 12.347 18.9335 11.9992C18.9335 11.6514 18.9072 11.3005 18.8544 10.9467C18.8016 10.5928 18.7279 10.2658 18.6334 9.9658H15.1369C15.2025 10.3214 15.2488 10.6679 15.276 11.0052C15.3033 11.3423 15.3169 11.6736 15.3169 11.9992C15.3169 12.3248 15.3033 12.6562 15.276 12.9933C15.2488 13.3306 15.2025 13.677 15.1369 14.0326ZM14.9568 9.09914H18.2803C17.7724 7.99919 17.0766 7.11534 16.1927 6.44757C15.3088 5.7798 14.2791 5.35477 13.1035 5.17249C13.5079 5.70476 13.8715 6.31338 14.1944 6.99834C14.5172 7.68344 14.7714 8.3837 14.9568 9.09914ZM9.93688 9.09914H14.0635C13.8346 8.28591 13.5523 7.5504 13.2168 6.8926C12.8812 6.2348 12.4757 5.62366 12.0002 5.05917C11.5247 5.62366 11.1192 6.2348 10.7836 6.8926C10.4481 7.5504 10.1658 8.28591 9.93688 9.09914ZM5.72011 9.09914H9.04356C9.22903 8.3837 9.48318 7.68344 9.80601 6.99834C10.1288 6.31338 10.4925 5.70476 10.8969 5.17249C9.71017 5.35477 8.67768 5.78255 7.79946 6.4558C6.9211 7.1292 6.22798 8.01031 5.72011 9.09914Z" fill="white"/>
<path d="M12.0002 19.7992C10.9268 19.7992 9.91572 19.594 8.96686 19.1835C8.01801 18.7728 7.19164 18.2155 6.48776 17.5117C5.78388 16.8078 5.22662 15.9814 4.81596 15.0326C4.40545 14.0837 4.2002 13.0726 4.2002 11.9992C4.2002 10.9225 4.40545 9.91055 4.81596 8.96329C5.22662 8.01616 5.78388 7.19066 6.48776 6.48679C7.19164 5.78291 8.01801 5.22564 8.96686 4.81499C9.91572 4.40447 10.9268 4.19922 12.0002 4.19922C13.0769 4.19922 14.0889 4.40447 15.0361 4.81499C15.9833 5.22564 16.8088 5.78291 17.5126 6.48679C18.2165 7.19066 18.7738 8.01616 19.1844 8.96329C19.5949 9.91055 19.8002 10.9225 19.8002 11.9992C19.8002 13.0726 19.5949 14.0837 19.1844 15.0326C18.7738 15.9814 18.2165 16.8078 17.5126 17.5117C16.8088 18.2155 15.9833 18.7728 15.0361 19.1835C14.0889 19.594 13.0769 19.7992 12.0002 19.7992ZM12.0002 18.9393C12.5091 18.2859 12.9285 17.6443 13.2586 17.0142C13.5885 16.3843 13.8568 15.6793 14.0635 14.8993H9.93688C10.1658 15.7236 10.4397 16.4509 10.7585 17.0809C11.0774 17.7108 11.4913 18.3303 12.0002 18.9393ZM10.8969 18.8093C10.4925 18.3326 10.1233 17.7434 9.78933 17.0417C9.45552 16.34 9.20693 15.6259 9.04356 14.8993H5.72011C6.21686 15.977 6.92102 16.8609 7.83261 17.5509C8.74435 18.2409 9.76578 18.6603 10.8969 18.8093ZM13.1035 18.8093C14.2346 18.6603 15.256 18.2409 16.1678 17.5509C17.0794 16.8609 17.7835 15.977 18.2803 14.8993H14.9568C14.738 15.637 14.4616 16.3567 14.1276 17.0584C13.7938 17.7601 13.4524 18.3437 13.1035 18.8093ZM5.36695 14.0326H8.86351C8.79793 13.677 8.75157 13.3306 8.72441 12.9933C8.69711 12.6562 8.68346 12.3248 8.68346 11.9992C8.68346 11.6736 8.69711 11.3423 8.72441 11.0052C8.75157 10.6679 8.79793 10.3214 8.86351 9.9658H5.36695C5.27248 10.2658 5.19881 10.5928 5.14595 10.9467C5.09322 11.3005 5.06686 11.6514 5.06686 11.9992C5.06686 12.347 5.09322 12.6979 5.14595 13.0518C5.19881 13.4057 5.27248 13.7326 5.36695 14.0326ZM9.73018 14.0326H14.2702C14.3358 13.677 14.3822 13.3361 14.4093 13.01C14.4366 12.684 14.4503 12.347 14.4503 11.9992C14.4503 11.6514 14.4366 11.3145 14.4093 10.9885C14.3822 10.6623 14.3358 10.3214 14.2702 9.9658H9.73018C9.6646 10.3214 9.61823 10.6623 9.59108 10.9885C9.56378 11.3145 9.55013 11.6514 9.55013 11.9992C9.55013 12.347 9.56378 12.684 9.59108 13.01C9.61823 13.3361 9.6646 13.677 9.73018 14.0326ZM15.1369 14.0326H18.6334C18.7279 13.7326 18.8016 13.4057 18.8544 13.0518C18.9072 12.6979 18.9335 12.347 18.9335 11.9992C18.9335 11.6514 18.9072 11.3005 18.8544 10.9467C18.8016 10.5928 18.7279 10.2658 18.6334 9.9658H15.1369C15.2025 10.3214 15.2488 10.6679 15.276 11.0052C15.3033 11.3423 15.3169 11.6736 15.3169 11.9992C15.3169 12.3248 15.3033 12.6562 15.276 12.9933C15.2488 13.3306 15.2025 13.677 15.1369 14.0326ZM14.9568 9.09914H18.2803C17.7724 7.99919 17.0766 7.11534 16.1927 6.44757C15.3088 5.7798 14.2791 5.35477 13.1035 5.17249C13.5079 5.70476 13.8715 6.31338 14.1944 6.99834C14.5172 7.68344 14.7714 8.3837 14.9568 9.09914ZM9.93688 9.09914H14.0635C13.8346 8.28591 13.5523 7.5504 13.2168 6.8926C12.8812 6.2348 12.4757 5.62366 12.0002 5.05917C11.5247 5.62366 11.1192 6.2348 10.7836 6.8926C10.4481 7.5504 10.1658 8.28591 9.93688 9.09914ZM5.72011 9.09914H9.04356C9.22903 8.3837 9.48318 7.68344 9.80601 6.99834C10.1288 6.31338 10.4925 5.70476 10.8969 5.17249C9.71017 5.35477 8.67768 5.78255 7.79946 6.4558C6.9211 7.1292 6.22798 8.01031 5.72011 9.09914Z" fill="url(#paint1_linear_13916_244055)"/>
<defs>
<linearGradient id="paint0_linear_13916_244055" x1="12" y1="0" x2="12" y2="24" gradientUnits="userSpaceOnUse">
<stop stop-color="#8F8F8F"/>
<stop offset="1" stop-color="#6D6D6D"/>
</linearGradient>
<linearGradient id="paint1_linear_13916_244055" x1="12.0002" y1="4.19922" x2="12.0002" y2="19.7992" gradientUnits="userSpaceOnUse">
<stop stop-color="white"/>
<stop offset="1" stop-color="#DADADA"/>
</linearGradient>
</defs>
</svg>
