<svg width="24" height="24" viewBox="0 0 24 24" fill="none" xmlns="http://www.w3.org/2000/svg">
<rect width="24" height="24" rx="5" fill="black"/>
<rect width="24" height="24" rx="5" fill="url(#paint0_linear_13916_244062)"/>
<rect width="24" height="24" rx="5" fill="url(#paint1_linear_13916_244062)"/>
<rect width="24" height="24" rx="5" fill="url(#paint2_linear_13916_244062)"/>
<path d="M12.0015 14.794C12.8325 14.794 13.5383 14.5032 14.1189 13.9215C14.6994 13.3399 14.9897 12.6336 14.9897 11.8026C14.9897 10.9716 14.6989 10.2658 14.1172 9.68526C13.5356 9.10471 12.8292 8.81443 11.9982 8.81443C11.1673 8.81443 10.4615 9.10526 9.88093 9.68692C9.30037 10.2686 9.01009 10.9749 9.01009 11.8059C9.01009 12.6369 9.30092 13.3426 9.88258 13.9232C10.4642 14.5038 11.1706 14.794 12.0015 14.794ZM11.9999 13.7842C11.4499 13.7842 10.9824 13.5917 10.5974 13.2067C10.2124 12.8217 10.0199 12.3542 10.0199 11.8042C10.0199 11.2542 10.2124 10.7867 10.5974 10.4017C10.9824 10.0167 11.4499 9.82423 11.9999 9.82423C12.5499 9.82423 13.0174 10.0167 13.4024 10.4017C13.7874 10.7867 13.9799 11.2542 13.9799 11.8042C13.9799 12.3542 13.7874 12.8217 13.4024 13.2067C13.0174 13.5917 12.5499 13.7842 11.9999 13.7842ZM12.0008 16.9376C10.3145 16.9376 8.77799 16.4724 7.39126 15.542C6.00452 14.6118 4.98348 13.3659 4.32812 11.8042C4.98348 10.2426 6.00416 8.99666 7.39016 8.06643C8.77628 7.13608 10.3126 6.6709 11.999 6.6709C13.6853 6.6709 15.2218 7.13608 16.6085 8.06643C17.9953 8.99666 19.0163 10.2426 19.6717 11.8042C19.0163 13.3659 17.9956 14.6118 16.6096 15.542C15.2235 16.4724 13.6872 16.9376 12.0008 16.9376Z" fill="white"/>
<path d="M12.0015 14.794C12.8325 14.794 13.5383 14.5032 14.1189 13.9215C14.6994 13.3399 14.9897 12.6336 14.9897 11.8026C14.9897 10.9716 14.6989 10.2658 14.1172 9.68526C13.5356 9.10471 12.8292 8.81443 11.9982 8.81443C11.1673 8.81443 10.4615 9.10526 9.88093 9.68692C9.30037 10.2686 9.01009 10.9749 9.01009 11.8059C9.01009 12.6369 9.30092 13.3426 9.88258 13.9232C10.4642 14.5038 11.1706 14.794 12.0015 14.794ZM11.9999 13.7842C11.4499 13.7842 10.9824 13.5917 10.5974 13.2067C10.2124 12.8217 10.0199 12.3542 10.0199 11.8042C10.0199 11.2542 10.2124 10.7867 10.5974 10.4017C10.9824 10.0167 11.4499 9.82423 11.9999 9.82423C12.5499 9.82423 13.0174 10.0167 13.4024 10.4017C13.7874 10.7867 13.9799 11.2542 13.9799 11.8042C13.9799 12.3542 13.7874 12.8217 13.4024 13.2067C13.0174 13.5917 12.5499 13.7842 11.9999 13.7842ZM12.0008 16.9376C10.3145 16.9376 8.77799 16.4724 7.39126 15.542C6.00452 14.6118 4.98348 13.3659 4.32812 11.8042C4.98348 10.2426 6.00416 8.99666 7.39016 8.06643C8.77628 7.13608 10.3126 6.6709 11.999 6.6709C13.6853 6.6709 15.2218 7.13608 16.6085 8.06643C17.9953 8.99666 19.0163 10.2426 19.6717 11.8042C19.0163 13.3659 17.9956 14.6118 16.6096 15.542C15.2235 16.4724 13.6872 16.9376 12.0008 16.9376Z" fill="url(#paint3_linear_13916_244062)"/>
<defs>
<linearGradient id="paint0_linear_13916_244062" x1="12" y1="0" x2="12" y2="24" gradientUnits="userSpaceOnUse">
<stop stop-color="#2C2C2C"/>
<stop offset="1" stop-color="#191919"/>
</linearGradient>
<linearGradient id="paint1_linear_13916_244062" x1="12" y1="0" x2="12" y2="24" gradientUnits="userSpaceOnUse">
<stop stop-color="#351C83"/>
<stop offset="1" stop-color="#0C0033"/>
</linearGradient>
<linearGradient id="paint2_linear_13916_244062" x1="12" y1="0" x2="12" y2="24" gradientUnits="userSpaceOnUse">
<stop stop-color="#FF6200"/>
<stop offset="1" stop-color="#E20F0F"/>
</linearGradient>
<linearGradient id="paint3_linear_13916_244062" x1="11.9999" y1="6.6709" x2="11.9999" y2="16.9376" gradientUnits="userSpaceOnUse">
<stop stop-color="white"/>
<stop offset="1" stop-color="#FFA396"/>
</linearGradient>
</defs>
</svg>
