<svg width="24" height="24" viewBox="0 0 24 24" fill="none" xmlns="http://www.w3.org/2000/svg">
<rect width="24" height="24" rx="5" fill="#334C8C"/>
<rect width="24" height="24" rx="5" fill="url(#paint0_linear_13916_244072)"/>
<rect width="24" height="24" rx="5" fill="url(#paint1_linear_13916_244072)"/>
<rect width="24" height="24" rx="5" fill="url(#paint2_linear_13916_244072)"/>
<path d="M11.5605 15.7994H12.7605V11.1994H11.5605V15.7994ZM12.1605 9.83021C12.3436 9.83021 12.4971 9.76828 12.6209 9.64441C12.7448 9.52055 12.8067 9.36708 12.8067 9.18401C12.8067 9.00095 12.7448 8.84748 12.6209 8.72361C12.4971 8.59988 12.3436 8.53801 12.1605 8.53801C11.9775 8.53801 11.824 8.59988 11.7001 8.72361C11.5763 8.84748 11.5143 9.00095 11.5143 9.18401C11.5143 9.36708 11.5763 9.52055 11.7001 9.64441C11.824 9.76828 11.9775 9.83021 12.1605 9.83021ZM12.1619 19.5994C11.1107 19.5994 10.1227 19.3999 9.19775 19.001C8.27281 18.6021 7.46828 18.0607 6.78415 17.3768C6.10001 16.6929 5.55835 15.8887 5.15915 14.9642C4.76008 14.0397 4.56055 13.0519 4.56055 12.0008C4.56055 10.9496 4.76001 9.96155 5.15895 9.03661C5.55788 8.11168 6.09928 7.30715 6.78315 6.62301C7.46701 5.93888 8.27121 5.39721 9.19575 4.99801C10.1203 4.59895 11.1081 4.39941 12.1591 4.39941C13.2103 4.39941 14.1984 4.59888 15.1233 4.99781C16.0483 5.39675 16.8528 5.93815 17.5369 6.62201C18.2211 7.30588 18.7627 8.11008 19.1619 9.03461C19.561 9.95915 19.7605 10.9469 19.7605 11.998C19.7605 13.0492 19.5611 14.0373 19.1621 14.9622C18.7632 15.8871 18.2218 16.6917 17.5379 17.3758C16.8541 18.0599 16.0499 18.6016 15.1253 19.0008C14.2008 19.3999 13.213 19.5994 12.1619 19.5994ZM12.1605 18.3994C13.9472 18.3994 15.4605 17.7794 16.7005 16.5394C17.9405 15.2994 18.5605 13.7861 18.5605 11.9994C18.5605 10.2127 17.9405 8.69941 16.7005 7.45941C15.4605 6.21941 13.9472 5.59941 12.1605 5.59941C10.3739 5.59941 8.86055 6.21941 7.62055 7.45941C6.38055 8.69941 5.76055 10.2127 5.76055 11.9994C5.76055 13.7861 6.38055 15.2994 7.62055 16.5394C8.86055 17.7794 10.3739 18.3994 12.1605 18.3994Z" fill="#D7E2F7"/>
<path d="M11.5605 15.7994H12.7605V11.1994H11.5605V15.7994ZM12.1605 9.83021C12.3436 9.83021 12.4971 9.76828 12.6209 9.64441C12.7448 9.52055 12.8067 9.36708 12.8067 9.18401C12.8067 9.00095 12.7448 8.84748 12.6209 8.72361C12.4971 8.59988 12.3436 8.53801 12.1605 8.53801C11.9775 8.53801 11.824 8.59988 11.7001 8.72361C11.5763 8.84748 11.5143 9.00095 11.5143 9.18401C11.5143 9.36708 11.5763 9.52055 11.7001 9.64441C11.824 9.76828 11.9775 9.83021 12.1605 9.83021ZM12.1619 19.5994C11.1107 19.5994 10.1227 19.3999 9.19775 19.001C8.27281 18.6021 7.46828 18.0607 6.78415 17.3768C6.10001 16.6929 5.55835 15.8887 5.15915 14.9642C4.76008 14.0397 4.56055 13.0519 4.56055 12.0008C4.56055 10.9496 4.76001 9.96155 5.15895 9.03661C5.55788 8.11168 6.09928 7.30715 6.78315 6.62301C7.46701 5.93888 8.27121 5.39721 9.19575 4.99801C10.1203 4.59895 11.1081 4.39941 12.1591 4.39941C13.2103 4.39941 14.1984 4.59888 15.1233 4.99781C16.0483 5.39675 16.8528 5.93815 17.5369 6.62201C18.2211 7.30588 18.7627 8.11008 19.1619 9.03461C19.561 9.95915 19.7605 10.9469 19.7605 11.998C19.7605 13.0492 19.5611 14.0373 19.1621 14.9622C18.7632 15.8871 18.2218 16.6917 17.5379 17.3758C16.8541 18.0599 16.0499 18.6016 15.1253 19.0008C14.2008 19.3999 13.213 19.5994 12.1619 19.5994ZM12.1605 18.3994C13.9472 18.3994 15.4605 17.7794 16.7005 16.5394C17.9405 15.2994 18.5605 13.7861 18.5605 11.9994C18.5605 10.2127 17.9405 8.69941 16.7005 7.45941C15.4605 6.21941 13.9472 5.59941 12.1605 5.59941C10.3739 5.59941 8.86055 6.21941 7.62055 7.45941C6.38055 8.69941 5.76055 10.2127 5.76055 11.9994C5.76055 13.7861 6.38055 15.2994 7.62055 16.5394C8.86055 17.7794 10.3739 18.3994 12.1605 18.3994Z" fill="url(#paint3_linear_13916_244072)"/>
<path d="M11.5605 15.7994H12.7605V11.1994H11.5605V15.7994ZM12.1605 9.83021C12.3436 9.83021 12.4971 9.76828 12.6209 9.64441C12.7448 9.52055 12.8067 9.36708 12.8067 9.18401C12.8067 9.00095 12.7448 8.84748 12.6209 8.72361C12.4971 8.59988 12.3436 8.53801 12.1605 8.53801C11.9775 8.53801 11.824 8.59988 11.7001 8.72361C11.5763 8.84748 11.5143 9.00095 11.5143 9.18401C11.5143 9.36708 11.5763 9.52055 11.7001 9.64441C11.824 9.76828 11.9775 9.83021 12.1605 9.83021ZM12.1619 19.5994C11.1107 19.5994 10.1227 19.3999 9.19775 19.001C8.27281 18.6021 7.46828 18.0607 6.78415 17.3768C6.10001 16.6929 5.55835 15.8887 5.15915 14.9642C4.76008 14.0397 4.56055 13.0519 4.56055 12.0008C4.56055 10.9496 4.76001 9.96155 5.15895 9.03661C5.55788 8.11168 6.09928 7.30715 6.78315 6.62301C7.46701 5.93888 8.27121 5.39721 9.19575 4.99801C10.1203 4.59895 11.1081 4.39941 12.1591 4.39941C13.2103 4.39941 14.1984 4.59888 15.1233 4.99781C16.0483 5.39675 16.8528 5.93815 17.5369 6.62201C18.2211 7.30588 18.7627 8.11008 19.1619 9.03461C19.561 9.95915 19.7605 10.9469 19.7605 11.998C19.7605 13.0492 19.5611 14.0373 19.1621 14.9622C18.7632 15.8871 18.2218 16.6917 17.5379 17.3758C16.8541 18.0599 16.0499 18.6016 15.1253 19.0008C14.2008 19.3999 13.213 19.5994 12.1619 19.5994ZM12.1605 18.3994C13.9472 18.3994 15.4605 17.7794 16.7005 16.5394C17.9405 15.2994 18.5605 13.7861 18.5605 11.9994C18.5605 10.2127 17.9405 8.69941 16.7005 7.45941C15.4605 6.21941 13.9472 5.59941 12.1605 5.59941C10.3739 5.59941 8.86055 6.21941 7.62055 7.45941C6.38055 8.69941 5.76055 10.2127 5.76055 11.9994C5.76055 13.7861 6.38055 15.2994 7.62055 16.5394C8.86055 17.7794 10.3739 18.3994 12.1605 18.3994Z" fill="url(#paint4_linear_13916_244072)"/>
<path d="M11.5605 15.7994H12.7605V11.1994H11.5605V15.7994ZM12.1605 9.83021C12.3436 9.83021 12.4971 9.76828 12.6209 9.64441C12.7448 9.52055 12.8067 9.36708 12.8067 9.18401C12.8067 9.00095 12.7448 8.84748 12.6209 8.72361C12.4971 8.59988 12.3436 8.53801 12.1605 8.53801C11.9775 8.53801 11.824 8.59988 11.7001 8.72361C11.5763 8.84748 11.5143 9.00095 11.5143 9.18401C11.5143 9.36708 11.5763 9.52055 11.7001 9.64441C11.824 9.76828 11.9775 9.83021 12.1605 9.83021ZM12.1619 19.5994C11.1107 19.5994 10.1227 19.3999 9.19775 19.001C8.27281 18.6021 7.46828 18.0607 6.78415 17.3768C6.10001 16.6929 5.55835 15.8887 5.15915 14.9642C4.76008 14.0397 4.56055 13.0519 4.56055 12.0008C4.56055 10.9496 4.76001 9.96155 5.15895 9.03661C5.55788 8.11168 6.09928 7.30715 6.78315 6.62301C7.46701 5.93888 8.27121 5.39721 9.19575 4.99801C10.1203 4.59895 11.1081 4.39941 12.1591 4.39941C13.2103 4.39941 14.1984 4.59888 15.1233 4.99781C16.0483 5.39675 16.8528 5.93815 17.5369 6.62201C18.2211 7.30588 18.7627 8.11008 19.1619 9.03461C19.561 9.95915 19.7605 10.9469 19.7605 11.998C19.7605 13.0492 19.5611 14.0373 19.1621 14.9622C18.7632 15.8871 18.2218 16.6917 17.5379 17.3758C16.8541 18.0599 16.0499 18.6016 15.1253 19.0008C14.2008 19.3999 13.213 19.5994 12.1619 19.5994ZM12.1605 18.3994C13.9472 18.3994 15.4605 17.7794 16.7005 16.5394C17.9405 15.2994 18.5605 13.7861 18.5605 11.9994C18.5605 10.2127 17.9405 8.69941 16.7005 7.45941C15.4605 6.21941 13.9472 5.59941 12.1605 5.59941C10.3739 5.59941 8.86055 6.21941 7.62055 7.45941C6.38055 8.69941 5.76055 10.2127 5.76055 11.9994C5.76055 13.7861 6.38055 15.2994 7.62055 16.5394C8.86055 17.7794 10.3739 18.3994 12.1605 18.3994Z" fill="url(#paint5_linear_13916_244072)"/>
<defs>
<linearGradient id="paint0_linear_13916_244072" x1="12" y1="0" x2="12" y2="24" gradientUnits="userSpaceOnUse">
<stop stop-color="#8F8F8F"/>
<stop offset="1" stop-color="#6D6D6D"/>
</linearGradient>
<linearGradient id="paint1_linear_13916_244072" x1="12" y1="0" x2="12" y2="24" gradientUnits="userSpaceOnUse">
<stop stop-color="#351C83"/>
<stop offset="1" stop-color="#0C0033"/>
</linearGradient>
<linearGradient id="paint2_linear_13916_244072" x1="12" y1="0" x2="12" y2="24" gradientUnits="userSpaceOnUse">
<stop stop-color="#0D2289"/>
<stop offset="1" stop-color="#000830"/>
</linearGradient>
<linearGradient id="paint3_linear_13916_244072" x1="12.1596" y1="4.39941" x2="12.1596" y2="19.5994" gradientUnits="userSpaceOnUse">
<stop stop-color="white"/>
<stop offset="1" stop-color="#DADADA"/>
</linearGradient>
<linearGradient id="paint4_linear_13916_244072" x1="12.1596" y1="4.39941" x2="12.1596" y2="19.5994" gradientUnits="userSpaceOnUse">
<stop stop-color="white"/>
<stop offset="1" stop-color="#B9A4FF"/>
</linearGradient>
<linearGradient id="paint5_linear_13916_244072" x1="12.1596" y1="4.39941" x2="12.1596" y2="19.5994" gradientUnits="userSpaceOnUse">
<stop stop-color="white"/>
<stop offset="1" stop-color="#AEBBFF"/>
</linearGradient>
</defs>
</svg>
