<svg width="24" height="24" viewBox="0 0 24 24" fill="none" xmlns="http://www.w3.org/2000/svg">
<rect width="24" height="24" rx="5" fill="#6D6D6D"/>
<rect width="24" height="24" rx="5" fill="url(#paint0_linear_13916_244012)"/>
<path d="M6.78499 19.2801C6.12966 19.2801 5.56839 19.0465 5.10119 18.5793C4.63399 18.1121 4.40039 17.5508 4.40039 16.8955C4.40039 16.2401 4.63399 15.6789 5.10119 15.2117C5.56839 14.7445 6.12966 14.5109 6.78499 14.5109C7.01966 14.5109 7.24779 14.546 7.46939 14.6163C7.69112 14.6865 7.89426 14.7853 8.07879 14.9125L11.4004 11.5909V8.76768C10.8856 8.63541 10.4595 8.35768 10.122 7.93448C9.78452 7.51114 9.61579 7.02121 9.61579 6.46468C9.61579 5.80934 9.84939 5.24808 10.3166 4.78088C10.7838 4.31368 11.3451 4.08008 12.0004 4.08008C12.6557 4.08008 13.217 4.31368 13.6842 4.78088C14.1514 5.24808 14.385 5.80934 14.385 6.46468C14.385 7.02121 14.2175 7.51114 13.8826 7.93448C13.5478 8.35768 13.1204 8.63541 12.6004 8.76768V11.5909L15.9342 14.9125C16.1189 14.7853 16.3195 14.6865 16.5362 14.6163C16.7529 14.546 16.9794 14.5109 17.2158 14.5109C17.8711 14.5109 18.4324 14.7445 18.8996 15.2117C19.3668 15.6789 19.6004 16.2401 19.6004 16.8955C19.6004 17.5508 19.3668 18.1121 18.8996 18.5793C18.4324 19.0465 17.8711 19.2801 17.2158 19.2801C16.5605 19.2801 15.9992 19.0465 15.532 18.5793C15.0648 18.1121 14.8312 17.5508 14.8312 16.8955C14.8312 16.6963 14.8548 16.5026 14.902 16.3145C14.9492 16.1265 15.0184 15.9504 15.1096 15.7863L12.0004 12.6771L8.89119 15.7863C8.98239 15.9504 9.05159 16.1265 9.09879 16.3145C9.14599 16.5026 9.16959 16.6963 9.16959 16.8955C9.16959 17.5508 8.93599 18.1121 8.46879 18.5793C8.00159 19.0465 7.44032 19.2801 6.78499 19.2801ZM17.2148 18.0801C17.5436 18.0801 17.8234 17.965 18.0542 17.7349C18.285 17.5047 18.4004 17.2252 18.4004 16.8963C18.4004 16.5675 18.2853 16.2877 18.0552 16.0571C17.8251 15.8263 17.5455 15.7109 17.2166 15.7109C16.8878 15.7109 16.6081 15.8259 16.3774 16.0561C16.1466 16.2862 16.0312 16.5657 16.0312 16.8945C16.0312 17.2233 16.1463 17.5031 16.3764 17.7339C16.6065 17.9647 16.886 18.0801 17.2148 18.0801ZM11.9994 7.64928C12.3283 7.64928 12.6081 7.53421 12.8388 7.30408C13.0696 7.07395 13.185 6.79448 13.185 6.46568C13.185 6.13688 13.0699 5.85708 12.8398 5.62628C12.6097 5.39548 12.3302 5.28008 12.0014 5.28008C11.6725 5.28008 11.3927 5.39514 11.162 5.62528C10.9312 5.85541 10.8158 6.13494 10.8158 6.46388C10.8158 6.79268 10.9309 7.07241 11.161 7.30308C11.3911 7.53388 11.6706 7.64928 11.9994 7.64928ZM6.78419 18.0801C7.11299 18.0801 7.39272 17.965 7.62339 17.7349C7.85419 17.5047 7.96959 17.2252 7.96959 16.8963C7.96959 16.5675 7.85452 16.2877 7.62439 16.0571C7.39426 15.8263 7.11479 15.7109 6.78599 15.7109C6.45719 15.7109 6.17739 15.8259 5.94659 16.0561C5.71579 16.2862 5.60039 16.5657 5.60039 16.8945C5.60039 17.2233 5.71546 17.5031 5.94559 17.7339C6.17572 17.9647 6.45526 18.0801 6.78419 18.0801Z" fill="white"/>
<path d="M6.78499 19.2801C6.12966 19.2801 5.56839 19.0465 5.10119 18.5793C4.63399 18.1121 4.40039 17.5508 4.40039 16.8955C4.40039 16.2401 4.63399 15.6789 5.10119 15.2117C5.56839 14.7445 6.12966 14.5109 6.78499 14.5109C7.01966 14.5109 7.24779 14.546 7.46939 14.6163C7.69112 14.6865 7.89426 14.7853 8.07879 14.9125L11.4004 11.5909V8.76768C10.8856 8.63541 10.4595 8.35768 10.122 7.93448C9.78452 7.51114 9.61579 7.02121 9.61579 6.46468C9.61579 5.80934 9.84939 5.24808 10.3166 4.78088C10.7838 4.31368 11.3451 4.08008 12.0004 4.08008C12.6557 4.08008 13.217 4.31368 13.6842 4.78088C14.1514 5.24808 14.385 5.80934 14.385 6.46468C14.385 7.02121 14.2175 7.51114 13.8826 7.93448C13.5478 8.35768 13.1204 8.63541 12.6004 8.76768V11.5909L15.9342 14.9125C16.1189 14.7853 16.3195 14.6865 16.5362 14.6163C16.7529 14.546 16.9794 14.5109 17.2158 14.5109C17.8711 14.5109 18.4324 14.7445 18.8996 15.2117C19.3668 15.6789 19.6004 16.2401 19.6004 16.8955C19.6004 17.5508 19.3668 18.1121 18.8996 18.5793C18.4324 19.0465 17.8711 19.2801 17.2158 19.2801C16.5605 19.2801 15.9992 19.0465 15.532 18.5793C15.0648 18.1121 14.8312 17.5508 14.8312 16.8955C14.8312 16.6963 14.8548 16.5026 14.902 16.3145C14.9492 16.1265 15.0184 15.9504 15.1096 15.7863L12.0004 12.6771L8.89119 15.7863C8.98239 15.9504 9.05159 16.1265 9.09879 16.3145C9.14599 16.5026 9.16959 16.6963 9.16959 16.8955C9.16959 17.5508 8.93599 18.1121 8.46879 18.5793C8.00159 19.0465 7.44032 19.2801 6.78499 19.2801ZM17.2148 18.0801C17.5436 18.0801 17.8234 17.965 18.0542 17.7349C18.285 17.5047 18.4004 17.2252 18.4004 16.8963C18.4004 16.5675 18.2853 16.2877 18.0552 16.0571C17.8251 15.8263 17.5455 15.7109 17.2166 15.7109C16.8878 15.7109 16.6081 15.8259 16.3774 16.0561C16.1466 16.2862 16.0312 16.5657 16.0312 16.8945C16.0312 17.2233 16.1463 17.5031 16.3764 17.7339C16.6065 17.9647 16.886 18.0801 17.2148 18.0801ZM11.9994 7.64928C12.3283 7.64928 12.6081 7.53421 12.8388 7.30408C13.0696 7.07395 13.185 6.79448 13.185 6.46568C13.185 6.13688 13.0699 5.85708 12.8398 5.62628C12.6097 5.39548 12.3302 5.28008 12.0014 5.28008C11.6725 5.28008 11.3927 5.39514 11.162 5.62528C10.9312 5.85541 10.8158 6.13494 10.8158 6.46388C10.8158 6.79268 10.9309 7.07241 11.161 7.30308C11.3911 7.53388 11.6706 7.64928 11.9994 7.64928ZM6.78419 18.0801C7.11299 18.0801 7.39272 17.965 7.62339 17.7349C7.85419 17.5047 7.96959 17.2252 7.96959 16.8963C7.96959 16.5675 7.85452 16.2877 7.62439 16.0571C7.39426 15.8263 7.11479 15.7109 6.78599 15.7109C6.45719 15.7109 6.17739 15.8259 5.94659 16.0561C5.71579 16.2862 5.60039 16.5657 5.60039 16.8945C5.60039 17.2233 5.71546 17.5031 5.94559 17.7339C6.17572 17.9647 6.45526 18.0801 6.78419 18.0801Z" fill="url(#paint1_linear_13916_244012)"/>
<defs>
<linearGradient id="paint0_linear_13916_244012" x1="12" y1="0" x2="12" y2="24" gradientUnits="userSpaceOnUse">
<stop stop-color="#8F8F8F"/>
<stop offset="1" stop-color="#6D6D6D"/>
</linearGradient>
<linearGradient id="paint1_linear_13916_244012" x1="12.0004" y1="4.0791" x2="12.0004" y2="19.2791" gradientUnits="userSpaceOnUse">
<stop stop-color="white"/>
<stop offset="1" stop-color="#DADADA"/>
</linearGradient>
</defs>
</svg>
