<svg width="24" height="24" viewBox="0 0 24 24" fill="none" xmlns="http://www.w3.org/2000/svg">
<g clip-path="url(#clip0_13916_244076)">
<rect width="24" height="24" rx="5" fill="#F7931A"/>
<rect width="24" height="24" rx="5" fill="url(#paint0_linear_13916_244076)"/>
<path d="M7.8 17.5C7.0205 17.5 6.26892 17.3612 5.54525 17.0835C4.82158 16.806 4.177 16.4013 3.6115 15.8693C2.87567 15.1706 2.33983 14.3376 2.004 13.3703C1.668 12.4029 1.5 11.4045 1.5 10.375C1.5 9.22883 1.775 8.2965 2.325 7.578C2.875 6.85933 3.67817 6.5 4.7345 6.5C4.9295 6.5 5.11833 6.51767 5.301 6.553C5.48367 6.58817 5.66733 6.641 5.852 6.7115L12 9.0135L18.148 6.7115C18.3327 6.641 18.5163 6.58817 18.699 6.553C18.8817 6.51767 19.0705 6.5 19.2655 6.5C20.3218 6.5 21.125 6.85933 21.675 7.578C22.225 8.2965 22.5 9.22883 22.5 10.375C22.5 11.4045 22.332 12.4029 21.996 13.3703C21.6602 14.3376 21.1243 15.1706 20.3885 15.8693C19.823 16.4013 19.1784 16.806 18.4548 17.0835C17.7311 17.3612 16.9795 17.5 16.2 17.5C15.1898 17.5 14.3094 17.25 13.5587 16.75L12.4327 16H11.5673L10.4412 16.75C9.69058 17.25 8.81017 17.5 7.8 17.5ZM8.725 13.8845C9.16983 13.8845 9.52433 13.7817 9.7885 13.576C10.0525 13.3702 10.1845 13.0948 10.1845 12.75C10.1782 12.132 9.7545 11.5384 8.9135 10.9693C8.0725 10.4001 7.193 10.1155 6.275 10.1155C5.83017 10.1155 5.47725 10.2183 5.21625 10.424C4.95542 10.6298 4.825 10.9052 4.825 11.25C4.8315 11.8743 5.25358 12.4695 6.09125 13.0355C6.92908 13.6015 7.807 13.8845 8.725 13.8845ZM15.275 13.8845C16.193 13.8845 17.0725 13.5999 17.9135 13.0308C18.7545 12.4616 19.1782 11.868 19.1845 11.25C19.1845 10.8948 19.0551 10.6169 18.7962 10.4163C18.5372 10.2158 18.1802 10.1155 17.725 10.1155C16.8135 10.1218 15.9372 10.408 15.0962 10.974C14.2552 11.54 13.8315 12.132 13.825 12.75C13.825 13.0948 13.9529 13.3702 14.2087 13.576C14.4644 13.7817 14.8198 13.8845 15.275 13.8845Z" fill="url(#paint1_linear_13916_244076)"/>
</g>
<defs>
<linearGradient id="paint0_linear_13916_244076" x1="12" y1="0" x2="12" y2="24" gradientUnits="userSpaceOnUse">
<stop stop-color="#F7931A"/>
<stop offset="1" stop-color="#F67300"/>
</linearGradient>
<linearGradient id="paint1_linear_13916_244076" x1="12" y1="6.5" x2="12" y2="17.5" gradientUnits="userSpaceOnUse">
<stop stop-color="#5F330B"/>
<stop offset="1" stop-color="#462100"/>
</linearGradient>
<clipPath id="clip0_13916_244076">
<rect width="24" height="24" rx="5" fill="white"/>
</clipPath>
</defs>
</svg>
