<svg width="24" height="24" viewBox="0 0 24 24" fill="none" xmlns="http://www.w3.org/2000/svg">
<rect width="24" height="24" rx="5" fill="#2C5CF6"/>
<rect width="24" height="24" rx="5" fill="url(#paint0_linear_13916_244064)"/>
<rect width="24" height="24" rx="5" fill="url(#paint1_linear_13916_244064)"/>
<path d="M11.87 4.15918C13.9825 4.15918 15.695 5.87177 15.6951 7.98425V10.0094H16.9326C17.4917 10.0094 17.945 10.4626 17.945 11.0218V17.5468C17.945 18.1059 17.4918 18.5591 16.9326 18.5592H6.80733C6.24818 18.5591 5.79492 18.1059 5.79492 17.5468V11.0218C5.79494 10.4626 6.2482 10.0094 6.80733 10.0094H8.04489V7.98425C8.0449 5.87179 9.7575 4.15921 11.87 4.15918ZM11.87 12.9072C11.1318 12.9072 10.5333 13.5056 10.5333 14.2438C10.5334 14.9819 11.1318 15.5804 11.87 15.5804C12.6081 15.5804 13.2066 14.9819 13.2066 14.2438C13.2066 13.5056 12.6081 12.9072 11.87 12.9072ZM11.87 5.95914C10.7516 5.95918 9.84517 6.8659 9.84515 7.98425V10.0094H13.8951V7.98425C13.8951 6.86588 12.9883 5.95914 11.87 5.95914Z" fill="white"/>
<path d="M11.87 4.15918C13.9825 4.15918 15.695 5.87177 15.6951 7.98425V10.0094H16.9326C17.4917 10.0094 17.945 10.4626 17.945 11.0218V17.5468C17.945 18.1059 17.4918 18.5591 16.9326 18.5592H6.80733C6.24818 18.5591 5.79492 18.1059 5.79492 17.5468V11.0218C5.79494 10.4626 6.2482 10.0094 6.80733 10.0094H8.04489V7.98425C8.0449 5.87179 9.7575 4.15921 11.87 4.15918ZM11.87 12.9072C11.1318 12.9072 10.5333 13.5056 10.5333 14.2438C10.5334 14.9819 11.1318 15.5804 11.87 15.5804C12.6081 15.5804 13.2066 14.9819 13.2066 14.2438C13.2066 13.5056 12.6081 12.9072 11.87 12.9072ZM11.87 5.95914C10.7516 5.95918 9.84517 6.8659 9.84515 7.98425V10.0094H13.8951V7.98425C13.8951 6.86588 12.9883 5.95914 11.87 5.95914Z" fill="url(#paint2_linear_13916_244064)"/>
<path d="M11.87 4.15918C13.9825 4.15918 15.695 5.87177 15.6951 7.98425V10.0094H16.9326C17.4917 10.0094 17.945 10.4626 17.945 11.0218V17.5468C17.945 18.1059 17.4918 18.5591 16.9326 18.5592H6.80733C6.24818 18.5591 5.79492 18.1059 5.79492 17.5468V11.0218C5.79494 10.4626 6.2482 10.0094 6.80733 10.0094H8.04489V7.98425C8.0449 5.87179 9.7575 4.15921 11.87 4.15918ZM11.87 12.9072C11.1318 12.9072 10.5333 13.5056 10.5333 14.2438C10.5334 14.9819 11.1318 15.5804 11.87 15.5804C12.6081 15.5804 13.2066 14.9819 13.2066 14.2438C13.2066 13.5056 12.6081 12.9072 11.87 12.9072ZM11.87 5.95914C10.7516 5.95918 9.84517 6.8659 9.84515 7.98425V10.0094H13.8951V7.98425C13.8951 6.86588 12.9883 5.95914 11.87 5.95914Z" fill="url(#paint3_linear_13916_244064)"/>
<defs>
<linearGradient id="paint0_linear_13916_244064" x1="12" y1="0" x2="12" y2="24" gradientUnits="userSpaceOnUse">
<stop stop-color="#2C5CF6"/>
<stop offset="1" stop-color="#0F37FF"/>
</linearGradient>
<linearGradient id="paint1_linear_13916_244064" x1="12" y1="0" x2="12" y2="24" gradientUnits="userSpaceOnUse">
<stop stop-color="#3B96FF"/>
<stop offset="1" stop-color="#0044F0"/>
</linearGradient>
<linearGradient id="paint2_linear_13916_244064" x1="11.87" y1="4.15918" x2="11.87" y2="18.5592" gradientUnits="userSpaceOnUse">
<stop stop-color="white"/>
<stop offset="1" stop-color="#A4B8FF"/>
</linearGradient>
<linearGradient id="paint3_linear_13916_244064" x1="11.87" y1="4.15918" x2="11.87" y2="18.5592" gradientUnits="userSpaceOnUse">
<stop stop-color="white"/>
<stop offset="1" stop-color="#A4CEFF"/>
</linearGradient>
</defs>
</svg>
