<svg width="24" height="24" viewBox="0 0 24 24" fill="none" xmlns="http://www.w3.org/2000/svg">
<rect width="24" height="24" rx="5" fill="#2C5CF6"/>
<rect width="24" height="24" rx="5" fill="url(#paint0_linear_13916_244037)"/>
<rect width="24" height="24" rx="5" fill="url(#paint1_linear_13916_244037)"/>
<path d="M8.85059 14.25C9.47559 14.25 10.0068 14.0313 10.4443 13.5938C10.8818 13.1563 11.1006 12.625 11.1006 12C11.1006 11.375 10.8818 10.8438 10.4443 10.4062C10.0068 9.96875 9.47559 9.75 8.85059 9.75C8.22559 9.75 7.69434 9.96875 7.25684 10.4062C6.81934 10.8438 6.60059 11.375 6.60059 12C6.60059 12.625 6.81934 13.1563 7.25684 13.5938C7.69434 14.0313 8.22559 14.25 8.85059 14.25ZM8.85059 16.5C7.60059 16.5 6.53809 16.0625 5.66309 15.1875C4.78809 14.3125 4.35059 13.25 4.35059 12C4.35059 10.75 4.78809 9.6875 5.66309 8.8125C6.53809 7.9375 7.60059 7.5 8.85059 7.5C9.86309 7.5 10.7475 7.7875 11.5037 8.3625C12.26 8.9375 12.7881 9.65 13.0881 10.5H19.3693L20.8506 11.9813L18.2256 14.9813L16.3506 13.5L14.8506 15L13.3506 13.5H13.0881C12.7756 14.4 12.2318 15.125 11.4568 15.675C10.6818 16.225 9.81309 16.5 8.85059 16.5Z" fill="white"/>
<path d="M8.85059 14.25C9.47559 14.25 10.0068 14.0313 10.4443 13.5938C10.8818 13.1563 11.1006 12.625 11.1006 12C11.1006 11.375 10.8818 10.8438 10.4443 10.4062C10.0068 9.96875 9.47559 9.75 8.85059 9.75C8.22559 9.75 7.69434 9.96875 7.25684 10.4062C6.81934 10.8438 6.60059 11.375 6.60059 12C6.60059 12.625 6.81934 13.1563 7.25684 13.5938C7.69434 14.0313 8.22559 14.25 8.85059 14.25ZM8.85059 16.5C7.60059 16.5 6.53809 16.0625 5.66309 15.1875C4.78809 14.3125 4.35059 13.25 4.35059 12C4.35059 10.75 4.78809 9.6875 5.66309 8.8125C6.53809 7.9375 7.60059 7.5 8.85059 7.5C9.86309 7.5 10.7475 7.7875 11.5037 8.3625C12.26 8.9375 12.7881 9.65 13.0881 10.5H19.3693L20.8506 11.9813L18.2256 14.9813L16.3506 13.5L14.8506 15L13.3506 13.5H13.0881C12.7756 14.4 12.2318 15.125 11.4568 15.675C10.6818 16.225 9.81309 16.5 8.85059 16.5Z" fill="url(#paint2_linear_13916_244037)"/>
<defs>
<linearGradient id="paint0_linear_13916_244037" x1="12" y1="0" x2="12" y2="24" gradientUnits="userSpaceOnUse">
<stop stop-color="#2C5CF6"/>
<stop offset="1" stop-color="#0F37FF"/>
</linearGradient>
<linearGradient id="paint1_linear_13916_244037" x1="12" y1="0" x2="12" y2="24" gradientUnits="userSpaceOnUse">
<stop stop-color="#3B96FF"/>
<stop offset="1" stop-color="#0044F0"/>
</linearGradient>
<linearGradient id="paint2_linear_13916_244037" x1="12.5996" y1="7.5" x2="12.5996" y2="16.5" gradientUnits="userSpaceOnUse">
<stop stop-color="white"/>
<stop offset="1" stop-color="#A4CEFF"/>
</linearGradient>
</defs>
</svg>
