<svg width="24" height="24" viewBox="0 0 24 24" fill="none" xmlns="http://www.w3.org/2000/svg">
<rect width="24" height="24" rx="5" fill="#F7931A"/>
<rect width="24" height="24" rx="5" fill="url(#paint0_linear_13916_244088)"/>
<path d="M18.9436 9.90144C18.0881 9.20998 16.9982 8.94043 15.9375 9.1631C15.5859 9.23342 15.2285 9.36819 14.871 9.57329L12.6501 10.8566V7.60438C12.6501 7.42858 12.5798 7.26451 12.4568 7.14145C12.3337 7.01839 12.1638 6.94222 11.988 6.94222C11.8122 6.94222 11.6422 7.01253 11.5192 7.13559C11.3961 7.25865 11.3258 7.42858 11.3258 7.60438V10.8625L8.50723 9.23342C8.36073 9.14552 8.19079 9.12208 8.02086 9.1631C7.85092 9.20998 7.69857 9.32132 7.61653 9.46781C7.42901 9.77838 7.53449 10.1827 7.85092 10.3702L10.6754 11.9993L8.42519 13.2943C7.71615 13.6986 6.87233 13.6869 6.16915 13.2767C5.46596 12.8665 5.04405 12.134 5.04405 11.3195V9.29788C5.04405 8.48922 5.47768 7.73916 6.17501 7.32897L10.857 4.62171C11.5602 4.22324 12.4333 4.21738 13.1248 4.62171L17.3673 7.07699C17.5197 7.16489 17.7013 7.18833 17.8713 7.14145C18.0412 7.09457 18.1877 6.98909 18.2756 6.83088C18.4573 6.51445 18.3518 6.11012 18.0353 5.92846L13.787 3.47904C12.6794 2.84032 11.3024 2.84032 10.2007 3.47904L5.51284 6.18629C4.40533 6.82502 3.71973 8.01457 3.71973 9.29202V11.3195C3.71973 12.4095 4.20024 13.4291 5.04405 14.1088C5.89959 14.8003 7.00124 15.064 8.05602 14.8296C8.07946 14.8237 8.61856 14.6831 8.88812 14.5483L8.97015 14.5014C9.01703 14.478 9.06391 14.4545 9.10493 14.4311L11.3258 13.1478V16.3942C11.3258 16.7575 11.6247 17.0505 11.988 17.0505C12.1638 17.0505 12.3279 16.9801 12.4509 16.8571C12.574 16.734 12.6443 16.5641 12.6443 16.3942V13.1478L15.457 14.771C15.5566 14.8296 15.6621 14.8589 15.7734 14.8589H15.791C16.0313 14.8589 16.2481 14.73 16.3594 14.5307C16.4473 14.3842 16.4708 14.2026 16.4239 14.0385C16.377 13.8686 16.2657 13.7221 16.1133 13.6342L13.3006 12.011L15.5332 10.7277C16.2422 10.3175 17.0919 10.3175 17.801 10.7277C18.51 11.1379 18.9378 11.8704 18.9378 12.6907V14.7124C18.9378 15.5269 18.5041 16.277 17.8068 16.6813L13.1189 19.3885C12.4216 19.787 11.5543 19.787 10.8453 19.3885L6.60863 16.9391C6.45628 16.8512 6.28048 16.8278 6.10469 16.8747C5.93475 16.9215 5.79411 17.027 5.70622 17.1794C5.61832 17.3317 5.59488 17.5075 5.64176 17.6775C5.68864 17.8474 5.79412 17.988 5.94647 18.0759L10.189 20.5254C10.7398 20.8418 11.361 21 11.9821 21C12.6033 21 13.2244 20.8418 13.7811 20.5254L18.4631 17.824C19.5706 17.1852 20.2621 16.0015 20.2621 14.7241V12.6966C20.2621 11.6125 19.7874 10.5988 18.9495 9.91316L18.9436 9.90144Z" fill="url(#paint1_linear_13916_244088)"/>
<defs>
<linearGradient id="paint0_linear_13916_244088" x1="12" y1="0" x2="12" y2="24" gradientUnits="userSpaceOnUse">
<stop stop-color="#F7931A"/>
<stop offset="1" stop-color="#F67300"/>
</linearGradient>
<linearGradient id="paint1_linear_13916_244088" x1="11.9909" y1="3" x2="11.9909" y2="21" gradientUnits="userSpaceOnUse">
<stop stop-color="white"/>
<stop offset="1" stop-color="#FFD7A8"/>
</linearGradient>
</defs>
</svg>
