<svg width="24" height="24" viewBox="0 0 24 24" fill="none" xmlns="http://www.w3.org/2000/svg">
<rect width="24" height="24" rx="5" fill="#E05D00"/>
<rect width="24" height="24" rx="5" fill="#334C8C"/>
<rect width="24" height="24" rx="5" fill="url(#paint0_linear_13916_244069)"/>
<rect width="24" height="24" rx="5" fill="url(#paint1_linear_13916_244069)"/>
<rect width="24" height="24" rx="5" fill="url(#paint2_linear_13916_244069)"/>
<path d="M11.013 14.5351C11.013 13.6295 11.1174 12.9361 11.326 12.4551C11.5347 11.974 11.9704 11.4407 12.633 10.8551C13.1489 10.3956 13.5399 9.97895 13.806 9.60508C14.0722 9.23121 14.2052 8.80735 14.2052 8.33348C14.2052 7.70481 13.9912 7.18228 13.563 6.76588C13.1348 6.34948 12.5452 6.14128 11.7944 6.14128C11.1094 6.14128 10.576 6.32481 10.1944 6.69188C9.81297 7.05908 9.52323 7.46888 9.32523 7.92128L7.86523 7.27968C8.17603 6.51355 8.66117 5.87481 9.32063 5.36348C9.9801 4.85228 10.8047 4.59668 11.7944 4.59668C13.0867 4.59668 14.0813 4.96101 14.7782 5.68968C15.4752 6.41835 15.8236 7.28321 15.8236 8.28428C15.8236 8.90988 15.688 9.46195 15.4168 9.94048C15.1455 10.4189 14.734 10.9171 14.1822 11.4351C13.4878 12.072 13.0578 12.5743 12.8922 12.9419C12.7265 13.3096 12.6436 13.8407 12.6436 14.5351H11.013ZM11.7944 19.1197C11.4672 19.1197 11.1854 19.0015 10.949 18.7651C10.7126 18.5287 10.5944 18.2469 10.5944 17.9197C10.5944 17.5925 10.7126 17.3107 10.949 17.0743C11.1854 16.8379 11.4672 16.7197 11.7944 16.7197C12.1216 16.7197 12.4034 16.8379 12.6398 17.0743C12.8762 17.3107 12.9944 17.5925 12.9944 17.9197C12.9944 18.2469 12.8762 18.5287 12.6398 18.7651C12.4034 19.0015 12.1216 19.1197 11.7944 19.1197Z" fill="#D7E2F7"/>
<path d="M11.013 14.5351C11.013 13.6295 11.1174 12.9361 11.326 12.4551C11.5347 11.974 11.9704 11.4407 12.633 10.8551C13.1489 10.3956 13.5399 9.97895 13.806 9.60508C14.0722 9.23121 14.2052 8.80735 14.2052 8.33348C14.2052 7.70481 13.9912 7.18228 13.563 6.76588C13.1348 6.34948 12.5452 6.14128 11.7944 6.14128C11.1094 6.14128 10.576 6.32481 10.1944 6.69188C9.81297 7.05908 9.52323 7.46888 9.32523 7.92128L7.86523 7.27968C8.17603 6.51355 8.66117 5.87481 9.32063 5.36348C9.9801 4.85228 10.8047 4.59668 11.7944 4.59668C13.0867 4.59668 14.0813 4.96101 14.7782 5.68968C15.4752 6.41835 15.8236 7.28321 15.8236 8.28428C15.8236 8.90988 15.688 9.46195 15.4168 9.94048C15.1455 10.4189 14.734 10.9171 14.1822 11.4351C13.4878 12.072 13.0578 12.5743 12.8922 12.9419C12.7265 13.3096 12.6436 13.8407 12.6436 14.5351H11.013ZM11.7944 19.1197C11.4672 19.1197 11.1854 19.0015 10.949 18.7651C10.7126 18.5287 10.5944 18.2469 10.5944 17.9197C10.5944 17.5925 10.7126 17.3107 10.949 17.0743C11.1854 16.8379 11.4672 16.7197 11.7944 16.7197C12.1216 16.7197 12.4034 16.8379 12.6398 17.0743C12.8762 17.3107 12.9944 17.5925 12.9944 17.9197C12.9944 18.2469 12.8762 18.5287 12.6398 18.7651C12.4034 19.0015 12.1216 19.1197 11.7944 19.1197Z" fill="url(#paint3_linear_13916_244069)"/>
<path d="M11.013 14.5351C11.013 13.6295 11.1174 12.9361 11.326 12.4551C11.5347 11.974 11.9704 11.4407 12.633 10.8551C13.1489 10.3956 13.5399 9.97895 13.806 9.60508C14.0722 9.23121 14.2052 8.80735 14.2052 8.33348C14.2052 7.70481 13.9912 7.18228 13.563 6.76588C13.1348 6.34948 12.5452 6.14128 11.7944 6.14128C11.1094 6.14128 10.576 6.32481 10.1944 6.69188C9.81297 7.05908 9.52323 7.46888 9.32523 7.92128L7.86523 7.27968C8.17603 6.51355 8.66117 5.87481 9.32063 5.36348C9.9801 4.85228 10.8047 4.59668 11.7944 4.59668C13.0867 4.59668 14.0813 4.96101 14.7782 5.68968C15.4752 6.41835 15.8236 7.28321 15.8236 8.28428C15.8236 8.90988 15.688 9.46195 15.4168 9.94048C15.1455 10.4189 14.734 10.9171 14.1822 11.4351C13.4878 12.072 13.0578 12.5743 12.8922 12.9419C12.7265 13.3096 12.6436 13.8407 12.6436 14.5351H11.013ZM11.7944 19.1197C11.4672 19.1197 11.1854 19.0015 10.949 18.7651C10.7126 18.5287 10.5944 18.2469 10.5944 17.9197C10.5944 17.5925 10.7126 17.3107 10.949 17.0743C11.1854 16.8379 11.4672 16.7197 11.7944 16.7197C12.1216 16.7197 12.4034 16.8379 12.6398 17.0743C12.8762 17.3107 12.9944 17.5925 12.9944 17.9197C12.9944 18.2469 12.8762 18.5287 12.6398 18.7651C12.4034 19.0015 12.1216 19.1197 11.7944 19.1197Z" fill="url(#paint4_linear_13916_244069)"/>
<defs>
<linearGradient id="paint0_linear_13916_244069" x1="12" y1="0" x2="12" y2="24" gradientUnits="userSpaceOnUse">
<stop stop-color="#8F8F8F"/>
<stop offset="1" stop-color="#6D6D6D"/>
</linearGradient>
<linearGradient id="paint1_linear_13916_244069" x1="12" y1="0" x2="12" y2="24" gradientUnits="userSpaceOnUse">
<stop stop-color="#373737"/>
<stop offset="1"/>
</linearGradient>
<linearGradient id="paint2_linear_13916_244069" x1="12" y1="0" x2="12" y2="24" gradientUnits="userSpaceOnUse">
<stop stop-color="#0D2289"/>
<stop offset="1" stop-color="#000830"/>
</linearGradient>
<linearGradient id="paint3_linear_13916_244069" x1="11.8444" y1="4.59668" x2="11.8444" y2="19.1197" gradientUnits="userSpaceOnUse">
<stop stop-color="white"/>
<stop offset="1" stop-color="#DADADA"/>
</linearGradient>
<linearGradient id="paint4_linear_13916_244069" x1="11.8444" y1="4.59668" x2="11.8444" y2="19.1197" gradientUnits="userSpaceOnUse">
<stop stop-color="white"/>
<stop offset="1" stop-color="#AEBBFF"/>
</linearGradient>
</defs>
</svg>
