<svg width="45" height="45" viewBox="0 0 45 45" fill="none" xmlns="http://www.w3.org/2000/svg">
<rect width="44.4444" height="44.4444" rx="13.3333" fill="#233461"/>
<path d="M23.162 29.8925V13.7153C23.162 12.624 22.413 11.875 21.3431 11.875C20.2946 11.875 19.567 12.624 19.567 13.7153V29.8925C19.567 30.9625 20.2946 31.7114 21.3431 31.7114C22.413 31.7114 23.162 30.9837 23.162 29.8925ZM13.2759 23.5799H29.4744C30.5443 23.5799 31.2933 22.8739 31.2933 21.8253C31.2933 20.7553 30.5443 20.0064 29.4744 20.0064H13.2759C12.1846 20.0064 11.457 20.7553 11.457 21.8253C11.457 22.8739 12.1846 23.5799 13.2759 23.5799Z" fill="#8C9FBB"/>
</svg>
