<svg width="32" height="32" viewBox="0 0 32 32" fill="none" xmlns="http://www.w3.org/2000/svg">
<path d="M4.82617 20.0801C5.55855 20.0802 6.15313 20.6739 6.15332 21.4062V25.6484C6.15332 25.6829 6.16454 25.7252 6.21973 25.7803L6.25879 25.8145C6.29535 25.8409 6.32575 25.8477 6.35156 25.8477H10.5938C11.3261 25.8479 11.9199 26.4414 11.9199 27.1738C11.9198 27.9061 11.326 28.4998 10.5938 28.5H6.35156C5.55977 28.5 4.88072 28.2225 4.3291 27.6709C3.77749 27.1193 3.5 26.4402 3.5 25.6484V21.4062C3.50018 20.6739 4.09385 20.0802 4.82617 20.0801ZM27.1738 20.0801C27.9061 20.0803 28.4998 20.674 28.5 21.4062V25.6484C28.5 26.4402 28.2225 27.1193 27.6709 27.6709C27.1193 28.2225 26.4402 28.5 25.6484 28.5H21.4062C20.6739 28.4998 20.0802 27.9062 20.0801 27.1738C20.0801 26.4414 20.6739 25.8478 21.4062 25.8477H25.6484C25.6829 25.8476 25.7253 25.8354 25.7803 25.7803L25.8145 25.7412C25.8409 25.7046 25.8477 25.6743 25.8477 25.6484V21.4062C25.8478 20.6738 26.4414 20.0801 27.1738 20.0801ZM21.3027 28.25L21.4062 28.2549C21.37 28.2549 21.3342 28.2525 21.2988 28.249C21.3001 28.2492 21.3014 28.2499 21.3027 28.25ZM25.6484 28.2549L25.8828 28.2461C25.889 28.2456 25.8952 28.2437 25.9014 28.2432C25.8186 28.2502 25.7343 28.2549 25.6484 28.2549ZM11.6689 27.0635L11.6553 26.9688C11.6545 26.9648 11.6531 26.961 11.6523 26.957C11.6594 26.992 11.6653 27.0274 11.6689 27.0635ZM6.0459 25.9531C6.06336 25.9706 6.08246 25.9858 6.10059 26L6.04688 25.9531C6.03484 25.9411 6.02418 25.9283 6.01367 25.916C6.02403 25.9282 6.034 25.9412 6.0459 25.9531ZM5.90723 21.4062V25.6484C5.90723 25.6763 5.91019 25.7038 5.91602 25.7305L5.9082 25.6484V21.4062C5.90819 21.369 5.90604 21.3322 5.90234 21.2959L5.90723 21.4062ZM28.2549 21.4062L28.25 21.3027C28.2498 21.3004 28.2493 21.2982 28.249 21.2959C28.2527 21.3322 28.2549 21.369 28.2549 21.4062ZM10.5938 3.5C11.326 3.50024 11.9198 4.09388 11.9199 4.82617C11.9199 5.55857 11.3261 6.15308 10.5938 6.15332H6.35156C6.32575 6.15332 6.29535 6.15909 6.25879 6.18555L6.21973 6.21973C6.16453 6.27478 6.15332 6.31711 6.15332 6.35156V10.5938C6.15315 11.3261 5.55856 11.9198 4.82617 11.9199C4.09384 11.9198 3.50018 11.3261 3.5 10.5938V6.35156C3.5 5.55973 3.77747 4.88073 4.3291 4.3291C4.88072 3.77751 5.55976 3.5 6.35156 3.5H10.5938ZM25.6484 3.5C26.4402 3.50003 27.1193 3.77752 27.6709 4.3291C28.2225 4.88072 28.5 5.55977 28.5 6.35156V10.5938C28.4998 11.326 27.9061 11.9197 27.1738 11.9199C26.4414 11.9199 25.8478 11.3262 25.8477 10.5938V6.35156C25.8477 6.32575 25.8409 6.29536 25.8145 6.25879L25.7803 6.21973C25.7253 6.1646 25.6829 6.15335 25.6484 6.15332H21.4062C20.6739 6.15314 20.0801 5.55861 20.0801 4.82617C20.0802 4.09385 20.6739 3.50019 21.4062 3.5H25.6484ZM5.90723 10.5938H5.9082V6.35156H5.90723V10.5938ZM27.6748 4.69629C27.7277 4.76005 27.7766 4.82561 27.8223 4.89258C27.7767 4.82576 27.7285 4.75991 27.6758 4.69629L27.498 4.50195L27.6748 4.69629ZM11.6748 4.82617L11.6699 4.72266C11.6697 4.72037 11.6692 4.71811 11.6689 4.71582C11.6726 4.75211 11.6748 4.78891 11.6748 4.82617Z" fill="white"/>
</svg>
