<svg width="24" height="24" viewBox="0 0 24 24" fill="none" xmlns="http://www.w3.org/2000/svg">
<path d="M21.375 10.8292C21.0884 8.76693 20.1317 6.85611 18.6523 5.39108C17.1729 3.92604 15.2528 2.98806 13.1879 2.72161C11.123 2.45517 9.02768 2.87505 7.22485 3.91657C5.42201 4.95809 4.01162 6.56347 3.21094 8.48542M2.625 3.79792V8.48542H7.3125" stroke="#91B0FF" stroke-width="1.6875" stroke-linecap="round" stroke-linejoin="round"/>
<path d="M2.625 13.1719C2.91159 15.2341 3.86828 17.1449 5.34769 18.61C6.8271 20.075 8.74716 21.013 10.8121 21.2794C12.877 21.5459 14.9723 21.126 16.7752 20.0845C18.578 19.043 19.9884 17.4376 20.7891 15.5156M21.375 20.2031V15.5156H16.6875" stroke="#91B0FF" stroke-width="1.6875" stroke-linecap="round" stroke-linejoin="round"/>
</svg>
