<svg width="36" height="36" viewBox="0 0 36 36" fill="none" xmlns="http://www.w3.org/2000/svg">
<g clip-path="url(#clip0_20249_130121)">
<path d="M0 12C0 7.7996 0 5.69941 0.817451 4.09507C1.5365 2.68386 2.68386 1.5365 4.09507 0.817451C5.69941 0 7.79961 0 12 0H24C28.2004 0 30.3006 0 31.9049 0.817451C33.3161 1.5365 34.4635 2.68386 35.1825 4.09507C36 5.69941 36 7.79961 36 12V24C36 28.2004 36 30.3006 35.1825 31.9049C34.4635 33.3161 33.3161 34.4635 31.9049 35.1825C30.3006 36 28.2004 36 24 36H12C7.7996 36 5.69941 36 4.09507 35.1825C2.68386 34.4635 1.5365 33.3161 0.817451 31.9049C0 30.3006 0 28.2004 0 24V12Z" fill="url(#paint0_linear_20249_130121)"/>
<path d="M0 12C0 7.7996 0 5.69941 0.817451 4.09507C1.5365 2.68386 2.68386 1.5365 4.09507 0.817451C5.69941 0 7.79961 0 12 0H24C28.2004 0 30.3006 0 31.9049 0.817451C33.3161 1.5365 34.4635 2.68386 35.1825 4.09507C36 5.69941 36 7.79961 36 12V24C36 28.2004 36 30.3006 35.1825 31.9049C34.4635 33.3161 33.3161 34.4635 31.9049 35.1825C30.3006 36 28.2004 36 24 36H12C7.7996 36 5.69941 36 4.09507 35.1825C2.68386 34.4635 1.5365 33.3161 0.817451 31.9049C0 30.3006 0 28.2004 0 24V12Z" fill="url(#paint1_linear_20249_130121)"/>
<path d="M0 12C0 7.7996 0 5.69941 0.817451 4.09507C1.5365 2.68386 2.68386 1.5365 4.09507 0.817451C5.69941 0 7.79961 0 12 0H24C28.2004 0 30.3006 0 31.9049 0.817451C33.3161 1.5365 34.4635 2.68386 35.1825 4.09507C36 5.69941 36 7.79961 36 12V24C36 28.2004 36 30.3006 35.1825 31.9049C34.4635 33.3161 33.3161 34.4635 31.9049 35.1825C30.3006 36 28.2004 36 24 36H12C7.7996 36 5.69941 36 4.09507 35.1825C2.68386 34.4635 1.5365 33.3161 0.817451 31.9049C0 30.3006 0 28.2004 0 24V12Z" fill="url(#paint2_linear_20249_130121)"/>
<path d="M32.4016 18.3154L23.9312 26.7247L18.0016 20.8388L12.0719 26.7247L3.60156 18.3154L6.14062 15.7951L12.0719 21.681L18.0016 15.7951L23.9312 21.681L29.8625 15.7951L32.4016 18.3154ZM8.68594 13.2779C14.4329 7.57399 21.5733 7.57406 27.3203 13.2779L24.7781 15.7998C20.4079 11.4639 15.5982 11.464 11.2281 15.8014L8.68594 13.2779Z" fill="url(#paint3_linear_20249_130121)"/>
</g>
<defs>
<linearGradient id="paint0_linear_20249_130121" x1="18" y1="0" x2="18" y2="36" gradientUnits="userSpaceOnUse">
<stop stop-color="#0082F8"/>
<stop offset="1" stop-color="#0666FF"/>
</linearGradient>
<linearGradient id="paint1_linear_20249_130121" x1="18" y1="0" x2="18" y2="36" gradientUnits="userSpaceOnUse">
<stop stop-color="#2B9AFF"/>
<stop offset="1" stop-color="#0666FF"/>
</linearGradient>
<linearGradient id="paint2_linear_20249_130121" x1="18" y1="0" x2="18" y2="36" gradientUnits="userSpaceOnUse">
<stop stop-color="#3396FF"/>
<stop offset="1" stop-color="#007CFF"/>
</linearGradient>
<linearGradient id="paint3_linear_20249_130121" x1="18.0016" y1="9" x2="18.0016" y2="26.7247" gradientUnits="userSpaceOnUse">
<stop stop-color="white"/>
<stop offset="1" stop-color="#BFDEFF"/>
</linearGradient>
<clipPath id="clip0_20249_130121">
<rect width="36" height="36" fill="white"/>
</clipPath>
</defs>
</svg>
