<svg width="41" height="20" viewBox="0 0 41 20" fill="none" xmlns="http://www.w3.org/2000/svg">
    <path
        d="M5.25646 7.08342H12.5V5.41675C12.5 4.7223 12.2569 4.13203 11.7708 3.64591C11.2847 3.1598 10.6944 2.91675 10 2.91675C9.30556 2.91675 8.71528 3.1598 8.22917 3.64591C7.74306 4.13203 7.5 4.7223 7.5 5.41675H6.25C6.25 4.37619 6.61486 3.49105 7.34458 2.76133C8.07431 2.03161 8.95944 1.66675 10 1.66675C11.0406 1.66675 11.9257 2.03161 12.6554 2.76133C13.3851 3.49105 13.75 4.37619 13.75 5.41675V7.08342H14.7435C15.1591 7.08342 15.5141 7.23057 15.8085 7.52487C16.1028 7.81932 16.25 8.17432 16.25 8.58987V16.4103C16.25 16.8258 16.1028 17.1808 15.8085 17.4753C15.5141 17.7696 15.1591 17.9167 14.7435 17.9167H5.25646C4.8409 17.9167 4.4859 17.7696 4.19146 17.4753C3.89715 17.1808 3.75 16.8258 3.75 16.4103V8.58987C3.75 8.17432 3.89715 7.81932 4.19146 7.52487C4.4859 7.23057 4.8409 7.08342 5.25646 7.08342ZM5.25646 16.6667H14.7435C14.8184 16.6667 14.8799 16.6427 14.9279 16.5947C14.976 16.5466 15 16.4852 15 16.4103V8.58987C15 8.51501 14.976 8.45355 14.9279 8.4055C14.8799 8.35744 14.8184 8.33342 14.7435 8.33342H5.25646C5.1816 8.33342 5.12014 8.35744 5.07208 8.4055C5.02403 8.45355 5 8.51501 5 8.58987V16.4103C5 16.4852 5.02403 16.5466 5.07208 16.5947C5.12014 16.6427 5.1816 16.6667 5.25646 16.6667ZM10 13.9584C10.4049 13.9584 10.7492 13.8166 11.0329 13.533C11.3165 13.2492 11.4583 12.9049 11.4583 12.5001C11.4583 12.0952 11.3165 11.7509 11.0329 11.4672C10.7492 11.1836 10.4049 11.0417 10 11.0417C9.59514 11.0417 9.25083 11.1836 8.96708 11.4672C8.68347 11.7509 8.54167 12.0952 8.54167 12.5001C8.54167 12.9049 8.68347 13.2492 8.96708 13.533C9.25083 13.8166 9.59514 13.9584 10 13.9584Z"
        fill="#8C9FBB" />
    <path
        d="M33.185 17.9166C32.764 17.9166 32.366 17.8279 31.991 17.6506C31.616 17.4732 31.3025 17.2184 31.0504 16.8862L26.8052 11.3876L27.1129 11.0593C27.3212 10.8371 27.5704 10.7035 27.8604 10.6587C28.1504 10.6137 28.422 10.6687 28.6752 10.8237L30.7058 11.9135V5.32056C30.7058 5.14347 30.7657 4.995 30.8856 4.87514C31.0053 4.75542 31.1538 4.69556 31.331 4.69556C31.5082 4.69556 31.6588 4.75542 31.7827 4.87514C31.9066 4.995 31.9685 5.14347 31.9685 5.32056V9.39097H38.1577C38.7853 9.39097 39.3188 9.61063 39.7581 10.0499C40.1975 10.4894 40.4173 11.0229 40.4173 11.6506V14.791C40.4173 15.6546 40.1105 16.3915 39.4968 17.0016C38.8834 17.6116 38.1458 17.9166 37.2841 17.9166H33.185ZM28.0873 7.19556C27.9227 6.91667 27.7971 6.61847 27.7106 6.30097C27.6241 5.98347 27.5808 5.65667 27.5808 5.32056C27.5808 4.27986 27.9457 3.39472 28.6754 2.66514C29.405 1.93542 30.2901 1.57056 31.3308 1.57056C32.3714 1.57056 33.2565 1.93542 33.9862 2.66514C34.7158 3.39472 35.0806 4.27952 35.0806 5.31951C35.0806 5.65771 35.0373 5.98521 34.9508 6.30201C34.8643 6.61882 34.7388 6.91667 34.5743 7.19556L33.4975 6.57056C33.6086 6.37611 33.6919 6.1782 33.7475 5.97681C33.803 5.77542 33.8308 5.55667 33.8308 5.32056C33.8308 4.62611 33.5877 4.03583 33.1016 3.54972C32.6155 3.06361 32.0252 2.82056 31.3308 2.82056C30.6364 2.82056 30.0461 3.06361 29.56 3.54972C29.0739 4.03583 28.8308 4.62611 28.8308 5.32056C28.8308 5.55667 28.8586 5.77542 28.9141 5.97681C28.9697 6.1782 29.053 6.37611 29.1641 6.57056L28.0873 7.19556Z"
        fill="#8C9FBB" />
</svg>
