<svg width="57" height="20" viewBox="0 0 57 20" fill="none" xmlns="http://www.w3.org/2000/svg">
    <path
        d="M7.83675 18.0447V11.503L3.79487 15.5447L2.91675 14.6665L7.58342 9.99987L2.91675 5.3332L3.79487 4.45508L7.83675 8.49675V1.95508H8.46154L12.9232 6.41654L9.33987 9.99987L12.9232 13.5832L8.46154 18.0447H7.83675ZM9.08654 8.49675L11.1667 6.41654L9.08654 4.36195V8.49675ZM9.08654 15.6378L11.1667 13.5832L9.08654 11.503V15.6378ZM13.8559 11.6536L12.2276 9.99987L13.8559 8.37175C13.9541 8.63452 14.0347 8.90161 14.0978 9.173C14.1608 9.44438 14.1924 9.72001 14.1924 9.99987C14.1924 10.2797 14.1622 10.5575 14.1017 10.8332C14.0415 11.1089 13.9595 11.3824 13.8559 11.6536ZM16.0097 13.7563L15.2084 12.9807C15.4541 12.5201 15.6454 12.0394 15.7822 11.5384C15.9188 11.0373 15.9872 10.5245 15.9872 9.99987C15.9872 9.47529 15.9188 8.96244 15.7822 8.46133C15.6454 7.96036 15.4541 7.47959 15.2084 7.01904L16.0097 6.21779C16.359 6.79362 16.6253 7.40022 16.8086 8.03758C16.9918 8.6748 17.0834 9.3289 17.0834 9.99987C17.0834 10.6708 16.9918 11.3228 16.8086 11.9557C16.6253 12.5888 16.359 13.189 16.0097 13.7563Z"
        fill="#8C9FBB" />
    <path d="M26.82 15H25.742L29.606 4.766H30.684L26.82 15Z" fill="#8C9FBB" />
    <path
        d="M46.9992 17.9646C46.5944 17.9646 46.25 17.8227 45.9663 17.539C45.6827 17.2554 45.5409 16.9111 45.5409 16.5063C45.5409 16.2306 45.6173 15.9771 45.77 15.7458C45.9228 15.5145 46.1242 15.3384 46.3742 15.2177V13.1248H43.8742C43.4532 13.1248 43.0969 12.979 42.8053 12.6873C42.5136 12.3956 42.3678 12.0393 42.3678 11.6184V9.78189C42.1232 9.67828 41.9232 9.51349 41.7678 9.28752C41.6122 9.06154 41.5344 8.79682 41.5344 8.49335C41.5344 8.08849 41.6763 7.74425 41.96 7.46064C42.2437 7.17689 42.5879 7.03502 42.9928 7.03502C43.3978 7.03502 43.7421 7.17689 44.0257 7.46064C44.3093 7.74425 44.4511 8.08849 44.4511 8.49335C44.4511 8.79682 44.3734 9.05724 44.218 9.2746C44.0625 9.4921 43.8625 9.6612 43.6178 9.78189V11.6184C43.6178 11.6825 43.6445 11.7413 43.698 11.7946C43.7514 11.8481 43.8102 11.8748 43.8742 11.8748H46.3742V5.1121H44.9159L46.9992 2.3396L49.0825 5.1121H47.6242V11.8748H50.1242C50.1882 11.8748 50.247 11.8481 50.3005 11.7946C50.3539 11.7413 50.3807 11.6825 50.3807 11.6184V9.95168H49.5473V7.03502H52.464V9.95168H51.6307V11.6184C51.6307 12.0393 51.4848 12.3956 51.1932 12.6873C50.9015 12.979 50.5452 13.1248 50.1242 13.1248H47.6242V15.2177C47.8827 15.3299 48.0862 15.5017 48.2348 15.7329C48.3833 15.9643 48.4575 16.2221 48.4575 16.5063C48.4575 16.9111 48.3157 17.2554 48.0321 17.539C47.7484 17.8227 47.4041 17.9646 46.9992 17.9646Z"
        fill="#8C9FBB" />
</svg>
