<svg width="20" height="20" viewBox="0 0 20 20" fill="none" xmlns="http://www.w3.org/2000/svg">
    <path
        d="M10.0831 9.98083C9.9059 9.98083 9.7575 9.92097 9.63792 9.80125C9.51819 9.68139 9.45833 9.53292 9.45833 9.35583V2.625C9.45833 2.44792 9.51826 2.29951 9.63813 2.17979C9.75799 2.05993 9.90646 2 10.0835 2C10.2608 2 10.4092 2.05993 10.5288 2.17979C10.6485 2.29951 10.7083 2.44792 10.7083 2.625V9.35583C10.7083 9.53292 10.6484 9.68139 10.5285 9.80125C10.4087 9.92097 10.2602 9.98083 10.0831 9.98083ZM10.0837 17.0642C9.10056 17.0642 8.17951 16.8783 7.32063 16.5065C6.4616 16.1347 5.71264 15.6293 5.07375 14.9904C4.43486 14.3515 3.92951 13.6027 3.55771 12.744C3.1859 11.8852 3 10.9642 3 9.98083C3 9.14958 3.14292 8.34535 3.42875 7.56813C3.71458 6.7909 4.12403 6.085 4.65708 5.45042C4.77069 5.30403 4.91528 5.23431 5.09083 5.24125C5.26639 5.2482 5.42278 5.32028 5.56 5.4575C5.67597 5.57347 5.72701 5.7132 5.71313 5.87667C5.69924 6.04014 5.63889 6.19507 5.53208 6.34146C5.11431 6.85215 4.79618 7.42076 4.57771 8.04729C4.35924 8.67396 4.25 9.31847 4.25 9.98083C4.25 11.6058 4.81597 12.9843 5.94792 14.1163C7.07986 15.2482 8.45833 15.8142 10.0833 15.8142C11.7083 15.8142 13.0868 15.2482 14.2188 14.1163C15.3507 12.9843 15.9167 11.6058 15.9167 9.98083C15.9167 9.31236 15.8096 8.66208 15.5954 8.03C15.3811 7.39792 15.0566 6.82653 14.6219 6.31583C14.5149 6.17792 14.4545 6.02799 14.4406 5.86604C14.4267 5.70396 14.4775 5.56542 14.5929 5.45042C14.7222 5.32111 14.8742 5.25431 15.049 5.25C15.2235 5.24583 15.3685 5.31264 15.484 5.45042C16.0256 6.085 16.4415 6.78861 16.7315 7.56125C17.0216 8.33389 17.1667 9.14042 17.1667 9.98083C17.1667 10.9642 16.9808 11.8852 16.609 12.744C16.2372 13.6027 15.7318 14.3515 15.0929 14.9904C14.454 15.6293 13.7053 16.1347 12.8467 16.5065C11.9879 16.8783 11.0669 17.0642 10.0837 17.0642Z"
        fill="#8C9FBB" />
</svg>
