<svg width="250" height="250" viewBox="0 0 250 250" fill="none" xmlns="http://www.w3.org/2000/svg">
<path d="M250 125C250 194.036 194.036 250 125 250C55.9644 250 0 194.036 0 125C0 55.9644 55.9644 0 125 0C194.036 0 250 55.9644 250 125Z" fill="url(#paint0_linear_10638_42103)"/>
<path d="M245 125C245 58.7258 191.274 5 125 5C58.7258 5 5 58.7258 5 125C5 191.274 58.7258 245 125 245V250C55.9644 250 0 194.036 0 125C0 55.9644 55.9644 0 125 0C194.036 0 250 55.9644 250 125C250 194.036 194.036 250 125 250V245C191.274 245 245 191.274 245 125Z" fill="url(#paint1_linear_10638_42103)"/>
<path d="M245 125C245 58.7258 191.274 5 125 5C58.7258 5 5 58.7258 5 125C5 191.274 58.7258 245 125 245V250C55.9644 250 0 194.036 0 125C0 55.9644 55.9644 0 125 0C194.036 0 250 55.9644 250 125C250 194.036 194.036 250 125 250V245C191.274 245 245 191.274 245 125Z" fill="url(#paint2_linear_10638_42103)"/>
<path d="M245 125C245 58.7258 191.274 5 125 5C58.7258 5 5 58.7258 5 125C5 191.274 58.7258 245 125 245V250C55.9644 250 0 194.036 0 125C0 55.9644 55.9644 0 125 0C194.036 0 250 55.9644 250 125C250 194.036 194.036 250 125 250V245C191.274 245 245 191.274 245 125Z" fill="url(#paint3_linear_10638_42103)"/>
<path d="M138.141 139.357L129.775 162.309C129.568 162.931 129.568 163.622 129.775 164.314L144.155 203.789L160.816 194.18L140.837 139.357C140.353 138.112 138.625 138.112 138.141 139.357Z" fill="#041935"/>
<path d="M154.94 100.78C154.456 99.5355 152.728 99.5355 152.244 100.78L143.879 123.732C143.672 124.355 143.672 125.046 143.879 125.737L167.454 190.377L184.115 180.768L154.94 100.849V100.78Z" fill="#041935"/>
<path d="M125.316 39.8047C127.586 39.8103 129.854 40.3637 131.849 41.533L195.382 78.1737C199.461 80.5242 201.95 84.8105 201.95 89.5114V162.794C201.95 167.495 199.461 171.781 195.382 174.132L131.918 210.772C129.844 211.947 127.632 212.501 125.351 212.501C123.069 212.501 120.788 211.948 118.783 210.772L90.0345 194.174L98.2632 186.618L124.175 201.578C124.521 201.785 124.936 201.924 125.351 201.924C125.765 201.923 126.18 201.785 126.525 201.578L189.99 164.936C190.682 164.521 191.165 163.692 191.165 162.863V89.5812C191.165 88.7517 190.751 87.9223 189.99 87.5074L126.525 50.8656C126.18 50.6584 125.765 50.5203 125.351 50.5202V50.4516C124.936 50.4516 124.521 50.5896 124.175 50.797L60.71 87.4377C60.0188 87.8524 59.5354 88.682 59.5353 89.5114V162.863C59.5353 163.692 59.9497 164.521 60.71 164.936L87.0841 180.163L83.3619 190.323L55.3179 174.132C51.2391 171.781 48.7501 167.495 48.75 162.794V89.5114C48.7501 84.8105 51.2392 80.5242 55.3179 78.1737L118.783 41.533C120.846 40.3637 123.047 39.8102 125.316 39.8047Z" fill="#041935"/>
<path d="M119.959 84.3269H103.851C102.675 84.3269 101.569 85.0874 101.155 86.1935L66.6568 180.768L83.318 190.378L121.342 86.1935C121.687 85.2257 120.996 84.2578 120.028 84.2578L119.959 84.3269Z" fill="#041935"/>
<path d="M148.166 84.3271H132.058C130.883 84.3271 129.777 85.0876 129.362 86.1937L89.9558 194.181L106.617 203.79L149.48 86.1937C149.826 85.2258 149.134 84.258 148.166 84.258V84.3271Z" fill="#041935"/>
<path d="M138.143 137.051L129.778 160.003C129.57 160.626 129.57 161.317 129.778 162.008L144.157 201.484L160.819 191.874L140.839 137.051C140.355 135.807 138.627 135.807 138.143 137.051Z" fill="url(#paint4_linear_10638_42103)"/>
<path d="M154.943 98.4743C154.459 97.2299 152.73 97.2299 152.246 98.4743L143.881 121.427C143.674 122.049 143.674 122.74 143.881 123.432L167.456 188.072L184.117 178.462L154.943 98.5435V98.4743Z" fill="url(#paint5_linear_10638_42103)"/>
<path d="M138.143 137.051C138.627 135.807 140.355 135.807 140.839 137.051L160.819 191.875L144.157 201.484L129.778 162.008C129.57 161.317 129.57 160.626 129.778 160.004L138.143 137.051ZM139.491 137.368C139.447 137.368 139.41 137.381 139.385 137.397C139.366 137.41 139.335 137.435 139.309 137.502L130.964 160.399L130.925 160.535C130.847 160.852 130.851 161.221 130.967 161.622L144.822 199.657L159.284 191.316L139.674 137.505C139.647 137.436 139.616 137.41 139.597 137.397C139.572 137.381 139.535 137.368 139.491 137.368ZM152.246 98.4753C152.73 97.2309 154.459 97.2309 154.943 98.4753V98.5437L184.117 178.463L167.456 188.072L143.881 123.432C143.7 122.827 143.678 122.222 143.814 121.664L143.881 121.427L152.246 98.4753ZM153.595 98.7917C153.551 98.7917 153.514 98.8044 153.488 98.821C153.469 98.8336 153.439 98.8589 153.412 98.9255L145.068 121.823L145.029 121.959C144.951 122.276 144.955 122.644 145.071 123.045L168.119 186.246L182.582 177.904L153.769 98.9724L153.719 98.8376C153.712 98.8309 153.706 98.8247 153.7 98.821C153.675 98.8045 153.639 98.7918 153.595 98.7917Z" fill="url(#paint6_linear_10638_42103)"/>
<path d="M125.318 37.5C127.588 37.5054 129.858 38.0591 131.853 39.2285L195.386 75.8691C199.465 78.2197 201.954 82.506 201.954 87.207V160.489C201.954 165.19 199.465 169.477 195.386 171.827L131.921 208.468C129.847 209.643 127.635 210.196 125.354 210.196C123.072 210.196 120.791 209.643 118.786 208.468L90.0381 191.87L98.2676 184.313L124.179 199.273C124.524 199.481 124.939 199.619 125.354 199.619C125.768 199.619 126.184 199.481 126.529 199.273L189.994 162.632C190.685 162.217 191.169 161.387 191.169 160.558V87.2764C191.169 86.4469 190.754 85.617 189.994 85.2021L126.529 48.5615C126.184 48.3541 125.768 48.2158 125.354 48.2158V48.1465C124.939 48.1465 124.524 48.2849 124.179 48.4922L60.7139 85.1328C60.0226 85.5476 59.5381 86.3775 59.5381 87.207V160.558C59.5381 161.387 59.9534 162.217 60.7139 162.632L87.0869 177.858L83.3652 188.018L55.3213 171.827C51.2425 169.477 48.754 165.19 48.7539 160.489V87.207C48.754 82.506 51.2424 78.2197 55.3213 75.8691L118.786 39.2285C120.849 38.0593 123.049 37.5057 125.318 37.5Z" fill="url(#paint7_linear_10638_42103)"/>
<path d="M200.704 160.489V87.207C200.704 83.0885 198.594 79.3238 195.104 77.1572L194.762 76.9521L131.229 40.3115L131.221 40.3066C129.436 39.2603 127.389 38.7555 125.318 38.75C123.26 38.7556 121.273 39.2566 119.402 40.3164L55.9463 76.9521H55.9453C52.367 79.0142 50.1461 82.715 50.0107 86.8096L50.0039 87.207V160.489C50.004 164.741 52.2517 168.616 55.9453 170.744H55.9463L82.7021 186.191L85.5508 178.415L60.0889 163.715V163.714C58.8877 163.045 58.2881 161.767 58.2881 160.558V87.207C58.2882 85.9306 59.0094 84.6972 60.0703 84.0605L60.0801 84.0557L60.0889 84.0498L123.554 47.4092C124.051 47.1146 124.679 46.8965 125.354 46.8965H126.604V47.21C126.8 47.2869 126.984 47.3782 127.153 47.4785L190.619 84.1191H190.618C191.821 84.7885 192.419 86.0676 192.419 87.2764V160.558C192.419 161.833 191.699 163.066 190.638 163.703L190.628 163.709L190.619 163.715L127.154 200.356L127.153 200.355C126.655 200.65 126.028 200.869 125.354 200.869C124.678 200.869 124.051 200.65 123.554 200.355V200.356L98.4365 185.854L92.1377 191.639L119.411 207.385L119.418 207.39C121.213 208.442 123.272 208.946 125.354 208.946V210.196C123.072 210.196 120.791 209.643 118.786 208.468L90.0381 191.87L98.2676 184.313L124.179 199.273C124.524 199.481 124.939 199.619 125.354 199.619C125.768 199.619 126.184 199.481 126.529 199.273L189.994 162.632C190.685 162.217 191.169 161.387 191.169 160.558V87.2764C191.169 86.4469 190.754 85.617 189.994 85.2021L126.529 48.5615C126.184 48.3541 125.768 48.2158 125.354 48.2158V48.1465C124.939 48.1465 124.524 48.2849 124.179 48.4922L60.7139 85.1328C60.0226 85.5476 59.5381 86.3775 59.5381 87.207V160.558C59.5381 161.387 59.9534 162.217 60.7139 162.632L87.0869 177.858L83.3652 188.018L55.3213 171.827C51.2425 169.477 48.754 165.19 48.7539 160.489V87.207C48.754 82.506 51.2424 78.2197 55.3213 75.8691L118.786 39.2285C120.849 38.0593 123.049 37.5057 125.318 37.5C127.588 37.5054 129.858 38.0591 131.853 39.2285L195.386 75.8691C199.465 78.2197 201.954 82.506 201.954 87.207V160.489C201.954 165.19 199.465 169.477 195.386 171.827L131.921 208.468C129.847 209.643 127.635 210.196 125.354 210.196V208.946C127.425 208.946 129.424 208.446 131.305 207.38L194.761 170.744H194.762C198.34 168.682 200.562 164.981 200.697 160.887L200.704 160.489Z" fill="url(#paint8_linear_10638_42103)"/>
<path d="M119.96 82.0223H103.852C102.677 82.0223 101.571 82.7827 101.156 83.8889L66.6582 178.464L83.3194 188.073L121.343 83.8889C121.689 82.921 120.997 81.9531 120.029 81.9531L119.96 82.0223Z" fill="url(#paint9_linear_10638_42103)"/>
<path d="M148.168 82.0224H132.06C130.884 82.0224 129.778 82.7829 129.363 83.8891L89.9572 191.876L106.618 201.486L149.481 83.8891C149.827 82.9212 149.136 81.9533 148.168 81.9533V82.0224Z" fill="url(#paint10_linear_10638_42103)"/>
<path d="M148.168 81.9531C149.136 81.9532 149.827 82.921 149.482 83.8887L106.618 201.486L89.9571 191.876L129.363 83.8887C129.752 82.8519 130.749 82.119 131.84 82.0313L132.06 82.0225H148.168V81.9531ZM132.06 83.2725C131.403 83.2725 130.765 83.7126 130.534 84.3281L91.4912 191.318L105.954 199.658L148.307 83.4609C148.335 83.3743 148.318 83.3135 148.291 83.2725H132.06ZM120.029 81.9531C120.997 81.9531 121.688 82.9208 121.343 83.8887L83.3193 188.073L66.6582 178.464L101.156 83.8887C101.545 82.8518 102.541 82.1188 103.633 82.0313L103.853 82.0225H119.96L120.029 81.9531ZM103.853 83.2725C103.195 83.2725 102.557 83.7126 102.326 84.3281L68.1914 177.904L82.6553 186.246L120.166 83.4658C120.197 83.3764 120.18 83.3143 120.152 83.2725H103.853Z" fill="url(#paint11_linear_10638_42103)"/>
<defs>
<linearGradient id="paint0_linear_10638_42103" x1="125" y1="0" x2="125" y2="250" gradientUnits="userSpaceOnUse">
<stop stop-color="#213147"/>
<stop offset="1" stop-color="#0E1D32"/>
</linearGradient>
<linearGradient id="paint1_linear_10638_42103" x1="125" y1="0" x2="125" y2="250" gradientUnits="userSpaceOnUse">
<stop stop-color="#526B8F"/>
<stop offset="1" stop-color="#10365A"/>
</linearGradient>
<linearGradient id="paint2_linear_10638_42103" x1="125" y1="0" x2="125" y2="250" gradientUnits="userSpaceOnUse">
<stop offset="0.85" stop-color="#1E5588" stop-opacity="0"/>
<stop offset="1" stop-color="#1E5588"/>
</linearGradient>
<linearGradient id="paint3_linear_10638_42103" x1="125" y1="0" x2="125" y2="250" gradientUnits="userSpaceOnUse">
<stop stop-color="#5D85C0"/>
<stop offset="0.15" stop-color="#5D85C0" stop-opacity="0"/>
</linearGradient>
<linearGradient id="paint4_linear_10638_42103" x1="156.87" y1="97.541" x2="156.87" y2="201.484" gradientUnits="userSpaceOnUse">
<stop stop-color="#12AAFF"/>
<stop offset="1" stop-color="#006AA6"/>
</linearGradient>
<linearGradient id="paint5_linear_10638_42103" x1="156.87" y1="97.541" x2="156.87" y2="201.484" gradientUnits="userSpaceOnUse">
<stop stop-color="#12AAFF"/>
<stop offset="1" stop-color="#006AA6"/>
</linearGradient>
<linearGradient id="paint6_linear_10638_42103" x1="156.87" y1="97.5417" x2="156.87" y2="201.484" gradientUnits="userSpaceOnUse">
<stop stop-color="#27B2FF"/>
<stop offset="1" stop-color="#619EC9"/>
</linearGradient>
<linearGradient id="paint7_linear_10638_42103" x1="125.354" y1="37.5" x2="125.354" y2="210.196" gradientUnits="userSpaceOnUse">
<stop stop-color="#9DCCED"/>
<stop offset="1" stop-color="#5594C1"/>
</linearGradient>
<linearGradient id="paint8_linear_10638_42103" x1="125.354" y1="37.5" x2="125.354" y2="210.196" gradientUnits="userSpaceOnUse">
<stop stop-color="#D7EFFF"/>
<stop offset="1" stop-color="#2672A6"/>
</linearGradient>
<linearGradient id="paint9_linear_10638_42103" x1="108.115" y1="81.9531" x2="108.115" y2="201.486" gradientUnits="userSpaceOnUse">
<stop stop-color="white"/>
<stop offset="1" stop-color="#D0ECFF"/>
</linearGradient>
<linearGradient id="paint10_linear_10638_42103" x1="108.115" y1="81.9531" x2="108.115" y2="201.486" gradientUnits="userSpaceOnUse">
<stop stop-color="white"/>
<stop offset="1" stop-color="#D0ECFF"/>
</linearGradient>
<linearGradient id="paint11_linear_10638_42103" x1="108.115" y1="81.9531" x2="108.115" y2="201.486" gradientUnits="userSpaceOnUse">
<stop stop-color="white"/>
<stop offset="1" stop-color="#5796C3"/>
</linearGradient>
</defs>
</svg>
