<svg width="250" height="250" viewBox="0 0 250 250" fill="none" xmlns="http://www.w3.org/2000/svg">
<path d="M250 125C250 194.036 194.036 250 125 250C55.9644 250 0 194.036 0 125C0 55.9644 55.9644 0 125 0C194.036 0 250 55.9644 250 125Z" fill="url(#paint0_linear_10638_42094)"/>
<path d="M245 125C245 58.7258 191.274 5 125 5C58.7258 5 5 58.7258 5 125C5 191.274 58.7258 245 125 245V250C55.9644 250 0 194.036 0 125C0 55.9644 55.9644 0 125 0C194.036 0 250 55.9644 250 125C250 194.036 194.036 250 125 250V245C191.274 245 245 191.274 245 125Z" fill="url(#paint1_linear_10638_42094)"/>
<path d="M245 125C245 58.7258 191.274 5 125 5C58.7258 5 5 58.7258 5 125C5 191.274 58.7258 245 125 245V250C55.9644 250 0 194.036 0 125C0 55.9644 55.9644 0 125 0C194.036 0 250 55.9644 250 125C250 194.036 194.036 250 125 250V245C191.274 245 245 191.274 245 125Z" fill="url(#paint2_linear_10638_42094)"/>
<path d="M245 125C245 58.7258 191.274 5 125 5C58.7258 5 5 58.7258 5 125C5 191.274 58.7258 245 125 245V250C55.9644 250 0 194.036 0 125C0 55.9644 55.9644 0 125 0C194.036 0 250 55.9644 250 125C250 194.036 194.036 250 125 250V245C191.274 245 245 191.274 245 125Z" fill="url(#paint3_linear_10638_42094)"/>
<path d="M124.859 211.875C170.212 211.875 206.979 175.172 206.979 129.898C206.979 84.624 170.212 47.9219 124.859 47.9219C81.8302 47.9219 46.5311 80.9578 43.0254 123.007H151.568V136.789H43.0254C46.5311 178.839 81.8302 211.875 124.859 211.875Z" fill="#0037AD"/>
<path d="M124.859 207.078C170.212 207.078 206.979 170.375 206.979 125.102C206.979 79.8271 170.212 43.125 124.859 43.125C81.8302 43.125 46.5311 76.1609 43.0254 118.21H151.568V131.992H43.0254C46.5311 174.042 81.8302 207.078 124.859 207.078Z" fill="url(#paint4_linear_10638_42094)"/>
<path d="M151.568 131.992V118.211H43.0254C46.5311 76.1614 81.8301 43.1251 124.858 43.125C170.212 43.125 206.979 79.8271 206.979 125.102C206.979 170.375 170.212 207.078 124.858 207.078V205.078C169.111 205.078 204.979 169.268 204.979 125.102C204.979 80.9349 169.111 45.125 124.858 45.125C83.6178 45.1251 49.6584 76.2291 45.2295 116.211H153.568V133.992H45.2295C49.6587 173.975 83.618 205.078 124.858 205.078V207.078C81.8302 207.078 46.5312 174.042 43.0254 131.992H151.568Z" fill="url(#paint5_linear_10638_42094)"/>
<defs>
<linearGradient id="paint0_linear_10638_42094" x1="125" y1="0" x2="125" y2="250" gradientUnits="userSpaceOnUse">
<stop stop-color="#0052FF"/>
<stop offset="1" stop-color="#003CB9"/>
</linearGradient>
<linearGradient id="paint1_linear_10638_42094" x1="125" y1="0" x2="125" y2="250" gradientUnits="userSpaceOnUse">
<stop stop-color="#2C70FF"/>
<stop offset="1" stop-color="#005FDB"/>
</linearGradient>
<linearGradient id="paint2_linear_10638_42094" x1="125" y1="0" x2="125" y2="250" gradientUnits="userSpaceOnUse">
<stop offset="0.85" stop-color="#4A84FF" stop-opacity="0"/>
<stop offset="1" stop-color="#4A84FF"/>
</linearGradient>
<linearGradient id="paint3_linear_10638_42094" x1="125" y1="0" x2="125" y2="250" gradientUnits="userSpaceOnUse">
<stop stop-color="#578EFF"/>
<stop offset="0.15" stop-color="#578EFF" stop-opacity="0"/>
</linearGradient>
<linearGradient id="paint4_linear_10638_42094" x1="125.002" y1="43.125" x2="125.002" y2="207.078" gradientUnits="userSpaceOnUse">
<stop stop-color="white"/>
<stop offset="1" stop-color="#A7C3FF"/>
</linearGradient>
<linearGradient id="paint5_linear_10638_42094" x1="125.002" y1="43.125" x2="125.002" y2="207.078" gradientUnits="userSpaceOnUse">
<stop stop-color="white"/>
<stop offset="1" stop-color="white"/>
</linearGradient>
</defs>
</svg>
