<svg width="250" height="250" viewBox="0 0 250 250" fill="none" xmlns="http://www.w3.org/2000/svg">
<g clip-path="url(#clip0_10638_41809)">
<path d="M125 250C194.036 250 250 194.036 250 125C250 55.9644 194.036 0 125 0C55.9644 0 0 55.9644 0 125C0 194.036 55.9644 250 125 250Z" fill="url(#paint0_linear_10638_41809)"/>
<path d="M125 250C194.036 250 250 194.036 250 125C250 55.9644 194.036 0 125 0C55.9644 0 0 55.9644 0 125C0 194.036 55.9644 250 125 250Z" fill="url(#paint1_linear_10638_41809)"/>
<path d="M245 125C245 58.7258 191.274 5 125 5C58.7258 5 5 58.7258 5 125C5 191.274 58.7258 245 125 245V250C55.9644 250 0 194.036 0 125C0 55.9644 55.9644 0 125 0C194.036 0 250 55.9644 250 125C250 194.036 194.036 250 125 250V245C191.274 245 245 191.274 245 125Z" fill="url(#paint2_linear_10638_41809)"/>
<path d="M245 125C245 58.7258 191.274 5 125 5C58.7258 5 5 58.7258 5 125C5 191.274 58.7258 245 125 245V250C55.9644 250 0 194.036 0 125C0 55.9644 55.9644 0 125 0C194.036 0 250 55.9644 250 125C250 194.036 194.036 250 125 250V245C191.274 245 245 191.274 245 125Z" fill="url(#paint3_linear_10638_41809)"/>
<path d="M245 125C245 58.7258 191.274 5 125 5C58.7258 5 5 58.7258 5 125C5 191.274 58.7258 245 125 245V250C55.9644 250 0 194.036 0 125C0 55.9644 55.9644 0 125 0C194.036 0 250 55.9644 250 125C250 194.036 194.036 250 125 250V245C191.274 245 245 191.274 245 125Z" fill="url(#paint4_linear_10638_41809)"/>
<path d="M163.981 89.0268C157.7 74.7819 143.264 71.7362 125.593 74.6867L119.914 52.6689L106.526 56.1271L112.109 78.0814C108.588 78.9697 104.971 79.7311 101.386 80.7464L95.8023 58.9189L82.414 62.3771L88.093 84.3948C85.2059 85.2197 61.0625 91.4063 61.0625 91.4063L64.7427 105.746C64.7427 105.746 74.5777 102.986 74.4826 103.208C79.9394 101.781 82.5092 104.509 83.7148 107.079L99.3239 167.421C99.5143 169.166 99.197 172.149 95.4534 173.164C95.6754 173.291 85.7135 175.67 85.7135 175.67L87.1729 192.39C87.1729 192.39 111.094 186.267 114.235 185.474L119.977 207.745L133.366 204.287L127.623 181.857C131.304 181 134.889 180.112 138.378 179.192L144.089 201.495L157.477 198.037L151.735 175.797C172.357 170.784 186.919 157.777 183.937 137.885C182.033 125.892 168.931 116.057 158.049 114.947C164.743 109.014 168.137 100.353 163.981 89.0268ZM157.541 141.533C160.206 161.235 132.826 163.646 123.785 166.026L115.917 136.552C124.99 134.173 153.036 124.179 157.541 141.533ZM141.043 101.4C143.867 118.913 120.453 120.943 112.903 122.878L105.733 96.1334C113.315 94.2616 135.301 85.188 141.043 101.4Z" fill="url(#paint5_linear_10638_41809)"/>
<path d="M163.981 83.0268C157.7 68.7819 143.264 65.7362 125.593 68.6867L119.914 46.6689L106.526 50.1271L112.109 72.0814C108.588 72.9697 104.971 73.7311 101.386 74.7464L95.8023 52.9189L82.414 56.3771L88.093 78.3948C85.2059 79.2197 61.0625 85.4063 61.0625 85.4063L64.7427 99.7463C64.7427 99.7463 74.5777 96.9862 74.4826 97.2083C79.9394 95.7806 82.5092 98.509 83.7148 101.079L99.3239 161.421C99.5143 163.166 99.197 166.149 95.4534 167.164C95.6754 167.291 85.7135 169.67 85.7135 169.67L87.1729 186.39C87.1729 186.39 111.094 180.267 114.235 179.474L119.977 201.745L133.366 198.287L127.623 175.857C131.304 175 134.889 174.112 138.378 173.192L144.089 195.495L157.477 192.037L151.735 169.797C172.357 164.784 186.919 151.777 183.937 131.885C182.033 119.892 168.931 110.057 158.049 108.947C164.743 103.014 168.137 94.353 163.981 83.0268ZM157.541 135.533C160.206 155.235 132.826 157.646 123.785 160.026L115.917 130.552C124.99 128.173 153.036 118.179 157.541 135.533ZM141.043 95.3999C143.867 112.913 120.453 114.943 112.903 116.878L105.733 90.1334C113.315 88.2616 135.301 79.188 141.043 95.3999Z" fill="white"/>
<path d="M163.981 83.0268C157.7 68.7819 143.264 65.7362 125.593 68.6867L119.914 46.6689L106.526 50.1271L112.109 72.0814C108.588 72.9697 104.971 73.7311 101.386 74.7464L95.8023 52.9189L82.414 56.3771L88.093 78.3948C85.2059 79.2197 61.0625 85.4063 61.0625 85.4063L64.7427 99.7463C64.7427 99.7463 74.5777 96.9862 74.4826 97.2083C79.9394 95.7806 82.5092 98.509 83.7148 101.079L99.3239 161.421C99.5143 163.166 99.197 166.149 95.4534 167.164C95.6754 167.291 85.7135 169.67 85.7135 169.67L87.1729 186.39C87.1729 186.39 111.094 180.267 114.235 179.474L119.977 201.745L133.366 198.287L127.623 175.857C131.304 175 134.889 174.112 138.378 173.192L144.089 195.495L157.477 192.037L151.735 169.797C172.357 164.784 186.919 151.777 183.937 131.885C182.033 119.892 168.931 110.057 158.049 108.947C164.743 103.014 168.137 94.353 163.981 83.0268ZM157.541 135.533C160.206 155.235 132.826 157.646 123.785 160.026L115.917 130.552C124.99 128.173 153.036 118.179 157.541 135.533ZM141.043 95.3999C143.867 112.913 120.453 114.943 112.903 116.878L105.733 90.1334C113.315 88.2616 135.301 79.188 141.043 95.3999Z" fill="url(#paint6_linear_10638_41809)"/>
<path d="M125.593 68.6865C143.264 65.736 157.7 68.7817 163.981 83.0264C168.138 94.3525 164.743 103.015 158.049 108.947C168.931 110.058 182.033 119.892 183.937 131.885C186.919 151.777 172.357 164.784 151.735 169.797L157.478 192.037L144.089 195.495L138.379 173.191C134.889 174.111 131.303 175 127.623 175.856L133.366 198.287L119.978 201.745L114.235 179.474C111.094 180.267 87.1729 186.39 87.1729 186.39L85.7139 169.67C85.7856 169.653 95.6744 167.291 95.4531 167.164C99.1965 166.149 99.5145 163.167 99.3242 161.422L83.7148 101.079C82.5093 98.5093 79.9393 95.7803 74.4824 97.208C74.5716 96.9886 64.8229 99.7237 64.7432 99.7461L61.0625 85.4062C61.0679 85.4049 85.2056 79.2194 88.0928 78.3945L82.4141 56.377L95.8027 52.9189L101.386 74.7461C104.971 73.7309 108.588 72.9694 112.109 72.0811L106.525 50.127L119.914 46.6689L125.593 68.6865ZM108.954 51.5645L114.542 73.5303L112.599 74.0205C108.961 74.9382 105.493 75.6622 101.931 76.6709L99.957 77.2295L94.3604 55.3564L84.8496 57.8135L90.5166 79.7822L88.6426 80.3184C87.1665 80.7401 80.3704 82.502 73.9941 84.1465C70.7952 84.9715 67.6868 85.7713 65.3779 86.3643C64.6688 86.5464 64.0348 86.7087 63.4971 86.8467L66.1719 97.2734C67.0301 97.036 68.0787 96.7473 69.126 96.4639C70.3517 96.1321 71.5869 95.8036 72.5146 95.5713C72.9737 95.4563 73.3821 95.3586 73.6826 95.2959C73.8212 95.267 73.9929 95.2338 74.1504 95.2148C74.1682 95.2127 74.2067 95.2083 74.2598 95.2041C77.2593 94.4772 79.7206 94.8091 81.6689 95.8984C83.5095 96.9276 84.665 98.5045 85.3867 99.9434L85.5254 100.229L85.6045 100.397L101.26 160.921L101.297 161.061L101.312 161.204C101.43 162.277 101.413 163.878 100.667 165.432C99.9094 167.01 98.4958 168.329 96.2627 169.009C96.1936 169.041 96.1436 169.062 96.126 169.069C95.9827 169.127 95.8193 169.179 95.6865 169.22C95.3978 169.308 94.9966 169.419 94.541 169.541C93.6205 169.787 92.382 170.1 91.1484 170.406C89.9638 170.7 88.7733 170.989 87.8555 171.211L88.96 183.867C89.4088 183.752 89.9135 183.624 90.4639 183.483C92.7556 182.897 95.8438 182.106 99.0303 181.291C105.401 179.662 112.17 177.932 113.745 177.534L115.675 177.047L121.414 199.308L130.934 196.849L125.179 174.372L127.17 173.909C130.832 173.057 134.398 172.173 137.868 171.258L139.816 170.744L145.529 193.057L155.041 190.601L149.291 168.333L151.263 167.854C161.323 165.408 169.717 161.054 175.215 155.067C180.658 149.141 183.359 141.52 181.959 132.182C181.099 126.801 177.692 121.748 173.073 117.866C168.449 113.98 162.819 111.444 157.846 110.937L153.311 110.474L156.722 107.45C159.832 104.694 162.106 101.368 163.152 97.4883C164.192 93.6332 164.06 89.0817 162.125 83.7773C159.22 77.2289 154.502 73.3063 148.433 71.3086C142.26 69.277 134.596 69.211 125.922 70.6592L124.114 70.9609L118.477 49.1055L108.954 51.5645ZM138.299 123.647C142.791 123.324 147.374 123.612 151.204 125.262C155.142 126.958 158.186 130.06 159.477 135.03L159.507 135.146L159.522 135.265C160.258 140.705 158.915 145.089 156.248 148.557C153.63 151.961 149.838 154.354 145.858 156.105C141.866 157.862 137.536 159.036 133.694 159.915C129.709 160.827 126.549 161.367 124.294 161.96L122.366 162.467L113.466 129.127L115.409 128.617C119.757 127.477 129.345 124.292 138.299 123.647ZM157.541 135.533C153.036 118.179 124.991 128.172 115.917 130.552L123.784 160.025C132.826 157.646 160.206 155.235 157.541 135.533ZM123.945 83.9893C127.702 83.7396 131.606 84.0639 135.019 85.6631C138.396 87.2457 141.143 90.0104 142.774 94.3115L142.929 94.7324L142.989 94.9023L143.018 95.082C143.802 99.9455 142.769 103.895 140.527 107.034C138.33 110.111 135.086 112.254 131.693 113.801C128.29 115.353 124.592 116.371 121.329 117.118C119.694 117.493 118.145 117.804 116.793 118.078C115.421 118.356 114.284 118.589 113.399 118.815L111.483 119.307L103.272 88.6807L105.253 88.1914C108.711 87.3379 116.555 84.4804 123.945 83.9893ZM141.044 95.4004C135.302 79.1885 113.315 88.262 105.732 90.1338L112.902 116.878C120.453 114.943 143.867 112.913 141.044 95.4004Z" fill="white"/>
</g>
<defs>
<linearGradient id="paint0_linear_10638_41809" x1="125" y1="0" x2="125" y2="250" gradientUnits="userSpaceOnUse">
<stop stop-color="#00D096"/>
<stop offset="1" stop-color="#008F5D"/>
</linearGradient>
<linearGradient id="paint1_linear_10638_41809" x1="125" y1="0" x2="125" y2="250" gradientUnits="userSpaceOnUse">
<stop offset="0.725084" stop-color="#00744C" stop-opacity="0"/>
<stop offset="1" stop-color="#00744C" stop-opacity="0.5"/>
</linearGradient>
<linearGradient id="paint2_linear_10638_41809" x1="125" y1="0" x2="125" y2="250" gradientUnits="userSpaceOnUse">
<stop stop-color="#00FFB7"/>
<stop offset="1" stop-color="#00AC9D"/>
</linearGradient>
<linearGradient id="paint3_linear_10638_41809" x1="125" y1="0" x2="125" y2="250" gradientUnits="userSpaceOnUse">
<stop offset="0.85" stop-color="#00C4E6" stop-opacity="0"/>
<stop offset="1" stop-color="#00C4E6"/>
</linearGradient>
<linearGradient id="paint4_linear_10638_41809" x1="125" y1="0" x2="125" y2="250" gradientUnits="userSpaceOnUse">
<stop stop-color="#56FFCF"/>
<stop offset="0.15" stop-color="#56FFCF" stop-opacity="0"/>
</linearGradient>
<linearGradient id="paint5_linear_10638_41809" x1="122.693" y1="52.6689" x2="122.693" y2="207.745" gradientUnits="userSpaceOnUse">
<stop stop-color="#01A06B"/>
<stop offset="1" stop-color="#029262"/>
</linearGradient>
<linearGradient id="paint6_linear_10638_41809" x1="122.693" y1="46.6689" x2="122.693" y2="201.745" gradientUnits="userSpaceOnUse">
<stop stop-color="white"/>
<stop offset="1" stop-color="#BCFFEC"/>
</linearGradient>
<clipPath id="clip0_10638_41809">
<rect width="250" height="250" fill="white"/>
</clipPath>
</defs>
</svg>
