<svg width="250" height="250" viewBox="0 0 250 250" fill="none" xmlns="http://www.w3.org/2000/svg">
<path d="M246.259 155.241C229.561 222.206 161.73 262.96 94.7502 246.261C27.7977 229.565 -12.9605 161.737 3.74439 94.7763C20.4337 27.8036 88.2651 -12.9542 155.225 3.7411C222.201 20.4364 262.956 88.2724 246.259 155.241Z" fill="url(#paint0_linear_10617_23652)"/>
<path d="M246.259 155.241C229.561 222.206 161.73 262.96 94.7502 246.261C27.7977 229.565 -12.9605 161.737 3.74439 94.7763C20.4337 27.8036 88.2651 -12.9542 155.225 3.7411C222.201 20.4364 262.956 88.2724 246.259 155.241Z" fill="url(#paint1_linear_10617_23652)"/>
<path d="M3.74439 94.7757C20.4338 27.8033 88.2653 -12.9547 155.225 3.74058C222.201 20.4359 262.955 88.272 246.259 155.241L245.858 156.806C228.638 222.319 162.263 262.198 96.3197 246.641L94.7502 246.26C27.7977 229.565 -12.9605 161.737 3.74439 94.7757ZM154.015 8.59214C89.7356 -7.43476 24.6182 31.6917 8.59647 95.9847V95.9867C-7.43974 160.268 31.6872 225.381 95.9593 241.408C160.26 257.44 225.377 218.317 241.407 154.032C257.436 89.7415 218.311 24.6193 154.015 8.59214Z" fill="url(#paint2_linear_10617_23652)"/>
<path d="M3.74439 94.7757C20.4338 27.8033 88.2653 -12.9547 155.225 3.74058C222.201 20.4359 262.955 88.272 246.259 155.241L245.858 156.806C228.638 222.319 162.263 262.198 96.3197 246.641L94.7502 246.26C27.7977 229.565 -12.9605 161.737 3.74439 94.7757ZM154.015 8.59214C89.7356 -7.43476 24.6182 31.6917 8.59647 95.9847V95.9867C-7.43974 160.268 31.6872 225.381 95.9593 241.408C160.26 257.44 225.377 218.317 241.407 154.032C257.436 89.7415 218.311 24.6193 154.015 8.59214Z" fill="url(#paint3_linear_10617_23652)"/>
<path d="M3.74439 94.7757C20.4338 27.8033 88.2653 -12.9547 155.225 3.74058C222.201 20.4359 262.955 88.272 246.259 155.241L245.858 156.806C228.638 222.319 162.263 262.198 96.3197 246.641L94.7502 246.26C27.7977 229.565 -12.9605 161.737 3.74439 94.7757ZM154.015 8.59214C89.7356 -7.43476 24.6182 31.6917 8.59647 95.9847V95.9867C-7.43974 160.268 31.6872 225.381 95.9593 241.408C160.26 257.44 225.377 218.317 241.407 154.032C257.436 89.7415 218.311 24.6193 154.015 8.59214Z" fill="url(#paint4_linear_10617_23652)"/>
<path d="M180.117 113.191C182.605 96.5586 169.941 87.6172 152.625 81.6523L158.242 59.1211L144.527 55.7031L139.059 77.6406C135.453 76.7422 131.75 75.8945 128.07 75.0547L133.578 52.9727L119.871 49.5547L114.25 72.0781C111.266 71.3984 108.336 70.7266 105.492 70.0195L105.508 69.9492L86.5937 65.2266L82.9453 79.875C82.9453 79.875 93.1211 82.207 92.9062 82.3516C98.4609 83.7383 99.4648 87.4141 99.2969 90.3281L92.8984 115.996C93.2812 116.094 93.7773 116.234 94.3242 116.453C93.8672 116.34 93.3789 116.215 92.875 116.094L83.9062 152.051C83.2266 153.738 81.5039 156.27 77.6211 155.309C77.7578 155.508 67.6523 152.82 67.6523 152.82L60.8438 168.52L78.6914 172.969C82.0117 173.801 85.2656 174.672 88.4688 175.492L82.793 198.281L96.4922 201.699L102.113 179.152C105.855 180.168 109.488 181.105 113.043 181.988L107.441 204.43L121.156 207.848L126.832 185.102C150.219 189.527 167.805 187.742 175.207 166.59C181.172 149.559 174.91 139.734 162.605 133.328C171.566 131.262 178.316 125.367 180.117 113.191ZM148.781 157.133C144.543 174.164 115.867 164.957 106.57 162.648L114.102 132.457C123.398 134.777 153.211 139.371 148.781 157.133ZM153.023 112.945C149.156 128.438 125.289 120.566 117.547 118.637L124.375 91.2539C132.117 93.1836 157.051 96.7852 153.023 112.945Z" fill="url(#paint5_linear_10617_23652)"/>
<path d="M180.117 107.191C182.605 90.5586 169.941 81.6172 152.625 75.6523L158.242 53.1211L144.527 49.7031L139.059 71.6406C135.453 70.7422 131.75 69.8945 128.07 69.0547L133.578 46.9727L119.871 43.5547L114.25 66.0781C111.266 65.3984 108.336 64.7266 105.492 64.0195L105.508 63.9492L86.5937 59.2266L82.9453 73.875C82.9453 73.875 93.1211 76.207 92.9062 76.3516C98.4609 77.7383 99.4648 81.4141 99.2969 84.3281L92.8984 109.996C93.2812 110.094 93.7773 110.234 94.3242 110.453C93.8672 110.34 93.3789 110.215 92.875 110.094L83.9062 146.051C83.2266 147.738 81.5039 150.27 77.6211 149.309C77.7578 149.508 67.6523 146.82 67.6523 146.82L60.8438 162.52L78.6914 166.969C82.0117 167.801 85.2656 168.672 88.4688 169.492L82.793 192.281L96.4922 195.699L102.113 173.152C105.855 174.168 109.488 175.105 113.043 175.988L107.441 198.43L121.156 201.848L126.832 179.102C150.219 183.527 167.805 181.742 175.207 160.59C181.172 143.559 174.91 133.734 162.605 127.328C171.566 125.262 178.316 119.367 180.117 107.191ZM148.781 151.133C144.543 168.164 115.867 158.957 106.57 156.648L114.102 126.457C123.398 128.777 153.211 133.371 148.781 151.133ZM153.023 106.945C149.156 122.438 125.289 114.566 117.547 112.637L124.375 85.2539C132.117 87.1836 157.051 90.7852 153.023 106.945Z" fill="white"/>
<path d="M180.117 107.191C182.605 90.5586 169.941 81.6172 152.625 75.6523L158.242 53.1211L144.527 49.7031L139.059 71.6406C135.453 70.7422 131.75 69.8945 128.07 69.0547L133.578 46.9727L119.871 43.5547L114.25 66.0781C111.266 65.3984 108.336 64.7266 105.492 64.0195L105.508 63.9492L86.5937 59.2266L82.9453 73.875C82.9453 73.875 93.1211 76.207 92.9062 76.3516C98.4609 77.7383 99.4648 81.4141 99.2969 84.3281L92.8984 109.996C93.2812 110.094 93.7773 110.234 94.3242 110.453C93.8672 110.34 93.3789 110.215 92.875 110.094L83.9062 146.051C83.2266 147.738 81.5039 150.27 77.6211 149.309C77.7578 149.508 67.6523 146.82 67.6523 146.82L60.8438 162.52L78.6914 166.969C82.0117 167.801 85.2656 168.672 88.4688 169.492L82.793 192.281L96.4922 195.699L102.113 173.152C105.855 174.168 109.488 175.105 113.043 175.988L107.441 198.43L121.156 201.848L126.832 179.102C150.219 183.527 167.805 181.742 175.207 160.59C181.172 143.559 174.91 133.734 162.605 127.328C171.566 125.262 178.316 119.367 180.117 107.191ZM148.781 151.133C144.543 168.164 115.867 158.957 106.57 156.648L114.102 126.457C123.398 128.777 153.211 133.371 148.781 151.133ZM153.023 106.945C149.156 122.438 125.289 114.566 117.547 112.637L124.375 85.2539C132.117 87.1836 157.051 90.7852 153.023 106.945Z" fill="url(#paint6_linear_10617_23652)"/>
<path d="M180.117 107.191C182.605 90.5586 169.941 81.6172 152.625 75.6523L158.242 53.1211L144.527 49.7031L139.059 71.6406C135.453 70.7422 131.75 69.8945 128.07 69.0547L133.578 46.9727L119.871 43.5547L114.25 66.0781C111.266 65.3984 108.336 64.7266 105.492 64.0195L105.508 63.9492L86.5937 59.2266L82.9453 73.875C82.9453 73.875 93.1211 76.207 92.9062 76.3516C98.4609 77.7383 99.4648 81.4141 99.2969 84.3281L92.8984 109.996C93.2812 110.094 93.7773 110.234 94.3242 110.453C93.8672 110.34 93.3789 110.215 92.875 110.094L83.9062 146.051C83.2266 147.738 81.5039 150.27 77.6211 149.309C77.7578 149.508 67.6523 146.82 67.6523 146.82L60.8438 162.52L78.6914 166.969C82.0117 167.801 85.2656 168.672 88.4688 169.492L82.793 192.281L96.4922 195.699L102.113 173.152C105.855 174.168 109.488 175.105 113.043 175.988L107.441 198.43L121.156 201.848L126.832 179.102C150.219 183.527 167.805 181.742 175.207 160.59C181.172 143.559 174.91 133.734 162.605 127.328C171.566 125.262 178.316 119.367 180.117 107.191ZM148.781 151.133C144.543 168.164 115.867 158.957 106.57 156.648L114.102 126.457C123.398 128.777 153.211 133.371 148.781 151.133ZM153.023 106.945C149.156 122.438 125.289 114.566 117.547 112.637L124.375 85.2539C132.117 87.1836 157.051 90.7852 153.023 106.945Z" fill="url(#paint7_linear_10617_23652)"/>
<path d="M133.578 46.9727L128.07 69.0547C130.83 69.6846 133.603 70.3188 136.338 70.9756L139.059 71.6406L144.527 49.7031L158.242 53.1211L152.625 75.6523C169.941 81.6172 182.605 90.5586 180.117 107.191C178.316 119.367 171.566 125.262 162.605 127.328C174.91 133.734 181.172 143.559 175.207 160.59C167.805 181.742 150.219 183.527 126.832 179.102L121.156 201.848L107.441 198.43L113.043 175.988C109.488 175.105 105.855 174.168 102.113 173.152L96.4922 195.699L82.793 192.281L88.4687 169.492C85.2656 168.672 82.0117 167.801 78.6914 166.969L60.8438 162.52L67.6523 146.82C67.6523 146.82 77.7578 149.508 77.6211 149.309C81.5039 150.27 83.2266 147.738 83.9062 146.051L92.875 110.094C93.3789 110.215 93.8672 110.34 94.3242 110.453C93.7773 110.234 93.2812 110.094 92.8984 109.996L99.2969 84.3281C99.4648 81.4141 98.4609 77.7383 92.9062 76.3516C93.121 76.2071 82.9526 73.8767 82.9453 73.875L86.5937 59.2266L105.508 63.9492L105.492 64.0195C106.914 64.3731 108.357 64.7183 109.818 65.0596L114.25 66.0781L119.871 43.5547L133.578 46.9727ZM115.716 68.4629L113.806 68.0283C110.822 67.3488 107.875 66.6723 105.01 65.96L103.116 65.4902L103.132 65.417L88.0498 61.6514L85.376 72.3857C86.271 72.5942 87.373 72.8521 88.4707 73.1143C89.7317 73.4154 90.9987 73.7239 91.9414 73.9678C92.4077 74.0884 92.819 74.1996 93.1162 74.2891C93.2529 74.3302 93.4218 74.3832 93.5703 74.4424C93.5864 74.4488 93.625 74.4645 93.6777 74.4883C96.6943 75.2998 98.7248 76.7859 99.9365 78.6953C101.159 80.6223 101.393 82.7318 101.294 84.4434L101.283 84.6299L101.237 84.8115L94.8389 110.479L94.4873 110.392L94.457 110.488L94.8154 110.578L85.8467 146.535L85.8135 146.669L85.7617 146.798C85.3483 147.824 84.5623 149.263 83.1367 150.294C81.6823 151.345 79.7639 151.821 77.4209 151.312C77.3459 151.306 77.2917 151.3 77.2715 151.297C77.1278 151.278 76.9653 151.246 76.8271 151.218C76.5301 151.156 76.1201 151.061 75.6523 150.948C74.7084 150.72 73.4451 150.4 72.1885 150.076C70.9656 149.761 69.7399 149.439 68.8027 149.192L63.6172 161.149L79.1748 165.028H79.1777C82.4962 165.86 85.7982 166.744 88.9648 167.555L90.8896 168.048L85.2158 190.824L95.0352 193.274L100.667 170.688L102.637 171.223C106.363 172.234 109.983 173.167 113.525 174.047L115.469 174.53L109.866 196.973L119.699 199.423L125.349 176.785L127.204 177.137C138.83 179.337 148.668 179.913 156.426 177.526C164.002 175.195 169.806 169.969 173.319 159.93C176.191 151.731 176.021 145.564 173.925 140.776C171.817 135.962 167.608 132.188 161.682 129.103L156.872 126.598L162.156 125.379C166.333 124.416 169.877 122.591 172.583 119.688C175.288 116.786 177.285 112.668 178.139 106.898L178.14 106.896C179.286 99.2333 176.974 93.4637 172.378 88.8301C167.682 84.0963 160.534 80.4916 151.974 77.543L150.241 76.9463L155.817 54.5771L145.983 52.127L140.516 74.0645L138.575 73.5811C134.992 72.6881 131.307 71.8452 127.625 71.0049L125.636 70.5508L131.153 48.4287L121.327 45.9785L115.716 68.4629ZM114.586 124.517C119.032 125.626 129.133 127.425 137.415 131.184C141.573 133.071 145.51 135.547 148.114 138.879C150.791 142.304 151.986 146.549 150.722 151.617C149.498 156.532 146.449 159.618 142.505 161.338C138.664 163.013 134.032 163.378 129.469 163.141C120.358 162.666 110.587 159.707 106.088 158.59L104.146 158.107L112.646 124.032L114.586 124.517ZM106.57 156.648C115.867 158.957 144.543 168.164 148.781 151.133C153.211 133.371 123.398 128.777 114.102 126.457L106.57 156.648ZM124.858 83.3135C128.507 84.2229 137.032 85.6804 143.967 88.9541C147.46 90.603 150.787 92.8106 152.961 95.8447C155.198 98.9667 156.111 102.826 154.964 107.429C153.849 111.893 151.23 114.779 147.812 116.44C144.489 118.055 140.526 118.465 136.665 118.323C128.976 118.041 120.771 115.501 117.063 114.577L115.122 114.094L122.918 82.8301L124.858 83.3135ZM117.547 112.637C125.289 114.566 149.156 122.437 153.023 106.945C157.051 90.7852 132.117 87.1836 124.375 85.2539L117.547 112.637Z" fill="url(#paint8_linear_10617_23652)"/>
<defs>
<linearGradient id="paint0_linear_10617_23652" x1="125" y1="0.000488281" x2="125" y2="250.003" gradientUnits="userSpaceOnUse">
<stop stop-color="#F7BC1A"/>
<stop offset="1" stop-color="#FF6A00"/>
</linearGradient>
<linearGradient id="paint1_linear_10617_23652" x1="125" y1="0.000488281" x2="125" y2="250.003" gradientUnits="userSpaceOnUse">
<stop offset="0.725084" stop-color="#C94701" stop-opacity="0"/>
<stop offset="1" stop-color="#C94701" stop-opacity="0.3"/>
</linearGradient>
<linearGradient id="paint2_linear_10617_23652" x1="125" y1="0.000349739" x2="125" y2="250.003" gradientUnits="userSpaceOnUse">
<stop stop-color="#FFE091"/>
<stop offset="1" stop-color="#FF9735"/>
</linearGradient>
<linearGradient id="paint3_linear_10617_23652" x1="125" y1="0.000349739" x2="125" y2="250.003" gradientUnits="userSpaceOnUse">
<stop offset="0.85" stop-color="#FFA54D" stop-opacity="0"/>
<stop offset="1" stop-color="#FFA54D"/>
</linearGradient>
<linearGradient id="paint4_linear_10617_23652" x1="125" y1="0.000349739" x2="125" y2="250.003" gradientUnits="userSpaceOnUse">
<stop stop-color="#FFF3DA"/>
<stop offset="0.15" stop-color="#FFF3DA" stop-opacity="0"/>
</linearGradient>
<linearGradient id="paint5_linear_10617_23652" x1="120.637" y1="49.5547" x2="120.637" y2="207.848" gradientUnits="userSpaceOnUse">
<stop stop-color="#F89A02"/>
<stop offset="1" stop-color="#F56600"/>
</linearGradient>
<linearGradient id="paint6_linear_10617_23652" x1="120.637" y1="43.5547" x2="120.637" y2="201.848" gradientUnits="userSpaceOnUse">
<stop stop-color="white"/>
<stop offset="1" stop-color="#FFF1CF"/>
</linearGradient>
<linearGradient id="paint7_linear_10617_23652" x1="120.637" y1="43.5547" x2="120.637" y2="201.848" gradientUnits="userSpaceOnUse">
<stop stop-color="white"/>
<stop offset="1" stop-color="#FEEABD"/>
</linearGradient>
<linearGradient id="paint8_linear_10617_23652" x1="120.637" y1="43.5547" x2="120.637" y2="201.848" gradientUnits="userSpaceOnUse">
<stop stop-color="white"/>
<stop offset="1" stop-color="white"/>
</linearGradient>
</defs>
</svg>
