<svg width="250" height="250" viewBox="0 0 250 250" fill="none" xmlns="http://www.w3.org/2000/svg">
<g clip-path="url(#clip0_10638_42034)">
<path d="M125 0C194.042 0 250 55.9693 250 125C250 194.042 194.042 250 125 250C55.9693 250 0 194.036 0 125C0 55.9693 55.9693 0 125 0Z" fill="url(#paint0_linear_10638_42034)"/>
<path d="M125 0C194.042 0 250 55.9693 250 125C250 194.042 194.042 250 125 250C55.9693 250 0 194.036 0 125C0 55.9693 55.9693 0 125 0Z" fill="url(#paint1_linear_10638_42034)"/>
<path d="M245 125C245 58.7304 191.28 5 125 5C58.7307 5 5 58.7307 5 125C5 191.275 58.7306 245 125 245V250C55.9693 250 0 194.036 0 125C3.93065e-06 55.9693 55.9693 3.93167e-06 125 0C194.042 0 250 55.9693 250 125C250 194.042 194.042 250 125 250V245C191.281 245 245 191.281 245 125Z" fill="url(#paint2_linear_10638_42034)"/>
<path d="M245 125C245 58.7304 191.28 5 125 5C58.7307 5 5 58.7307 5 125C5 191.275 58.7306 245 125 245V250C55.9693 250 0 194.036 0 125C3.93065e-06 55.9693 55.9693 3.93167e-06 125 0C194.042 0 250 55.9693 250 125C250 194.042 194.042 250 125 250V245C191.281 245 245 191.281 245 125Z" fill="url(#paint3_linear_10638_42034)"/>
<path d="M245 125C245 58.7304 191.28 5 125 5C58.7307 5 5 58.7307 5 125C5 191.275 58.7306 245 125 245V250C55.9693 250 0 194.036 0 125C3.93065e-06 55.9693 55.9693 3.93167e-06 125 0C194.042 0 250 55.9693 250 125C250 194.042 194.042 250 125 250V245C191.281 245 245 191.281 245 125Z" fill="url(#paint4_linear_10638_42034)"/>
<path fill-rule="evenodd" clip-rule="evenodd" d="M70.4743 65.0508H122.201C153.664 65.0508 177.514 81.9624 186.387 106.571H202.5V121.445H189.78C190.029 123.795 190.156 126.189 190.156 128.622V128.987C190.156 131.726 189.995 134.419 189.681 137.056H202.5V151.929H186.08C176.974 176.195 153.309 192.946 122.201 192.946H70.4743V151.929H52.5V137.056H70.4743V121.445H52.5V106.571H70.4743V65.0508ZM84.935 151.929V179.603H122.201C145.197 179.603 162.283 168.52 170.236 151.929H84.935ZM174.666 137.056H84.935V121.445H174.689C175.022 123.901 175.191 126.419 175.191 128.987V129.353C175.191 131.98 175.014 134.551 174.666 137.056ZM122.201 78.3716C145.303 78.3716 162.44 89.7476 170.345 106.571H84.935V78.3716H122.201Z" fill="url(#paint5_linear_10638_42034)"/>
<path fill-rule="evenodd" clip-rule="evenodd" d="M70.4743 61.3008H122.201C153.664 61.3008 177.514 78.2124 186.387 102.821H202.5V117.695H189.78C190.029 120.045 190.156 122.439 190.156 124.872V125.237C190.156 127.976 189.995 130.669 189.681 133.306H202.5V148.179H186.08C176.974 172.445 153.309 189.196 122.201 189.196H70.4743V148.179H52.5V133.306H70.4743V117.695H52.5V102.821H70.4743V61.3008ZM84.935 148.179V175.853H122.201C145.197 175.853 162.283 164.77 170.236 148.179H84.935ZM174.666 133.306H84.935V117.695H174.689C175.022 120.151 175.191 122.669 175.191 125.237V125.603C175.191 128.23 175.014 130.801 174.666 133.306ZM122.201 74.6216C145.303 74.6216 162.44 85.9976 170.345 102.821H84.935V74.6216H122.201Z" fill="url(#paint6_linear_10638_42034)"/>
<path d="M122.201 61.3008C153.664 61.3009 177.514 78.2123 186.387 102.82H202.5V117.694H189.78C190.03 120.044 190.156 122.439 190.156 124.872V125.237C190.156 127.976 189.995 130.669 189.681 133.306H202.5V148.18H186.08C176.974 172.445 153.309 189.195 122.201 189.195H70.4746V148.18H52.5V133.306H70.4746V117.694H52.5V102.82H70.4746V61.3008H122.201ZM71.7246 104.07H53.75V116.444H71.7246V134.556H53.75V146.93H71.7246V187.945H122.201C152.834 187.945 176.003 171.476 184.91 147.74L185.214 146.93H201.25V134.556H188.272L188.439 133.157C188.748 130.57 188.906 127.927 188.906 125.237V124.872C188.906 122.483 188.782 120.132 188.537 117.826L188.391 116.444H201.25V104.07H185.509L185.211 103.245C176.535 79.1822 153.192 62.5509 122.201 62.5508H71.7246V104.07ZM171.363 148.72C163.181 165.787 145.628 177.103 122.201 177.104H83.6846V146.93H172.222L171.363 148.72ZM84.9346 175.854H122.201C145.197 175.853 162.282 164.77 170.235 148.18H84.9346V175.854ZM175.928 117.526C176.268 120.04 176.441 122.614 176.441 125.237V125.603C176.441 128.286 176.26 130.915 175.903 133.478L175.754 134.556H83.6846V116.444H175.781L175.928 117.526ZM84.9346 117.694V133.306H174.666C175.014 130.801 175.191 128.23 175.191 125.603V125.237C175.191 122.669 175.021 120.151 174.688 117.694H84.9346ZM122.201 73.3721C145.746 73.3722 163.348 84.9911 171.477 102.289L172.313 104.07H83.6846V73.3721H122.201ZM84.9346 74.6221V102.82H170.345C162.439 85.9975 145.303 74.6222 122.201 74.6221H84.9346Z" fill="white"/>
</g>
<defs>
<linearGradient id="paint0_linear_10638_42034" x1="125" y1="0" x2="125" y2="250" gradientUnits="userSpaceOnUse">
<stop stop-color="#F5AC37"/>
<stop offset="1" stop-color="#F08000"/>
</linearGradient>
<linearGradient id="paint1_linear_10638_42034" x1="125" y1="0" x2="125" y2="250" gradientUnits="userSpaceOnUse">
<stop offset="0.725084" stop-color="#A24001" stop-opacity="0"/>
<stop offset="1" stop-color="#A24001" stop-opacity="0.3"/>
</linearGradient>
<linearGradient id="paint2_linear_10638_42034" x1="125" y1="0" x2="125" y2="250" gradientUnits="userSpaceOnUse">
<stop stop-color="#FFD16E"/>
<stop offset="1" stop-color="#FFA455"/>
</linearGradient>
<linearGradient id="paint3_linear_10638_42034" x1="125" y1="0" x2="125" y2="250" gradientUnits="userSpaceOnUse">
<stop offset="0.85" stop-color="#FFB777" stop-opacity="0"/>
<stop offset="1" stop-color="#FFB777"/>
</linearGradient>
<linearGradient id="paint4_linear_10638_42034" x1="125" y1="0" x2="125" y2="250" gradientUnits="userSpaceOnUse">
<stop stop-color="#FFE5BC"/>
<stop offset="0.15" stop-color="#FFE5BC" stop-opacity="0"/>
</linearGradient>
<linearGradient id="paint5_linear_10638_42034" x1="127.5" y1="65.0508" x2="127.5" y2="192.946" gradientUnits="userSpaceOnUse">
<stop stop-color="#F1890B"/>
<stop offset="1" stop-color="#D87600"/>
</linearGradient>
<linearGradient id="paint6_linear_10638_42034" x1="127.5" y1="61.3008" x2="127.5" y2="189.196" gradientUnits="userSpaceOnUse">
<stop stop-color="white"/>
<stop offset="1" stop-color="#FFE2B4"/>
</linearGradient>
<clipPath id="clip0_10638_42034">
<rect width="250" height="250" fill="white"/>
</clipPath>
</defs>
</svg>
