<svg width="250" height="250" viewBox="0 0 250 250" fill="none" xmlns="http://www.w3.org/2000/svg">
<path d="M250 125C250 194.036 194.036 250 125 250C55.9644 250 0 194.036 0 125C0 55.9644 55.9644 0 125 0C194.036 0 250 55.9644 250 125Z" fill="url(#paint0_linear_10638_42270)"/>
<path d="M250 125C250 194.036 194.036 250 125 250C55.9644 250 0 194.036 0 125C0 55.9644 55.9644 0 125 0C194.036 0 250 55.9644 250 125Z" fill="url(#paint1_linear_10638_42270)"/>
<path d="M245 125C245 58.7258 191.274 5 125 5C58.7258 5 5 58.7258 5 125C5 191.274 58.7258 245 125 245V250C55.9644 250 0 194.036 0 125C0 55.9644 55.9644 0 125 0C194.036 0 250 55.9644 250 125C250 194.036 194.036 250 125 250V245C191.274 245 245 191.274 245 125Z" fill="url(#paint2_linear_10638_42270)"/>
<path d="M245 125C245 58.7258 191.274 5 125 5C58.7258 5 5 58.7258 5 125C5 191.274 58.7258 245 125 245V250C55.9644 250 0 194.036 0 125C0 55.9644 55.9644 0 125 0C194.036 0 250 55.9644 250 125C250 194.036 194.036 250 125 250V245C191.274 245 245 191.274 245 125Z" fill="url(#paint3_linear_10638_42270)"/>
<path d="M245 125C245 58.7258 191.274 5 125 5C58.7258 5 5 58.7258 5 125C5 191.274 58.7258 245 125 245V250C55.9644 250 0 194.036 0 125C0 55.9644 55.9644 0 125 0C194.036 0 250 55.9644 250 125C250 194.036 194.036 250 125 250V245C191.274 245 245 191.274 245 125Z" fill="url(#paint4_linear_10638_42270)"/>
<path d="M134.246 115.545H97.4163C90.8341 115.545 84.5218 118.16 79.8675 122.814C75.2132 127.469 72.598 133.781 72.598 140.363C72.598 146.946 75.2131 153.259 79.8675 157.913C84.5218 162.567 90.8342 165.183 97.4163 165.183H109.134L134.235 186.966H97.4163C86.6096 186.963 76.1398 183.206 67.7972 176.337C59.4545 169.468 53.7572 159.913 51.681 149.308C49.6047 138.702 51.2779 127.704 56.4144 118.196C61.5508 108.688 69.8312 101.26 79.8392 97.1826L50.8255 71.9658H84.0814L134.246 115.545Z" fill="url(#paint5_linear_10638_42270)"/>
<path d="M153.095 71.9658C163.902 71.9682 174.372 75.7254 182.715 82.5947C191.058 89.464 196.754 99.0186 198.83 109.624C200.907 120.23 199.233 131.227 194.097 140.735C188.961 150.243 180.68 157.672 170.672 161.749L199.709 186.954H166.453L116.266 143.387H153.095C159.677 143.387 165.99 140.772 170.645 136.117C175.299 131.463 177.914 125.15 177.914 118.568C177.914 111.986 175.299 105.673 170.645 101.019C165.99 96.3642 159.677 93.749 153.095 93.749H141.377L116.266 71.9658H153.095Z" fill="url(#paint6_linear_10638_42270)"/>
<path d="M116.266 139.387H153.095C159.677 139.387 165.99 136.772 170.645 132.118C175.299 127.463 177.914 121.15 177.914 114.568C177.914 107.986 175.299 101.673 170.645 97.0187C165.99 92.3643 159.677 89.7495 153.095 89.7495H141.377L116.266 67.9658H153.095C163.902 67.9682 174.372 71.7254 182.715 78.5947C191.058 85.464 196.754 95.0187 198.831 105.624C200.907 116.23 199.234 127.227 194.097 136.735C188.961 146.243 180.68 153.671 170.672 157.749L199.709 182.954H166.454L116.266 139.387Z" fill="url(#paint7_linear_10638_42270)"/>
<path d="M134.246 111.545H97.4164C90.834 111.545 84.5213 114.16 79.8669 118.814C75.2125 123.469 72.5977 129.781 72.5977 136.364C72.5977 142.946 75.2125 149.259 79.8669 153.913C84.5213 158.567 90.834 161.182 97.4164 161.182H109.134L134.234 182.966H97.4164C86.6095 182.963 76.1393 179.206 67.7966 172.337C59.4539 165.468 53.7572 155.913 51.681 145.308C49.6047 134.702 51.2779 123.705 56.4143 114.196C61.5508 104.688 69.8313 97.2602 79.8394 93.1829L50.8258 67.9658H84.0813L134.246 111.545Z" fill="url(#paint8_linear_10638_42270)"/>
<path d="M134.246 111.545H97.4163V109.545H128.895L83.3343 69.9658H56.1751L83.6067 93.8076L80.594 95.0352C71.0156 98.9375 63.0902 106.047 58.1741 115.146C53.2581 124.247 51.6567 134.773 53.6439 144.924C55.6311 155.074 61.084 164.218 69.0687 170.793C77.0532 177.367 87.0736 180.963 97.4163 180.966V182.966C86.6096 182.963 76.1398 179.206 67.7972 172.337C59.4545 165.468 53.7572 155.913 51.681 145.308C49.6047 134.702 51.2779 123.704 56.4144 114.196C61.5508 104.688 69.8312 97.26 79.8392 93.1826L50.8255 67.9658H84.0814L134.246 111.545ZM70.598 136.363C70.598 129.251 73.4241 122.43 78.4534 117.4C83.4828 112.371 90.3036 109.545 97.4163 109.545V111.545C90.8341 111.545 84.5218 114.16 79.8675 118.814C75.2132 123.469 72.598 129.781 72.598 136.363C72.598 142.946 75.2131 149.259 79.8675 153.913C84.5218 158.567 90.8342 161.183 97.4163 161.183H109.134L134.235 182.966H97.4163V180.966H128.879L108.387 163.183H97.4163C90.3036 163.183 83.4827 160.356 78.4534 155.327C73.424 150.298 70.598 143.476 70.598 136.363ZM153.095 67.9658C163.902 67.9682 174.372 71.7254 182.715 78.5947C191.058 85.464 196.754 95.0186 198.83 105.624C200.907 116.23 199.233 127.227 194.097 136.735C188.961 146.243 180.68 153.672 170.672 157.749L199.709 182.954H166.453L116.266 139.387H153.095C159.677 139.387 165.99 136.772 170.645 132.117C175.299 127.463 177.914 121.15 177.914 114.568C177.914 107.986 175.299 101.673 170.645 97.0186C165.99 92.3642 159.677 89.749 153.095 89.749V87.749C160.208 87.749 167.029 90.5751 172.059 95.6045C176.931 100.477 179.736 107.031 179.907 113.902L179.914 114.568C179.914 121.681 177.088 128.502 172.059 133.531C167.029 138.561 160.208 141.387 153.095 141.387H121.621L167.201 180.954H194.353L166.903 157.125L169.917 155.896C179.496 151.994 187.421 144.885 192.337 135.785C197.253 126.685 198.855 116.158 196.867 106.008C194.88 95.8576 189.428 86.7131 181.444 80.1387C173.708 73.7695 164.062 70.1957 154.063 69.9766L153.095 69.9658H121.623L142.123 87.749H153.095V89.749H141.377L116.266 67.9658H153.095Z" fill="url(#paint9_linear_10638_42270)"/>
<defs>
<linearGradient id="paint0_linear_10638_42270" x1="125" y1="0" x2="125" y2="250" gradientUnits="userSpaceOnUse">
<stop stop-color="#033DBC"/>
<stop offset="1" stop-color="#000D62"/>
</linearGradient>
<linearGradient id="paint1_linear_10638_42270" x1="125" y1="0" x2="125" y2="250" gradientUnits="userSpaceOnUse">
<stop offset="0.725084" stop-color="#000F3C" stop-opacity="0"/>
<stop offset="1" stop-color="#000F3C" stop-opacity="0.5"/>
</linearGradient>
<linearGradient id="paint2_linear_10638_42270" x1="125" y1="0" x2="125" y2="250" gradientUnits="userSpaceOnUse">
<stop stop-color="#0C52E0"/>
<stop offset="1" stop-color="#002186"/>
</linearGradient>
<linearGradient id="paint3_linear_10638_42270" x1="125" y1="0" x2="125" y2="250" gradientUnits="userSpaceOnUse">
<stop offset="0.85" stop-color="#003EFF" stop-opacity="0"/>
<stop offset="1" stop-color="#003EFF"/>
</linearGradient>
<linearGradient id="paint4_linear_10638_42270" x1="125" y1="0" x2="125" y2="250" gradientUnits="userSpaceOnUse">
<stop stop-color="#2B71FF"/>
<stop offset="0.15" stop-color="#2B71FF" stop-opacity="0"/>
</linearGradient>
<linearGradient id="paint5_linear_10638_42270" x1="125.261" y1="71.9658" x2="125.261" y2="186.966" gradientUnits="userSpaceOnUse">
<stop stop-color="#001E78"/>
<stop offset="1" stop-color="#001553"/>
</linearGradient>
<linearGradient id="paint6_linear_10638_42270" x1="125.261" y1="71.9658" x2="125.261" y2="186.966" gradientUnits="userSpaceOnUse">
<stop stop-color="#001E78"/>
<stop offset="1" stop-color="#001553"/>
</linearGradient>
<linearGradient id="paint7_linear_10638_42270" x1="157.987" y1="67.9658" x2="157.987" y2="182.954" gradientUnits="userSpaceOnUse">
<stop stop-color="#37FFC0"/>
<stop offset="1" stop-color="#03B47D"/>
</linearGradient>
<linearGradient id="paint8_linear_10638_42270" x1="92.5292" y1="67.9658" x2="92.5292" y2="182.966" gradientUnits="userSpaceOnUse">
<stop stop-color="#59B5FF"/>
<stop offset="1" stop-color="#2972FF"/>
</linearGradient>
<linearGradient id="paint9_linear_10638_42270" x1="125.261" y1="67.9658" x2="125.261" y2="182.966" gradientUnits="userSpaceOnUse">
<stop stop-color="white" stop-opacity="0.5"/>
<stop offset="1" stop-color="white" stop-opacity="0.2"/>
</linearGradient>
</defs>
</svg>
