<svg width="250" height="250" viewBox="0 0 250 250" fill="none" xmlns="http://www.w3.org/2000/svg">
<path d="M125 250C194.036 250 250 194.036 250 125C250 55.9644 194.036 0 125 0C55.9644 0 0 55.9644 0 125C0 194.036 55.9644 250 125 250Z" fill="url(#paint0_linear_10638_41982)"/>
<path d="M245 125C245 58.7258 191.275 5 125 5C58.7258 5 5 58.7258 5 125C5 191.275 58.7258 245 125 245V250C55.9644 250 0 194.036 0 125C0 55.9644 55.9644 0 125 0C194.036 0 250 55.9644 250 125C250 194.036 194.036 250 125 250V245C191.275 245 245 191.275 245 125Z" fill="url(#paint1_linear_10638_41982)"/>
<path d="M245 125C245 58.7258 191.275 5 125 5C58.7258 5 5 58.7258 5 125C5 191.275 58.7258 245 125 245V250C55.9644 250 0 194.036 0 125C0 55.9644 55.9644 0 125 0C194.036 0 250 55.9644 250 125C250 194.036 194.036 250 125 250V245C191.275 245 245 191.275 245 125Z" fill="url(#paint2_linear_10638_41982)"/>
<path d="M245 125C245 58.7258 191.275 5 125 5C58.7258 5 5 58.7258 5 125C5 191.275 58.7258 245 125 245V250C55.9644 250 0 194.036 0 125C0 55.9644 55.9644 0 125 0C194.036 0 250 55.9644 250 125C250 194.036 194.036 250 125 250V245C191.275 245 245 191.275 245 125Z" fill="url(#paint3_linear_10638_41982)"/>
<path d="M156.25 203.125H93.75V187.5H156.25V203.125Z" fill="url(#paint4_linear_10638_41982)"/>
<path d="M93.75 187.5H78.125V171.875H93.75V187.5Z" fill="url(#paint5_linear_10638_41982)"/>
<path d="M171.875 187.5H156.25V171.875H171.875V187.5Z" fill="url(#paint6_linear_10638_41982)"/>
<path d="M78.125 109.375H156.25V125H78.125V140.625H140.625V156.25H78.125V171.875H62.5V156.25H46.875V140.625H62.5V125H46.875V109.375H62.5V93.75H78.125V109.375Z" fill="url(#paint7_linear_10638_41982)"/>
<path d="M187.5 171.875H171.875V156.25H187.5V171.875Z" fill="url(#paint8_linear_10638_41982)"/>
<path d="M187.5 109.375H171.875V93.75H187.5V109.375Z" fill="url(#paint9_linear_10638_41982)"/>
<path d="M93.75 93.75H78.125V78.125H93.75V93.75Z" fill="url(#paint10_linear_10638_41982)"/>
<path d="M171.875 93.75H156.25V78.125H171.875V93.75Z" fill="url(#paint11_linear_10638_41982)"/>
<path d="M156.25 62.5V78.125H93.75V62.5H156.25Z" fill="url(#paint12_linear_10638_41982)"/>
<path d="M156.25 179.688V195.312H93.75V179.688H156.25Z" fill="url(#paint13_linear_10638_41982)"/>
<path d="M93.75 179.688H78.125V164.062H93.75V179.688Z" fill="url(#paint14_linear_10638_41982)"/>
<path d="M171.875 179.688H156.25V164.062H171.875V179.688Z" fill="url(#paint15_linear_10638_41982)"/>
<path d="M78.125 101.562H156.25V117.188H78.125V132.812H140.625V148.438H78.125V164.062H62.5V148.438H46.875V132.812H62.5V117.188H46.875V101.562H62.5V85.9375H78.125V101.562Z" fill="url(#paint16_linear_10638_41982)"/>
<path d="M187.5 164.062H171.875V148.438H187.5V164.062Z" fill="url(#paint17_linear_10638_41982)"/>
<path d="M187.5 101.562H171.875V85.9375H187.5V101.562Z" fill="url(#paint18_linear_10638_41982)"/>
<path d="M93.75 85.9375H78.125V70.3125H93.75V85.9375Z" fill="url(#paint19_linear_10638_41982)"/>
<path d="M171.875 85.9375H156.25V70.3125H171.875V85.9375Z" fill="url(#paint20_linear_10638_41982)"/>
<path d="M156.25 70.3125H93.75V54.6875H156.25V70.3125Z" fill="url(#paint21_linear_10638_41982)"/>
<path d="M156.25 179.688V195.312H93.75V179.688H156.25ZM95 194.062H155V180.938H95V194.062ZM93.75 164.062V179.688H78.125V164.062H93.75ZM171.875 164.062V179.688H156.25V164.062H171.875ZM157.5 178.438H170.625V165.312H157.5V178.438ZM79.375 178.438H92.5V165.312H79.375V178.438ZM76.875 87.1875H63.75V102.812H48.125V115.938H63.75V134.062H48.125V147.188H63.75V162.812H76.875V147.188H139.375V134.062H76.875V115.938H155V102.812H76.875V87.1875ZM187.5 148.438V164.062H171.875V148.438H187.5ZM173.125 162.812H186.25V149.688H173.125V162.812ZM187.5 85.9375V101.562H171.875V85.9375H187.5ZM173.125 100.312H186.25V87.1875H173.125V100.312ZM93.75 70.3125V85.9375H78.125V70.3125H93.75ZM171.875 70.3125V85.9375H156.25V70.3125H171.875ZM157.5 84.6875H170.625V71.5625H157.5V84.6875ZM79.375 84.6875H92.5V71.5625H79.375V84.6875ZM156.25 54.6875V70.3125H93.75V54.6875H156.25ZM95 69.0625H155V55.9375H95V69.0625ZM156.25 101.562V117.188H78.125V132.812H140.625V148.438H78.125V164.062H62.5V148.438H46.875V132.812H62.5V117.188H46.875V101.562H62.5V85.9375H78.125V101.562H156.25Z" fill="white"/>
<defs>
<linearGradient id="paint0_linear_10638_41982" x1="125" y1="250" x2="125" y2="0" gradientUnits="userSpaceOnUse">
<stop stop-color="#373E50"/>
<stop offset="1" stop-color="#9AA1BA"/>
</linearGradient>
<linearGradient id="paint1_linear_10638_41982" x1="125" y1="0" x2="125" y2="250" gradientUnits="userSpaceOnUse">
<stop stop-color="#CDD7F4"/>
<stop offset="1" stop-color="#5A6892"/>
</linearGradient>
<linearGradient id="paint2_linear_10638_41982" x1="125" y1="0" x2="125" y2="250" gradientUnits="userSpaceOnUse">
<stop offset="0.85" stop-color="#8091C5" stop-opacity="0"/>
<stop offset="1" stop-color="#8091C5"/>
</linearGradient>
<linearGradient id="paint3_linear_10638_41982" x1="125" y1="0" x2="125" y2="250" gradientUnits="userSpaceOnUse">
<stop stop-color="#EDF1FF"/>
<stop offset="0.15" stop-color="#EDF1FF" stop-opacity="0"/>
</linearGradient>
<linearGradient id="paint4_linear_10638_41982" x1="117.188" y1="62.5" x2="117.188" y2="203.125" gradientUnits="userSpaceOnUse">
<stop stop-color="#626A86"/>
<stop offset="1" stop-color="#3A4357"/>
</linearGradient>
<linearGradient id="paint5_linear_10638_41982" x1="117.188" y1="62.5" x2="117.188" y2="203.125" gradientUnits="userSpaceOnUse">
<stop stop-color="#626A86"/>
<stop offset="1" stop-color="#3A4357"/>
</linearGradient>
<linearGradient id="paint6_linear_10638_41982" x1="117.188" y1="62.5" x2="117.188" y2="203.125" gradientUnits="userSpaceOnUse">
<stop stop-color="#626A86"/>
<stop offset="1" stop-color="#3A4357"/>
</linearGradient>
<linearGradient id="paint7_linear_10638_41982" x1="117.188" y1="62.5" x2="117.188" y2="203.125" gradientUnits="userSpaceOnUse">
<stop stop-color="#626A86"/>
<stop offset="1" stop-color="#3A4357"/>
</linearGradient>
<linearGradient id="paint8_linear_10638_41982" x1="117.188" y1="62.5" x2="117.188" y2="203.125" gradientUnits="userSpaceOnUse">
<stop stop-color="#626A86"/>
<stop offset="1" stop-color="#3A4357"/>
</linearGradient>
<linearGradient id="paint9_linear_10638_41982" x1="117.188" y1="62.5" x2="117.188" y2="203.125" gradientUnits="userSpaceOnUse">
<stop stop-color="#626A86"/>
<stop offset="1" stop-color="#3A4357"/>
</linearGradient>
<linearGradient id="paint10_linear_10638_41982" x1="117.188" y1="62.5" x2="117.188" y2="203.125" gradientUnits="userSpaceOnUse">
<stop stop-color="#626A86"/>
<stop offset="1" stop-color="#3A4357"/>
</linearGradient>
<linearGradient id="paint11_linear_10638_41982" x1="117.188" y1="62.5" x2="117.188" y2="203.125" gradientUnits="userSpaceOnUse">
<stop stop-color="#626A86"/>
<stop offset="1" stop-color="#3A4357"/>
</linearGradient>
<linearGradient id="paint12_linear_10638_41982" x1="117.188" y1="62.5" x2="117.188" y2="203.125" gradientUnits="userSpaceOnUse">
<stop stop-color="#626A86"/>
<stop offset="1" stop-color="#3A4357"/>
</linearGradient>
<linearGradient id="paint13_linear_10638_41982" x1="117.188" y1="62.5" x2="117.422" y2="195.425" gradientUnits="userSpaceOnUse">
<stop stop-color="white"/>
<stop offset="0.99" stop-color="#BBC2DB"/>
</linearGradient>
<linearGradient id="paint14_linear_10638_41982" x1="117.188" y1="62.5" x2="117.422" y2="195.425" gradientUnits="userSpaceOnUse">
<stop stop-color="white"/>
<stop offset="0.99" stop-color="#BBC2DB"/>
</linearGradient>
<linearGradient id="paint15_linear_10638_41982" x1="117.188" y1="62.5" x2="117.422" y2="195.425" gradientUnits="userSpaceOnUse">
<stop stop-color="white"/>
<stop offset="0.99" stop-color="#BBC2DB"/>
</linearGradient>
<linearGradient id="paint16_linear_10638_41982" x1="117.188" y1="62.5" x2="117.422" y2="195.425" gradientUnits="userSpaceOnUse">
<stop stop-color="white"/>
<stop offset="0.99" stop-color="#BBC2DB"/>
</linearGradient>
<linearGradient id="paint17_linear_10638_41982" x1="117.188" y1="62.5" x2="117.422" y2="195.425" gradientUnits="userSpaceOnUse">
<stop stop-color="white"/>
<stop offset="0.99" stop-color="#BBC2DB"/>
</linearGradient>
<linearGradient id="paint18_linear_10638_41982" x1="117.188" y1="62.5" x2="117.422" y2="195.425" gradientUnits="userSpaceOnUse">
<stop stop-color="white"/>
<stop offset="0.99" stop-color="#BBC2DB"/>
</linearGradient>
<linearGradient id="paint19_linear_10638_41982" x1="117.188" y1="62.5" x2="117.422" y2="195.425" gradientUnits="userSpaceOnUse">
<stop stop-color="white"/>
<stop offset="0.99" stop-color="#BBC2DB"/>
</linearGradient>
<linearGradient id="paint20_linear_10638_41982" x1="117.188" y1="62.5" x2="117.422" y2="195.425" gradientUnits="userSpaceOnUse">
<stop stop-color="white"/>
<stop offset="0.99" stop-color="#BBC2DB"/>
</linearGradient>
<linearGradient id="paint21_linear_10638_41982" x1="117.188" y1="62.5" x2="117.422" y2="195.425" gradientUnits="userSpaceOnUse">
<stop stop-color="white"/>
<stop offset="0.99" stop-color="#BBC2DB"/>
</linearGradient>
</defs>
</svg>
