<svg width="250" height="250" viewBox="0 0 250 250" fill="none" xmlns="http://www.w3.org/2000/svg">
<g clip-path="url(#clip0_10638_41771)">
<circle cx="125" cy="125" r="125" fill="url(#paint0_linear_10638_41771)"/>
<circle cx="125" cy="125" r="125" fill="url(#paint1_linear_10638_41771)"/>
<circle cx="125" cy="125" r="125" fill="url(#paint2_linear_10638_41771)"/>
<path d="M245 125C245 58.7258 191.274 5 125 5C58.7258 5 5 58.7258 5 125C5 191.274 58.7258 245 125 245V250C55.9644 250 0 194.036 0 125C0 55.9644 55.9644 0 125 0C194.036 0 250 55.9644 250 125C250 194.036 194.036 250 125 250V245C191.274 245 245 191.274 245 125Z" fill="url(#paint3_linear_10638_41771)"/>
<path d="M245 125C245 58.7258 191.274 5 125 5C58.7258 5 5 58.7258 5 125C5 191.274 58.7258 245 125 245V250C55.9644 250 0 194.036 0 125C0 55.9644 55.9644 0 125 0C194.036 0 250 55.9644 250 125C250 194.036 194.036 250 125 250V245C191.274 245 245 191.274 245 125Z" fill="url(#paint4_linear_10638_41771)"/>
<path d="M245 125C245 58.7258 191.274 5 125 5C58.7258 5 5 58.7258 5 125C5 191.274 58.7258 245 125 245V250C55.9644 250 0 194.036 0 125C0 55.9644 55.9644 0 125 0C194.036 0 250 55.9644 250 125C250 194.036 194.036 250 125 250V245C191.274 245 245 191.274 245 125Z" fill="url(#paint5_linear_10638_41771)"/>
<path fill-rule="evenodd" clip-rule="evenodd" d="M121.494 61.4005C130.687 61.4005 191.563 59.4928 191.563 130.085C191.563 201.846 127.912 196.512 127.912 196.512H82.6426V136.329H66.6846V121.587H82.6416V61.4005H121.494ZM108.141 86.3742V121.585H136.239V136.328H108.141V171.536H126.876C131.691 171.536 166.396 172.079 166.342 130.571C166.288 89.0638 132.682 86.3743 126.001 86.3742H108.141Z" fill="url(#paint6_linear_10638_41771)"/>
<path fill-rule="evenodd" clip-rule="evenodd" d="M121.494 57.4005C130.687 57.4005 191.563 55.4928 191.563 126.085C191.563 197.846 127.912 192.512 127.912 192.512H82.6426V132.329H66.6846V117.587H82.6416V57.4005H121.494ZM108.141 82.3742V117.585H136.239V132.328H108.141V167.536H126.876C131.691 167.536 166.396 168.079 166.342 126.571C166.288 85.0638 132.682 82.3743 126.001 82.3742H108.141Z" fill="url(#paint7_linear_10638_41771)"/>
<path d="M121.494 57.4005C130.687 57.4005 191.563 55.4929 191.563 126.085C191.563 197.846 127.912 192.512 127.912 192.512H82.6426V132.329H66.6846V117.587H82.6416V57.4005H121.494ZM121.494 59.4005H84.6416V119.587H68.6846V130.329H84.6426V190.512H127.996L128.079 190.519H128.078C128.079 190.519 128.08 190.52 128.082 190.52C128.087 190.52 128.095 190.521 128.107 190.522C128.132 190.523 128.172 190.526 128.226 190.529C128.334 190.537 128.5 190.547 128.72 190.557C129.159 190.577 129.814 190.598 130.653 190.601C132.333 190.606 134.748 190.537 137.65 190.235C143.466 189.629 151.183 188.096 158.872 184.406C166.546 180.724 174.186 174.898 179.92 165.682C185.655 156.464 189.563 143.724 189.563 126.085C189.563 108.73 185.824 95.9837 180.193 86.6017C174.565 77.2235 166.972 71.0838 159.067 67.0529C143.18 58.9509 126.123 59.4005 121.494 59.4005ZM126.001 80.3742C129.517 80.3742 140.027 81.0682 149.728 87.2189C159.578 93.4648 168.314 105.167 168.342 126.568C168.356 137.228 166.136 145.335 162.609 151.479C159.08 157.628 154.306 161.697 149.392 164.375C140.855 169.028 131.871 169.49 128.138 169.532L126.876 169.536H106.141V130.328H134.239V119.585H106.141V80.3742H126.001ZM108.141 117.585H136.239V132.328H108.141V167.536H126.876C131.691 167.536 166.396 168.079 166.342 126.571C166.288 85.0639 132.682 82.3743 126.001 82.3742H108.141V117.585Z" fill="white"/>
</g>
<defs>
<linearGradient id="paint0_linear_10638_41771" x1="125" y1="0" x2="125" y2="250" gradientUnits="userSpaceOnUse">
<stop stop-color="white"/>
<stop offset="1" stop-color="#FFE991"/>
</linearGradient>
<linearGradient id="paint1_linear_10638_41771" x1="125" y1="0" x2="125" y2="250" gradientUnits="userSpaceOnUse">
<stop stop-color="#C2A633"/>
<stop offset="1" stop-color="#9A6A00"/>
</linearGradient>
<linearGradient id="paint2_linear_10638_41771" x1="125" y1="0" x2="125" y2="250" gradientUnits="userSpaceOnUse">
<stop offset="0.725084" stop-color="#825101" stop-opacity="0"/>
<stop offset="1" stop-color="#825101" stop-opacity="0.5"/>
</linearGradient>
<linearGradient id="paint3_linear_10638_41771" x1="125" y1="0" x2="125" y2="250" gradientUnits="userSpaceOnUse">
<stop stop-color="#E9CB57"/>
<stop offset="1" stop-color="#BD8202"/>
</linearGradient>
<linearGradient id="paint4_linear_10638_41771" x1="125" y1="0" x2="125" y2="250" gradientUnits="userSpaceOnUse">
<stop offset="0.85" stop-color="#D08E00" stop-opacity="0.12549"/>
<stop offset="1" stop-color="#D08E00"/>
</linearGradient>
<linearGradient id="paint5_linear_10638_41771" x1="125" y1="0" x2="125" y2="250" gradientUnits="userSpaceOnUse">
<stop stop-color="#FFE379"/>
<stop offset="0.15" stop-color="#FFE379" stop-opacity="0"/>
</linearGradient>
<linearGradient id="paint6_linear_10638_41771" x1="129.124" y1="61.3955" x2="129.124" y2="196.601" gradientUnits="userSpaceOnUse">
<stop stop-color="#BD8400"/>
<stop offset="1" stop-color="#8E6500"/>
</linearGradient>
<linearGradient id="paint7_linear_10638_41771" x1="129.124" y1="57.3955" x2="129.124" y2="192.601" gradientUnits="userSpaceOnUse">
<stop stop-color="white"/>
<stop offset="1" stop-color="#FFECA3"/>
</linearGradient>
<clipPath id="clip0_10638_41771">
<rect width="250" height="250" fill="white"/>
</clipPath>
</defs>
</svg>
