<svg width="250" height="250" viewBox="0 0 250 250" fill="none" xmlns="http://www.w3.org/2000/svg">
<path d="M249.998 124.999C249.998 194.035 194.035 250 125 250C55.9641 250 0 194.035 0 124.999C0 55.9641 55.9641 0 125 0C194.034 0 249.998 55.9641 249.998 124.999Z" fill="url(#paint0_linear_10638_41702)"/>
<path d="M249.998 124.999C249.998 194.035 194.035 250 125 250C55.9641 250 0 194.035 0 124.999C0 55.9641 55.9641 0 125 0C194.034 0 249.998 55.9641 249.998 124.999Z" fill="url(#paint1_linear_10638_41702)"/>
<path d="M244.998 124.999C244.998 58.7253 191.273 5 125 5C58.7255 5 5.00011 58.7254 5 124.999C5 191.274 58.7255 245 125 245V250L123.385 249.989C55.0932 249.124 0 193.496 0 124.999C0.000111329 55.9639 55.9641 0 125 0C194.034 0 249.998 55.9639 249.998 124.999C249.998 194.035 194.035 250 125 250V245C191.274 245 244.998 191.274 244.998 124.999Z" fill="url(#paint2_linear_10638_41702)"/>
<path d="M244.998 124.999C244.998 58.7253 191.273 5 125 5C58.7255 5 5.00011 58.7254 5 124.999C5 191.274 58.7255 245 125 245V250L123.385 249.989C55.0932 249.124 0 193.496 0 124.999C0.000111329 55.9639 55.9641 0 125 0C194.034 0 249.998 55.9639 249.998 124.999C249.998 194.035 194.035 250 125 250V245C191.274 245 244.998 191.274 244.998 124.999Z" fill="url(#paint3_linear_10638_41702)"/>
<path d="M244.998 124.999C244.998 58.7253 191.273 5 125 5C58.7255 5 5.00011 58.7254 5 124.999C5 191.274 58.7255 245 125 245V250L123.385 249.989C55.0932 249.124 0 193.496 0 124.999C0.000111329 55.9639 55.9641 0 125 0C194.034 0 249.998 55.9639 249.998 124.999C249.998 194.035 194.035 250 125 250V245C191.274 245 244.998 191.274 244.998 124.999Z" fill="url(#paint4_linear_10638_41702)"/>
<path d="M119.689 164.393L127.808 133.821L147.03 126.798L151.811 108.831L151.648 108.385L132.726 115.298L146.36 63.9639H107.696L89.867 130.956L74.9812 136.394L70.0625 154.917L84.9369 149.483L74.4292 188.965H177.329L183.925 164.393H119.689Z" fill="url(#paint5_linear_10638_41702)"/>
<path d="M117.689 158.393L125.808 127.821L145.03 120.798L149.811 102.831L149.648 102.385L130.726 109.298L144.36 57.9639H105.696L87.867 124.956L72.9812 130.394L68.0625 148.917L82.9369 143.483L72.4292 182.965H175.329L181.925 158.393H117.689Z" fill="url(#paint6_linear_10638_41702)"/>
<path d="M144.359 57.9639L130.727 109.298L149.648 102.385L149.812 102.831L145.03 120.798L125.808 127.82L117.688 158.393H181.925L175.328 182.965H72.4287L82.9365 143.483L68.0625 148.917L72.9814 130.394L87.8672 124.956L105.696 57.9639H144.359ZM89.5322 126.477L74.6465 131.914L70.9795 145.721L85.8574 140.287L75.0312 180.965H173.794L179.317 160.393H115.088L124.143 126.3L143.365 119.275L147.04 105.467L127.809 112.493L141.759 59.9639H107.233L89.5322 126.477Z" fill="white"/>
<defs>
<linearGradient id="paint0_linear_10638_41702" x1="124.999" y1="0" x2="124.999" y2="250" gradientUnits="userSpaceOnUse">
<stop stop-color="#1C60CA"/>
<stop offset="1" stop-color="#002394"/>
</linearGradient>
<linearGradient id="paint1_linear_10638_41702" x1="124.999" y1="0" x2="124.999" y2="250" gradientUnits="userSpaceOnUse">
<stop offset="0.725084" stop-color="#000E6C" stop-opacity="0"/>
<stop offset="1" stop-color="#000E6C" stop-opacity="0.3"/>
</linearGradient>
<linearGradient id="paint2_linear_10638_41702" x1="124.999" y1="0" x2="124.999" y2="250" gradientUnits="userSpaceOnUse">
<stop stop-color="#2974ED"/>
<stop offset="1" stop-color="#0031C9"/>
</linearGradient>
<linearGradient id="paint3_linear_10638_41702" x1="124.999" y1="0" x2="124.999" y2="250" gradientUnits="userSpaceOnUse">
<stop offset="0.85" stop-color="#0059AD" stop-opacity="0"/>
<stop offset="1" stop-color="#0059AD"/>
</linearGradient>
<linearGradient id="paint4_linear_10638_41702" x1="124.999" y1="0" x2="124.999" y2="250" gradientUnits="userSpaceOnUse">
<stop stop-color="#5294FF"/>
<stop offset="0.15" stop-color="#5294FF" stop-opacity="0"/>
</linearGradient>
<linearGradient id="paint5_linear_10638_41702" x1="126.994" y1="63.9639" x2="126.994" y2="188.965" gradientUnits="userSpaceOnUse">
<stop stop-color="#063ABA"/>
<stop offset="1" stop-color="#002A9C"/>
</linearGradient>
<linearGradient id="paint6_linear_10638_41702" x1="124.994" y1="57.9639" x2="124.994" y2="182.965" gradientUnits="userSpaceOnUse">
<stop stop-color="white"/>
<stop offset="1" stop-color="#C7DCFF"/>
</linearGradient>
</defs>
</svg>
