<svg width="250" height="250" viewBox="0 0 250 250" fill="none" xmlns="http://www.w3.org/2000/svg">
<g clip-path="url(#clip0_10638_42330)">
<path d="M125 250C194.036 250 250 194.036 250 125C250 55.9644 194.036 0 125 0C55.9644 0 0 55.9644 0 125C0 194.036 55.9644 250 125 250Z" fill="url(#paint0_linear_10638_42330)"/>
<path d="M125 250C194.036 250 250 194.036 250 125C250 55.9644 194.036 0 125 0C55.9644 0 0 55.9644 0 125C0 194.036 55.9644 250 125 250Z" fill="url(#paint1_linear_10638_42330)"/>
<path d="M245 125C245 58.7258 191.274 5 125 5C58.7258 5 5 58.7258 5 125C5 191.274 58.7258 245 125 245V250C55.9644 250 0 194.036 0 125C0 55.9644 55.9644 0 125 0C194.036 0 250 55.9644 250 125C250 194.036 194.036 250 125 250V245C191.274 245 245 191.274 245 125Z" fill="url(#paint2_linear_10638_42330)"/>
<path d="M245 125C245 58.7258 191.274 5 125 5C58.7258 5 5 58.7258 5 125C5 191.274 58.7258 245 125 245V250C55.9644 250 0 194.036 0 125C0 55.9644 55.9644 0 125 0C194.036 0 250 55.9644 250 125C250 194.036 194.036 250 125 250V245C191.274 245 245 191.274 245 125Z" fill="url(#paint3_linear_10638_42330)"/>
<path d="M245 125C245 58.7258 191.274 5 125 5C58.7258 5 5 58.7258 5 125C5 191.274 58.7258 245 125 245V250C55.9644 250 0 194.036 0 125C0 55.9644 55.9644 0 125 0C194.036 0 250 55.9644 250 125C250 194.036 194.036 250 125 250V245C191.274 245 245 191.274 245 125Z" fill="url(#paint4_linear_10638_42330)"/>
<path fill-rule="evenodd" clip-rule="evenodd" d="M125.449 117.517L168.359 51.7363H179.988L134.604 121.763H172.413V130.646H134.413L145.707 148.414H172.417V157.298H151.354L183.542 207.935H171.386L138.878 157.298H111.42L78.415 207.935H66.3594L99.0088 157.298H77.8906L77.8945 148.414H104.737L116.193 130.646H77.8945V121.763H115.81L71.0361 51.7363H83.4287L125.449 117.517ZM117.21 148.414H133.175L125.253 136.074L117.21 148.414Z" fill="url(#paint5_linear_10638_42330)"/>
<path fill-rule="evenodd" clip-rule="evenodd" d="M125.449 113.517L168.359 47.7363H179.988L134.604 117.763H172.413V126.646H134.413L145.707 144.414H172.417V153.298H151.354L183.542 203.935H171.386L138.878 153.298H111.42L78.415 203.935H66.3594L99.0088 153.298H77.8906L77.8945 144.414H104.737L116.193 126.646H77.8945V117.763H115.81L71.0361 47.7363H83.4287L125.449 113.517ZM117.21 144.414H133.175L125.253 132.074L117.21 144.414Z" fill="url(#paint6_linear_10638_42330)"/>
<path d="M125.449 113.517L168.359 47.7363H179.988L134.604 117.763H172.413V126.646H134.413L145.707 144.414H172.417V153.298H151.354L183.542 203.935H171.386L138.878 153.298H111.42L78.415 203.935H66.3594L99.0088 153.298H77.8906L77.8945 144.414H104.737L116.193 126.646H77.8945V117.763H115.81L71.0361 47.7363H83.4287L125.449 113.517ZM119.462 119.763H79.8945V124.646H119.862L105.827 146.414H79.8936L79.8916 151.298H102.678L70.0283 201.935H77.3311L110.336 151.298H139.971L172.478 201.935H179.901L147.713 151.298H170.417V146.414H144.608L130.771 124.646H170.413V119.763H130.924L176.309 49.7363H169.442L125.432 117.204L82.333 49.7363H74.6885L119.462 119.763ZM136.835 146.414H113.52L125.266 128.392L136.835 146.414ZM117.21 144.414H133.175L125.253 132.074L117.21 144.414Z" fill="white"/>
</g>
<defs>
<linearGradient id="paint0_linear_10638_42330" x1="125" y1="0" x2="125" y2="250" gradientUnits="userSpaceOnUse">
<stop stop-color="#209CE9"/>
<stop offset="1" stop-color="#007AC5"/>
</linearGradient>
<linearGradient id="paint1_linear_10638_42330" x1="125" y1="0" x2="125" y2="250" gradientUnits="userSpaceOnUse">
<stop offset="0.725084" stop-color="#003F88" stop-opacity="0"/>
<stop offset="1" stop-color="#003F88" stop-opacity="0.5"/>
</linearGradient>
<linearGradient id="paint2_linear_10638_42330" x1="125" y1="0" x2="125" y2="250" gradientUnits="userSpaceOnUse">
<stop stop-color="#5EC1FF"/>
<stop offset="1" stop-color="#009EFF"/>
</linearGradient>
<linearGradient id="paint3_linear_10638_42330" x1="125" y1="0" x2="125" y2="250" gradientUnits="userSpaceOnUse">
<stop offset="0.85" stop-color="#3AB4FF" stop-opacity="0"/>
<stop offset="1" stop-color="#3AB4FF"/>
</linearGradient>
<linearGradient id="paint4_linear_10638_42330" x1="125" y1="0" x2="125" y2="250" gradientUnits="userSpaceOnUse">
<stop stop-color="#98D8FF"/>
<stop offset="0.15" stop-color="#98D8FF" stop-opacity="0"/>
</linearGradient>
<linearGradient id="paint5_linear_10638_42330" x1="124.951" y1="51.7363" x2="124.951" y2="207.935" gradientUnits="userSpaceOnUse">
<stop stop-color="#0E86D2"/>
<stop offset="1" stop-color="#0069AE"/>
</linearGradient>
<linearGradient id="paint6_linear_10638_42330" x1="124.951" y1="47.7363" x2="124.951" y2="203.935" gradientUnits="userSpaceOnUse">
<stop stop-color="white"/>
<stop offset="1" stop-color="#A4DCFF"/>
</linearGradient>
<clipPath id="clip0_10638_42330">
<rect width="250" height="250" fill="white"/>
</clipPath>
</defs>
</svg>
