<svg width="250" height="250" viewBox="0 0 250 250" fill="none" xmlns="http://www.w3.org/2000/svg">
<g clip-path="url(#clip0_10638_42133)">
<path d="M125 250C194.271 250 250 194.271 250 125C250 55.7288 194.271 0 125 0C55.7288 0 0 55.7288 0 125C0 194.271 55.7288 250 125 250Z" fill="url(#paint0_linear_10638_42133)"/>
<path d="M125 250C194.271 250 250 194.271 250 125C250 55.7288 194.271 0 125 0C55.7288 0 0 55.7288 0 125C0 194.271 55.7288 250 125 250Z" fill="url(#paint1_linear_10638_42133)"/>
<path d="M245 125C245 58.4902 191.51 5 125 5C58.4902 5 5 58.4902 5 125C5 191.51 58.4902 245 125 245V250C55.7288 250 0 194.271 0 125C0 55.7288 55.7288 0 125 0C194.271 0 250 55.7288 250 125C250 194.271 194.271 250 125 250V245C191.51 245 245 191.51 245 125Z" fill="url(#paint2_linear_10638_42133)"/>
<path d="M245 125C245 58.4902 191.51 5 125 5C58.4902 5 5 58.4902 5 125C5 191.51 58.4902 245 125 245V250C55.7288 250 0 194.271 0 125C0 55.7288 55.7288 0 125 0C194.271 0 250 55.7288 250 125C250 194.271 194.271 250 125 250V245C191.51 245 245 191.51 245 125Z" fill="url(#paint3_linear_10638_42133)"/>
<path d="M245 125C245 58.4902 191.51 5 125 5C58.4902 5 5 58.4902 5 125C5 191.51 58.4902 245 125 245V250C55.7288 250 0 194.271 0 125C0 55.7288 55.7288 0 125 0C194.271 0 250 55.7288 250 125C250 194.271 194.271 250 125 250V245C191.51 245 245 191.51 245 125Z" fill="url(#paint4_linear_10638_42133)"/>
<path d="M161.448 63.5L119.363 87.6703V163.107L96.1427 176.568L72.7803 163.096V136.164L96.1427 122.823L111.165 131.535V109.744L96.0117 101.142L53.9375 125.585V173.937L96.1536 198.249L138.228 173.937V98.5109L161.59 85.0392L184.942 98.5109V125.323L161.59 138.915L146.437 130.126V151.808L161.448 160.465L203.938 136.295V87.6703L161.448 63.5Z" fill="url(#paint5_linear_10638_42133)"/>
<path d="M157.448 57.5L115.363 81.6703V157.107L92.1427 170.568L68.7803 157.096V130.164L92.1427 116.823L107.165 125.535V103.744L92.0117 95.1419L49.9375 119.585V167.937L92.1536 192.249L134.228 167.937V92.5109L157.59 79.0392L180.942 92.5109V119.323L157.59 132.915L142.437 124.126V145.808L157.448 154.465L199.938 130.295V81.6703L157.448 57.5Z" fill="url(#paint6_linear_10638_42133)"/>
<path d="M199.938 81.6699V130.295L157.448 154.465L142.438 145.808V124.127L157.59 132.915L180.941 119.323V92.5107L157.59 79.0391L134.228 92.5107V167.937L92.1533 192.249L49.9375 167.937V119.585L92.0117 95.1416L107.165 103.744V125.534L92.1426 116.823L68.7803 130.164V157.096L92.1426 170.567L115.363 157.106V81.6699L157.448 57.5L199.938 81.6699ZM182.941 120.474L157.592 135.228L144.438 127.598V144.652L157.455 152.16L197.938 129.131V82.833L157.453 59.8027L117.363 82.8271V158.259L92.1455 172.878L66.7803 158.252V129.003L92.1504 114.516L105.165 122.062V104.908L92.0234 97.4473L51.9375 120.736V166.779L92.1514 189.939L132.228 166.782V91.3555L157.59 76.7305L182.941 91.3555V120.474Z" fill="white"/>
</g>
<defs>
<linearGradient id="paint0_linear_10638_42133" x1="125" y1="0" x2="125" y2="250" gradientUnits="userSpaceOnUse">
<stop stop-color="#7158FF"/>
<stop offset="1" stop-color="#4A2AFF"/>
</linearGradient>
<linearGradient id="paint1_linear_10638_42133" x1="125" y1="0" x2="125" y2="250" gradientUnits="userSpaceOnUse">
<stop offset="0.725084" stop-color="#3115CD" stop-opacity="0"/>
<stop offset="1" stop-color="#3115CD" stop-opacity="0.5"/>
</linearGradient>
<linearGradient id="paint2_linear_10638_42133" x1="125" y1="0" x2="125" y2="250" gradientUnits="userSpaceOnUse">
<stop stop-color="#8570FF"/>
<stop offset="1" stop-color="#4A4DFF"/>
</linearGradient>
<linearGradient id="paint3_linear_10638_42133" x1="125" y1="0" x2="125" y2="250" gradientUnits="userSpaceOnUse">
<stop offset="0.85" stop-color="#7072FF" stop-opacity="0"/>
<stop offset="1" stop-color="#7072FF"/>
</linearGradient>
<linearGradient id="paint4_linear_10638_42133" x1="125" y1="0" x2="125" y2="250" gradientUnits="userSpaceOnUse">
<stop stop-color="#A392FF"/>
<stop offset="0.15" stop-color="#A392FF" stop-opacity="0"/>
</linearGradient>
<linearGradient id="paint5_linear_10638_42133" x1="128.938" y1="63.5" x2="128.938" y2="198.249" gradientUnits="userSpaceOnUse">
<stop stop-color="#5132FF"/>
<stop offset="1" stop-color="#4C2CFF"/>
</linearGradient>
<linearGradient id="paint6_linear_10638_42133" x1="124.938" y1="57.5" x2="124.938" y2="192.249" gradientUnits="userSpaceOnUse">
<stop stop-color="white"/>
<stop offset="1" stop-color="#B9ADFF"/>
</linearGradient>
<clipPath id="clip0_10638_42133">
<rect width="250" height="250" fill="white"/>
</clipPath>
</defs>
</svg>
