<svg width="250" height="250" viewBox="0 0 250 250" fill="none" xmlns="http://www.w3.org/2000/svg">
<path d="M250 125C250 194.036 194.036 250 125 250C55.9644 250 0 194.036 0 125C0 55.9644 55.9644 0 125 0C194.036 0 250 55.9644 250 125Z" fill="url(#paint0_linear_10638_41882)"/>
<path d="M250 125C250 194.036 194.036 250 125 250C55.9644 250 0 194.036 0 125C0 55.9644 55.9644 0 125 0C194.036 0 250 55.9644 250 125Z" fill="url(#paint1_linear_10638_41882)"/>
<path d="M245 125C245 58.7258 191.274 5 125 5C58.7258 5 5 58.7258 5 125C5 191.274 58.7258 245 125 245V250C55.9644 250 0 194.036 0 125C0 55.9644 55.9644 0 125 0C194.036 0 250 55.9644 250 125C250 194.036 194.036 250 125 250V245C191.274 245 245 191.274 245 125Z" fill="url(#paint2_linear_10638_41882)"/>
<path d="M245 125C245 58.7258 191.274 5 125 5C58.7258 5 5 58.7258 5 125C5 191.274 58.7258 245 125 245V250C55.9644 250 0 194.036 0 125C0 55.9644 55.9644 0 125 0C194.036 0 250 55.9644 250 125C250 194.036 194.036 250 125 250V245C191.274 245 245 191.274 245 125Z" fill="url(#paint3_linear_10638_41882)"/>
<path d="M245 125C245 58.7258 191.274 5 125 5C58.7258 5 5 58.7258 5 125C5 191.274 58.7258 245 125 245V250C55.9644 250 0 194.036 0 125C0 55.9644 55.9644 0 125 0C194.036 0 250 55.9644 250 125C250 194.036 194.036 250 125 250V245C191.274 245 245 191.274 245 125Z" fill="url(#paint4_linear_10638_41882)"/>
<path d="M193.292 163.555L170.593 187.27C170.1 187.785 169.503 188.196 168.84 188.477C168.176 188.757 167.46 188.902 166.737 188.902H59.1351C58.6217 188.902 58.1195 188.755 57.6901 188.481C57.2608 188.207 56.923 187.816 56.7184 187.358C56.5137 186.899 56.4511 186.392 56.5382 185.899C56.6252 185.406 56.8582 184.949 57.2085 184.583L79.9241 160.868C80.4163 160.354 81.0113 159.944 81.6726 159.664C82.3339 159.383 83.0473 159.238 83.7687 159.236H191.365C191.878 159.236 192.38 159.383 192.81 159.657C193.239 159.931 193.577 160.322 193.782 160.78C193.986 161.239 194.049 161.746 193.962 162.239C193.875 162.732 193.642 163.189 193.292 163.555ZM170.593 115.8C170.1 115.284 169.503 114.874 168.84 114.593C168.176 114.312 167.46 114.168 166.737 114.168H59.1351C58.6217 114.168 58.1195 114.314 57.6901 114.588C57.2608 114.863 56.923 115.253 56.7184 115.712C56.5137 116.171 56.4511 116.678 56.5382 117.171C56.6252 117.663 56.8582 118.121 57.2085 118.487L79.9241 142.202C80.4163 142.715 81.0113 143.125 81.6726 143.406C82.3339 143.687 83.0473 143.832 83.7687 143.833H191.365C191.878 143.833 192.38 143.687 192.81 143.413C193.239 143.138 193.577 142.748 193.782 142.289C193.986 141.831 194.049 141.324 193.962 140.831C193.875 140.338 193.642 139.88 193.292 139.515L170.593 115.8ZM59.1351 98.7649H166.737C167.46 98.7652 168.176 98.6206 168.84 98.3399C169.503 98.0592 170.1 97.6484 170.593 97.1333L193.292 73.4182C193.642 73.0525 193.875 72.5951 193.962 72.1021C194.049 71.6092 193.986 71.1022 193.782 70.6435C193.577 70.1848 193.239 69.7943 192.81 69.52C192.38 69.2458 191.878 69.0996 191.365 69.0996H83.7687C83.0473 69.1008 82.3339 69.2462 81.6726 69.5269C81.0113 69.8075 80.4163 70.2174 79.9241 70.7312L57.2144 94.4463C56.8644 94.8116 56.6315 95.2686 56.5443 95.7609C56.457 96.2533 56.5191 96.7598 56.7231 97.2184C56.927 97.6769 57.2638 98.0673 57.6923 98.342C58.1208 98.6168 58.6222 98.7637 59.1351 98.7649Z" fill="url(#paint5_linear_10638_41882)"/>
<path d="M193.292 155.555L170.593 179.27C170.1 179.785 169.503 180.196 168.84 180.477C168.176 180.757 167.46 180.902 166.737 180.902H59.1351C58.6217 180.902 58.1195 180.755 57.6901 180.481C57.2608 180.207 56.923 179.816 56.7184 179.358C56.5137 178.899 56.4511 178.392 56.5382 177.899C56.6252 177.406 56.8582 176.949 57.2085 176.583L79.9241 152.868C80.4163 152.354 81.0113 151.944 81.6726 151.664C82.3339 151.383 83.0473 151.238 83.7687 151.236H191.365C191.878 151.236 192.38 151.383 192.81 151.657C193.239 151.931 193.577 152.322 193.782 152.78C193.986 153.239 194.049 153.746 193.962 154.239C193.875 154.732 193.642 155.189 193.292 155.555ZM170.593 107.8C170.1 107.284 169.503 106.874 168.84 106.593C168.176 106.312 167.46 106.168 166.737 106.168H59.1351C58.6217 106.168 58.1195 106.314 57.6901 106.588C57.2608 106.863 56.923 107.253 56.7184 107.712C56.5137 108.171 56.4511 108.678 56.5382 109.171C56.6252 109.663 56.8582 110.121 57.2085 110.487L79.9241 134.202C80.4163 134.715 81.0113 135.125 81.6726 135.406C82.3339 135.687 83.0473 135.832 83.7687 135.833H191.365C191.878 135.833 192.38 135.687 192.81 135.413C193.239 135.138 193.577 134.748 193.782 134.289C193.986 133.831 194.049 133.324 193.962 132.831C193.875 132.338 193.642 131.88 193.292 131.515L170.593 107.8ZM59.1351 90.7649H166.737C167.46 90.7652 168.176 90.6206 168.84 90.3399C169.503 90.0592 170.1 89.6484 170.593 89.1333L193.292 65.4182C193.642 65.0525 193.875 64.5951 193.962 64.1021C194.049 63.6092 193.986 63.1022 193.782 62.6435C193.577 62.1848 193.239 61.7943 192.81 61.52C192.38 61.2458 191.878 61.0996 191.365 61.0996H83.7687C83.0473 61.1008 82.3339 61.2462 81.6726 61.5269C81.0113 61.8075 80.4163 62.2174 79.9241 62.7312L57.2144 86.4463C56.8644 86.8116 56.6315 87.2686 56.5443 87.7609C56.457 88.2533 56.5191 88.7598 56.7231 89.2184C56.927 89.6769 57.2638 90.0673 57.6923 90.342C58.1208 90.6168 58.6222 90.7637 59.1351 90.7649Z" fill="url(#paint6_linear_10638_41882)"/>
<path d="M193.292 159.555L170.593 183.27C170.1 183.785 169.503 184.196 168.84 184.477C168.176 184.757 167.46 184.902 166.737 184.902H59.1351C58.6217 184.902 58.1195 184.755 57.6901 184.481C57.2608 184.207 56.923 183.816 56.7184 183.358C56.5137 182.899 56.4511 182.392 56.5382 181.899C56.6252 181.406 56.8582 180.949 57.2085 180.583L79.9241 156.868C80.4163 156.354 81.0113 155.944 81.6726 155.664C82.3339 155.383 83.0473 155.238 83.7687 155.236H191.365C191.878 155.236 192.38 155.383 192.81 155.657C193.239 155.931 193.577 156.322 193.782 156.78C193.986 157.239 194.049 157.746 193.962 158.239C193.875 158.732 193.642 159.189 193.292 159.555ZM170.593 111.8C170.1 111.284 169.503 110.874 168.84 110.593C168.176 110.312 167.46 110.168 166.737 110.168H59.1351C58.6217 110.168 58.1195 110.314 57.6901 110.588C57.2608 110.863 56.923 111.253 56.7184 111.712C56.5137 112.171 56.4511 112.678 56.5382 113.171C56.6252 113.663 56.8582 114.121 57.2085 114.487L79.9241 138.202C80.4163 138.715 81.0113 139.125 81.6726 139.406C82.3339 139.687 83.0473 139.832 83.7687 139.833H191.365C191.878 139.833 192.38 139.687 192.81 139.413C193.239 139.138 193.577 138.748 193.782 138.289C193.986 137.831 194.049 137.324 193.962 136.831C193.875 136.338 193.642 135.88 193.292 135.515L170.593 111.8ZM59.1351 94.7649H166.737C167.46 94.7652 168.176 94.6206 168.84 94.3399C169.503 94.0592 170.1 93.6484 170.593 93.1333L193.292 69.4182C193.642 69.0525 193.875 68.5951 193.962 68.1021C194.049 67.6092 193.986 67.1022 193.782 66.6435C193.577 66.1848 193.239 65.7943 192.81 65.52C192.38 65.2458 191.878 65.0996 191.365 65.0996H83.7687C83.0473 65.1008 82.3339 65.2462 81.6726 65.5269C81.0113 65.8075 80.4163 66.2174 79.9241 66.7312L57.2144 90.4463C56.8644 90.8116 56.6315 91.2686 56.5443 91.7609C56.457 92.2533 56.5191 92.7598 56.7231 93.2184C56.927 93.6769 57.2638 94.0673 57.6923 94.342C58.1208 94.6168 58.6222 94.7637 59.1351 94.7649Z" fill="url(#paint7_linear_10638_41882)"/>
<path fill-rule="evenodd" clip-rule="evenodd" d="M166.737 110.167C167.46 110.167 168.176 110.312 168.84 110.593C169.503 110.873 170.1 111.285 170.594 111.8L193.292 135.515C193.642 135.88 193.875 136.338 193.962 136.831C194.049 137.324 193.986 137.831 193.782 138.289L193.699 138.458C193.491 138.844 193.186 139.173 192.811 139.413L192.646 139.51C192.255 139.721 191.814 139.833 191.365 139.833H83.7686C83.1374 139.832 82.5123 139.721 81.9229 139.505L81.6729 139.406C81.0944 139.161 80.5659 138.816 80.1133 138.39L79.9238 138.202L57.208 114.486C56.9018 114.166 56.6849 113.776 56.5772 113.354L56.5381 113.171C56.4619 112.74 56.5006 112.297 56.6485 111.886L56.7188 111.712C56.8978 111.311 57.1783 110.961 57.5332 110.696L57.6904 110.589C58.1196 110.315 58.6215 110.167 59.1348 110.167H166.737ZM59.1348 112.168C58.9998 112.168 58.8715 112.206 58.7666 112.273C58.6621 112.34 58.5877 112.431 58.5449 112.526C58.5025 112.622 58.4906 112.724 58.5078 112.822C58.5253 112.921 58.5732 113.02 58.6533 113.104L81.3682 136.818C81.6704 137.134 82.0394 137.389 82.4531 137.564C82.8676 137.74 83.3169 137.832 83.7715 137.833H191.365C191.499 137.833 191.627 137.794 191.732 137.728L191.806 137.674C191.873 137.616 191.924 137.546 191.957 137.472C191.998 137.377 192.009 137.275 191.992 137.179C191.975 137.08 191.927 136.981 191.847 136.897L169.148 113.183C168.846 112.867 168.476 112.61 168.061 112.435C167.645 112.259 167.194 112.168 166.738 112.168H59.1348Z" fill="url(#paint8_linear_10638_41882)"/>
<path fill-rule="evenodd" clip-rule="evenodd" d="M191.556 155.243C192.002 155.275 192.434 155.416 192.81 155.656C193.239 155.931 193.577 156.322 193.782 156.78C193.986 157.239 194.049 157.746 193.962 158.239L193.923 158.422C193.815 158.845 193.598 159.235 193.292 159.555L170.594 183.27L170.403 183.458C169.949 183.885 169.42 184.231 168.84 184.477L168.589 184.575C167.997 184.791 167.37 184.902 166.737 184.901H59.1346C58.6856 184.901 58.2449 184.79 57.8543 184.578L57.6902 184.481C57.3148 184.242 57.0092 183.912 56.8016 183.526L56.7186 183.357C56.5395 182.956 56.469 182.518 56.5125 182.084L56.5379 181.899C56.6141 181.468 56.8025 181.064 57.0828 180.725L57.2078 180.583L79.9236 156.868C80.3543 156.419 80.8639 156.048 81.4275 155.774L81.6727 155.664C82.334 155.383 83.047 155.237 83.7684 155.235H191.365L191.556 155.243ZM83.6014 157.241C83.2049 157.262 82.8162 157.351 82.4539 157.505C82.0401 157.68 81.6706 157.935 81.368 158.251L58.6522 181.967C58.5725 182.05 58.525 182.149 58.5076 182.247C58.4904 182.345 58.5023 182.448 58.5447 182.543C58.5876 182.639 58.6619 182.729 58.7664 182.796L58.8494 182.841C58.9361 182.88 59.0338 182.901 59.1346 182.901H166.738C167.194 182.902 167.645 182.811 168.06 182.635C168.476 182.459 168.845 182.203 169.148 181.887L191.846 158.172C191.926 158.089 191.974 157.99 191.992 157.891C192.009 157.794 191.998 157.693 191.957 157.599L191.918 157.525C191.873 157.455 191.81 157.392 191.732 157.342C191.627 157.275 191.499 157.236 191.365 157.236H83.7723L83.6014 157.241Z" fill="url(#paint9_linear_10638_41882)"/>
<path d="M191.557 155.243C192.003 155.275 192.435 155.416 192.811 155.656C193.239 155.931 193.577 156.322 193.782 156.78C193.986 157.239 194.049 157.746 193.962 158.239L193.923 158.422C193.815 158.845 193.598 159.235 193.292 159.555L170.594 183.27L170.403 183.458C169.949 183.886 169.42 184.231 168.84 184.477L168.589 184.575C167.997 184.791 167.37 184.902 166.737 184.902H59.1348V182.902H166.738C167.194 182.902 167.645 182.811 168.061 182.635C168.476 182.459 168.845 182.203 169.148 181.887L191.847 158.172C191.927 158.089 191.975 157.99 191.992 157.891C192.009 157.794 191.998 157.694 191.957 157.599L191.918 157.526C191.873 157.455 191.81 157.392 191.732 157.342V157.341C191.627 157.274 191.499 157.237 191.365 157.236H83.7725L83.6016 157.241C83.2051 157.262 82.8164 157.351 82.4541 157.505C82.0404 157.681 81.6709 157.935 81.3682 158.251L58.6524 181.967C58.5726 182.05 58.5253 182.149 58.5079 182.247C58.4905 182.346 58.5025 182.448 58.545 182.543C58.5878 182.639 58.662 182.729 58.7667 182.796L58.8497 182.841C58.9365 182.88 59.0339 182.902 59.1348 182.902V184.902C58.6857 184.902 58.2452 184.79 57.8545 184.578L57.6905 184.482C57.3149 184.242 57.0094 183.912 56.8018 183.527L56.7188 183.358C56.5397 182.956 56.4691 182.518 56.5128 182.084L56.5381 181.9C56.6143 181.468 56.8026 181.064 57.0831 180.725L57.2081 180.583L79.9239 156.868C80.3545 156.419 80.8641 156.048 81.4278 155.775L81.6729 155.664C82.3342 155.384 83.0473 155.238 83.7686 155.236H191.365L191.557 155.243ZM59.1348 110.168H166.737C167.46 110.168 168.176 110.312 168.84 110.593C169.503 110.874 170.1 111.285 170.594 111.8L193.292 135.515C193.642 135.881 193.875 136.338 193.962 136.831C194.049 137.324 193.986 137.831 193.782 138.289L193.699 138.458C193.491 138.844 193.186 139.173 192.811 139.413L192.645 139.51C192.255 139.721 191.814 139.833 191.365 139.833V137.833C191.499 137.833 191.627 137.795 191.732 137.728L191.806 137.674C191.873 137.616 191.924 137.546 191.957 137.472C191.998 137.377 192.009 137.276 191.992 137.179C191.975 137.08 191.927 136.981 191.847 136.898V136.897L169.148 113.183V113.182C168.845 112.866 168.476 112.61 168.061 112.435C167.645 112.259 167.194 112.168 166.738 112.168H59.1348C58.9998 112.168 58.8716 112.207 58.7667 112.274C58.662 112.34 58.5878 112.431 58.545 112.526C58.5024 112.622 58.4906 112.724 58.5079 112.822C58.5253 112.921 58.5731 113.02 58.6534 113.104H58.6524L81.3682 136.818C81.6705 137.134 82.0393 137.389 82.4532 137.565C82.8676 137.74 83.3168 137.832 83.7715 137.833H191.365V139.833H83.7686C83.1374 139.832 82.5123 139.721 81.9229 139.505L81.6729 139.406C81.0943 139.161 80.566 138.816 80.1133 138.39L79.9239 138.202L57.2081 114.486C56.9017 114.166 56.6849 113.776 56.5772 113.354L56.5381 113.171C56.4619 112.74 56.5005 112.297 56.6485 111.886L56.7188 111.712C56.8979 111.311 57.1782 110.961 57.5333 110.696L57.6905 110.589C58.1197 110.315 58.6215 110.168 59.1348 110.168ZM191.365 65.0996C191.878 65.0997 192.381 65.2463 192.811 65.5205C193.239 65.7948 193.577 66.185 193.782 66.6436C193.986 67.1023 194.049 67.6096 193.962 68.1025L193.923 68.2852C193.815 68.708 193.598 69.098 193.292 69.418L170.594 93.1329L170.403 93.3213C169.949 93.7488 169.42 94.0943 168.84 94.3399L168.589 94.4385C167.997 94.6544 167.37 94.7649 166.737 94.7647H59.1348C58.6863 94.7636 58.2463 94.6515 57.8565 94.4395L57.6924 94.3418C57.3175 94.1014 57.0127 93.7725 56.8057 93.3868L56.7227 93.2188C56.5188 92.7603 56.4567 92.2532 56.544 91.7608C56.6313 91.2686 56.8641 90.8115 57.2139 90.4463L79.9239 66.7314C80.3545 66.2819 80.8641 65.9112 81.4278 65.6377L81.6729 65.5273C82.3342 65.2467 83.0473 65.1008 83.7686 65.0996H191.365ZM83.6016 67.1045C83.2052 67.125 82.8165 67.2144 82.4541 67.3682C82.0402 67.5439 81.6709 67.7983 81.3682 68.1143L58.6592 91.8291L58.6583 91.8301C58.5787 91.9133 58.5312 92.0119 58.5137 92.1104C58.4964 92.2084 58.5085 92.3101 58.5508 92.4053C58.5934 92.501 58.6671 92.5912 58.7715 92.6583C58.8763 92.7254 59.0046 92.7643 59.1397 92.7647H166.738C167.195 92.7648 167.645 92.6738 168.061 92.4981C168.476 92.3223 168.845 92.0664 169.148 91.75L191.847 68.0352C191.927 67.9516 191.975 67.8532 191.992 67.7539C192.009 67.6574 191.998 67.5567 191.957 67.4619L191.918 67.3887C191.873 67.3183 191.811 67.2551 191.732 67.2051V67.2041C191.653 67.1541 191.562 67.1204 191.465 67.1064L191.365 67.0996H83.7725L83.6016 67.1045Z" fill="url(#paint10_linear_10638_41882)"/>
<defs>
<linearGradient id="paint0_linear_10638_41882" x1="125" y1="0" x2="125" y2="250" gradientUnits="userSpaceOnUse">
<stop stop-color="#4701AA"/>
<stop offset="1" stop-color="#19004B"/>
</linearGradient>
<linearGradient id="paint1_linear_10638_41882" x1="125" y1="0" x2="125" y2="250" gradientUnits="userSpaceOnUse">
<stop offset="0.725084" stop-color="#0C0025" stop-opacity="0"/>
<stop offset="1" stop-color="#0C0025" stop-opacity="0.5"/>
</linearGradient>
<linearGradient id="paint2_linear_10638_41882" x1="125" y1="0" x2="125" y2="250" gradientUnits="userSpaceOnUse">
<stop stop-color="#6A00FF"/>
<stop offset="1" stop-color="#004148"/>
</linearGradient>
<linearGradient id="paint3_linear_10638_41882" x1="125" y1="0" x2="125" y2="250" gradientUnits="userSpaceOnUse">
<stop offset="0.85" stop-color="#006974" stop-opacity="0"/>
<stop offset="1" stop-color="#006974"/>
</linearGradient>
<linearGradient id="paint4_linear_10638_41882" x1="125" y1="0" x2="125" y2="250" gradientUnits="userSpaceOnUse">
<stop stop-color="#9A53FF"/>
<stop offset="0.15" stop-color="#8D3CFF" stop-opacity="0"/>
</linearGradient>
<linearGradient id="paint5_linear_10638_41882" x1="125.25" y1="69.0996" x2="125.25" y2="188.902" gradientUnits="userSpaceOnUse">
<stop offset="0.179856" stop-color="#320080"/>
<stop offset="1" stop-color="#190041"/>
</linearGradient>
<linearGradient id="paint6_linear_10638_41882" x1="125.25" y1="61.0996" x2="125.25" y2="180.902" gradientUnits="userSpaceOnUse">
<stop offset="0.0856031" stop-color="#4E12A7"/>
<stop offset="1" stop-color="#330083"/>
</linearGradient>
<linearGradient id="paint7_linear_10638_41882" x1="68.1066" y1="187.757" x2="177.654" y2="60.9934" gradientUnits="userSpaceOnUse">
<stop offset="0.08" stop-color="#9945FF"/>
<stop offset="0.3" stop-color="#8752F3"/>
<stop offset="0.5" stop-color="#5497D5"/>
<stop offset="0.6" stop-color="#43B4CA"/>
<stop offset="0.72" stop-color="#28E0B9"/>
<stop offset="0.97" stop-color="#19FB9B"/>
</linearGradient>
<linearGradient id="paint8_linear_10638_41882" x1="71.0002" y1="133.999" x2="71.0002" y2="110" gradientUnits="userSpaceOnUse">
<stop stop-color="#24E7B1" stop-opacity="0"/>
<stop offset="1" stop-color="#62BDF2"/>
</linearGradient>
<linearGradient id="paint9_linear_10638_41882" x1="123" y1="183.999" x2="124" y2="159" gradientUnits="userSpaceOnUse">
<stop stop-color="#B087FF"/>
<stop offset="1" stop-color="#7070E6" stop-opacity="0"/>
</linearGradient>
<linearGradient id="paint10_linear_10638_41882" x1="125.25" y1="65.0996" x2="126" y2="104" gradientUnits="userSpaceOnUse">
<stop stop-color="#58FFBE"/>
<stop offset="1" stop-color="#24E7B1" stop-opacity="0"/>
</linearGradient>
</defs>
</svg>
