<svg width="250" height="250" viewBox="0 0 250 250" fill="none" xmlns="http://www.w3.org/2000/svg">
<g clip-path="url(#clip0_10638_41943)">
<path d="M125 250C194.036 250 250 194.036 250 125C250 55.9644 194.036 0 125 0C55.9644 0 0 55.9644 0 125C0 194.036 55.9644 250 125 250Z" fill="url(#paint0_linear_10638_41943)"/>
<path d="M125 250C194.036 250 250 194.036 250 125C250 55.9644 194.036 0 125 0C55.9644 0 0 55.9644 0 125C0 194.036 55.9644 250 125 250Z" fill="url(#paint1_linear_10638_41943)"/>
<path d="M245 125C245 58.7258 191.274 5 125 5C58.7258 5 5 58.7258 5 125C5 191.274 58.7258 245 125 245V250C55.9644 250 0 194.036 0 125C0 55.9644 55.9644 0 125 0C194.036 0 250 55.9644 250 125C250 194.036 194.036 250 125 250V245C191.274 245 245 191.274 245 125Z" fill="url(#paint2_linear_10638_41943)"/>
<path d="M245 125C245 58.7258 191.274 5 125 5C58.7258 5 5 58.7258 5 125C5 191.274 58.7258 245 125 245V250C55.9644 250 0 194.036 0 125C0 55.9644 55.9644 0 125 0C194.036 0 250 55.9644 250 125C250 194.036 194.036 250 125 250V245C191.274 245 245 191.274 245 125Z" fill="url(#paint3_linear_10638_41943)"/>
<path d="M245 125C245 58.7258 191.274 5 125 5C58.7258 5 5 58.7258 5 125C5 191.274 58.7258 245 125 245V250C55.9644 250 0 194.036 0 125C0 55.9644 55.9644 0 125 0C194.036 0 250 55.9644 250 125C250 194.036 194.036 250 125 250V245C191.274 245 245 191.274 245 125Z" fill="url(#paint4_linear_10638_41943)"/>
<path fill-rule="evenodd" clip-rule="evenodd" d="M125.158 137.684C146.655 137.684 164.621 134.05 169.011 129.194C165.283 125.075 151.799 121.831 134.674 120.944V131.203C131.608 131.362 128.421 131.44 125.155 131.44C121.889 131.44 118.702 131.362 115.63 131.203V120.944C98.5113 121.831 85.0207 125.075 81.2926 129.194C85.6894 134.05 103.658 137.684 125.155 137.684H125.158ZM163.352 89.3936V103.522H134.674V113.319C154.818 114.365 169.933 118.672 170.046 123.825V134.569C169.933 139.722 154.818 144.019 134.674 145.069V169.112H115.633V145.069C95.4894 144.022 80.3801 139.722 80.2676 134.569V123.825C80.3801 118.672 95.4894 114.365 115.633 113.319V103.522H86.9551V89.3936H163.355H163.352ZM75.6769 66.9092H176.352C178.758 66.9092 180.974 68.1748 182.174 70.2311L211.502 120.594C213.021 123.206 212.571 126.503 210.402 128.619L129.671 207.425C127.052 209.978 122.846 209.978 120.233 207.425L39.6019 128.725C37.3863 126.556 36.9676 123.165 38.6019 120.54L69.9551 70.0748C71.1769 68.1123 73.3457 66.9123 75.6801 66.9123L75.6769 66.9092Z" fill="#017159"/>
<path fill-rule="evenodd" clip-rule="evenodd" d="M125.158 130.184C146.655 130.184 164.621 126.55 169.011 121.694C165.283 117.575 151.799 114.331 134.674 113.444V123.703C131.608 123.862 128.421 123.94 125.155 123.94C121.889 123.94 118.702 123.862 115.63 123.703V113.444C98.5113 114.331 85.0207 117.575 81.2926 121.694C85.6894 126.55 103.658 130.184 125.155 130.184H125.158ZM163.352 81.8936V96.0217H134.674V105.819C154.818 106.865 169.933 111.172 170.046 116.325V127.069C169.933 132.222 154.818 136.519 134.674 137.569V161.612H115.633V137.569C95.4894 136.522 80.3801 132.222 80.2676 127.069V116.325C80.3801 111.172 95.4894 106.865 115.633 105.819V96.0217H86.9551V81.8936H163.355H163.352ZM75.6769 59.4092H176.352C178.758 59.4092 180.974 60.6748 182.174 62.7311L211.502 113.094C213.021 115.706 212.571 119.003 210.402 121.119L129.671 199.925C127.052 202.478 122.846 202.478 120.233 199.925L39.6019 121.225C37.3863 119.056 36.9676 115.665 38.6019 113.04L69.9551 62.5748C71.1769 60.6123 73.3457 59.4123 75.6801 59.4123L75.6769 59.4092Z" fill="#029D93"/>
<path fill-rule="evenodd" clip-rule="evenodd" d="M125.158 133.934C146.655 133.934 164.621 130.3 169.011 125.444C165.283 121.325 151.799 118.081 134.674 117.194V127.453C131.608 127.612 128.421 127.69 125.155 127.69C121.889 127.69 118.702 127.612 115.63 127.453V117.194C98.5113 118.081 85.0207 121.325 81.2926 125.444C85.6894 130.3 103.658 133.934 125.155 133.934H125.158ZM163.352 85.6436V99.7717H134.674V109.569C154.818 110.615 169.933 114.922 170.046 120.075V130.819C169.933 135.972 154.818 140.269 134.674 141.319V165.362H115.633V141.319C95.4894 140.272 80.3801 135.972 80.2676 130.819V120.075C80.3801 114.922 95.4894 110.615 115.633 109.569V99.7717H86.9551V85.6436H163.355H163.352ZM75.6769 63.1592H176.352C178.758 63.1592 180.974 64.4248 182.174 66.4811L211.502 116.844C213.021 119.456 212.571 122.753 210.402 124.869L129.671 203.675C127.052 206.228 122.846 206.228 120.233 203.675L39.6019 124.975C37.3863 122.806 36.9676 119.415 38.6019 116.79L69.9551 66.3248C71.1769 64.3623 73.3457 63.1623 75.6801 63.1623L75.6769 63.1592Z" fill="white"/>
<path fill-rule="evenodd" clip-rule="evenodd" d="M125.158 133.934C146.655 133.934 164.621 130.3 169.011 125.444C165.283 121.325 151.799 118.081 134.674 117.194V127.453C131.608 127.612 128.421 127.69 125.155 127.69C121.889 127.69 118.702 127.612 115.63 127.453V117.194C98.5113 118.081 85.0207 121.325 81.2926 125.444C85.6894 130.3 103.658 133.934 125.155 133.934H125.158ZM163.352 85.6436V99.7717H134.674V109.569C154.818 110.615 169.933 114.922 170.046 120.075V130.819C169.933 135.972 154.818 140.269 134.674 141.319V165.362H115.633V141.319C95.4894 140.272 80.3801 135.972 80.2676 130.819V120.075C80.3801 114.922 95.4894 110.615 115.633 109.569V99.7717H86.9551V85.6436H163.355H163.352ZM75.6769 63.1592H176.352C178.758 63.1592 180.974 64.4248 182.174 66.4811L211.502 116.844C213.021 119.456 212.571 122.753 210.402 124.869L129.671 203.675C127.052 206.228 122.846 206.228 120.233 203.675L39.6019 124.975C37.3863 122.806 36.9676 119.415 38.6019 116.79L69.9551 66.3248C71.1769 64.3623 73.3457 63.1623 75.6801 63.1623L75.6769 63.1592Z" fill="url(#paint5_linear_10638_41943)"/>
<path d="M176.352 63.1592C178.758 63.1592 180.974 64.4252 182.174 66.4814L211.502 116.844C213.021 119.456 212.571 122.753 210.403 124.868L129.671 203.675C127.052 206.228 122.846 206.228 120.234 203.675L39.6018 124.975C37.3865 122.806 36.9675 119.415 38.6018 116.79L69.9553 66.3252C71.1772 64.3628 73.3457 63.1622 75.68 63.1621L75.677 63.1592H176.352ZM78.7014 64.4121H75.68C73.7736 64.4122 72.0084 65.393 71.0169 66.9854L71.0159 66.9844L39.6643 117.45L39.6634 117.451C38.3416 119.574 38.6767 122.319 40.4768 124.081H40.4759L121.107 202.78V202.781C123.233 204.859 126.664 204.86 128.798 202.78L209.529 123.974H209.53C211.289 122.257 211.651 119.588 210.421 117.472L181.094 67.1104C180.121 65.4428 178.318 64.4092 176.352 64.4092H78.6985L78.7014 64.4121ZM163.356 85.6436H164.602V101.021H135.924V108.388C145.564 108.955 154.041 110.268 160.224 112.082C163.433 113.024 166.095 114.119 167.99 115.36C169.831 116.566 171.253 118.119 171.295 120.048L171.296 120.062V130.832L171.295 130.846C171.253 132.775 169.83 134.326 167.989 135.531C166.094 136.771 163.432 137.866 160.223 138.807C154.04 140.619 145.564 141.93 135.924 142.498V166.612H114.383V142.498C104.743 141.931 96.2688 140.62 90.0872 138.808C86.8788 137.867 84.2175 136.772 82.3235 135.531C80.4829 134.326 79.06 132.775 79.0178 130.846V120.048C79.06 118.119 80.4829 116.567 82.3235 115.361C84.2174 114.12 86.8787 113.024 90.0872 112.082C96.2689 110.268 104.743 108.955 114.383 108.388V101.021H85.7053V84.3936H163.356V85.6436ZM86.9553 85.6436V99.7715H115.633V109.568C95.4895 110.615 80.3803 114.922 80.2678 120.075V130.818C80.3803 135.971 95.4895 140.271 115.633 141.318V165.362H134.674V141.318C154.818 140.268 169.934 135.971 170.046 130.818V120.075C169.934 114.922 154.818 110.615 134.674 109.568V99.7715H163.352V85.6436H86.9553ZM134.674 117.193C151.799 118.081 165.284 121.325 169.012 125.443C164.621 130.3 146.655 133.935 125.158 133.935H125.156C103.659 133.935 85.6903 130.3 81.2932 125.443C85.0218 121.325 98.5119 118.081 115.63 117.193V127.453C118.702 127.612 121.89 127.69 125.156 127.69C128.421 127.69 131.609 127.612 134.674 127.453V117.193ZM135.924 128.64L134.739 128.701C131.65 128.862 128.441 128.94 125.156 128.94C121.87 128.94 118.661 128.862 115.566 128.701L114.38 128.64V118.516C106.41 118.991 99.3118 119.981 93.7317 121.322C90.7885 122.03 88.2925 122.829 86.3235 123.688C84.9871 124.271 83.9374 124.863 83.1624 125.442C84.1463 126.178 85.5643 126.93 87.43 127.653C89.9789 128.642 93.2334 129.534 97.052 130.283C104.686 131.78 114.471 132.685 125.156 132.685H125.158C135.843 132.685 145.626 131.78 153.259 130.283C157.077 129.534 160.33 128.642 162.878 127.653C164.743 126.93 166.16 126.179 167.143 125.443C166.368 124.863 165.318 124.271 163.982 123.688C162.013 122.828 159.518 122.03 156.574 121.322C150.995 119.981 143.897 118.991 135.924 118.516V128.64Z" fill="white"/>
</g>
<defs>
<linearGradient id="paint0_linear_10638_41943" x1="125" y1="0" x2="125" y2="250" gradientUnits="userSpaceOnUse">
<stop stop-color="#009393"/>
<stop offset="1" stop-color="#006743"/>
</linearGradient>
<linearGradient id="paint1_linear_10638_41943" x1="125" y1="0" x2="125" y2="250" gradientUnits="userSpaceOnUse">
<stop offset="0.725084" stop-color="#00573B" stop-opacity="0"/>
<stop offset="1" stop-color="#00573B" stop-opacity="0.5"/>
</linearGradient>
<linearGradient id="paint2_linear_10638_41943" x1="125" y1="0" x2="125" y2="250" gradientUnits="userSpaceOnUse">
<stop stop-color="#00BDBC"/>
<stop offset="1" stop-color="#01835A"/>
</linearGradient>
<linearGradient id="paint3_linear_10638_41943" x1="125" y1="0" x2="125" y2="250" gradientUnits="userSpaceOnUse">
<stop offset="0.85" stop-color="#009E6D" stop-opacity="0"/>
<stop offset="1" stop-color="#009E6D"/>
</linearGradient>
<linearGradient id="paint4_linear_10638_41943" x1="125" y1="0" x2="125" y2="250" gradientUnits="userSpaceOnUse">
<stop stop-color="#00DBD9"/>
<stop offset="0.15" stop-color="#00DBD9" stop-opacity="0"/>
</linearGradient>
<linearGradient id="paint5_linear_10638_41943" x1="125.002" y1="63.1592" x2="125.002" y2="205.59" gradientUnits="userSpaceOnUse">
<stop stop-color="#E8FFFF"/>
<stop offset="1" stop-color="#B7FFEA"/>
</linearGradient>
<clipPath id="clip0_10638_41943">
<rect width="250" height="250" fill="white"/>
</clipPath>
</defs>
</svg>
