<svg width="250" height="250" viewBox="0 0 250 250" fill="none" xmlns="http://www.w3.org/2000/svg">
<g clip-path="url(#clip0_10638_42157)">
<path d="M125 250C194.271 250 250 194.271 250 125C250 55.7288 194.271 0 125 0C55.7288 0 0 55.7288 0 125C0 194.271 55.7288 250 125 250Z" fill="url(#paint0_linear_10638_42157)"/>
<path d="M125 250C194.271 250 250 194.271 250 125C250 55.7288 194.271 0 125 0C55.7288 0 0 55.7288 0 125C0 194.271 55.7288 250 125 250Z" fill="url(#paint1_linear_10638_42157)"/>
<path d="M245 125C245 58.4902 191.51 5 125 5C58.4902 5 5 58.4902 5 125C5 191.51 58.4902 245 125 245V250C55.7288 250 0 194.271 0 125C0 55.7288 55.7288 0 125 0C194.271 0 250 55.7288 250 125C250 194.271 194.271 250 125 250V245C191.51 245 245 191.51 245 125Z" fill="url(#paint2_linear_10638_42157)"/>
<path d="M245 125C245 58.4902 191.51 5 125 5C58.4902 5 5 58.4902 5 125C5 191.51 58.4902 245 125 245V250C55.7288 250 0 194.271 0 125C0 55.7288 55.7288 0 125 0C194.271 0 250 55.7288 250 125C250 194.271 194.271 250 125 250V245C191.51 245 245 191.51 245 125Z" fill="url(#paint3_linear_10638_42157)"/>
<path d="M245 125C245 58.4902 191.51 5 125 5C58.4902 5 5 58.4902 5 125C5 191.51 58.4902 245 125 245V250C55.7288 250 0 194.271 0 125C0 55.7288 55.7288 0 125 0C194.271 0 250 55.7288 250 125C250 194.271 194.271 250 125 250V245C191.51 245 245 191.51 245 125Z" fill="url(#paint4_linear_10638_42157)"/>
<path d="M201.866 104.131C194.468 97.3007 184.234 86.8695 175.899 79.4715L175.406 79.1263C174.585 78.4673 173.66 77.9505 172.669 77.5973C152.571 73.849 59.0355 56.3651 57.2107 56.5871C56.6994 56.6587 56.2106 56.8441 55.7804 57.1296L55.3119 57.4995C54.7349 58.0854 54.2967 58.7932 54.0296 59.5709L53.9062 59.8915V61.6423V61.9136C64.4361 91.2343 106.013 187.285 114.2 209.824C114.693 211.353 115.63 214.263 117.381 214.411H117.776C118.713 214.411 122.708 209.134 122.708 209.134C122.708 209.134 194.123 122.528 201.348 113.305C202.283 112.169 203.109 110.947 203.814 109.655C203.994 108.645 203.909 107.605 203.568 106.637C203.226 105.669 202.64 104.806 201.866 104.131ZM141.03 114.217L171.51 88.9409L189.388 105.414L141.03 114.217ZM129.193 112.565L76.7167 69.5582L161.621 85.2173L129.193 112.565ZM133.928 123.835L187.637 115.179L126.234 189.159L133.928 123.835ZM69.59 73.849L124.804 120.703L116.814 189.208L69.59 73.849Z" fill="url(#paint5_linear_10638_42157)"/>
<path d="M201.866 100.131C194.468 93.3007 184.234 82.8695 175.899 75.4715L175.406 75.1263C174.585 74.4673 173.66 73.9505 172.669 73.5973C152.571 69.849 59.0355 52.3651 57.2107 52.5871C56.6994 52.6587 56.2106 52.8441 55.7804 53.1296L55.3119 53.4995C54.7349 54.0854 54.2967 54.7932 54.0296 55.5709L53.9062 55.8915V57.6423V57.9136C64.4361 87.2343 106.013 183.285 114.2 205.824C114.693 207.353 115.63 210.263 117.381 210.411H117.776C118.713 210.411 122.708 205.134 122.708 205.134C122.708 205.134 194.123 118.528 201.348 109.305C202.283 108.169 203.109 106.947 203.814 105.655C203.994 104.645 203.909 103.605 203.568 102.637C203.226 101.669 202.64 100.806 201.866 100.131ZM141.03 110.217L171.51 84.9409L189.388 101.414L141.03 110.217ZM129.193 108.565L76.7167 65.5582L161.621 81.2173L129.193 108.565ZM133.928 119.835L187.637 111.179L126.234 185.159L133.928 119.835ZM69.59 69.849L124.804 116.703L116.814 185.208L69.59 69.849Z" fill="white"/>
<path d="M201.866 100.131C194.468 93.3007 184.234 82.8695 175.899 75.4715L175.406 75.1263C174.585 74.4673 173.66 73.9505 172.669 73.5973C152.571 69.849 59.0355 52.3651 57.2107 52.5871C56.6994 52.6587 56.2106 52.8441 55.7804 53.1296L55.3119 53.4995C54.7349 54.0854 54.2967 54.7932 54.0296 55.5709L53.9062 55.8915V57.6423V57.9136C64.4361 87.2343 106.013 183.285 114.2 205.824C114.693 207.353 115.63 210.263 117.381 210.411H117.776C118.713 210.411 122.708 205.134 122.708 205.134C122.708 205.134 194.123 118.528 201.348 109.305C202.283 108.169 203.109 106.947 203.814 105.655C203.994 104.645 203.909 103.605 203.568 102.637C203.226 101.669 202.64 100.806 201.866 100.131ZM141.03 110.217L171.51 84.9409L189.388 101.414L141.03 110.217ZM129.193 108.565L76.7167 65.5582L161.621 81.2173L129.193 108.565ZM133.928 119.835L187.637 111.179L126.234 185.159L133.928 119.835ZM69.59 69.849L124.804 116.703L116.814 185.208L69.59 69.849Z" fill="url(#paint6_linear_10638_42157)"/>
<path d="M57.2109 52.587C59.0445 52.3668 152.572 69.8496 172.669 73.5978C173.66 73.9509 174.586 74.4672 175.406 75.1261L175.899 75.4718C184.234 82.8698 194.468 93.3012 201.866 100.132C202.64 100.806 203.227 101.669 203.568 102.637C203.91 103.605 203.994 104.645 203.814 105.655L203.544 106.137C202.901 107.251 202.167 108.311 201.349 109.305C194.128 118.522 122.802 205.019 122.708 205.134C122.708 205.134 118.712 210.411 117.775 210.411H117.381L117.22 210.389C115.572 210.083 114.678 207.306 114.2 205.824C106.013 183.285 64.4363 87.2354 53.9062 57.9142V55.8917L54.0293 55.5714C54.2965 54.7937 54.7346 54.0851 55.3115 53.4991L55.7803 53.13C56.2105 52.8445 56.6996 52.6586 57.2109 52.587ZM57.3438 54.5958C57.1965 54.6319 57.0561 54.6917 56.9268 54.7716L56.667 54.9767C56.3345 55.3346 56.0799 55.7581 55.9209 56.2208L55.9092 56.255L55.9062 56.2628V57.5626C61.2237 72.2976 74.126 103.344 86.7773 133.642C99.0977 163.147 111.186 191.956 115.67 204.026L116.08 205.142L116.104 205.21C116.359 206.003 116.663 206.93 117.071 207.673C117.212 207.928 117.341 208.114 117.449 208.243C117.479 208.215 117.512 208.188 117.544 208.156C117.982 207.728 118.522 207.124 119.066 206.481C119.604 205.845 120.117 205.205 120.497 204.722C120.687 204.481 120.842 204.28 120.949 204.141C121.003 204.071 121.044 204.016 121.072 203.98C121.086 203.961 121.097 203.948 121.104 203.939C121.107 203.934 121.11 203.931 121.111 203.929L121.112 203.927L121.138 203.894L121.164 203.861L122.708 205.134C121.2 203.891 121.165 203.862 121.165 203.86C121.166 203.86 121.167 203.859 121.168 203.858C121.17 203.855 121.173 203.851 121.178 203.846C121.186 203.835 121.199 203.82 121.216 203.799C121.25 203.757 121.301 203.694 121.369 203.612C121.504 203.448 121.706 203.205 121.968 202.887C122.493 202.25 123.264 201.315 124.247 200.122C126.214 197.736 129.032 194.317 132.436 190.186C139.243 181.923 148.395 170.809 157.773 159.407C176.544 136.587 196.18 112.658 199.773 108.071L199.789 108.053L199.804 108.034C200.584 107.086 201.279 106.071 201.885 105.004C201.942 104.43 201.874 103.849 201.682 103.302C201.455 102.66 201.066 102.087 200.553 101.64L200.53 101.621L200.51 101.601C196.788 98.1638 192.353 93.8232 187.842 89.4503C183.345 85.0914 178.762 80.6923 174.652 77.0401L174.259 76.7648L174.205 76.7267L174.153 76.6857C173.543 76.1958 172.859 75.8065 172.128 75.5304C161.928 73.6279 133.697 68.3542 107.725 63.5704C94.6637 61.1648 82.1775 58.8833 72.8438 57.2179C68.1758 56.385 64.3018 55.7076 61.541 55.2452C60.1591 55.0138 59.0659 54.8377 58.2949 54.7237C57.9075 54.6665 57.616 54.6267 57.416 54.6036C57.3892 54.6005 57.3651 54.5981 57.3438 54.5958ZM123.457 191.636L132.118 118.101L192.579 108.358L123.457 191.636ZM126.914 115.871L118.801 185.441L114.963 185.966L67.7393 70.6066L70.8838 68.3243L126.914 115.871ZM116.813 185.208L124.804 116.703L69.5898 69.8487L116.813 185.208ZM133.928 119.835L126.234 185.159L187.638 111.179L133.928 119.835ZM193.695 102.662L133.875 113.553L171.579 82.2853L193.695 102.662ZM166.146 80.0177L129.212 111.166L75.4492 67.1056L77.0791 63.5919L166.146 80.0177ZM141.03 110.218L189.388 101.414L171.51 84.9415L141.03 110.218ZM129.193 108.566L161.621 81.2169L76.7168 65.5587L129.193 108.566Z" fill="white"/>
</g>
<defs>
<linearGradient id="paint0_linear_10638_42157" x1="125" y1="0" x2="125" y2="250" gradientUnits="userSpaceOnUse">
<stop stop-color="#F9181C"/>
<stop offset="1" stop-color="#C40003"/>
</linearGradient>
<linearGradient id="paint1_linear_10638_42157" x1="125" y1="0" x2="125" y2="250" gradientUnits="userSpaceOnUse">
<stop offset="0.725084" stop-color="#850305" stop-opacity="0"/>
<stop offset="1" stop-color="#850305" stop-opacity="0.5"/>
</linearGradient>
<linearGradient id="paint2_linear_10638_42157" x1="125" y1="0" x2="125" y2="250" gradientUnits="userSpaceOnUse">
<stop stop-color="#FF6062"/>
<stop offset="1" stop-color="#FF0004"/>
</linearGradient>
<linearGradient id="paint3_linear_10638_42157" x1="125" y1="0" x2="125" y2="250" gradientUnits="userSpaceOnUse">
<stop offset="0.85" stop-color="#FF3F42" stop-opacity="0"/>
<stop offset="1" stop-color="#FF3F42"/>
</linearGradient>
<linearGradient id="paint4_linear_10638_42157" x1="125" y1="0" x2="125" y2="250" gradientUnits="userSpaceOnUse">
<stop stop-color="#FF9293"/>
<stop offset="0.15" stop-color="#FF9293" stop-opacity="0"/>
</linearGradient>
<linearGradient id="paint5_linear_10638_42157" x1="128.906" y1="56.585" x2="128.906" y2="214.411" gradientUnits="userSpaceOnUse">
<stop stop-color="#D30508"/>
<stop offset="1" stop-color="#B40003"/>
</linearGradient>
<linearGradient id="paint6_linear_10638_42157" x1="128.906" y1="52.585" x2="128.906" y2="210.411" gradientUnits="userSpaceOnUse">
<stop stop-color="white"/>
<stop offset="1" stop-color="#FFA4A6"/>
</linearGradient>
<clipPath id="clip0_10638_42157">
<rect width="250" height="250" fill="white"/>
</clipPath>
</defs>
</svg>
