<svg width="250" height="250" viewBox="0 0 250 250" fill="none" xmlns="http://www.w3.org/2000/svg">
<g clip-path="url(#clip0_10638_41914)">
<path d="M125 250C194.271 250 250 194.271 250 125C250 55.7288 194.271 0 125 0C55.7288 0 0 55.7288 0 125C0 194.271 55.7288 250 125 250Z" fill="url(#paint0_linear_10638_41914)"/>
<path d="M125 250C194.271 250 250 194.271 250 125C250 55.7288 194.271 0 125 0C55.7288 0 0 55.7288 0 125C0 194.271 55.7288 250 125 250Z" fill="url(#paint1_linear_10638_41914)"/>
<path d="M245 125C245 58.4902 191.51 5 125 5C58.4902 5 5 58.4902 5 125C5 191.51 58.4902 245 125 245V250C55.7288 250 0 194.271 0 125C0 55.7288 55.7288 0 125 0C194.271 0 250 55.7288 250 125C250 194.271 194.271 250 125 250V245C191.51 245 245 191.51 245 125Z" fill="url(#paint2_linear_10638_41914)"/>
<path d="M245 125C245 58.4902 191.51 5 125 5C58.4902 5 5 58.4902 5 125C5 191.51 58.4902 245 125 245V250C55.7288 250 0 194.271 0 125C0 55.7288 55.7288 0 125 0C194.271 0 250 55.7288 250 125C250 194.271 194.271 250 125 250V245C191.51 245 245 191.51 245 125Z" fill="url(#paint3_linear_10638_41914)"/>
<path d="M245 125C245 58.4902 191.51 5 125 5C58.4902 5 5 58.4902 5 125C5 191.51 58.4902 245 125 245V250C55.7288 250 0 194.271 0 125C0 55.7288 55.7288 0 125 0C194.271 0 250 55.7288 250 125C250 194.271 194.271 250 125 250V245C191.51 245 245 191.51 245 125Z" fill="url(#paint4_linear_10638_41914)"/>
<path fill-rule="evenodd" clip-rule="evenodd" d="M47.125 128.588C47.125 93.0719 70.6404 63.1225 102.75 53.4007V37.25C61.8124 47.2854 31.5 84.3694 31.5 128.588C31.5 172.806 61.8124 209.891 102.75 219.926V203.776C70.6404 194.132 47.125 164.104 47.125 128.588ZM158.844 146.072C158.844 127.678 142.367 124.169 128.315 121.176C117.87 118.952 108.766 117.013 108.766 109.458C108.766 103.107 113.844 99.0305 123.531 99.0305C135.094 99.0305 139.078 104.676 140.328 112.28H156.266C154.844 98.0082 146.681 88.9967 133.063 86.3122V73.7068H117.438V85.8622C102.518 87.769 93.1407 96.488 93.1407 109.458C93.1407 128.031 109.804 131.888 123.921 135.155C134.296 137.556 143.297 139.639 143.297 147.012C143.297 153.598 136.969 157.989 126.266 157.989C112.281 157.989 107.672 151.795 105.953 143.249H90.4064C91.4134 158.882 101.019 168.665 117.438 171.107V183.469H133.063V171.271C149.087 169.194 158.844 159.839 158.844 146.072ZM147.75 53.4007V37.25C188.688 47.2854 219 84.3694 219 128.588C219 172.806 188.688 209.891 147.75 219.926V203.776C179.859 194.053 203.375 164.104 203.375 128.588C203.375 93.0719 179.859 63.1225 147.75 53.4007Z" fill="url(#paint5_linear_10638_41914)"/>
<path fill-rule="evenodd" clip-rule="evenodd" d="M47.125 121.088C47.125 85.5719 70.6404 55.6225 102.75 45.9007V29.75C61.8124 39.7854 31.5 76.8694 31.5 121.088C31.5 165.306 61.8124 202.391 102.75 212.426V196.276C70.6404 186.632 47.125 156.604 47.125 121.088ZM158.844 138.572C158.844 120.178 142.367 116.669 128.315 113.676C117.87 111.452 108.766 109.513 108.766 101.958C108.766 95.6074 113.844 91.5305 123.531 91.5305C135.094 91.5305 139.078 97.1755 140.328 104.78H156.266C154.844 90.5082 146.681 81.4967 133.063 78.8122V66.2068H117.438V78.3622C102.518 80.269 93.1407 88.988 93.1407 101.958C93.1407 120.531 109.804 124.388 123.921 127.655C134.296 130.056 143.297 132.139 143.297 139.512C143.297 146.098 136.969 150.489 126.266 150.489C112.281 150.489 107.672 144.295 105.953 135.749H90.4064C91.4134 151.382 101.019 161.165 117.438 163.607V175.969H133.063V163.771C149.087 161.694 158.844 152.339 158.844 138.572ZM147.75 45.9007V29.75C188.688 39.7854 219 76.8694 219 121.088C219 165.306 188.688 202.391 147.75 212.426V196.276C179.859 186.553 203.375 156.604 203.375 121.088C203.375 85.5719 179.859 55.6225 147.75 45.9007Z" fill="#1F74DC"/>
<path fill-rule="evenodd" clip-rule="evenodd" d="M47.125 124.838C47.125 89.3219 70.6404 59.3725 102.75 49.6507V33.5C61.8124 43.5354 31.5 80.6194 31.5 124.838C31.5 169.056 61.8124 206.141 102.75 216.176V200.026C70.6404 190.382 47.125 160.354 47.125 124.838ZM158.844 142.322C158.844 123.928 142.367 120.419 128.315 117.426C117.87 115.202 108.766 113.263 108.766 105.708C108.766 99.3574 113.844 95.2805 123.531 95.2805C135.094 95.2805 139.078 100.926 140.328 108.53H156.266C154.844 94.2582 146.681 85.2467 133.063 82.5622V69.9568H117.438V82.1122C102.518 84.019 93.1407 92.738 93.1407 105.708C93.1407 124.281 109.804 128.138 123.921 131.405C134.296 133.806 143.297 135.889 143.297 143.262C143.297 149.848 136.969 154.239 126.266 154.239C112.281 154.239 107.672 148.045 105.953 139.499H90.4064C91.4134 155.132 101.019 164.915 117.438 167.357V179.719H133.063V167.521C149.087 165.444 158.844 156.089 158.844 142.322ZM147.75 49.6507V33.5C188.688 43.5354 219 80.6194 219 124.838C219 169.056 188.688 206.141 147.75 216.176V200.026C179.859 190.303 203.375 160.354 203.375 124.838C203.375 89.3219 179.859 59.3725 147.75 49.6507Z" fill="url(#paint6_linear_10638_41914)"/>
<path d="M102.75 49.6504C70.6408 59.3723 47.125 89.3219 47.125 124.838C47.125 160.354 70.6408 190.382 102.75 200.025V216.176C61.8128 206.141 31.5 169.056 31.5 124.838C31.5 80.6194 61.8128 43.5354 102.75 33.5V49.6504ZM147.75 33.5C188.688 43.5354 219 80.6194 219 124.838C219 169.056 188.688 206.141 147.75 216.176V200.025C179.859 190.303 203.375 160.354 203.375 124.838C203.375 89.3219 179.859 59.3723 147.75 49.6504V33.5ZM101.5 35.1084C61.8996 45.5539 32.75 81.7626 32.75 124.838C32.75 167.913 61.8997 204.121 101.5 214.566V200.948C69.3297 190.865 45.875 160.588 45.875 124.838C45.875 89.0849 69.3323 58.885 101.5 48.7285V35.1084ZM149 48.7285C181.168 58.885 204.625 89.0849 204.625 124.838C204.625 160.591 181.167 190.79 149 200.947V214.566C188.601 204.121 217.75 167.913 217.75 124.838C217.75 81.7627 188.601 45.554 149 35.1084V48.7285ZM133.062 69.957V82.5625C146.681 85.2471 154.844 94.2581 156.266 108.53H140.328C139.078 100.925 135.094 95.2803 123.531 95.2803C113.844 95.2803 108.766 99.3575 108.766 105.708C108.766 113.263 117.871 115.202 128.315 117.427C142.367 120.419 158.844 123.928 158.844 142.321C158.844 156.089 149.087 165.444 133.062 167.522V179.719H117.438V167.357C101.019 164.915 91.4132 155.131 90.4062 139.499H105.953C107.672 148.045 112.281 154.238 126.266 154.238C136.969 154.238 143.297 149.848 143.297 143.263C143.297 135.89 134.296 133.807 123.921 131.405C109.804 128.138 93.1407 124.281 93.1406 105.708C93.1406 92.7381 102.518 84.0192 117.438 82.1123V69.957H133.062ZM118.688 83.2129L117.596 83.3526C110.333 84.2809 104.531 86.8525 100.56 90.6631C96.6069 94.4562 94.3906 99.5481 94.3906 105.708C94.3906 110.156 95.3862 113.656 97.042 116.465C98.7006 119.279 101.063 121.47 103.897 123.235C108.903 126.353 115.252 128.078 121.523 129.563L124.203 130.188L126.121 130.633C130.572 131.675 134.809 132.755 138.051 134.348C139.92 135.266 141.546 136.394 142.708 137.86C143.89 139.352 144.547 141.139 144.547 143.263C144.547 147.018 142.716 150.137 139.481 152.265C136.29 154.364 131.766 155.488 126.266 155.488C119.101 155.488 114.125 153.902 110.706 151.03C107.549 148.378 105.883 144.764 104.947 140.749H91.7627C92.4514 147.701 94.9563 153.309 99.0381 157.503C103.384 161.968 109.615 164.93 117.621 166.12L118.688 166.279V178.469H131.812V166.423L132.901 166.282C140.716 165.269 146.887 162.496 151.091 158.409C155.277 154.339 157.594 148.888 157.594 142.321C157.594 137.917 156.61 134.476 154.976 131.732C153.339 128.984 151.006 126.863 148.202 125.169C142.541 121.748 135.133 120.157 128.055 118.649C122.884 117.548 117.83 116.479 114.086 114.694C112.196 113.794 110.55 112.671 109.373 111.191C108.177 109.687 107.516 107.873 107.516 105.708C107.516 102.158 108.957 99.1656 111.778 97.1035C114.549 95.0782 118.536 94.0303 123.531 94.0303C129.511 94.0303 133.739 95.493 136.638 98.1289C139.268 100.52 140.651 103.742 141.367 107.28H154.86C154.015 100.992 151.77 95.8969 148.308 92.0352C144.597 87.8975 139.411 85.0872 132.821 83.7881L131.812 83.5899V71.207H118.688V83.2129Z" fill="white"/>
</g>
<defs>
<linearGradient id="paint0_linear_10638_41914" x1="125" y1="0" x2="125" y2="250" gradientUnits="userSpaceOnUse">
<stop stop-color="#2775CA"/>
<stop offset="1" stop-color="#0041CD"/>
</linearGradient>
<linearGradient id="paint1_linear_10638_41914" x1="125" y1="0" x2="125" y2="250" gradientUnits="userSpaceOnUse">
<stop offset="0.725084" stop-color="#012267" stop-opacity="0"/>
<stop offset="1" stop-color="#012267" stop-opacity="0.3"/>
</linearGradient>
<linearGradient id="paint2_linear_10638_41914" x1="125" y1="0" x2="125" y2="250" gradientUnits="userSpaceOnUse">
<stop stop-color="#469DFF"/>
<stop offset="1" stop-color="#0053FF"/>
</linearGradient>
<linearGradient id="paint3_linear_10638_41914" x1="125" y1="0" x2="125" y2="250" gradientUnits="userSpaceOnUse">
<stop offset="0.85" stop-color="#4380FF" stop-opacity="0"/>
<stop offset="1" stop-color="#4380FF"/>
</linearGradient>
<linearGradient id="paint4_linear_10638_41914" x1="125" y1="0" x2="125" y2="250" gradientUnits="userSpaceOnUse">
<stop stop-color="#7EBAFF"/>
<stop offset="0.15" stop-color="#7EBAFF" stop-opacity="0"/>
</linearGradient>
<linearGradient id="paint5_linear_10638_41914" x1="125.25" y1="37.25" x2="125.25" y2="219.926" gradientUnits="userSpaceOnUse">
<stop stop-color="#0544BE"/>
<stop offset="1" stop-color="#00339C"/>
</linearGradient>
<linearGradient id="paint6_linear_10638_41914" x1="125.25" y1="33.5" x2="125.25" y2="216.176" gradientUnits="userSpaceOnUse">
<stop stop-color="#EDEDED"/>
<stop offset="1" stop-color="#B1D5FF"/>
</linearGradient>
<clipPath id="clip0_10638_41914">
<rect width="250" height="250" fill="white"/>
</clipPath>
</defs>
</svg>
