<svg width="250" height="250" viewBox="0 0 250 250" fill="none" xmlns="http://www.w3.org/2000/svg">
<g clip-path="url(#clip0_10638_42072)">
<path d="M124.955 0.000976562C193.992 0.000976562 249.913 55.9218 249.913 124.959C249.913 193.93 193.992 249.915 124.955 249.915C55.9189 249.915 -0.00195312 193.93 -0.00195312 124.959C-0.00195312 55.9218 55.9189 0.000976562 124.955 0.000976562Z" fill="#111111"/>
<path d="M125.04 0.0810547C56.0256 0.0810547 0.0830078 56.0237 0.0830078 125.038C0.0830078 194.054 56.0256 249.997 125.04 249.997C194.055 249.997 249.998 194.054 249.998 125.038C249.998 56.0237 194.055 0.0810547 125.04 0.0810547Z" fill="url(#paint0_radial_10638_42072)" fill-opacity="0.7"/>
<path d="M245 125.039C245 58.7845 191.295 5.07944 125.041 5.07935C58.7863 5.07935 5.08131 58.7844 5.08131 125.039C5.08145 191.294 58.7864 244.999 125.041 244.999V249.997L123.425 249.986C55.6922 249.128 0.950527 194.387 0.0927701 126.653L0.0830078 125.039C0.0830078 56.0239 56.0258 0.0810547 125.041 0.0810547L126.655 0.090817C194.926 0.955342 249.998 56.563 249.998 125.039L249.988 126.653C249.124 194.925 193.516 249.997 125.041 249.997V244.999C191.295 244.999 245 191.294 245 125.039Z" fill="url(#paint1_linear_10638_42072)"/>
<path d="M105.044 31.9928C62.1107 41.1564 29.9421 79.2845 29.942 124.91C29.942 170.536 62.1107 208.664 105.044 217.827V227.632C56.7919 218.34 20.3301 175.854 20.3301 124.91C20.3302 73.9658 56.792 31.4803 105.044 22.1885V31.9928Z" fill="url(#paint2_linear_10638_42072)"/>
<path d="M145.032 22.2529C193.22 31.609 229.555 74.0299 229.555 124.91C229.555 175.79 193.22 218.212 145.032 227.568V217.763C187.838 208.536 219.942 170.472 219.942 124.91C219.942 79.3487 187.838 41.285 145.032 32.0572V22.2529Z" fill="url(#paint3_linear_10638_42072)"/>
<path d="M130.548 66.6607H134.074C142.788 66.6607 149.773 69.4806 155.092 75.1197C160.41 80.6306 163.102 88.0001 163.102 97.0995H152.08C152.08 91.1401 150.414 86.3336 147.145 82.745C143.877 79.1567 139.52 77.3622 134.074 77.3621H116.707C110.876 77.3621 106.198 78.7718 102.738 81.5911C99.278 84.2824 97.5471 87.9995 97.547 92.6772V101.457C97.5471 105.237 98.8288 108.441 101.391 111.068C104.083 113.696 107.672 115.426 112.286 116.26L139.84 121.45C147.851 122.988 154.003 125.936 158.425 130.229C162.846 134.458 165.024 139.906 165.024 146.506V156.95C165.024 164.897 162.141 171.305 156.438 176.175C150.735 180.981 143.173 183.352 133.881 183.352H130.676V199.949H119.656V183.352H116.258C110.107 183.352 104.724 182.007 99.9817 179.251C95.3041 176.432 91.5873 172.521 88.9601 167.524C86.397 162.397 85.1157 156.566 85.1157 149.902H96.1373C96.1373 156.63 97.9958 162.141 101.648 166.371C105.429 170.472 110.427 172.587 116.515 172.587H133.56C139.584 172.587 144.454 171.176 148.17 168.357C151.824 165.409 153.682 161.628 153.682 156.95V146.506C153.682 142.79 152.273 139.65 149.518 137.022C146.825 134.394 143.173 132.727 138.495 131.959L110.876 127.088C103.122 125.679 97.0345 122.732 92.741 118.31C88.4476 113.824 86.2696 108.249 86.2696 101.521V92.7416C86.2696 84.7957 89.0245 78.5159 94.5353 73.8379C100.174 69.0319 107.608 66.6607 116.772 66.6607H119.527V50.0638H130.548V66.6607Z" fill="url(#paint4_linear_10638_42072)"/>
<path d="M28.4484 123.826C28.949 78.3795 60.868 40.4631 103.545 30.7881V24.0218C57.2423 33.7939 22.3852 74.6734 21.8364 123.735L21.8296 124.91C21.8296 174.493 56.873 215.948 103.545 225.798V219.031C60.529 209.28 28.4426 170.837 28.4426 124.91L28.4484 123.826ZM228.055 124.91C228.055 75.3913 193.137 34.0003 146.531 24.0892V30.8545C189.081 40.5913 220.936 78.4442 221.436 123.827L221.441 124.91C221.441 170.773 189.419 209.151 146.531 218.964V225.731C193.137 215.819 228.055 174.429 228.055 124.91ZM119.656 183.352H116.258V181.853H121.155V198.45H129.177V181.853H133.881V183.352H130.676V199.949H119.656V183.352ZM163.525 156.95V146.506C163.525 140.271 161.483 135.23 157.388 131.313L157.38 131.305C153.221 127.266 147.362 124.42 139.557 122.922V122.921L112.02 117.735V117.736C107.176 116.861 103.292 115.019 100.344 112.141L100.319 112.116C97.4737 109.2 96.0476 105.616 96.0475 101.457V92.6772C96.0476 87.5881 97.9534 83.4257 101.791 80.4284L102.151 80.1434C105.909 77.2411 110.83 75.8626 116.707 75.8626V77.3621C110.876 77.3621 106.198 78.7718 102.738 81.5911C99.278 84.2824 97.5471 87.9995 97.547 92.6772V101.457C97.5471 105.237 98.8288 108.441 101.391 111.068C104.083 113.696 107.672 115.426 112.286 116.26L139.84 121.45C147.851 122.988 154.003 125.936 158.425 130.229C162.846 134.458 165.024 139.906 165.024 146.506V156.95C165.024 164.897 162.141 171.305 156.438 176.175C150.735 180.981 143.173 183.352 133.881 183.352V181.853C142.917 181.853 150.105 179.551 155.472 175.028C160.817 170.459 163.525 164.48 163.525 156.95ZM129.049 51.5633H121.026V68.1602H116.772C107.871 68.1602 100.812 70.4585 95.5077 74.9791L95.5057 74.9811C90.5255 79.2086 87.934 84.825 87.7769 92.0388L87.7691 92.7416V101.521C87.7691 107.89 89.817 113.086 93.8246 117.273C97.8447 121.409 103.613 124.242 111.136 125.611L138.756 130.482H138.755C143.645 131.288 147.603 133.058 150.565 135.949H150.564C153.59 138.84 155.182 142.361 155.182 146.506V156.95C155.182 162.095 153.108 166.299 149.112 169.523L149.095 169.538L149.076 169.551C145.032 172.62 139.815 174.086 133.56 174.086H116.515C110.044 174.086 104.634 171.821 100.546 167.387L100.529 167.37L100.513 167.351C96.8653 163.126 94.9294 157.758 94.6691 151.401H86.6405C86.8188 157.226 88.0431 162.325 90.2877 166.826L90.525 167.269C93.0088 171.812 96.452 175.372 100.755 177.966C105.234 180.563 110.344 181.853 116.258 181.853V183.352C110.107 183.352 104.724 182.007 99.9817 179.251C95.3041 176.432 91.5873 172.521 88.9601 167.524C86.397 162.397 85.1157 156.566 85.1157 149.902H96.1373C96.1373 156.63 97.9958 162.141 101.648 166.371C105.429 170.472 110.427 172.587 116.515 172.587H133.56C139.584 172.587 144.454 171.176 148.17 168.357C151.824 165.409 153.682 161.628 153.682 156.95V146.506C153.682 142.79 152.273 139.65 149.518 137.022C146.825 134.394 143.173 132.727 138.495 131.959L110.876 127.088C103.122 125.679 97.0345 122.732 92.741 118.31C88.4476 113.824 86.2696 108.249 86.2696 101.521V92.7416C86.2696 84.7957 89.0245 78.5159 94.5353 73.8379C100.174 69.0319 107.608 66.6607 116.772 66.6607H119.527V50.0638H130.548V66.6607H134.074C142.788 66.6607 149.773 69.4806 155.092 75.1197C160.41 80.6306 163.102 88.0001 163.102 97.0995H152.08C152.08 91.1401 150.414 86.3336 147.145 82.745C143.877 79.1567 139.52 77.3622 134.074 77.3621V75.8626C139.885 75.8627 144.666 77.7954 148.254 81.7356C151.536 85.3389 153.282 90.017 153.544 95.6001H161.576C161.296 87.5154 158.725 81.0437 154.013 76.1613L154.007 76.1545L154.001 76.1487C149.157 71.0131 142.839 68.3306 134.852 68.168L134.074 68.1602H129.049V51.5633ZM134.074 75.8626V77.3621H116.707V75.8626H134.074ZM29.942 124.91C29.942 170.536 62.1107 208.664 105.044 217.827V227.632C56.7919 218.34 20.3301 175.854 20.3301 124.91C20.3302 73.9658 56.792 31.4803 105.044 22.1885V31.9928C62.1107 41.1564 29.9421 79.2845 29.942 124.91ZM229.555 124.91C229.555 175.79 193.22 218.212 145.032 227.568V217.763C187.838 208.536 219.942 170.472 219.942 124.91C219.942 79.3487 187.838 41.285 145.032 32.0572V22.2529C193.22 31.609 229.555 74.0299 229.555 124.91Z" fill="white"/>
</g>
<defs>
<radialGradient id="paint0_radial_10638_42072" cx="0" cy="0" r="1" gradientUnits="userSpaceOnUse" gradientTransform="translate(125.287 36.5457) rotate(90) scale(263.469 185.456)">
<stop offset="0.03125" stop-color="#3A3A3A"/>
<stop offset="1" stop-color="#1C1C1C"/>
</radialGradient>
<linearGradient id="paint1_linear_10638_42072" x1="125.024" y1="-2.22586" x2="125.024" y2="252.271" gradientUnits="userSpaceOnUse">
<stop stop-color="white"/>
<stop offset="1" stop-color="#111111"/>
</linearGradient>
<linearGradient id="paint2_linear_10638_42072" x1="124.942" y1="22.1885" x2="124.942" y2="227.632" gradientUnits="userSpaceOnUse">
<stop stop-color="white"/>
<stop offset="1" stop-color="#B2B2B2"/>
</linearGradient>
<linearGradient id="paint3_linear_10638_42072" x1="124.942" y1="22.1885" x2="124.942" y2="227.632" gradientUnits="userSpaceOnUse">
<stop stop-color="white"/>
<stop offset="1" stop-color="#B2B2B2"/>
</linearGradient>
<linearGradient id="paint4_linear_10638_42072" x1="124.942" y1="22.1885" x2="124.942" y2="227.632" gradientUnits="userSpaceOnUse">
<stop stop-color="white"/>
<stop offset="1" stop-color="#B2B2B2"/>
</linearGradient>
<clipPath id="clip0_10638_42072">
<rect width="250" height="250" fill="white"/>
</clipPath>
</defs>
</svg>
