<svg width="250" height="250" viewBox="0 0 250 250" fill="none" xmlns="http://www.w3.org/2000/svg">
<g clip-path="url(#clip0_10638_42408)">
<path d="M125 250C194.271 250 250 194.271 250 125C250 55.7288 194.271 0 125 0C55.7288 0 0 55.7288 0 125C0 194.271 55.7288 250 125 250Z" fill="url(#paint0_linear_10638_42408)"/>
<path d="M245 125C245 58.4902 191.51 5 125 5C58.4902 5 5 58.4902 5 125C5 191.51 58.4902 245 125 245V250C55.7288 250 0 194.271 0 125C0 55.7288 55.7288 0 125 0C194.271 0 250 55.7288 250 125C250 194.271 194.271 250 125 250V245C191.51 245 245 191.51 245 125Z" fill="url(#paint1_linear_10638_42408)"/>
<path d="M245 125C245 58.4902 191.51 5 125 5C58.4902 5 5 58.4902 5 125C5 191.51 58.4902 245 125 245V250C55.7288 250 0 194.271 0 125C0 55.7288 55.7288 0 125 0C194.271 0 250 55.7288 250 125C250 194.271 194.271 250 125 250V245C191.51 245 245 191.51 245 125Z" fill="url(#paint2_linear_10638_42408)"/>
<path d="M245 125C245 58.4902 191.51 5 125 5C58.4902 5 5 58.4902 5 125C5 191.51 58.4902 245 125 245V250C55.7288 250 0 194.271 0 125C0 55.7288 55.7288 0 125 0C194.271 0 250 55.7288 250 125C250 194.271 194.271 250 125 250V245C191.51 245 245 191.51 245 125Z" fill="url(#paint3_linear_10638_42408)"/>
<path fill-rule="evenodd" clip-rule="evenodd" d="M155.153 54C161.035 53.9999 165.984 53.9999 170.035 54.3369C174.273 54.6895 178.309 55.4559 182.144 57.4453C187.984 60.4756 192.732 65.3106 195.708 71.2578C197.661 75.1621 198.414 79.2728 198.76 83.5879C199.091 87.7133 199.091 92.7533 199.091 98.7432V115.329C199.091 121.319 199.091 126.359 198.76 130.484C198.414 134.799 197.661 138.91 195.708 142.814C192.732 148.762 187.984 153.597 182.144 156.627C178.309 158.616 174.273 159.383 170.035 159.735C165.986 160.072 161.041 160.071 155.163 160.071V160.403C155.163 165.866 155.163 170.462 154.887 174.234C154.598 178.176 153.97 181.943 152.336 185.571C149.238 192.449 143.82 197.966 137.066 201.121C133.504 202.786 129.804 203.425 125.934 203.719C122.229 204 117.715 204 112.352 204H94.9375C93.467 204 92.0546 204 90.7002 203.995C86.6371 203.979 83.0938 203.916 80.0557 203.663C75.8181 203.31 71.7814 202.544 67.9473 200.555C62.1071 197.524 57.3586 192.689 54.3828 186.742C52.4293 182.838 51.6773 178.727 51.3311 174.412C51.0001 170.287 50.9999 165.247 51 159.257V142.671C50.9999 136.681 51.0001 131.641 51.3311 127.516C51.6773 123.201 52.4293 119.09 54.3828 115.186C57.3586 109.238 62.1071 104.403 67.9473 101.373C71.7814 99.3837 75.8181 98.6172 80.0557 98.2647C83.8967 97.9452 88.5449 97.9294 94.0303 97.9287C93.9664 92.4661 93.9329 87.824 94.1973 83.9707C94.4962 79.6117 95.2099 75.4543 97.1475 71.499C100.096 65.479 104.854 60.5742 110.729 57.4981C114.59 55.477 118.664 54.6994 122.94 54.3418C127.031 53.9998 132.033 53.9999 137.98 54H155.153ZM95.2959 116.143C88.9611 116.143 84.7475 116.15 81.5117 116.419C78.3804 116.679 76.9597 117.139 76.0674 117.602C73.5928 118.886 71.5812 120.935 70.3203 123.455C69.8658 124.364 69.4141 125.81 69.1582 128.999C68.8939 132.294 68.8867 136.584 68.8867 143.035V158.893C68.8867 165.343 68.8939 169.634 69.1582 172.929C69.4141 176.117 69.8658 177.564 70.3203 178.473C71.5812 180.993 73.5928 183.042 76.0674 184.326C76.9597 184.789 78.3804 185.248 81.5117 185.509C84.7475 185.778 88.9611 185.785 95.2959 185.785H112.025C113.469 185.785 114.792 185.785 116.011 185.781C119.667 185.769 122.382 185.723 124.602 185.555C127.47 185.337 128.785 184.95 129.608 184.565C132.47 183.229 134.766 180.891 136.079 177.977C136.457 177.138 136.836 175.799 137.05 172.879C137.271 169.866 137.276 165.954 137.276 160.072H103.871C100.269 160.072 97.018 157.872 95.624 154.489C94.2303 151.107 94.9658 147.203 97.4893 144.585L124.908 116.143H95.2959ZM138.342 72.2148C131.938 72.2148 127.676 72.2216 124.404 72.4951C121.236 72.76 119.803 73.2276 118.908 73.6963C116.419 74.9998 114.403 77.0781 113.153 79.6289C112.704 80.5463 112.262 82.011 112.04 85.2402C111.83 88.3107 111.852 92.2341 111.918 97.9277H146.22C151.159 97.9278 155.163 102.005 155.163 107.035C155.163 109.52 154.184 111.771 152.6 113.414L152.602 113.416L125.184 141.857H154.795C161.13 141.857 165.343 141.85 168.579 141.581C171.71 141.321 173.131 140.861 174.023 140.398C176.498 139.114 178.51 137.065 179.771 134.545C180.225 133.636 180.677 132.19 180.933 129.001C181.197 125.706 181.204 121.416 181.204 114.965V99.1074C181.204 92.6567 181.197 88.3663 180.933 85.0713C180.677 81.8827 180.225 80.4361 179.771 79.5273C178.51 77.0074 176.498 74.958 174.023 73.6738C173.131 73.2109 171.71 72.7517 168.579 72.4912C166.152 72.2893 163.175 72.2343 159.166 72.2197L154.795 72.2148H138.342Z" fill="url(#paint4_linear_10638_42408)"/>
<path fill-rule="evenodd" clip-rule="evenodd" d="M137.981 50H155.153C161.035 49.9999 165.984 49.9998 170.035 50.3368C174.273 50.6894 178.309 51.4556 182.143 53.445C187.984 56.4753 192.732 61.3106 195.708 67.2579C197.661 71.1622 198.414 75.2726 198.76 79.5877C199.091 83.7131 199.091 88.7528 199.091 94.7428V111.329C199.091 117.319 199.091 122.359 198.76 126.484C198.414 130.8 197.661 134.91 195.708 138.814C192.732 144.762 187.984 149.597 182.143 152.627C178.309 154.617 174.273 155.383 170.035 155.735C165.984 156.073 161.035 156.072 155.153 156.072H103.871C100.269 156.072 97.0181 153.871 95.6242 150.489C94.2304 147.107 94.9654 143.203 97.4889 140.585L139.838 96.656L152.602 109.416L125.183 137.858H154.795C161.13 137.858 165.343 137.851 168.579 137.581C171.71 137.321 173.131 136.861 174.023 136.398C176.498 135.114 178.51 133.065 179.771 130.545C180.225 129.637 180.677 128.19 180.933 125.001C181.197 121.706 181.204 117.416 181.204 110.965V95.1075C181.204 88.6566 181.197 84.3662 180.933 81.0711C180.677 77.8823 180.225 76.4359 179.771 75.5271C178.51 73.0071 176.498 70.9583 174.023 69.6741C173.131 69.2111 171.71 68.7512 168.579 68.4907C165.343 68.2215 161.13 68.2144 154.795 68.2144H138.342C131.938 68.2144 127.675 68.2216 124.404 68.4951C121.236 68.76 119.804 69.2278 118.908 69.6964C116.419 71 114.402 73.0782 113.153 75.6292C112.704 76.5465 112.262 78.0105 112.04 81.2397C111.812 84.5742 111.857 88.9143 111.935 95.4353L112.024 102.925L94.1392 103.147L94.0451 95.2899C93.9723 89.2332 93.9112 84.1401 94.1973 79.9706C94.4962 75.6116 95.2097 71.4542 97.1472 67.4989C100.096 61.4787 104.854 56.5738 110.73 53.4977C114.59 51.4766 118.664 50.6994 122.94 50.3418C127.031 49.9998 132.033 49.9999 137.981 50Z" fill="url(#paint5_linear_10638_42408)"/>
<path fill-rule="evenodd" clip-rule="evenodd" d="M137.981 50H155.153C161.035 49.9999 165.984 49.9998 170.035 50.3368C174.273 50.6894 178.309 51.4556 182.143 53.445C187.984 56.4753 192.732 61.3106 195.708 67.2579C197.661 71.1622 198.414 75.2726 198.76 79.5877C199.091 83.7131 199.091 88.7528 199.091 94.7428V111.329C199.091 117.319 199.091 122.359 198.76 126.484C198.414 130.8 197.661 134.91 195.708 138.814C192.732 144.762 187.984 149.597 182.143 152.627C178.309 154.617 174.273 155.383 170.035 155.735C165.984 156.073 161.035 156.072 155.153 156.072H103.871C100.269 156.072 97.0181 153.871 95.6242 150.489C94.2304 147.107 94.9654 143.203 97.4889 140.585L139.838 96.656L152.602 109.416L125.183 137.858H154.795C161.13 137.858 165.343 137.851 168.579 137.581C171.71 137.321 173.131 136.861 174.023 136.398C176.498 135.114 178.51 133.065 179.771 130.545C180.225 129.637 180.677 128.19 180.933 125.001C181.197 121.706 181.204 117.416 181.204 110.965V95.1075C181.204 88.6566 181.197 84.3662 180.933 81.0711C180.677 77.8823 180.225 76.4359 179.771 75.5271C178.51 73.0071 176.498 70.9583 174.023 69.6741C173.131 69.2111 171.71 68.7512 168.579 68.4907C165.343 68.2215 161.13 68.2144 154.795 68.2144H138.342C131.938 68.2144 127.675 68.2216 124.404 68.4951C121.236 68.76 119.804 69.2278 118.908 69.6964C116.419 71 114.402 73.0782 113.153 75.6292C112.704 76.5465 112.262 78.0105 112.04 81.2397C111.812 84.5742 111.857 88.9143 111.935 95.4353L112.024 102.925L94.1392 103.147L94.0451 95.2899C93.9723 89.2332 93.9112 84.1401 94.1973 79.9706C94.4962 75.6116 95.2097 71.4542 97.1472 67.4989C100.096 61.4787 104.854 56.5738 110.73 53.4977C114.59 51.4766 118.664 50.6994 122.94 50.3418C127.031 49.9998 132.033 49.9999 137.981 50Z" fill="url(#paint6_radial_10638_42408)"/>
<path fill-rule="evenodd" clip-rule="evenodd" d="M137.981 50H155.153C161.035 49.9999 165.984 49.9998 170.035 50.3368C174.273 50.6894 178.309 51.4556 182.143 53.445C187.984 56.4753 192.732 61.3106 195.708 67.2579C197.661 71.1622 198.414 75.2726 198.76 79.5877C199.091 83.7131 199.091 88.7528 199.091 94.7428V111.329C199.091 117.319 199.091 122.359 198.76 126.484C198.414 130.8 197.661 134.91 195.708 138.814C192.732 144.762 187.984 149.597 182.143 152.627C178.309 154.617 174.273 155.383 170.035 155.735C165.984 156.073 161.035 156.072 155.153 156.072H103.871C100.269 156.072 97.0181 153.871 95.6242 150.489C94.2304 147.107 94.9654 143.203 97.4889 140.585L139.838 96.656L152.602 109.416L125.183 137.858H154.795C161.13 137.858 165.343 137.851 168.579 137.581C171.71 137.321 173.131 136.861 174.023 136.398C176.498 135.114 178.51 133.065 179.771 130.545C180.225 129.637 180.677 128.19 180.933 125.001C181.197 121.706 181.204 117.416 181.204 110.965V95.1075C181.204 88.6566 181.197 84.3662 180.933 81.0711C180.677 77.8823 180.225 76.4359 179.771 75.5271C178.51 73.0071 176.498 70.9583 174.023 69.6741C173.131 69.2111 171.71 68.7512 168.579 68.4907C165.343 68.2215 161.13 68.2144 154.795 68.2144H138.342C131.938 68.2144 127.675 68.2216 124.404 68.4951C121.236 68.76 119.804 69.2278 118.908 69.6964C116.419 71 114.402 73.0782 113.153 75.6292C112.704 76.5465 112.262 78.0105 112.04 81.2397C111.812 84.5742 111.857 88.9143 111.935 95.4353L112.024 102.925L94.1392 103.147L94.0451 95.2899C93.9723 89.2332 93.9112 84.1401 94.1973 79.9706C94.4962 75.6116 95.2097 71.4542 97.1472 67.4989C100.096 61.4787 104.854 56.5738 110.73 53.4977C114.59 51.4766 118.664 50.6994 122.94 50.3418C127.031 49.9998 132.033 49.9999 137.981 50Z" fill="url(#paint7_radial_10638_42408)"/>
<path fill-rule="evenodd" clip-rule="evenodd" d="M137.981 50H155.153C161.035 49.9999 165.984 49.9998 170.035 50.3368C174.273 50.6894 178.309 51.4556 182.143 53.445C187.984 56.4753 192.732 61.3106 195.708 67.2579C197.661 71.1622 198.414 75.2726 198.76 79.5877C199.091 83.7131 199.091 88.7528 199.091 94.7428V111.329C199.091 117.319 199.091 122.359 198.76 126.484C198.414 130.8 197.661 134.91 195.708 138.814C192.732 144.762 187.984 149.597 182.143 152.627C178.309 154.617 174.273 155.383 170.035 155.735C165.984 156.073 161.035 156.072 155.153 156.072H103.871C100.269 156.072 97.0181 153.871 95.6242 150.489C94.2304 147.107 94.9654 143.203 97.4889 140.585L139.838 96.656L152.602 109.416L125.183 137.858H154.795C161.13 137.858 165.343 137.851 168.579 137.581C171.71 137.321 173.131 136.861 174.023 136.398C176.498 135.114 178.51 133.065 179.771 130.545C180.225 129.637 180.677 128.19 180.933 125.001C181.197 121.706 181.204 117.416 181.204 110.965V95.1075C181.204 88.6566 181.197 84.3662 180.933 81.0711C180.677 77.8823 180.225 76.4359 179.771 75.5271C178.51 73.0071 176.498 70.9583 174.023 69.6741C173.131 69.2111 171.71 68.7512 168.579 68.4907C165.343 68.2215 161.13 68.2144 154.795 68.2144H138.342C131.938 68.2144 127.675 68.2216 124.404 68.4951C121.236 68.76 119.804 69.2278 118.908 69.6964C116.419 71 114.402 73.0782 113.153 75.6292C112.704 76.5465 112.262 78.0105 112.04 81.2397C111.812 84.5742 111.857 88.9143 111.935 95.4353L112.024 102.925L94.1392 103.147L94.0451 95.2899C93.9723 89.2332 93.9112 84.1401 94.1973 79.9706C94.4962 75.6116 95.2097 71.4542 97.1472 67.4989C100.096 61.4787 104.854 56.5738 110.73 53.4977C114.59 51.4766 118.664 50.6994 122.94 50.3418C127.031 49.9998 132.033 49.9999 137.981 50Z" fill="url(#paint8_radial_10638_42408)"/>
<path fill-rule="evenodd" clip-rule="evenodd" d="M81.5118 181.509C84.7476 181.778 88.9608 181.786 95.2956 181.786H112.025C117.801 181.786 121.643 181.78 124.602 181.555C127.47 181.337 128.785 180.951 129.608 180.566C132.47 179.229 134.766 176.891 136.079 173.977C136.456 173.138 136.836 171.799 137.05 168.879C137.271 165.865 137.277 161.953 137.277 156.071H155.163V156.403C155.163 161.866 155.163 166.462 154.887 170.235C154.598 174.176 153.971 177.943 152.336 181.572C149.238 188.449 143.82 193.966 137.066 197.121C133.503 198.786 129.804 199.424 125.934 199.718C122.229 200 117.715 200 112.351 200H94.9372C89.0552 200 84.1062 200 80.0553 199.663C75.8178 199.31 71.7814 198.544 67.9473 196.555C62.107 193.525 57.3588 188.689 54.383 182.742C52.4294 178.838 51.677 174.727 51.3307 170.412C50.9998 166.287 50.9999 161.247 51 155.257V138.671C50.9999 132.681 50.9998 127.641 51.3307 123.515C51.677 119.2 52.4294 115.09 54.383 111.186C57.3588 105.238 62.107 100.403 67.9473 97.3726C71.7814 95.3833 75.8178 94.617 80.0553 94.2645C84.1064 93.9276 89.0554 93.9276 94.9374 93.9277H146.22C151.159 93.9277 155.163 98.0052 155.163 103.035C155.163 108.065 151.159 112.142 146.22 112.142H95.2956C88.9608 112.142 84.7476 112.149 81.5118 112.418C78.3804 112.679 76.96 113.139 76.0676 113.602C73.593 114.886 71.581 116.935 70.32 119.455C69.8655 120.363 69.4138 121.81 69.1579 124.999C68.8936 128.294 68.8866 132.584 68.8866 139.035V154.892C68.8866 161.343 68.8936 165.634 69.1579 168.929C69.4138 172.118 69.8655 173.564 70.32 174.473C71.581 176.993 73.593 179.042 76.0676 180.326C76.96 180.789 78.3804 181.249 81.5118 181.509Z" fill="url(#paint9_linear_10638_42408)"/>
<path fill-rule="evenodd" clip-rule="evenodd" d="M81.5118 181.509C84.7476 181.778 88.9608 181.786 95.2956 181.786H112.025C117.801 181.786 121.643 181.78 124.602 181.555C127.47 181.337 128.785 180.951 129.608 180.566C132.47 179.229 134.766 176.891 136.079 173.977C136.456 173.138 136.836 171.799 137.05 168.879C137.271 165.865 137.277 161.953 137.277 156.071H155.163V156.403C155.163 161.866 155.163 166.462 154.887 170.235C154.598 174.176 153.971 177.943 152.336 181.572C149.238 188.449 143.82 193.966 137.066 197.121C133.503 198.786 129.804 199.424 125.934 199.718C122.229 200 117.715 200 112.351 200H94.9372C89.0552 200 84.1062 200 80.0553 199.663C75.8178 199.31 71.7814 198.544 67.9473 196.555C62.107 193.525 57.3588 188.689 54.383 182.742C52.4294 178.838 51.677 174.727 51.3307 170.412C50.9998 166.287 50.9999 161.247 51 155.257V138.671C50.9999 132.681 50.9998 127.641 51.3307 123.515C51.677 119.2 52.4294 115.09 54.383 111.186C57.3588 105.238 62.107 100.403 67.9473 97.3726C71.7814 95.3833 75.8178 94.617 80.0553 94.2645C84.1064 93.9276 89.0554 93.9276 94.9374 93.9277H146.22C151.159 93.9277 155.163 98.0052 155.163 103.035C155.163 108.065 151.159 112.142 146.22 112.142H95.2956C88.9608 112.142 84.7476 112.149 81.5118 112.418C78.3804 112.679 76.96 113.139 76.0676 113.602C73.593 114.886 71.581 116.935 70.32 119.455C69.8655 120.363 69.4138 121.81 69.1579 124.999C68.8936 128.294 68.8866 132.584 68.8866 139.035V154.892C68.8866 161.343 68.8936 165.634 69.1579 168.929C69.4138 172.118 69.8655 173.564 70.32 174.473C71.581 176.993 73.593 179.042 76.0676 180.326C76.96 180.789 78.3804 181.249 81.5118 181.509Z" fill="url(#paint10_radial_10638_42408)"/>
<path d="M112.352 198V200H94.9375V198H112.352ZM153.163 156.403V154.071H155.163C161.07 154.071 165.922 154.071 169.869 153.742C173.979 153.4 177.72 152.669 181.223 150.852C186.683 148.018 191.13 143.493 193.919 137.92C195.71 134.341 196.43 130.518 196.767 126.324C197.09 122.296 197.091 117.347 197.091 111.329V94.7432C197.091 88.7251 197.09 83.7758 196.767 79.748C196.43 75.5542 195.71 71.7311 193.919 68.1523C191.13 62.5788 186.683 58.0542 181.223 55.2207C177.72 53.4035 173.979 52.6721 169.869 52.3301C166.907 52.0836 163.436 52.0207 159.392 52.0049L155.153 52H137.98C132.003 51.9999 127.096 52.0015 123.107 52.335C118.959 52.6819 115.183 53.4236 111.657 55.2695C106.163 58.146 101.707 62.7366 98.9434 68.3789C97.1674 72.0043 96.4829 75.8704 96.1924 80.1074C95.9345 83.8658 95.9662 88.4245 96.0303 93.9053L96.0537 95.9287H94.0303C88.5233 95.9294 83.9638 95.9466 80.2217 96.2578C76.1114 96.5997 72.3706 97.3312 68.8682 99.1484C63.4073 101.982 58.9608 106.507 56.1719 112.08C54.3812 115.659 53.6607 119.482 53.3242 123.676C53.0819 126.697 53.0204 130.236 53.0049 134.355L53 138.671V155.257C52.9999 161.275 53.0011 166.224 53.3242 170.252C53.6607 174.446 54.3812 178.269 56.1719 181.848C58.9608 187.421 63.4074 191.946 68.8682 194.779C72.3705 196.597 76.1112 197.328 80.2217 197.67C83.174 197.915 86.6481 197.979 90.708 197.995C92.0577 198 93.4659 198 94.9375 198V200C93.467 200 92.0546 200 90.7002 199.995C86.6371 199.979 83.0938 199.916 80.0557 199.663C75.8181 199.31 71.7814 198.544 67.9473 196.555C62.1071 193.524 57.3586 188.689 54.3828 182.742C52.4293 178.838 51.6773 174.727 51.3311 170.412C51.0001 166.287 50.9999 161.247 51 155.257V138.671C50.9999 132.681 51.0001 127.641 51.3311 123.516C51.6773 119.201 52.4293 115.09 54.3828 111.186C57.3586 105.238 62.1071 100.403 67.9473 97.373C71.7814 95.3837 75.8181 94.6171 80.0557 94.2646C83.8967 93.9452 88.5449 93.9294 94.0303 93.9287C93.9664 88.4661 93.9329 83.824 94.1973 79.9707C94.4962 75.6117 95.2099 71.4543 97.1475 67.499C100.096 61.479 104.854 56.5742 110.729 53.4981C114.59 51.477 118.664 50.6994 122.94 50.3418C127.031 49.9998 132.033 49.9999 137.98 50H155.153C161.035 49.9999 165.984 49.9999 170.035 50.3369C174.273 50.6895 178.309 51.4559 182.144 53.4453C187.984 56.4756 192.732 61.3106 195.708 67.2578C197.661 71.1621 198.414 75.2728 198.76 79.5879C199.091 83.7133 199.091 88.7533 199.091 94.7432V111.329C199.091 117.319 199.091 122.359 198.76 126.484C198.414 130.799 197.661 134.91 195.708 138.814C192.732 144.762 187.984 149.597 182.144 152.627C178.309 154.616 174.273 155.383 170.035 155.735C165.986 156.072 161.041 156.071 155.163 156.071V156.403C155.163 161.866 155.163 166.462 154.887 170.234C154.598 174.176 153.97 177.943 152.336 181.571C149.238 188.449 143.82 193.966 137.066 197.121C133.504 198.786 129.804 199.425 125.934 199.719C122.229 200 117.715 200 112.352 200V198C117.742 198 122.17 197.999 125.782 197.725C129.537 197.439 132.966 196.829 136.22 195.309C142.534 192.359 147.608 187.197 150.513 180.75C152.011 177.424 152.611 173.919 152.892 170.088C153.162 166.405 153.163 161.891 153.163 156.403ZM139.276 154.072V156.072C139.276 161.923 139.273 165.922 139.045 169.025C138.851 171.674 138.516 173.232 138.091 174.346L137.902 174.798C136.395 178.143 133.756 180.836 130.455 182.378C129.321 182.908 127.735 183.322 124.753 183.549C122.453 183.724 119.671 183.769 116.018 183.781C114.795 183.785 113.468 183.785 112.025 183.785H95.2959C88.9958 183.785 84.684 183.78 81.3457 183.502C78.0902 183.231 76.372 182.737 75.1465 182.102C72.2925 180.621 69.9788 178.26 68.5313 175.367C67.9136 174.132 67.4305 172.397 67.165 169.089C66.8928 165.695 66.8867 161.31 66.8867 154.893V139.035C66.8867 132.618 66.8928 128.233 67.165 124.839C67.4305 121.531 67.9135 119.795 68.5313 118.561C69.9788 115.668 72.2925 113.307 75.1465 111.826C76.372 111.19 78.0902 110.697 81.3457 110.426C84.684 110.148 88.9958 110.143 95.2959 110.143V112.143C88.9611 112.143 84.7475 112.15 81.5117 112.419C78.3804 112.679 76.9597 113.139 76.0674 113.602C73.5928 114.886 71.5812 116.935 70.3203 119.455C69.8658 120.364 69.4141 121.81 69.1582 124.999C68.8939 128.294 68.8867 132.584 68.8867 139.035V154.893C68.8867 161.343 68.8939 165.634 69.1582 168.929C69.4141 172.117 69.8658 173.564 70.3203 174.473C71.5812 176.993 73.5928 179.042 76.0674 180.326C76.9597 180.789 78.3804 181.248 81.5117 181.509C84.7475 181.778 88.9611 181.785 95.2959 181.785H112.025C113.469 181.785 114.792 181.785 116.011 181.781C119.667 181.769 122.382 181.723 124.602 181.555C127.47 181.337 128.785 180.95 129.608 180.565C132.47 179.229 134.766 176.891 136.079 173.977C136.457 173.138 136.836 171.799 137.05 168.879C137.271 165.866 137.276 161.954 137.276 156.072H103.871V154.072H139.276ZM129.614 110.143L98.9287 141.973C96.9608 144.014 96.3801 147.074 97.4736 149.728C98.5653 152.376 101.096 154.072 103.871 154.072V156.072C100.269 156.072 97.018 153.872 95.624 150.489C94.2303 147.107 94.9658 143.203 97.4893 140.585L124.908 112.143H95.2959V110.143H129.614ZM153.163 103.035C153.163 99.1993 150.214 96.125 146.574 95.9365L146.22 95.9277H109.941L109.918 93.9512C109.853 88.281 109.828 84.2703 110.045 81.1035C110.275 77.7541 110.746 75.9972 111.357 74.749L111.637 74.2061C113.084 71.5249 115.289 69.334 117.98 67.9248C119.211 67.2805 120.944 66.7773 124.237 66.502C127.612 66.2198 131.973 66.2148 138.342 66.2148V68.2148C131.938 68.2148 127.676 68.2216 124.404 68.4951C121.236 68.76 119.803 69.2276 118.908 69.6963C116.419 70.9998 114.403 73.0781 113.153 75.6289C112.704 76.5463 112.262 78.011 112.04 81.2402C111.83 84.3107 111.852 88.2341 111.918 93.9277H146.22C151.159 93.9278 155.163 98.0054 155.163 103.035C155.163 105.52 154.184 107.771 152.6 109.414L152.602 109.416L125.184 137.857H154.795C161.13 137.857 165.343 137.85 168.579 137.581C171.71 137.321 173.131 136.861 174.023 136.398C176.498 135.114 178.51 133.065 179.771 130.545C180.225 129.636 180.677 128.19 180.933 125.001C181.197 121.706 181.204 117.416 181.204 110.965V95.1074C181.204 88.6566 181.197 84.3663 180.933 81.0713C180.677 77.8827 180.225 76.4361 179.771 75.5273C178.51 73.0074 176.498 70.958 174.023 69.6738C173.131 69.2109 171.71 68.7517 168.579 68.4912C166.152 68.2893 163.175 68.2343 159.166 68.2197L154.795 68.2148H138.342V66.2148H154.797L159.168 66.2197H159.173C163.18 66.2343 166.23 66.2888 168.745 66.4981C172 66.7689 173.719 67.2626 174.944 67.8984C177.798 69.3795 180.112 71.7399 181.56 74.6328C182.177 75.8678 182.66 77.6032 182.926 80.9111C183.13 83.4565 183.185 86.5595 183.199 90.6592L183.204 95.1074V110.965C183.204 117.382 183.198 121.767 182.926 125.161C182.66 128.469 182.177 130.205 181.56 131.439C180.112 134.332 177.798 136.693 174.944 138.174C173.719 138.81 172 139.303 168.745 139.574C165.407 139.852 161.095 139.857 154.795 139.857H120.478L149.799 109.441L149.797 109.439L151.16 108.025C152.32 106.823 153.066 105.203 153.154 103.398L153.163 103.035Z" fill="url(#paint11_linear_10638_42408)"/>
<path d="M112.352 198V200H94.9375V198H112.352ZM153.163 156.403V154.071H155.163C161.07 154.071 165.922 154.071 169.869 153.742C173.979 153.4 177.72 152.669 181.223 150.852C186.683 148.018 191.13 143.493 193.919 137.92C195.71 134.341 196.43 130.518 196.767 126.324C197.09 122.296 197.091 117.347 197.091 111.329V94.7432C197.091 88.7251 197.09 83.7758 196.767 79.748C196.43 75.5542 195.71 71.7311 193.919 68.1523C191.13 62.5788 186.683 58.0542 181.223 55.2207C177.72 53.4035 173.979 52.6721 169.869 52.3301C166.907 52.0836 163.436 52.0207 159.392 52.0049L155.153 52H137.98C132.003 51.9999 127.096 52.0015 123.107 52.335C118.959 52.6819 115.183 53.4236 111.657 55.2695C106.163 58.146 101.707 62.7366 98.9434 68.3789C97.1674 72.0043 96.4829 75.8704 96.1924 80.1074C95.9345 83.8658 95.9662 88.4245 96.0303 93.9053L96.0537 95.9287H94.0303C88.5233 95.9294 83.9638 95.9466 80.2217 96.2578C76.1114 96.5997 72.3706 97.3312 68.8682 99.1484C63.4073 101.982 58.9608 106.507 56.1719 112.08C54.3812 115.659 53.6607 119.482 53.3242 123.676C53.0819 126.697 53.0204 130.236 53.0049 134.355L53 138.671V155.257C52.9999 161.275 53.0011 166.224 53.3242 170.252C53.6607 174.446 54.3812 178.269 56.1719 181.848C58.9608 187.421 63.4074 191.946 68.8682 194.779C72.3705 196.597 76.1112 197.328 80.2217 197.67C83.174 197.915 86.6481 197.979 90.708 197.995C92.0577 198 93.4659 198 94.9375 198V200C93.467 200 92.0546 200 90.7002 199.995C86.6371 199.979 83.0938 199.916 80.0557 199.663C75.8181 199.31 71.7814 198.544 67.9473 196.555C62.1071 193.524 57.3586 188.689 54.3828 182.742C52.4293 178.838 51.6773 174.727 51.3311 170.412C51.0001 166.287 50.9999 161.247 51 155.257V138.671C50.9999 132.681 51.0001 127.641 51.3311 123.516C51.6773 119.201 52.4293 115.09 54.3828 111.186C57.3586 105.238 62.1071 100.403 67.9473 97.373C71.7814 95.3837 75.8181 94.6171 80.0557 94.2646C83.8967 93.9452 88.5449 93.9294 94.0303 93.9287C93.9664 88.4661 93.9329 83.824 94.1973 79.9707C94.4962 75.6117 95.2099 71.4543 97.1475 67.499C100.096 61.479 104.854 56.5742 110.729 53.4981C114.59 51.477 118.664 50.6994 122.94 50.3418C127.031 49.9998 132.033 49.9999 137.98 50H155.153C161.035 49.9999 165.984 49.9999 170.035 50.3369C174.273 50.6895 178.309 51.4559 182.144 53.4453C187.984 56.4756 192.732 61.3106 195.708 67.2578C197.661 71.1621 198.414 75.2728 198.76 79.5879C199.091 83.7133 199.091 88.7533 199.091 94.7432V111.329C199.091 117.319 199.091 122.359 198.76 126.484C198.414 130.799 197.661 134.91 195.708 138.814C192.732 144.762 187.984 149.597 182.144 152.627C178.309 154.616 174.273 155.383 170.035 155.735C165.986 156.072 161.041 156.071 155.163 156.071V156.403C155.163 161.866 155.163 166.462 154.887 170.234C154.598 174.176 153.97 177.943 152.336 181.571C149.238 188.449 143.82 193.966 137.066 197.121C133.504 198.786 129.804 199.425 125.934 199.719C122.229 200 117.715 200 112.352 200V198C117.742 198 122.17 197.999 125.782 197.725C129.537 197.439 132.966 196.829 136.22 195.309C142.534 192.359 147.608 187.197 150.513 180.75C152.011 177.424 152.611 173.919 152.892 170.088C153.162 166.405 153.163 161.891 153.163 156.403ZM139.276 154.072V156.072C139.276 161.923 139.273 165.922 139.045 169.025C138.851 171.674 138.516 173.232 138.091 174.346L137.902 174.798C136.395 178.143 133.756 180.836 130.455 182.378C129.321 182.908 127.735 183.322 124.753 183.549C122.453 183.724 119.671 183.769 116.018 183.781C114.795 183.785 113.468 183.785 112.025 183.785H95.2959C88.9958 183.785 84.684 183.78 81.3457 183.502C78.0902 183.231 76.372 182.737 75.1465 182.102C72.2925 180.621 69.9788 178.26 68.5313 175.367C67.9136 174.132 67.4305 172.397 67.165 169.089C66.8928 165.695 66.8867 161.31 66.8867 154.893V139.035C66.8867 132.618 66.8928 128.233 67.165 124.839C67.4305 121.531 67.9135 119.795 68.5313 118.561C69.9788 115.668 72.2925 113.307 75.1465 111.826C76.372 111.19 78.0902 110.697 81.3457 110.426C84.684 110.148 88.9958 110.143 95.2959 110.143V112.143C88.9611 112.143 84.7475 112.15 81.5117 112.419C78.3804 112.679 76.9597 113.139 76.0674 113.602C73.5928 114.886 71.5812 116.935 70.3203 119.455C69.8658 120.364 69.4141 121.81 69.1582 124.999C68.8939 128.294 68.8867 132.584 68.8867 139.035V154.893C68.8867 161.343 68.8939 165.634 69.1582 168.929C69.4141 172.117 69.8658 173.564 70.3203 174.473C71.5812 176.993 73.5928 179.042 76.0674 180.326C76.9597 180.789 78.3804 181.248 81.5117 181.509C84.7475 181.778 88.9611 181.785 95.2959 181.785H112.025C113.469 181.785 114.792 181.785 116.011 181.781C119.667 181.769 122.382 181.723 124.602 181.555C127.47 181.337 128.785 180.95 129.608 180.565C132.47 179.229 134.766 176.891 136.079 173.977C136.457 173.138 136.836 171.799 137.05 168.879C137.271 165.866 137.276 161.954 137.276 156.072H103.871V154.072H139.276ZM129.614 110.143L98.9287 141.973C96.9608 144.014 96.3801 147.074 97.4736 149.728C98.5653 152.376 101.096 154.072 103.871 154.072V156.072C100.269 156.072 97.018 153.872 95.624 150.489C94.2303 147.107 94.9658 143.203 97.4893 140.585L124.908 112.143H95.2959V110.143H129.614ZM153.163 103.035C153.163 99.1993 150.214 96.125 146.574 95.9365L146.22 95.9277H109.941L109.918 93.9512C109.853 88.281 109.828 84.2703 110.045 81.1035C110.275 77.7541 110.746 75.9972 111.357 74.749L111.637 74.2061C113.084 71.5249 115.289 69.334 117.98 67.9248C119.211 67.2805 120.944 66.7773 124.237 66.502C127.612 66.2198 131.973 66.2148 138.342 66.2148V68.2148C131.938 68.2148 127.676 68.2216 124.404 68.4951C121.236 68.76 119.803 69.2276 118.908 69.6963C116.419 70.9998 114.403 73.0781 113.153 75.6289C112.704 76.5463 112.262 78.011 112.04 81.2402C111.83 84.3107 111.852 88.2341 111.918 93.9277H146.22C151.159 93.9278 155.163 98.0054 155.163 103.035C155.163 105.52 154.184 107.771 152.6 109.414L152.602 109.416L125.184 137.857H154.795C161.13 137.857 165.343 137.85 168.579 137.581C171.71 137.321 173.131 136.861 174.023 136.398C176.498 135.114 178.51 133.065 179.771 130.545C180.225 129.636 180.677 128.19 180.933 125.001C181.197 121.706 181.204 117.416 181.204 110.965V95.1074C181.204 88.6566 181.197 84.3663 180.933 81.0713C180.677 77.8827 180.225 76.4361 179.771 75.5273C178.51 73.0074 176.498 70.958 174.023 69.6738C173.131 69.2109 171.71 68.7517 168.579 68.4912C166.152 68.2893 163.175 68.2343 159.166 68.2197L154.795 68.2148H138.342V66.2148H154.797L159.168 66.2197H159.173C163.18 66.2343 166.23 66.2888 168.745 66.4981C172 66.7689 173.719 67.2626 174.944 67.8984C177.798 69.3795 180.112 71.7399 181.56 74.6328C182.177 75.8678 182.66 77.6032 182.926 80.9111C183.13 83.4565 183.185 86.5595 183.199 90.6592L183.204 95.1074V110.965C183.204 117.382 183.198 121.767 182.926 125.161C182.66 128.469 182.177 130.205 181.56 131.439C180.112 134.332 177.798 136.693 174.944 138.174C173.719 138.81 172 139.303 168.745 139.574C165.407 139.852 161.095 139.857 154.795 139.857H120.478L149.799 109.441L149.797 109.439L151.16 108.025C152.32 106.823 153.066 105.203 153.154 103.398L153.163 103.035Z" fill="url(#paint12_linear_10638_42408)"/>
</g>
<defs>
<linearGradient id="paint0_linear_10638_42408" x1="125" y1="0" x2="125" y2="250" gradientUnits="userSpaceOnUse">
<stop stop-color="#0004B4"/>
<stop offset="1" stop-color="#170069"/>
</linearGradient>
<linearGradient id="paint1_linear_10638_42408" x1="125" y1="0" x2="125" y2="250" gradientUnits="userSpaceOnUse">
<stop stop-color="#0002FF"/>
<stop offset="1" stop-color="#2E07D8"/>
</linearGradient>
<linearGradient id="paint2_linear_10638_42408" x1="125" y1="0" x2="125" y2="250" gradientUnits="userSpaceOnUse">
<stop offset="0.85" stop-color="#7A5CFF" stop-opacity="0"/>
<stop offset="1" stop-color="#7A5CFF"/>
</linearGradient>
<linearGradient id="paint3_linear_10638_42408" x1="125" y1="0" x2="125" y2="250" gradientUnits="userSpaceOnUse">
<stop stop-color="#3355FF"/>
<stop offset="0.15" stop-color="#3355FF" stop-opacity="0"/>
</linearGradient>
<linearGradient id="paint4_linear_10638_42408" x1="125.045" y1="54" x2="125.045" y2="204" gradientUnits="userSpaceOnUse">
<stop stop-color="#100180"/>
<stop offset="1" stop-color="#0E005B"/>
</linearGradient>
<linearGradient id="paint5_linear_10638_42408" x1="121.562" y1="155.249" x2="122.777" y2="49.8651" gradientUnits="userSpaceOnUse">
<stop offset="0.43118" stop-color="#498FFD"/>
<stop offset="1" stop-color="#16D1D6"/>
</linearGradient>
<radialGradient id="paint6_radial_10638_42408" cx="0" cy="0" r="1" gradientUnits="userSpaceOnUse" gradientTransform="translate(92.7436 82.1156) rotate(-15.6853) scale(67.6271 67.9608)">
<stop stop-color="#18CFD7"/>
<stop offset="1" stop-color="#18CFD7" stop-opacity="0"/>
</radialGradient>
<radialGradient id="paint7_radial_10638_42408" cx="0" cy="0" r="1" gradientUnits="userSpaceOnUse" gradientTransform="translate(132.236 112.229) rotate(152.175) scale(25.3449 25.4144)">
<stop stop-color="#4990FE"/>
<stop offset="0.353962" stop-color="#4990FE"/>
<stop offset="1" stop-color="#4990FE" stop-opacity="0"/>
</radialGradient>
<radialGradient id="paint8_radial_10638_42408" cx="0" cy="0" r="1" gradientUnits="userSpaceOnUse" gradientTransform="translate(101.282 146.645) rotate(-46.1564) scale(46.2265 46.1414)">
<stop stop-color="#4990FE"/>
<stop offset="0.405688" stop-color="#4990FE"/>
<stop offset="1" stop-color="#4990FE" stop-opacity="0"/>
</radialGradient>
<linearGradient id="paint9_linear_10638_42408" x1="155.717" y1="200.418" x2="156.108" y2="92.8708" gradientUnits="userSpaceOnUse">
<stop stop-color="#2950FF"/>
<stop offset="0.821717" stop-color="#498FFD"/>
</linearGradient>
<radialGradient id="paint10_radial_10638_42408" cx="0" cy="0" r="1" gradientUnits="userSpaceOnUse" gradientTransform="translate(155.717 155.247) rotate(129.077) scale(45.7178 45.1677)">
<stop offset="0.337169" stop-color="#2950FF"/>
<stop offset="0.792226" stop-color="#2950FF" stop-opacity="0"/>
</radialGradient>
<linearGradient id="paint11_linear_10638_42408" x1="125.045" y1="50" x2="125.045" y2="200" gradientUnits="userSpaceOnUse">
<stop stop-color="#26F3FF"/>
<stop offset="0.296879" stop-color="#3D65FF" stop-opacity="0"/>
</linearGradient>
<linearGradient id="paint12_linear_10638_42408" x1="125.045" y1="50" x2="125.045" y2="200" gradientUnits="userSpaceOnUse">
<stop offset="0.703121" stop-color="#2A53FE" stop-opacity="0"/>
<stop offset="1" stop-color="#6582FF"/>
</linearGradient>
<clipPath id="clip0_10638_42408">
<rect width="250" height="250" fill="white"/>
</clipPath>
</defs>
</svg>
