<svg width="250" height="250" viewBox="0 0 250 250" fill="none" xmlns="http://www.w3.org/2000/svg">
<path d="M246.258 155.241C229.561 222.206 161.73 262.96 94.7502 246.261C27.7977 229.565 -12.9605 161.737 3.74439 94.7763C20.4337 27.8036 88.2651 -12.9542 155.225 3.7411C222.201 20.4364 262.956 88.2724 246.258 155.241Z" fill="url(#paint0_linear_14352_348651)"/>
<path d="M246.258 155.241C229.561 222.206 161.73 262.96 94.7502 246.261C27.7977 229.565 -12.9605 161.737 3.74439 94.7763C20.4337 27.8036 88.2651 -12.9542 155.225 3.7411C222.201 20.4364 262.956 88.2724 246.258 155.241Z" fill="url(#paint1_linear_14352_348651)"/>
<path d="M246.258 155.241C229.561 222.206 161.73 262.96 94.7502 246.261C27.7977 229.565 -12.9605 161.737 3.74439 94.7763C20.4337 27.8036 88.2651 -12.9542 155.225 3.7411C222.201 20.4364 262.956 88.2724 246.258 155.241Z" fill="url(#paint2_linear_14352_348651)"/>
<path d="M246.258 155.241C229.561 222.206 161.73 262.96 94.7502 246.261C27.7977 229.565 -12.9605 161.737 3.74439 94.7763C20.4337 27.8036 88.2651 -12.9542 155.225 3.7411C222.201 20.4364 262.956 88.2724 246.258 155.241Z" fill="url(#paint3_linear_14352_348651)"/>
<path d="M246.258 155.241C229.561 222.206 161.73 262.96 94.7502 246.261C27.7977 229.565 -12.9605 161.737 3.74439 94.7763C20.4337 27.8036 88.2651 -12.9542 155.225 3.7411C222.201 20.4364 262.956 88.2724 246.258 155.241Z" fill="url(#paint4_linear_14352_348651)"/>
<path d="M246.258 155.241C229.561 222.206 161.73 262.96 94.7502 246.261C27.7977 229.565 -12.9605 161.737 3.74439 94.7763C20.4337 27.8036 88.2651 -12.9542 155.225 3.7411C222.201 20.4364 262.956 88.2724 246.258 155.241Z" fill="url(#paint5_linear_14352_348651)"/>
<path d="M3.74439 94.7757C20.4338 27.8033 88.2653 -12.9547 155.225 3.74058C222.201 20.4359 262.955 88.272 246.259 155.241L245.858 156.806C228.638 222.319 162.263 262.198 96.3197 246.641L94.7502 246.26C27.7977 229.565 -12.9605 161.737 3.74439 94.7757ZM154.015 8.59214C89.7356 -7.43476 24.6182 31.6917 8.59647 95.9847V95.9866C-7.43974 160.268 31.6872 225.381 95.9593 241.408C160.26 257.44 225.377 218.317 241.407 154.032C257.436 89.7415 218.311 24.6193 154.015 8.59214Z" fill="url(#paint6_linear_14352_348651)"/>
<path d="M3.74439 94.7757C20.4338 27.8033 88.2653 -12.9547 155.225 3.74058C222.201 20.4359 262.955 88.272 246.259 155.241L245.858 156.806C228.638 222.319 162.263 262.198 96.3197 246.641L94.7502 246.26C27.7977 229.565 -12.9605 161.737 3.74439 94.7757ZM154.015 8.59214C89.7356 -7.43476 24.6182 31.6917 8.59647 95.9847V95.9866C-7.43974 160.268 31.6872 225.381 95.9593 241.408C160.26 257.44 225.377 218.317 241.407 154.032C257.436 89.7415 218.311 24.6193 154.015 8.59214Z" fill="url(#paint7_linear_14352_348651)"/>
<path d="M3.74439 94.7757C20.4338 27.8033 88.2653 -12.9547 155.225 3.74058C222.201 20.4359 262.955 88.272 246.259 155.241L245.858 156.806C228.638 222.319 162.263 262.198 96.3197 246.641L94.7502 246.26C27.7977 229.565 -12.9605 161.737 3.74439 94.7757ZM154.015 8.59214C89.7356 -7.43476 24.6182 31.6917 8.59647 95.9847V95.9866C-7.43974 160.268 31.6872 225.381 95.9593 241.408C160.26 257.44 225.377 218.317 241.407 154.032C257.436 89.7415 218.311 24.6193 154.015 8.59214Z" fill="url(#paint8_linear_14352_348651)"/>
<path d="M171.586 90.0139V70.9908H137.48V50.0278H116.517V70.9908H82.4102V96.2223H135.262L82.4102 167.982V187.005H116.517V207.912H137.48V187.005H171.586V161.773H118.679L171.586 90.0139Z" fill="url(#paint9_linear_14352_348651)"/>
<path d="M171.586 90.0139V70.9908H137.48V50.0278H116.517V70.9908H82.4102V96.2223H135.262L82.4102 167.982V187.005H116.517V207.912H137.48V187.005H171.586V161.773H118.679L171.586 90.0139Z" fill="url(#paint10_linear_14352_348651)"/>
<path d="M169.586 86.0139V66.9908H135.48V46.0278H114.517V66.9908H80.4102V92.2223H133.262L80.4102 163.982V183.005H114.517V203.912H135.48V183.005H169.586V157.773H116.679L169.586 86.0139Z" fill="url(#paint11_linear_14352_348651)"/>
<path d="M169.586 86.0139V66.9908H135.48V46.0278H114.517V66.9908H80.4102V92.2223H133.262L80.4102 163.982V183.005H114.517V203.912H135.48V183.005H169.586V157.773H116.679L169.586 86.0139Z" fill="url(#paint12_linear_14352_348651)"/>
<path d="M133.479 48.0278H116.517V68.9907H82.4102V90.2222H137.219L82.4102 164.638V181.004H116.517V201.912H133.479V181.004H167.586V159.773H112.72L167.586 85.356V68.9907H133.479V48.0278ZM169.586 66.9907V86.0142L116.679 157.773H169.586V183.004H135.479V203.912H114.517V183.004H80.4102V163.982L133.262 92.2222H80.4102V66.9907H114.517V46.0278H135.479V66.9907H169.586Z" fill="white"/>
<defs>
<linearGradient id="paint0_linear_14352_348651" x1="125" y1="0.000488281" x2="125" y2="250.003" gradientUnits="userSpaceOnUse">
<stop stop-color="#FFC130"/>
<stop offset="1" stop-color="#E8A200"/>
</linearGradient>
<linearGradient id="paint1_linear_14352_348651" x1="125" y1="0.000488281" x2="125" y2="250.003" gradientUnits="userSpaceOnUse">
<stop stop-color="#FFB300"/>
<stop offset="1" stop-color="#CF8700"/>
</linearGradient>
<linearGradient id="paint2_linear_14352_348651" x1="125" y1="0.000488281" x2="125" y2="250.003" gradientUnits="userSpaceOnUse">
<stop stop-color="#FFB300"/>
<stop offset="1" stop-color="#B87700"/>
</linearGradient>
<linearGradient id="paint3_linear_14352_348651" x1="125" y1="0.000488281" x2="125" y2="250.003" gradientUnits="userSpaceOnUse">
<stop offset="0.725084" stop-color="#CA6800" stop-opacity="0"/>
<stop offset="1" stop-color="#CA6800" stop-opacity="0.3"/>
</linearGradient>
<linearGradient id="paint4_linear_14352_348651" x1="125" y1="0.000488281" x2="125" y2="250.003" gradientUnits="userSpaceOnUse">
<stop stop-color="#F3B724"/>
<stop offset="1" stop-color="#CD9200"/>
</linearGradient>
<linearGradient id="paint5_linear_14352_348651" x1="125" y1="0.000488281" x2="125" y2="250.003" gradientUnits="userSpaceOnUse">
<stop stop-color="#F6B71D"/>
<stop offset="1" stop-color="#B68200"/>
</linearGradient>
<linearGradient id="paint6_linear_14352_348651" x1="125" y1="0.000349739" x2="125" y2="250.003" gradientUnits="userSpaceOnUse">
<stop stop-color="#FFD361"/>
<stop offset="1" stop-color="#FFCF6D"/>
</linearGradient>
<linearGradient id="paint7_linear_14352_348651" x1="125" y1="0.000349739" x2="125" y2="250.003" gradientUnits="userSpaceOnUse">
<stop offset="0.85" stop-color="#FFBF20"/>
<stop offset="1" stop-color="#DFA310"/>
</linearGradient>
<linearGradient id="paint8_linear_14352_348651" x1="125" y1="0.000349739" x2="125" y2="250.003" gradientUnits="userSpaceOnUse">
<stop stop-color="#FFECC4"/>
<stop offset="0.15" stop-color="#FFECC4" stop-opacity="0"/>
</linearGradient>
<linearGradient id="paint9_linear_14352_348651" x1="126.998" y1="50.0278" x2="126.998" y2="207.912" gradientUnits="userSpaceOnUse">
<stop stop-color="#DC9B00"/>
<stop offset="1" stop-color="#AE7B00"/>
</linearGradient>
<linearGradient id="paint10_linear_14352_348651" x1="126.998" y1="50.0278" x2="126.998" y2="207.912" gradientUnits="userSpaceOnUse">
<stop stop-color="#DC9B00"/>
<stop offset="1" stop-color="#AA7700"/>
</linearGradient>
<linearGradient id="paint11_linear_14352_348651" x1="124.998" y1="46.0278" x2="124.998" y2="203.912" gradientUnits="userSpaceOnUse">
<stop stop-color="white"/>
<stop offset="1" stop-color="#FADD99"/>
</linearGradient>
<linearGradient id="paint12_linear_14352_348651" x1="124.998" y1="46.0278" x2="124.998" y2="203.912" gradientUnits="userSpaceOnUse">
<stop stop-color="white"/>
<stop offset="0.25" stop-color="#FFF5DC"/>
<stop offset="1" stop-color="#FADD99"/>
</linearGradient>
</defs>
</svg>
