<svg width="251" height="251" viewBox="0 0 251 251" fill="none" xmlns="http://www.w3.org/2000/svg">
<rect x="0.5" y="0.5" width="250" height="250" rx="125" fill="#233461"/>
<path d="M125 154.992L91.2018 121.194L99.5459 112.608L119.063 132.125V65.625H130.938V132.125L150.454 112.608L158.798 121.194L125 154.992ZM79.9364 184.375C75.9371 184.375 72.5521 182.99 69.7813 180.219C67.0104 177.448 65.625 174.063 65.625 170.064V148.598H77.5V170.064C77.5 170.673 77.754 171.231 78.262 171.738C78.7686 172.246 79.3268 172.5 79.9364 172.5H170.064C170.673 172.5 171.231 172.246 171.738 171.738C172.246 171.231 172.5 170.673 172.5 170.064V148.598H184.375V170.064C184.375 174.063 182.99 177.448 180.219 180.219C177.448 182.99 174.063 184.375 170.064 184.375H79.9364Z" fill="#91B0FF"/>
</svg>
