<?xml version="1.0" encoding="UTF-8"?>
<svg version="1.1" xmlns="http://www.w3.org/2000/svg" width="90" height="72">
<path d="M0 0 C2.5 0.25 2.5 0.25 4.5 2.25 C4.79294475 5.79871042 4.91514158 9.30723437 4.97851562 12.86523438 C5.14103698 17.42772407 5.48383337 20.58800271 8.5 24.25 C11.71313111 26.2808335 14.25135103 26.50262009 18.01538086 26.50878906 C19.12010239 26.51509338 20.22482391 26.52139771 21.36302185 26.52789307 C23.14592369 26.52182037 23.14592369 26.52182037 24.96484375 26.515625 C26.19030411 26.51753845 27.41576447 26.5194519 28.67835999 26.52142334 C31.26986903 26.5227843 33.86138491 26.51909408 36.45288086 26.51074219 C40.41861309 26.50005092 44.38389135 26.51063613 48.34960938 26.5234375 C50.8671885 26.52211571 53.38476734 26.51955291 55.90234375 26.515625 C57.08892075 26.51967346 58.27549774 26.52372192 59.49803162 26.52789307 C60.6059053 26.52158875 61.71377899 26.51528442 62.85522461 26.50878906 C63.82689072 26.50719788 64.79855682 26.50560669 65.79966736 26.50396729 C68.73057965 26.2283139 70.87189829 25.56441995 73.5 24.25 C76.42799183 19.49201328 75.91245685 13.64453375 76.06640625 8.22460938 C76.29833229 2.45166771 76.29833229 2.45166771 78.5 0.25 C81.5625 0.0625 81.5625 0.0625 84.5 0.25 C86.9697224 2.7197224 85.87851217 8.94261351 85.9375 12.25 C85.98326172 13.26707031 86.02902344 14.28414062 86.07617188 15.33203125 C86.17290311 21.88452106 85.1442453 26.02323627 81.38305664 31.41015625 C77.13012157 35.56549383 72.70854688 36.6271452 66.90307617 36.68579102 C64.96527534 36.71450035 64.96527534 36.71450035 62.98832703 36.74378967 C61.58987773 36.74837703 60.19142386 36.7517182 58.79296875 36.75390625 C57.34336559 36.76355993 55.89376529 36.77365333 54.44416809 36.78416443 C51.41054517 36.80208474 48.37717794 36.80768983 45.34350586 36.8059082 C41.47642165 36.80560378 37.61099559 36.84653049 33.7443037 36.89822483 C30.75088637 36.93176121 27.75786238 36.93766055 24.7642765 36.93607903 C23.33982956 36.93959409 21.91536967 36.95272204 20.49110985 36.97607613 C11.59622483 37.10826621 5.15239599 36.54446762 -1.5 30.25 C-5.46370688 25.06610801 -4.91437171 19.25899765 -4.8125 13 C-4.81572266 11.99453125 -4.81894531 10.9890625 -4.82226562 9.953125 C-4.75220047 0.47522005 -4.75220047 0.47522005 0 0 Z " fill="#FFFFFF" transform="translate(4.5,35.75)"/>
<path d="M0 0 C3 0.25 3 0.25 5 2.25 C5.24543141 4.89787789 5.37349386 7.44903823 5.4140625 10.1015625 C5.43342865 10.87559418 5.4527948 11.64962585 5.4727478 12.44711304 C5.5325983 14.92296275 5.57895011 17.39885883 5.625 19.875 C5.66317482 21.55210377 5.70222625 23.22918784 5.7421875 24.90625 C5.83830409 29.02067353 5.92231439 33.13518886 6 37.25 C6.39268066 36.82589844 6.78536133 36.40179688 7.18994141 35.96484375 C8.98558806 34.04414031 10.80463584 32.14728095 12.625 30.25 C13.55119141 29.24839844 13.55119141 29.24839844 14.49609375 28.2265625 C19.18750491 23.38700151 19.18750491 23.38700151 23.3359375 22.6875 C26 23.25 26 23.25 28 25.25 C28.42407227 27.53222656 28.42407227 27.53222656 28 30.25 C25.99975586 32.91308594 25.99975586 32.91308594 23.21484375 35.734375 C22.72093643 36.23543762 22.22702911 36.73650024 21.71815491 37.25274658 C20.67096692 38.30770708 19.61735324 39.35632268 18.55786133 40.39892578 C16.94776276 41.9898594 15.36907003 43.60781983 13.79101562 45.23046875 C12.76739657 46.25437831 11.74205841 47.2765727 10.71484375 48.296875 C9.78792725 49.22338867 8.86101074 50.14990234 7.90600586 51.10449219 C4.42530882 53.67429523 2.31082187 54.24634495 -2 54.25 C-7.74493782 51.74344899 -11.96872794 46.68978693 -16.34936523 42.32617188 C-17.81381829 40.87369249 -19.29591503 39.44092269 -20.77929688 38.0078125 C-21.70419922 37.09 -22.62910156 36.1721875 -23.58203125 35.2265625 C-24.42999268 34.39205566 -25.2779541 33.55754883 -26.15161133 32.69775391 C-28 30.25 -28 30.25 -28.40112305 27.56396484 C-28 25.25 -28 25.25 -26 23.25 C-23.3359375 22.6875 -23.3359375 22.6875 -20 23.25 C-17.22434784 25.28618108 -14.95689247 27.72824573 -12.625 30.25 C-11.98433594 30.91773437 -11.34367187 31.58546875 -10.68359375 32.2734375 C-9.10799808 33.91958223 -7.54809281 35.57803435 -6 37.25 C-5.98018066 36.20021973 -5.96036133 35.15043945 -5.93994141 34.06884766 C-5.86397802 30.18106739 -5.77524702 26.29366597 -5.68261719 22.40625 C-5.64428896 20.72240671 -5.60944288 19.03848045 -5.578125 17.35449219 C-5.53255713 14.93654694 -5.47455077 12.51917472 -5.4140625 10.1015625 C-5.39673569 8.96867294 -5.39673569 8.96867294 -5.37905884 7.81289673 C-5.16968829 0.43080736 -5.16968829 0.43080736 0 0 Z " fill="#FFFFFF" transform="translate(45,-0.25)"/>
</svg>
