<svg width="24" height="24" viewBox="0 0 24 24" fill="none" xmlns="http://www.w3.org/2000/svg">
    <path d="M6 13.5C5.5875 13.5 5.23442 13.3531 4.94075 13.0592C4.64692 12.7656 4.5 12.4125 4.5 12C4.5 11.5875 4.64692 11.2344 4.94075 10.9408C5.23442 10.6469 5.5875 10.5 6 10.5C6.4125 10.5 6.76567 10.6469 7.0595 10.9408C7.35317 11.2344 7.5 11.5875 7.5 12C7.5 12.4125 7.35317 12.7656 7.0595 13.0592C6.76567 13.3531 6.4125 13.5 6 13.5ZM11.7693 13.5C11.3568 13.5 11.0037 13.3531 10.71 13.0592C10.4162 12.7656 10.2693 12.4125 10.2693 12C10.2693 11.5875 10.4162 11.2344 10.71 10.9408C11.0037 10.6469 11.3568 10.5 11.7693 10.5C12.1818 10.5 12.5348 10.6469 12.8285 10.9408C13.1223 11.2344 13.2693 11.5875 13.2693 12C13.2693 12.4125 13.1223 12.7656 12.8285 13.0592C12.5348 13.3531 12.1818 13.5 11.7693 13.5ZM17.5385 13.5C17.126 13.5 16.7728 13.3531 16.479 13.0592C16.1853 12.7656 16.0385 12.4125 16.0385 12C16.0385 11.5875 16.1853 11.2344 16.479 10.9408C16.7728 10.6469 17.126 10.5 17.5385 10.5C17.951 10.5 18.3041 10.6469 18.5978 10.9408C18.8916 11.2344 19.0385 11.5875 19.0385 12C19.0385 12.4125 18.8916 12.7656 18.5978 13.0592C18.3041 13.3531 17.951 13.5 17.5385 13.5Z" fill="#91B0FF"/>
</svg>