<svg width="32" height="32" viewBox="0 0 32 32" fill="none" xmlns="http://www.w3.org/2000/svg">
    <path d="M15.9993 26.6663V23.9997H19.9993L25.9993 15.9997L19.9993 7.99967H5.33268V14.6663H2.66602V7.99967C2.66602 7.26634 2.92713 6.63856 3.44935 6.11634C3.97157 5.59412 4.59935 5.33301 5.33268 5.33301H19.9993C20.4216 5.33301 20.8216 5.42745 21.1993 5.61634C21.5771 5.80523 21.8882 6.06634 22.1327 6.39967L29.3327 15.9997L22.1327 25.5997C21.8882 25.933 21.5771 26.1941 21.1993 26.383C20.8216 26.5719 20.4216 26.6663 19.9993 26.6663H15.9993ZM6.66602 27.9997V23.9997H2.66602V21.333H6.66602V17.333H9.33268V21.333H13.3327V23.9997H9.33268V27.9997H6.66602Z" fill="white"/>
</svg>
