<svg width="15" height="20" viewBox="0 0 15 20" fill="none" xmlns="http://www.w3.org/2000/svg">
    <g clip-path="url(#clip0_13954_76615)">
        <path d="M13.4861 8.86758C13.2754 9.0776 13.1001 9.29358 12.9815 9.61009C12.8631 9.92659 12.8044 10.2712 12.72 10.8163C12.5991 11.5923 12.3633 11.8974 12.1765 12.0901C11.7953 12.4832 11.2536 12.461 10.5934 12.3306C10.1787 12.2486 10.0709 12.3473 9.57774 12.7734L6.97776 15.3473L6.97656 19.2548C6.97656 19.3248 7.06157 19.3601 7.11124 19.3105L14.7903 11.6467C14.8938 11.5432 14.9525 11.4032 14.9525 11.2566L14.9621 7.38379L13.4861 8.86699V8.86758Z" fill="white"/>
        <path d="M10.3875 11.3125C10.8879 11.3269 11.2368 11.6889 11.6486 11.4292C12.0604 11.1695 12.049 10.8806 12.1286 10.4031C12.2088 9.92505 12.3674 9.36922 12.5087 9.03417C12.6505 8.69853 12.9672 8.26954 13.2892 7.95664L14.9489 6.23051L14.9597 4.49122C14.9597 4.38474 14.8316 4.33089 14.7562 4.40627L7.20819 11.9515C7.05974 12.0999 6.97656 12.3009 6.97656 12.5104V14.2227L9.52627 11.6643C9.52627 11.6643 9.88658 11.2988 10.3869 11.3131L10.3875 11.3125Z" fill="white"/>
        <path d="M14.9621 3.0649L6.97656 11.0684V9.35968C6.97656 9.15029 7.05974 8.94925 7.20819 8.80088L14.758 1.25381C14.8328 1.17902 14.9615 1.23168 14.9615 1.33817V3.0649H14.9621Z" fill="white"/>
        <path d="M14.3484 0.0235924L0.829552 2.96786C0.345347 3.07316 0 3.50155 0 3.99696V13.8649C0 14.0114 0.0580568 14.152 0.1622 14.2561L5.85056 19.9425C5.96667 20.0585 6.16539 19.9766 6.16539 19.812V9.23633C6.16599 8.88752 6.30484 8.55247 6.55143 8.30597L14.5184 0.334114C14.6483 0.204281 14.5286 -0.0152976 14.349 0.0235924H14.3484Z" fill="white"/>
    </g>
    <defs>
        <clipPath id="clip0_13954_76615">
            <rect width="14.9665" height="20" fill="white"/>
        </clipPath>
    </defs>
</svg>
