<svg width="21" height="21" viewBox="0 0 21 21" fill="none" xmlns="http://www.w3.org/2000/svg">
<path d="M8.52246 11.2326C8.94665 11.2326 9.35335 11.4014 9.65332 11.7013C9.95325 12.0013 10.122 12.408 10.1221 12.8322V16.0324C10.1221 16.4566 9.95329 16.8632 9.65332 17.1632C9.35334 17.4632 8.94669 17.6319 8.52246 17.632H5.32227C4.89805 17.6319 4.49138 17.4632 4.19141 17.1632C3.89145 16.8632 3.72267 16.4566 3.72266 16.0324V12.8322C3.72277 12.408 3.89147 12.0013 4.19141 11.7013C4.49137 11.4014 4.89809 11.2326 5.32227 11.2326H8.52246ZM16.5234 11.2326C16.9477 11.2326 17.3552 11.4013 17.6553 11.7013C17.9551 12.0012 18.1229 12.4081 18.123 12.8322V16.0324C18.123 16.4565 17.955 16.8633 17.6553 17.1632C17.3552 17.4633 16.9477 17.632 16.5234 17.632H13.3242C12.8999 17.632 12.4924 17.4633 12.1924 17.1632C11.8925 16.8633 11.7236 16.4566 11.7236 16.0324V12.8322C11.7237 12.4081 11.8925 12.0013 12.1924 11.7013C12.4924 11.4013 12.8999 11.2326 13.3242 11.2326H16.5234ZM8.52246 3.23356C8.94668 3.23363 9.35335 3.40234 9.65332 3.70231C9.95329 4.00228 10.122 4.40895 10.1221 4.83317V8.03336C10.122 8.45758 9.95329 8.86425 9.65332 9.16422C9.35335 9.46419 8.94668 9.63291 8.52246 9.63297H5.32227C4.89804 9.63292 4.49139 9.4642 4.19141 9.16422C3.89143 8.86424 3.72272 8.45759 3.72266 8.03336V4.83317C3.72272 4.40895 3.89143 4.00228 4.19141 3.70231C4.49139 3.40234 4.89804 3.23362 5.32227 3.23356H8.52246ZM14.9229 3.23356C15.1187 3.2336 15.3077 3.30555 15.4541 3.43571C15.6005 3.56585 15.6938 3.74512 15.7168 3.93961L15.7227 4.03336V5.63297H17.3223C17.5262 5.6332 17.7228 5.71176 17.8711 5.85172C18.0191 5.99157 18.1081 6.18263 18.1201 6.3859C18.1321 6.5893 18.0662 6.79015 17.9355 6.94645C17.8047 7.1028 17.6185 7.20362 17.416 7.2277L17.3223 7.23356H15.7227V8.83317C15.7224 9.03684 15.6446 9.23284 15.5049 9.38102C15.3649 9.52927 15.1733 9.61906 14.9697 9.63102C14.7662 9.64297 14.5655 9.57633 14.4092 9.44547C14.253 9.3147 14.1531 9.12917 14.1289 8.92692L14.123 8.83317V7.23356H12.5234C12.3196 7.23333 12.1229 7.15477 11.9746 7.01481C11.8264 6.87485 11.7375 6.68314 11.7256 6.47965C11.7138 6.2764 11.7796 6.07628 11.9102 5.92008C12.041 5.76373 12.2272 5.66291 12.4297 5.63883L12.5234 5.63297H14.123V4.03336C14.1231 3.82122 14.2074 3.61794 14.3574 3.46793C14.5074 3.31795 14.7107 3.23356 14.9229 3.23356Z" fill="#D7E2F7"/>
<path d="M8.52246 11.2326C8.94665 11.2326 9.35335 11.4014 9.65332 11.7013C9.95325 12.0013 10.122 12.408 10.1221 12.8322V16.0324C10.1221 16.4566 9.95329 16.8632 9.65332 17.1632C9.35334 17.4632 8.94669 17.6319 8.52246 17.632H5.32227C4.89805 17.6319 4.49138 17.4632 4.19141 17.1632C3.89145 16.8632 3.72267 16.4566 3.72266 16.0324V12.8322C3.72277 12.408 3.89147 12.0013 4.19141 11.7013C4.49137 11.4014 4.89809 11.2326 5.32227 11.2326H8.52246ZM16.5234 11.2326C16.9477 11.2326 17.3552 11.4013 17.6553 11.7013C17.9551 12.0012 18.1229 12.4081 18.123 12.8322V16.0324C18.123 16.4565 17.955 16.8633 17.6553 17.1632C17.3552 17.4633 16.9477 17.632 16.5234 17.632H13.3242C12.8999 17.632 12.4924 17.4633 12.1924 17.1632C11.8925 16.8633 11.7236 16.4566 11.7236 16.0324V12.8322C11.7237 12.4081 11.8925 12.0013 12.1924 11.7013C12.4924 11.4013 12.8999 11.2326 13.3242 11.2326H16.5234ZM8.52246 3.23356C8.94668 3.23363 9.35335 3.40234 9.65332 3.70231C9.95329 4.00228 10.122 4.40895 10.1221 4.83317V8.03336C10.122 8.45758 9.95329 8.86425 9.65332 9.16422C9.35335 9.46419 8.94668 9.63291 8.52246 9.63297H5.32227C4.89804 9.63292 4.49139 9.4642 4.19141 9.16422C3.89143 8.86424 3.72272 8.45759 3.72266 8.03336V4.83317C3.72272 4.40895 3.89143 4.00228 4.19141 3.70231C4.49139 3.40234 4.89804 3.23362 5.32227 3.23356H8.52246ZM14.9229 3.23356C15.1187 3.2336 15.3077 3.30555 15.4541 3.43571C15.6005 3.56585 15.6938 3.74512 15.7168 3.93961L15.7227 4.03336V5.63297H17.3223C17.5262 5.6332 17.7228 5.71176 17.8711 5.85172C18.0191 5.99157 18.1081 6.18263 18.1201 6.3859C18.1321 6.5893 18.0662 6.79015 17.9355 6.94645C17.8047 7.1028 17.6185 7.20362 17.416 7.2277L17.3223 7.23356H15.7227V8.83317C15.7224 9.03684 15.6446 9.23284 15.5049 9.38102C15.3649 9.52927 15.1733 9.61906 14.9697 9.63102C14.7662 9.64297 14.5655 9.57633 14.4092 9.44547C14.253 9.3147 14.1531 9.12917 14.1289 8.92692L14.123 8.83317V7.23356H12.5234C12.3196 7.23333 12.1229 7.15477 11.9746 7.01481C11.8264 6.87485 11.7375 6.68314 11.7256 6.47965C11.7138 6.2764 11.7796 6.07628 11.9102 5.92008C12.041 5.76373 12.2272 5.66291 12.4297 5.63883L12.5234 5.63297H14.123V4.03336C14.1231 3.82122 14.2074 3.61794 14.3574 3.46793C14.5074 3.31795 14.7107 3.23356 14.9229 3.23356Z" fill="url(#paint0_linear_10793_51421)"/>
<path d="M8.52246 11.2326C8.94665 11.2326 9.35335 11.4014 9.65332 11.7013C9.95325 12.0013 10.122 12.408 10.1221 12.8322V16.0324C10.1221 16.4566 9.95329 16.8632 9.65332 17.1632C9.35334 17.4632 8.94669 17.6319 8.52246 17.632H5.32227C4.89805 17.6319 4.49138 17.4632 4.19141 17.1632C3.89145 16.8632 3.72267 16.4566 3.72266 16.0324V12.8322C3.72277 12.408 3.89147 12.0013 4.19141 11.7013C4.49137 11.4014 4.89809 11.2326 5.32227 11.2326H8.52246ZM16.5234 11.2326C16.9477 11.2326 17.3552 11.4013 17.6553 11.7013C17.9551 12.0012 18.1229 12.4081 18.123 12.8322V16.0324C18.123 16.4565 17.955 16.8633 17.6553 17.1632C17.3552 17.4633 16.9477 17.632 16.5234 17.632H13.3242C12.8999 17.632 12.4924 17.4633 12.1924 17.1632C11.8925 16.8633 11.7236 16.4566 11.7236 16.0324V12.8322C11.7237 12.4081 11.8925 12.0013 12.1924 11.7013C12.4924 11.4013 12.8999 11.2326 13.3242 11.2326H16.5234ZM8.52246 3.23356C8.94668 3.23363 9.35335 3.40234 9.65332 3.70231C9.95329 4.00228 10.122 4.40895 10.1221 4.83317V8.03336C10.122 8.45758 9.95329 8.86425 9.65332 9.16422C9.35335 9.46419 8.94668 9.63291 8.52246 9.63297H5.32227C4.89804 9.63292 4.49139 9.4642 4.19141 9.16422C3.89143 8.86424 3.72272 8.45759 3.72266 8.03336V4.83317C3.72272 4.40895 3.89143 4.00228 4.19141 3.70231C4.49139 3.40234 4.89804 3.23362 5.32227 3.23356H8.52246ZM14.9229 3.23356C15.1187 3.2336 15.3077 3.30555 15.4541 3.43571C15.6005 3.56585 15.6938 3.74512 15.7168 3.93961L15.7227 4.03336V5.63297H17.3223C17.5262 5.6332 17.7228 5.71176 17.8711 5.85172C18.0191 5.99157 18.1081 6.18263 18.1201 6.3859C18.1321 6.5893 18.0662 6.79015 17.9355 6.94645C17.8047 7.1028 17.6185 7.20362 17.416 7.2277L17.3223 7.23356H15.7227V8.83317C15.7224 9.03684 15.6446 9.23284 15.5049 9.38102C15.3649 9.52927 15.1733 9.61906 14.9697 9.63102C14.7662 9.64297 14.5655 9.57633 14.4092 9.44547C14.253 9.3147 14.1531 9.12917 14.1289 8.92692L14.123 8.83317V7.23356H12.5234C12.3196 7.23333 12.1229 7.15477 11.9746 7.01481C11.8264 6.87485 11.7375 6.68314 11.7256 6.47965C11.7138 6.2764 11.7796 6.07628 11.9102 5.92008C12.041 5.76373 12.2272 5.66291 12.4297 5.63883L12.5234 5.63297H14.123V4.03336C14.1231 3.82122 14.2074 3.61794 14.3574 3.46793C14.5074 3.31795 14.7107 3.23356 14.9229 3.23356Z" fill="url(#paint1_linear_10793_51421)"/>
<path d="M8.52246 11.2326C8.94665 11.2326 9.35335 11.4014 9.65332 11.7013C9.95325 12.0013 10.122 12.408 10.1221 12.8322V16.0324C10.1221 16.4566 9.95329 16.8632 9.65332 17.1632C9.35334 17.4632 8.94669 17.6319 8.52246 17.632H5.32227C4.89805 17.6319 4.49138 17.4632 4.19141 17.1632C3.89145 16.8632 3.72267 16.4566 3.72266 16.0324V12.8322C3.72277 12.408 3.89147 12.0013 4.19141 11.7013C4.49137 11.4014 4.89809 11.2326 5.32227 11.2326H8.52246ZM16.5234 11.2326C16.9477 11.2326 17.3552 11.4013 17.6553 11.7013C17.9551 12.0012 18.1229 12.4081 18.123 12.8322V16.0324C18.123 16.4565 17.955 16.8633 17.6553 17.1632C17.3552 17.4633 16.9477 17.632 16.5234 17.632H13.3242C12.8999 17.632 12.4924 17.4633 12.1924 17.1632C11.8925 16.8633 11.7236 16.4566 11.7236 16.0324V12.8322C11.7237 12.4081 11.8925 12.0013 12.1924 11.7013C12.4924 11.4013 12.8999 11.2326 13.3242 11.2326H16.5234ZM8.52246 3.23356C8.94668 3.23363 9.35335 3.40234 9.65332 3.70231C9.95329 4.00228 10.122 4.40895 10.1221 4.83317V8.03336C10.122 8.45758 9.95329 8.86425 9.65332 9.16422C9.35335 9.46419 8.94668 9.63291 8.52246 9.63297H5.32227C4.89804 9.63292 4.49139 9.4642 4.19141 9.16422C3.89143 8.86424 3.72272 8.45759 3.72266 8.03336V4.83317C3.72272 4.40895 3.89143 4.00228 4.19141 3.70231C4.49139 3.40234 4.89804 3.23362 5.32227 3.23356H8.52246ZM14.9229 3.23356C15.1187 3.2336 15.3077 3.30555 15.4541 3.43571C15.6005 3.56585 15.6938 3.74512 15.7168 3.93961L15.7227 4.03336V5.63297H17.3223C17.5262 5.6332 17.7228 5.71176 17.8711 5.85172C18.0191 5.99157 18.1081 6.18263 18.1201 6.3859C18.1321 6.5893 18.0662 6.79015 17.9355 6.94645C17.8047 7.1028 17.6185 7.20362 17.416 7.2277L17.3223 7.23356H15.7227V8.83317C15.7224 9.03684 15.6446 9.23284 15.5049 9.38102C15.3649 9.52927 15.1733 9.61906 14.9697 9.63102C14.7662 9.64297 14.5655 9.57633 14.4092 9.44547C14.253 9.3147 14.1531 9.12917 14.1289 8.92692L14.123 8.83317V7.23356H12.5234C12.3196 7.23333 12.1229 7.15477 11.9746 7.01481C11.8264 6.87485 11.7375 6.68314 11.7256 6.47965C11.7138 6.2764 11.7796 6.07628 11.9102 5.92008C12.041 5.76373 12.2272 5.66291 12.4297 5.63883L12.5234 5.63297H14.123V4.03336C14.1231 3.82122 14.2074 3.61794 14.3574 3.46793C14.5074 3.31795 14.7107 3.23356 14.9229 3.23356Z" fill="url(#paint2_linear_10793_51421)"/>
<path d="M8.52246 11.2326C8.94665 11.2326 9.35335 11.4014 9.65332 11.7013C9.95325 12.0013 10.122 12.408 10.1221 12.8322V16.0324C10.1221 16.4566 9.95329 16.8632 9.65332 17.1632C9.35334 17.4632 8.94669 17.6319 8.52246 17.632H5.32227C4.89805 17.6319 4.49138 17.4632 4.19141 17.1632C3.89145 16.8632 3.72267 16.4566 3.72266 16.0324V12.8322C3.72277 12.408 3.89147 12.0013 4.19141 11.7013C4.49137 11.4014 4.89809 11.2326 5.32227 11.2326H8.52246ZM16.5234 11.2326C16.9477 11.2326 17.3552 11.4013 17.6553 11.7013C17.9551 12.0012 18.1229 12.4081 18.123 12.8322V16.0324C18.123 16.4565 17.955 16.8633 17.6553 17.1632C17.3552 17.4633 16.9477 17.632 16.5234 17.632H13.3242C12.8999 17.632 12.4924 17.4633 12.1924 17.1632C11.8925 16.8633 11.7236 16.4566 11.7236 16.0324V12.8322C11.7237 12.4081 11.8925 12.0013 12.1924 11.7013C12.4924 11.4013 12.8999 11.2326 13.3242 11.2326H16.5234ZM8.52246 3.23356C8.94668 3.23363 9.35335 3.40234 9.65332 3.70231C9.95329 4.00228 10.122 4.40895 10.1221 4.83317V8.03336C10.122 8.45758 9.95329 8.86425 9.65332 9.16422C9.35335 9.46419 8.94668 9.63291 8.52246 9.63297H5.32227C4.89804 9.63292 4.49139 9.4642 4.19141 9.16422C3.89143 8.86424 3.72272 8.45759 3.72266 8.03336V4.83317C3.72272 4.40895 3.89143 4.00228 4.19141 3.70231C4.49139 3.40234 4.89804 3.23362 5.32227 3.23356H8.52246ZM14.9229 3.23356C15.1187 3.2336 15.3077 3.30555 15.4541 3.43571C15.6005 3.56585 15.6938 3.74512 15.7168 3.93961L15.7227 4.03336V5.63297H17.3223C17.5262 5.6332 17.7228 5.71176 17.8711 5.85172C18.0191 5.99157 18.1081 6.18263 18.1201 6.3859C18.1321 6.5893 18.0662 6.79015 17.9355 6.94645C17.8047 7.1028 17.6185 7.20362 17.416 7.2277L17.3223 7.23356H15.7227V8.83317C15.7224 9.03684 15.6446 9.23284 15.5049 9.38102C15.3649 9.52927 15.1733 9.61906 14.9697 9.63102C14.7662 9.64297 14.5655 9.57633 14.4092 9.44547C14.253 9.3147 14.1531 9.12917 14.1289 8.92692L14.123 8.83317V7.23356H12.5234C12.3196 7.23333 12.1229 7.15477 11.9746 7.01481C11.8264 6.87485 11.7375 6.68314 11.7256 6.47965C11.7138 6.2764 11.7796 6.07628 11.9102 5.92008C12.041 5.76373 12.2272 5.66291 12.4297 5.63883L12.5234 5.63297H14.123V4.03336C14.1231 3.82122 14.2074 3.61794 14.3574 3.46793C14.5074 3.31795 14.7107 3.23356 14.9229 3.23356Z" fill="#D7E2F7"/>
<defs>
<linearGradient id="paint0_linear_10793_51421" x1="10.9229" y1="3.23356" x2="10.9229" y2="17.632" gradientUnits="userSpaceOnUse">
<stop stop-color="#D7E2F7"/>
<stop offset="1" stop-color="#8C9FBB"/>
</linearGradient>
<linearGradient id="paint1_linear_10793_51421" x1="10.9229" y1="3.23356" x2="10.9229" y2="17.632" gradientUnits="userSpaceOnUse">
<stop stop-color="#D7E2F7"/>
<stop offset="1" stop-color="#8C9FBB"/>
</linearGradient>
<linearGradient id="paint2_linear_10793_51421" x1="10.9229" y1="3.23356" x2="10.9229" y2="17.632" gradientUnits="userSpaceOnUse">
<stop stop-color="#D7E2F7"/>
<stop offset="1" stop-color="#8C9FBB"/>
</linearGradient>
</defs>
</svg>
