<svg width="21" height="21" viewBox="0 0 21 21" fill="none" xmlns="http://www.w3.org/2000/svg">
<path d="M3.84765 2.43371C3.59857 2.4376 3.36121 2.54016 3.18766 2.71888C3.01411 2.8976 2.91855 3.13788 2.92196 3.38697V16.5527C2.92196 17.5806 3.77483 18.4335 4.80273 18.4335H17.9681C18.0927 18.4353 18.2164 18.4122 18.3321 18.3658C18.4477 18.3193 18.553 18.2503 18.6417 18.1628C18.7304 18.0753 18.8009 17.971 18.849 17.8561C18.8971 17.7411 18.9219 17.6177 18.9219 17.4931C18.9219 17.3685 18.8971 17.2451 18.849 17.1301C18.8009 17.0151 18.7304 16.9109 18.6417 16.8234C18.553 16.7359 18.4477 16.6669 18.3321 16.6204C18.2164 16.5739 18.0927 16.5509 17.9681 16.5527H4.80273V3.38697C4.80445 3.26116 4.78091 3.13627 4.7335 3.01972C4.68609 2.90316 4.61578 2.79731 4.52672 2.70842C4.43766 2.61953 4.33167 2.54942 4.21503 2.50223C4.09839 2.45504 3.97346 2.43174 3.84765 2.43371ZM17.9497 5.25861C17.7054 5.26589 17.4735 5.36799 17.3032 5.5433L14.2066 8.64003L12.0503 6.48371C11.8739 6.30741 11.6348 6.20838 11.3854 6.20838C11.1361 6.20838 10.8969 6.30741 10.7205 6.48371L6.01862 11.1857C5.92836 11.2724 5.85631 11.3762 5.80667 11.491C5.75703 11.6059 5.73081 11.7295 5.72954 11.8546C5.72827 11.9797 5.75197 12.1038 5.79926 12.2197C5.84655 12.3355 5.91648 12.4407 6.00495 12.5292C6.09342 12.6177 6.19865 12.6876 6.31449 12.7349C6.43032 12.7822 6.55443 12.8059 6.67953 12.8046C6.80464 12.8034 6.92824 12.7771 7.04309 12.7275C7.15794 12.6779 7.26173 12.6058 7.34838 12.5155L11.3854 8.4784L13.5417 10.6347C13.718 10.811 13.9572 10.9101 14.2066 10.9101C14.4559 10.9101 14.6951 10.811 14.8714 10.6347L18.633 6.8731C18.7689 6.741 18.8617 6.57094 18.8993 6.38519C18.9368 6.19944 18.9174 6.00667 18.8436 5.83215C18.7697 5.65762 18.6448 5.50948 18.4853 5.40713C18.3259 5.30479 18.1392 5.25302 17.9497 5.25861Z" fill="url(#paint0_linear_10793_51470)"/>
<path d="M3.84765 2.43371C3.59857 2.4376 3.36121 2.54016 3.18766 2.71888C3.01411 2.8976 2.91855 3.13788 2.92196 3.38697V16.5527C2.92196 17.5806 3.77483 18.4335 4.80273 18.4335H17.9681C18.0927 18.4353 18.2164 18.4122 18.3321 18.3658C18.4477 18.3193 18.553 18.2503 18.6417 18.1628C18.7304 18.0753 18.8009 17.971 18.849 17.8561C18.8971 17.7411 18.9219 17.6177 18.9219 17.4931C18.9219 17.3685 18.8971 17.2451 18.849 17.1301C18.8009 17.0151 18.7304 16.9109 18.6417 16.8234C18.553 16.7359 18.4477 16.6669 18.3321 16.6204C18.2164 16.5739 18.0927 16.5509 17.9681 16.5527H4.80273V3.38697C4.80445 3.26116 4.78091 3.13627 4.7335 3.01972C4.68609 2.90316 4.61578 2.79731 4.52672 2.70842C4.43766 2.61953 4.33167 2.54942 4.21503 2.50223C4.09839 2.45504 3.97346 2.43174 3.84765 2.43371ZM17.9497 5.25861C17.7054 5.26589 17.4735 5.36799 17.3032 5.5433L14.2066 8.64003L12.0503 6.48371C11.8739 6.30741 11.6348 6.20838 11.3854 6.20838C11.1361 6.20838 10.8969 6.30741 10.7205 6.48371L6.01862 11.1857C5.92836 11.2724 5.85631 11.3762 5.80667 11.491C5.75703 11.6059 5.73081 11.7295 5.72954 11.8546C5.72827 11.9797 5.75197 12.1038 5.79926 12.2197C5.84655 12.3355 5.91648 12.4407 6.00495 12.5292C6.09342 12.6177 6.19865 12.6876 6.31449 12.7349C6.43032 12.7822 6.55443 12.8059 6.67953 12.8046C6.80464 12.8034 6.92824 12.7771 7.04309 12.7275C7.15794 12.6779 7.26173 12.6058 7.34838 12.5155L11.3854 8.4784L13.5417 10.6347C13.718 10.811 13.9572 10.9101 14.2066 10.9101C14.4559 10.9101 14.6951 10.811 14.8714 10.6347L18.633 6.8731C18.7689 6.741 18.8617 6.57094 18.8993 6.38519C18.9368 6.19944 18.9174 6.00667 18.8436 5.83215C18.7697 5.65762 18.6448 5.50948 18.4853 5.40713C18.3259 5.30479 18.1392 5.25302 17.9497 5.25861Z" fill="#D7E2F7"/>
<defs>
<linearGradient id="paint0_linear_10793_51470" x1="10.9219" y1="2.43359" x2="10.9219" y2="18.4336" gradientUnits="userSpaceOnUse">
<stop stop-color="#D7E2F7"/>
<stop offset="1" stop-color="#8C9FBB"/>
</linearGradient>
</defs>
</svg>
