<svg width="20" height="20" viewBox="0 0 20 20" fill="none" xmlns="http://www.w3.org/2000/svg">
    <path d="M3.70842 15.5708C4.60316 14.9069 5.5779 14.3826 6.63263 13.9979C7.68719 13.6133 8.80965 13.4211 10 13.4211C11.1904 13.4211 12.3128 13.6133 13.3674 13.9979C14.4221 14.3826 15.3968 14.9069 16.2916 15.5708C16.946 14.8515 17.4645 14.0189 17.8471 13.0729C18.2297 12.1269 18.4211 11.1026 18.4211 10C18.4211 7.66667 17.6009 5.67982 15.9605 4.03947C14.3202 2.39912 12.3333 1.57895 10 1.57895C7.66667 1.57895 5.67982 2.39912 4.03947 4.03947C2.39912 5.67982 1.57895 7.66667 1.57895 10C1.57895 11.1026 1.77026 12.1269 2.15289 13.0729C2.53553 14.0189 3.05403 14.8515 3.70842 15.5708ZM10.0003 10.7895C9.03921 10.7895 8.22877 10.4596 7.56895 9.8C6.90895 9.14017 6.57895 8.32974 6.57895 7.36868C6.57895 6.40763 6.90877 5.59719 7.56842 4.93737C8.22825 4.27737 9.03868 3.94737 9.99974 3.94737C10.9608 3.94737 11.7712 4.27719 12.4311 4.93684C13.0911 5.59667 13.4211 6.4071 13.4211 7.36816C13.4211 8.32921 13.0912 9.13965 12.4316 9.79947C11.7718 10.4595 10.9613 10.7895 10.0003 10.7895ZM10 20C8.6114 20 7.30877 19.7389 6.09211 19.2166C4.87544 18.6943 3.81711 17.9831 2.91711 17.0829C2.01693 16.1829 1.3057 15.1246 0.783421 13.9079C0.26114 12.6912 0 11.3886 0 10C0 8.6114 0.26114 7.30877 0.783421 6.09211C1.3057 4.87544 2.01693 3.8171 2.91711 2.9171C3.81711 2.01693 4.87544 1.3057 6.09211 0.783422C7.30877 0.261141 8.6114 0 10 0C11.3886 0 12.6912 0.261141 13.9079 0.783422C15.1246 1.3057 16.1829 2.01693 17.0829 2.9171C17.9831 3.8171 18.6943 4.87544 19.2166 6.09211C19.7389 7.30877 20 8.6114 20 10C20 11.3886 19.7389 12.6912 19.2166 13.9079C18.6943 15.1246 17.9831 16.1829 17.0829 17.0829C16.1829 17.9831 15.1246 18.6943 13.9079 19.2166C12.6912 19.7389 11.3886 20 10 20ZM10 18.4211C10.95 18.4211 11.866 18.2682 12.7479 17.9626C13.6298 17.6568 14.4129 17.2294 15.0971 16.6803C14.4129 16.1511 13.64 15.7389 12.7784 15.4434C11.9167 15.1478 10.9905 15 10 15C9.00947 15 8.08167 15.1461 7.21658 15.4382C6.35149 15.7304 5.58026 16.1445 4.90289 16.6803C5.58711 17.2294 6.37018 17.6568 7.2521 17.9626C8.13404 18.2682 9.05 18.4211 10 18.4211ZM10 9.21053C10.5237 9.21053 10.9616 9.03439 11.3137 8.68211C11.666 8.33 11.8421 7.89211 11.8421 7.36842C11.8421 6.84474 11.666 6.40684 11.3137 6.05474C10.9616 5.70246 10.5237 5.52632 10 5.52632C9.47632 5.52632 9.03842 5.70246 8.68632 6.05474C8.33403 6.40684 8.1579 6.84474 8.1579 7.36842C8.1579 7.89211 8.33403 8.33 8.68632 8.68211C9.03842 9.03439 9.47632 9.21053 10 9.21053Z" fill="white"/>
</svg>
