<svg width="21" height="21" viewBox="0 0 21 21" fill="none" xmlns="http://www.w3.org/2000/svg">
<path d="M5.74526 15.1423C6.49087 14.5891 7.30315 14.1522 8.1821 13.8316C9.0609 13.5111 9.99628 13.3509 10.9882 13.3509C11.9802 13.3509 12.9156 13.5111 13.7944 13.8316C14.6733 14.1522 15.4856 14.5891 16.2312 15.1423C16.7765 14.5429 17.2086 13.8491 17.5275 13.0608C17.8464 12.2724 18.0058 11.4189 18.0058 10.5C18.0058 8.55556 17.3223 6.89986 15.9553 5.5329C14.5884 4.16594 12.9327 3.48246 10.9882 3.48246C9.0438 3.48246 7.38809 4.16594 6.02114 5.5329C4.65418 6.89986 3.9707 8.55556 3.9707 10.5C3.9707 11.4189 4.13013 12.2724 4.44899 13.0608C4.76785 13.8491 5.19994 14.5429 5.74526 15.1423ZM10.9882 11.1579C10.1875 11.1579 9.51222 10.8829 8.96236 10.3329C8.41236 9.78305 8.13736 9.10775 8.13736 8.30702C8.13736 7.50629 8.41236 6.831 8.96236 6.28115C9.51222 5.73115 10.1875 5.45615 10.9882 5.45615C11.789 5.45615 12.4643 5.73115 13.0141 6.28115C13.5641 6.831 13.8391 7.50629 13.8391 8.30702C13.8391 9.10775 13.5641 9.78305 13.0141 10.3329C12.4643 10.8829 11.789 11.1579 10.9882 11.1579ZM10.9882 18.8333C9.83108 18.8333 8.74555 18.6157 7.73166 18.1805C6.71777 17.7453 5.83583 17.1526 5.08583 16.4024C4.33568 15.6524 3.74299 14.7705 3.30776 13.7566C2.87252 12.7427 2.65491 11.6572 2.65491 10.5C2.65491 9.34284 2.87252 8.25731 3.30776 7.24343C3.74299 6.22954 4.33568 5.34759 5.08583 4.59759C5.83583 3.84745 6.71777 3.25476 7.73166 2.81952C8.74555 2.38429 9.83108 2.16667 10.9882 2.16667C12.1454 2.16667 13.2309 2.38429 14.2448 2.81952C15.2587 3.25476 16.1407 3.84745 16.8907 4.59759C17.6408 5.34759 18.2335 6.22954 18.6687 7.24343C19.104 8.25731 19.3216 9.34284 19.3216 10.5C19.3216 11.6572 19.104 12.7427 18.6687 13.7566C18.2335 14.7705 17.6408 15.6524 16.8907 16.4024C16.1407 17.1526 15.2587 17.7453 14.2448 18.1805C13.2309 18.6157 12.1454 18.8333 10.9882 18.8333Z" fill="white"/>
</svg>
