<svg width="32" height="32" viewBox="0 0 32 32" fill="none" xmlns="http://www.w3.org/2000/svg">
    <g clip-path="url(#clip0_14260_313869)">
        <path d="M10.0742 13.2351C10.0742 12.3968 10.4072 11.5928 11 11C11.5928 10.4072 12.3968 10.0742 13.2351 10.0742H23.5059C23.921 10.0742 24.332 10.156 24.7155 10.3148C25.099 10.4737 25.4475 10.7065 25.741 11C26.0345 11.2935 26.2674 11.642 26.4262 12.0255C26.5851 12.409 26.6668 12.82 26.6668 13.2351V23.5059C26.6668 23.921 26.5851 24.332 26.4262 24.7155C26.2674 25.099 26.0345 25.4475 25.741 25.741C25.4475 26.0345 25.099 26.2674 24.7155 26.4262C24.332 26.5851 23.921 26.6668 23.5059 26.6668H13.2351C12.82 26.6668 12.409 26.5851 12.0255 26.4262C11.642 26.2674 11.2935 26.0345 11 25.741C10.7065 25.4475 10.4737 25.099 10.3148 24.7155C10.156 24.332 10.0742 23.921 10.0742 23.5059V13.2351Z" stroke="white" stroke-width="1.77778" stroke-linecap="round" stroke-linejoin="round"/>
        <path d="M6.53339 21.6139C6.16995 21.4067 5.86764 21.1072 5.65704 20.7457C5.44643 20.3843 5.33499 19.9736 5.33398 19.5552V7.70338C5.33398 6.39967 6.40065 5.33301 7.70435 5.33301H19.5562C20.4451 5.33301 20.9287 5.7893 21.334 6.51819" stroke="white" stroke-width="1.77778" stroke-linecap="round" stroke-linejoin="round"/>
    </g>
    <defs>
        <clipPath id="clip0_14260_313869">
            <rect width="32" height="32" fill="white"/>
        </clipPath>
    </defs>
</svg>
