<svg width="16" height="16" viewBox="0 0 16 16" fill="none" xmlns="http://www.w3.org/2000/svg">
<g clip-path="url(#clip0_15_5195)">
<path d="M4.66675 6.44466C4.66675 5.9731 4.85407 5.52086 5.18751 5.18742C5.52095 4.85398 5.97319 4.66666 6.44475 4.66666H12.2221C12.4556 4.66666 12.6868 4.71265 12.9025 4.802C13.1182 4.89135 13.3142 5.02232 13.4793 5.18742C13.6444 5.35252 13.7754 5.54853 13.8647 5.76425C13.9541 5.97996 14.0001 6.21117 14.0001 6.44466V12.222C14.0001 12.4555 13.9541 12.6867 13.8647 12.9024C13.7754 13.1181 13.6444 13.3141 13.4793 13.4792C13.3142 13.6443 13.1182 13.7753 12.9025 13.8646C12.6868 13.954 12.4556 14 12.2221 14H6.44475C6.21126 14 5.98005 13.954 5.76434 13.8646C5.54862 13.7753 5.35261 13.6443 5.18751 13.4792C5.02241 13.3141 4.89144 13.1181 4.80209 12.9024C4.71274 12.6867 4.66675 12.4555 4.66675 12.222V6.44466Z" stroke="#002860" style="stroke:#002860;stroke:color(display-p3 0.0000 0.1569 0.3765);stroke-opacity:1;" stroke-width="1.33333" stroke-linecap="round" stroke-linejoin="round"/>
<path d="M2.67467 11.158C2.47023 11.0415 2.30018 10.873 2.18172 10.6697C2.06325 10.4663 2.00057 10.2353 2 10V3.33333C2 2.6 2.6 2 3.33333 2H10C10.5 2 10.772 2.25667 11 2.66667" stroke="#002860" style="stroke:#002860;stroke:color(display-p3 0.0000 0.1569 0.3765);stroke-opacity:1;" stroke-width="1.33333" stroke-linecap="round" stroke-linejoin="round"/>
</g>
<defs>
<clipPath id="clip0_15_5195">
<rect width="16" height="16" fill="white" style="fill:white;fill-opacity:1;"/>
</clipPath>
</defs>
</svg>
