<svg width="32" height="32" viewBox="0 0 32 32" fill="none" xmlns="http://www.w3.org/2000/svg">
<path d="M16.0751 27.6395C12.8269 27.6395 10.0626 26.5093 7.78205 24.2488C5.50129 21.9883 4.36091 19.2388 4.36091 16.0004V14.8279L1.58254 17.6062L0 16.0237L5.48727 10.5361L10.9745 16.0237L9.392 17.6062L6.61363 14.8279V16.0004C6.61363 18.6093 7.53199 20.826 9.36872 22.6505C11.2057 24.4747 13.4411 25.3868 16.0751 25.3868C16.6971 25.3868 17.3185 25.319 17.9392 25.1833C18.5602 25.0474 19.1663 24.8438 19.7575 24.5724L21.4471 26.262C20.6018 26.7163 19.7291 27.0594 18.829 27.2915C17.9287 27.5235 17.0107 27.6395 16.0751 27.6395ZM26.5127 21.4648L21.0255 15.9771L22.608 14.3946L25.3864 17.173V16.0004C25.3864 13.3915 24.468 11.1748 22.6313 9.35037C20.7943 7.52616 18.5588 6.61406 15.9249 6.61406C15.3029 6.61406 14.6815 6.68189 14.0608 6.81755C13.4398 6.95347 12.8337 7.15709 12.2424 7.42842L10.5529 5.73887C11.3982 5.28457 12.2709 4.94141 13.1709 4.70938C14.0713 4.47734 14.9893 4.36133 15.9249 4.36133C19.1731 4.36133 21.9374 5.49157 24.2179 7.75206C26.4987 10.0125 27.6391 12.762 27.6391 16.0004V17.173L30.4175 14.3946L32 15.9771L26.5127 21.4648Z" fill="#E3E3E3"/>
<path d="M16.0751 27.6395C12.8269 27.6395 10.0626 26.5093 7.78205 24.2488C5.50129 21.9883 4.36091 19.2388 4.36091 16.0004V14.8279L1.58254 17.6062L0 16.0237L5.48727 10.5361L10.9745 16.0237L9.392 17.6062L6.61363 14.8279V16.0004C6.61363 18.6093 7.53199 20.826 9.36872 22.6505C11.2057 24.4747 13.4411 25.3868 16.0751 25.3868C16.6971 25.3868 17.3185 25.319 17.9392 25.1833C18.5602 25.0474 19.1663 24.8438 19.7575 24.5724L21.4471 26.262C20.6018 26.7163 19.7291 27.0594 18.829 27.2915C17.9287 27.5235 17.0107 27.6395 16.0751 27.6395ZM26.5127 21.4648L21.0255 15.9771L22.608 14.3946L25.3864 17.173V16.0004C25.3864 13.3915 24.468 11.1748 22.6313 9.35037C20.7943 7.52616 18.5588 6.61406 15.9249 6.61406C15.3029 6.61406 14.6815 6.68189 14.0608 6.81755C13.4398 6.95347 12.8337 7.15709 12.2424 7.42842L10.5529 5.73887C11.3982 5.28457 12.2709 4.94141 13.1709 4.70938C14.0713 4.47734 14.9893 4.36133 15.9249 4.36133C19.1731 4.36133 21.9374 5.49157 24.2179 7.75206C26.4987 10.0125 27.6391 12.762 27.6391 16.0004V17.173L30.4175 14.3946L32 15.9771L26.5127 21.4648Z" fill="url(#paint0_linear_11377_57035)"/>
<path d="M16.0751 27.6395C12.8269 27.6395 10.0626 26.5093 7.78205 24.2488C5.50129 21.9883 4.36091 19.2388 4.36091 16.0004V14.8279L1.58254 17.6062L0 16.0237L5.48727 10.5361L10.9745 16.0237L9.392 17.6062L6.61363 14.8279V16.0004C6.61363 18.6093 7.53199 20.826 9.36872 22.6505C11.2057 24.4747 13.4411 25.3868 16.0751 25.3868C16.6971 25.3868 17.3185 25.319 17.9392 25.1833C18.5602 25.0474 19.1663 24.8438 19.7575 24.5724L21.4471 26.262C20.6018 26.7163 19.7291 27.0594 18.829 27.2915C17.9287 27.5235 17.0107 27.6395 16.0751 27.6395ZM26.5127 21.4648L21.0255 15.9771L22.608 14.3946L25.3864 17.173V16.0004C25.3864 13.3915 24.468 11.1748 22.6313 9.35037C20.7943 7.52616 18.5588 6.61406 15.9249 6.61406C15.3029 6.61406 14.6815 6.68189 14.0608 6.81755C13.4398 6.95347 12.8337 7.15709 12.2424 7.42842L10.5529 5.73887C11.3982 5.28457 12.2709 4.94141 13.1709 4.70938C14.0713 4.47734 14.9893 4.36133 15.9249 4.36133C19.1731 4.36133 21.9374 5.49157 24.2179 7.75206C26.4987 10.0125 27.6391 12.762 27.6391 16.0004V17.173L30.4175 14.3946L32 15.9771L26.5127 21.4648Z" fill="#91B0FF"/>
<defs>
<linearGradient id="paint0_linear_11377_57035" x1="16" y1="4.36133" x2="16" y2="27.6395" gradientUnits="userSpaceOnUse">
<stop stop-color="#91B0FF"/>
<stop offset="1" stop-color="#7199FF"/>
</linearGradient>
</defs>
</svg>
