<svg width="24" height="24" viewBox="0 0 24 24" fill="none" xmlns="http://www.w3.org/2000/svg">
    <path d="M11 21.9995V17.8495L7.75 21.0495L6.35 19.6495L11 14.9995V12.9995H9L4.35 17.6495L2.95 16.2495L6.15 12.9995H2V10.9995H6.15L2.95 7.74951L4.35 6.34951L9 10.9995H11V8.99951L6.35 4.34951L7.75 2.94951L11 6.14951V1.99951H13V6.14951L16.25 2.94951L17.65 4.34951L13 8.99951V10.9995H15L19.65 6.34951L21.05 7.74951L17.85 10.9995H22V12.9995H17.85L21.05 16.2495L19.65 17.6495L15 12.9995H13V14.9995L17.65 19.6495L16.25 21.0495L13 17.8495V21.9995H11Z" fill="white"/>
</svg>
