<svg width="21" height="20" viewBox="0 0 21 20" fill="none" xmlns="http://www.w3.org/2000/svg">
<path d="M11.4394 1.61378L19.2379 9.41233C19.7838 9.95823 19.3973 10.8915 18.6253 10.8915H17.7588V16.0905C17.7588 16.7799 17.4849 17.4411 16.9974 17.9286C16.5099 18.4161 15.8487 18.69 15.1593 18.69H14.2928V12.6245C14.2928 11.9614 14.0395 11.3234 13.5846 10.841C13.1297 10.3586 12.5077 10.0682 11.8457 10.0293L11.6932 10.025H9.96023C9.27079 10.025 8.60959 10.2988 8.12209 10.7863C7.63458 11.2738 7.36071 11.935 7.36071 12.6245V18.69H6.4942C5.80477 18.69 5.14357 18.4161 4.65606 17.9286C4.16856 17.4411 3.89468 16.7799 3.89468 16.0905V10.8915H3.02818C2.25699 10.8915 1.86966 9.95823 2.41556 9.41233L10.2141 1.61378C10.3766 1.45133 10.597 1.36008 10.8267 1.36008C11.0565 1.36008 11.2769 1.45133 11.4394 1.61378ZM11.6932 11.758C11.923 11.758 12.1434 11.8493 12.3059 12.0118C12.4685 12.1743 12.5597 12.3947 12.5597 12.6245V18.69H9.09372V12.6245C9.09375 12.4122 9.17167 12.2074 9.3127 12.0488C9.45373 11.8902 9.64807 11.7889 9.85884 11.764L9.96023 11.758H11.6932Z" fill="#D7E2F7"/>
<path d="M11.4394 1.61378L19.2379 9.41233C19.7838 9.95823 19.3973 10.8915 18.6253 10.8915H17.7588V16.0905C17.7588 16.7799 17.4849 17.4411 16.9974 17.9286C16.5099 18.4161 15.8487 18.69 15.1593 18.69H14.2928V12.6245C14.2928 11.9614 14.0395 11.3234 13.5846 10.841C13.1297 10.3586 12.5077 10.0682 11.8457 10.0293L11.6932 10.025H9.96023C9.27079 10.025 8.60959 10.2988 8.12209 10.7863C7.63458 11.2738 7.36071 11.935 7.36071 12.6245V18.69H6.4942C5.80477 18.69 5.14357 18.4161 4.65606 17.9286C4.16856 17.4411 3.89468 16.7799 3.89468 16.0905V10.8915H3.02818C2.25699 10.8915 1.86966 9.95823 2.41556 9.41233L10.2141 1.61378C10.3766 1.45133 10.597 1.36008 10.8267 1.36008C11.0565 1.36008 11.2769 1.45133 11.4394 1.61378ZM11.6932 11.758C11.923 11.758 12.1434 11.8493 12.3059 12.0118C12.4685 12.1743 12.5597 12.3947 12.5597 12.6245V18.69H9.09372V12.6245C9.09375 12.4122 9.17167 12.2074 9.3127 12.0488C9.45373 11.8902 9.64807 11.7889 9.85884 11.764L9.96023 11.758H11.6932Z" fill="url(#paint0_linear_10793_51269)" fill-opacity="0.75"/>
<path d="M11.4394 1.61378L19.2379 9.41233C19.7838 9.95823 19.3973 10.8915 18.6253 10.8915H17.7588V16.0905C17.7588 16.7799 17.4849 17.4411 16.9974 17.9286C16.5099 18.4161 15.8487 18.69 15.1593 18.69H14.2928V12.6245C14.2928 11.9614 14.0395 11.3234 13.5846 10.841C13.1297 10.3586 12.5077 10.0682 11.8457 10.0293L11.6932 10.025H9.96023C9.27079 10.025 8.60959 10.2988 8.12209 10.7863C7.63458 11.2738 7.36071 11.935 7.36071 12.6245V18.69H6.4942C5.80477 18.69 5.14357 18.4161 4.65606 17.9286C4.16856 17.4411 3.89468 16.7799 3.89468 16.0905V10.8915H3.02818C2.25699 10.8915 1.86966 9.95823 2.41556 9.41233L10.2141 1.61378C10.3766 1.45133 10.597 1.36008 10.8267 1.36008C11.0565 1.36008 11.2769 1.45133 11.4394 1.61378ZM11.6932 11.758C11.923 11.758 12.1434 11.8493 12.3059 12.0118C12.4685 12.1743 12.5597 12.3947 12.5597 12.6245V18.69H9.09372V12.6245C9.09375 12.4122 9.17167 12.2074 9.3127 12.0488C9.45373 11.8902 9.64807 11.7889 9.85884 11.764L9.96023 11.758H11.6932Z" fill="url(#paint1_linear_10793_51269)"/>
<path d="M11.4394 1.61378L19.2379 9.41233C19.7838 9.95823 19.3973 10.8915 18.6253 10.8915H17.7588V16.0905C17.7588 16.7799 17.4849 17.4411 16.9974 17.9286C16.5099 18.4161 15.8487 18.69 15.1593 18.69H14.2928V12.6245C14.2928 11.9614 14.0395 11.3234 13.5846 10.841C13.1297 10.3586 12.5077 10.0682 11.8457 10.0293L11.6932 10.025H9.96023C9.27079 10.025 8.60959 10.2988 8.12209 10.7863C7.63458 11.2738 7.36071 11.935 7.36071 12.6245V18.69H6.4942C5.80477 18.69 5.14357 18.4161 4.65606 17.9286C4.16856 17.4411 3.89468 16.7799 3.89468 16.0905V10.8915H3.02818C2.25699 10.8915 1.86966 9.95823 2.41556 9.41233L10.2141 1.61378C10.3766 1.45133 10.597 1.36008 10.8267 1.36008C11.0565 1.36008 11.2769 1.45133 11.4394 1.61378ZM11.6932 11.758C11.923 11.758 12.1434 11.8493 12.3059 12.0118C12.4685 12.1743 12.5597 12.3947 12.5597 12.6245V18.69H9.09372V12.6245C9.09375 12.4122 9.17167 12.2074 9.3127 12.0488C9.45373 11.8902 9.64807 11.7889 9.85884 11.764L9.96023 11.758H11.6932Z" fill="#D7E2F7"/>
<defs>
<linearGradient id="paint0_linear_10793_51269" x1="10.8268" y1="1.36008" x2="10.8268" y2="18.69" gradientUnits="userSpaceOnUse">
<stop stop-color="#D7E2F7"/>
<stop offset="1" stop-color="#8C9FBB"/>
</linearGradient>
<linearGradient id="paint1_linear_10793_51269" x1="10.8268" y1="1.36008" x2="10.8268" y2="18.69" gradientUnits="userSpaceOnUse">
<stop stop-color="#D7E2F7"/>
<stop offset="1" stop-color="#8C9FBB"/>
</linearGradient>
</defs>
</svg>
