<svg width="23" height="23" viewBox="0 0 23 23" fill="none" xmlns="http://www.w3.org/2000/svg">
    <path d="M12.2256 1.19971C12.9733 1.19971 13.6908 1.49734 14.2197 2.02588C14.5629 2.36909 14.8073 2.7926 14.9375 3.25146H16.3281C17.076 3.25148 17.7934 3.54893 18.3223 4.07764C18.8511 4.60647 19.1483 5.32391 19.1484 6.07178V18.3794C19.1484 19.1274 18.8512 19.8456 18.3223 20.3745C17.7934 20.9031 17.0759 21.2007 16.3281 21.2007H6.07129C5.32359 21.2004 4.60588 20.9032 4.07715 20.3745C3.54833 19.8456 3.25101 19.1273 3.25098 18.3794V6.07178C3.2511 5.32404 3.54849 4.60644 4.07715 4.07764C4.60588 3.54891 5.32357 3.2517 6.07129 3.25146H7.46289C7.59308 2.79263 7.83651 2.36908 8.17969 2.02588C8.70841 1.49716 9.42613 1.19996 10.1738 1.19971H12.2256ZM6.07129 4.79053C5.7316 4.79076 5.40526 4.92531 5.16504 5.16553C4.92489 5.40582 4.79017 5.73206 4.79004 6.07178V18.3794C4.79007 18.7193 4.92473 19.0462 5.16504 19.2866C5.40525 19.5268 5.73161 19.6614 6.07129 19.6616H16.3281C16.6679 19.6616 16.994 19.5267 17.2344 19.2866C17.4748 19.0462 17.6103 18.7194 17.6104 18.3794V6.07178C17.6102 5.73193 17.4747 5.40584 17.2344 5.16553C16.994 4.92534 16.668 4.79054 16.3281 4.79053H14.9375C14.8073 5.24931 14.5628 5.67207 14.2197 6.01514C13.6908 6.54389 12.9735 6.8413 12.2256 6.84131H10.1738C9.42614 6.84106 8.70841 6.54385 8.17969 6.01514C7.83684 5.67215 7.59308 5.24912 7.46289 4.79053H6.07129ZM10.1738 2.73877C9.83415 2.73902 9.50778 2.87357 9.26758 3.11377C9.02738 3.354 8.8928 3.68033 8.89258 4.02002C8.89258 4.35984 9.02741 4.68686 9.26758 4.92725C9.50778 5.16744 9.83416 5.30199 10.1738 5.30225H12.2256C12.5655 5.30224 12.8914 5.16748 13.1318 4.92725C13.3723 4.68682 13.5078 4.36004 13.5078 4.02002C13.5076 3.6803 13.3721 3.354 13.1318 3.11377C12.8915 2.87375 12.5653 2.73877 12.2256 2.73877H10.1738Z" fill="white"/>
</svg>
