<svg width="32" height="32" viewBox="0 0 32 32" fill="none" xmlns="http://www.w3.org/2000/svg">
<path d="M4 14.5887V4.00049H14.5882V14.5887H4ZM6.11765 12.4711H12.4706V6.11814H6.11765V12.4711ZM4 28.0005V17.4123H14.5882V28.0005H4ZM6.11765 25.8828H12.4706V19.5299H6.11765V25.8828ZM17.4118 14.5887V4.00049H28V14.5887H17.4118ZM19.5294 12.4711H25.8824V6.11814H19.5294V12.4711ZM25.3529 28.0005V25.3534H28V28.0005H25.3529ZM17.4118 20.0593V17.4123H20.0588V20.0593H17.4118ZM20.0588 22.7064V20.0593H22.7059V22.7064H20.0588ZM17.4118 25.3534V22.7064H20.0588V25.3534H17.4118ZM20.0588 28.0005V25.3534H22.7059V28.0005H20.0588ZM22.7059 25.3534V22.7064H25.3529V25.3534H22.7059ZM22.7059 20.0593V17.4123H25.3529V20.0593H22.7059ZM25.3529 22.7064V20.0593H28V22.7064H25.3529Z" fill="url(#paint0_linear_11377_57034)"/>
<path d="M4 14.5887V4.00049H14.5882V14.5887H4ZM6.11765 12.4711H12.4706V6.11814H6.11765V12.4711ZM4 28.0005V17.4123H14.5882V28.0005H4ZM6.11765 25.8828H12.4706V19.5299H6.11765V25.8828ZM17.4118 14.5887V4.00049H28V14.5887H17.4118ZM19.5294 12.4711H25.8824V6.11814H19.5294V12.4711ZM25.3529 28.0005V25.3534H28V28.0005H25.3529ZM17.4118 20.0593V17.4123H20.0588V20.0593H17.4118ZM20.0588 22.7064V20.0593H22.7059V22.7064H20.0588ZM17.4118 25.3534V22.7064H20.0588V25.3534H17.4118ZM20.0588 28.0005V25.3534H22.7059V28.0005H20.0588ZM22.7059 25.3534V22.7064H25.3529V25.3534H22.7059ZM22.7059 20.0593V17.4123H25.3529V20.0593H22.7059ZM25.3529 22.7064V20.0593H28V22.7064H25.3529Z" fill="#91B0FF"/>
<defs>
<linearGradient id="paint0_linear_11377_57034" x1="16" y1="4.00049" x2="16" y2="28.0005" gradientUnits="userSpaceOnUse">
<stop stop-color="#91B0FF"/>
<stop offset="1" stop-color="#7199FF"/>
</linearGradient>
</defs>
</svg>
