<svg width="32" height="32" viewBox="0 0 32 32" fill="none" xmlns="http://www.w3.org/2000/svg">
<path d="M6.55212 28.0005C5.83894 28.0005 5.23529 27.7534 4.74118 27.2593C4.24706 26.7652 4 26.1615 4 25.4484V20.2358H6.11765V25.4484C6.11765 25.5571 6.16294 25.6566 6.25353 25.747C6.34388 25.8375 6.44341 25.8828 6.55212 25.8828H11.7647V28.0005H6.55212ZM20.2353 28.0005V25.8828H25.4479C25.5566 25.8828 25.6561 25.8375 25.7465 25.747C25.8371 25.6566 25.8824 25.5571 25.8824 25.4484V20.2358H28V25.4484C28 26.1615 27.7529 26.7652 27.2588 27.2593C26.7647 27.7534 26.1611 28.0005 25.4479 28.0005H20.2353ZM4 11.7652V6.55261C4 5.83943 4.24706 5.23578 4.74118 4.74166C5.23529 4.24755 5.83894 4.00049 6.55212 4.00049H11.7647V6.11814H6.55212C6.44341 6.11814 6.34388 6.16343 6.25353 6.25402C6.16294 6.34437 6.11765 6.4439 6.11765 6.55261V11.7652H4ZM25.8824 11.7652V6.55261C25.8824 6.4439 25.8371 6.34437 25.7465 6.25402C25.6561 6.16343 25.5566 6.11814 25.4479 6.11814H20.2353V4.00049H25.4479C26.1611 4.00049 26.7647 4.24755 27.2588 4.74166C27.7529 5.23578 28 5.83943 28 6.55261V11.7652H25.8824Z" fill="white"/>
<path d="M6.55212 28.0005C5.83894 28.0005 5.23529 27.7534 4.74118 27.2593C4.24706 26.7652 4 26.1615 4 25.4484V20.2358H6.11765V25.4484C6.11765 25.5571 6.16294 25.6566 6.25353 25.747C6.34388 25.8375 6.44341 25.8828 6.55212 25.8828H11.7647V28.0005H6.55212ZM20.2353 28.0005V25.8828H25.4479C25.5566 25.8828 25.6561 25.8375 25.7465 25.747C25.8371 25.6566 25.8824 25.5571 25.8824 25.4484V20.2358H28V25.4484C28 26.1615 27.7529 26.7652 27.2588 27.2593C26.7647 27.7534 26.1611 28.0005 25.4479 28.0005H20.2353ZM4 11.7652V6.55261C4 5.83943 4.24706 5.23578 4.74118 4.74166C5.23529 4.24755 5.83894 4.00049 6.55212 4.00049H11.7647V6.11814H6.55212C6.44341 6.11814 6.34388 6.16343 6.25353 6.25402C6.16294 6.34437 6.11765 6.4439 6.11765 6.55261V11.7652H4ZM25.8824 11.7652V6.55261C25.8824 6.4439 25.8371 6.34437 25.7465 6.25402C25.6561 6.16343 25.5566 6.11814 25.4479 6.11814H20.2353V4.00049H25.4479C26.1611 4.00049 26.7647 4.24755 27.2588 4.74166C27.7529 5.23578 28 5.83943 28 6.55261V11.7652H25.8824Z" fill="white"/>
</svg>
