<svg width="30" height="30" viewBox="0 0 30 30" fill="none" xmlns="http://www.w3.org/2000/svg">
<path d="M21.6116 12.863C21.9102 10.867 20.3905 9.79406 18.3126 9.07828L18.9866 6.37453L17.3409 5.96438L16.6846 8.59688C16.252 8.48906 15.8076 8.38734 15.366 8.28656L16.027 5.63672L14.3821 5.22656L13.7076 7.92938C13.3495 7.84781 12.9979 7.76719 12.6566 7.68234L12.6585 7.67391L10.3888 7.10719L9.95102 8.865C9.95102 8.865 11.1721 9.14484 11.1463 9.16219C11.8129 9.32859 11.9334 9.76969 11.9132 10.1194L11.1454 13.1995C11.1913 13.2113 11.2509 13.2281 11.3165 13.2544C11.2616 13.2408 11.203 13.2258 11.1426 13.2113L10.0663 17.5261C9.98477 17.7286 9.77805 18.0323 9.31211 17.917C9.32852 17.9409 8.11586 17.6184 8.11586 17.6184L7.29883 19.5023L9.44055 20.0363C9.83898 20.1361 10.2295 20.2406 10.6138 20.3391L9.93273 23.0738L11.5766 23.4839L12.2512 20.7783C12.7002 20.9002 13.1362 21.0127 13.5627 21.1186L12.8905 23.8116L14.5363 24.2217L15.2174 21.4922C18.0238 22.0233 20.1341 21.8091 21.0224 19.2708C21.7382 17.227 20.9868 16.0481 19.5102 15.2794C20.5855 15.0314 21.3955 14.3241 21.6116 12.863ZM17.8513 18.1359C17.3427 20.1797 13.9016 19.0748 12.786 18.7978L13.6898 15.1748C14.8054 15.4533 18.3829 16.0045 17.8513 18.1359ZM18.3604 12.8334C17.8963 14.6925 15.0323 13.748 14.1032 13.5164L14.9226 10.2305C15.8516 10.462 18.8437 10.8942 18.3604 12.8334Z" fill="#91B0FF"/>
</svg>
