<svg width="30" height="30" viewBox="0 0 30 30" fill="none" xmlns="http://www.w3.org/2000/svg">
<path d="M0.451172 11.374C2.45366 3.33735 10.5926 -1.55412 18.627 0.449219C26.6632 2.45266 31.5532 10.5936 29.5498 18.6299C27.5462 26.6654 19.4076 31.5555 11.3711 29.5518C3.33775 27.5483 -1.55302 19.4092 0.451172 11.374ZM13.71 7.92969C13.352 7.84816 13.0003 7.76742 12.6592 7.68262L12.6602 7.67383L10.3906 7.10742L9.95312 8.86523C9.95865 8.8665 11.1672 9.14339 11.1484 9.16211C11.8147 9.32844 11.9351 9.76953 11.915 10.1191L11.1475 13.2002C11.1934 13.2119 11.2528 13.2287 11.3184 13.2549C11.2636 13.2413 11.2049 13.2264 11.1445 13.2119L10.0684 17.5264C9.98679 17.7288 9.78023 18.0322 9.31445 17.917C9.33071 17.9407 8.14044 17.6251 8.11816 17.6191L7.30078 19.5029L9.44238 20.0361C9.84082 20.136 10.2318 20.2404 10.6162 20.3389L9.93457 23.0742L11.5791 23.4844L12.2529 20.7783C12.7019 20.9002 13.138 21.0132 13.5645 21.1191L12.8926 23.8115L14.5381 24.2217L15.2197 21.4922C18.0259 22.0232 20.1361 21.8093 21.0244 19.2715C21.7402 17.2278 20.9891 16.048 19.5127 15.2793C20.5878 15.0312 21.3972 14.3241 21.6133 12.8633C21.9119 10.8673 20.3924 9.79391 18.3145 9.07812L18.9883 6.375L17.3428 5.96484L16.6865 8.59668C16.254 8.4889 15.8096 8.38786 15.3682 8.28711L16.0293 5.63672L14.3838 5.22656L13.71 7.92969ZM13.6914 15.1748C14.807 15.4532 18.3845 16.0047 17.8535 18.1357C17.3449 20.1795 13.9037 19.0749 12.7881 18.7979L13.6914 15.1748ZM14.9248 10.2305C15.854 10.462 18.8456 10.8948 18.3623 12.834C17.898 14.6925 15.0346 13.7482 14.1055 13.5166L14.9248 10.2305Z" fill="#91B0FF"/>
<path d="M0.451172 11.374C2.45366 3.33735 10.5926 -1.55412 18.627 0.449219C26.6632 2.45266 31.5532 10.5936 29.5498 18.6299C27.5462 26.6654 19.4076 31.5555 11.3711 29.5518C3.33775 27.5483 -1.55302 19.4092 0.451172 11.374ZM13.71 7.92969C13.352 7.84816 13.0003 7.76742 12.6592 7.68262L12.6602 7.67383L10.3906 7.10742L9.95312 8.86523C9.95865 8.8665 11.1672 9.14339 11.1484 9.16211C11.8147 9.32844 11.9351 9.76953 11.915 10.1191L11.1475 13.2002C11.1934 13.2119 11.2528 13.2287 11.3184 13.2549C11.2636 13.2413 11.2049 13.2264 11.1445 13.2119L10.0684 17.5264C9.98679 17.7288 9.78023 18.0322 9.31445 17.917C9.33071 17.9407 8.14044 17.6251 8.11816 17.6191L7.30078 19.5029L9.44238 20.0361C9.84082 20.136 10.2318 20.2404 10.6162 20.3389L9.93457 23.0742L11.5791 23.4844L12.2529 20.7783C12.7019 20.9002 13.138 21.0132 13.5645 21.1191L12.8926 23.8115L14.5381 24.2217L15.2197 21.4922C18.0259 22.0232 20.1361 21.8093 21.0244 19.2715C21.7402 17.2278 20.9891 16.048 19.5127 15.2793C20.5878 15.0312 21.3972 14.3241 21.6133 12.8633C21.9119 10.8673 20.3924 9.79391 18.3145 9.07812L18.9883 6.375L17.3428 5.96484L16.6865 8.59668C16.254 8.4889 15.8096 8.38786 15.3682 8.28711L16.0293 5.63672L14.3838 5.22656L13.71 7.92969ZM13.6914 15.1748C14.807 15.4532 18.3845 16.0047 17.8535 18.1357C17.3449 20.1795 13.9037 19.0749 12.7881 18.7979L13.6914 15.1748ZM14.9248 10.2305C15.854 10.462 18.8456 10.8948 18.3623 12.834C17.898 14.6925 15.0346 13.7482 14.1055 13.5166L14.9248 10.2305Z" fill="#91B0FF"/>
</svg>
