<svg width="15" height="20" viewBox="0 0 15 20" fill="none" xmlns="http://www.w3.org/2000/svg">
    <path d="M11.1038 16.1567L7.22953 20.0082L5.99421 18.7725L7.63516 17.1316C6.59769 17.1166 5.58735 16.938 4.60416 16.5959C3.62072 16.254 2.78465 15.7364 2.09595 15.043C1.40725 14.3496 0.885807 13.5626 0.531632 12.6818C0.177211 11.8013 0 10.9087 0 10.0041C0 9.35961 0.0841233 8.72617 0.252369 8.10379C0.420615 7.4814 0.680351 6.88677 1.03158 6.31989L2.34095 7.57253C2.15404 7.95617 2.00998 8.35677 1.90879 8.77432C1.80784 9.19186 1.75737 9.6094 1.75737 10.0269C1.75737 10.6938 1.89098 11.3606 2.15821 12.0275C2.42544 12.6946 2.81891 13.2878 3.33863 13.8073C3.86375 14.3327 4.51083 14.7252 5.27984 14.9848C6.04886 15.2446 6.89058 15.367 7.805 15.3517L5.99421 13.5409L7.22953 12.3053L11.1038 16.1567Z" fill="white"/>
    <path d="M14.0453 11.9044C13.8773 12.5268 13.6176 13.1214 13.2661 13.6883L11.9567 12.4357C12.1439 12.052 12.2879 11.6514 12.3889 11.2339C12.4901 10.8163 12.5407 10.3988 12.5407 9.98126C12.5407 9.31368 12.4061 8.64598 12.1369 7.97816C11.8675 7.31058 11.4763 6.71988 10.9635 6.20605C10.4506 5.69247 9.79841 5.30195 9.00679 5.03447C8.21493 4.76724 7.3694 4.63363 6.47021 4.63363L8.30384 6.46726L7.06816 7.70295L3.19421 3.85147L7.06816 0L8.30384 1.23568L6.6629 2.89911C7.69644 2.89911 8.7096 3.06637 9.70237 3.40089C10.6951 3.73542 11.5335 4.24937 12.2176 4.94274C12.911 5.63168 13.4309 6.4217 13.7775 7.31279C14.1243 8.20412 14.2977 9.10123 14.2977 10.0041C14.2977 10.6486 14.2136 11.282 14.0453 11.9044Z" fill="white"/>
</svg>
