<svg width="30" height="30" viewBox="0 0 30 30" fill="none" xmlns="http://www.w3.org/2000/svg">
<path d="M0.452148 11.374C2.45463 3.33744 10.5927 -1.55301 18.627 0.450195C26.6632 2.45363 31.5532 10.5936 29.5498 18.6299C27.5463 26.6655 19.4077 31.5556 11.3711 29.5518C3.33775 27.5483 -1.55221 19.4093 0.452148 11.374ZM15.6875 8.12598L9.5 17.0635H12.9375L12.25 21.876H13.625L20.5 13.626H16.375L17.0625 8.12598H15.6875Z" fill="#91B0FF"/>
<path d="M0.452148 11.374C2.45463 3.33744 10.5927 -1.55301 18.627 0.450195C26.6632 2.45363 31.5532 10.5936 29.5498 18.6299C27.5463 26.6655 19.4077 31.5556 11.3711 29.5518C3.33775 27.5483 -1.55221 19.4093 0.452148 11.374ZM15.6875 8.12598L9.5 17.0635H12.9375L12.25 21.876H13.625L20.5 13.626H16.375L17.0625 8.12598H15.6875Z" fill="#91B0FF"/>
</svg>
