<svg width="36" height="36" viewBox="0 0 36 36" fill="none" xmlns="http://www.w3.org/2000/svg">
    <path
        d="M16.2283 28.2516L15.7565 25.513C15.0854 25.3201 14.5066 25.0841 14.0199 24.8051C13.5329 24.5261 13.055 24.1803 12.5861 23.7678L9.9853 24.6986L8.16016 21.7418L10.3106 19.9161C10.1296 19.2276 10.0391 18.5776 10.0391 17.9659C10.0391 17.3542 10.1296 16.7042 10.3106 16.0157L8.16016 14.19L9.9853 11.2332L12.5861 12.164C13.055 11.7515 13.5329 11.4057 14.0199 11.1267C14.5066 10.8477 15.0854 10.6117 15.7565 10.4187L16.2283 7.68018H19.7014L20.1732 10.4187C20.8443 10.6117 21.4231 10.8535 21.9098 11.1441C22.3968 11.435 22.8747 11.7987 23.3436 12.2352L25.9438 11.2332L27.7695 14.2612L25.6191 16.0869C25.8001 16.7279 25.8906 17.3662 25.8906 18.0018C25.8906 18.637 25.8001 19.2751 25.6191 19.9161L27.7695 21.7418L25.9438 24.6986L23.3436 23.7678C22.8747 24.1803 22.3968 24.5261 21.9098 24.8051C21.4231 25.0841 20.8443 25.3201 20.1732 25.513L19.7014 28.2516H16.2283ZM17.9648 22.775C19.2827 22.775 20.4136 22.3031 21.3575 21.3592C22.3018 20.4148 22.774 19.2838 22.774 17.9659C22.774 16.648 22.3018 15.5169 21.3575 14.5726C20.4136 13.6287 19.2827 13.1567 17.9648 13.1567C16.647 13.1567 15.5159 13.6287 14.5716 14.5726C13.6277 15.5169 13.1557 16.648 13.1557 17.9659C13.1557 19.2838 13.6277 20.4148 14.5716 21.3592C15.5159 22.3031 16.647 22.775 17.9648 22.775Z"
        fill="#91B0FF" />
</svg>
