<svg width="20" height="20" viewBox="0 0 20 20" fill="none" xmlns="http://www.w3.org/2000/svg">
    <path d="M4.16667 17.5C3.70833 17.5 3.31597 17.3368 2.98958 17.0104C2.66319 16.684 2.5 16.2917 2.5 15.8333V4.16667C2.5 3.70833 2.66319 3.31597 2.98958 2.98958C3.31597 2.66319 3.70833 2.5 4.16667 2.5H15.8333C16.2917 2.5 16.684 2.66319 17.0104 2.98958C17.3368 3.31597 17.5 3.70833 17.5 4.16667H10.8333C9.84722 4.16667 9.04514 4.47569 8.42708 5.09375C7.80903 5.71181 7.5 6.51389 7.5 7.5V12.5C7.5 13.4861 7.80903 14.2882 8.42708 14.9062C9.04514 15.5243 9.84722 15.8333 10.8333 15.8333H17.5C17.5 16.2917 17.3368 16.684 17.0104 17.0104C16.684 17.3368 16.2917 17.5 15.8333 17.5H4.16667ZM10.8333 14.1667C10.375 14.1667 9.98264 14.0035 9.65625 13.6771C9.32986 13.3507 9.16667 12.9583 9.16667 12.5V7.5C9.16667 7.04167 9.32986 6.64931 9.65625 6.32292C9.98264 5.99653 10.375 5.83333 10.8333 5.83333H16.6667C17.125 5.83333 17.5174 5.99653 17.8437 6.32292C18.1701 6.64931 18.3333 7.04167 18.3333 7.5V12.5C18.3333 12.9583 18.1701 13.3507 17.8437 13.6771C17.5174 14.0035 17.125 14.1667 16.6667 14.1667H10.8333ZM13.3333 11.25C13.6944 11.25 13.9931 11.1319 14.2292 10.8958C14.4653 10.6597 14.5833 10.3611 14.5833 10C14.5833 9.63889 14.4653 9.34028 14.2292 9.10417C13.9931 8.86806 13.6944 8.75 13.3333 8.75C12.9722 8.75 12.6736 8.86806 12.4375 9.10417C12.2014 9.34028 12.0833 9.63889 12.0833 10C12.0833 10.3611 12.2014 10.6597 12.4375 10.8958C12.6736 11.1319 12.9722 11.25 13.3333 11.25Z" fill="white"/>
</svg>
