<svg width="21" height="21" viewBox="0 0 21 21" fill="none" xmlns="http://www.w3.org/2000/svg">
<path d="M17.3883 4.49983C18.4739 4.50001 19.3883 5.41426 19.3883 6.49983V7.81429H19.3893V13.9862H19.3883V15.2996C19.3883 16.3852 18.4739 17.2995 17.3883 17.2996H5.38831C4.30259 17.2996 3.38831 16.3854 3.38831 15.2996V6.49983C3.38835 5.41415 4.30262 4.49983 5.38831 4.49983H17.3883ZM5.38831 5.78011C5.00954 5.78011 4.66863 6.12108 4.66858 6.49983V15.2996C4.66858 15.6784 5.00952 16.0194 5.38831 16.0194H17.3883C17.767 16.0192 18.108 15.6783 18.108 15.2996V13.9862H14.4752L14.3151 13.9813C12.7291 13.9017 11.4726 12.6454 11.3932 11.0594L11.3893 10.9002C11.3893 9.2396 12.6762 7.90039 14.3151 7.81819L14.4752 7.81429H18.108V6.49983C18.108 6.12118 17.7669 5.7803 17.3883 5.78011H5.38831ZM14.4752 9.09456C13.4679 9.09456 12.6696 9.89286 12.6696 10.9002C12.6699 11.9073 13.4681 12.7059 14.4752 12.7059H18.108V9.09456H14.4752ZM14.4723 9.86995C15.0402 9.87017 15.5006 10.3313 15.5006 10.8992C15.5003 11.467 15.04 11.9274 14.4723 11.9276C13.9044 11.9276 13.4433 11.4671 13.443 10.8992C13.443 10.3312 13.9042 9.86995 14.4723 9.86995Z" fill="#D7E2F7"/>
</svg>
