<?xml version="1.0" encoding="UTF-8"?>
<svg version="1.1" xmlns="http://www.w3.org/2000/svg" width="91" height="73">
<path d="M0 0 C2.4375 0.375 2.4375 0.375 4.4375 2.375 C4.73095979 6.13797169 4.85280132 9.86297888 4.91601562 13.63476562 C5.07383661 18.33475154 5.38513872 21.55767349 8.4375 25.375 C11.07637212 26.69443606 13.06193954 26.50934453 16.01708984 26.52026367 C17.18525238 26.52664352 18.35341492 26.53302338 19.55697632 26.53959656 C20.82465851 26.54070938 22.0923407 26.5418222 23.3984375 26.54296875 C24.69568756 26.54629715 25.99293762 26.54962555 27.32949829 26.55305481 C30.07839794 26.55904702 32.82726615 26.56089466 35.57617188 26.56030273 C39.09575276 26.5602012 42.61513152 26.57384407 46.13466454 26.59107494 C49.49342531 26.60488099 52.85214871 26.60428409 56.2109375 26.60546875 C57.47457123 26.61265427 58.73820496 26.61983978 60.04013062 26.62724304 C61.21459747 26.62416641 62.38906433 26.62108978 63.59912109 26.61791992 C64.6323349 26.61934494 65.66554871 26.62076996 66.73007202 26.62223816 C69.49612919 26.36964607 71.12493156 25.88685612 73.4375 24.375 C75.38258128 20.48483745 74.77146069 15.35556291 74.8671875 11.02734375 C75.00638162 7.47209391 75.10495897 4.99190139 76.8125 1.82421875 C78.4375 0.375 78.4375 0.375 81.0625 0.0625 C83.4375 0.375 83.4375 0.375 84.4375 1.375 C84.74774356 5.42956233 84.71603096 9.49753855 84.75 13.5625 C84.79350586 15.26889648 84.79350586 15.26889648 84.83789062 17.00976562 C84.88660128 23.42833159 84.88521996 27.5666541 80.4375 32.375 C75.04220088 36.53387641 71.28893412 37.49193149 64.60253906 37.53613281 C63.4274176 37.54574036 62.25229614 37.5553479 61.04156494 37.56524658 C59.14153717 37.5716214 59.14153717 37.5716214 57.203125 37.578125 C55.89599548 37.58382507 54.58886597 37.58952515 53.24212646 37.59539795 C50.47489027 37.60588965 47.70768296 37.61174386 44.94042969 37.61523438 C41.41224591 37.62070663 37.88445047 37.64471467 34.35638809 37.67320633 C30.97197524 37.69643092 27.58761334 37.69828905 24.203125 37.703125 C22.31524261 37.7216452 22.31524261 37.7216452 20.38922119 37.74053955 C12.99091094 37.72184586 6.43847227 37.56496438 0.4140625 32.76171875 C-0.03195313 32.20097656 -0.47796875 31.64023438 -0.9375 31.0625 C-1.39898438 30.50949219 -1.86046875 29.95648438 -2.3359375 29.38671875 C-5.59940959 24.03420879 -5.90140418 18.83352268 -5.875 12.75 C-5.89111328 11.99976563 -5.90722656 11.24953125 -5.92382812 10.4765625 C-5.92674557 7.18568809 -5.78976635 4.7929611 -4.203125 1.875 C-2.5625 0.375 -2.5625 0.375 0 0 Z " fill="#FFFFFF" transform="translate(6.5625,35.625)"/>
<path d="M0 0 C3.11547738 1.86401712 5.47313373 4.4143694 8 7 C9.09451746 8.07479029 10.19102567 9.14755546 11.2890625 10.21875 C22.04178799 20.78044859 22.04178799 20.78044859 24 24 C23.57446809 29.42553191 23.57446809 29.42553191 22 31 C17.41560412 30.95993662 14.75498431 30.15431042 11.47265625 27.05859375 C10.32017729 25.86660122 9.18362728 24.65902674 8.0625 23.4375 C7.47404297 22.82197266 6.88558594 22.20644531 6.27929688 21.57226562 C4.83878136 20.06148106 3.41739751 18.53249445 2 17 C1.98541748 17.9787207 1.97083496 18.95744141 1.95581055 19.96582031 C1.89774894 23.60404626 1.8205174 27.24165836 1.73754883 30.87939453 C1.70433628 32.45253522 1.67629283 34.02579401 1.65356445 35.59912109 C1.61994972 37.86346672 1.56763376 40.12673365 1.51171875 42.390625 C1.50213387 43.44240936 1.50213387 43.44240936 1.49235535 44.51544189 C1.36969605 48.60766307 0.87379966 51.01579825 -2 54 C-4.9375 53.625 -4.9375 53.625 -8 53 C-9.55495698 49.89008604 -9.24076956 46.56655951 -9.31640625 43.1484375 C-9.33718735 42.37440582 -9.35796844 41.60037415 -9.37937927 40.80288696 C-9.44483448 38.32701608 -9.50374087 35.85103798 -9.5625 33.375 C-9.60568907 31.69790552 -9.64930348 30.02082193 -9.69335938 28.34375 C-9.80051171 24.22927692 -9.90179045 20.11469586 -10 16 C-10.42297363 16.45963135 -10.84594727 16.9192627 -11.28173828 17.39282227 C-13.21090578 19.46761216 -15.16712324 21.51479556 -17.125 23.5625 C-17.79015625 24.28630859 -18.4553125 25.01011719 -19.140625 25.75585938 C-21.01949819 27.69920371 -22.78448203 29.44982158 -25 31 C-28.4296875 31.02734375 -28.4296875 31.02734375 -31 30 C-32 29 -32 29 -32.35888672 26.27270508 C-31.88370546 21.93950451 -30.35661975 20.65010418 -27.2578125 17.63671875 C-26.77424286 17.15926712 -26.29067322 16.68181549 -25.79244995 16.18989563 C-24.25017312 14.67447437 -22.68804134 13.18146329 -21.125 11.6875 C-20.08071769 10.66475095 -19.03773323 9.64067494 -17.99609375 8.61523438 C-7.59478737 -1.55686372 -7.59478737 -1.55686372 0 0 Z " fill="#FFFFFF" transform="translate(51,0)"/>
</svg>
