<svg width="100" height="100" viewBox="0 0 100 100" fill="none" xmlns="http://www.w3.org/2000/svg">
<rect width="100" height="100" rx="20" fill="#F7931A"/>
<path d="M74.5527 42.2225C75.6531 34.8671 70.0528 30.9131 62.3952 28.2753L64.8792 18.3116L58.8142 16.8001L56.3959 26.5013C54.8015 26.1039 53.1639 25.7291 51.5366 25.3577L53.9723 15.5926L47.9108 14.0811L45.4251 24.0414C44.1053 23.7408 42.8097 23.4438 41.5522 23.1311L41.5591 23.1L33.195 21.0115L31.5816 27.4893C31.5816 27.4893 36.0815 28.5206 35.9865 28.5845C38.4429 29.1977 38.8868 30.8232 38.8125 32.1119L35.983 43.4627C36.1523 43.5059 36.3717 43.5681 36.6135 43.6648C36.4114 43.6147 36.1955 43.5595 35.9727 43.5059L32.0065 59.4068C31.7059 60.153 30.9442 61.2724 29.2271 60.8474C29.2876 60.9355 24.8188 59.7471 24.8188 59.7471L21.8079 66.6896L29.7004 68.657C31.1687 69.025 32.6076 69.4102 34.0241 69.7729L31.5142 79.8507L37.5722 81.3622L40.058 71.3916C41.7129 71.8407 43.3194 72.2553 44.8913 72.6457L42.4142 82.5697L48.4791 84.0811L50.9891 74.0224C61.3311 75.9796 69.1079 75.1901 72.3814 65.8362C75.0191 58.3047 72.2501 53.9602 66.8087 51.1273C70.7714 50.2135 73.7564 47.6068 74.5527 42.2225ZM60.6954 61.6541C58.8211 69.1857 46.1402 65.1141 42.029 64.0932L45.3594 50.742C49.4707 51.7681 62.6543 53.7996 60.6954 61.6541ZM62.5714 42.1136C60.8612 48.9645 50.3067 45.4838 46.883 44.6305L49.9025 32.5213C53.3263 33.3747 64.3523 34.9673 62.5714 42.1136Z" fill="white"/>
</svg>
