<svg width="100" height="100" viewBox="0 0 100 100" fill="none" xmlns="http://www.w3.org/2000/svg">
<rect width="100" height="100" rx="20" fill="#0080BC"/>
<g clip-path="url(#clip0_1796_8124)">
<path d="M48.295 13.5958L28.0864 46.8476C27.9279 47.1082 27.5597 47.1373 27.3631 46.9039C25.5841 44.7915 18.956 35.8046 27.1575 27.6136C34.6414 20.1394 44.1738 14.8104 47.7065 12.9685C48.1073 12.7596 48.5295 13.2098 48.295 13.5958Z" fill="white"/>
<path d="M47.1773 85.9954C47.5807 86.2778 48.0775 85.7964 47.8073 85.3851C43.2934 78.5197 28.2888 55.6765 26.216 52.2476C24.1716 48.8653 20.1506 43.2443 19.8152 38.4353C19.7817 37.9553 19.1178 37.8578 18.9508 38.3093C18.6815 39.0373 18.3948 39.9064 18.1275 40.8992C14.7539 53.4315 19.6535 66.7299 30.2942 74.1779L47.1773 85.9954Z" fill="white"/>
<path d="M49.9531 85.4041L70.1617 52.1524C70.3201 51.8918 70.6884 51.8627 70.885 52.0961C72.664 54.2083 79.292 63.1952 71.0906 71.3863C63.6067 78.8605 54.0744 84.1895 50.5415 86.0314C50.1408 86.2403 49.7186 85.7901 49.9531 85.4041Z" fill="white"/>
<path d="M51.0928 13.0001C50.6895 12.7178 50.1926 13.1992 50.4628 13.6103C54.9767 20.4758 69.9815 43.3189 72.054 46.7479C74.0986 50.1302 78.1195 55.7512 78.455 60.5601C78.4885 61.0403 79.1523 61.1378 79.3193 60.6863C79.5886 59.9581 79.8754 59.089 80.1427 58.0963C83.5162 45.5642 78.6167 32.2657 67.9759 24.8176L51.0928 13.0001Z" fill="white"/>
</g>
<defs>
<clipPath id="clip0_1796_8124">
<rect width="65.8537" height="75" fill="white" transform="translate(17.0732 12)"/>
</clipPath>
</defs>
</svg>
