<svg width="100" height="100" viewBox="0 0 100 100" fill="none" xmlns="http://www.w3.org/2000/svg">
<rect width="100" height="100" rx="20" fill="white"/>
<g clip-path="url(#clip0_1796_8061)">
<mask id="mask0_1796_8061" style="mask-type:luminance" maskUnits="userSpaceOnUse" x="30" y="7" width="39" height="85">
<path d="M68.6254 7H30.3754V92H68.6254V7Z" fill="white"/>
</mask>
<g mask="url(#mask0_1796_8061)">
<path fill-rule="evenodd" clip-rule="evenodd" d="M50.4602 62.2937V90.2068C50.4602 91.6904 49.5269 92.3988 48.3755 91.7711L32.5551 83.1131C31.2768 82.2526 30.4957 80.8197 30.4602 79.2804V52.0003C30.6935 52.1875 30.937 52.3491 31.1957 52.4911L50.4602 62.2937Z" fill="#765CD6"/>
<path fill-rule="evenodd" clip-rule="evenodd" d="M30.4986 27.0001V28.6668C30.4875 28.0585 30.4875 27.5056 30.4986 27.0001Z" fill="#765CD6"/>
<path fill-rule="evenodd" clip-rule="evenodd" d="M66.3823 8.91749V29.2234C66.3562 30.5088 65.679 31.5001 64.5952 32.1871L55.3363 37.0709L54.6596 37.2712L31.9748 25.8617C31.9435 25.8409 31.9123 25.8252 31.881 25.8096C31.7976 25.768 31.7143 25.742 31.6309 25.716C31.5736 25.7055 31.5163 25.6899 31.4642 25.6847C31.4121 25.6743 31.36 25.6743 31.3079 25.6743C31.1516 25.6795 31.0005 25.716 30.8598 25.7784C30.8129 25.8044 30.766 25.8252 30.7244 25.8565C30.7244 25.8565 30.7244 25.8617 30.7139 25.8617L30.6983 25.8773C31.3548 24.6856 32.6312 23.9986 34.5329 22.9787L64.5952 7.58006C65.5748 7.08048 66.3823 7.65812 66.3823 8.91749Z" fill="#765CD6"/>
<path fill-rule="evenodd" clip-rule="evenodd" d="M65.4602 44.6319V64.8773C65.4602 66.1336 64.6748 66.7197 63.7221 66.2216L31.9956 49.553C31.276 49.0909 30.744 48.3955 30.4602 47.5959C30.4855 47.6375 30.5058 47.679 30.5362 47.7152C30.5565 47.7414 30.5768 47.7673 30.6021 47.7932C30.6072 47.8035 30.6122 47.8089 30.6224 47.8191C30.6426 47.8399 30.6629 47.8658 30.6882 47.8866C30.7136 47.9177 30.744 47.9385 30.7744 47.9644C30.82 47.9957 30.8605 48.0267 30.9112 48.0475C31.2102 48.2084 31.5902 48.1981 31.9956 47.9852L54.0587 36.3988L55.4358 37.0006L63.7221 41.4652C64.7811 42.1557 65.4349 43.3445 65.4602 44.6319Z" fill="#A08AEE"/>
<path fill-rule="evenodd" clip-rule="evenodd" d="M55.4603 37.0071L32.3006 48.4954C31.8751 48.7065 31.4762 48.7168 31.1623 48.5573C31.1091 48.5367 31.0666 48.5057 31.0187 48.4749C30.9868 48.4492 30.9549 48.4286 30.9283 48.3978C30.9017 48.377 30.8804 48.3513 30.8591 48.3308C30.8485 48.3205 30.8432 48.3154 30.8379 48.3051C30.8113 48.2792 30.79 48.2535 30.7687 48.2278C30.7368 48.1918 30.7155 48.1507 30.6889 48.1094C30.5453 47.8623 30.4602 47.5434 30.4602 47.1725V26.8363C30.4602 26.2289 30.6677 25.776 30.9974 25.5341C31.0028 25.5289 31.0081 25.5238 31.0134 25.5238C31.0134 25.5238 31.0187 25.5135 31.024 25.5135C31.0666 25.4826 31.1145 25.462 31.1623 25.4362C31.3059 25.3745 31.4602 25.3385 31.6198 25.3333C31.673 25.3333 31.7262 25.3333 31.7794 25.3436C31.8325 25.3488 31.8911 25.3642 31.9496 25.3745C32.0347 25.4002 32.1198 25.426 32.2049 25.4671C32.2368 25.4825 32.2687 25.498 32.3006 25.5186L55.4603 37.0071Z" fill="#8B73E2"/>
</g>
</g>
<defs>
<clipPath id="clip0_1796_8061">
<rect width="38.5302" height="85" fill="white" transform="translate(30.2349 7)"/>
</clipPath>
</defs>
</svg>
