<svg width="100" height="100" viewBox="0 0 100 100" fill="none" xmlns="http://www.w3.org/2000/svg">
<rect width="100" height="100" rx="20" fill="white"/>
<rect width="100" height="100" rx="20" fill="url(#paint0_linear_1796_8080)"/>
<path d="M48.9203 12C61.2483 12 66.5702 12.7569 67.975 12.9648C76.3007 14.1954 83.3244 20.5461 84.4086 28.6045C84.9984 34.5903 84.4871 44.3329 84.4838 45.9316C84.4837 46.4039 84.4153 50.6972 84.3881 51.1504C83.6583 62.6651 76.4779 67.2124 68.933 68.6611C68.8308 68.6918 68.7114 68.7125 68.5922 68.7363C63.8088 69.6704 58.6844 69.9193 53.8226 70.0557C52.66 70.0864 51.5007 70.0859 50.3383 70.0859C45.5042 70.0872 40.6867 69.5154 35.9877 68.3818C35.9629 68.3755 35.9365 68.3744 35.9115 68.3799C35.8865 68.3853 35.863 68.3969 35.8431 68.4131C35.8232 68.4293 35.8076 68.4503 35.7972 68.4736C35.7869 68.4972 35.7822 68.5232 35.7836 68.5488C35.9164 70.0785 36.2484 71.5848 36.7719 73.0283C37.4231 74.6988 39.6979 78.7099 48.1527 78.71C53.0659 78.719 57.9628 78.1472 62.7416 77.0059C62.7658 77.0003 62.7916 77.0004 62.8158 77.0059C62.84 77.0113 62.8627 77.0219 62.8822 77.0371C62.9018 77.0525 62.918 77.0725 62.9291 77.0947C62.94 77.117 62.9462 77.1413 62.9467 77.166V82.8184C62.9457 82.8449 62.9385 82.871 62.9261 82.8945C62.9138 82.918 62.8958 82.9382 62.8744 82.9541C61.3129 84.0858 59.1891 84.7306 57.3754 85.3066C56.5754 85.5589 55.7651 85.7799 54.9447 85.9707C47.4862 87.6693 39.7015 87.2592 32.4633 84.7852C25.7024 82.4126 18.8017 76.5964 17.097 69.6084C16.1867 65.8248 15.5448 61.9816 15.1771 58.1074C14.6453 52.275 14.6009 46.4286 14.3724 40.5723C14.2122 36.4887 14.3048 32.037 15.1674 28.0215C16.9607 19.8676 24.3518 14.1613 32.4457 12.9648C33.8504 12.7569 36.496 12 48.8275 12H48.9203ZM60.8353 24.2715C56.7818 24.2716 53.7139 25.8332 51.6683 28.9521L49.6908 32.2656L47.7162 28.9521C45.6705 25.8331 42.602 24.2715 38.5414 24.2715C35.0333 24.2716 32.2069 25.506 30.0521 27.9092C27.9635 30.318 26.9193 33.5677 26.9193 37.6582V57.6777H34.849V38.248C34.849 34.1574 36.5711 32.0713 40.0179 32.0713C43.8297 32.0713 45.7426 34.5394 45.7426 39.4141V50.0488H53.6283V39.4141C53.6283 34.5395 55.5374 32.0714 59.349 32.0713C62.8164 32.0713 64.5219 34.1574 64.5219 38.248V57.6777H72.4554V37.6582C72.4578 33.5655 71.415 30.3157 69.3285 27.9092C67.167 25.5059 64.3403 24.2715 60.8353 24.2715Z" fill="white"/>
<defs>
<linearGradient id="paint0_linear_1796_8080" x1="50" y1="0" x2="50" y2="100" gradientUnits="userSpaceOnUse">
<stop stop-color="#6364FF"/>
<stop offset="1" stop-color="#563ACC"/>
</linearGradient>
</defs>
</svg>
