<svg width="100" height="100" viewBox="0 0 100 100" fill="none" xmlns="http://www.w3.org/2000/svg">
<rect width="100" height="100" rx="20" fill="white"/>
<path d="M39.1444 22.0044C45.185 17.9363 51.8829 16.7852 59.0741 17.0318C71.0322 17.4427 80.6067 25.6207 82.4559 37.4966C82.949 40.5785 83.1961 43.7427 83.2372 46.8657C83.3194 57.1388 83.2782 67.412 83.2782 77.6851C83.2782 81.2601 82.5386 82.0005 78.9637 82.0005H54.1024C51.0206 82.0005 50.3622 81.3428 50.3622 78.3023C50.3211 71.6041 50.2805 64.9055 51.6776 58.2896C52.9104 52.5777 55.7457 50.1121 61.6219 49.9888C65.4025 49.9066 69.1422 50.1122 72.9227 49.9068C74.4843 49.8246 76.1691 49.2901 77.5663 48.5093C79.3333 47.5641 79.4562 45.7558 78.7987 43.9888C78.1823 42.3456 76.8678 42.3452 75.3065 42.3452C72.5122 42.3863 69.6759 42.1813 66.9637 41.606C64.3752 41.0717 62.6085 39.3044 62.5262 36.4282C62.403 32.8532 60.3484 30.6749 57.2255 29.3189C53.3627 27.634 49.2938 27.2638 45.1844 27.4693C42.1848 27.6336 39.226 28.0865 36.2675 28.5796C32.3227 29.2372 30.1037 31.5381 30.4735 35.4829C30.9666 40.7017 31.9529 45.8796 33.0624 50.9751C35.0348 60.0155 36.72 69.0563 36.5145 78.3433C36.4734 81.1783 35.6923 82.0004 32.8573 82.0005H21.1454C18.5155 82.0005 17.6113 81.0962 17.6112 78.3843C17.529 68.8508 17.5292 59.3171 17.5292 49.8247V21.8814C17.5292 18.635 18.2692 17.854 21.4745 17.854C25.0906 17.854 28.7481 17.8951 32.3641 17.854C34.2131 17.813 35.2814 18.5937 35.6512 20.4839C36.0211 22.4152 37.4596 23.1139 39.1444 22.0044ZM53.0341 33.2222C55.7459 33.2224 58.1706 35.606 58.1708 38.3179C58.2119 41.0711 55.8276 43.4137 52.91 43.3726C50.1159 43.3313 47.8973 41.0711 47.9384 38.2769C47.9796 35.5237 50.2809 33.2222 53.0341 33.2222Z" fill="#9544DC"/>
</svg>
