<svg width="100" height="100" viewBox="0 0 100 100" fill="none" xmlns="http://www.w3.org/2000/svg">
<rect width="100" height="100" rx="20" fill="black"/>
<path d="M53.7579 9.88531C73.8474 12.0444 89.5589 29.0155 89.4991 49.7047C89.4991 71.7734 71.6287 89.7044 49.5001 89.7047C27.4313 89.7047 9.50012 71.8335 9.50012 49.7047C9.50036 29.0754 25.152 12.0443 45.3615 9.88531L43.3224 16.8414C27.8505 19.78 16.1566 33.3932 16.1564 49.7047C16.1564 68.1154 31.149 83.108 49.5597 83.108C67.9704 83.1079 82.963 68.1153 82.963 49.7047C82.9628 33.3931 71.2681 19.7799 55.796 16.8414L53.7579 9.88531ZM61.0743 48.2662C61.7941 50.9646 64.2528 52.8835 68.8702 51.6841L79.1847 46.4664L52.6779 73.4527L49.5001 5.6275L61.0743 48.2662ZM46.381 73.3931L19.8751 46.4664L30.1896 51.6841C34.8072 52.8835 37.2658 50.9644 37.9855 48.3257L49.5001 5.6275L46.381 73.3931Z" fill="#00C3FF"/>
<path d="M53.7579 9.88531C73.8474 12.0444 89.5589 29.0155 89.4991 49.7047C89.4991 71.7734 71.6287 89.7044 49.5001 89.7047C27.4313 89.7047 9.50012 71.8335 9.50012 49.7047C9.50036 29.0754 25.152 12.0443 45.3615 9.88531L43.3224 16.8414C27.8505 19.78 16.1566 33.3932 16.1564 49.7047C16.1564 68.1154 31.149 83.108 49.5597 83.108C67.9704 83.1079 82.963 68.1153 82.963 49.7047C82.9628 33.3931 71.2681 19.7799 55.796 16.8414L53.7579 9.88531ZM61.0743 48.2662C61.7941 50.9646 64.2528 52.8835 68.8702 51.6841L79.1847 46.4664L52.6779 73.4527L49.5001 5.6275L61.0743 48.2662ZM46.381 73.3931L19.8751 46.4664L30.1896 51.6841C34.8072 52.8835 37.2658 50.9644 37.9855 48.3257L49.5001 5.6275L46.381 73.3931Z" fill="url(#paint0_linear_1796_8073)"/>
<defs>
<linearGradient id="paint0_linear_1796_8073" x1="9.50012" y1="7.66632" x2="78.7647" y2="76.9306" gradientUnits="userSpaceOnUse">
<stop offset="0.180653" stop-color="#007EC4"/>
<stop offset="0.585847" stop-color="#00AEEF"/>
<stop offset="0.813526" stop-color="#43C9F4"/>
<stop offset="1" stop-color="#A3E1F9"/>
</linearGradient>
</defs>
</svg>
