<svg width="100" height="100" viewBox="0 0 100 100" fill="none" xmlns="http://www.w3.org/2000/svg">
<rect width="100" height="100" rx="20" fill="#0D67FE"/>
<path d="M87.5 15.1819V42.417L7.5 74.598L87.5 15.1819Z" fill="#00C9FF"/>
<path d="M72.5025 14V60.9822C72.5025 67.5477 69.8684 73.8444 65.1797 78.487C60.491 83.1297 54.1317 85.7378 47.5009 85.7378C40.8702 85.7378 34.5109 83.1297 29.8222 78.487C25.1335 73.8444 22.4994 67.5477 22.4994 60.9822V41.1851L37.4977 33.0122V60.9822C37.3574 62.2028 37.479 63.4391 37.8546 64.6101C38.2304 65.7811 38.8516 66.8601 39.6778 67.7767C40.5041 68.6933 41.5165 69.4266 42.6489 69.9288C43.7814 70.431 45.0081 70.6907 46.249 70.6907C47.4897 70.6907 48.7166 70.431 49.849 69.9288C50.9813 69.4266 51.9939 68.6933 52.82 67.7767C53.6463 66.8601 54.2677 65.7811 54.6433 64.6101C55.0191 63.4391 55.1407 62.2028 55.0001 60.9822V23.4811L72.5025 14Z" fill="white"/>
</svg>
