<svg width="100" height="100" viewBox="0 0 100 100" fill="none" xmlns="http://www.w3.org/2000/svg">
<rect width="100" height="100" rx="20" fill="#7D7D7D"/>
<path d="M50 83.3333C45.4444 83.3333 41.1389 82.4583 37.0833 80.7083C33.0278 78.9583 29.4861 76.5694 26.4583 73.5417C23.4305 70.5139 21.0417 66.9722 19.2917 62.9167C17.5417 58.8611 16.6667 54.5556 16.6667 50C16.6667 45.3889 17.5417 41.0694 19.2917 37.0417C21.0417 33.0139 23.4305 29.4861 26.4583 26.4583C29.4861 23.4306 33.0278 21.0417 37.0833 19.2917C41.1389 17.5417 45.4444 16.6667 50 16.6667C54.6111 16.6667 58.9305 17.5417 62.9583 19.2917C66.9861 21.0417 70.5139 23.4306 73.5417 26.4583C76.5694 29.4861 78.9583 33.0139 80.7083 37.0417C82.4583 41.0694 83.3333 45.3889 83.3333 50C83.3333 54.5556 82.4583 58.8611 80.7083 62.9167C78.9583 66.9722 76.5694 70.5139 73.5417 73.5417C70.5139 76.5694 66.9861 78.9583 62.9583 80.7083C58.9305 82.4583 54.6111 83.3333 50 83.3333ZM50 76.5C51.4444 74.5 52.6944 72.4167 53.75 70.25C54.8055 68.0833 55.6667 65.7778 56.3333 63.3333H43.6667C44.3333 65.7778 45.1944 68.0833 46.25 70.25C47.3055 72.4167 48.5555 74.5 50 76.5ZM41.3333 75.1667C40.3333 73.3333 39.4583 71.4306 38.7083 69.4583C37.9583 67.4861 37.3333 65.4444 36.8333 63.3333H27C28.6111 66.1111 30.625 68.5278 33.0417 70.5833C35.4583 72.6389 38.2222 74.1667 41.3333 75.1667ZM58.6667 75.1667C61.7778 74.1667 64.5417 72.6389 66.9583 70.5833C69.375 68.5278 71.3889 66.1111 73 63.3333H63.1667C62.6667 65.4444 62.0417 67.4861 61.2917 69.4583C60.5417 71.4306 59.6667 73.3333 58.6667 75.1667ZM24.1667 56.6667H35.5C35.3333 55.5556 35.2083 54.4583 35.125 53.375C35.0417 52.2917 35 51.1667 35 50C35 48.8333 35.0417 47.7083 35.125 46.625C35.2083 45.5417 35.3333 44.4444 35.5 43.3333H24.1667C23.8889 44.4444 23.6805 45.5417 23.5417 46.625C23.4028 47.7083 23.3333 48.8333 23.3333 50C23.3333 51.1667 23.4028 52.2917 23.5417 53.375C23.6805 54.4583 23.8889 55.5556 24.1667 56.6667ZM42.1667 56.6667H57.8333C58 55.5556 58.125 54.4583 58.2083 53.375C58.2917 52.2917 58.3333 51.1667 58.3333 50C58.3333 48.8333 58.2917 47.7083 58.2083 46.625C58.125 45.5417 58 44.4444 57.8333 43.3333H42.1667C42 44.4444 41.875 45.5417 41.7917 46.625C41.7083 47.7083 41.6667 48.8333 41.6667 50C41.6667 51.1667 41.7083 52.2917 41.7917 53.375C41.875 54.4583 42 55.5556 42.1667 56.6667ZM64.5 56.6667H75.8333C76.1111 55.5556 76.3194 54.4583 76.4583 53.375C76.5972 52.2917 76.6667 51.1667 76.6667 50C76.6667 48.8333 76.5972 47.7083 76.4583 46.625C76.3194 45.5417 76.1111 44.4444 75.8333 43.3333H64.5C64.6667 44.4444 64.7917 45.5417 64.875 46.625C64.9583 47.7083 65 48.8333 65 50C65 51.1667 64.9583 52.2917 64.875 53.375C64.7917 54.4583 64.6667 55.5556 64.5 56.6667ZM63.1667 36.6667H73C71.3889 33.8889 69.375 31.4722 66.9583 29.4167C64.5417 27.3611 61.7778 25.8333 58.6667 24.8333C59.6667 26.6667 60.5417 28.5694 61.2917 30.5417C62.0417 32.5139 62.6667 34.5556 63.1667 36.6667ZM43.6667 36.6667H56.3333C55.6667 34.2222 54.8055 31.9167 53.75 29.75C52.6944 27.5833 51.4444 25.5 50 23.5C48.5555 25.5 47.3055 27.5833 46.25 29.75C45.1944 31.9167 44.3333 34.2222 43.6667 36.6667ZM27 36.6667H36.8333C37.3333 34.5556 37.9583 32.5139 38.7083 30.5417C39.4583 28.5694 40.3333 26.6667 41.3333 24.8333C38.2222 25.8333 35.4583 27.3611 33.0417 29.4167C30.625 31.4722 28.6111 33.8889 27 36.6667Z" fill="white"/>
</svg>
