<svg width="100" height="100" viewBox="0 0 100 100" fill="none" xmlns="http://www.w3.org/2000/svg">
<rect width="100" height="100" rx="20" fill="#151327"/>
<g clip-path="url(#clip0_1796_8108)">
<path d="M46.7845 87.5C40.1522 87.5 34.1818 85.057 29.0489 80.2495C26.2123 77.5833 24.3212 74.1157 23.092 69.3214C22.3355 66.3662 22.0249 63.4501 21.8087 60.9809C21.5386 57.7758 21.2414 54.663 20.9848 52.036L20.9577 51.6944C20.7281 49.3694 20.485 46.9527 20.2013 44.6014C19.9177 42.3162 19.5935 39.9781 19.2693 37.732L18.9181 35.197C18.8506 34.7242 18.7695 34.2382 18.702 33.7653C18.5264 32.6489 18.3508 31.5455 18.2832 30.4159C18.0806 27.0272 20.1203 24.0981 23.4702 22.9422C24.6994 22.5219 25.9961 22.4299 27.2253 22.6401C27.3874 20.2364 28.6977 18.0429 30.8454 16.7294C33.5199 15.0876 36.8293 15.232 39.4768 17.0972C41.1112 18.2531 42.0973 19.8949 42.489 22.1147C43.1104 25.5692 43.7317 29.0105 44.3531 32.465L44.5422 33.4763L46.5954 23.5464C46.9195 21.9834 47.2436 20.3809 47.5543 18.7916C48.2703 15.0876 51.4041 12.5 55.1593 12.5C59.0359 12.5131 62.2912 15.324 62.7505 19.028C62.764 19.1068 62.764 19.1856 62.7776 19.2513C64.0067 19.0674 65.263 19.1594 66.4382 19.5797C70.2069 20.9063 72.2466 24.6497 71.4089 28.6953L70.6526 32.3205C69.707 36.7995 68.7614 41.331 67.8969 45.8231C69.1938 44.2074 70.9768 43.1568 72.9355 42.8678C74.9345 42.5788 76.9607 43.1043 78.6626 44.3389C81.1347 46.1384 82.2692 49.3169 81.4858 52.2592C80.7159 55.1358 79.3785 57.7233 78.0819 60.232C77.7441 60.8756 77.4199 61.5191 77.0957 62.176C74.2457 67.9028 71.3414 73.4326 67.0866 78.1873C63.0611 82.6928 58.7659 85.4511 53.957 86.6199C51.4987 87.198 49.0944 87.5 46.7845 87.5ZM25.9016 26.9615C25.5909 26.9615 25.2802 27.014 24.983 27.1191C23.5377 27.6182 22.7408 28.7215 22.8353 30.1401C22.8894 31.0727 23.0514 32.0578 23.2 33.0035C23.2946 33.5683 23.3756 34.0806 23.4432 34.5928L23.7944 37.1278C24.1185 39.4002 24.4427 41.7514 24.7399 44.0632C25.0371 46.4666 25.2802 48.9099 25.5099 51.2609L25.5369 51.6024C25.7935 54.2427 26.1042 57.3817 26.3743 60.5998C26.5635 62.8986 26.8606 65.5911 27.536 68.2311C28.5491 72.1847 30.0349 74.9692 32.2232 77.0314C37.991 82.443 44.9069 84.1899 52.836 82.2722C56.6991 81.3266 60.2247 79.0279 63.6285 75.232C67.5187 70.8843 70.2608 65.6436 72.9623 60.2058C73.3001 59.536 73.6379 58.8662 73.9889 58.2093C75.2316 55.8056 76.3933 53.5334 77.0553 51.1163C77.3795 49.9342 76.9067 48.6076 75.9205 47.8853C75.1912 47.36 74.3942 47.1367 73.6107 47.2547C72.8273 47.373 72.0845 47.8195 71.5035 48.5421L65.6411 59.2732C65.128 60.219 64.0067 60.6656 62.9533 60.3633C61.8995 60.0483 61.2242 59.0632 61.3324 58.0123C61.6834 54.6367 62.2373 51.0376 63.1289 46.3487C64.0609 41.3837 65.1144 36.366 66.141 31.5193L66.9245 27.8021C67.3162 25.9238 66.5192 24.3345 64.8848 23.7566C63.8582 23.3888 62.5751 23.704 61.7241 24.5184C61.0217 25.1883 59.968 25.3459 59.0899 24.9124C58.2121 24.479 57.7122 23.5596 57.8608 22.6138C57.8879 22.4693 57.9014 22.3117 57.9147 22.1672C57.9554 21.8389 58.0093 21.4843 58.0635 21.1559C58.1714 20.5517 58.266 19.9869 58.2121 19.5666C58.0229 18.0823 56.7262 16.9527 55.1729 16.9396C53.6059 16.9396 52.3633 18.0166 52.0526 19.606C51.7419 21.2084 51.4041 22.824 51.0799 24.4002L46.6359 45.9151C46.4198 46.9527 45.4742 47.7015 44.3936 47.7015C44.3801 47.7015 44.3801 47.7015 44.3666 47.7015C43.2725 47.6883 42.3269 46.9132 42.1378 45.8626C41.6516 43.1831 41.1653 40.4904 40.679 37.8109L39.8415 33.2137C39.2202 29.7592 38.5853 26.3047 37.9774 22.8503C37.7343 21.5105 37.2345 20.9983 36.7753 20.6699C35.6676 19.8818 34.3574 19.803 33.2768 20.4728C32.1691 21.1559 31.6018 22.4168 31.845 23.704C32.007 24.5447 32.1556 25.3984 32.2907 26.2522C32.4663 27.2373 31.9395 28.2355 30.994 28.6559C30.0484 29.0762 28.9543 28.8529 28.2789 28.0911C27.6441 27.3555 26.7796 26.9615 25.9016 26.9615Z" fill="white"/>
</g>
<defs>
<clipPath id="clip0_1796_8108">
<rect width="75" height="75" fill="white" transform="translate(12.5 12.5)"/>
</clipPath>
</defs>
</svg>
