<svg width="100" height="100" viewBox="0 0 100 100" fill="none" xmlns="http://www.w3.org/2000/svg">
<rect width="100" height="100" rx="20" fill="#0C0C3A"/>
<path fill-rule="evenodd" clip-rule="evenodd" d="M55.3609 17.0015H62.9359C65.5294 17.0015 67.7119 17.0015 69.4984 17.15C71.3674 17.3045 73.1479 17.642 74.8384 18.518C77.4239 19.8612 79.5179 21.9883 80.8204 24.5945C81.6829 26.3135 82.0144 28.121 82.1674 30.02C82.3129 31.835 82.3129 34.052 82.3129 36.6875V43.9865C82.3129 46.622 82.3129 48.839 82.1674 50.654C82.0144 52.553 81.6829 54.362 80.8204 56.0795C79.5182 58.6863 77.4241 60.8139 74.8384 62.1575C73.1479 63.032 71.3674 63.3695 69.4984 63.524C67.7119 63.674 65.5294 63.674 62.9344 63.674H40.3174C39.5362 63.6705 38.7736 63.4351 38.1263 62.9977C37.479 62.5603 36.9761 61.9405 36.6814 61.217C36.3802 60.4891 36.2975 59.6892 36.4435 58.9151C36.5894 58.141 36.9578 57.4262 37.5034 56.858L56.1799 37.5305L61.8094 43.145L49.7179 55.658H62.7769C65.5714 55.658 67.4299 55.655 68.8564 55.538C70.2364 55.4225 70.8634 55.22 71.2564 55.016C72.3522 54.4467 73.2396 53.5451 73.7914 52.4405C73.9924 52.0415 74.1919 51.4055 74.3044 50.0015C74.4214 48.5525 74.4244 46.664 74.4244 43.826V36.8465C74.4244 34.0085 74.4214 32.1215 74.3044 30.671C74.1919 29.2685 73.9924 28.631 73.7914 28.232C73.2396 27.1274 72.3522 26.2258 71.2564 25.6565C70.8634 25.4525 70.2364 25.2515 68.8564 25.136C67.4299 25.016 65.5714 25.0145 62.7769 25.0145H55.5214C52.6969 25.0145 50.8159 25.0175 49.3729 25.1375C47.9779 25.2545 47.3449 25.46 46.9504 25.667C45.8484 26.2449 44.9593 27.1592 44.4124 28.277C44.2129 28.6805 44.0194 29.324 43.9219 30.746C43.8199 32.213 43.8394 34.121 43.8739 36.992L43.9144 40.2875L36.0259 40.385L35.9854 36.9275C35.9524 34.262 35.9254 32.0225 36.0514 30.1865C36.1834 28.2695 36.4984 26.4395 37.3534 24.6995C38.6437 22.0611 40.7419 19.903 43.3429 18.539C45.0454 17.6495 46.8424 17.309 48.7279 17.15C50.5324 17 52.7389 17 55.3609 17V17.0015Z" fill="url(#paint0_linear_1796_8095)"/>
<path fill-rule="evenodd" clip-rule="evenodd" d="M55.3609 17.0015H62.9359C65.5294 17.0015 67.7119 17.0015 69.4984 17.15C71.3674 17.3045 73.1479 17.642 74.8384 18.518C77.4239 19.8612 79.5179 21.9883 80.8204 24.5945C81.6829 26.3135 82.0144 28.121 82.1674 30.02C82.3129 31.835 82.3129 34.052 82.3129 36.6875V43.9865C82.3129 46.622 82.3129 48.839 82.1674 50.654C82.0144 52.553 81.6829 54.362 80.8204 56.0795C79.5182 58.6863 77.4241 60.8139 74.8384 62.1575C73.1479 63.032 71.3674 63.3695 69.4984 63.524C67.7119 63.674 65.5294 63.674 62.9344 63.674H40.3174C39.5362 63.6705 38.7736 63.4351 38.1263 62.9977C37.479 62.5603 36.9761 61.9405 36.6814 61.217C36.3802 60.4891 36.2975 59.6892 36.4435 58.9151C36.5894 58.141 36.9578 57.4262 37.5034 56.858L56.1799 37.5305L61.8094 43.145L49.7179 55.658H62.7769C65.5714 55.658 67.4299 55.655 68.8564 55.538C70.2364 55.4225 70.8634 55.22 71.2564 55.016C72.3522 54.4467 73.2396 53.5451 73.7914 52.4405C73.9924 52.0415 74.1919 51.4055 74.3044 50.0015C74.4214 48.5525 74.4244 46.664 74.4244 43.826V36.8465C74.4244 34.0085 74.4214 32.1215 74.3044 30.671C74.1919 29.2685 73.9924 28.631 73.7914 28.232C73.2396 27.1274 72.3522 26.2258 71.2564 25.6565C70.8634 25.4525 70.2364 25.2515 68.8564 25.136C67.4299 25.016 65.5714 25.0145 62.7769 25.0145H55.5214C52.6969 25.0145 50.8159 25.0175 49.3729 25.1375C47.9779 25.2545 47.3449 25.46 46.9504 25.667C45.8484 26.2449 44.9593 27.1592 44.4124 28.277C44.2129 28.6805 44.0194 29.324 43.9219 30.746C43.8199 32.213 43.8394 34.121 43.8739 36.992L43.9144 40.2875L36.0259 40.385L35.9854 36.9275C35.9524 34.262 35.9254 32.0225 36.0514 30.1865C36.1834 28.2695 36.4984 26.4395 37.3534 24.6995C38.6437 22.0611 40.7419 19.903 43.3429 18.539C45.0454 17.6495 46.8424 17.309 48.7279 17.15C50.5324 17 52.7389 17 55.3609 17V17.0015Z" fill="url(#paint1_radial_1796_8095)"/>
<path fill-rule="evenodd" clip-rule="evenodd" d="M55.3609 17.0015H62.9359C65.5294 17.0015 67.7119 17.0015 69.4984 17.15C71.3674 17.3045 73.1479 17.642 74.8384 18.518C77.4239 19.8612 79.5179 21.9883 80.8204 24.5945C81.6829 26.3135 82.0144 28.121 82.1674 30.02C82.3129 31.835 82.3129 34.052 82.3129 36.6875V43.9865C82.3129 46.622 82.3129 48.839 82.1674 50.654C82.0144 52.553 81.6829 54.362 80.8204 56.0795C79.5182 58.6863 77.4241 60.8139 74.8384 62.1575C73.1479 63.032 71.3674 63.3695 69.4984 63.524C67.7119 63.674 65.5294 63.674 62.9344 63.674H40.3174C39.5362 63.6705 38.7736 63.4351 38.1263 62.9977C37.479 62.5603 36.9761 61.9405 36.6814 61.217C36.3802 60.4891 36.2975 59.6892 36.4435 58.9151C36.5894 58.141 36.9578 57.4262 37.5034 56.858L56.1799 37.5305L61.8094 43.145L49.7179 55.658H62.7769C65.5714 55.658 67.4299 55.655 68.8564 55.538C70.2364 55.4225 70.8634 55.22 71.2564 55.016C72.3522 54.4467 73.2396 53.5451 73.7914 52.4405C73.9924 52.0415 74.1919 51.4055 74.3044 50.0015C74.4214 48.5525 74.4244 46.664 74.4244 43.826V36.8465C74.4244 34.0085 74.4214 32.1215 74.3044 30.671C74.1919 29.2685 73.9924 28.631 73.7914 28.232C73.2396 27.1274 72.3522 26.2258 71.2564 25.6565C70.8634 25.4525 70.2364 25.2515 68.8564 25.136C67.4299 25.016 65.5714 25.0145 62.7769 25.0145H55.5214C52.6969 25.0145 50.8159 25.0175 49.3729 25.1375C47.9779 25.2545 47.3449 25.46 46.9504 25.667C45.8484 26.2449 44.9593 27.1592 44.4124 28.277C44.2129 28.6805 44.0194 29.324 43.9219 30.746C43.8199 32.213 43.8394 34.121 43.8739 36.992L43.9144 40.2875L36.0259 40.385L35.9854 36.9275C35.9524 34.262 35.9254 32.0225 36.0514 30.1865C36.1834 28.2695 36.4984 26.4395 37.3534 24.6995C38.6437 22.0611 40.7419 19.903 43.3429 18.539C45.0454 17.6495 46.8424 17.309 48.7279 17.15C50.5324 17 52.7389 17 55.3609 17V17.0015Z" fill="url(#paint2_radial_1796_8095)"/>
<path fill-rule="evenodd" clip-rule="evenodd" d="M55.3609 17.0015H62.9359C65.5294 17.0015 67.7119 17.0015 69.4984 17.15C71.3674 17.3045 73.1479 17.642 74.8384 18.518C77.4239 19.8612 79.5179 21.9883 80.8204 24.5945C81.6829 26.3135 82.0144 28.121 82.1674 30.02C82.3129 31.835 82.3129 34.052 82.3129 36.6875V43.9865C82.3129 46.622 82.3129 48.839 82.1674 50.654C82.0144 52.553 81.6829 54.362 80.8204 56.0795C79.5182 58.6863 77.4241 60.8139 74.8384 62.1575C73.1479 63.032 71.3674 63.3695 69.4984 63.524C67.7119 63.674 65.5294 63.674 62.9344 63.674H40.3174C39.5362 63.6705 38.7736 63.4351 38.1263 62.9977C37.479 62.5603 36.9761 61.9405 36.6814 61.217C36.3802 60.4891 36.2975 59.6892 36.4435 58.9151C36.5894 58.141 36.9578 57.4262 37.5034 56.858L56.1799 37.5305L61.8094 43.145L49.7179 55.658H62.7769C65.5714 55.658 67.4299 55.655 68.8564 55.538C70.2364 55.4225 70.8634 55.22 71.2564 55.016C72.3522 54.4467 73.2396 53.5451 73.7914 52.4405C73.9924 52.0415 74.1919 51.4055 74.3044 50.0015C74.4214 48.5525 74.4244 46.664 74.4244 43.826V36.8465C74.4244 34.0085 74.4214 32.1215 74.3044 30.671C74.1919 29.2685 73.9924 28.631 73.7914 28.232C73.2396 27.1274 72.3522 26.2258 71.2564 25.6565C70.8634 25.4525 70.2364 25.2515 68.8564 25.136C67.4299 25.016 65.5714 25.0145 62.7769 25.0145H55.5214C52.6969 25.0145 50.8159 25.0175 49.3729 25.1375C47.9779 25.2545 47.3449 25.46 46.9504 25.667C45.8484 26.2449 44.9593 27.1592 44.4124 28.277C44.2129 28.6805 44.0194 29.324 43.9219 30.746C43.8199 32.213 43.8394 34.121 43.8739 36.992L43.9144 40.2875L36.0259 40.385L35.9854 36.9275C35.9524 34.262 35.9254 32.0225 36.0514 30.1865C36.1834 28.2695 36.4984 26.4395 37.3534 24.6995C38.6437 22.0611 40.7419 19.903 43.3429 18.539C45.0454 17.6495 46.8424 17.309 48.7279 17.15C50.5324 17 52.7389 17 55.3609 17V17.0015Z" fill="url(#paint3_radial_1796_8095)"/>
<path fill-rule="evenodd" clip-rule="evenodd" d="M30.455 74.8655C31.883 74.984 33.74 74.987 36.5345 74.987H43.913C46.46 74.987 48.1535 74.984 49.4585 74.885C50.7245 74.789 51.3035 74.6195 51.668 74.45C52.9351 73.8565 53.9474 72.8282 54.521 71.552C54.686 71.183 54.854 70.592 54.9485 69.308C55.046 67.982 55.049 66.2615 55.049 63.6725H62.9375V63.8195C62.9375 66.2225 62.9375 68.2445 62.816 69.905C62.6885 71.639 62.411 73.2965 61.691 74.8925C60.3375 77.9061 57.9477 80.3342 54.956 81.7355C53.3855 82.4675 51.7535 82.748 50.0465 82.877C48.4115 83.0015 46.4225 83.0015 44.057 83.0015H36.377C33.782 83.0015 31.5995 83.0015 29.813 82.853C27.944 82.6985 26.1635 82.361 24.473 81.485C21.8875 80.1418 19.7935 78.0147 18.491 75.4085C17.6285 73.6895 17.297 71.882 17.144 69.9815C17 68.168 17 65.951 17 63.3155V56.0165C17 53.381 17 51.164 17.1455 49.349C17.2985 47.45 17.63 45.641 18.4925 43.9235C19.7948 41.3167 21.8888 39.1891 24.4745 37.8455C26.165 36.971 27.9455 36.6335 29.8145 36.4775C31.601 36.3305 33.7835 36.3305 36.3785 36.3305H58.9955C61.1735 36.3305 62.939 38.1245 62.939 40.337C62.939 42.5495 61.1735 44.345 58.994 44.345H36.536C33.7415 44.345 31.8845 44.348 30.4565 44.465C29.0765 44.5805 28.4495 44.783 28.0565 44.987C26.9607 45.5563 26.0733 46.4578 25.5215 47.5625C25.3205 47.9615 25.121 48.5975 25.0085 50.0015C24.8915 51.4505 24.8885 53.339 24.8885 56.177V63.155C24.8885 65.993 24.8915 67.88 25.0085 69.3305C25.121 70.733 25.3205 71.3705 25.5215 71.7695C26.0765 72.8795 26.9645 73.7795 28.0565 74.345C28.4495 74.549 29.075 74.75 30.455 74.8655Z" fill="url(#paint4_linear_1796_8095)"/>
<path fill-rule="evenodd" clip-rule="evenodd" d="M30.455 74.8655C31.883 74.984 33.74 74.987 36.5345 74.987H43.913C46.46 74.987 48.1535 74.984 49.4585 74.885C50.7245 74.789 51.3035 74.6195 51.668 74.45C52.9351 73.8565 53.9474 72.8282 54.521 71.552C54.686 71.183 54.854 70.592 54.9485 69.308C55.046 67.982 55.049 66.2615 55.049 63.6725H62.9375V63.8195C62.9375 66.2225 62.9375 68.2445 62.816 69.905C62.6885 71.639 62.411 73.2965 61.691 74.8925C60.3375 77.9061 57.9477 80.3342 54.956 81.7355C53.3855 82.4675 51.7535 82.748 50.0465 82.877C48.4115 83.0015 46.4225 83.0015 44.057 83.0015H36.377C33.782 83.0015 31.5995 83.0015 29.813 82.853C27.944 82.6985 26.1635 82.361 24.473 81.485C21.8875 80.1418 19.7935 78.0147 18.491 75.4085C17.6285 73.6895 17.297 71.882 17.144 69.9815C17 68.168 17 65.951 17 63.3155V56.0165C17 53.381 17 51.164 17.1455 49.349C17.2985 47.45 17.63 45.641 18.4925 43.9235C19.7948 41.3167 21.8888 39.1891 24.4745 37.8455C26.165 36.971 27.9455 36.6335 29.8145 36.4775C31.601 36.3305 33.7835 36.3305 36.3785 36.3305H58.9955C61.1735 36.3305 62.939 38.1245 62.939 40.337C62.939 42.5495 61.1735 44.345 58.994 44.345H36.536C33.7415 44.345 31.8845 44.348 30.4565 44.465C29.0765 44.5805 28.4495 44.783 28.0565 44.987C26.9607 45.5563 26.0733 46.4578 25.5215 47.5625C25.3205 47.9615 25.121 48.5975 25.0085 50.0015C24.8915 51.4505 24.8885 53.339 24.8885 56.177V63.155C24.8885 65.993 24.8915 67.88 25.0085 69.3305C25.121 70.733 25.3205 71.3705 25.5215 71.7695C26.0765 72.8795 26.9645 73.7795 28.0565 74.345C28.4495 74.549 29.075 74.75 30.455 74.8655Z" fill="url(#paint5_radial_1796_8095)"/>
<defs>
<linearGradient id="paint0_linear_1796_8095" x1="48.1204" y1="63.311" x2="48.6544" y2="16.9415" gradientUnits="userSpaceOnUse">
<stop offset="0.431" stop-color="#498FFD"/>
<stop offset="1" stop-color="#16D1D6"/>
</linearGradient>
<radialGradient id="paint1_radial_1796_8095" cx="0" cy="0" r="1" gradientUnits="userSpaceOnUse" gradientTransform="translate(35.41 31.1318) rotate(-15.65) scale(29.8203 29.9076)">
<stop stop-color="#18CFD7"/>
<stop offset="1" stop-color="#18CFD7" stop-opacity="0"/>
</radialGradient>
<radialGradient id="paint2_radial_1796_8095" cx="0" cy="0" r="1" gradientUnits="userSpaceOnUse" gradientTransform="translate(52.8292 44.3816) rotate(152.23) scale(11.1721 11.1879)">
<stop stop-color="#4990FE"/>
<stop offset="0.354" stop-color="#4990FE"/>
<stop offset="1" stop-color="#4990FE" stop-opacity="0"/>
</radialGradient>
<radialGradient id="paint3_radial_1796_8095" cx="0" cy="0" r="1" gradientUnits="userSpaceOnUse" gradientTransform="translate(39.1765 59.5247) rotate(-46.089) scale(20.3623 20.3268)">
<stop stop-color="#4990FE"/>
<stop offset="0.406" stop-color="#4990FE"/>
<stop offset="1" stop-color="#4990FE" stop-opacity="0"/>
</radialGradient>
<linearGradient id="paint4_linear_1796_8095" x1="63.182" y1="83.186" x2="63.353" y2="35.8655" gradientUnits="userSpaceOnUse">
<stop stop-color="#2950FF"/>
<stop offset="0.822" stop-color="#498FFD"/>
</linearGradient>
<radialGradient id="paint5_radial_1796_8095" cx="0" cy="0" r="1" gradientUnits="userSpaceOnUse" gradientTransform="translate(63.182 63.311) rotate(129.142) scale(20.1345 19.9017)">
<stop offset="0.337" stop-color="#2950FF"/>
<stop offset="0.792" stop-color="#2950FF" stop-opacity="0"/>
</radialGradient>
</defs>
</svg>
