<svg xmlns="http://www.w3.org/2000/svg" xml:space="preserve" id="Layer_1" x="0" y="0" version="1.1" viewBox="0 0 375 346.5"><g id="Layer_2_1_"><g id="Layer_1-2"><path d="M102.8 172c-.8 13.9 9.9 25.8 23.8 26.6h1.5c14 0 25.3-11.3 25.2-25.3 0-14-11.3-25.3-25.3-25.2-13.4 0-24.5 10.5-25.2 23.9zM8.6 165.5c-4.5-.3-8.4 3.2-8.6 7.7s3.2 8.4 7.7 8.6c4.5.3 8.3-3.2 8.6-7.7.3-4.5-3.2-8.3-7.7-8.6zM101.2 25.4c4-2 5.6-7 3.6-11-2-4-7-5.6-11-3.6-4 2-5.6 6.9-3.6 10.9 2 4.1 6.9 5.8 11 3.7-.1 0 0 0 0 0zM126.8 70.1c6.2-3.1 8.7-10.7 5.6-16.9s-10.7-8.7-16.9-5.6c-6.2 3.1-8.7 10.7-5.6 16.9 3.1 6.2 10.7 8.7 16.9 5.6zM40.6 100.8c4.8 3.1 11.2 1.8 14.4-3 3.1-4.8 1.8-11.2-3-14.4-4.8-3.1-11.2-1.8-14.4 3-3.2 4.8-1.8 11.3 3 14.4zM55.9 161c-7-.4-12.9 4.9-13.3 11.9s4.9 12.9 11.9 13.3c7 .4 12.9-4.9 13.3-11.9.4-6.9-4.9-12.9-11.9-13.3zM42 245.7c-5.1 2.6-7.2 8.8-4.6 14 2.6 5.1 8.8 7.2 14 4.6 5.1-2.6 7.2-8.8 4.6-14-2.6-5.1-8.9-7.2-14-4.6zM91 134.9c6.9 4.5 16.1 2.6 20.5-4.3 4.5-6.9 2.6-16.1-4.3-20.5-6.9-4.5-16.1-2.6-20.5 4.3-4.5 6.8-2.6 16 4.3 20.5zM246.5 69.1c5.8 3.8 13.7 2.2 17.5-3.6s2.2-13.7-3.6-17.5c-5.8-3.8-13.7-2.2-17.5 3.6-3.9 5.9-2.3 13.7 3.6 17.5zM272.3 24.6c3.8 2.5 8.8 1.4 11.3-2.4s1.4-8.8-2.4-11.3-8.8-1.4-11.3 2.3c-2.4 3.8-1.3 8.9 2.4 11.4zM248.4 147.9c-13.9-.8-25.9 9.9-26.6 23.8-.8 13.9 9.9 25.9 23.8 26.6h1.4c13.9 0 25.2-11.3 25.2-25.3.1-13.3-10.4-24.4-23.8-25.1zM135.1 133.1c4.3 8.5 13 13.9 22.6 13.9 13.9 0 25.2-11.3 25.2-25.3 0-3.9-.9-7.8-2.7-11.4-6.3-12.5-21.5-17.5-33.9-11.2-12.5 6.4-17.5 21.6-11.2 34zM333 100.8c5.1-2.6 7.1-8.9 4.5-14-2.6-5.1-8.9-7.1-14-4.5-5.1 2.6-7.1 8.8-4.6 13.9 2.7 5.1 8.9 7.2 14.1 4.6zM269 108.8c-7.3 3.7-10.3 12.6-6.6 19.9 3.7 7.3 12.6 10.3 19.9 6.6 7.3-3.7 10.3-12.6 6.6-19.9-3.7-7.3-12.6-10.2-19.9-6.6zM186.5 20.8c5.7.3 10.6-4.1 11-9.8S193.4.4 187.7 0c-5.7-.3-10.6 4-11 9.7-.3 5.8 4.1 10.7 9.8 11.1zM186.4 86.1c8.2.5 15.2-5.8 15.6-14 .5-8.2-5.8-15.2-14-15.6-8.2-.5-15.2 5.8-15.6 14-.4 8.2 5.8 15.2 14 15.6zM106 237.7c7.3-3.7 10.3-12.6 6.6-19.9-3.7-7.3-12.6-10.3-19.9-6.6-7.3 3.7-10.3 12.6-6.6 19.9 3.7 7.3 12.6 10.3 19.9 6.6zM196 107.8c-7.6 11.7-4.4 27.3 7.3 34.9 11.7 7.6 27.3 4.4 34.9-7.3 7.6-11.7 4.4-27.3-7.3-34.9-4.1-2.7-8.9-4.1-13.8-4.1-8.5 0-16.4 4.3-21.1 11.4zM239.9 213.4c-6.3-12.5-21.5-17.5-33.9-11.2-12.5 6.3-17.5 21.5-11.2 33.9 6.3 12.5 21.5 17.5 33.9 11.2 12.4-6.2 17.5-21.2 11.3-33.7 0-.1 0-.1-.1-.2zM284 211.6c-6.9-4.5-16.1-2.6-20.5 4.3-4.5 6.9-2.6 16.1 4.3 20.5 6.9 4.5 16.1 2.6 20.5-4.3 4.5-6.8 2.6-16-4.3-20.5zM332.4 173.7c.4-7-4.9-12.9-11.9-13.3-7-.4-12.9 4.9-13.3 11.9-.4 7 4.9 12.9 11.9 13.3 6.9.4 12.9-5 13.3-11.9zM367.3 164.7c-4.5-.3-8.4 3.2-8.6 7.7s3.2 8.4 7.7 8.6c4.5.3 8.3-3.2 8.6-7.7.2-4.5-3.2-8.3-7.7-8.6zM334.4 245.7c-4.8-3.1-11.2-1.8-14.4 3-3.1 4.8-1.8 11.2 3 14.4 4.8 3.1 11.2 1.8 14.4-3 3.2-4.8 1.8-11.3-3-14.4zM102.6 321.9c-3.8-2.5-8.8-1.4-11.3 2.3-2.5 3.8-1.4 8.8 2.3 11.3 3.8 2.5 8.8 1.4 11.3-2.3 2.6-3.7 1.5-8.8-2.3-11.3zM273.8 321.1c-4 2-5.6 7-3.6 11 2 4 7 5.6 11 3.6 4-2 5.6-6.9 3.6-10.9-2-4.1-6.9-5.8-11-3.7.1 0 0 0 0 0zM179 238.7c7.6-11.7 4.4-27.3-7.3-35-11.7-7.6-27.3-4.4-35 7.3s-4.4 27.3 7.3 35c4.1 2.7 8.9 4.1 13.8 4.1 8.6.1 16.5-4.2 21.2-11.4zM128.5 277.4c-5.8-3.8-13.7-2.2-17.5 3.6-3.8 5.8-2.2 13.7 3.6 17.5s13.7 2.2 17.5-3.6c3.9-5.8 2.3-13.7-3.6-17.5zM187.4 325.7c-5.7-.3-10.6 4.1-11 9.8s4.1 10.6 9.8 11c5.7.3 10.6-4 11-9.7.3-5.8-4.1-10.7-9.8-11.1zM187.5 260.4c-8.2-.5-15.2 5.8-15.6 14-.5 8.2 5.8 15.2 14 15.6 8.2.4 15.2-5.8 15.6-14 .5-8.1-5.8-15.2-14-15.6zM248.2 276.4c-6.2 3.2-8.7 10.8-5.5 17 3.2 6.2 10.8 8.7 17 5.5 6.2-3.1 8.7-10.7 5.6-16.9-3.2-6.2-10.8-8.8-17.1-5.6z" class="st0"/></g></g></svg>