<svg enable-background="new 0 0 185.6 185.6" viewBox="0 0 185.6 185.6" xmlns="http://www.w3.org/2000/svg" xmlns:xlink="http://www.w3.org/1999/xlink"><radialGradient id="a" cx="-109.7066" cy="-1.1131" gradientTransform="matrix(0 104.235 -104.235 0 -23.2204 11537.7627)" gradientUnits="userSpaceOnUse" r="1.0001"><stop offset=".1667" stop-color="#073183"/><stop offset="1" stop-color="#0054f9"/></radialGradient><clipPath id="b"><path d="m185.6 92.8c0-51.3-41.6-92.8-92.8-92.8-51.3 0-92.8 41.5-92.8 92.8 0 51.2 41.5 92.8 92.8 92.8 51.2 0 92.8-41.6 92.8-92.8z"/></clipPath><linearGradient id="c"><stop offset=".2057" stop-color="#89d0ff"/><stop offset=".3984" stop-color="#ebbf9a"/><stop offset=".6015" stop-color="#eb8280"/><stop offset=".8411" stop-color="#a281ff"/></linearGradient><linearGradient id="d" gradientUnits="userSpaceOnUse" x1="-12.9962" x2="199.6316" xlink:href="#c" y1="-20.8649" y2="202.3003"/><linearGradient id="e" gradientUnits="userSpaceOnUse" x1="-4.751" x2="191.2685" y1="-11.2627" y2="195.3126"><stop offset=".2057" stop-color="#89d0ff"/><stop offset=".3984" stop-color="#ebbf9a"/><stop offset=".6015" stop-color="#eb80da"/><stop offset=".8411" stop-color="#a281ff"/></linearGradient><linearGradient id="f" gradientUnits="userSpaceOnUse" x1="3.5765" x2="182.9841" xlink:href="#c" y1="-2.9604" y2="187.0211"/><linearGradient id="g" gradientUnits="userSpaceOnUse" x1="11.8926" x2="174.6515" y1="5.3707" y2="178.707"><stop offset=".2057" stop-color="#89d0ff"/><stop offset=".3984" stop-color="#ebbf9a"/><stop offset=".6015" stop-color="#eb80e7"/><stop offset=".8411" stop-color="#a281ff"/></linearGradient><linearGradient id="h" gradientUnits="userSpaceOnUse" x1="20.1602" x2="166.3016" y1="13.7178" y2="170.3961"><stop offset=".2057" stop-color="#89d0ff"/><stop offset=".3984" stop-color="#ebbf9a"/><stop offset=".6015" stop-color="#eb80d3"/><stop offset=".8411" stop-color="#a281ff"/></linearGradient><linearGradient id="i" gradientUnits="userSpaceOnUse" x1="28.5352" x2="158.045" y1="21.9645" y2="162.0479"><stop offset=".2057" stop-color="#89d0ff"/><stop offset=".3984" stop-color="#ebbf9a"/><stop offset=".6015" stop-color="#a280eb"/><stop offset=".8411" stop-color="#a281ff"/></linearGradient><path d="m185.6 92.8c0-51.3-41.6-92.8-92.8-92.8-51.3 0-92.8 41.5-92.8 92.8 0 51.2 41.5 92.8 92.8 92.8 51.2 0 92.8-41.6 92.8-92.8z" fill="url(#a)"/><g fill="#fff"><path d="m155.9 63.8c-.4 2.3-.8 3.4-1.4 4.6-.6 1.4-1.2 2.9-1.8 6.1-.2 1.2-.4 2.2-.5 3v.1c-.2 1.3-.3 2.2-.8 3.7-.4 1.3-1.1 3.4-2.8 5.6-1.4 1.8-3.7 4.9-6.8 5.3-.3 0-.8 0-1.1-.1-8.8-4.5-16.3-7.8-18.9-8.5-3-.9-2.6-7.5-2.3-13.3.2-2.6.3-5.1.2-7.2-.4-7.4-1.7-15.4-8.1-19.3-3.8-2.3-8.8-3-13.5-3 .9-.4 1.8-1 2.9-1.6 2.8-1.6 6.2-3.6 9.7-4 1.1-.1 2.2-.2 3.3-.4 6.9-.8 12.9-1.5 19.2.7 2.9 1 8.7 4.2 10.2 7.3 1.1 2.1 2.9 3.8 6.4 7.1 1.9 1.7 3.1 2.7 4 3.5 1.3 1 1.5 1.3 1.9 2 1.2 2.4.8 4.9.2 8.4z"/><path d="m124 94.1c.4.1.6.6.3 1-.9 1.4-2 3.4-3.3 5.7-.6 1.1-1.2 2.2-1.7 3-1.7 2.9-1.8 5.4-1.9 7.3-.1 2.1-.2 3-1.5 3.8-1 .7-2.1.9-9.3 2-1.3.2-1.8.4-2.3.7-.1.1-.3.1-.4.2-.4.2-.8-.2-.8-.6.1-1 .1-2.3.1-4v-.3c0-1.4 0-2.6-.1-3.5-.1-1.8-.1-2.6.4-3.4.6-1 1.1-1.3 1.8-1.8 1.1-.7 2.6-1.6 4.7-4.6 1.2-1.6 1.4-2.5 1.6-3.2.1-.3.1-.4 1-1.1s3.8-2.9 7.5-2.3c1.2.2 2.5.6 3.9 1.1z"/><path d="m95.3 127.3c-.2.2-.3.3-.6.3-.8 0-1.3-.2-1.6-.6-.7-.9-.6-2.7-.5-3.8l3.1-.8c.2 1.7.3 4-.4 4.9z"/><path d="m95.5 116.3c-.1.4-.1.9-.1 1.5v.6 1.7c-1 .3-1.8.3-2.8.3 0-.3 0-.8 0-1.1 0-.2 0-.5 0-.7 0-.3 0-.5 0-.8 0-.6 0-1.5.1-1.8.3 0 .6-.1.9-.2.6-.1 1.5-.3 2-.2 0 .2 0 .5-.1.7z"/><path d="m89.9 126.4c-.1 1.6-.6 3.5-2.1 3.8-.7.1-1-.1-1.2-.3-1-.9-1.1-3.7-1-5.7.7 0 1.5-.1 2.5-.3.6-.1 1.2-.3 1.7-.4.1.8.2 1.8.1 2.9z"/><path d="m89.2 120.8-3.3 1.2c.2-1.3.4-3.1.5-4.3.1-.8.3-1.1.4-1.2 0 0 .1-.1.2-.1h.1.1l2.1-.1c-.1 1-.1 3.2-.1 4.5z"/><path d="m83.8 119.8c-.2.5-.4 1.9-.5 2.9l-4.1-.1c.2-1.3.6-2.6.9-3.6.4-1 .7-1.8 1.1-2s1.3-.3 1.9.2c.9.6 1.1 1.5.7 2.6z"/><path d="m82.3 132.5c-.3.4-.7.7-1.1.7-.5.1-.8-.1-1.1-.3-1.3-1.2-1.2-5.1-1.1-7 1.7-.4 3.6-.7 4.5-.8 0 1.5.1 5.6-1.2 7.4z"/><path d="m76.9 122.4c-.2.5-.4 1-.5 1.5-.5.2-2 0-3.5-.3l1-6.5c1.7-.5 3.7-.6 4.1-.1.7.7-.6 4-1.1 5.4z"/><path d="m75 133.4c-.8 1-2 1.5-3.7 1.4-1.2 0-1.6-.5-1.8-.8-.9-1.5 0-5 .9-7.2l5.6.3c.1.4.1.9.1 1.4.1 1.7-.1 3.7-1.1 4.9z"/><path d="m121.4 86.1c-5.1-1.4-4.6-8.8-4.2-16 .1-2.5.3-4.9.2-6.9-.4-6.7-1.5-14-6.9-17.3-5.8-3.5-15.3-2.7-21.1-2-2.1.6-4.1 1.1-5.7 1-3.4-.2-6.1-1.6-8.5-2.9-1.8-1-3.4-1.9-5-1.9-.1 0-.2 0-.2 0-4.5.3-6.6 1.4-8.5 3.1-.5.4-1.1 1.6-3 7.1-1 2.8-1.1 4.3-1.3 5.7-.2 1.3-.3 2.7-1 4.8-.5 1.4-.9 2.6-1.2 3.8-.9 3.1-1.7 5.6-3.9 8.6-.3.3-.6.9-1 1.4-.5.8-1.1 1.8-2 2.9-.6.8-1.9 3.8-1.8 4.7.1 1.5.6 2.4 1.1 3.4s1.2 2.2 1.3 3.9v.3c.2 2.6-.2 3.9-5.1 8.3-3.1 2.8-5.4 5.5-6.9 7.5-.1.2 0 .4.3.4h.1.3s.2 0 .3 0 .2 0 .3 0c1.2.1 2.4.6 3.2 1.5.1.2.4.2.6.1.8-.3 1.7-.3 2.5-.2 1 .1 2.1.4 2.8 1.1.2.2.5.3.8.2.8-.2 1.7-.2 2.5.1.6.2 1.2.6 1.6 1.1.3.3.8.4 1.2.2.2-.1.5-.3.8-.4 1.1-.4 2.3-.2 3.3.2.5.2 1 .3 1.5.7.8.6 1.4 1.4 1.7 2.3.2.5.9.7 1.3.3.8-.6 1.4-.7 2-.5.3.1.5.3.7.6.3.4.8.8 1.2.6 1.7-.5 3.7-.2 5.2.6.5.3 1.1.7 1.4 1.3v-.3c0-.1.1-.2.2-.3l.3-.1c.8-.3 5-1.5 6.6.2.1.1.2.1.3 0 .2-.2.4-.4.5-.4 1.1-.6 2.9-.7 4.1.4.2.2.6.1.8-.1.1-.2.2-.3.4-.4.4-.4 1-.5 1.6-.5l2.3-.1c.6 0 2.4-.2 2.9-.3h.1c.2 0 .5-.1.8-.2 1.1-.2 2.4-.5 3.4 0s.9 1.6.8 2.6c0 .4-.1.8-.1 1.2v.6c0 .9 0 1.7-.1 2.3l.1.5v.1c.1.4.6.7.9.4.8-.5 1.6-1.1 1.9-1.5v-.1c0-.1.1-.3.2-.7.1-.9.3-2.6.3-6.1 0-.2 0-.3 0-.4 0-1.3 0-2.4-.1-3.3-.1-1.9-.2-3.4.8-4.9.9-1.5 1.8-2 2.7-2.6 1-.6 2.1-1.3 4-3.9.9-1.3 1-1.8 1.1-2.2.2-1 .5-1.6 2-2.6 1.2-.9 4.7-3.6 9.5-2.8 1.6.3 4.1 1.1 6.7 2.1.1 0 .2.1.3.1h.1c2.3.9 4.4 1.9 5.9 2.7.3.2.7.1 1-.2.5-.6 1-.9 1.5-1.3.2-.1.4-.2.5-.3.1 0 .1-.1.1-.1.4-.3.4-1.1-.1-1.3-6.7-3.3-13.1-5.3-15.2-5.9zm-48.2 1.5c-1.6 6.8-12.2 14.4-17 14.4h-.1c-.1 0-.2 0-.2 0-.1 0-.2 0-.3-.1-.1 0-.1 0-.2 0-.9-.3-2.1-.9-3-1.8-.6-.6-1.1-1.4-1.3-2.1 0-.1-.1-.3-.1-.4-.3-1.2-.6-2.6.4-5 .1-.3.3-.6.4-.9 0-.1.1-.2.1-.3.1-.3.2-.5.3-.7.1-.4.3-.7.4-.9 0-.1.1-.2.1-.3.3-.8.3-1.1.4-1.4 0-.2.1-.6.2-1 .3-1.3.5-2.4.6-3.3.2-1.7.5-3.2 1.4-4.6.2-.2.3-.4.5-.6.1-.1.1-.1.2-.2l.2-.2c.2-.2.5-.3.7-.4.1 0 .2-.1.3-.1.2-.1.4-.1.6-.2.9-.2 1.9-.2 3.1-.1 1.3.1 2.5.3 3.5.6.9.2 1.7.5 2.3.8.1 0 .1.1.2.1.1.1.2.1.4.2s.3.1.5.2.4.2.6.3l.2.1c.7.3 1.4.7 1.9 1.1.3.2.5.4.7.6.1.1.2.1.2.2l.2.2c2.1 1.8 2 4.3 1.6 5.8zm5-25.9-.2 1.2c-.5 2.8-1.6 6.6-5.6 7.6-3.9.9-4.8 1.1-7.5 1.3-.1 0-.1 0-.2 0-2 0-5.9-1.3-6.6-4.4-.4-2 .5-3.5 1.9-5.9.2-.4.5-.8.8-1.3 2-3.3 2.7-5.7 3.3-7.6s1.1-3.4 2.4-4.7c.3-.3.6-.6 1-.8.2-.2.5-.3.8-.5.4-.2.8-.3 1.2-.5.9-.3 1.9-.4 2.8-.4 1.9 0 3.8.5 5.1 1.6.6.5 1.5 1.4 2 4.3.2 1.5-.2 4.2-1.2 10.1zm28.7 8c-1.4 2.4-2.1 3.7-3.3 4.7-2.4 2-5.1 2.4-7.4 2.4-1.6 0-3-.3-3.9-.4-2.4-.4-6.7-1.2-8.2-4.7-.3-.7-.3-1.1-.3-1.7 0-.5 0-1.5-.3-3.6v-.1c-.1-1-.2-2.1 0-3.5v-.2c.8-4.2 1.1-4.8 1.2-5.2.4-.8 1.4-1.2 2.3-.7.8.4 1.1 1.4.8 2.2-.1.2-.3 1.1-1 4.4v.2c-.2.9-.1 1.6 0 2.5v.1c.3 2.4.3 3.4.3 4v.3.1c.3.7.9 1.1 1.6 1.5.5.2 1-.2.9-.7-.7-3.7-.7-8 .7-10.7.5-.9 1.3-2.3 2.1-3.7.1-.1.2-.3.2-.4.1-.1.1-.2.2-.3.4-.6.7-1.1 1-1.6 0-.1.1-.1.1-.2l.1-.1c.1-.1.1-.2.2-.3 0 0 0-.1.1-.1l.1-.1c0-.1.1-.1.1-.2.3-.4.6-.8.8-1.2.4-.5-.1-1.1-.6-.9-1.4.6-2.3 1.3-2.5 1.4-.7.6-1.8.5-2.4-.3-.6-.7-.5-1.8.3-2.4.9-.7 5.5-4 11-2.5 4 1.1 6 4.2 6.8 5.3.6.9 2.6 3.7 2.5 7.7 0 2.9-1.2 5.1-3.5 9z"/><path d="m71.1 49.2c-.3.7-.6 1.5-1 2.4-.8 2.1-1.8 4.5-2.3 5.4-.8 1.5-1.4 2.5-1.9 3.2-.6.9-1 1.6-1.4 2.6-.6 1.7-.7 3.6-.3 5.7-1.1-.1-2.8-.8-3-1.8-.1-.7.3-1.4 1.5-3.5.2-.4.5-.9.8-1.3 2.1-3.6 3-6.3 3.6-8.3.7-2.1 1-3 2.1-3.8.7-.3 1.3-.5 1.9-.6z"/><path d="m69 124.8c-1.2 2.4-2.6 4.6-3.5 5.7-.8-2-2.1-6.7-1.7-10.4 0-.1 0-.2 0-.3.1-1.2.4-2.2 1-3.1.4-.6 1.4-.9 2.5-.9.8 0 1.7.2 2.5.6.4.2 1 .7 1 2 .2 1.8-.7 4.2-1.8 6.4z"/><path d="m133 98.1c.1.1.1.2.1.3-.3.7-.8 1.2-1.3 1.8-.6.7-1.3 1.5-1.9 2.8-.9 1.8-1.2 3.4-1.3 7.6-.2 4.9 0 7.6.2 9.6.1 1.9.2 3.1-.1 5-.7 3.8-2.3 6.3-4.4 9.5-2.6 4-5.2 8.1-9.6 9.4-.4.1-.4.1-1.6.1-1 0-2.7 0-5.8.1-5.8.2-8.7.3-11.1.8-2.6.5-3.9 1.1-5.3 1.6-1.2.5-2.3.9-4.4 1.4-1.3.3-3.2.5-9.7.6-6.8 0-10.9 0-16.2-.6-7.4-.8-11.1-1.3-13.6-2.6-5.8-3.1-8.3-8.7-12.3-17.9 0-.1.1-.2.2-.2l.6.3c.2.1.4.1.5.1.4.1.8.1 1.2 0 .1 0 .1 0 .2-.1.1 0 .2 0 .2.1.3.7.7 1.3 1.4 1.7s1.5.4 2.2.4c.8 0 1.6-.1 2.4-.2.4 0 .8.2 1 .5.7 1.8 1.6 3 3 3.2h.3c.3 0 .8-.1 1.4-.5.5-.4 1.3-.1 1.7.4.3.5.7.8 1.1 1.1 1.4 1.4 4.8 2.1 7.6 2.1 1.5 0 2.9-.2 3.7-.6 1.2-.6 1.2-1.4 1.1-1.8-.1-.6-.2-1.3-.3-1.9 0-.1.1-.1.1 0 .2.4.4.8.9.9h.2c.8 0 2 .3 2.2 1 .1.4.3.7.5 1.1.5.7 1.4 1.6 3.3 1.7h.1c2.2 0 3.9-.7 5-2.1.1-.1.1-.2.2-.3.4-.6 1.6-.6 2.1-.1.6.5 1.3.8 2.1.8h.4c1-.1 1.8-.6 2.5-1.5.4-.6.7-1.3.9-2.1.1-.2.4-.3.6-.1.4.4 1.1.8 2.1.8.2 0 .5 0 .8-.1 1.9-.4 2.9-2 3.3-3.7 0-.1.1-.1.1 0 .5.6 1.4 1.3 2.9 1.3h.2c.8 0 1.5-.4 2-1 .6-.8.8-2 .9-3.1 0-.3.2-.6.6-.8 1.6-.7 3.6-2.2 4.2-3.2 0 0 0-.1.1-.1.1-.3.4-.5.6-.5 1.3-.2 1.8-.5 2.3-.7.4-.2.7-.3 1.7-.5 7.3-1.1 8.7-1.4 10.3-2.4 2.4-1.6 2.5-3.8 2.6-5.9.1-1.8.2-3.8 1.6-6.2.5-.9 1.1-1.9 1.7-3.1 1.1-2 2.6-4.8 3.7-6.3.2-.3.6-.4.9-.2 2.5.9 4.7 1.9 5.1 2.3z"/><path d="m62 119.9c-.3 2.5-.5 5.9-.1 10.3.1 1.2.3 2.5.5 3.8-.3.2-1.4.5-3.2.4-2.6-.1-5.2-.7-6-1.6l-.1-.1c-.6-.5-1.1-.9-1.1-1.8 0-.3.1-.6.4-1.1.2-.2.4-.5.6-.9.4-.6 1-1.3 1.6-2.3 1.7-2.8 2.3-3.7 3.1-4.8.1-.1.1-.2.2-.3.5-.6 1-1.4 1.9-2.7.6-.9 1.1-1.7 1.6-2.3.7-1 1.2-1.5 1.5-1.8 0 .4-.1 1-.2 1.6-.4 1.2-.6 2.3-.7 3.6z"/><path d="m60.7 80.5c0 .1 0 .1 0 0-.4.5-.8 1.1-1.3 2.1-1.3 2.8-1.3 4.4-1.3 5.7 0 .7 0 1.2-.2 1.8-.1.4-.3.9-.6 1.4-.7 1.7-1.7 3.9-1.3 6.9-.6-.3-1.5-1-1.7-1.3 0-.2-.1-.3-.1-.5-.2-.9-.3-1.5.2-2.9 1.6-3.6 1.8-4.5 1.9-5.5 0-.2.1-.4.1-.7.3-1.4.5-2.6.6-3.6.2-1.5.4-2.5.9-3.2.2-.3.7-.4 1.4-.4.3 0 .6 0 1 .1h.1c.3.1.3.1.3.1z"/><path d="m58.7 116.2c-.1-.9-.2-1.7-.6-2.6 0 0-.1-.2-.1-.3-.1-.1-.1-.2-.2-.3l-.1-.1c-.1-.1-.1-.1-.2-.1l-.1-.1c-.1 0-.1-.1-.2-.1h-.1c-.5-.2-1-.4-1.6-.5-.1 0-.2 0-.2 0-.1 0-.1 0-.2 0h-.1c-.1 0-.2.1-.4.1-.1 0-.1.1-.2.1l-.1.1c-.1.1-.1.1-.2.2l-.1.1v.1c-.2.3-.4.6-.6.9-.5.7-1 1.5-1.5 2.2s-.9 1.3-1.4 2c-.3.4-.5.7-.8 1.1 0 .1-.1.1-.1.2.3.1.6.1.9.2.7.1 1.4.2 2 .3 1.4.2 2.9.3 4.3.2h.2c.3-.5.8-1.1 1.3-1.9.3-.4.6-.8.8-1.2-.3-.1-.4-.4-.4-.6z"/><path d="m53.6 122.1c-.1 1.1-1.3 3.9-3.2 6.6-1.6 2.2-2.6 2.8-2.8 2.8-.8-.1-1.5-2-2.1-3.9-.2-.8-.5-1.5-.6-2.2-.4-1.4-.5-3.4-.4-4.6 1.6.9 4.4 1.1 8.4 1.1.2.1.5.1.7.2z"/><path d="m50.8 113.1c-.7 1.1-1.4 2.1-2.1 3.1-.4.5-.7 1-1.1 1.5-.2.3-.5.6-.7.9-.6-.1-1.1-.3-1.7-.4-.5-.1-.9-.3-1.4-.5-.1 0-.2-.1-.3-.1-.1-.1-.2-.3-.3-.4.2-.3.3-.7.5-1 .3-.6.6-1.2 1-1.8.6-1 1.3-2.1 2.4-2.8.1 0 .1-.1.2-.1.4-.2.8-.4 1.3-.5h.6.1.1s.2.1.4.1c0 0 .1 0 .1.1.1.1.2.1.3.2-.2-.1.2.3.2.2.2.6.3.9.4 1.5z"/><path d="m45.4 110.2c-1.3 1-2.2 2.4-2.9 3.9-.4.8-.8 1.6-1.2 2.4 0 .1-.1.2-.1.2-.4-.1-.8-.2-1.1-.3-.4-.1-.8-.3-1.2-.4-.2-.1-.3-.2-.5-.3.4-.7.8-1.4 1.3-2.1.6-.9 1.3-1.9 2-2.7.3-.3.6-.7.9-.9.4-.2.8-.2 1.3-.1.5 0 1 0 1.4.2-.1 0 0 .1.1.1z"/><path d="m43.4 127.2c-.1.1-.1.1-.2.2h-.1c-.3 0-.6.1-.9.1-.6 0-1.2.1-1.8 0-.3 0-.6-.1-.8-.3-.2-.3-.3-.9-.4-1.3-.4-2.2-.4-4.4-.2-6.6 1.1.4 2.3.7 3.5.9-.3 2 .2 4.9.4 5.7.3.4.4.9.5 1.3z"/><path d="m39.8 109.5c-1 1.2-1.9 2.5-2.7 3.9-.3.5-.7 1.1-1 1.7-.4-.1-.8-.3-1.1-.5s-.6-.4-.8-.6c-.1-.1-.3-.2-.4-.3 0 0-.1 0-.1-.1.1-.3.3-.5.3-.7.2-.5.4-.9.7-1.3.5-.8 1-1.6 1.6-2.4.2-.3.4-.6.8-.7.3-.1.7 0 1 0 .6.1 1.2.5 1.7 1z"/><path d="m32.1 114.8c0-.1.1-.1 0 0 .4.4.7.7 1.1 1 .2.1.3.3.5.4v.1c-.4 1.7-.7 3.5-.7 5.3 0 .1-.1.1-.1 0-.5-2.1-1.1-5.5-.8-6.8z"/><path d="m37 118.5c-.2 1.5-.3 3-.2 4.5 0 .8.1 1.6.2 2.5-.2 0-.4 0-.6 0h-.1-.1c-.2-.1-.2-.1-.4-.2s-.4-.4-.6-.7c-.4-.7-.5-1.5-.5-2.3-.1-1.5.1-3.1.4-4.6.2.1.5.2.8.3.4.2.7.4 1.1.5z"/></g><g clip-path="url(#b)"><g fill="none" opacity=".8" stroke-miterlimit="10"><path d="m76.4 196.5c-6.8 0-13.2-.4-18.6-.8l-1.5-.1-1.5-.2c-.7-.1-1.5-.2-2.4-.3-5.2-.6-14.9-1.6-25.6-6.6l-1.7-.8-1.5-.9c-20.6-11.6-28.2-28.9-32.4-38.2-.3-.6-.6-1.3-.9-2-2.1-4.3-3.4-8.1-4.5-11.7l-.2-.8-.2-.8c-3-10.6-3.7-19.7-2.4-28.8 1.4-9.1 4.7-17.3 10.6-26l3-4.9c.6-1 1-2.1 1.3-3.2 2.3-11.4 7.5-19.5 10.1-23.4.7-4.7 1.9-9.3 3.5-13.8l.2-.7.3-.7c0-.1.1-.3.2-.6 1.2-3.5 3.9-11.6 10.8-20.2l2.6-3 2.7-2.4c6.8-6.2 15-10.8 23.8-13.4 4.9-1.5 10-2.4 15.2-2.7h.5.7c.9 0 1.8-.1 2.6-.1 3.2 0 6.4.3 9.6.8 2 .3 4 .1 5.9-.7 5.5-2.3 11.2-3.8 17.1-4.6.5-.1.9-.1 1.3-.2.9-.1 2.4-.3 4.2-.5 3.1-.3 7.9-.7 13-.7 10.1 0 18.8 1.3 26.6 4l.7.2.6.2c17.2 6.5 25.9 15.6 32.2 23.5l.3.4.9.8c5.7 4.4 10.5 9.9 14.3 16l1.2 1.9 1 2c8.4 17.1 5.7 33 4.7 38.9l-.1.3c-.7 4.4-1.9 8.7-3.4 12.9-.6 4-1.5 8-2.8 11.8-2.2 6.8-5.5 13.3-9.7 19.1-2.4 3.4-5.2 6.7-8.2 9.6-1.1 1-1.8 2.4-2 3.9-.1.9-.3 1.8-.4 2.7-2.5 13.2-8.2 22.4-10.6 26.1l-7.1 10.2c-8.6 10.7-18.8 17.7-31.1 21.5l-3 .9-3.2.6c-3.7.7-7.4 1-11.2 1-.5 0-1 0-1.6 0h-.2-.6-.7c-1.4 0-2.8.3-4.2.7-8.2 2.6-17.2 3.8-28.2 3.8z" opacity=".8" stroke="url(#d)" stroke-width="1.0554"/><path d="m76.4 189.4c-6.5 0-12.8-.4-18-.8l-1.2-.1-1.2-.2c-.8-.1-1.7-.2-2.6-.3-5.1-.5-13.5-1.5-22.9-5.9l-1.4-.7-1.3-.7c-18.3-10.1-25-25.2-29-34.2-.3-.6-.6-1.4-1-2.1-1.9-3.8-3.1-7.4-4.1-10.6l-.2-.7-.2-.6c-2.6-9.5-3.3-17.5-2.1-25.4 1.2-7.8 4.2-15.1 9.4-22.7l3.9-6.3c.7-1.1 1.2-2.4 1.4-3.7 1.9-10.8 7-18.4 9.3-21.9l.3-.4.1-.2c0-.1.1-.2.1-.3.1-.5.3-.9.4-1.3.6-4.4 1.7-8.8 3.2-13l.2-.6.2-.6c.1-.2.1-.4.3-1 1.1-3.3 3.4-10.2 9.4-17.6l2.2-2.6 2.2-2c5.9-5.4 13-9.4 20.6-11.6 4.4-1.3 8.8-2.1 13.4-2.3h.4.6c.8 0 1.5-.1 2.2-.1 3.3 0 6.5-.9 9.7-.3 2.5.5 5 .2 7.3-.8 4.3-1.9 10.1-2.6 16.7-3.5.5-.1.9-.1 1.2-.2.9-.1 2.3-.3 3.9-.4 2.9-.3 7.4-.6 12.3-.6 9.2 0 17 1.2 23.9 3.5l.6.2.5.2c15.2 5.8 22.7 13.4 28.6 20.9.3.4.7.8.8 1l.1.1 1.1 1 .1.2c5.1 3.9 9.4 8.7 12.7 14.1l1 1.6.8 1.7c7.2 14.7 5 28.2 4 33.9l-.1.3c-.7 4.2-1.8 8.2-3.3 12.2-.5 3.8-1.4 7.6-2.6 11.2-2 6-4.9 11.7-8.6 16.9-2.5 3.6-5.5 6.9-8.7 9.8-1.5 1.4-2.5 3.2-2.7 5.3-.2 1.5-.4 2.9-.6 4.4-2.2 11.7-7.2 19.7-9.6 23.3l-5.8 8.4c-7.7 9.9-16.8 16.3-27.8 19.7l-2.5.8-2.7.5c-3.2.6-6.5.9-9.7.8-.5 0-1 0-1.5 0h-.1-.3s-.1 0-.3 0h-.6-.6-1.1c-1.5.1-3 .3-4.5.8-7.3 2.4-15.8 3.5-26.2 3.5z" opacity=".8" stroke="url(#e)" stroke-width="1.0554"/><path d="m76.4 181.1c-6.2 0-12.3-.4-17.4-.8l-1-.1-1-.1c-.9-.1-1.9-.2-2.9-.3-4.8-.5-12.1-1.3-20.3-5.2l-1.1-.5-1-.6c-15.7-8.8-21.5-21.8-25.3-30.4-.3-.7-.7-1.6-1-2.3-1.7-3.4-2.8-6.6-3.7-9.6l-.2-.5-.1-.5c-2.3-8.2-2.9-15.2-1.9-21.8 1-6.7 3.7-13 8.3-19.7l.6-.8.6-.8c.4-.5.7-1 1.1-1.4l2.3-4.3c.8-1.4 1.3-2.9 1.5-4.5 1.5-9.6 6.1-16.5 8.2-19.7.1-.2.3-.4.4-.5l.5-.7c.2-.4.4-.9.6-1.5s.5-1.5.7-2.3c.5-4.1 1.5-8.1 2.9-12l.2-.5.2-.5c.1-.4.3-.7.5-1.4 1-3.1 2.9-8.8 8-15l1.7-2.1 1.8-1.6c5-4.6 11-7.9 17.5-9.9 3.8-1.1 7.6-1.8 11.6-2h.3.5 1.9c3.4 0 6.7.4 10 1.3 2.8.7 5.8.4 8.4-.9 4.2-2 9.8-4.2 16.3-5 .4-.1.8-.1 1.1-.2.8-.1 2.1-.3 3.7-.4 2.7-.3 7-.6 11.5-.6 8.2 0 15.1 1 21.2 3.1l.4.2.4.2c14 5.3 20.2 12.2 25 18.3 1.1 1.3 1.2 1.5 1.9 2.2l.9.8.3.4c2.3 1.8 7 5.5 11.1 12.2l.8 1.3.7 1.3c6.1 12.3 4.2 23.5 3.3 28.9l-.1.3c-.6 3.9-1.7 7.8-3.3 11.5v.3c-.4 3.5-1.2 7-2.3 10.3-1.7 5.3-4.2 10.2-7.5 14.7-2.7 3.9-6 7.4-9.7 10.4-.9.7-1.6 1.6-2.1 2.6s-.8 2.1-.9 3.2c-.1 2.2-.4 4.4-.8 6.6-1.9 10.1-6.3 17.1-8.5 20.6l-4.5 6.6c-6.7 9-14.7 14.8-24.4 17.8l-2 .6-2.2.4c-2.7.5-5.5.7-8.3.7-.4 0-.9 0-1.4 0h-.1-.5c-.1 0-.3 0-.8 0h-.5-.4l-2.3.1c-1.6.1-3.2.3-4.7.9-6.9 2.2-14.8 3.2-24.7 3.2z" opacity=".8" stroke="url(#f)" stroke-width=".9894"/><path d="m76.4 172.8c-5.9 0-11.8-.4-16.7-.8l-.7-.1-.7-.1c-1-.1-2.1-.3-3.1-.4-4.5-.5-10.7-1.2-17.7-4.4l-.8-.4-.8-.4c-13.3-7.5-18.2-18.5-21.8-26.5-.4-.8-.8-1.7-1.1-2.5-1.5-3.1-2.5-6-3.3-8.5l-.1-.4-.3-.3c-3.9-13.8-2.4-23.5 5.2-34.6l.4-.6.4-.6c.5-.6 1-1.3 1.5-1.9.7-.9 1.4-1.9 2.2-2.8.5-.6.9-1.3 1.2-2l.9-2.2c.4-1 .6-2 .7-3 .8-8.9 5.1-15.3 7.2-18.5.2-.2.4-.6.5-.7l.5-.8.2-.2c.3-.5.8-1.7 1.2-2.9.2-.8.6-2.1 1-3.2v-.1c.4-3.7 1.3-7.4 2.6-10.9l.1-.3.1-.3c.2-.6.4-1.1.6-1.8.9-2.7 2.4-7.3 6.5-12.4l1.3-1.6 1.3-1.2c9.7-8.8 20.5-9.5 24.1-9.8h.2.4 1.5c4.3 0 8.5.9 12.5 2.6.7.3 1.5.4 2.2.4.8 0 1.5-.2 2.2-.6 3.7-2.1 10.4-6 19-7 .4-.1.8-.1 1.1-.1.8-.1 2-.2 3.4-.4 2.6-.2 6.5-.5 10.7-.5 7.3 0 13.3.9 18.4 2.6l.3.1.3.1c12 4.5 17.1 10.2 21.4 15.6 1.1 1.5 1.7 2.1 2.9 3.3l.7.6.5.6.4.3c2 1.6 5.8 4.5 9.2 10l.6 1 .5 1c4.9 10 3.3 19 2.5 23.8v.3c-.6 3.5-1.6 7-3 10.3l-.1.3c0 .1 0 .1-.1.3-.1.3-.1.6-.1.9l-.1.4c-.3 3-1 5.9-2 8.7-1.5 4.5-3.6 8.7-6.4 12.5-2.7 3.9-5.8 7.1-9.2 9.6-1.5 1.1-2.7 2.5-3.6 4.2s-1.3 3.5-1.3 5.4c0 2.3-.3 4.7-.7 7-1.6 8.6-5.2 14.4-7.5 17.9l-3.3 4.9c-5.8 8.1-12.7 13.3-21 15.9l-.4.1c-.7.2-1.4.4-2.1.5l-.5.1c-2.3.4-4.6.6-6.9.6-.4 0-.8 0-1.2 0h-.1c-.2 0-.4 0-.6 0s-.6 0-1.4 0h-.3-.3c-1.1 0-2.5.1-3.7.1-1.7.1-3.3.4-4.9 1-6 1.8-13.3 2.8-22.7 2.8z" opacity=".8" stroke="url(#g)" stroke-width=".9235"/><g stroke-width=".8575"><path d="m76.4 164.5c-5.7 0-11.3-.4-16.1-.8h-.5l-.5-.1c-1.1-.2-2.3-.3-3.4-.4-4.2-.5-9.4-1-15-3.7l-.6-.3-.5-.3c-10.9-6.1-15-15.3-18.2-22.7-.4-.9-.8-1.8-1.2-2.8-1.3-2.6-2.2-5.2-2.9-7.4l-.1-.3-.1-.3c-3.2-11.4-2.1-18.6 4.1-27.6l.3-.4.3-.4c.5-.7 1-1.3 1.5-2 1.6-2.1 3.2-4.2 5.5-6.7.5-.5.8-1.3.9-2l.1-2.3-.1-.9v-.9c.2-7.4 3.9-12.9 5.9-15.9.2-.3.5-.7.6-.9l.3-.5.3-.4c.4-.6 1.3-2.7 2.1-4.6.3-.8.7-2.4 1.2-3.7.1-.4.1-.5.2-1.4.3-3.1 1.1-6.2 2.1-9.1l.1-.2.1-.2c.3-.8.5-1.4.8-2.2.8-2.4 2-5.9 5.1-9.8l.9-1.1.9-.8c6.8-6.1 14.1-7.3 19.1-7.6h.2.2 1.1c4.2 0 9.3 2 12 3.3.6.3 1.3.5 2 .5s1.4-.1 2.1-.3c1.7-.6 3.3-1.3 4.8-2.1 3.4-2 9-5.2 16-6 .4-.1.7-.1 1-.1.7-.1 1.8-.2 3.2-.4 2.4-.2 6-.5 9.9-.5 6.3 0 11.5.7 15.7 2.2l.2.1.2.1c10 3.8 14 8.1 17.8 13 1.2 1.6 2.1 2.7 3.9 4.3l.4.4.4.4c.4.4.8.7 1.2 1 1.7 1.3 4.6 3.6 7.1 7.8l.4.6.3.7c3.7 7.5 2.5 14.6 1.8 18.8v.3c-.5 2.9-1.3 5.7-2.5 8.4-.3.7-.5 1.4-.7 2.2-.1.5-.2 1-.2 1.4l-.1.4c-.3 2.4-.8 4.8-1.6 7.1-1.2 3.7-3 7.2-5.2 10.3-3.4 4.8-7.3 8.2-12 10.4-1.1.5-2.1 1.3-2.8 2.4-.7 1-1.1 2.3-1.2 3.5v1.2c.2 3.6.5 7.7-.3 12-1.3 7-4.3 11.7-6.5 15.2 0 0-10.2 14.2-19.5 17.1l-1 .3-1.1.2c-1.8.3-3.6.5-5.5.5-.3 0-.7 0-1.1 0-.2 0-.5 0-.8 0-.4 0-1 0-1.9.1h-.2-.2c-3.6.1-6.9.2-7.9.4-.5.1-1 .2-1.5.4-4.9 2.1-11.8 3.1-21.3 3.1z" opacity=".8" stroke="url(#h)"/><path d="m76.4 156.3c-5.4 0-10.8-.4-15.4-.7h-.2-.2c-1.3-.2-2.5-.3-3.6-.4-3.9-.4-8-.9-12.4-2.9l-.3-.1-.3-.1c-8.5-4.8-11.7-11.9-14.7-18.8-.4-1-.9-2-1.4-3-1-2-1.8-4.2-2.4-6.3v-.1-.1c-2.6-9.1-1.9-13.7 2.9-20.7l.1-.2.1-.2c.6-.7 1.1-1.4 1.6-2 2.3-3 4.3-5.6 8.8-9.8.3-.3.6-.7.7-1.2.1-.4.1-.9-.1-1.3l-.8-2.3c-.2-.7-.3-1.5-.3-2.2v-.6-.5c.2-5 2.8-8.9 4.5-11.5.3-.4.5-.8.7-1.1l.2-.3.2-.3c.9-1.2 2.4-4.7 3.2-6.8.2-.7.7-2.4 1.2-3.7.3-1 .5-2 .6-3 .3-2.5.8-5 1.7-7.3v-.1-.1c.4-1 .7-1.8.9-2.6.7-2.1 1.5-4.5 3.7-7.2l.4-.5.4-.4c4.8-4.4 10.1-5.2 14.1-5.5h.1.1.7c4 0 7 1.6 9 2.7l.5.2h.1c.6.3 1 .6 1.5.8 1.2.6 2.7.8 4 .4 2.8-.7 7.1-2.4 9.9-4h.1c3-1.8 7.6-4.4 13-5 .3-.1.7-.1 1-.1.6-.1 1.7-.2 2.9-.3 2.2-.2 5.6-.5 9.1-.5 5.4 0 9.7.6 13 1.7h.1.1c8 3 11 6.2 14.2 10.4 1.3 1.7 2.6 3.3 5 5.4l.2.2.2.2c.6.6 1.3 1.2 2.1 1.8 1.4 1.1 3.4 2.6 5.1 5.5l.2.3.2.3c2.5 5.2 1.7 10.1 1.1 13.8v.3c-.4 2.3-1 4.5-2 6.7-.5 1.2-.9 2.5-1.1 3.8-.1.8-.2 1.4-.3 1.9l-.1.4c-.2 1.9-.6 3.7-1.2 5.5-.9 2.9-2.3 5.6-4.1 8.1-3 4.4-6.4 7.1-10.9 8.5-2.2.7-4 2.1-5.2 4l-.4.5-.4.5c-1.1 1.3-.8 6.3-.6 9.3.2 3.3.4 6.7-.2 9.9-1 5.5-3.4 9.2-5.5 12.4 0 0-7.8 11.3-14.9 13.4l-.5.2-.5.1c-1.3.2-2.7.4-4.1.4-.3 0-.6 0-1 0-.3 0-.6 0-1 0-.5 0-1.2 0-2.4.1h-.1-.1c-4.7.2-7.6.3-9.2.6-1.1.2-2.1.5-3.1.9-4.3 1.7-10.1 2.6-18.5 2.6z" opacity=".8" stroke="url(#i)"/></g></g></g></svg>