<svg xmlns="http://www.w3.org/2000/svg" xml:space="preserve" viewBox="0 0 2496 2496"><path fill="#f0b90b" fill-rule="evenodd" d="M1248 0c689.3 0 1248 558.7 1248 1248s-558.7 1248-1248 1248S0 1937.3 0 1248 558.7 0 1248 0z" clip-rule="evenodd"/><path fill="#fff" d="m685.9 1248 .9 330 280.4 165v193.2l-444.5-260.7v-524l163.2 96.5zm0-330v192.3l-163.3-96.6V821.4l163.3-96.6L850 821.4 685.9 918zm398.4-96.6 163.3-96.6 164.1 96.6-164.1 96.6-163.3-96.6z"/><path fill="#fff" d="M803.9 1509.6v-193.2l163.3 96.6v192.3l-163.3-95.7zm280.4 302.6 163.3 96.6 164.1-96.6v192.3l-164.1 96.6-163.3-96.6v-192.3zm561.6-990.8 163.3-96.6 164.1 96.6v192.3l-164.1 96.6V918l-163.3-96.6zm163.3 756.6.9-330 163.3-96.6v524l-444.5 260.7v-193.2l280.3-164.9z"/><path fill="#fff" d="m1692.1 1509.6-163.3 95.7V1413l163.3-96.6v193.2z"/><path fill="#fff" d="m1692.1 986.4.9 193.2-281.2 165v330.8l-163.3 95.7-163.3-95.7v-330.8l-281.2-165V986.4l164-96.6 279.5 165.8 281.2-165.8 164.1 96.6h-.7zM803.9 656.5l443.7-261.6 444.5 261.6-163.3 96.6-281.2-165.8-280.4 165.8-163.3-96.6z"/></svg>