<svg enable-background="new 0 0 120.1 138.8" viewBox="0 0 120.1 138.8" xmlns="http://www.w3.org/2000/svg" xmlns:xlink="http://www.w3.org/1999/xlink"><linearGradient id="a"><stop offset="0" stop-color="#002d74"/><stop offset="1" stop-color="#002d74" stop-opacity="0"/></linearGradient><linearGradient id="b" gradientTransform="matrix(1 0 0 -1 0 139.8898)" gradientUnits="userSpaceOnUse" x1="90.1166" x2="90.1166" xlink:href="#a" y1="1.0868" y2="70.4884"/><linearGradient id="c" gradientTransform="matrix(1 0 0 -1 0 139.8898)" gradientUnits="userSpaceOnUse" x1="30.0233" x2="30.0233" xlink:href="#a" y1="139.8898" y2="70.4884"/><path d="m60.1 0-60.1 34.7v69.4l60.1 34.7 60-34.7v-69.4zm42.2 93.8-42.3 24.4-42.2-24.4v-48.8l42.3-24.4 42.2 24.4z" fill="#002d74"/><path d="m60.1 138.8 60-34.7v-69.4l-60-34.7v20.6l42.2 24.4v48.9l-42.3 24.4v20.5z" fill="url(#b)"/><path d="m60 0-60 34.7v69.4l60 34.7v-20.6l-42.2-24.4v-48.9l42.2-24.3z" fill="url(#c)"/><path d="m88.1 85.6-28 16.2-28.1-16.2v-32.4l28.1-16.2 28 16.2-11.7 6.8-16.4-9.5-16.3 9.5v18.9l16.4 9.5 16.4-9.5z" fill="#002d74"/></svg>