<svg enable-background="new 0 0 102.6 79.1" viewBox="0 0 102.6 79.1" xmlns="http://www.w3.org/2000/svg" xmlns:xlink="http://www.w3.org/1999/xlink"><linearGradient id="a" gradientUnits="userSpaceOnUse" x1="45.1489" x2="102.4785" y1="39.5051" y2="39.5051"><stop offset="0" stop-color="#62d0c9"/><stop offset="1" stop-color="#7de2ac"/></linearGradient><linearGradient id="b" gradientUnits="userSpaceOnUse" x1=".1792" x2="57.5093" y1="39.5506" y2="39.5506"><stop offset="0" stop-color="#3268fb"/><stop offset="1" stop-color="#4795fa"/></linearGradient><path d="m45.1 49.1h25.3c9.4 0 17.1-7.6 17.1-17.1s-7.6-17-17-17h-8.1l-17.3-15h25.3c17.7-.1 32.1 14.2 32.1 31.9.1 13.1-7.9 24.9-20.1 29.8l20 17.3h-22.8z" fill="url(#a)"/><path d="m57.5 30h-25.3c-9.4 0-17.1 7.6-17.1 17.1s7.6 17.1 17.1 17.1h8.1l17.2 15h-25.3c-17.7 0-32.1-14.3-32.2-31.9-.1-13.2 7.9-25 20.1-29.9l-20-17.4h22.9z" fill="#4971fa"/><path d="m57.5 30h-25.3c-9.4 0-17.1 7.6-17.1 17.1s7.6 17.1 17.1 17.1h8.1l17.2 15h-25.3c-17.7 0-32.1-14.3-32.2-31.9-.1-13.2 7.9-25 20.1-29.9l-20-17.4h22.9z" fill="url(#b)"/></svg>