<svg height="201" viewBox="0 0 201 201" width="201" xmlns="http://www.w3.org/2000/svg"><g fill="none" fill-rule="evenodd"><path d="m200.9363 100.9847c0 55.228-44.771 100-100 100-55.228 0-100-44.772-100-100 0-55.229 44.772-100 100-100 55.229 0 100 44.771 100 100" fill="#c3a723"/><path d="m111.2517 135.0657h-22.101v-28.498h21.916v-11.5h-21.916v-27.997h20.769s25.563 0 25.563 31.637c0 37.302-24.231 36.358-24.231 36.358m-3.435-87.998h-39v48h-13v11.5h13v48.5h41.5s45.5 1.5 45.5-57.75c0-50.25-48-50.25-48-50.25" fill="#fff"/></g></svg>