<svg enable-background="new 0 0 2500 2500" viewBox="0 0 2500 2500" xmlns="http://www.w3.org/2000/svg" xmlns:xlink="http://www.w3.org/1999/xlink"><linearGradient id="a" gradientTransform="matrix(3.2895 0 0 -3.2895 0 8223.6846)" gradientUnits="userSpaceOnUse" x1="502.1057" x2="317.6203" y1="2631.6494" y2="1858.6152"><stop offset="0" stop-color="#2c2c3d"/><stop offset="1" stop-color="#1a1a27"/></linearGradient><linearGradient id="b" gradientTransform="matrix(3.2895 0 0 -3.2895 0 8223.6846)" gradientUnits="userSpaceOnUse" x1="250.5004" x2="372.8223" y1="2296.4824" y2="2150.0972"><stop offset="0" stop-color="#fff"/><stop offset="1" stop-color="#fff" stop-opacity=".549"/></linearGradient><linearGradient id="c" gradientTransform="matrix(3.2895 0 0 -3.2895 0 8223.6846)" gradientUnits="userSpaceOnUse" x1="508.688" x2="357.2896" y1="1947.2676" y2="2153.811"><stop offset="0" stop-color="#6966ff"/><stop offset="1" stop-color="#6966ff" stop-opacity=".3608"/></linearGradient><path d="m511.2 0h1477.6c283.6 0 511.2 227.6 511.2 511.2v1477.6c0 283.6-227.6 511.2-511.2 511.2h-1477.6c-283.6 0-511.2-227.6-511.2-511.2v-1477.6c0-283.6 227.6-511.2 511.2-511.2z" fill="url(#a)"/><path d="m1573.2 567.3-972.9 1365.4h296.8l976.3-1365.4z" fill="#fff"/><path d="m930.1 567.3 286.9 402.4-151.7 217.6-438.7-620z" fill="url(#b)"/><path d="m1599.6 1932.7-316.6-445.2 148.4-214.4 468.3 659.6z" fill="url(#c)"/><path d="m511.2 0h1477.6c283.6 0 511.2 227.6 511.2 511.2v1477.6c0 283.6-227.6 511.2-511.2 511.2h-1477.6c-283.6 0-511.2-227.6-511.2-511.2v-1477.6c0-283.6 227.6-511.2 511.2-511.2z" fill="none" stroke="#2d2d3d" stroke-miterlimit="75.4132" stroke-width="6.5789"/></svg>