<svg enable-background="new 0 0 72.7 80.9" viewBox="0 0 72.7 80.9" xmlns="http://www.w3.org/2000/svg" xmlns:xlink="http://www.w3.org/1999/xlink"><linearGradient id="a"><stop offset=".58" stop-color="#a0a8d4"/><stop offset=".73" stop-color="#8791c7"/><stop offset=".91" stop-color="#6470b4"/></linearGradient><linearGradient id="b" gradientUnits="userSpaceOnUse" x1="36.0416" x2="6.66" xlink:href="#a" y1=".9481" y2="32.7999"/><linearGradient id="c" gradientUnits="userSpaceOnUse" x1="36.6586" x2="66.0292" xlink:href="#a" y1="80.0185" y2="48.1894"/><linearGradient id="d" gradientUnits="userSpaceOnUse" x1="36.3226" x2="36.3226" y1="-.3999" y2="81.2"><stop offset="0" stop-color="#513eff"/><stop offset=".18" stop-color="#5157ff"/><stop offset=".57" stop-color="#5298ff"/><stop offset="1" stop-color="#52e5ff"/></linearGradient><path d="m9.3 32.8c.8 1.7 2.8 5.1 2.8 5.1l22.9-37.9-22.3 15.6c-1.3.9-2.4 2.1-3.2 3.5-2.1 4.3-2.1 9.3-.2 13.7z" fill="url(#b)"/><path d="m.3 45.2c.5 7.3 4.2 14.1 10 18.5l24.7 17.2s-15.5-22.3-28.5-44.5c-1.3-2.3-2.2-4.9-2.6-7.6-.2-1.2-.2-2.4 0-3.6-.3.6-1 1.9-1 1.9-1.3 2.7-2.2 5.6-2.7 8.6-.3 3.2-.3 6.4.1 9.5z" fill="#a0a8d4"/><path d="m63.3 48.2c-.8-1.7-2.8-5.1-2.8-5.1l-22.9 37.8 22.4-15.5c1.3-.9 2.4-2.1 3.2-3.5 2-4.3 2.1-9.3.1-13.7z" fill="url(#c)"/><path d="m72.4 35.7c-.5-7.3-4.2-14.1-10-18.5l-24.7-17.2s15.5 22.3 28.5 44.5c1.3 2.3 2.2 4.9 2.6 7.6.2 1.2.2 2.4 0 3.6.3-.6 1-1.9 1-1.9 1.3-2.7 2.2-5.6 2.7-8.5.2-3.3.2-6.4-.1-9.6z" fill="#a0a8d4"/><path d="m9.5 19.1c.8-1.4 1.8-2.6 3.2-3.5l22.3-15.6-22.9 37.8s-2-3.4-2.8-5.1c-1.9-4.3-1.9-9.3.2-13.6zm-9.2 26.1c.5 7.3 4.2 14.1 10 18.5l24.7 17.2s-15.5-22.3-28.5-44.5c-1.3-2.3-2.2-4.9-2.6-7.6-.2-1.2-.2-2.4 0-3.6-.3.6-1 1.9-1 1.9-1.3 2.7-2.2 5.6-2.7 8.6-.3 3.2-.3 6.4.1 9.5zm63 3c-.8-1.7-2.8-5.1-2.8-5.1l-22.9 37.8 22.4-15.5c1.3-.9 2.4-2.1 3.2-3.5 2-4.3 2.1-9.3.1-13.7zm9-12.4c-.5-7.3-4.2-14.1-10-18.5l-24.6-17.3s15.5 22.3 28.5 44.5c1.3 2.3 2.2 4.9 2.6 7.6.2 1.2.2 2.4 0 3.6.3-.6 1-1.9 1-1.9 1.3-2.7 2.2-5.6 2.7-8.5.2-3.3.2-6.4-.2-9.5z" fill="url(#d)"/></svg>