<svg enable-background="new 0 0 2500 2500" viewBox="0 0 2500 2500" xmlns="http://www.w3.org/2000/svg"><circle cx="1249.2" cy="1250" fill="#fefefe" r="1247.6"/><g fill="#9b1c2e"><path d="m733.8 1797.5c28.9 0 56.2-16.1 69-41.8l183.9-349.2h-284.2c-43.3 0-77.9-35.3-77.9-77.9v-156.6c0-43.4 35.3-77.9 77.9-77.9h449.6l349.2-661.5c13.7-25.7 40.2-41.7 69-41.7h588.5c-228-240.9-549.9-391-908-391-690.4.1-1250.8 559.7-1250.8 1250.9 0 195.9 45 382.2 126 547.5h607.7z"/><path d="m1766.2 702.5c-28.9 0-56.2 16-69 41.7l-183.8 349.2h284.2c43.3 0 77.9 35.3 77.9 77.9v156.6c0 43.4-35.3 77.9-77.9 77.9h-449.6l-349.2 661.5c-13.7 25.7-40.1 41.7-69 41.7h-588.6c228 240.9 549.9 391 908 391 690.4 0 1250.8-559.6 1250.8-1250.8 0-195.9-45-382.2-126-547.5h-607.7z"/></g></svg>