<svg enable-background="new 0 0 283.46 283.46" viewBox="0 0 283.46 283.46" xmlns="http://www.w3.org/2000/svg"><path d="m141.73 283.46c-19.13 0-37.69-3.75-55.17-11.14-16.88-7.14-32.03-17.36-45.05-30.37-13.01-13.01-23.23-28.17-30.37-45.05-7.39-17.48-11.14-36.04-11.14-55.17s3.75-37.69 11.14-55.17c7.14-16.88 17.36-32.03 30.37-45.05 13.02-13.01 28.17-23.23 45.05-30.37 17.48-7.39 36.04-11.14 55.17-11.14s37.69 3.75 55.17 11.14c16.88 7.14 32.03 17.36 45.05 30.37 13.01 13.01 23.23 28.17 30.37 45.05 7.39 17.48 11.14 36.04 11.14 55.17s-3.75 37.69-11.14 55.17c-7.14 16.88-17.36 32.03-30.37 45.05-13.01 13.01-28.17 23.23-45.05 30.37-17.48 7.4-36.04 11.14-55.17 11.14z" fill="#fff"/><circle cx="141.73" cy="141.73" r="134.22"/><path d="m212.43 141.73c0-14.38-4.32-27.76-11.72-38.94l21.95-21.95-19.74-19.74-21.89 21.89c-11.24-7.55-24.76-11.96-39.29-11.96-14.38 0-27.76 4.32-38.94 11.72l-21.96-21.95-19.74 19.74 21.89 21.89c-7.55 11.24-11.96 24.76-11.96 39.29 0 14.38 4.32 27.76 11.72 38.94l-21.95 21.96 19.74 19.74 21.89-21.89c11.24 7.55 24.76 11.96 39.29 11.96 14.38 0 27.76-4.32 38.94-11.72l21.96 21.96 19.74-19.74-21.89-21.89c7.55-11.26 11.96-24.78 11.96-39.31zm-113.47 0c0-23.59 19.19-42.78 42.78-42.78s42.78 19.19 42.78 42.78-19.19 42.78-42.78 42.78-42.78-19.19-42.78-42.78z" fill="#fff"/></svg>