<svg viewBox="0 0 32 32" xmlns="http://www.w3.org/2000/svg" xmlns:xlink="http://www.w3.org/1999/xlink"><mask id="a" height="20" maskUnits="userSpaceOnUse" width="93.1" x="10" y="6"><path d="m10 6h93.1v20h-93.1z" fill="#fff" fill-rule="evenodd"/></mask><circle cx="16" cy="16" fill="#13b5ec" r="16"/><g mask="url(#a)"><path d="m17.2 12.9 3.6-2.1v4.2zm3.6 9-4.8 2.8-4.8-2.8v-4.9l4.8 2.8 4.8-2.8zm-9.6-11.1 3.6 2.1-3.6 2.1zm5.4 3.1 3.6 2.1-3.6 2.1zm-1.2 4.2-3.6-2.1 3.6-2.1zm4.8-8.3-4.2 2.4-4.2-2.4 4.2-2.5zm-10.2-.4v13.1l6 3.4 6-3.4v-13.1l-6-3.4z" fill="#fff" fill-rule="evenodd"/></g></svg>