<svg enable-background="new 0 0 96 96" viewBox="0 0 96 96" xmlns="http://www.w3.org/2000/svg"><circle cx="48" cy="48" fill="#6747ed" r="48"/><path clip-rule="evenodd" d="m135.3 106.2c-7.1 0-12.8-5.7-12.8-12.8s5.7-12.8 12.8-12.8 12.8 5.7 12.8 12.8-5.7 12.8-12.8 12.8m0-32c10.6 0 19.2 8.6 19.2 19.2s-8.6 19.2-19.2 19.2-19.2-8.6-19.2-19.2 8.6-19.2 19.2-19.2zm18.3 39.4c1.3 1.3 1.3 3.3 0 4.5l-12.8 12.8c-1.3 1.3-3.3 1.3-4.5 0-1.3-1.3-1.3-3.3 0-4.5l12.8-12.8c1.2-1.3 3.3-1.3 4.5 0zm7.4-36.2c0 1.8-1.4 3.2-3.2 3.2s-3.2-1.4-3.2-3.2 1.4-3.2 3.2-3.2c1.7 0 3.2 1.4 3.2 3.2z" fill="#fff" fill-rule="evenodd" transform="translate(-88 -52)"/></svg>