<svg enable-background="new 0 0 2500 2500" viewBox="0 0 2500 2500" xmlns="http://www.w3.org/2000/svg"><path d="m2500 1250c0-690-560-1250-1250-1250s-1250 560-1250 1250 560 1250 1250 1250 1250-560 1250-1250z" fill="#00dcfa"/><path d="m1516 391c-305 0-563 234-594 531-297 31-531 289-531 594 0 328 266 594 594 594 305 0 562-234 594-531 297-31 531-289 531-594 0-328-266-594-594-594zm453 664c-31 203-188 359-391 391v-391zm-1438 391c31-203 188-359 391-391v391zm914 133c-31 227-227 391-453 391-227 0-422-164-453-391zm0-523v391h-391v-391zm523-133h-914c31-227 227-391 453-391 234-8 430 164 461 391z" fill="#fff"/></svg>