<svg enable-background="new 0 0 2500 2500" viewBox="0 0 2500 2500" xmlns="http://www.w3.org/2000/svg" xmlns:xlink="http://www.w3.org/1999/xlink"><clipPath id="a"><path d="m1250 0c690 0 1250 560 1250 1250 0 690-560 1250-1250 1250-690 0-1250-560-1250-1250 0-690 560-1250 1250-1250z"/></clipPath><linearGradient id="b" gradientUnits="userSpaceOnUse" x1="1250" x2="1250" y1="0" y2="2499.9999"><stop offset="0" stop-color="#f89791"/><stop offset="1" stop-color="#f7c882"/></linearGradient><clipPath id="c"><path d="m1249 1472-557-318-15 23c-171 263-133 607 92 828 265 260 695 260 960 0 225-221 263-565 92-828l-15-23z"/></clipPath><radialGradient id="d" cx="4255.8911" cy="1058.0284" gradientTransform="matrix(-.0124269 -1.5265 1.8194 -.0265185 -624.3724 8621.4365)" gradientUnits="userSpaceOnUse" r="594"><stop offset="0" stop-color="#c5c6ab"/><stop offset="1" stop-color="#7985ab"/></radialGradient><radialGradient id="e" cx="1249" cy="1035.9999" gradientUnits="userSpaceOnUse" r="24"><stop offset="0" stop-color="#06f" stop-opacity="0"/><stop offset="1" stop-color="#00c2ff" stop-opacity=".4"/></radialGradient><radialGradient id="f" cx="1248.5" cy="1152.4999" gradientUnits="userSpaceOnUse" r="28.008"><stop offset="0" stop-color="#aee6f9" stop-opacity=".8588"/><stop offset="1" stop-color="#c8d6dc"/></radialGradient><linearGradient id="g" gradientUnits="userSpaceOnUse" x1="1009" x2="1009" y1="250" y2="1249.9999"><stop offset="0" stop-color="#77d4ff"/><stop offset="1" stop-color="#93d6f2" stop-opacity=".898"/></linearGradient><linearGradient id="h" gradientUnits="userSpaceOnUse" x1="1489" x2="1489" y1="250" y2="1249.9999"><stop offset="0" stop-color="#506aac"/><stop offset="1" stop-color="#96cfef" stop-opacity=".8196"/></linearGradient><path d="m1250 0c690 0 1250 560 1250 1250 0 690-560 1250-1250 1250-690 0-1250-560-1250-1250 0-690 560-1250 1250-1250z" fill="none"/><g clip-path="url(#a)"><path d="m0 0 2500 2500m0-2500-2500 2500" fill="none" stroke="#000" stroke-miterlimit="22.9256"/></g><path d="m1250 0c690 0 1250 560 1250 1250 0 690-560 1250-1250 1250-690 0-1250-560-1250-1250 0-690 560-1250 1250-1250z" fill="url(#b)"/><g clip-path="url(#c)"><circle clip-rule="evenodd" cx="1249" cy="1541" fill="url(#d)" fill-rule="evenodd" r="679"/></g><path d="m1249 1472-557-318-15 23c-171 263-133 607 92 828 265 260 695 260 960 0 225-221 263-565 92-828l-15-23z" fill="none"/><path d="m1249 762-480 274 480 274 480-274z" fill="url(#e)"/><path d="m1250 833-558 321 557 318 556-318z" fill="url(#f)"/><path d="m1249 300-480 736 480 274z" fill="url(#g)"/><path d="m1249 1310 480-274-480-736z" fill="url(#h)"/></svg>