<svg enable-background="new 0 0 90.1 90" viewBox="0 0 90.1 90" xmlns="http://www.w3.org/2000/svg"><path d="m72.2 4.6-18.8 27.9c-1.3 1.9 1.2 4.2 3 2.6l18.5-16.1c.5-.4 1.2-.1 1.2.6v50.3c0 .7-.9 1-1.3.5l-56-67c-1.8-2.2-4.4-3.4-7.3-3.4h-2c-5.2 0-9.5 4.3-9.5 9.6v70.8c0 5.3 4.3 9.6 9.6 9.6 3.3 0 6.4-1.7 8.2-4.6l18.8-27.9c1.3-1.9-1.2-4.2-3-2.6l-18.5 16c-.5.4-1.2.1-1.2-.6v-50.2c0-.7.9-1 1.3-.5l56 67c1.8 2.2 4.5 3.4 7.3 3.4h2c5.3 0 9.6-4.3 9.6-9.6v-70.8c0-5.3-4.3-9.6-9.6-9.6-3.4 0-6.5 1.7-8.3 4.6z"/></svg>