<svg viewBox="0 0 49.48 42.86" xmlns="http://www.w3.org/2000/svg"><path d="m12.84.28 24.26 14v14.28l-37.1-21.42 11.89-6.86a1 1 0 0 1 .95 0z" fill="#3ca9e5"/><path d="m37.1 0-12.37 7.14 12.37 7.14z" fill="#2853c3"/><path d="m37.1 0 11.9 6.86a1 1 0 0 1 .48.83v28l-12.38-7.13z" fill="#1a4199"/><path d="m49.47 35.7-11.89 6.86a1 1 0 0 1 -1 0l-24.25-14v-14.3z" fill="#2853c3"/><path d="m0 7.14v28a1 1 0 0 0 .48.86l11.89 6.86v-28.6z" fill="#60beff"/><path d="m12.37 42.84 12.36-7.14-12.36-7.14z" fill="#3ca9e5"/></svg>