<svg enable-background="new 0 0 2000 1764" viewBox="0 0 2000 1764" xmlns="http://www.w3.org/2000/svg"><g fill="#5f45ba"><path d="m534.7 170.9c-31.9 53.7-101.3 71.4-155 39.5s-71.4-101.3-39.5-155 101.3-71.4 155-39.5c53.7 31.9 71.4 101.3 39.5 155"/><path d="m148.6 120.7c-22.5 37.9-71.6 50.4-109.5 27.9-37.9-22.5-50.4-71.5-27.9-109.5s71.6-50.4 109.5-27.9c38 22.6 50.5 71.6 27.9 109.5"/><path d="m1223.4 1757.7c414.4-48.7 747.7-387.5 774.9-818.7 30.6-485.2-338-903.3-823.2-933.8-56.9-3.6-114-1.6-170.5 5.8-116.6 9.5-215.1 54-215.1 54-79.8 39-131.3 104.2-131.3 191.4 0 113.4 91.9 205.4 205.3 205.4 19 0 84.6-20.8 100.2-26.2 59.6-20.8 122.8-29.4 185.8-25.3 167.6 10.6 309.3 107 385.2 243.7 44 79.2 64.3 169.3 58.5 259.7-16.5 261.5-241.8 460.2-503.4 443.7-154.5-9.8-287-92.5-366.3-212.4v.1-.1c-94.8-124-72.9-322.3-73-324.8-3.9-110.3-94.2-198.5-205.4-198.5-95 0-174.7 64.5-198.4 152-4.6 17.2-7 67.6-6.3 74.3-19.6 476.8 345.3 884.1 823.9 914.2 53.1 3.3 106.3 1.8 159.1-4.5"/><path d="m416.9 484.9c-41.4 69.7-131.4 92.6-201 51.2s-92.6-131.4-51.2-201 131.4-92.6 201-51.2c69.6 41.4 92.5 131.4 51.2 201"/></g></svg>