<svg viewBox="0 0 71.98 67.9" xmlns="http://www.w3.org/2000/svg" xmlns:xlink="http://www.w3.org/1999/xlink"><mask id="a" height="54.6" maskUnits="userSpaceOnUse" width="23.84" x="0" y="4.82"><path d="m0 4.82h23.84v54.6h-23.84z" fill="#fff" fill-rule="evenodd"/></mask><g mask="url(#a)"><path d="m20 8.84c1.37-1.56 2.63-2.88 3.83-4-20.26-.65-14.36 14-21 28.87-7.6 17.14.9 23.67 13.56 25.71a27.56 27.56 0 0 1 -4.28-7c-8.17-10.33-4.86-29.16 7.89-43.58" fill="#efe812"/></g><path d="m68.75 27.1a57.87 57.87 0 0 1 -10.23 17.13 49.09 49.09 0 0 1 -12.43 10.77 33.56 33.56 0 0 1 -18.34 5.21 72.2 72.2 0 0 1 -11.32-.79 23.14 23.14 0 0 0 7.57 5.93c18.32 8.86 19.47-7.59 38.85-15.94 10.88-4.69 10.92-13.85 5.89-22.31" fill="#ede70a"/><path d="m46.09 10a24.07 24.07 0 0 1 7.56 2.68 42.17 42.17 0 0 1 15.1 14.42c3.3-9.3 1.76-16.6-5.45-17.92-7.94-1.45-14.14-1.92-20.1-6.08-7.34-5.1-13.78-3.44-19.36 1.75l1.21.05c7.74.46 15.14 2 21 5.08" fill="#ede70a"/><path d="m20 8.84c-12.75 14.42-16.06 33.25-7.85 43.58a31.36 31.36 0 0 1 1.77-28c6.91-11.52 20.78-16.52 32.17-14.42-5.9-3.12-13.3-4.62-21-5.08l-1.21-.06c-1.24 1.14-2.5 2.42-3.88 3.98" fill="#dec21c"/><path d="m53.65 12.66a24.07 24.07 0 0 0 -7.56-2.66c7.76 4.08 12.91 11 12.91 21.94a27.53 27.53 0 0 1 -12.91 23.06 48.89 48.89 0 0 0 12.43-10.77 57.87 57.87 0 0 0 10.23-17.13 42.17 42.17 0 0 0 -15.1-14.44" fill="#e5cb22"/><path d="m46.09 10c-11.39-2.1-25.26 2.9-32.17 14.37a31.33 31.33 0 0 0 -1.77 28.05 27.28 27.28 0 0 0 4.28 7 72.2 72.2 0 0 0 11.32.79 33.56 33.56 0 0 0 18.34-5.21 27.52 27.52 0 0 0 12.91-23.06c0-10.94-5.15-17.86-12.91-21.94m-1.28 39.8a18.94 18.94 0 0 1 -26.12-5.62c-5.66-8.73-2.86-20 5.63-26 9.5-6.75 21.68-4.09 26.12 5.62 4.33 9.46 3.14 20.39-5.63 26" fill="#cca727"/></svg>