<svg fill="none" height="20" viewBox="0 0 20 20" width="20" xmlns="http://www.w3.org/2000/svg" xmlns:xlink="http://www.w3.org/1999/xlink"><clipPath id="a"><path d="m0 0h20v20h-20z"/></clipPath><g clip-path="url(#a)"><path d="m16.4486 12.5687c.1342.1173.1395.2624.0971.4212-.0294.1098-.1158.1821-.1769.2706-.0689.0996-.1465.1933-.2233.2872-.139.1701-.3184.286-.5181.3707-.2258.0957-.4599.0955-.7013.0725-.2524-.0241-.5074-.0502-.7614.0043-.0769.0165-.1576.0179-.2368.0196-.4434.0096-.8868.0251-1.3302.023-.3968-.0018-.7936-.0219-1.1903-.0384-.0716-.0029-.1447-.0201-.2129-.0434-.1665-.0568-.3358-.0855-.5117-.0972-.1738-.0116-.3456-.0507-.5189-.0736-.22753-.0301-.44753-.085-.65402-.1872-.20707-.1024-.41214-.2089-.62038-.3089-.16619-.0797-.34008-.1442-.50293-.23-.24158-.1272-.47489-.27-.71486-.4004-.1065-.0578-.22003-.1031-.3315-.1514-.22614-.0982-.42343-.242-.61951-.3878-.06081-.0452-.12323-.089-.17974-.1392-.16822-.1495-.16957-.3707-.06137-.5488.03501-.0577.08501-.0861.14868-.0767.12396.0181.24991.0327.36976.0672.34516.0991.68667.2109 1.03168.3105.17424.0504.3522.0888.5298.1263.32881.0694.65869.1338.98796.2011.24536.0501.48943.1073.73603.1507.2655.0468.5331.0819.8.121.2743.0401.5482.083.8233.1163.1342.0163.2708.0117.4062.0198.2935.0176.5868.0371.8802.0562.122.0079.2438.0172.3658.0253.201.0134.4021.0385.603.0367.3273-.0029.6564-.0052.9808-.0423.2765-.0316.5561-.0786.8037-.2299.1821-.1113.3197-.2648.4432-.4331.1532-.2086.2799-.4328.3611-.6797.0329-.0999.0554-.2031.0826-.3049.0061-.0043.0123-.0086.0184-.0129.0697.1366.1577.2673.2046.4114.0599.1841-.0334.3436-.149.4814-.182.2172-.3688.4304-.5586.6408z" fill="#a53410"/><path d="m16.1454 13.7986c.0473.2138.0262.4001-.0541.5867-.0685.1591-.1807.2827-.2884.4116-.0336.0401-.0703.0776-.1129.1242-.0707-.0569-.1398-.1115-.2078-.1675-.0511-.042-.1024-.0839-.1508-.1289-.1455-.1353-.3163-.1373-.5013-.1156-.2185.0256-.4037.1356-.5837.2363-.2105.1177-.3928.2876-.5817.4418-.1892.1545-.3708.3183-.5571.4765-.0273.0232-.0616.0382-.0928.0567-.054.032-.1109.0599-.1614.0968-.0495.0363-.0925.0815-.1441.128-.0695-.0801-.1454-.1575-.257-.1942-.1857-.0612-.3581-.0436-.5195.0639-.0712.0474-.1426.098-.2024.1586-.1234.1251-.1419.2841-.0922.4421.0507.1611.1307.3124.2649.4237.1968.1633.321.3815.466.586.1242.1752.159.3537.1264.5601-.0159.1001-.0057.2051-.0006.3076.003.0611-.0143.1062-.0566.1508-.052.0548-.1063.1129-.1387.1798-.0867.1785-.2527.2399-.4182.3052-.1156.0456-.23.0955-.3482.133-.1188.0376-.2403.0771-.3632.0893-.2.0197-.4027.0111-.6034.0264-.60026.0461-1.20139.0315-1.80235.0351-.13821.0008-.27721.0071-.41431.0237-.19814.0239-.39482.0598-.59226.0897-.02602.0039-.05279.004-.07922.004-.29499.0003-.59336.0275-.88387-.0086-.2267-.0282-.45473-.0001-.67812-.0467-.01282-.0027-.02643-.0013-.03963-.0024-.24241-.0203-.48583-.0328-.72686-.0637-.17815-.0229-.3532-.07-.52962-.1064-.00321-.0006-.00622-.003-.00936-.0031-.32207-.0086-.61093-.1538-.91589-.2313-.19431-.0493-.39035-.1174-.56788-.2276-.13055-.0809-.28045-.1301-.41874-.1994-.12616-.0632-.25133-.1295-.37139-.2035-.13716-.0845-.27599-.1687-.38325-.2934-.02565-.0298-.05575-.0557-.0815-.0855-.18187-.21-.34239-.4295-.43838-.6979-.08201-.2294-.17912-.4538-.22942-.6925-.04056-.1924-.08388-.3884-.08697-.5835-.00336-.2122.03795-.4252.06051-.6377.01109-.1045.02482-.2087.03555-.3133.02649-.2579.06819-.5156.07296-.7739.00423-.2289.04837-.4512.06894-.677.01095-.1201.0492-.2378.07479-.3566.00688-.0319.01381-.0639.0185-.0962.02979-.2048.0593-.4097.0882-.6147.01787-.1268.0333-.2539.05204-.3805.01389-.0939.03092-.1873.04732-.2807.01644-.0938.02688-.1893.05226-.2805.05353-.1926.11487-.3831.17347-.5742.03375-.1101.0661-.2207.10321-.3297.04545-.1335.08962-.2679.14444-.3976.08188-.19378.16731-.38641.26088-.57473.11018-.22175.2324-.43749.34602-.65757.06776-.13126.12567-.26763.19394-.39861.14645-.28098.26866-.57487.44925-.83788.03866-.05631.06012-.12417.09218-.18531.21937-.41833.43701-.83757.70983-1.22511.06826-.09696.12309-.20336.19136-.3003.06432-.09134.13191-.18203.20923-.26224.16009-.16608.31859-.33109.44854-.52445.08404-.12505.2006-.22789.29845-.34416.04392-.05218.08902-.05698.14869-.03512.18594.06812.37291.13345.55952.19975.02181.00775.04519.02372.06558.0207.11423-.01695.17206.06293.24103.12958.21811.21078.45854.38751.74675.49448.21621.08024.43069.16579.64264.25668.20099.0862.41816.08895.62659.13583.18204.04095.36717.03699.55232.03963.30171.0043.59855-.03417.89425-.08753.00645-.00116.01248-.00537.01888-.00592.256-.02204.5118-.04839.7682-.06367.1257-.0075.2487-.01636.3717-.04904.0913-.02426.1893-.02318.2844-.03348.1014-.01099.2029-.02133.3042-.03341.055-.00655.1043-.00794.1365.0509.1375.25154.2794.50073.4132.75422.027.05099.0255.11695.0371.17601l-.0278.01498c-.0274-.02466-.0546-.04963-.0824-.07393-.1139-.09955-.2108-.22285-.3612-.27207-.0745-.02437-.1517-.04339-.2291-.05512-.0976-.01479-.1966-.02535-.2951-.02727-.1084-.00211-.2169.00972-.3254.01172-.1215.00224-.2432-.00093-.3647.0004-.1783.00195-.3565.0057-.5347.00899-.0265.00049-.0529.00335-.0794.00401-.27118.00679-.5423.01615-.8135.01919-.27168.00305-.54361.00529-.8151-.00286-.16884-.00507-.32544.04113-.48634.07693-.32049.07131-.57058.24824-.7839.49024-.12021.13637-.25074.26359-.37457.39683-.10947.11778-.13781.2655-.11741.41576.02154.15868.14503.2339.31929.19001.10176-.02563.17361-.00093.26516.03754.27344.11491.53185.26713.82447.33647.18946.04489.33424.16696.47233.29722.06013.05672.11779.11823.18577.16387.0729.04894.15531.08467.23596.12084.08111.03637.16436.06843.24815.09822.07125.02533.1449.04381.21696.06695.1881.0604.37465.12606.56429.18109.12594.03656.25554.06237.38474.0861.3275.06018.6556.1199.9911.10559.215-.00917.4233-.04841.6221-.13639.1198-.05302.2383-.11348.3778-.10429.0355.00234.0824-.01665.1077-.04214.0549-.05541.0944-.02678.1353.01076.0671.06177.0686.15188-.0069.21676-.0824.07086-.1704.13723-.2635.1931-.0758.0455-.1641.06958-.2442.10859-.141.06863-.2861.06234-.436.04156-.1141-.01582-.2303-.01862-.3458-.02282-.214-.00779-.4273.00786-.6418-.0373-.1761-.03706-.3614-.02797-.542-.04571-.21975-.02158-.43828-.06173-.65832-.07172-.20413-.00927-.38915-.07955-.57032-.1535-.15308-.06248-.2943-.15196-.41319-.28194-.14407-.1575-.31735-.28838-.4793-.42929-.02196-.0191-.05085-.03078-.07759-.04372-.04556-.02206-.08105-.01376-.10878.03281-.03027.05083-.01474.08818.02632.12087.09529.07586.19371.14804.28598.22739.09525.08191.18746.16781.27612.25683.14032.14088.3089.22984.49096.30645.22979.0967.47066.12516.71279.15205.23594.0262.47303.0422.70923.06567.131.01301.2612.03451.3922.04779.1246.01264.2497.02307.3748.02825.2477.01025.4955.01609.7432.02442.0085.00029.0168.00774.0351.01676-.0161.02331-.0279.04501-.044.06291-.0837.0928-.1644.1889-.2542.2755-.0829.08-.1771.1482-.2642.224-.1733.1507-.3782.2331-.5956.2989-.1978.06-.3898.1395-.5826.2151-.15642.0613-.30863.1325-.484.12-.06534-.0046-.10675.0379-.10455.0901.00227.0542.03854.0767.11174.0825.22165.0178.40961-.0871.60731-.1595.1916-.0702.3871-.1299.5789-.1996.2085-.0757.4027-.1746.5813-.3126.262-.2024.4504-.4734.69-.69525.0545-.05053.1168-.09737.1835-.12918.1565-.07465.295-.17254.4277-.28302.1607-.13371.1324-.42933-.0698-.52643-.0647-.0311-.093-.07246-.1139-.14191-.0377-.1259-.0971-.24528-.147-.36757-.0348-.08539-.073-.16971-.1025-.25693-.0673-.1988-.2026-.34436-.3553-.48031-.1897-.16895-.4246-.25386-.6511-.34959-.1672-.07061-.3143-.16814-.4594-.27034-.2128-.14988-.4413-.2638-.6906-.33644-.0347-.0101-.0711-.01632-.10711-.01925-.31658-.02573-.6325-.03632-.94862.0138-.25054.03972-.50802.04759-.75286.10824-.28945.0717-.58452.14836-.82694.34023-.15204.12033-.27095.27212-.37442.43423-.0518.08117-.12298.11558-.21022.13115-.0473.00844-.0772-.00857-.08073-.0608-.00712-.10537.00439-.20489.08216-.28596.13722-.14306.27792-.28304.41-.43073.15145-.16935.32803-.29378.54796-.35748.22204-.06431.44204-.1328.67835-.11538.1482.01092.29723.02125.44554.01761.22441-.00551.44851-.03311.67275-.03321.20711-.00009.41894-.03844.62124.02696.2227.07198.4387.1649.6615.23671.3021.0974.5236.29878.7293.52765.0681.07578.1522.13692.2268.20712.2119.19942.4327.39065.6304.60339.1416.1525.1964.35567.2205.56283.0015.01312-.0001.02665.0018.03969.0064.04445.0297.07502.077.07558.0523.00062.0865-.03289.0801-.0808-.0181-.13299-.0287-.2704-.0721-.39573-.0669-.19307-.1995-.34539-.3469-.48834-.2092-.20276-.4153-.40753-.6446-.5884-.0716-.05648-.1265-.13412-.1891-.2021-.1906-.20726-.4255-.34252-.6918-.42793-.0618-.01982-.1213-.04681-.1819-.07051l.0019-.022c.0228-.00399.0457-.01146.0685-.01142.2319.00037.4639.00126.6958.00341.2321.00215.4047.11841.5535.28533.0612.06868.1363.12482.2006.191.1267.13033.2645.25339.3698.39954.0662.09176.0964.21755.1159.33263.0226.1325.0149.27006.022.40534.0015.02907.001.06482.0171.08487.0195.02423.0581.05085.084.04696.0235-.00353.0581-.04629.0585-.07228.0047-.26091.0247-.52654-.0851-.77207-.0417-.09305-.1196-.17079-.1858-.25166-.0665-.08136-.1412-.15609-.207-.23805-.0142-.01773-.0145-.05728-.0057-.08103.0445-.11983.0198-.23185-.0214-.34678-.0753-.21038-.2107-.38698-.3162-.58032-.03-.05504-.0592-.11052-.0987-.18432.1673-.02726.3241-.05581.4818-.07762.15-.02076.3011-.0345.4517-.05125.0296-.00329.0591-.00809.0888-.00904.4197-.01347.8396-.02616 1.2594-.03955.1685-.00537.337-.01106.5054-.01839.0893-.00389.1708.0161.2422.07025.1683.12761.3558.2324.4922.39844.1124.13688.2188.27865.3279.41825-.0047.00872-.0093.01744-.014.02615-.0434 0-.0869.00271-.13-.0005-.1381-.01027-.2763-.03474-.4139-.03197-.33.00665-.6609.02232-.9828.10099-.1135.02773-.2196.09001-.3249.14452-.0418.02164-.0676.072-.0379.11908.0301.0477.0825.05516.1301.02573.245-.15147.5209-.17498.7973-.19479.1549-.01111.3105-.02355.4654-.01959.1745.00446.3488.02348.5226.04224.1374.01484.2593.07487.3724.15209.1173.08004.2352.15932.349.24403.0512.03811.0932.08861.1394.13349-.0055.00671-.0109.01342-.0163.02013-.0174-.00947-.0385-.01538-.0518-.02895-.1689-.17315-.376-.262-.6145-.28854-.3838-.04271-.7674-.08068-1.1547-.078-.6078.00422-1.0965.25472-1.4971.69902-.0394.0438-.0468.08874-.0051.13117.0457.04648.0903.02778.1279-.01499.1727-.19615.3769-.35095.609-.47067.2036-.10501.4213-.15663.6476-.1627.245-.00657.4907-.00589.7355.00477.1842.00802.3687.02886.5507.05864.1651.02703.3106.10908.4456.20725.013.0095.0305.02258.0326.03608.0304.19339.073.38651.0274.611-.048-.0653-.0839-.11229-.1178-.16076-.0643-.09214-.1268-.18555-.1912-.27766-.0947-.13535-.2428-.18654-.3906-.21459-.1937-.03677-.3928-.06285-.5894-.06223-.237.00075-.4739.03383-.7106.0545-.0255.00223-.0525.01075-.0747.02352-.2493.1435-.5033.28072-.7024.49514-.0358.03856-.0657.08254-.0997.1228-.0831.09822-.1608.2021-.2521.29206-.1456.14343-.2673.30537-.3553.48619-.0471.0966-.0666.21813-.0604.32623.0079.13982.1328.18638.2518.21587.1373.03402.2755.06611.4149.09.1069.01832.216.02866.3244.03205.3837.01198.7676.02862 1.1513.02533.247-.00212.495-.03269.7296-.11969.1997-.07403.3582-.20875.4982-.36609.0541-.06078.1059-.12356.1587-.18544l.0218.00617c-.0103.0786-.0054.16327-.0337.23475-.1143.28848-.2767.54413-.564.69017-.0708.03596-.1575.04872-.2382.05487-.1086.00827-.2185.00059-.3279-.00184-.0553-.00123-.1012.01215-.1113.07335-.0077.04621.0408.08654.1101.08752.1711.00241.3422.0008.5264.0008-.0817.09607-.1474.20406-.2844.22036-.1047.0125-.2104.0158-.3157.0224-.0231.0015-.0464-.0013-.0696-.0007-.0575.0016-.0998.0328-.1031.0872-.0036.0589.0415.0871.0983.0882.0861.0015.1728.006.2584-.0008.1561-.0124.31-.0377.423-.1631.0609-.0677.1188-.13826.1881-.21931.0563.05586.1218.11041.1743.17551.0802.0996.1548.2043.2255.3111.1085.1638.1185.3476.088.5345-.0552.3387-.2289.6198-.4274.8924-.1561.2144-.3475.3762-.6024.4425-.2126.0553-.4274.1044-.6523.1045-.2905.0001-.5811.0328-.8714.0304-.2401-.002-.4798-.0353-.7198-.0534-.1218-.0092-.2438-.017-.3658-.0227-.3036-.014-.6075-.0217-.9107-.0415-.1609-.0105-.3204-.0418-.4807-.0622-.2057-.0262-.4125-.0458-.6174-.0773-.28-.043-.5601-.0881-.8377-.1439-.41346-.083-.82275-.1884-1.23793-.2605-.24708-.0429-.49307-.0868-.7351-.151-.09839-.0261-.19211-.0693-.28953-.0997-.21093-.0658-.42147-.1335-.63482-.1905-.1814-.0484-.36478-.0962-.5504-.1205-.25692-.0337-.36948.0673-.44739.3199-.04248.1378-.05027.2882.032.4221.03933.064.07723.1363.13454.1806.21679.1674.42757.3451.67297.4712.13449.0691.27516.1262.41021.1943.09723.0491.18793.111.28476.1609.28161.1451.56455.2878.84762.43.08834.0445.17871.0849.26831.1267.26917.1258.53418.262.80942.3728.14133.0568.29994.0753.45264.0985.2602.0394.5226.0648.7827.1046.0935.0143.1822.057.2748.0799.0665.0165.1357.0295.2039.0307.2419.0044.4851-.0117.7256.0073.3633.0287.7266.0484 1.0901.0341.3891-.0154.7775-.0496 1.1662-.0746.0495-.0032.0994-.002.149.0004.0956.0047.1911.0127.2867.0175.1353.0069.2707.018.4059.017.2522-.0018.476-.0949.6836-.2312.0657-.0431.1283-.0912.2076-.148zm-2.0295-3.7679c.1299.0041.2607.0145.3911.0102.0979-.0033.1977-.0162.2919-.04203.0869-.02378.1159-.07644.0911-.12633-.0329-.06596-.0901-.05332-.1469-.03928-.048.01186-.0961.02783-.1449.03088-.2595.01624-.5153-.00506-.7621-.09262-.1397-.04953-.2778-.10347-.4161-.15659-.0494-.01898-.0934-.01439-.1228.03093-.0295.04528-.007.08337.0313.11097.0346.02488.0701.05109.1092.06657.1895.07497.3558.1887.5203.3054.0427.0303.0827.0663.1175.1055.1075.1209.2148.2424.3167.3681.0787.097.1489.2009.2233.3015.0233.0317.0436.0673.0727.0924.0436.0376.1035.0134.1092-.043.0032-.0317.001-.0688-.0129-.0962-.0343-.0675-.0689-.1374-.1174-.1945-.1808-.2134-.3672-.422-.5512-.6319zm-6.96832.9318c.00099.0064.00198.0128.00297.0192.04299 0 .08607.0019.12894-.0004.07737-.004.10649-.0602.05738-.1198-.01933-.0234-.0603-.0411-.0912-.0408-.13179.0014-.26364.0083-.39521.0172-.21919.0147-.43231.0591-.62344.1713-.16145.0948-.29728.2198-.37965.393-.0284.0597.01435.1335.07503.1226.03205-.0058.06607-.0414.08504-.0722.11015-.1789.26299-.3149.46154-.3685.22101-.0598.45198-.0827.6786-.1216zm-.20567-.7195c-.00017-.0015-.00034-.0029-.00052-.0044-.08504.0093-.17195.0107-.25467.0299-.11112.0259-.22059.0614-.32763.1013-.05301.0197-.0737.0878-.05008.134.02943.0576.08159.0548.12712.0291.16712-.0944.34987-.109.53541-.116.03513-.0014.07528-.0083.10284-.0275.02212-.0153.04248-.0554.03827-.0803-.00421-.0248-.03641-.0546-.06267-.0635-.03263-.0109-.07175-.0026-.10807-.0026z" fill="#178320"/><path d="m15.1789 18.6026c.0094.0314.0208.0615.0271.0927.0319.1577.1267.2673.2792.3011.2249.0499.4544.0831.6859.0353.035-.0072.0686-.0216.1082-.0344.0171.0487.0306.0984.0515.1448.0456.1011.1337.1594.2342.1828.1743.0406.3494.0318.5063-.0667.0598-.0375.1088-.0923.1622-.14.0147-.0131.0253-.0315.0412-.0428.1229-.0871.2004-.214.2927-.3284.0974-.1206.2017-.2358.3056-.351.0301-.0334.0591-.0633.0453-.1121-.013-.046-.0681-.0729-.1099-.0475-.042.0255-.0843.0553-.1159.0923-.1049.1227-.2031.2512-.3076.3742-.1066.1257-.2129.2523-.3282.3697-.1143.1163-.398.1405-.5326.0569-.0602-.0374-.1271-.2743-.0864-.333.039-.0563.0904-.1042.1378-.1544.1178-.1245.2369-.2477.3545-.3723.0886-.0938.176-.1886.2632-.2837.0174-.0189.0424-.0402.0442-.062.0024-.0297-.0052-.0721-.0252-.0883-.0187-.0151-.0677-.0148-.0885-.0002-.045.0315-.0815.0756-.1197.1163-.1719.1832-.3366.374-.5175.5478-.0963.0926-.1886.1822-.2535.3002-.033.0601-.1018.078-.1648.0734-.1903-.0139-.38-.0351-.5698-.0552-.0172-.0018-.0356-.0138-.049-.0261-.088-.0803-.1075-.2319-.0658-.345.0777-.2111.2129-.3853.3326-.5712.1148-.1783.2572-.3158.4386-.4193.0306-.0175.0626-.0449.0765-.0756.0125-.0278.0122-.0727-.0025-.0986-.0219-.0386-.0665-.0416-.1046-.0157-.164.1116-.3464.209-.4564.3765-.1443.2194-.3288.4163-.4125.6723-.0266.0814-.0772.1191-.1564.1212-.16.0044-.3133-.0103-.4542-.1051-.1514-.1018-.2707-.2307-.3696-.3804-.0305-.0461-.0548-.0989-.0691-.152-.0096-.0357-.0099-.0858.0085-.115.1231-.1952.2253-.41.4175-.549.1001-.0723.2229-.1122.3308-.1747.1969-.1141.3968-.2247.5833-.3543.1892-.1315.3644-.2832.5438-.4284.0351-.0285.0758-.0683.0401-.1176-.0179-.0248-.0589-.0452-.0894-.0452-.0281 0-.0586.0271-.084.0473-.1733.1373-.3454.2762-.5185.4137-.0185.0147-.0409.0243-.0741.0436.0481-.1087.0875-.2005.1299-.291.0074-.016.0258-.0275.0406-.0393.0689-.055.0691-.0966.0018-.1485-.2301-.1775-.4959-.2283-.7765-.2048-.1501.0126-.2623.1143-.3776.2038-.1825.1417-.3669.281-.5539.4166-.1093.0792-.2326.1202-.3713.1158-.1518-.0048-.3015.0002-.4483-.0602-.1565-.0646-.2036-.2407-.1717-.3785.0414-.1786.1941-.2287.3299-.2992.0152-.0079.0421-.0068.0577.0013.1136.0592.2327.1091.3084.2241.034.0518.0324.0928-.005.1329-.0495.0531-.1029.1028-.157.1514-.0458.0413-.0606.0919-.0278.1269.0362.0385.0852.0495.1241.0125.0758-.0721.152-.1458.2148-.2288.0786-.1038.0586-.2159-.0259-.3053-.0889-.094-.1915-.1751-.2926-.2659.2112-.1858.429-.3863.6566-.575.1967-.1631.4215-.2846.6578-.3803.2344-.0949.4555-.0896.6469.108.0777.0801.1712.1447.2565.2175.0225.0193.0448.0405.0611.0649.0547.0817.0963.1748.1625.2452.0636.0676.1459.1235.2296.1656.437.2201.8436.4823 1.181.8405.0878.0932.1587.2022.2391.3025.0802.1.1605.2001.2443.297.1389.1607.2628.3279.3425.5292.0435.1099.0992.2167.183.3116.0854.0969.1404.2233.1968.3424.0707.1489.1335.302.1914.4564.0353.0944.0649.1932.0793.2926.0166.114-.0443.2054-.1327.2706-.2012.1486-.419.2715-.6456.3758-.1217.056-.2534.0917-.3827.1293-.1645.0479-.33.0941-.4973.1309-.2657.0584-.5397.0894-.8066.053-.294-.0402-.5864-.0156-.8787-.0338-.1703-.0106-.3397-.0346-.5095-.0526-.0197-.0021-.0394-.0056-.0592-.0067-.3275-.0183-.6374-.0935-.9128-.2813-.1851-.1263-.3693-.2539-.5565-.3768-.1265-.0831-.2567-.1607-.387-.2377-.0647-.0382-.108-.0873-.1405-.1575-.0988-.2131-.1264-.436-.1166-.6672.0043-.1026.0051-.2055.0025-.3082-.0028-.1065-.0227-.2079-.0861-.2996-.0935-.1353-.1765-.278-.2719-.4119-.051-.0715-.1144-.1356-.1794-.1952-.1359-.1247-.2551-.262-.317-.4373-.0442-.1253-.0303-.2477.0803-.34.1069-.0893.2145-.1698.3687-.1676.168.0024.3819.1726.3925.361.0145.256.1581.3814.3795.4533.0803.0261.1674.0345.2522.0427.0472.0046.066.02.0812.0661.048.1457.076.2919.0777.4467.0019.1612.0803.2992.1861.4166.1352.15.2847.2843.4499.4029.1039.0746.1929.1704.2869.2585.1933.1813.4181.2846.6867.28.0386-.0007.0771-.0079.1228-.0128z" fill="#178320"/><path d="m14.9669 16.0227c-.0635.0872-.1176.1835-.1922.2599-.1885.1931-.385.3785-.5806.5645-.1766.1679-.3564.3325-.5348.4985-.0094-.0024-.0189-.0048-.0283-.0073-.0262-.1921-.0524-.3841-.0792-.5812.3522-.0754.6051-.3309.8853-.5403.1188-.0888.2259-.1958.3813-.2176.0436-.0062.0889-.001.1334-.001.005.0082.0101.0164.0151.0245z" fill="#178320"/><path d="m15.8606 6.21549c.0665.12224.1257.23598.1904.34652.0149.02531.0466.04277.0737.05849.2284.1326.4595.26158.6521.44584.0375.03584.0693.08035.0943.126.0812.14817.0293.25593-.143.2873.0055.04394.0157.0885.0157.13305-.0001.09256.0033.18651-.0108.27738-.0321.20664.0016.40897.021.61306.0074.07789-.0019.15781-.008.23647-.019.24381-.1041.46348-.2561.65428-.0779.09773-.1654.18803-.2515.27888-.0437.04616-.0441.09163.0059.14429.0843.08862.1706.17553.2505.26795.1351.156.2431.3279.2933.5319.0063.0256.0254.0522.0459.0696.1998.1699.2989.4018.382.639.0355.1012-.0049.2083-.0522.306-.0885.1824-.2333.3182-.37.4623-.0836.088-.1531.1902-.2218.2909-.0141.0207-.0085.0733.0087.0941.1952.236.1611.5297.0012.7283-.0995.1234-.194.2509-.2926.375-.0363.0457-.0451.0887-.0246.146.1128.3154.0392.6065-.1376.874-.087.1317-.1977.248-.3001.3691-.0623.0737-.0709.0941-.016.1733.0652.0942.1317.186.2426.2394.3252.1567.6333.3436.9145.5703.1284.1035.253.2161.3594.3415.2286.2695.4494.546.6627.8278.0783.1035.1255.2306.1885.346.0488.0895.1003.1777.1505.2665.0941.1663.1932.3301.2805.4999.0602.117.1052.2418.1551.3639.0761.1858.1225.3749-.0151.5509-.0553.0708-.1283.1333-.2049.1806-.1871.1158-.3748.2345-.5743.3255-.175.0797-.3655.1268-.5511.1818-.1517.0449-.3049.0881-.4602.1176-.1352.0256-.274.041-.4115.0431-.2248.0033-.4498-.0065-.6746-.0133-.1978-.0059-.3957-.0112-.593-.0245-.1509-.0102-.301-.0313-.4513-.0496-.1304-.0159-.2602-.0386-.391-.0513-.1857-.0181-.3515-.0941-.5066-.1861-.2013-.1194-.3906-.259-.586-.3884-.1044-.0692-.2105-.1359-.3166-.2024-.0891-.0558-.1878-.0999-.2661-.1678-.0567-.0491-.0891-.1274-.128-.1953-.0177-.0309-.0213-.0696-.0377-.1015-.0122-.0237-.0326-.0557-.0533-.059-.0198-.0031-.0505.0216-.0663.0419-.0466.06-.0893.1232-.1315.1864-.0725.1085-.1755.1779-.2925.2276-.1563.0663-.3116.1367-.4722.1909-.1335.0451-.2729.0751-.4117.1007-.0998.0184-.2028.0241-.3045.026-.6117.0116-1.22355.0188-1.83527.031-.22749.0045-.45536.0117-.68201.0303-.19214.0158-.38271.0504-.57412.0756-.03268.0043-.06609.0042-.09916.0042-.295.0003-.59004.0032-.88498-.0009-.19451-.0026-.38892-.0145-.58328-.0241-.1149-.0057-.23029-.0098-.34426-.0242-.19458-.0245-.38816-.0569-.58227-.0853-.20448-.0298-.40921-.058-.61355-.0887-.03854-.0058-.07595-.0196-.11358-.0308-.24927-.0738-.50219-.1375-.74643-.2254-.18069-.065-.37154-.1072-.53407-.2237-.08644-.062-.19183-.1009-.29311-.1381-.216-.0793-.40094-.2125-.59848-.3247-.23677-.1344-.40663-.3317-.56435-.5436-.07637-.1027-.15381-.2069-.21218-.3199-.07361-.1427-.12809-.2951-.19108-.4433-.09452-.2222-.14928-.4563-.19249-.6921-.0313-.1708-.05997-.3458-.0568-.5183.00348-.1893.04505-.378.0695-.567.00463-.0358.00565-.072.01033-.1078.01522-.1164.03181-.2327.04685-.3492.00379-.0293.00343-.0592.00559-.0888.01192-.1639.02359-.3277.03631-.4915.00509-.0655.01196-.1309.01923-.1962.01486-.1335.02871-.2671.0463-.4003.02967-.2245.06081-.4489.09369-.6729.01138-.0776.03081-.154.04471-.2312.01386-.077.02787-.1542.03744-.2318.02042-.1657.03226-.3326.05838-.4974.02551-.1608.06067-.3205.09855-.479.03595-.1504.0751-.3006.12314-.4475.09707-.2969.1868-.5974.30618-.8854.12852-.31.28388-.60919.43427-.90972.15926-.31827.33608-.62807.48688-.95016.10516-.22459.22465-.43884.3522-.65066.07614-.12644.12429-.26939.19347-.40046.07837-.14848.16338-.29369.2506-.43722.118-.19417.24056-.38557.36176-.57778.06331-.1004.12326-.20338.19313-.29906.07938-.10869.16226-.21606.25419-.31408.14601-.15569.29615-.30423.41106-.48896.08246-.13256.20624-.23941.31744-.3643-.07606-.04912-.14945-.09862-.22484-.14483-.26063-.15976-.32088-.32915-.26511-.60084.04654-.22674.11567-.44908.1568-.67662.04379-.24224.11946-.47325.19582-.70578.04898-.14915.13811-.27013.22858-.39151.13596-.18241.23704-.39644.42073-.5364.20919-.15938.40269-.34627.6569-.43847.09318-.03379.18905-.06063.28466-.08711.04941-.01369.07687-.03877.09086-.09054.04611-.170554.14109-.305694.30465-.383304.21757-.10325.43041-.22016.65583-.30226.26944-.09813.55514-.12346.84249-.1019.13562.01017.24915.07302.33393.17572.04115.04985.07904.05737.13461.04425.11906-.0281.23834-.05561.35832-.07937.25633-.05077.51424-.09415.76954-.14926.5928-.12793 1.1932-.2075598 1.7952-.2691598.2788-.02853.5627-.01034998.8443-.00813998.3799.00298998.7509.06094998 1.1089.19299978.1517.05599.3082.1011.4554.16695.1042.04661.2011.11369.2933.18245.1345.10043.2687.20326.3905.31834.1658.156604.3238.321814.4255.532004.0282.05835.0842.10408.1085.16336.0446.10901.0896.22139.1087.33663.0482.29051.0881.58275.1202.87551.0329.29921.051.6.0783.89985.0171.18774.0406.37489.0589.56253.017.17472.0338.34956.0447.52472.0033.05397.019.08562.0701.10401.1368.04918.2725.10154.4089.15171.0929.03415.1923.05564.2785.10203.308.16583.6117.33962.9167.51099.0691.03884.1381.07811.205.12073.0806.05142.1586.10693.2381.16008.0383.02559.0747.05672.1167.07359.2589.10397.3513.32517.4048.57223.011.05066.0054.10603.001.15869-.0124.14761-.0967.23137-.2428.25341-.1122.01693-.2112-.00514-.3145-.05627-.1889-.09357-.3867-.16927-.5799-.25443-.0634-.02796-.1214-.07017-.1865-.09203-.2628-.08821-.5269-.17252-.7915-.25511-.1163-.0363-.2333-.08169-.3528-.09317-.1664-.01599-.3355-.00399-.5019-.00399zm.2851 7.58311c-.0793.0568-.1417.1049-.2074.148-.2076.1363-.4315.2294-.6837.2313-.1352.0009-.2706-.0101-.4059-.017-.0956-.0049-.191-.0129-.2867-.0176-.0495-.0024-.0995-.0035-.149-.0004-.3887.025-.777.0592-1.1661.0746-.3635.0143-.7269-.0054-1.0902-.0341-.2405-.019-.4837-.0029-.7255-.0073-.0683-.0012-.1375-.0141-.204-.0306-.0926-.023-.1813-.0656-.2748-.0799-.2601-.0399-.5225-.0653-.7827-.1047-.1527-.0231-.31128-.0416-.45262-.0985-.27524-.1107-.54024-.2469-.80942-.3727-.08961-.0419-.17997-.0823-.26831-.1267-.28308-.1423-.56601-.2849-.84762-.4301-.09683-.0499-.18753-.1118-.28476-.1609-.13505-.0681-.27572-.1251-.41021-.1943-.2454-.1261-.45618-.3038-.67297-.4712-.05731-.0442-.09521-.1165-.13454-.1806-.08227-.1338-.07448-.2843-.032-.422.0779-.2527.19046-.3537.44739-.32.18562.0243.369.0721.5504.1206.21335.057.4239.1247.63482.1904.09742.0304.19114.0736.28953.0997.24203.0642.48802.1081.7351.151.41518.0721.82446.1775 1.23791.2606.2777.0558.5577.1008.8377.1438.2049.0315.4117.0511.6175.0773.1602.0204.3197.0517.4806.0622.3032.0198.6072.0275.9108.0416.122.0056.2439.0134.3657.0226.24.0181.4797.0514.7198.0534.2904.0024.5809-.0303.8714-.0304.2249-.0001.4397-.0492.6523-.1045.2549-.0662.4463-.2281.6025-.4425.1984-.2726.3721-.5537.4274-.8924.0304-.1868.0204-.3707-.0881-.5345-.0707-.1068-.1453-.2114-.2255-.3111-.0524-.0651-.118-.11961-.1743-.17547-.0693.08105-.1271.15157-.1881.21927-.113.1254-.2669.1507-.423.1631-.0856.0068-.1723.0024-.2584.0008-.0568-.001-.1019-.0293-.0983-.0881.0033-.0545.0456-.0857.1031-.0872.0232-.0007.0465.0021.0696.0007.1053-.0066.2111-.0099.3157-.0224.137-.0164.2027-.12436.2844-.22043-.1841 0-.3553.00162-.5264-.00079-.0693-.00098-.1178-.04131-.1101-.08752.0101-.0612.0561-.07458.1113-.07335.1094.00243.2193.01011.3279.00184.0807-.00614.1675-.01891.2382-.05487.2873-.14604.4497-.40169.564-.69017.0284-.07148.0234-.15614.0338-.23475l-.0218-.00618c-.0529.06188-.1047.12467-.1588.18545-.14.15734-.2985.29206-.4981.36609-.2347.08699-.4827.11757-.7297.11969-.3836.00329-.7676-.01335-1.1513-.02533-.1084-.00339-.2175-.01373-.3244-.03205-.1393-.02389-.2775-.05598-.4149-.09-.119-.02949-.2438-.07604-.2518-.21587-.0062-.1081.0134-.22963.0604-.32623.088-.18081.2097-.34276.3553-.48619.0913-.08996.169-.19384.2521-.29206.034-.04026.064-.08424.0998-.1228.1991-.21442.4531-.35164.7023-.49514.0222-.01277.0492-.0213.0747-.02352.2367-.02067.4736-.05375.7106-.0545.1966-.00062.3957.02546.5894.06223.1478.02805.296.07924.3906.21459.0644.09211.1269.18552.1913.27766.0338.04847.0698.09546.1177.16076.0456-.2245.003-.41761-.0274-.611-.0021-.0135-.0195-.02659-.0326-.03608-.135-.09818-.2804-.18022-.4456-.20725-.182-.02978-.3665-.05062-.5506-.05864-.2449-.01066-.4905-.01135-.7355-.00477-.2264.00607-.4441.0577-.6477.1627-.2321.11971-.4362.27452-.6089.47067-.0377.04277-.0823.06148-.128.01499-.0417-.04244-.0343-.08737.0052-.13117.4005-.44429.8892-.6948 1.4971-.69902.3873-.00269.7708.03529 1.1546.078.2386.02654.4456.11539.6145.28854.0133.01357.0344.01948.0518.02895.0054-.00671.0109-.01342.0163-.02013-.0462-.04488-.0882-.09538-.1394-.13349-.1138-.08471-.2317-.16399-.349-.24403-.1131-.07723-.235-.13725-.3724-.15209-.1738-.01876-.3481-.03778-.5226-.04224-.1549-.00396-.3105.00848-.4654.01959-.2764.01982-.5523.04332-.7973.19479-.0476.02944-.1.02198-.1301-.02573-.0297-.04709-.0039-.09745.0379-.11908.1053-.05451.2114-.11679.3249-.14452.3219-.07867.6528-.09434.9828-.10099.1377-.00277.2758.0217.4139.03197.0431.00321.0867.0005.13.0005.0047-.00872.0094-.01744.014-.02615-.1091-.1396-.2155-.28137-.3279-.41825-.1363-.16604-.3238-.27083-.4922-.39844-.0714-.05415-.1529-.07414-.2422-.07025-.1684.00734-.3369.01302-.5054.01839-.4198.01339-.8396.02608-1.2594.03955-.0297.00095-.0592.00575-.0888.00904-.1506.01675-.3016.03049-.4517.05125-.1577.02181-.3145.05036-.4818.07762.0395.0738.0687.12928.0988.18432.1054.19334.2408.36995.3162.58032.0411.11493.0658.22696.0214.34678-.0088.02375-.0086.06331.0057.08103.0657.08196.1404.15669.2069.23805.0662.08086.1442.1586.1858.25166.1099.24553.0898.51116.0852.77207-.0005.02599-.0351.06875-.0586.07228-.0259.00389-.0645-.02273-.084-.04696-.0161-.02005-.0156-.0558-.0171-.08487-.007-.13528.0006-.27283-.022-.40534-.0195-.11507-.0497-.24087-.1159-.33263-.1053-.14615-.2431-.26921-.3698-.39954-.0643-.06618-.1394-.12232-.2006-.191-.1488-.16692-.3214-.28318-.5534-.28533s-.4639-.00304-.6959-.00341c-.0228-.00004-.0456.00744-.0685.01142l-.0019.022c.0606.02369.1201.05068.1819.07051.2663.08541.5012.22067.6918.42793.0626.06798.1175.14561.1891.2021.2293.18087.4355.38564.6446.5884.1474.14296.28.29528.3469.48834.0434.12533.0541.26274.0721.39573.0065.04791-.0278.08141-.0801.0808-.0473-.00056-.0705-.03113-.077-.07558-.0019-.01304-.0003-.02657-.0018-.03969-.0241-.20716-.0788-.41032-.2205-.56283-.1977-.21274-.4185-.40397-.6304-.60339-.0746-.0702-.1587-.13133-.2268-.20712-.2056-.22887-.4272-.43026-.7293-.52765-.2228-.07181-.4387-.16473-.6615-.23671-.2023-.0654-.41411-.02705-.62122-.02696-.22424.00009-.44834.0277-.67275.03321-.14831.00364-.29734-.00669-.44554-.01761-.23631-.01741-.45631.05107-.67835.11538-.21993.0637-.39651.18813-.54796.35748-.13207.14768-.27277.28767-.41.43073-.07776.08107-.08927.18059-.08216.28596.00353.05223.03343.06924.08073.0608.08724-.01556.15842-.04998.21022-.13115.10346-.16211.22238-.3139.37442-.43423.24242-.19187.53749-.26852.82694-.34023.24483-.06065.50232-.06852.75286-.10824.31612-.05012.63204-.03952.94862-.0138.03599.00293.07239.00915.10709.01925.2493.07264.4778.18655.6906.33644.1451.1022.2923.19973.4594.27034.2266.09573.4615.18064.6511.34959.1527.13595.288.28151.3553.48031.0295.08722.0677.17154.1025.25693.0499.12228.1093.24167.1471.36757.0208.06945.0491.11081.1138.14191.2022.0971.2305.39272.0699.52643-.1328.11048-.2713.20836-.4278.28301-.0667.03182-.129.07866-.1835.12919-.2395.22181-.428.49281-.6899.69521-.1787.1381-.3728.2369-.5814.3126-.1918.0697-.3873.1295-.5789.1996-.1977.0724-.38564.1773-.60729.1595-.0732-.0058-.10947-.0283-.11174-.0825-.00219-.0522.03921-.0947.10455-.09.17537.0125.32758-.0588.48408-.1201.1927-.0756.3848-.1551.5825-.215.2174-.0659.4223-.1483.5956-.299.0871-.0758.1813-.144.2642-.224.0898-.0866.1705-.1827.2542-.2754.0161-.0179.0279-.0397.044-.06297-.0183-.00903-.0266-.01648-.035-.01676-.2478-.00833-.4956-.01417-.7433-.02442-.1251-.00518-.2502-.01561-.3748-.02825-.131-.01328-.2612-.03478-.3922-.04779-.2362-.02346-.47328-.03946-.70921-.06567-.24214-.02689-.483-.05534-.71279-.15205-.18206-.07661-.35063-.16557-.49096-.30645-.08867-.08902-.18087-.17493-.27612-.25684-.09227-.07934-.19069-.15152-.28598-.22738-.04107-.03269-.05659-.07005-.02632-.12088.02773-.04657.06322-.05486.10878-.0328.02673.01294.05563.02461.07759.04372.16194.14091.33523.27179.4793.42929.11889.12998.26011.21945.41319.28194.18117.07395.36619.14421.57032.15349.22004.01.43856.05014.6583.07172.1806.01774.366.00867.542.04572.2145.04516.4278.02951.6418.0373.1155.0042.2317.007.3458.02282.15.02078.295.02706.436-.04157.0801-.03901.1684-.06307.2442-.10858.0931-.05587.1811-.12225.2635-.19311.0755-.06488.074-.15498.0069-.21675-.0408-.03754-.0804-.06619-.1353-.01077-.0253.02549-.0722.04449-.1077.04215-.1394-.00919-.258.05126-.3778.10428-.1988.08798-.4071.12723-.6221.1364-.3355.01431-.6635-.04542-.9911-.10559-.1292-.02373-.2587-.04954-.38472-.0861-.18964-.05503-.37619-.12069-.56429-.18109-.07207-.02314-.14571-.04163-.21696-.06696-.08379-.02979-.16704-.06184-.24815-.09821-.08065-.03617-.16306-.0719-.23596-.12084-.06798-.04564-.12564-.10714-.18577-.16387-.13808-.13026-.28286-.25234-.47233-.29723-.29262-.06934-.55103-.22155-.82447-.33646-.09155-.03847-.1634-.06317-.26516-.03754-.17425.04389-.29774-.03133-.31929-.19001-.0204-.15027.00793-.29798.11741-.41576.12384-.13324.25436-.26046.37457-.39683.21332-.242.4634-.41893.7839-.49024.1609-.0358.3175-.08201.48634-.07693.2715.00815.54342.00591.8151.00286.27119-.00304.54232-.0124.81348-.01919.0265-.00066.0529-.00352.0794-.00401.1782-.00329.3564-.00704.5347-.00899.1216-.00133.2432.00184.3647-.0004.1085-.002.2171-.01383.3254-.01172.0986.00192.1975.01249.2951.02727.0774.01174.1546.03075.2291.05512.1504.04922.2474.17251.3612.27207.0278.0243.055.04927.0824.07393l.0279-.01498c-.0117-.05906-.0102-.12502-.0371-.17601-.1338-.25349-.2758-.50269-.4133-.75422-.0322-.05884-.0815-.05746-.1365-.0509-.1013.01208-.2028.02242-.3042.03341-.0951.01029-.1931.00922-.2844.03348-.123.03268-.246.04154-.3717.04904-.2564.01529-.5122.04163-.7682.06367-.00639.00055-.01241.00476-.01886.00592-.2957.05336-.59253.09183-.89425.08753-.18514-.00264-.37028.00132-.55232-.03963-.20843-.04689-.4256-.04963-.62659-.13583-.21195-.0909-.42643-.17644-.64264-.25668-.28822-.10697-.52864-.28371-.74675-.49448-.06896-.06664-.1268-.14653-.24103-.12958-.0204.00303-.04378-.01295-.06558-.0207-.18661-.0663-.37358-.13163-.55952-.19975-.05967-.02186-.10477-.01706-.14869.03512-.09785.11627-.21441.21911-.29845.34416-.12995.19335-.28845.35837-.44854.52445-.07732.08021-.1449.1709-.20923.26224-.06827.09694-.12311.20335-.19136.3003-.27283.38754-.49047.80678-.70983 1.22511-.03206.06114-.05352.129-.09218.18531-.1806.26301-.3028.5569-.44925.83788-.06827.13098-.12617.26735-.19394.39861-.11362.22008-.23584.43581-.34602.65756-.09357.18832-.179.38096-.26088.5747-.05482.1297-.09899.2641-.14444.3976-.03711.109-.06946.2196-.10321.3297-.05859.1912-.11994.3816-.17347.5742-.02538.0913-.03581.1868-.05226.2805-.0164.0935-.03343.1869-.04732.2807-.01874.1266-.03417.2538-.05204.3805-.02889.205-.05841.4099-.0882.6147-.0047.0323-.01163.0643-.0185.0963-.02559.1188-.06384.2364-.07479.3565-.02058.2258-.06471.4481-.06894.677-.00478.2584-.04647.5161-.07296.774-.01074.1045-.02447.2087-.03555.3132-.02255.2126-.06386.4255-.06051.6377.00309.1951.04641.3911.08697.5835.0503.2387.14741.4632.22942.6925.09599.2684.25651.4879.43838.698.02575.0297.05585.0557.0815.0855.10726.1246.24609.2088.38325.2933.12005.074.24523.1403.37139.2035.13828.0693.28819.1185.41874.1995.17753.1101.37356.1782.56788.2276.30496.0774.59382.2227.91589.2312.00314.0001.00615.0025.00936.0032.17642.0363.35146.0834.52962.1063.24104.031.48446.0434.72686.0637.01319.0011.02681-.0003.03963.0024.22339.0466.45142.0185.67812.0467.2905.0361.58888.0089.88387.0087.02643-.0001.0532-.0001.07922-.0041.19743-.0299.39412-.0658.59226-.0897.1371-.0165.2761-.0228.41431-.0237.60096-.0036 1.20209.011 1.80243-.035.2006-.0154.4033-.0067.6033-.0265.1229-.0121.2444-.0516.3632-.0893.1183-.0375.2326-.0873.3482-.1329.1656-.0654.3315-.1268.4182-.3053.0324-.0668.0867-.125.1387-.1798.0423-.0446.0596-.0896.0566-.1508-.0051-.1025-.0153-.2074.0006-.3076.0326-.2064-.0022-.3848-.1264-.5601-.1449-.2045-.2692-.4227-.466-.5859-.1341-.1113-.2142-.2627-.2649-.4238-.0497-.1579-.0312-.317.0922-.4421.0598-.0606.1312-.1112.2024-.1586.1614-.1074.3338-.125.5195-.0639.1117.0367.1875.1141.257.1942.0517-.0465.0946-.0917.1442-.1279.0504-.0369.1073-.0649.1613-.0969.0313-.0185.0656-.0335.0929-.0567.1862-.1582.3679-.3219.5571-.4765.1888-.1542.3711-.324.5816-.4418.1801-.1007.3652-.2107.5837-.2363.1851-.0216.3558-.0197.5013.1157.0484.0449.0997.0868.1508.1288.068.056.1371.1107.2078.1676.0426-.0467.0793-.0842.1129-.1243.1077-.1289.2199-.2524.2884-.4115.0803-.1867.1014-.373.054-.5868zm-.104-9.08692c.0034-.01754.0102-.03347.0086-.04851-.0149-.14126-.033-.2822-.0467-.42357-.0241-.24679-.047-.4937-.0678-.74077-.0153-.18136-.0191-.36398-.0413-.54439-.0418-.3379-.0953-.67432-.1394-1.01195-.0139-.10663-.038-.20699-.0924-.30065-.0998-.17198-.2073-.33676-.3412-.48615-.289-.322364-.6069-.599414-1.0298-.732084-.1038-.03259-.2076-.0668-.3083-.10804-.2358-.09663-.487-.1234-.735-.15214-.2227-.0258-.4495-.01825-.6745-.02122-.3414-.0045-.6803.02055-1.0174.07976-.2923.05134-.5882.08203-.88.1358-.3733.06881-.74568.14472-1.11552.23032-.36349.08413-.72343.18369-1.0846.27774-.0703.01831-.13837.04526-.20873.06328-.30678.078584-.61582.149004-.92053.234814-.23159.06522-.4601.14328-.68558.22742-.10352.03863-.19892.10163-.29357.16068-.10348.06455-.20533.13285-.30124.208-.06643.05205-.12685.11416-.18054.17951-.07522.09155-.14467.18828-.21116.28647-.08649.12771-.19282.24391-.23746.39696-.07487.25672-.15579.51182-.224.77029-.05728.21707-.1018.43759-.14859.6573-.0248.11644-.02692.23131.06784.32393.13136.12838.27573.238.4525.29602.21319.06997.42733.13704.64151.20391.05015.01566.10167.03321.15336.03622.08404.00489.14799.04382.1928.10736.15502.21983.38162.34566.61299.45839.19529.09515.40445.1614.605.2463.31693.13417.65158.20012.98951.23434.21508.02178.43601.00277.65297-.01469.4113-.03311.82264-.06843 1.23054-.13522.1821-.02984.3701-.00366.5506-.05984.0619-.01926.1307-.01667.1964-.02299.1843-.01771.3692-.02963.5526-.05345.2719-.03531.5426-.07895.8138-.11896.0944-.01393.1885-.03535.2833-.03988.2279-.01089.4562-.01419.6844-.01982.1589-.00392.3179-.00303.4766-.01067.261-.01256.5217-.03498.7823.00567.0913.01425.1828.03848.2742.03833.3119-.00051.6204.0358.9267.08503.2277.03658.4538.08781.6769.14649.1749.04601.3406.13162.5169.16696.251.05029.4326.225.6545.32482.0367.01652.0622.054.0352.08764-.016.01987-.0668.03011-.0924.02019-.0579-.02241-.11-.05994-.1644-.09146-.0514-.0298-.1003-.06539-.1545-.08864-.185-.07936-.3718-.15446-.558-.23094-.0122-.00501-.0251-.00872-.038-.01178-.2378-.05644-.4756-.11276-.7135-.16892-.0545-.01287-.1086-.02889-.1639-.03678-.1438-.02052-.2876-.04516-.4322-.0535-.1596-.00921-.3201-.0021-.5027-.0021.1776.11662.3206.24086.4303.40118.0133.01955.0655.02493.0959.01852.2511-.05307.5017-.02532.7486.01584.1311.02186.2541.08955.3824.13152.1913.06255.3884.10947.5751.18323.2917.11524.5764.24812.8649.37162.0478.02047.099.04072.1499.04455.0985.00741.1442-.02899.1611-.11009.0424-.20316-.0499-.45026-.2208-.56184-.2018-.13174-.4065-.25946-.6144-.38125-.1583-.0927-.3331-.14291-.5153-.16797-.1571-.02162-.3211-.0253-.4692-.075-.3384-.11354-.6919-.14322-1.0376-.21459-.1582-.03268-.3203-.04874-.4814-.06578-.2528-.02675-.5061-.04991-.7595-.07043-.0889-.0072-.1788-.00162-.2683-.00275-.3044-.00383-.609-.01537-.9133-.00961-.211.00399-.4213.04143-.6323.0458-.1986.00412-.3951.00795-.5926.04055-.3353.05535-.6732.0945-1.01.1408-.2417.03323-.4798.09829-.7274.08019-.0254-.00186-.0517.00948-.0776.01424-.1521.02792-.3032.06513-.45652.08142-.25937.02756-.5199.0522-.78042.0586-.2241.0055-.44925-.01085-.67323-.02718-.27191-.01982-.53443-.09038-.78602-.19162-.19871-.07996-.39864-.16281-.56723-.30204-.04536-.03746-.0942-.08228-.05783-.1401.033-.05245.09268-.02475.1448-.01036.13362.03689.26747.09021.40344.09793.33046.01876.66218.01096.98936-.05071.16227-.03058.32287-.06993.4845-.10406.31696-.06693.6342-.13252.95115-.19958.1932-.0409.3802-.11369.5832-.10531.0515.00213.104-.01623.1558-.02676.2525-.05138.5046-.10333.7639-.10886.0753-.00161.1502-.01987.2254-.03023.1506-.02076.301-.05725.4518-.05925.6551-.00867 1.3103-.00534 1.9654-.01045.2768-.00216.5479.04425.8161.09766.3456.0688.6861.16287 1.0289.24534.0117.00281.0253-.00222.0419-.004zm-.8624 13.89092c-.0457.0049-.0842.0121-.1229.0128-.2685.0046-.4933-.0987-.6866-.28-.094-.0881-.183-.1839-.2869-.2585-.1652-.1186-.3147-.2529-.4499-.4028-.1058-.1175-.1842-.2555-.1861-.4167-.0017-.1548-.0297-.301-.0777-.4466-.0152-.0462-.034-.0616-.0812-.0661-.0848-.0082-.1719-.0167-.2522-.0428-.2214-.0719-.365-.1972-.3795-.4533-.0106-.1884-.2245-.3586-.3925-.361-.1542-.0021-.2618.0783-.3687.1676-.1106.0924-.1245.2147-.0803.34.0618.1754.1811.3126.317.4373.065.0596.1284.1238.1793.1953.0955.1339.1785.2766.272.4119.0634.0916.0833.1931.0861.2995.0026.1027.0018.2056-.0026.3082-.0097.2312.0179.4541.1167.6673.0325.0701.0758.1192.1405.1574.1303.077.2605.1546.387.2377.1872.1229.3714.2506.5565.3768.2754.1879.5853.263.9128.2813.0198.0011.0394.0046.0592.0067.1698.018.3392.042.5095.0526.2923.0182.5846-.0063.8787.0338.2669.0364.5409.0054.8066-.053.1673-.0368.3328-.083.4973-.1308.1293-.0377.261-.0734.3827-.1294.2266-.1043.4444-.2272.6456-.3758.0884-.0652.1493-.1566.1327-.2705-.0144-.0995-.044-.1983-.0794-.2927-.0578-.1544-.1207-.3074-.1913-.4564-.0564-.1191-.1114-.2455-.1968-.3424-.0838-.0949-.1395-.2016-.183-.3115-.0797-.2014-.2036-.3686-.3425-.5292-.0838-.097-.1641-.1971-.2443-.2971-.0804-.1003-.1513-.2093-.2391-.3025-.3374-.3582-.744-.6204-1.181-.8404-.0837-.0422-.166-.098-.2296-.1657-.0662-.0704-.1078-.1635-.1625-.2452-.0163-.0243-.0386-.0456-.0611-.0648-.0853-.0729-.1789-.1375-.2565-.2176-.1914-.1976-.4125-.2029-.6469-.1079-.2363.0957-.4611.2171-.6578.3802-.2276.1887-.4454.3892-.6566.575.1011.0908.2037.1719.2926.2659.0845.0895.1044.2015.0259.3053-.0628.083-.139.1567-.2148.2288-.0389.037-.0879.0261-.1241-.0125-.0329-.035-.018-.0856.0278-.1269.054-.0486.1075-.0983.157-.1514.0374-.0401.039-.0811.0049-.1329-.0756-.115-.1947-.1648-.3083-.224-.0156-.0082-.0425-.0093-.0578-.0014-.1357.0705-.2884.1206-.3298.2992-.0319.1378.0152.3139.1717.3785.1467.0605.2965.0554.4483.0602.1387.0044.262-.0366.3713-.1157.187-.1356.3714-.275.5539-.4167.1153-.0895.2275-.1911.3776-.2037.2806-.0236.5464.0272.7765.2047.0673.0519.067.0935-.0018.1486-.0148.0118-.0332.0232-.0407.0392-.0423.0905-.0817.1823-.1298.291.0331-.0192.0556-.0289.0741-.0436.1731-.1375.3451-.2764.5184-.4137.0255-.0201.056-.0472.0841-.0473.0305 0 .0714.0204.0894.0452.0357.0493-.005.0892-.0401.1176-.1795.1452-.3547.2969-.5438.4284-.1865.1296-.3864.2402-.5833.3543-.1079.0626-.2307.1024-.3308.1748-.1922.139-.2944.3537-.4175.5489-.0184.0292-.0181.0793-.0085.115.0143.0531.0386.1059.0691.152.0989.1497.2182.2786.3696.3804.1409.0948.2942.1095.4542.1052.0792-.0022.1298-.0399.1564-.1213.0837-.2559.2682-.4529.4125-.6723.11-.1674.2924-.2649.4564-.3764.0381-.026.0827-.023.1046.0156.0147.0259.015.0709.0025.0986-.0139.0307-.0459.0581-.0765.0756-.1814.1035-.3238.241-.4386.4193-.1197.186-.2549.3601-.3327.5712-.0416.1131-.0221.2647.0659.3451.0133.0122.0318.0242.049.026.1898.0202.3795.0413.5698.0552.063.0046.1318-.0133.1648-.0734.0649-.118.1572-.2076.2535-.3002.1809-.1738.3455-.3646.5175-.5478.0381-.0407.0747-.0848.1197-.1163.0208-.0146.0698-.0148.0885.0002.02.0162.0276.0586.0252.0883-.0018.0218-.0268.0431-.0442.0621-.0872.095-.1746.1898-.2632.2836-.1176.1246-.2367.2478-.3545.3723-.0474.0502-.0988.0981-.1378.1544-.0407.0588.0262.2956.0863.333.1347.0836.4184.0595.5327-.0569.1153-.1174.2216-.244.3282-.3696.1045-.1231.2027-.2516.3076-.3743.0316-.037.0739-.0668.1159-.0923.0417-.0254.0969.0015.1099.0475.0138.0489-.0152.0787-.0453.1121-.1039.1153-.2082.2304-.3056.351-.0924.1144-.1698.2413-.2927.3284-.0159.0113-.0265.0297-.0413.0428-.0533.0477-.1023.1026-.1621.1401-.1569.0984-.332.1072-.5063.0666-.1005-.0234-.1886-.0817-.2342-.1828-.0209-.0464-.0345-.0961-.0515-.1448-.0397.0129-.0732.0272-.1083.0344-.2314.0478-.4609.0146-.6858-.0353-.1525-.0338-.2473-.1434-.2792-.3011-.0063-.0311-.0177-.0613-.0271-.0927zm1.6734-7.7195c-.0062.0043-.0123.0086-.0184.0129-.0273.1018-.0498.205-.0826.3049-.0812.2469-.2079.4711-.3611.6797-.1235.1683-.2611.3218-.4432.4331-.2477.1513-.5272.1983-.8037.2299-.3244.0371-.6536.0394-.9808.0423-.2009.0018-.402-.0233-.6031-.0367-.1219-.0081-.2438-.0174-.3657-.0253-.2934-.0191-.5868-.0386-.8803-.0562-.1353-.0081-.2719-.0035-.4061-.0198-.2751-.0333-.5491-.0762-.8233-.1163-.2669-.0391-.5345-.0742-.8001-.121-.2465-.0434-.4906-.1005-.73596-.1507-.32928-.0673-.65915-.1317-.98796-.2011-.17761-.0375-.35556-.0759-.5298-.1263-.34501-.0996-.68653-.2114-1.03168-.3105-.11986-.0345-.2458-.0491-.36976-.0672-.06367-.0094-.11367.0191-.14868.0767-.10821.1781-.10686.3993.06137.5488.05651.0502.11893.094.17974.1392.19608.1458.39337.2896.61951.3878.11147.0483.225.0936.3315.1514.23997.1304.47328.2732.71486.4004.16286.0858.33674.1503.50293.23.20824.1.41332.2065.62038.3089.20649.1022.42649.1571.65405.1872.1732.0229.3451.062.5189.0736.1759.0117.3452.0404.5117.0972.0681.0233.1413.0405.2129.0434.3966.0165.7934.0366 1.1903.0384.4433.0021.8868-.0134 1.3302-.023.0791-.0017.1599-.0031.2367-.0196.2541-.0545.509-.0284.7615-.0043.2413.023.4755.0232.7012-.0725.1998-.0847.3792-.2006.5182-.3707.0767-.0939.1544-.1876.2232-.2872.0612-.0885.1475-.1608.1769-.2706.0425-.1589.0372-.3039-.097-.4212-.1461.1241-.2961.2465-.4404.3753-.1375.1229-.2938.2023-.4771.2188-.2006.018-.4017.0307-.6029.0399-.2314.0106-.463.0179-.6946.0202-.1087.001-.2561-.0193-.3649-.0188-.5324.0026-.9895.0363-1.5564-.0573-.3183-.0397-.6344-.0813-.9457-.161-.2558-.0654-.5131-.1262-.7808-.1239-.2017.0016-.4036-.0042-.60535-.009-.05585-.0013-.11197-.0082-.16716-.0173-.1653-.0276-.3303-.0569-.49522-.0867-.08111-.0147-.1647-.0231-.24211-.0493-.25589-.0866-.50916-.1809-.76408-.2704-.13357-.0469-.26755-.093-.40305-.1338-.21102-.0636-.43278-.0994-.61241-.2415-.09029-.0714-.18115-.1426-.2656-.2205-.02025-.0187-.016-.064-.02302-.097.03623-.0059.07425-.0213.10817-.0149.03345.0063.06319.034.09377.0535.12755.0814.2496.1736.38396.2415.09221.0466.20252.0561.30273.0884.27623.089.55278.1773.82653.2735.19562.0687.38073.1669.59344.1836.09476.0074.18758.0369.28204.0515.1431.0222.28631.0489.43046.0577.2111.013.4231.0101.6347.0173.2652.009.5205.0763.7775.1351.1799.0411.3615.0762.5437.1049.1237.0195.2497.0233.3748.0336.2698.022.5393.0496.8095.0632.1445.0072.2903-.0174.4352-.014.1976.0047.3949.0321.5924.032.2276 0 .4552-.0198.6829-.0303.1852-.0085.3704-.0162.5556-.0237.1992-.008.3709-.0726.5086-.2246.0638-.0704.1422-.1278.2152-.1897.0628-.0533.1352-.0977.1898-.1583.1898-.2104.3766-.4236.5586-.6407.1155-.1378.2089-.2973.1489-.4815-.0469-.144-.1348-.2748-.2045-.4114zm-9.32778-5.67399c.00056.00704-.00036.01235.00128.01333.01103.00653.02285.01171.03396.01812.15119.0872.31854.12277.48644.16204.27108.06339.54214.12603.82175.12324.18478-.00185.36982-.01629.55398-.03333.21346-.01975.42622-.04747.63907-.07371.1705-.02103.3405-.04688.5111-.0673.2851-.03411.571-.06171.8556-.09973.1567-.02093.3102-.06783.4671-.08484.3021-.03276.604-.0766.9095-.06246.0131.00061.0263-.00259.0395-.00396.3557-.03707.7116-.06832 1.07-.05248.1918.00847.3838.00982.5755.01897.2575.0123.5156.02119.772.0462.2296.0224.4577.06216.6857.09896.1692.02731.3381.05801.5056.09457.261.05699.5204.12103.7811.1797.03.00677.0635-.00159.106-.00338-.0157-.02588-.0188-.0385-.026-.04169-.1903-.08381-.3761-.18134-.5726-.24622-.299-.09869-.5921-.20688-.872-.35217-.0835-.04335-.1783-.06823-.2706-.09058-.1798-.04352-.3632-.07256-.5419-.11966-.3734-.09839-.7501-.1592-1.1376-.1327-.3135.02144-.6271.0159-.9411.01181-.2977-.00387-.596.00622-.8933.02347-.1911.01109-.3807.04624-.571.07061-.2322.02975-.4647.05785-.6966.08982-.1734.02389-.3491.04006-.5182.08216-.32097.07991-.64184.15585-.96865.20983-.18151.02998-.35629.09851-.53665.13809-.34097.07484-.68722.09695-1.03595.0837-.0775-.00294-.15521-.00041-.23303-.00041zm3.74288 2.4696c.0015-.00886.003-.01772.0045-.02658-.0255-.01253-.0511-.02496-.0765-.0376-.0946-.04703-.193-.08789-.2828-.14269-.1296-.07904-.2508-.17185-.3796-.25228-.2303-.14383-.4783-.23572-.75408-.2393-.30064-.0039-.59836.01189-.89846.04863-.33347.04083-.65725.10239-.97033.22108-.08294.03145-.16601.0658-.24273.1098-.19777.11341-.32415.29519-.44641.47925.09577.09872.2049.1205.31427.07056.05067-.02313.10411-.04624.15851-.05413.25428-.03688.50858-.07675.76429-.09981.31221-.02815.62565-.05154.9389-.05687.34031-.00579.68104.01883 1.02154.01652.283-.00192.566-.02363.8489-.03658zm1.0893 1.41487c-.0123-.07148-.0133-.12435-.0309-.17084-.0677-.17793-.1486-.35116-.2098-.53116-.07-.20585-.2017-.36075-.3674-.49097-.0332-.02614-.0816-.04298-.1241-.04557-.1244-.0076-.2496-.01095-.3741-.00651-.1726.00616-.3449.02094-.5322.03299.0983.09048.1777.18074.1938.30311.038.28856.0296.57387-.0965.8436-.0394.08422-.09.16316-.1388.25029.0649.00853.1229.01651.181.02374.3574.04447.7101.04825 1.0494-.10264.1344-.05979.2677-.13115.4496-.10604zm4.2062-.77353.0319-.02154c-.0175-.04651-.0258-.09958-.0538-.13839-.1236-.17088-.2581-.334-.3776-.50751-.0555-.08058-.1276-.1333-.2133-.14952-.2001-.03789-.4027-.07151-.6056-.08351-.1737-.01028-.3493.01566-.5242.01881-.2465.00444-.4269.14563-.6222.28181.019.00812.027.01427.0354.01474.3658.02065.7315.04487 1.0976.05934.1915.00757.3585.07694.5237.16344.2348.12305.472.24176.7081.36233zm-1.1843.89785c.0876-.01183.1525-.02039.2173-.02938.1862-.02583.361-.08571.5014-.21263.1319-.11926.2533-.25044.3759-.37968.056-.05906.0443-.10758-.0275-.14877-.0282-.01622-.0579-.03064-.0882-.04264-.2143-.08493-.4242-.17791-.6188-.30407-.1098-.0712-.2327-.11292-.3763-.12856.2872.41053.3596.81436.0162 1.24573zm-.4112 6.8048c-.0051-.0082-.0101-.0163-.0151-.0245-.0445 0-.0898-.0052-.1335.0009-.1553.0219-.2624.1289-.3812.2177-.2802.2094-.5331.4649-.8854.5403.0269.197.0531.3891.0793.5812.0094.0024.0189.0048.0283.0073.1784-.1661.3581-.3306.5347-.4985.1957-.186.3921-.3715.5807-.5645.0745-.0764.1287-.1727.1922-.2599zm-5.94342-15.452114c-.07157-.1011-.15542-.13657-.25054-.1349-.16834.00296-.33862.00154-.50418.02717-.17795.02754-.35662.06997-.5253.13216-.15346.05658-.29941.13978-.43793.22811-.07454.04753-.12764.12947-.18753.198404-.00969.01115-.01187.04083-.00379.0521.00825.0115.03525.01824.05089.01436.13101-.03251.26162-.06679.39174-.102774.2415-.06678.48214-.13669.72397-.20221.19714-.05341.39578-.10124.5931-.15401.04619-.01235.0897-.03468.14957-.05841zm4.97962 17.235914c.0086-.0031.0171-.0063.0257-.0095-.0122-.1162.0332-.2113.0964-.3023.0563-.0811.0992-.1723.16-.2494.1166-.1478.24-.2873.4288-.3535.1145-.0402.2166-.1054.2827-.2194.0408-.0704.1058-.1263.1559-.1918.0458-.06.0923-.1209.1275-.1873.0754-.1423.0517-.2161-.1016-.2406-.006-.001-.0126.0018-.0161.0023-.0955.1241-.1851.2504-.2853.3678-.0747.0876-.162.1647-.2454.2448-.2144.2059-.428.4127-.6454.6153-.0839.0782-.1774.146-.2771.2272.1016.1025.1978.1995.2939.2964zm-5.09096-9.92432c-.43123.03934-.8426.06937-1.26659.16044.02939.01764.04105.0272.05442.03227.12887.04886.25835.09611.38701.14551.16477.06327.33606.11527.45871.25486.00221.00252.01197-.0016.02109-.0031.03116-.23648.18359-.40512.34536-.58998zm1.26356.87586c.2277.00047.3457-.10446.3471-.30869.0007-.09986-.0501-.16105-.1433-.19628-.1248-.04716-.2311-.00476-.3333.05777-.09305.05692-.14332.18017-.11795.27092.0317.1134.11965.17602.24745.17628zm3.4621.40768c-.1241-.34903-.0045-.65844.0938-.91194-.0578.04874-.1685.11732-.2457.21289-.114.14095-.2483.27565-.2631.47619-.0069.09358.0028.11997.0967.14361.0983.02475.1967.049.3183.07925zm1.6221-.5819c.0001-.16013-.0664-.2138-.277-.22356-.076-.00353-.1638.12854-.1616.24331.0026.1425.0827.21047.2484.21086.1305.00031.1902-.072.1902-.23061zm-5.98234-.30326c.08977.0011.14916-.05032.15148-.13116.00187-.06524-.06896-.13754-.1373-.14014-.06908-.00263-.14845.07402-.15019.14503-.0016.0652.06322.12538.13601.12627zm.21026.33974c.00084-.07959-.03741-.12583-.10478-.12666-.06729-.00083-.14724.06935-.15085.13244-.00406.07101.05349.12576.13306.12657.07701.00079.12168-.04743.12257-.13235zm4.84458-.33069c.0004-.0624-.0628-.13267-.1208-.13426-.0597-.00164-.1282.0801-.1275.15219.0006.06056.0615.12308.1191.12225.0567-.00082.1288-.07909.1292-.14018zm.0093.53986c-.0003-.07931-.0194-.09858-.099-.0995-.0827-.00096-.1227.03313-.1227.10462 0 .06119.0499.1111.1121.112.0755.00109.1098-.0356.1096-.11712z" fill="#030302"/><path d="m16.0411 4.7117c-.0166.00179-.0302.0068-.0419.00398-.3429-.08246-.6834-.17654-1.0289-.24534-.2682-.0534-.5394-.09981-.8161-.09766-.6551.00511-1.3103.00177-1.9654.01045-.1509.002-.3013.03848-.4518.05925-.0752.01036-.1501.02862-.2255.03023-.2593.00554-.5114.05748-.7638.10886-.0518.01053-.1044.02889-.1559.02676-.2029-.00839-.3899.06441-.5832.10531-.31691.06706-.63415.13265-.9511.19958-.16162.03413-.32222.07348-.4845.10406-.32718.06166-.6589.06947-.98936.05071-.13597-.00772-.26982-.06104-.40344-.09793-.05212-.01439-.1118-.04209-.1448.01036-.03637.05781.01247.10264.05783.1401.16859.13923.36852.22207.56723.30204.25159.10124.51411.1718.78602.19162.22398.01633.44914.03268.67323.02718.26052-.0064.52104-.03104.78042-.0586.15337-.01629.30447-.0535.45657-.08142.0259-.00476.0522-.0161.0776-.01424.2475.01811.4856-.04696.7273-.08019.3368-.0463.6748-.08545 1.0101-.1408.1974-.0326.3939-.03643.5926-.04055.211-.00437.4213-.04181.6322-.0458.3043-.00576.6089.00578.9134.00961.0894.00113.1794-.00445.2683.00275.2534.02052.5066.04368.7595.07043.161.01704.3231.0331.4814.06578.3457.07138.6991.10106 1.0375.21459.1482.04971.3121.05338.4693.075.1821.02506.357.07527.5152.16797.208.12179.4127.24951.6145.38125.1709.11157.2632.35868.2208.56184-.017.08109-.0627.11749-.1611.11009-.0509-.00383-.1021-.02408-.15-.04455-.2884-.12351-.5731-.25638-.8648-.37162-.1867-.07375-.3838-.12067-.5751-.18323-.1283-.04197-.2513-.10966-.3825-.13152-.2469-.04117-.4975-.06891-.7486-.01584-.0303.00641-.0825.00103-.0959-.01852-.1096-.16032-.2526-.28456-.4302-.40118.1825 0 .343-.00711.5026.0021.1447.00834.2885.03299.4323.0535.0552.00788.1093.02391.1638.03678.2379.05616.4758.11248.7136.16892.0129.00305.0257.00676.0379.01178.1863.07648.3731.15158.5581.23094.0542.02325.1031.05885.1545.08864.0544.03152.1065.06905.1644.09146.0256.00992.0764-.00032.0923-.02019.027-.03364.0015-.07112-.0352-.08764-.2219-.09982-.4035-.27453-.6544-.32482-.1763-.03534-.342-.12095-.5169-.16696-.2231-.05868-.4492-.10991-.6769-.14649-.3064-.04923-.6148-.08554-.9267-.08503-.0914.00015-.183-.02409-.2743-.03833-.2605-.04066-.5212-.01824-.7822-.00567-.1587.00764-.3178.00675-.4767.01067-.2281.00563-.4564.00893-.6843.01982-.0949.00453-.1889.02596-.2833.03988-.2712.04001-.542.08365-.8138.11896-.1834.02383-.3684.03575-.5526.05345-.0657.00632-.1345.00373-.1964.02299-.1805.05619-.3685.03001-.5507.05984-.4078.0668-.81919.10212-1.23049.13522-.21696.01746-.43789.03647-.65297.01469-.33793-.03423-.67259-.10017-.98951-.23434-.20054-.0849-.4097-.15115-.605-.2463-.23137-.11273-.45797-.23856-.61299-.45839-.0448-.06353-.10876-.10247-.1928-.10736-.05169-.00301-.10321-.02056-.15336-.03622-.21418-.06687-.42833-.13394-.64151-.20391-.17677-.05802-.32114-.16764-.4525-.29602-.09477-.09262-.09264-.2075-.06784-.32394.04679-.21971.09131-.44024.14859-.6573.06821-.25847.14913-.51356.224-.77028.04464-.15305.15097-.26924.23746-.39696.06649-.09819.13594-.19492.21116-.28647.05369-.06535.11411-.12746.18054-.17951.09591-.07515.19776-.14345.30124-.208.09466-.05904.19006-.12205.29357-.16068.22548-.08414.45399-.1622.68558-.22742.30472-.08581.61375-.15623.92053-.234815.07036-.01802.13843-.04498.20873-.06328.36117-.09405.72111-.19361 1.0846-.27774.36983-.0856.74217-.16151 1.11557-.23032.2917-.05377.5877-.08446.88-.1358.337-.05921.6759-.08426 1.0174-.07976.225.00296.4518-.00458.6744.02122.248.02873.4993.05551.7351.15214.1006.04124.2044.07545.3083.10804.4228.13267.7408.40972 1.0297.732075.1339.14939.2414.31417.3413.48615.0543.09366.0785.19402.0924.30065.044.33763.0976.67406.1393 1.01196.0223.18041.026.36304.0413.54439.0209.24707.0438.49398.0678.74077.0138.14137.0319.28231.0468.42357.0016.01504-.0053.03099-.0086.04853z" fill="#d90118"/><path d="m7.52442 5.20911c.07782 0 .15552-.00251.23302.00043.34873.01324.69498-.00887 1.03595-.0837.18035-.03959.35514-.10811.53665-.13809.32682-.05398.64769-.12993.96866-.20983.1691-.0421.3448-.05828.5182-.08216.2319-.03197.4644-.06007.6966-.08982.1903-.02437.3799-.05952.571-.07061.2973-.01726.5956-.02735.8933-.02347.314.00409.6276.00963.9411-.01181.3875-.0265.7642.03431 1.1376.1327.1787.04709.3621.07613.5419.11966.0923.02235.1871.04723.2706.09058.2799.14528.573.25348.872.35217.1965.06488.3824.16241.5726.24622.0072.00318.0103.01581.026.04169-.0425.00179-.076.01015-.106.00338-.2607-.05868-.5201-.12272-.7811-.1797-.1675-.03656-.3364-.06726-.5056-.09457-.228-.0368-.4561-.07656-.6857-.09896-.2564-.02501-.5145-.0339-.772-.0462-.1917-.00915-.3837-.0105-.5755-.01897-.3584-.01583-.7143.01542-1.07.05248-.0132.00137-.0264.00457-.0395.00396-.3055-.01414-.6074.0297-.9095.06246-.1569.01701-.3104.06391-.4671.08484-.2845.03802-.5705.06562-.8556.09973-.1706.02042-.3406.04626-.5111.0673-.21286.02624-.42562.05396-.63908.07371-.18416.01704-.36919.03148-.55398.03333-.27962.0028-.55068-.05984-.82175-.12324-.1679-.03927-.33525-.07484-.48644-.16204-.01111-.00641-.02293-.01159-.03396-.01812-.00164-.00097-.00071-.0063-.00127-.01335z" fill="#d90118"/><path d="m11.2671 7.6787c-.2829.01296-.5658.03469-.8489.03661-.3405.00231-.68122-.02231-1.02153-.01652-.31325.00533-.62669.02872-.9389.05687-.25571.02305-.51001.06292-.76429.09981-.05439.00789-.10784.03099-.15851.05413-.10938.04994-.21851.02816-.31427-.07056.12226-.18407.24864-.36584.44641-.47925.07672-.044.15979-.07835.24273-.1098.31308-.1187.63686-.18026.97033-.22108.3001-.03674.59782-.05253.89846-.04863.27577.00358.52377.09547.75407.2393.1289.08043.25.17324.3796.25228.0899.0548.1882.09566.2828.14269.0255.01264.051.02507.0765.0376-.0015.00886-.003.01769-.0045.02655z" fill="#178320"/><path d="m12.3567 9.09357c-.1819-.02511-.3152.04625-.4496.10604-.3393.15089-.6919.14712-1.0494.10264-.0581-.00723-.1161-.01521-.1809-.02374.0487-.08713.0994-.16607.1387-.25029.1261-.26974.1345-.55504.0965-.8436-.0161-.12237-.0955-.21263-.1938-.30311.1874-.01205.3596-.02683.5322-.03299.1245-.00445.2497-.00109.3741.00651.0425.0026.0909.01943.1241.04557.1658.13022.2974.28512.3674.49097.0612.17999.1421.35323.2098.53116.0177.04649.0186.09936.0309.17084z" fill="#fff"/><path d="m16.5631 8.32007c-.2362-.12057-.4733-.23929-.7082-.36233-.1651-.0865-.3322-.15587-.5237-.16344-.366-.01447-.7317-.03869-1.0976-.05934-.0083-.00047-.0164-.00662-.0354-.01474.1954-.13617.3757-.27736.6222-.28181.1749-.00315.3505-.02909.5242-.01881.203.01201.4055.04563.6057.08351.0856.01622.1577.06895.2132.14952.1195.17351.254.33663.3776.50751.028.03881.0364.09188.0538.13839z" fill="#178320"/><path d="m15.3785 9.21792c.3433-.43137.271-.8352-.0162-1.24572.1436.01564.2665.05736.3763.12856.1946.12616.4044.21914.6188.30407.0303.012.0599.02642.0882.04264.0717.04119.0834.08971.0274.14877-.1225.12923-.2439.26041-.3759.37968-.1403.12692-.3151.1868-.5014.21263-.0648.00898-.1296.01754-.2172.02937z" fill="#fff"/><path d="m9.02361.570594c-.05987.02373-.10339.04605-.14958.05841-.19732.05277-.39596.1006-.5931.15401-.24183.06552-.48247.13544-.72397.20221-.13011.035976-.26072.070246-.39174.102766-.01564.00388-.04264-.00287-.05089-.01436-.00808-.01127-.0059-.04095.00379-.0521.05989-.068915.11299-.150866.18753-.198396.13852-.08832.28447-.17153.43793-.22811.16868-.06219.34735-.10462.5253-.13216.16557-.02563.33584-.02421.50418-.02717.09512-.00167.17898.03379.25055.1349z" fill="#d90118"/><g fill="#fff"><path d="m8.91306 7.8822c-.16177.18486-.31419.3535-.34535.58999-.00912.0015-.01888.00561-.02109.0031-.12265-.1396-.29394-.1916-.45871-.25486-.12866-.0494-.25814-.09665-.38701-.14551-.01337-.00507-.02503-.01463-.05442-.03227.42399-.09107.83534-.12111 1.26658-.16045z"/><path d="m10.1759 8.75805c-.1279-.00026-.21578-.06288-.24748-.17628-.02537-.09075.0249-.214.11798-.27092.1022-.06252.2085-.10493.3333-.05777.0932.03523.1439.09642.1433.19628-.0014.20423-.1194.30916-.3471.30869z"/><path d="m13.6384 9.16575c-.1216-.03025-.22-.0545-.3183-.07925-.0939-.02364-.1035-.05004-.0967-.14361.0148-.20054.1491-.33524.2631-.47619.0772-.09557.1879-.16415.2457-.21289-.0983.25351-.2179.56292-.0938.91194z"/><path d="m15.2599 8.58383c0 .15861-.0596.23091-.1902.23061-.1656-.00039-.2457-.06835-.2484-.21086-.0021-.11478.0856-.24684.1617-.24331.2105.00976.277.06343.2769.22356z"/><path d="m9.27764 8.28058c-.07279-.00089-.13761-.06107-.13601-.12627.00174-.07102.08111-.14766.15019-.14503.06834.0026.13918.0749.1373.14014-.00232.08084-.06171.13227-.15148.13116z"/><path d="m9.48824 8.62032c-.0009.08491-.04554.13314-.12255.13235-.07957-.00082-.13714-.05556-.13307-.12657.00361-.06308.08356-.13327.15086-.13244.06737.00083.1056.04707.10476.12666z"/><path d="m14.3333 8.28963c-.0004.06109-.0725.13935-.1292.14017-.0576.00084-.1186-.06168-.1191-.12225-.0007-.07209.0677-.15383.1274-.15219.058.0016.1213.07187.1209.13427z"/><path d="m14.3418 8.82948c.0002.08153-.0341.11821-.1096.11711-.0621-.0009-.1121-.05081-.1121-.112 0-.07148.04-.10558.1227-.10462.0796.00092.0987.0202.099.09951z"/></g><path d="m14.1155 10.0307c.1839.2099.3704.4185.5512.6319.0484.0571.0831.127.1174.1945.0139.0274.0161.0645.0129.0962-.0058.0564-.0657.0806-.1092.043-.0291-.0251-.0494-.0608-.0728-.0924-.0743-.1006-.1446-.2045-.2233-.3015-.1018-.1257-.2091-.2472-.3167-.3681-.0347-.0392-.0748-.0752-.1175-.1055-.1644-.1167-.3308-.23042-.5202-.30539-.0391-.01548-.0746-.04169-.1092-.06657-.0384-.0276-.0608-.06569-.0314-.11097.0295-.04533.0734-.04991.1228-.03093.1384.05312.2765.10706.4161.15659.2468.08756.5027.10886.7622.09262.0487-.00305.0969-.01902.1449-.03088.0568-.01404.114-.02667.1468.03928.0249.04989-.0041.10254-.091.12633-.0943.02582-.194.03872-.2919.04202-.1304.0043-.2613-.0061-.3911-.0102z" fill="#030302"/><path d="m7.14708 10.9625c-.22663.0389-.45758.0618-.67859.1216-.19855.0537-.3514.1896-.46154.3685-.01897.0308-.05299.0664-.08504.0722-.06069.0109-.10344-.0629-.07503-.1226.08237-.1732.2182-.2982.37965-.393.19112-.1122.40425-.1565.62344-.1713.13157-.0089.26342-.0158.39521-.0172.0309-.0003.07186.0174.0912.0408.04911.0596.01999.1158-.05738.1198-.04287.0023-.08595.0004-.12894.0004-.00099-.0064-.00199-.0128-.00298-.0192z" fill="#030302"/><path d="m6.94141 10.243c.03632 0 .07544-.0083.10807.0027.02626.0088.05846.0386.06267.0635.00421.0248-.01615.0649-.03827.0803-.02756.0191-.06771.026-.10284.0274-.18554.007-.36829.0216-.53541.116-.04553.0258-.09769.0285-.12712-.0291-.02362-.0462-.00293-.1143.05008-.134.10704-.0398.21651-.0754.32763-.1012.08273-.0193.16963-.0207.25467-.03.00017.0015.00034.003.00052.0044z" fill="#030302"/><path d="m6.56837 2.56675c.03949-.00402.06482-.01295.07602-.02679.0112-.01382.0168-.04591.0168-.09625v-.38776c0-.03447-.00544-.05693-.01633-.06733-.01089-.01042-.0356-.01655-.07416-.01841v-.01773h.18833l.21936.47582.21403-.47582h.18985v.01773c-.03545.00249-.05829.00892-.06856.01933-.01027.01042-.0154.03255-.0154.06642v.42459c0 .0348.00513.05711.0154.06689s.03311.01624.06856.01933v.01773h-.26725v-.01773c.03854-.00309.06257-.01001.07206-.02073s.01423-.03628.01423-.07667v-.42879l-.24466.54391h-.01305l-.24044-.52153v.38076c0 .05221.0076.08623.02285.10208.00996.01025.03218.01725.06669.02096v.01773h-.22434zm.85271.01773v-.01773c.02456-.00276.04299-.012.05528-.02771.01227-.01573.03333-.05872.06315-.12899l.199-.46878h.01902l.23801.54154c.01587.03587.02852.05806.03801.06656.00949.00852.02543.01429.04781.01738v.01773h-.24291v-.01773c.0279-.00247.04591-.00548.05398-.00904.00809-.00356.01213-.01231.01213-.02623 0-.00463-.00156-.01283-.00467-.0246s-.00747-.02415-.01307-.03714l-.03825-.09189h-.25173c-.02481.06249-.03963.10064-.04445.11441s-.00723.02467-.00723.03272c0 .0161.00653.02724.01958.03342.00807.00371.02327.00649.04561.00834v.01773zm.4114-.24534-.10949-.26307-.10997.26307zm.28162.22901c.03887-.00311.06296-.01003.07229-.02079.00933-.01073.014-.03636.014-.07684v-.41438c0-.03455-.00521-.05691-.01563-.06702-.01042-.01013-.03399-.01643-.07066-.01892v-.01773h.27192v.01773c-.03731.00187-.06142.00807-.07229.01865-.01089.01056-.01633.03294-.01633.06712v.19578c.05884-.05014.10692-.09282.14429-.12802.06692-.06358.10039-.10437.10039-.12236 0-.01272-.0057-.0211-.01705-.02512s-.02747-.00605-.04832-.00605v-.01773h.25028v.01773c-.03053.00301-.0546.00889-.07217.01764-.01762.00875-.04198.0279-.07313.05746l-.18642.17283.22747.24579c.04143.04418.06961.07175.08456.08269.01495.01099.0369.01816.06587.02154v.01633h-.29218v-.01633c.02642-.00093.04431-.00303.05364-.0063s.01402-.00974.01402-.0194c0-.00529-.00305-.0134-.00912-.0243s-.01563-.02353-.0287-.03786l-.18397-.19877-.02946.02732v.17289c0 .0355.00537.05802.0161.06751.01073.00951.03412.01581.07019.01892v.01633h-.26958zm.68332-.0014c.03513-.00369.0579-.00996.06832-.01878.01042-.00881.01563-.03115.01563-.06704v-.4249c0-.03389-.00513-.05606-.0154-.06648-.01027-.0104-.03311-.01686-.06856-.01935v-.01773h.50748l.00327.13667h-.02427c-.00809-.0421-.02022-.06934-.03638-.08172-.01618-.01237-.05224-.01857-.1082-.01857h-.13006c-.01404 0-.02269.00226-.02596.00677-.00329.00451-.00492.01299-.00492.02541v.21316h.1474c.04073 0 .06669-.00603.07789-.01808.0112-.01207.0202-.03651.02705-.07332h.0224v.22061h-.0224c-.00716-.037-.01631-.06148-.02751-.07346-.0112-.01196-.037-.01797-.07742-.01797h-.1474v.23649c0 .01896.00601.03016.01799.03358.012.00342.04789.00513.10768.00513.06477 0 .11258-.00708.1434-.02123.03084-.01414.05852-.04841.0831-.10284h.02658l-.04338.16138h-.51632zm.8223 0c.03949-.00402.06482-.01295.07602-.02679.0112-.01382.0168-.04591.0168-.09625v-.38776c0-.03447-.00544-.05693-.01633-.06733-.01089-.01042-.0356-.01655-.07416-.01841v-.01773h.18833l.21932.47582.2141-.47582h.1898v.01773c-.0354.00249-.0583.00892-.0685.01933-.0103.01042-.0154.03255-.0154.06642v.42459c0 .0348.0051.05711.0154.06689.0102.00978.0331.01624.0685.01933v.01773h-.2672v-.01773c.0385-.00309.0625-.01001.072-.02073s.0143-.03628.0143-.07667v-.42879l-.2447.54391h-.01305l-.24044-.52153v.38076c0 .05221.0076.08623.02285.10208.00996.01025.03218.01725.06669.02096v.01773h-.22434zm.84938 0c.0351-.00369.0579-.00996.0683-.01878.0104-.00881.0156-.03115.0156-.06704v-.4249c0-.03389-.0051-.05606-.0154-.06648-.0102-.0104-.0331-.01686-.0685-.01935v-.01773h.5075l.0032.13667h-.0242c-.0081-.0421-.0203-.06934-.0364-.08172-.0162-.01237-.0523-.01857-.1082-.01857h-.1301c-.014 0-.0227.00226-.0259.00677-.0033.00451-.005.01299-.005.02541v.21316h.1474c.0408 0 .0667-.00603.0779-.01808.0112-.01207.0202-.03651.0271-.07332h.0224v.22061h-.0224c-.0072-.037-.0163-.06148-.0275-.07346-.0112-.01196-.037-.01797-.0775-.01797h-.1474v.23649c0 .01896.0061.03016.018.03358.012.00342.0479.00513.1077.00513.0648 0 .1126-.00708.1434-.02123.0309-.01414.0585-.04841.0831-.10284h.0266l-.0434.16138h-.5163zm.5835 0c.0395-.00402.0648-.01295.076-.02679.0112-.01382.0168-.04591.0168-.09625v-.38776c0-.03447-.0054-.05693-.0163-.06733-.0109-.01042-.0356-.01655-.0742-.01841v-.01773h.1883l.2194.47582.214-.47582h.1899v.01773c-.0355.00249-.0583.00892-.0686.01933-.0102.01042-.0154.03255-.0154.06642v.42459c0 .0348.0052.05711.0154.06689.0103.00978.0331.01624.0686.01933v.01773h-.2673v-.01773c.0386-.00309.0626-.01001.0721-.02073s.0142-.03628.0142-.07667v-.42879l-.2446.54391h-.0131l-.2404-.52153v.38076c0 .05221.0076.08623.0228.10208.01.01025.0322.01725.0667.02096v.01773h-.2243zm.8493 0c.0352-.00369.0579-.00996.0684-.01878.0104-.00881.0156-.03115.0156-.06704v-.4249c0-.03389-.0051-.05606-.0154-.06648-.0103-.0104-.0331-.01686-.0686-.01935v-.01773h.5075l.0033.13667h-.0243c-.0081-.0421-.0202-.06934-.0364-.08172-.0162-.01237-.0522-.01857-.1082-.01857h-.13c-.0141 0-.0227.00226-.026.00677s-.0049.01299-.0049.02541v.21316h.1474c.0407 0 .0667-.00603.0779-.01808.0112-.01207.0202-.03651.027-.07332h.0224v.22061h-.0224c-.0071-.037-.0163-.06148-.0275-.07346-.0112-.01196-.037-.01797-.0774-.01797h-.1474v.23649c0 .01896.006.03016.018.03358s.0479.00513.1077.00513c.0647 0 .1125-.00708.1434-.02123.0308-.01414.0585-.04841.0831-.10284h.0265l-.0433.16138h-.5164zm1.0327-.61008c.0364.01027.0567.0154.0611.0154.009 0 .0176-.00249.0257-.00747.008-.00498.0136-.01275.0168-.02333h.02l.0089.21456h-.022c-.0127-.0426-.0293-.07696-.0498-.10307-.0392-.04913-.0919-.07371-.1582-.07371-.0668 0-.1215.02644-.1639.07931-.0425.05287-.0637.12562-.0637.21827 0 .0852.0223.15323.0669.20406.0447.05084.1012.07628.1696.07628.0494 0 .095-.01182.1367-.03545.0239-.01338.0502-.0336.0788-.06064l.0177.01773c-.0211.02673-.0474.0502-.0788.07042-.0535.0342-.1115.05131-.174.05131-.1026 0-.1841-.0328-.2444-.09842-.0557-.06064-.0835-.13636-.0835-.22716 0-.09296.0294-.17101.0882-.23414.0618-.06622.1424-.09936.2416-.09936.0345 0 .0699.00514.1063.01541zm.3018.06669c.0588-.05627.131-.08442.2169-.08442.0861 0 .1585.02831.2173.08489.0638.06127.0956.14289.0956.24489 0 .10354-.0329.18594-.0988.2472-.0591.05473-.1305.08209-.2141.08209-.0896 0-.1639-.03033-.223-.09096-.06-.06187-.09-.14133-.09-.23834 0-.102.032-.18377.0961-.24535zm.0714.46806c.0395.04804.0881.07208.1457.07208.0564 0 .1045-.02341.1445-.07021s.06-.12166.06-.22457c0-.10418-.0202-.17942-.0607-.22576-.0405-.04633-.0884-.06949-.1438-.06949-.0573 0-.1058.02401-.1455.07206-.0397.04804-.0595.12244-.0595.22319 0 .10043.0198.17465.0593.2227zm.5093.07532c.0389-.00278.064-.00857.0755-.01738s.0173-.03163.0173-.06844v-.4249c0-.03513-.0058-.05777-.0173-.06788-.0115-.01009-.0366-.01608-.0755-.01795v-.01773h.2826v.01773c-.0388.00187-.064.00786-.0755.01795-.0115.01011-.0173.03274-.0173.06788v.4249c0 .03681.0058.05963.0173.06844s.0367.0146.0755.01738v.01773h-.2826zm.3134 0c.0395-.00402.0648-.01295.076-.02679.0112-.01382.0168-.04591.0168-.09625v-.42085l-.013-.01538c-.014-.01645-.0259-.02664-.0357-.03051-.0098-.00389-.0245-.00614-.0441-.00677v-.01773h.163l.3687.45704v-.31743c0-.05221-.0077-.08619-.0233-.10196-.0102-.01019-.033-.01682-.0681-.01991v-.01773h.2244v.01773c-.0364.00373-.0607.01258-.0728.02658s-.0182.04602-.0182.09609v.50281h-.0163l-.4226-.52381v.37186c0 .05221.0076.08621.0229.10206.0099.01025.0321.01725.0667.02096v.01773h-.2244zm.7407-.17443c.0162.04291.0351.07711.0568.1026.0379.04447.0849.06671.1411.06671.0305 0 .0568-.00964.079-.02893.0222-.01927.0333-.04618.0333-.08069 0-.03109-.0112-.05814-.0335-.08116-.0146-.0146-.0454-.03653-.0922-.06576l-.0815-.05084c-.0245-.01555-.0441-.03125-.0587-.04711-.0271-.03016-.0406-.06342-.0406-.09982 0-.04818.016-.08829.0481-.12034.032-.03202.0744-.04804.1273-.04804.0218 0 .048.00537.0786.0161s.0481.0161.0525.0161c.0118 0 .0199-.0028.0245-.0084.0045-.0056.008-.01353.0104-.0238h.0197l.0209.20338h-.0228c-.0156-.06127-.0405-.10402-.0749-.12827-.0344-.02427-.0683-.03638-.1019-.03638-.0261 0-.0489.00768-.0683.02308-.0195.0154-.0292.03677-.0292.06412 0 .02458.0075.04556.0224.06298.0148.01773.038.03622.0694.05551l.0839.05176c.0525.03235.0895.06204.111.08909.0213.02738.0319.05971.0319.09702 0 .05007-.0189.09189-.0567.12547s-.0861.05038-.1448.05038c-.0296 0-.0604-.0056-.0926-.0168s-.0506-.01678-.0553-.01678c-.0112 0-.0187.00342-.0226.01025-.0039.00684-.0064.01415-.0077.02193h-.021l-.0284-.20336zm-6.62184.61959c.03576.01027.05627.0154.06156.0154.01369 0 .02341-.00264.02917-.00793.00574-.00529.01064-.01291.01468-.02287h.021l.00747.20105h-.02193c-.01958-.04633-.0398-.08085-.06062-.10356-.03764-.0398-.0866-.05971-.14693-.05971-.06127 0-.11512.02325-.16161.06974s-.06972.12306-.06972.22971c0 .088.02316.15673.06949.20616.04633.04944.10356.07418.17165.07418.01149 0 .02502-.00109.04058-.00327s.03031-.00558.04431-.01025c.02269-.00743.03685-.01386.04245-.01929.0056-.00544.0084-.01344.0084-.02399v-.15216c0-.0369-.00521-.05989-.01563-.06895s-.03319-.0147-.06832-.01688v-.01773h.24347v.01773c-.02364.00156-.03933.00544-.04711.01165-.01307.00996-.01958.03049-.01958.06158v.18796c0 .0112-.02745.02613-.08234.04478-.05487.01867-.10766.028-.15835.028-.09327 0-.17196-.02722-.23601-.08162-.0706-.06002-.10589-.14056-.10589-.24162 0-.08892.02815-.16511.08442-.22854.06189-.06996.14398-.10496.24629-.10496.037 0 .07334.00512.1091.01539zm.23787.61008c.03669-.0034.05954-.01052.06856-.02135s.01353-.03605.01353-.07565v-.41372c0-.0336-.00506-.05559-.01517-.06601-.01011-.0104-.03241-.01701-.06692-.01981v-.01773h.26445c.05504 0 .10091.007.1376.02096.06965.0264.10449.07499.10449.14579 0 .0475-.01548.084-.04641.10945-.03095.02547-.07301.04223-.12617.0503l.19683.24244c.01213.01482.02425.02561.03638.03239s.02767.0111.04664.01295v.01773h-.15386l-.23894-.29432-.04192.00233v.18827c0 .03533.00537.05771.0161.06716s.03412.01573.07019.01882v.01773h-.26538zm.3265-.33116c.05067-.02079.07602-.05989.07602-.11732 0-.05524-.02269-.09294-.06809-.11312-.02427-.01085-.05644-.01629-.09656-.01629-.02705 0-.04361.00194-.04968.00583-.00607.00387-.0091.01295-.0091.02722v.23515c.06873-.00249.11786-.00964.14741-.02147zm.31065.33116c.03513-.00369.0579-.00996.06832-.01878.01042-.00881.01563-.03115.01563-.06704v-.4249c0-.03389-.00513-.05606-.0154-.06648-.01027-.0104-.03311-.01686-.06856-.01935v-.01773h.50748l.00327.13667h-.02427c-.00809-.0421-.02022-.06934-.03638-.08172-.01618-.01237-.05224-.01857-.1082-.01857h-.13006c-.01404 0-.02269.00226-.02596.00677-.00329.00451-.00492.01299-.00492.02541v.21316h.1474c.04073 0 .06669-.00603.07789-.01808.0112-.01207.0202-.03651.02705-.07332h.0224v.22061h-.0224c-.00716-.037-.01631-.06148-.02751-.07346-.0112-.01196-.037-.01797-.07742-.01797h-.1474v.23649c0 .01896.00601.03016.01799.03358.012.00342.04789.00513.10768.00513.06477 0 .11258-.00708.1434-.02123.03084-.01414.05852-.04841.0831-.10284h.02658l-.04338.16138h-.51632zm.58684.01773v-.01773c.02456-.00276.04299-.012.05528-.02771.01227-.01573.03333-.05872.06315-.12899l.19895-.46878h.0191l.238.54154c.0158.03587.0285.05806.038.06656.0095.00852.0254.01429.0478.01738v.01773h-.2429v-.01773c.0279-.00247.0459-.00548.054-.00904s.0121-.01231.0121-.02623c0-.00463-.0016-.01283-.0047-.0246s-.0074-.02415-.013-.03714l-.0383-.09189h-.25172c-.02481.06249-.03963.10064-.04445.11441s-.00723.02467-.00723.03272c0 .0161.00653.02724.01958.03342.00807.00371.02327.00649.04561.00834v.01773zm.41138-.24534-.1095-.26307-.10994.26307zm.1772-.38667h.5401l.0051.16231h-.0229c-.0112-.05098-.0254-.08419-.0426-.09957-.0173-.0154-.0536-.0231-.1089-.0231h-.0532v.48881c0 .03681.0057.05963.0173.06844.0114.00881.0366.0146.0755.01738v.01773h-.2785v-.01773c.0405-.00309.0657-.00974.0756-.01995.01-.01021.0149-.03589.0149-.07705v-.47763h-.0536c-.0529 0-.0888.00762-.108.02287-.0191.01522-.0335.04849-.0431.0998h-.0233zm.7487.63201v-.01773c.0245-.00276.0429-.012.0552-.02771.0123-.01573.0334-.05872.0632-.12899l.199-.46878h.019l.238.54154c.0159.03587.0285.05806.038.06656.0095.00852.0255.01429.0478.01738v.01773h-.2429v-.01773c.0279-.00247.0459-.00548.054-.00904s.0121-.01231.0121-.02623c0-.00463-.0015-.01283-.0046-.0246s-.0075-.02415-.0131-.03714l-.0383-.09189h-.2517c-.0248.06249-.0396.10064-.0444.11441-.0049.01377-.0073.02467-.0073.03272 0 .0161.0066.02724.0196.03342.0081.00371.0233.00649.0456.00834v.01773zm.4114-.24534-.1095-.26307-.11.26307zm.727-.38247c.0358.01027.0563.0154.0616.0154.0137 0 .0234-.00264.0292-.00793.0057-.00529.0106-.01291.0146-.02287h.021l.0075.20105h-.0219c-.0196-.04633-.0398-.08085-.0606-.10356-.0377-.0398-.0866-.05971-.147-.05971-.0612 0-.1151.02325-.1616.06974s-.0697.12306-.0697.22971c0 .088.0232.15673.0695.20616.0463.04944.1035.07418.1716.07418.0115 0 .0251-.00109.0406-.00327.0156-.00218.0303-.00558.0443-.01025.0227-.00743.0369-.01386.0425-.01929.0056-.00544.0084-.01344.0084-.02399v-.15216c0-.0369-.0052-.05989-.0157-.06895-.0104-.00906-.0331-.0147-.0683-.01688v-.01773h.2435v.01773c-.0236.00156-.0393.00544-.0471.01165-.0131.00996-.0196.03049-.0196.06158v.18796c0 .0112-.0274.02613-.0823.04478-.0549.01867-.1077.028-.1584.028-.0933 0-.1719-.02722-.236-.08162-.0706-.06002-.1059-.14056-.1059-.24162 0-.08892.0282-.16511.0844-.22854.0619-.06996.144-.10496.2463-.10496.037 0 .0734.00512.1091.01539zm.2412.62781v-.01773c.0246-.00276.043-.012.0553-.02771.0123-.01573.0334-.05872.0632-.12899l.199-.46878h.019l.238.54154c.0159.03587.0285.05806.038.06656.0095.00852.0254.01429.0478.01738v.01773h-.2429v-.01773c.0279-.00247.0459-.00548.054-.00904s.0121-.01231.0121-.02623c0-.00463-.0015-.01283-.0046-.0246s-.0075-.02415-.0131-.03714l-.0383-.09189h-.2517c-.0248.06249-.0396.10064-.0444.11441-.0049.01377-.0073.02467-.0073.03272 0 .0161.0066.02724.0196.03342.0081.00371.0233.00649.0456.00834v.01773zm.4114-.24534-.1094-.26307-.11.26307zm.2798.22761c.0389-.00278.0641-.00857.0756-.01738s.0172-.03163.0172-.06844v-.4249c0-.03513-.0057-.05777-.0172-.06788-.0115-.01009-.0367-.01608-.0756-.01795v-.01773h.2827v.01773c-.0389.00187-.0641.00786-.0756.01795-.0115.01011-.0173.03274-.0173.06788v.4249c0 .03681.0058.05963.0173.06844s.0367.0146.0756.01738v.01773h-.2827zm.3134 0c.0395-.00402.0649-.01295.0761-.02679.0112-.01382.0168-.04591.0168-.09625v-.42085l-.0131-.01538c-.014-.01645-.0259-.02664-.0357-.03051-.0098-.00389-.0245-.00614-.0441-.00677v-.01773h.163l.3688.45704v-.31743c0-.05221-.0078-.08619-.0234-.10196-.0102-.01019-.0329-.01682-.0681-.01991v-.01773h.2244v.01773c-.0364.00373-.0606.01258-.0728.02658-.0121.014-.0182.04602-.0182.09609v.50281h-.0163l-.4226-.52381v.37186c0 .05221.0076.08621.0229.10206.0099.01025.0322.01725.0667.02096v.01773h-.2244z" fill="#fff"/></g></svg>