<svg fill="#5e934b" viewBox="0 0 1000 1000" xmlns="http://www.w3.org/2000/svg"><path d="m534.604 361.484c1.2.702 2.4 1.405 3.6 2.108-1.106.068-2.203.139-3.288.208-7.109.455-13.822.886-20.579.671-9.717-.309-19.672-.569-29.763-.569-16.902 0-34.191.73-51.417 3.184l-1.094.156c-6.783.962-13.796 1.957-20.27 4.436-3.103 1.188-5.076.827-7.789-.62 5.514-9.278 12.308-14.871 22.345-18.496 18.333-6.621 38.317-9.493 64.821-9.293 9.198.068 18.091 2.935 27.988 9.022 5.111 3.144 10.365 6.218 15.447 9.192zm187.341 44.509c2.319-2.492 4.79-5.242 7.778-8.655.777-.887.868-1.388.85-1.474-.014-.067-.266-.426-1.169-.846-1.353-.63-2.784-1.221-4.167-1.792-1.809-.747-3.679-1.52-5.495-2.423-2.359-1.174-4.705-2.431-6.974-3.647-2.849-1.527-5.795-3.106-8.736-4.499-2.409-1.142-4.982-2.131-7.504-3.078 8.103 13.398 8.31 26.042.63 38.42 10.179-.982 18.141-4.859 24.786-12.005zm-291.41-23.433c5.724 1.912 11.616 3.88 16.489 7.716l8.858-14.812-33.663 4.059c2.705 1.162 5.54 2.109 8.315 3.036zm96.87-130.493c.529 2.058 1.128 2.969 2.562 3.9 2.653 1.723 5.283 3.547 7.826 5.31 3.859 2.676 7.849 5.444 11.911 7.845 1.117.659 3.576.704 6.118.109 2.914-.681 5.869-1.61 8.727-2.509 2.965-.932 6.03-1.897 9.145-2.621 23.793-5.533 47.336-4.766 69.975 2.277 4.976 1.548 9.838 3.244 14.986 5.04.667.232 1.337.466 2.011.701-.395-.824-.807-1.605-1.267-2.324-1.968-3.074-3.922-6.158-5.875-9.243-6.577-10.382-13.377-21.118-20.624-31.234-2.706-3.777-6.903-6.847-10.962-9.816-1.016-.743-2.028-1.482-3.015-2.231-1.345-1.019-2.994-1.772-4.74-2.569-1.434-.654-2.916-1.331-4.329-2.204-7.491-4.629-15.797-6.891-25.333-6.891-.741 0-1.491.013-2.247.041-3.593.128-7.198-.067-10.686-.257-2.499-.136-5.083-.277-7.594-.291-9.283-.055-17.174 2.947-24.202 9.167-5.734 5.074-12.052 9.698-18.025 13.939-1.641 1.165-1.775 1.26-.798 3.641 2.93 7.142 4.978 14.556 6.435 20.217zm190.889 278.921c-11.471 8.88-25.044 10.352-37.02 11.65-9.26 1.004-18.187 1.478-26.516 1.398-7.792-.071-15.674-.601-23.297-1.113-2.635-.177-5.269-.355-7.904-.514-3.769-.227-7.54-.444-11.31-.66-11.126-.639-22.631-1.299-33.937-2.255-10.547-.891-24.433-2.194-38.311-4.38-19.661-3.097-39.043-6.732-57.788-10.248l-4.683-.876c-12.839-2.396-26.116-4.875-39.017-8.087-8.133-2.025-16.232-4.596-24.065-7.083-4.83-1.534-9.825-3.119-14.756-4.553-5.981-1.74-11.982-3.142-17.836-4.167-2.241-.392-4.311.369-5.835 2.142-2.024 2.356-2.579 5.904-1.449 9.261.896 2.662 2.357 5 3.909 6.252 9.733 7.857 21.59 16.597 35.731 21.844 1.86.69 3.522 1.679 5.129 2.634.9.535 1.749 1.04 2.615 1.485l5.361 2.757c10.248 5.271 20.845 10.722 31.302 16.003 2.854 1.441 5.808 2.841 8.664 4.194 4.475 2.121 9.103 4.313 13.539 6.755 9.259 5.095 19.519 7.038 30.095 8.732 8.145 1.305 16.389 2.79 24.361 4.225 3.809.686 7.618 1.372 11.429 2.041.469.082.938.173 1.407.263 1.345.259 2.616.504 3.836.547 4.568.164 9.208.368 13.696.565 11.522.508 23.438 1.035 35.115.91 10.225-.107 20.645-.679 30.72-1.233 7.391-.406 15.034-.826 22.569-1.061 2.2-.069 4.437-.104 6.721-.104 6.18 0 12.706.253 19.767.763 16.436 1.191 29.415-4.932 39.668-18.713 1.773-2.383 3.663-4.707 5.491-6.955 1.12-1.378 2.241-2.756 3.338-4.15 3.397-4.32 3.78-9.889 1.17-14.462-.658.478-1.314.945-1.959 1.405-2.786 1.984-5.419 3.858-7.467 6.146-7.521 8.401-17.392 12.523-31.066 12.974-4.384.145-8.856.432-13.182.71-5.073.325-10.32.662-15.51.777-3.665.087-7.352-.116-10.917-.308-3.459-.185-7.034-.375-10.503-.303-24.808.538-46.982-.574-67.786-3.391-9.429-1.276-18.603-3.431-28.759-5.907-11.842-2.888-24.26-3.227-35.217-3.526-7.958-.218-14.867-.7-21.12-1.474-15.201-1.883-29.584-7.083-43.494-12.113-2.58-.932-5.16-1.866-7.746-2.778-5.034-1.778-10.305-3.27-15.401-4.715-2.183-.618-4.365-1.237-6.539-1.879-8.548-2.522-14.983-7.972-20.842-13.339-1.337-1.224-1.562-3.043-1.743-4.504-.062-.497-.12-.966-.207-1.325-.175-.718-.013-1.477.439-2.062s1.145-.933 1.884-.945c.473-.007.951-.041 1.428-.073 1.293-.089 2.759-.185 4.232.139 1.822.402 3.254 1.669 4.453 2.729 6.667 5.898 15.148 8.449 23.35 10.916 6.031 1.814 12.032 3.989 17.836 6.092 7.393 2.68 15.037 5.449 22.691 7.444 13.894 3.62 25.944 5.541 36.839 5.868 17.927.542 34.565 2.554 50.866 6.153 14.845 3.279 30.128 4.756 44.509 5.987 5.71.491 11.629.397 17.353.31 5.27-.08 10.719-.165 16.097.193 20.424 1.362 40.707.21 60.323-.907 7.871-.448 13.265-2.726 17.493-7.383 1.512-1.666 3.252-3.026 4.935-4.342 1.238-.968 2.407-1.881 3.459-2.887 3.873-3.699 7.832-7.707 11.768-11.913 2.251-2.406 4.461-4.958 6.598-7.426 1.169-1.349 2.337-2.699 3.52-4.035.542-.611 1.109-1.203 1.676-1.794.839-.875 1.632-1.702 2.318-2.577 6.601-8.421 7.016-16.015 1.2-23.648-.462 1.167-.918 2.337-1.366 3.489-2.172 5.578-4.417 11.345-7.336 16.774-5.603 10.421-11.646 17.933-19.018 23.641zm-187.174-109.279c11.203 1.628 21.09 1.221 30.225-1.244 2.437-.657 4.791-1.664 7.283-2.729 1.598-.684 3.252-1.39 4.94-2.002 2.401-.869 4.584-1.59 6.91-1.59.055 0 .11 0 .165.001.781.008 1.136-.12 1.268-.186-.002-.107-.029-.339-.192-.713-1.536-3.543-2.82-7.232-4.061-10.799-3.396-9.757-6.603-18.973-14.664-25.815-3.559-3.021-7.428-2.978-11.908-2.927h-.082c-5.598.063-11.318.431-16.85.786-1.358.087-2.715.174-4.053.255.44.969.944 1.94 1.477 2.965 1.465 2.822 2.979 5.739 3.316 8.975 1.455 13.961-.898 25.285-7.191 34.535 1.149.162 2.282.323 3.415.487zm37.879-86.777c-3.55-3.536-7.214-5.295-11.203-5.376-4.087-.083-8.188-.107-12.38-.107-2.13 0-4.283.006-6.469.014 8.769 3.684 16.801 9.461 24.401 17.529 5.167 5.484 10.874 10.695 16.394 15.734 3.564 3.254 7.25 6.619 10.781 10.047 2.13 2.068 4.082 4.317 5.958 6.552-.096-4.245-.222-8.601-.72-12.796-.478-4.026-2.663-7.829-6.681-11.627-4.68-4.422-9.27-9.066-13.709-13.557-2.119-2.143-4.238-4.287-6.372-6.414zm-4.998 357.348c-3.316-3.395-6.125-8.466-7.911-14.28-1.999-6.515-.419-12.81 4.45-17.726 9.2-9.289 19.945-11.805 30.25-7.079 2.174.996 4.015 2.504 5.639 3.833.199.163.394.323.586.479 1.486-.97 2.984-1.922 4.445-2.85 4.25-2.7 8.645-5.492 12.56-8.633 3.821-3.064 7.552-6.435 11.16-9.694 4.672-4.221 9.503-8.585 14.668-12.422 7.249-5.385 15.379-10.071 24.165-13.928 12.228-5.367 22.713-3.833 31.16 4.559.302.3.612.613.929.932 2.187 2.205 5.489 5.52 7.401 5.459 1.059-.041 3.49-3.368 4.659-4.966.67-.915 1.362-1.862 2.044-2.692 6.02-7.321 8.622-14.93 7.954-23.261-.029-.353-.078-.713-.143-1.097-.097.068-.191.135-.28.204-11.663 8.951-24.08 12.631-37.96 11.243-15.556-1.554-30.672-.504-48.816 1.032-20.276 1.714-40.627.341-58.583-.871-1.436-.097-2.721-.154-3.927-.178-2.043-.04-4.083-.043-6.122-.047-9.082-.018-18.474-.036-27.824-3.277-6.323-2.192-13.562-2.618-20.563-3.03l-1.123-.066c-17.796-1.059-32.756-7.888-50.465-16.707-7.228-3.6-14.651-7.135-21.829-10.554-3.031-1.444-6.062-2.887-9.088-4.339-.424-.203-.86-.385-1.295-.567-.691-.289-1.405-.588-2.125-.975-3.643-1.954-7.299-3.886-10.955-5.818-9.292-4.91-18.9-9.987-28.146-15.381-6.893-4.022-13.227-9.215-18.514-13.764-4.51-3.88-7.285-9.728-7.616-16.043-.34-6.5 1.896-12.807 6.135-17.305 3.245-3.443 7.784-4.677 13.492-3.667 6.785 1.201 14.045 2.59 21.164 4.602 6.101 1.724 12.249 3.62 18.195 5.454 7.973 2.459 16.218 5.001 24.395 7.142 5.896 1.544 12.083 2.591 18.066 3.604 3.796.642 7.721 1.307 11.571 2.095 4.814.987 9.671 2.112 14.368 3.201 8.074 1.87 16.422 3.805 24.685 5.057 2.815.426 5.63.858 8.445 1.291 21.112 3.243 42.943 6.598 64.701 7.222 9.316.268 18.738 1.07 27.849 1.845 8.86.754 18.021 1.533 27.013 1.812 18.146.563 37.412.697 55.957-4.262 5.211-1.393 10.379-4.125 14.178-7.495 9.675-8.582 16.726-19.828 20.956-33.426 3.499-11.247.947-21.628-7.587-30.856-1.878-2.03-3.767-4.049-5.276-5.66l-.02-.022-1.495 1.211c-2.204 1.786-4.255 3.45-6.313 5.105-7.424 5.973-15.762 5.375-23.826 4.795-.626-.045-1.252-.09-1.876-.132-.976-.065-1.886-.605-2.704-1.605-.285-.348-1.693-2.178-1.447-4.025.274-2.046 2.514-4.263 4.611-4.562 1.658-.236 3.281-.22 4.854-.203 1.175.012 2.283.023 3.355-.068 4.745-.405 8.561-.985 11.336-3.851-2.767.004-5.425.007-8.082-.016-.435-.005-.875.002-1.316.007-1.723.023-3.506.044-5.307-.421-1.509-.39-2.523-1.504-3.338-2.398-.268-.295-.522-.573-.747-.776-.495-.447-.785-1.078-.802-1.745s.241-1.311.713-1.783c.243-.243.506-.557.783-.888.806-.964 1.809-2.163 3.31-2.694 1.735-.612 3.538-.389 5.129-.19.251.031.5.062.744.089 15.63 1.708 22.283-4.434 30.488-17.966 1.42-2.341 2.825-5.049 3.521-8.293-.065.08-.13.159-.195.239-8.209 10.193-18.761 16.239-32.258 18.484-12.725 2.116-25.456 1.503-37.767.911-3.914-.188-7.961-.383-11.932-.485-11.693-.301-21.518-1.499-30.92-3.768-6.701-1.618-10.673-4.147-12.502-7.96-1.879-3.919-1.307-8.825 1.803-15.437 2.345-4.987 5.982-9.283 9.499-13.437 1.324-1.563 2.691-3.179 3.944-4.781.768-.983 1.648-1.78 2.499-2.552.924-.837 1.796-1.628 2.274-2.459 6.414-11.141 16.641-17.828 26.531-24.294l1.674-1.096c6.533-4.286 13.516-4.796 20.692-4.969 10.17-.246 20.477.398 30.446 1.02l1.203.075c10.217.636 18.044 5.981 23.929 16.341.574 1.01 1.235 2.008 1.972 3.062.21-5.292-.617-9.926-1.62-14.206-.247-.255-.879-.671-1.198-.883l-.087-.057c-6.276-4.146-11.56-6.132-17.131-6.438-4.666-.257-9.397-.594-13.972-.92-7.05-.502-14.34-1.022-21.496-1.253-18.819-.606-35.127 6.435-48.458 20.931-.085.092-.166.202-.25.311-.464.6-1.241 1.605-2.569 1.824-1.209.201-2.372.212-3.497.224-.398.004-.796.008-1.192.021-.662.021-1.314-.229-1.789-.698-.476-.468-.738-1.111-.726-1.778.006-.312-.041-.76-.086-1.192-.15-1.45-.337-3.255.848-4.626 11.825-13.673 25.811-22.014 41.569-24.793 15.829-2.79 31.5-1.11 46.657.516 1.176.126 2.366.225 3.559.324 2.912.242 5.895.491 8.796 1.131-3.912-2.354-8.515-3.769-14.283-4.411-15.771-1.754-31.796-1.136-47.629 1.839-2.346.441-4.66 1.51-7.11 2.642-.967.447-1.933.893-2.904 1.302-.226.095-.456.2-.688.305-1.719.78-5.745 2.607-8.062-1.67-2.599-4.793 1.861-7.368 3.765-8.468l.107-.062c5.993-3.465 13.033-5.529 22.155-6.494 12.598-1.332 25.982-2.46 39.407-.579-7.159-11.381-19.855-25.461-49.857-39.117-30.817-14.026-63.65-14.988-95.169-2.834.445.495.891.985 1.331 1.47 2.705 2.975 5.503 6.052 7.682 9.554 7.574 12.169 14.045 23.434 19.784 34.439 1.349 2.587 1.328 5.55 1.307 8.415-.01 1.348-.019 2.621.114 3.789l.037.334c.137 1.232.307 2.766.795 3.401 2.142 2.788 4.672 5.435 7.118 7.996l.789.826c6.058 6.354 7.544 14.278 8.247 21.894.376 4.068.439 8.141.188 12.103-.109 1.711-.851 3.209-1.506 4.53-.254.513-.494.997-.679 1.455-.268.663-.815 1.174-1.494 1.398-.422.14-.871.159-1.296.062.097.373.195.746.293 1.119.791 3.017 1.609 6.136 2.153 9.303l.031.182c.291 1.68.73 4.219-.705 6.195-.562.774-1.65 1.757-3.639 2.043-1.642.236-3.008-.067-4.066-.9-1.708-1.346-1.912-3.521-2.061-5.109-.026-.28-.051-.556-.086-.82-1.18-9.114-5.021-16.555-11.741-22.748-9.927-9.148-19.832-18.636-29.411-27.812l-4.938-4.728c-5.693-5.448-12.802-8.178-20.327-11.068-.884-.339-1.767-.679-2.649-1.023-1.246-.487-2.505-.913-3.838-1.364-1.763-.597-3.586-1.215-5.364-1.981-10.02-4.312-20.347-3.833-31.281-3.327-3.022.14-6.146.285-9.232.317-2.788.029-5.657.183-8.433.333-5.256.283-10.693.576-16.056.058-10.458-1.015-21.181.781-32.789 5.476-3.272 1.324-6.671 3.565-9.569 6.311-6.619 6.268-12.919 12.995-18.74 19.332-1.053 1.146-1.917 3.029-2.202 4.798-.111.687.122 1.639.402 2.666 1.402-.245 2.722-.481 3.475-1.032 1.379-1.009 2.485-2.707 3.656-4.506.257-.394.512-.785.769-1.169 6.88-10.253 16.654-17.129 30.759-21.64 18.5-5.916 37.631-7.391 55.64-8.393 16.657-.928 32.048 3.705 47.064 14.161 7.728 5.381 16.497 9.563 24.822 13.28 15.6 6.966 25.537 17.656 30.377 32.68 1.825 5.666 4.148 11.327 6.394 16.8l.894 2.182c.08.098.407.425 1.546.987 4.723 2.332 7.821 6.735 8.286 11.777.445 4.815-1.619 9.313-5.661 12.34-2.331 1.745-4.785 3.334-7.159 4.87-1.853 1.199-3.769 2.439-5.574 3.723l-1.655 1.171c-3.261 2.3-6.633 4.679-9.482 7.381-3.685 3.495-7.31 7.212-10.816 10.806-2.955 3.03-6.011 6.162-9.11 9.172-7.679 7.456-17.219 11.199-26.384 14.134-4.785 1.532-9.594 3.385-14.243 5.177-4.374 1.686-8.897 3.429-13.448 4.927-3.845 1.265-7.918 1.484-11.857 1.695l-1.073.058c-1.787.108-3.019-1.182-4.003-2.213-.276-.288-.56-.586-.775-.763-.504-.416-.82-1.018-.876-1.669-.055-.651.153-1.297.579-1.793.208-.242.472-.635.728-1.015.89-1.323 1.996-2.97 3.926-3.008 7.424-.144 13.981-2.998 20.922-6.019 4.532-1.973 9.219-4.013 14.182-5.24 3.598-.89 7.119-2.163 10.09-3.29 8.24-3.129 15.854-8.69 23.963-17.501 1.948-2.117 3.877-4.253 5.97-6.57-.051-.006-.101-.012-.152-.018-3.139-.378-6.104-.735-8.985-.765-21.916-.23-43.933-2.753-65.226-5.193-2.773-.318-5.546-.635-8.32-.949-12.865-1.451-23.32-5.251-31.96-11.617-4.504-3.318-8.604-7.211-12.569-10.975-1.953-1.855-3.974-3.773-5.998-5.578-.721-.643-1.524-1.238-2.374-1.869-1.25-.927-2.543-1.886-3.695-3.091-1.083-1.134-1.632-2.536-2.115-3.773-.181-.463-.352-.901-.535-1.284-.33-.69-.316-1.495.038-2.173s1.006-1.151 1.76-1.275c.418-.069.982-.232 1.527-.39 1.805-.523 3.85-1.115 5.513.092 3.463 2.513 6.74 5.32 9.909 8.034 1.307 1.12 2.614 2.239 3.935 3.34 1.55 1.292 3.064 2.667 4.527 3.998 3.429 3.117 6.667 6.062 10.382 8.057 6.676 3.586 13.599 5.996 20.019 6.969 13.045 1.977 26.485 3.099 39.483 4.184l5.004.42c11.369.961 22.964 1.67 34.179 2.355l6.446.396c6.479.399 15.61-.598 28.845-11.971.801-.688 1.187-1.55 1.088-2.429-.097-.86-.646-1.614-1.506-2.068-.174-.092-.432-.132-.496-.137-3.485.856-6.931 1.832-9.841 2.674-1.413.409-2.492.805-3.395 1.248-20.672 10.138-42.193 7.665-60.521 3.909-9.625-1.973-19.104-4.782-27.106-7.269-10.292-3.199-20.935-6.507-31.093-10.832-5.178-2.204-9.493-6.031-14.196-10.438-4.871-4.564-10.488-7.105-15.832-9.172-6.56-2.537-13.132-5.318-19.488-8.007-3.648-1.544-7.421-3.14-11.141-4.669-.912-.374-1.847-.549-2.379-.444l-.941.188c-4.87.981-10.931 2.201-14.973-4.45-3.141-5.168-1.797-15.045 2.766-20.323 1.572-1.818 3.35-3.736 5.596-6.035 3.422-3.502 6.859-6.987 10.297-10.473 1.962-1.989 3.924-3.979 5.883-5.971 6.887-7.003 15.791-9.176 24.402-11.277 6.473-1.579 13.176-1.936 18.879-2.076 15.129-.372 30.508-.513 45.381-.649l8.454-.079c9.851-.095 19.864-.129 29.546-.161l8.042-.028c1.912-.006 3.817.008 5.725.025 3.258.028 6.629.057 9.917-.041 9.963-.293 18.436 3.385 25.872 11.251-7.791-15.817-17.363-33.816-32.316-47.626-6.756-6.239-14.45-11.672-24.215-17.098-1.989-1.105-3.889-1.769-5.496-1.919-3.734-.349-7.469-.722-11.204-1.096-11.865-1.185-24.134-2.412-36.186-2.798-12.433-.394-25.72 1.554-39.495 5.8-7.281 2.245-12.912 6.944-18.874 11.919-1.25 1.044-2.501 2.087-3.768 3.108l-.51.411c-3.096 2.496-6.297 5.077-9.785 7.214-1.613.989-3.484.472-4.987.057-.485-.134-.943-.26-1.297-.314-.694-.106-1.309-.507-1.685-1.1-.377-.593-.479-1.319-.28-1.993.091-.308.162-.724.238-1.164.233-1.351.523-3.031 1.85-4.135 6.912-5.75 14.381-11.876 22.158-17.717 10.411-7.819 22.822-9.705 33.772-11.368 21.837-3.318 43.174-1.226 61.166 1.259 1.102.152 2.224.228 3.412.308 1.394.095 2.835.192 4.287.423.107.017.2.029.283.036-.015-.086-.035-.184-.063-.295-.832-3.337-1.757-6.861-3.102-10.038-10.149-23.966-28.393-36.935-54.222-38.545-12.372-.771-25.029-.853-37.27-.932l-2.973-.019c-12.619-.112-23.493 4.768-32.478 9.528-15.721 8.328-24.539 22.487-31.092 35.239-4.854 9.445-11.589 17.225-18.102 24.747-1.422 1.642-2.845 3.286-4.252 4.949-2.6 3.075-5.302 6.144-7.914 9.112-5.741 6.522-11.678 13.267-16.781 20.356-8.146 11.317-15.398 23.698-22.128 35.41-8.828 15.363-17.115 31.001-24.058 44.271l-2.174 4.153c-8.122 15.514-16.521 31.555-24.049 47.645-.611 1.305-1.225 2.608-1.839 3.913-5.592 11.874-11.375 24.152-14.342 37.215-.913 4.019-2.286 7.931-3.614 11.714-1.263 3.599-2.57 7.321-3.422 11.012-1.696 7.348-2.883 14.992-4.03 22.384-.335 2.156-.669 4.312-1.016 6.464l-.596 3.692c-1.889 11.699-3.843 23.797-5.504 35.719-1.063 7.626-1.919 15.43-2.747 22.977-.33 3.011-.66 6.022-1.004 9.032-.512 4.479-.993 9.044-1.458 13.458-1.019 9.668-2.073 19.665-3.521 29.464-2.11 14.271.477 27.73 3.287 39.014 2.054 8.249 5.145 16.787 9.451 26.099 6.918 14.963 18.142 26.595 33.362 34.572 18.861 9.885 35.014 17.478 52.544 22.4 19.961 5.605 37.93 8.978 54.934 10.312 7.939.623 16.044 1.051 23.881 1.464 2.504.132 5.008.265 7.512.403 2.442.135 4.916.316 7.309.49 5.871.429 11.941.874 17.821.656 8.026-.295 16.203-1.034 24.111-1.748 4.188-.378 8.518-.77 12.789-1.092l.297-.023c6.277-.474 12.767-.964 19.193-1.061 3.063-.046 6.151-.061 9.22-.061 2.635 0 5.257.011 7.838.021 5.693.024 11.58.047 17.355-.045 3.355-.054 6.715-.078 10.076-.101 10.843-.077 22.055-.157 32.909-1.303 6.07-.641 11.959-2.615 18.193-4.705 2.648-.888 5.387-1.805 8.114-2.6.849-.248 1.7-.573 2.6-.916.857-.327 1.743-.665 2.671-.95 5.453-1.679 9.16-5.339 13.05-10.321 4.154-5.319 6.656-10.185 5.368-16.64-.274-1.373-.044-2.668.16-3.812.083-.463.161-.9.194-1.289.603-6.914-.692-12.331-4.197-17.563-5.772-8.618-11.881-16.189-18.678-23.147zm101.378-23.261c-3.668 2.726-7.363 5.56-10.936 8.3-1.912 1.467-3.825 2.933-5.743 4.392l-.218.165c-5.595 4.255-11.361 8.641-18.638 10.27l1.969 14.724c15.163-13.029 29.503-25.622 41.81-41.077h-.074c-3.088 0-5.536 1.267-8.171 3.225zm-47.947 9.645c.025-1.304.055-2.927 1.034-4.259.992-1.35 2.197-2.402 3.361-3.421.723-.631 1.405-1.228 1.992-1.857.532-.57.829-1.186.795-1.647-.008-.113-.034-.458-.573-.888-.754-.601-1.527-1.271-2.274-1.919-2.168-1.881-4.863-4.219-6.665-4.219h-.041c-3.179.064-7.704 2.61-9.684 5.447-1.956 2.803-2.498 5.783-1.525 8.39 1.052 2.819 3.785 4.974 7.498 5.911 2.209.558 4.321.947 6.344 1.166-.269-.458-.383-.995-.318-1.527.04-.329.048-.741.057-1.177zm114.426-294.23c-1.32-1.82-2.777-3.633-4.187-5.387-2.537-3.157-5.161-6.421-7.253-10.024-2.792-4.808-6.775-7.29-13.744-8.565-6.461-1.183-12.95-1.773-19.427-1.773-6.79 0-13.567.65-20.277 1.949-3.339.647-6.555 2.618-9.959 4.706-.015.01-.03.019-.046.028 3.6.202 7.2.405 10.798.634 2.404.154 4.81.287 7.216.421 6.53.362 13.283.737 19.914 1.521 4.799.568 9.475 2.629 12.575 4.13 6.75 3.269 13.499 6.788 20.024 10.191 1.49.777 2.981 1.554 4.472 2.328-.034-.055-.07-.108-.107-.158zm-92.366 329.734c-1.617 1.41-3.285 2.866-3.64 3.508.35.726 2.212 2.487 4.067 4.24.753.712 1.59 1.404 2.405 2.052 3.647-10.382 9.61-19.081 17.755-25.892 1.917-1.603 4.135-2.659 6.279-3.68 1.918-.914 3.73-1.776 5.167-2.949 7.473-6.097 13.074-13.155 16.648-20.977.565-1.238.299-1.943-.984-2.604-.574-.295-.987-.472-1.351-.472-.535 0-.961.383-1.622 1.337-11.208 16.157-25.996 29.073-40.297 41.565l-4.427 3.871zm360.508-214.17c0 276.142-223.858 500-500 500s-500-223.856-500-499.998 223.858-500 500-500 500 223.858 500 500zm-184.668 255.784c-.643-1.516-1.276-3.036-1.909-4.556-4.281-10.273-8.707-20.897-15.983-30.058-.839-1.056-1.44-2.454-2.077-3.934-.525-1.222-1.069-2.485-1.801-3.695-.588-.972-1.172-1.945-1.758-2.92-3.054-5.084-6.212-10.341-9.757-15.258-2.265-3.144-4.795-6.114-7.241-8.987-2.032-2.386-4.133-4.853-6.029-7.363-9.95-13.173-23.024-23.881-42.393-34.719-1.352-.756-2.741-1.453-4.085-2.126-4.365-2.186-8.489-4.252-11.247-8.221-2.782-4.003-2.948-4.243.325-7.798 7.308-7.937 13.997-15.951 15.558-26.712.773-5.33.095-10.887-.733-16.585-.384-2.646-.44-3.947.638-5.303 1.777-2.234 3.546-4.524 5.257-6.738 1.555-2.014 3.11-4.027 4.689-6.022 6.994-8.842 7.277-18.623.795-27.542-1.272-1.751-.936-2.321-.232-3.178 3.755-4.575 7.484-9.046 11.085-13.289.552-.651 1.172-1.276 1.829-1.938.997-1.005 2.028-2.044 2.917-3.276 9.866-13.664 9.075-25.142-2.646-38.381-2.87-3.242-6.066-7.277-8.006-12.622-3.224-8.883-9.4-15.462-16.543-22.537-1.681-1.665-2.003-2.259-2.045-2.465.045-.115.364-.667 1.973-2.185 14.26-13.456 19.936-30.337 16.872-50.172-.456-2.956-.396-6.153-.338-9.244l.022-1.217c.032-1.977.145-4.011.253-5.978.148-2.679.302-5.45.264-8.215l-.003-.2q-.034-2.339 1.34-2.685c1.94-.488 3.484-1.995 4.238-4.135.947-2.689.465-5.775-1.257-8.054-3.186-4.216-6.866-7.909-10.642-10.679-3.609-2.648-7.492-4.945-11.247-7.165-1.988-1.176-4.044-2.392-6.013-3.634-.622-.392-1.222-1.036-1.494-1.602-9.52-19.815-26.002-31.832-42.394-41.865-1.41-.863-1.927-1.597-2.405-3.415-.971-3.693-2.416-8.464-4.993-12.612-6.782-10.92-13.896-21.873-20.775-32.465-1.969-3.032-3.938-6.063-5.902-9.098-6.227-9.622-15.75-14.735-24.958-19.681-.887-.477-1.775-.953-2.661-1.434-10.889-5.915-21.445-8.442-32.279-7.734-3.857.254-7.859.168-11.728.085-4.492-.096-9.136-.196-13.727.217-10.065.906-17.903 6.905-24.242 12.654-5.082 4.608-10.99 8.595-16.704 12.45l-.466.315c-.537-.052-1.512-.408-1.797-.68-13.786-16.656-30.43-25.744-50.852-27.748-15.854-1.556-36.753-2.914-57.816.427-5.276.837-10.199 3.271-14.959 5.624-.704.348-1.406.695-2.104 1.035-8.413 4.086-17.942 9.177-24.563 17.908-.904 1.192-1.823 2.38-2.745 3.57-4.248 5.486-8.641 11.16-11.668 17.498-4.44 9.297-10.825 16.792-17.585 24.727-1.638 1.923-3.332 3.911-4.975 5.904-2.747 3.332-5.577 6.702-8.315 9.961-12.75 15.179-25.934 30.875-35.726 48.767-9.073 16.581-17.96 33.611-26.554 50.08-2.92 5.595-5.839 11.19-8.771 16.778-1.696 3.234-3.415 6.457-5.133 9.682-4.999 9.377-10.167 19.073-14.706 28.899-5.999 12.987-12.221 26.89-16.589 41.531-.618 2.074-1.247 4.144-1.875 6.214-3.44 11.336-6.997 23.058-8.82 35.098-1.133 7.485-2.124 15.108-3.082 22.479-.778 5.987-1.583 12.178-2.458 18.246-.59 4.09-1.318 8.249-2.022 12.272-.755 4.311-1.535 8.768-2.156 13.193-.466 3.32-.704 6.685-.934 9.939-.172 2.431-.35 4.944-.62 7.38-.89 8.003-1.84 16.138-2.76 24.006-.764 6.533-1.527 13.066-2.266 19.603-.279 2.471-.446 4.886-.638 7.68-.092 1.34-.19 2.752-.307 4.268-.009.123-.009.246 0 .369 1.374 18.385 4.644 33.048 10.291 46.145.623 1.445 1.227 2.946 1.81 4.397 1.109 2.757 2.256 5.609 3.636 8.345 5.674 11.244 13.621 20.908 23.62 28.721 5.439 4.25 11.676 7.483 17.708 10.609 1.852.961 3.768 1.953 5.614 2.953 5.643 3.055 11.186 5.982 16.959 8.215 7.096 2.745 14.401 5.234 21.466 7.641 2.763.941 5.526 1.882 8.283 2.84.522.181 1.01.253 1.402.31.178.026.422.062.502.09 10.178 3.89 20.896 5.48 31.261 7.017 2.49.369 4.978.739 7.459 1.139 8.549 1.379 17.684 2.279 27.926 2.754 16.44.761 35.83 1.55 54.992 1.637 5.455.04 10.923-.704 16.209-1.411 2.776-.371 5.647-.754 8.449-1.016l2.987-.285c5.567-.534 11.324-1.087 16.946-1.189 6.967-.128 14.065-.097 20.931-.069 5.736.025 11.668.048 17.51-.017 3.102-.036 6.209-.033 9.319-.034 9.752-.004 19.825.002 29.677-1.127 6.779-.777 13.383-2.954 19.769-5.06 2.547-.84 5.181-1.709 7.761-2.464 1.442-.422 2.811-.97 4.135-1.501 1.071-.428 2.082-.834 3.107-1.166 6.995-2.273 12.405-6.868 17.543-14.899.281-.439.896-.898 1.556-1.349.424.521.793 1.022.885 1.394 1.854 7.557 7.466 11.115 12.893 14.556l.663.42c7.772 4.943 15.613 10.079 23.197 15.047 2.993 1.961 5.986 3.92 8.983 5.875 8.685 5.664 19.05 8.858 31.686 9.765 4.166.299 8.33.633 12.494.968 9.382.753 19.084 1.531 28.668 1.878 1.694.061 3.389.131 5.084.2 4.936.203 9.927.406 14.937.406 10.74 0 21.571-.938 32.17-4.845 3.708-1.367 7.579-2.583 11.322-3.758 5.367-1.687 10.918-3.43 16.217-5.681 6.604-2.805 13.261-6.75 19.251-11.41 8.139-6.33 12.012-13.018 6.18-26.778zm-10.986.674c-3.302-8.165-6.717-16.609-10.649-24.58-4.753-9.638-9.546-18.941-15.893-26.82-2.275-2.824-4.544-5.732-6.74-8.544-11.2-14.35-22.782-29.187-39.343-38.322-1.942-1.071-3.875-2.208-5.744-3.307-3.468-2.039-7.054-4.148-10.697-5.826-6.436-2.965-10.589-7.977-14.117-12.951-1.543-2.175-3.492-4.444-5.959-6.935-.933-.943-1.995-1.798-3.12-2.703-1.091-.878-2.22-1.786-3.275-2.819-3.89-3.806-7.071-5.613-11.156-5.613-3.062 0-6.633 1.017-11.391 2.969-15.829 6.498-28.601 17.907-40.045 29.268-.675.671-1.372 1.322-2.099 1.994.085.066.171.131.257.195.525.391 1.073.759 1.619 1.127 1.175.792 2.389 1.611 3.488 2.671 4.479 4.325 6.478 9.468 5.629 14.482-.673 3.972-3.06 7.443-6.836 10.036 3.772-.939 7.215-2.705 10.431-5.316 2.912-2.364 5.946-4.639 8.881-6.838 3.004-2.253 6.111-4.582 9.046-6.979 7.039-5.75 14.551-7.89 22.969-6.538 6.533 1.047 13.407 2.668 19.423 7.401 3.069 2.414 3.633 5.21 1.676 8.31-.475.752-.944 1.515-1.408 2.283 1.145-.934 2.298-1.864 3.454-2.778l1.167-.926c2.799-2.225 5.693-4.526 8.85-6.432 1.566-.945 3.406-.677 4.884-.462.508.074.987.143 1.374.157.736.025 1.42.38 1.863.968.442.588.595 1.344.415 2.057-.086.34-.144.801-.206 1.29-.189 1.486-.424 3.335-1.865 4.478-1.409 1.118-2.814 2.241-4.22 3.364-13.75 10.983-27.968 22.339-45.002 29.258-1.984.806-3.996 2.329-5.381 4.072-3.808 4.793-7.77 9.989-10.94 15.516-.719 1.254-.681 4.155.073 5.541 6.232 11.459 13.342 17.203 23.054 18.624 6.812.999 7.007.627 10.269-5.565 7.292-13.845 15.032-26.917 29.451-34.696 1.488-.802 5.464-1.95 7.59-.143 1.419 1.208 1.763 2.523 1.802 3.413.1 2.289-1.571 3.983-2.789 5.219-.485.492-.957.87-1.44 1.154-13.276 7.808-20.301 20.847-26.904 34.653-1.383 2.89-.91 5.588 1.63 9.312.198.291.669.607.829.647 6.037.696 12.457 1.408 18.743 1.796 2.534.157 4.355-.925 6.49-3.854 2.456-3.37 5.409-6.345 8.266-9.222 1.303-1.312 2.651-2.669 3.912-4.027 2.008-2.163 4.003-4.338 5.997-6.512 3.238-3.53 6.586-7.18 9.944-10.722.165-.174.332-.363.504-.557 1.077-1.214 2.551-2.876 4.776-2.95 1.356-.036 2.647.523 3.827 1.687 3.985 3.935.203 7.831-1.22 9.297-2.63 2.711-5.239 5.442-7.848 8.173-5.307 5.555-10.795 11.299-16.387 16.778-2.526 2.476-2.046 4.497-.814 8.472l.294.957c.601 1.995 1.933 2.809 5.091 3.113 6.342.611 10.685-.995 14.083-5.201 4.854-6.007 9.998-11.917 14.972-17.633 1.668-1.917 3.337-3.834 4.997-5.758l.396-.467c.948-1.127 2.128-2.528 3.799-3.174 1.441-.558 2.908-.477 4.203-.406.428.023.857.045 1.272.042.719-.044 1.407.291 1.879.833s.681 1.265.57 1.976c-.056.354-.077.801-.099 1.273-.064 1.364-.144 3.06-1.206 4.4-4.019 5.068-8.444 10.345-14.348 17.111l-.279.32c-3.42 3.92-6.957 7.972-10.823 11.635-4.288 4.064-11.28 6.421-18.239 6.156-5.603-.214-10.249-2.055-13.082-5.184-1.442-1.593-2.393-3.456-3.4-5.43-.161-.317-.325-.637-.492-.961-6.912 2.141-13.867 1.219-20.612.326-1.162-.154-2.325-.307-3.485-.445-7.974-.947-13.324-5.699-15.064-13.381-.153-.675-.279-.939-.333-1.029-.093-.025-.352-.073-.895-.03-9.614.731-18.361-2.24-25.999-8.823-10.033-8.646-17.721-15.397-24.93-21.886-7.837-7.054-11.679-15.61-11.419-25.433.029-1.094-.103-2.363-.403-3.879-.599-3.023-1.013-4.909-1.697-5.595-.673-.675-2.588-1.06-5.433-1.572-12.929-2.326-20.184-9.937-20.431-21.431-.07-3.255-4.978-7.58-9.725-8.569-5.316-1.101-9.892 1.02-14.842 6.891-3.458 4.103-.227 9.11.846 10.547 1.794 2.403 3.87 4.729 5.877 6.978 2.216 2.483 4.509 5.052 6.528 7.825 1.248 1.716 2.585 3.45 3.878 5.127 7.366 9.557 14.983 19.438 13.236 33.768-.543 4.451-.536 8.169.022 11.364 1.04 5.956 2.535 11.381 4.445 16.123.487 1.211 2.524 2.521 4.16 3.574.378.243.75.482 1.106.72 7.215 4.807 14.596 9.636 21.735 14.306 3.897 2.55 7.795 5.099 11.686 7.658 7.313 4.81 16.055 7.526 26.725 8.302 6.782.494 13.703.846 20.397 1.187 9.843.5 20.021 1.018 30.015 1.998 16.464 1.612 31.638-1.309 44.311-4.379 11.884-2.88 23.574-7.715 35.738-14.784 2.66-1.544 5.026-3.276 7.034-5.147 2.961-2.76 3.73-5.718 2.353-9.041-1.183-2.855-2.344-5.723-3.504-8.591zm-177.389-361.953c-.607.752-1.23 1.499-1.855 2.248-3.796 4.551-7.383 8.849-7.61 14.655-.021.531.419 1.61.741 1.977 2.604.997 5.393 1.713 8.611 2.539l.227.058c-1.883-8.531-.368-16.231 2.116-23.922-.805.801-1.549 1.603-2.23 2.446z"/></svg>