<svg enable-background="new 0 0 18.6 26" viewBox="0 0 18.6 26" xmlns="http://www.w3.org/2000/svg"><g fill="#00a3ff"><path d="m1.7 11.7-.2.3c-2.3 3.6-1.8 8.3 1.3 11.3 1.7 1.8 4.1 2.7 6.5 2.7 0 0 0 0-7.6-14.3z"/><path d="m9.3 16-7.6-4.4c7.6 14.4 7.6 14.4 7.6 14.4 0-3.1 0-6.7 0-10z" opacity=".6"/><path d="m16.9 11.7.2.3c2.3 3.6 1.8 8.3-1.3 11.3-1.8 1.8-4.1 2.7-6.5 2.7 0 0 0 0 7.6-14.3z" opacity=".6"/><path d="m9.3 16 7.6-4.4c-7.6 14.4-7.6 14.4-7.6 14.4 0-3.1 0-6.7 0-10z" opacity=".2"/><path d="m9.3 6.3v7.5l6.6-3.7z" opacity=".2"/><path d="m9.3 6.3-6.6 3.8 6.6 3.7z" opacity=".6"/><path d="m9.3 0-6.6 10.1 6.6-3.8z"/><path d="m9.3 6.3 6.6 3.8-6.6-10.1z" opacity=".6"/></g></svg>