<svg height="2000" viewBox="0 0 2000 2000" width="2000" xmlns="http://www.w3.org/2000/svg"><path d="m1000 0c552.3 0 1000 447.7 1000 1000s-447.8 1000-1000 1000-1000-447.6-1000-1000 447.7-1000 1000-1000z" fill="#53ae94"/><path d="m1123.5 866.8c276 12.7 483.5 67.5 483.5 133s-207.5 120.3-483.5 133v476.5h-246v-476.5c-276.4-12.7-484.4-67.5-484.4-133.1s207.9-120.4 484.4-133.1v-148.6h-340.2v-226.7h926.3v226.7h-340.2v148.8m.1 225.5c243.8-10.8 425.8-53.4 425.8-104.1 0-50.8-182-93.3-425.8-104.2v166.1c-7 .6-45.1 3.8-121 3.8-63.1 0-108.9-2.7-124.9-3.8v-166.1c-244.2 10.8-426.6 53.3-426.6 104.2s182.3 93.5 426.6 104.3v-.2c15.8.8 60.4 2.6 123.9 2.6 79.4 0 115.1-2.1 122-2.6v.1z" fill="#fff" fill-rule="evenodd"/></svg>