<svg viewBox="0 0 109.26 109.26" xmlns="http://www.w3.org/2000/svg"><g fill="#5a5564"><path d="m89.09 22.93-3 3a42.47 42.47 0 0 1 0 57.32l3 3a46.76 46.76 0 0 0 0-63.39z"/><path d="m26 23.19a42.47 42.47 0 0 1 57.32 0l3-3a46.76 46.76 0 0 0 -63.39 0z"/><path d="m23.19 83.28a42.47 42.47 0 0 1 0-57.29l-3-3a46.76 46.76 0 0 0 0 63.39z"/><path d="m83.28 86.05a42.47 42.47 0 0 1 -57.32 0l-3 3a46.76 46.76 0 0 0 63.39 0z"/></g><path d="m73.57 44.62c-.6-6.26-6-8.36-12.83-9v-8.62h-5.28v8.46c-1.39 0-2.81 0-4.22 0v-8.46h-5.24v8.68h-10.71v5.65s3.9-.07 3.84 0a2.73 2.73 0 0 1 3 2.32v23.76a1.85 1.85 0 0 1 -.64 1.29 1.83 1.83 0 0 1 -1.36.46c.07.06-3.84 0-3.84 0l-1 6.31h10.61v8.82h5.28v-8.69h4.22v8.65h5.29v-8.72c8.92-.54 15.14-2.74 15.92-11.09.63-6.72-2.53-9.72-7.58-10.93 3.07-1.51 4.97-4.31 4.54-8.89zm-7.4 18.78c0 6.56-11.24 5.81-14.82 5.81v-11.64c3.58.01 14.82-1.02 14.82 5.83zm-2.45-16.4c0 6-9.38 5.27-12.36 5.27v-10.58c2.98 0 12.36-.94 12.36 5.31z" fill="#f09242"/><path d="m54.62 109.26a54.63 54.63 0 1 1 54.64-54.64 54.63 54.63 0 0 1 -54.64 54.64zm0-105a50.34 50.34 0 1 0 50.38 50.36 50.34 50.34 0 0 0 -50.38-50.36z" fill="#282138"/></svg>