<svg height="240" viewBox="0 0 240 240" width="240" xmlns="http://www.w3.org/2000/svg" xmlns:xlink="http://www.w3.org/1999/xlink"><clipPath id="a"><path d="m0 0h131.949v132.505h-131.949z"/></clipPath><circle cx="120" cy="120" fill="#eef2f7" r="120"/><g fill="#eef2f7" transform="translate(10 10)"><path d="m110 218c-7.32897186 0-14.65273285-.73823547-21.7678833-2.19419861-6.9332962-1.41877746-13.75308991-3.53573608-20.26996613-6.29216003-6.39903259-2.70655823-12.57103347-6.05661011-18.34459304-9.95716858-5.71920395-3.86383057-11.0973816-8.3012085-15.98508835-13.18894959-4.88773346-4.88769531-9.32511711-10.26586914-13.18894005-15.9850769-3.90055847-5.77355957-7.25061703-11.94555664-9.95717621-18.34458923-2.75641155-6.51689148-4.87338257-13.33668518-6.29214716-20.26997376-1.45597052-7.11515045-2.19420576-14.43891144-2.19420576-21.7678833s.73823524-14.65273285 2.19420576-21.7678833c1.41876459-6.9332962 3.53573561-13.75308991 6.29214716-20.26996613 2.70655918-6.39903259 6.05661774-12.57103347 9.95717621-18.34459304 3.86382294-5.71920395 8.30120659-11.0973816 13.18894005-15.98508835 4.88770675-4.88773346 10.2658844-9.32511711 15.98508835-13.18894005 5.77355957-3.90055847 11.94556045-7.25061703 18.34459304-9.95717621 6.51687622-2.75641155 13.33666993-4.87338257 20.26996613-6.29214716 7.11515045-1.45597052 14.43891144-2.19420576 21.7678833-2.19420576s14.65273285.73823524 21.7678833 2.19420576c6.93328858 1.41876459 13.75308228 3.53573561 20.26997376 6.29214716 6.39903259 2.70655918 12.57102966 6.05661774 18.34458923 9.95717621 5.71920776 3.86382294 11.09738159 8.30120659 15.9850769 13.18894005 4.88774109 4.88770675 9.32511902 10.2658844 13.18894959 15.98508835 3.90055847 5.77355957 7.25061035 11.94556045 9.95716858 18.34459304 2.75642395 6.51687622 4.87338257 13.33666993 6.29216003 20.26996613 1.45596314 7.11515045 2.19419861 14.43891144 2.19419861 21.7678833s-.73823547 14.65273285-2.19419861 21.7678833c-1.41877746 6.93328858-3.53573608 13.75308228-6.29216003 20.26997376-2.70655823 6.39903259-6.05661011 12.57102966-9.95716858 18.34458923-3.86383057 5.71920776-8.3012085 11.09738159-13.18894959 15.9850769-4.88769531 4.88774109-10.26586914 9.32511902-15.9850769 13.18894959-5.77355957 3.90055847-11.94555664 7.25061035-18.34458923 9.95716858-6.51689148 2.75642395-13.33668518 4.87338257-20.26997376 6.29216003-7.11515045 1.45596314-14.43891144 2.19419861-21.7678833 2.19419861z"/><path d="m110 4c-7.19456482 0-14.38343811.7245636-21.36694336 2.15359497-6.80392456 1.39231873-13.496521 3.4697876-19.89179993 6.17477417-6.28007507 2.65625-12.33753967 5.94416809-18.00407409 9.77241516-5.61373902 3.79255676-10.89277649 8.1481781-15.69049073 12.94590759-4.79772949 4.79771424-9.15335083 10.07675171-12.94590759 15.69049073-3.82824707 5.66653442-7.11616516 11.72399902-9.77241516 18.00407409-2.70498657 6.39527893-4.78245544 13.08787537-6.17477417 19.89179993-1.42903137 6.98350525-2.15359497 14.17237854-2.15359497 21.36694336s.7245636 14.38343811 2.15359497 21.36694336c1.39231873 6.80392456 3.4697876 13.496521 6.17477417 19.89181518 2.65625 6.28005982 5.94416809 12.33752442 9.77241516 18.00405884 3.79255676 5.61373902 8.1481781 10.89277649 12.94590759 15.69049073 4.79771424 4.79772949 10.07675171 9.15335083 15.69049073 12.94590759 5.66653442 3.82824707 11.72399902 7.11616516 18.00407409 9.77241516 6.39527893 2.70498657 13.08787537 4.7824707 19.89179993 6.17477417 6.98350525 1.42903137 14.17237854 2.15359497 21.36694336 2.15359497s14.38343811-.7245636 21.36694336-2.15359497c6.80392456-1.39230347 13.496521-3.4697876 19.89181518-6.17477417 6.28005982-2.65625 12.33752442-5.94416809 18.00405884-9.77241516 5.61373902-3.79255676 10.89277649-8.1481781 15.69049073-12.94590759 4.79772949-4.79771424 9.15335083-10.07675171 12.94590759-15.69049073 3.82824707-5.66653442 7.11616516-11.72399902 9.77241516-18.00405884 2.70498657-6.39529418 4.7824707-13.08789062 6.17477417-19.89181518 1.42903137-6.98350525 2.15359497-14.17237854 2.15359497-21.36694336s-.7245636-14.38343811-2.15359497-21.36694336c-1.39230347-6.80392456-3.4697876-13.496521-6.17477417-19.89179993-2.65625-6.28007507-5.94416809-12.33753967-9.77241516-18.00407409-3.79255676-5.61373902-8.1481781-10.89277649-12.94590759-15.69049073-4.79771424-4.79772949-10.07675171-9.15335083-15.69049073-12.94590759-5.66653442-3.82824707-11.72399902-7.11616516-18.00405884-9.77241516-6.39529418-2.70498657-13.08789062-4.78245544-19.89181518-6.17477417-6.98350525-1.42903137-14.17237854-2.15359497-21.36694336-2.15359497m0-4c60.75131226 0 110 49.24868774 110 110s-49.24868774 110-110 110-110-49.24868774-110-110 49.24868774-110 110-110z" fill="#c4c4c4"/></g><g fill="none" stroke="#aaaab7" stroke-width="2.5"><circle cx="120" cy="120" r="107" stroke="none"/><circle cx="120" cy="120" fill="none" r="105.75"/></g><g clip-path="url(#a)" transform="translate(54.025 53.748)"><path d="m34.8 75.542c34 0 34-.507 39.767-2.217 7.533-2.236-21.273-22.177-39.767-22.177s-33.488 5.462-33.488 12.198 14.988 12.196 33.488 12.196" transform="translate(1.461 56.964)"/><path d="m113.467 28.784 1.564 1.685-1.365 1.847c-44.345 59.959-69.891 87.105-80.73 83.466-6.6-2.219-13.221-8.888-19.843-18.573-2.327-3.405-4.513-6.99-6.5-10.556-1.323-2.376-2.443-4.542-3.025-5.762a14.361 14.361 0 0 1 -1.3-3.775l-.03-.152c-.1-.535-.14-.7-.218-1a60.455 60.455 0 0 1 87.873-68.308l.23.144q10.967 7.638 23.344 20.985m-26.4-16.356a54.925 54.925 0 0 0 -79.692 62.117c.12.452.175.706.3 1.361l.025.135a9 9 0 0 0 .871 2.458c.531 1.114 1.6 3.175 2.864 5.449 1.911 3.428 4.01 6.872 6.233 10.127 5.984 8.749 11.915 14.726 17.032 16.445 6.827 2.293 32.523-24.908 73.132-79.648a139.482 139.482 0 0 0 -20.765-18.444" transform="translate(0 .001)"/><path d="m84.146 9.507a54.925 54.925 0 0 0 -79.693 62.118c.12.452.175.706.3 1.361l.025.135a9 9 0 0 0 .869 2.462c.531 1.114 1.6 3.175 2.864 5.449 1.911 3.428 4.01 6.872 6.233 10.127 5.984 8.749 11.915 14.726 17.032 16.445 6.831 2.296 32.524-24.904 73.135-79.648a139.482 139.482 0 0 0 -20.765-18.449" fill="#ec1c79" transform="translate(2.921 2.922)"/><path d="m65.677 126.107a60.431 60.431 0 1 1 60.431-60.431 60.43 60.43 0 0 1 -60.431 60.431m0-5.544a54.886 54.886 0 1 0 -54.887-54.886 54.887 54.887 0 0 0 54.886 54.886" transform="translate(5.842 5.843)"/><path d="m62.755 117.642a54.886 54.886 0 1 0 -54.886-54.887 54.887 54.887 0 0 0 54.886 54.886" fill="#fff" transform="translate(8.764 8.765)"/><path d="m18.239 50.72-7.265-21.888h6.366l3.788 12.574 4.189-12.636h5.183l4.191 12.636 3.788-12.574h6.242l-7.265 21.888h-5.246l-4.377-12.511-4.348 12.511zm28.873-.154v-21.734h17.48v5.124h-11.517v3.291h10.431v4.753h-10.431v3.445h11.671v5.124zm26.02 0v-16.456h-6.519v-5.278h19.059v5.278h-6.519v16.455zm15.181 0v-21.734h6.024v8.133h7.73v-8.133h6.026v21.733h-6.026v-8.258h-7.73v8.258z" fill-rule="evenodd" transform="translate(12.222 32.043)"/><path d="m2.609 28.806a3.105 3.105 0 0 1 2.777-5.555l8.869 4.437a3.1 3.1 0 1 1 -2.775 5.553z" transform="translate(.993 25.531)"/><path d="m2.172 35.787a3.1 3.1 0 1 1 2.6-5.637l8.871 4.092a3.105 3.105 0 0 1 -2.6 5.639z" transform="translate(.409 33.26)"/></g></svg>