<svg viewBox="0 0 236.36 200" xmlns="http://www.w3.org/2000/svg"><path d="m203 26.16-28.46 14.5-137.43 70a82.49 82.49 0 0 1 -.7-10.69 81.87 81.87 0 0 1 121.79-71.37l16.29-8.3 2.43-1.24a100 100 0 0 0 -158.74 80.94q0 3.82.29 7.61a18.19 18.19 0 0 1 -9.88 17.58l-8.59 4.38v20.43l25.29-12.89 8.19-4.18 8.07-4.11 144.88-73.82 16.28-8.29 33.65-17.15v-20.42z"/><path d="m236.36 50-186.58 95-16.28 8.31-33.5 17.07v20.41l33.27-16.95 28.46-14.5 137.57-70.1a83.45 83.45 0 0 1 .7 10.76 81.87 81.87 0 0 1 -121.91 71.36l-1 .53-17.66 9a100 100 0 0 0 158.75-80.89c0-2.57-.1-5.14-.29-7.68a18.2 18.2 0 0 1 9.87-17.58l8.6-4.38z"/></svg>