<svg viewBox="0 0 2500 2500" xmlns="http://www.w3.org/2000/svg" xmlns:xlink="http://www.w3.org/1999/xlink"><linearGradient id="a" gradientTransform="matrix(86.55694109 -86.55694109 86.55694109 86.55694109 -81568.2 55372.05)" gradientUnits="userSpaceOnUse" x1="782.84" x2="799.34" y1="165.91" y2="165.91"><stop offset="0" stop-color="#cf8724"/><stop offset="1" stop-color="#fdce58"/></linearGradient><path d="m1263.05 2297.61c-569.6 0-1034.57-465.43-1034.57-1034.56 0-569.6 465.44-1034.57 1034.57-1034.57 569.6 0 1034.56 465.44 1034.56 1034.57 0 569.6-464.96 1034.56-1034.56 1034.56z" fill="url(#a)"/><path d="m1250 2500c-687.5 0-1250-562.5-1250-1250s562.5-1250 1250-1250 1250 562.5 1250 1250-562.5 1250-1250 1250zm0-2222.06c-534.56 0-972.06 437.5-972.06 972.06s437.5 972.06 972.06 972.06 972.06-437.5 972.06-972.06-437.5-972.06-972.06-972.06z"/><path d="m1221.05 1588.59h541.67v270.84h-319.6v229.16h-277.94v-222.06h-333.33c0-90.44-13.73-180.4 7.1-263.73 7.1-41.67 55.4-83.34 90.43-125 104.17-125 208.34-250 319.61-375 41.66-48.77 83.33-90.44 132.1-145.83h-520.83v-270.84h305.39v-229.13h270.84v222h333.33c0 90.43 13.73 180.4-7.1 263.73-7.1 41.67-55.4 83.33-90.44 125-104.16 125-208.33 250-319.6 375-41.68 48.8-83.33 97.09-131.63 145.86z"/></svg>