<svg enable-background="new 0 0 1022.2 1022.7" viewBox="0 0 1022.2 1022.7" xmlns="http://www.w3.org/2000/svg" xmlns:xlink="http://www.w3.org/1999/xlink"><linearGradient id="a" gradientUnits="userSpaceOnUse" x1="345.3209" x2="1017.2872" y1="1018.3849" y2="307.4204"><stop offset="0" stop-color="#0e9de5"/><stop offset=".1857" stop-color="#10a3dc"/><stop offset=".4884" stop-color="#17b4c4"/><stop offset=".8684" stop-color="#22d09c"/><stop offset="1" stop-color="#26db8d"/></linearGradient><path d="m765.8 510.6c-51.1-10.8-223.9-40.5-407.5 53.3-155.1 79.3-231.5 202.5-258.5 251.6-153-209.9-126.8-501.2 56.2-675.9 174.4-166.6 449-187.1 651.3-45.1-43.3 28.2-86.7 56.3-130 84.5-27.5-14-72.3-32.7-130-38.5-114.8-11.6-201 35.5-228.5 52-23.4 14.1-135.9 85.3-171 230.5-23.7 98.1.2 179.1 12 212.3 13.8-17 31.1-35.9 52.5-54.8 15.3-13.5 30.3-24.9 44.1-34.4-3.4-26.7-7.3-88 25.4-151.8 41-79.9 128.1-141.7 230.9-140.8 112.9 1 200.8 77.4 235 160 16.1 38.7 18.5 74.3 18.1 97.1z" fill="#041742"/><path d="m299.3 655c40.2-31.4 98.7-67.9 175.1-90.1 69.8-20.3 127.3-20.8 158.4-20.9 53.1-.1 97.6 6.7 130 13.5-3.6 19.7-20.3 98-93.5 155.5-66.3 52.1-137.5 54.6-159.1 54.5-22.8 0-66.6-2.9-114.4-27-53.7-27.1-83.7-66.3-96.5-85.5zm203 367.6c61.6 1 159.3-8.5 259.5-65.2 65.4-37 109.5-81.4 136-112.5 27.5-32.1 121.8-149.9 124.4-327 2.3-157.4-69.1-268.1-95.2-304.9-28.1 43.1-56.1 86.3-84.2 129.4 72.4 142.9 44.7 317.2-68.5 430.5-113.3 113.4-288 141.2-431 68.5-44 28.7-88 57.3-132 86 39.6 27.8 143.8 92.9 291 95.2z" fill="url(#a)"/></svg>